<svg width="1813" height="387" viewBox="0 0 1813 387" fill="none" xmlns="http://www.w3.org/2000/svg">
<g clip-path="url(#clip0)">
<path d="M239.2 0C249.4 2.7 259.6 5.2 269.6 8.2C351.5 32.8 406.9 83 421.4 170.1C429.2 216.9 416.5 260.1 389.1 298.5C332.1 378.3 229.3 399.6 161.2 380.6C189.5 371.5 220.8 362.4 251.3 351.5C326.7 324.6 367.2 249.6 348.2 173.9C329.3 98.6 254.3 49.7 176.4 61C92.7001 73.1 39.1001 122.2 6.30006 197.5C4.50006 201.6 2.70006 205.7 5.84126e-05 209.5C-4.39994 172.7 2.90006 138.4 21.1001 106.7C53.1001 50.9 102.3 18.9 164.4 5.3C170.4 4 176.3 1.8 182.3 0C201.2 0 220.2 0 239.2 0Z" fill="#253B5C"/>
<path d="M1814.6 217.6C1809.2 225.6 1801.5 227.2 1792.3 226.9C1773.9 226.3 1755.5 226.7 1737.2 226.7C1736.6 242 1746.6 254 1761.4 253.8C1771.7 253.6 1781.9 248.9 1792.2 246.5C1796 245.6 1802 244.1 1803.5 245.9C1806.5 249.3 1807.9 254.8 1808.1 259.5C1808.2 262.4 1805.4 265.7 1803.2 268.3C1787.2 287 1750.8 294.8 1723.9 285.6C1698.3 276.8 1680.9 253.2 1679.8 225.9C1678.5 193.2 1701.1 164.5 1734.3 156.5C1767.5 148.6 1797.3 162.5 1811.8 192.7C1812.5 194.2 1813.7 195.4 1814.7 196.7C1814.6 203.8 1814.6 210.7 1814.6 217.6ZM1748 205.1C1756.9 202 1765.9 204.4 1765.1 192.7C1764.5 183.9 1759.8 178.5 1750.5 178.2C1741.9 178 1732.7 186.4 1735 194.3C1736.4 198.9 1743.5 201.6 1748 205.1Z" fill="#253B5C"/>
<path d="M47.1 300.3C34.7 286.3 22.9 270.3 18.4 249.4C12.5 221.8 23.6 200.2 41 181.2C76.4 142.5 123.2 125.1 172.7 113.8C187.2 110.5 202 108.6 216.7 106.3C233.9 103.6 254.8 114.1 259.5 127.6C265.4 144.4 256.3 168.7 238 176.4C208.4 188.9 178 199.6 147.5 210C117.1 220.4 86.8 231.4 66.9 257.8C57.6 270.1 53.4 286.3 47.1 300.3Z" fill="#253B5C"/>
<path d="M793.1 289.5C778.2 288.5 766.4 288.9 755.1 286.4C749.4 285.2 742.8 279.5 740.7 274.3C739.5 271.2 746.6 265 749.8 260.1C753.4 254.7 759.5 249.2 759.7 243.6C761.2 212.2 761.4 180.7 761.7 149.2C761.8 139.3 758.7 131.2 748.4 126.2C738.7 121.6 739.5 111.4 749.5 106.8C754 104.7 759.5 104.1 764.5 104.1C807.2 103.9 849.8 103.8 892.5 104.2C896.9 104.2 903.8 107 905.3 110.4C910 121.2 913.7 132.6 915.4 144.2C916 148.3 910.6 155.6 906.3 157.5C902.8 159 894.6 156.2 892.1 152.7C878.7 133.7 859.2 132.8 839 132.4C830.2 132.2 825.2 135.9 824.3 144.9C823.8 150.5 822.8 156 822.2 161.6C821.3 169.3 820.9 176.8 831.5 178.1C840.4 179.2 847.2 178 851 167.8C852.9 162.7 858.8 159.2 862.9 155C867.1 159.4 874.6 163.5 874.8 168.1C875.7 186.3 875.2 204.8 873.1 223C872.6 227.7 864.1 231.4 859.2 235.5C856.4 230.8 852.2 226.4 850.9 221.3C848.4 211.3 842.8 205.7 832.8 206.9C829 207.4 823 211.9 822.8 215C821.9 225.6 821.7 236.8 823.9 247.1C825 252.4 831.7 256.7 836 261.2C839.5 264.9 846.8 269 846.3 271.6C845.3 276.4 840.3 283.1 836 283.9C821 287.1 805.4 288.1 793.1 289.5Z" fill="#253B5C"/>
<path d="M1088.3 232.1C1091.6 244.2 1094.4 256.5 1098.3 268.4C1101.2 277 1098.1 282.3 1090.5 284.5C1070.3 290.3 1049.6 291.4 1029.3 285.2C1017.6 281.6 1016.9 274.5 1024.7 265C1028 261 1030.5 255.3 1030.9 250.2C1032.1 236 1032.9 221.7 1031.9 207.6C1031.5 202.2 1027 196.3 1022.9 192C1015.7 184.3 1015.1 177.7 1024.8 173.8C1042.3 166.8 1060.5 161.2 1078.7 156.6C1081.6 155.9 1086.9 162.5 1090.2 166.5C1092.3 169.1 1092.8 173.1 1094 176.4C1097.1 174.6 1101.2 173.6 1103.3 171C1116.8 154.8 1133.8 152.6 1152.5 158.5C1171 164.4 1178.3 178.8 1179.3 197.2C1180 211.4 1180.9 225.6 1181.3 239.9C1181.6 250 1182.4 259.2 1190.2 267.2C1196.2 273.4 1193.6 282.9 1186 283.7C1164.4 285.9 1142.6 286.5 1120.9 285.3C1112.8 284.9 1110.6 277.1 1115.8 268.4C1128.4 247.3 1125.4 224.5 1119.5 202.3C1118.5 198.6 1110.1 194.4 1105.4 194.7C1100.8 195.1 1094.2 200.2 1092.9 204.6C1090.4 213.1 1091.1 222.5 1090.4 231.5C1089.8 231.6 1089.1 231.9 1088.3 232.1Z" fill="#253B5C"/>
<path d="M1423.7 233.2C1427 244.9 1429.6 256.9 1433.9 268.2C1436.9 276.3 1434.4 281.7 1427.8 283.9C1406.4 290.8 1384.5 291.9 1363.1 284.5C1353.7 281.2 1353.4 274.2 1359.3 266.1C1362.9 261.2 1365.8 255.1 1366.6 249.2C1368.1 237.7 1367.9 226 1368.5 214.3C1369 204.8 1367.5 196.9 1358.3 191C1350.7 186.1 1351.5 177.7 1359.4 174.6C1377.7 167.4 1396.6 161.5 1415.7 156.5C1418.1 155.9 1423 163.4 1426.1 167.5C1428 170 1428.7 173.3 1429.9 176.3C1433.1 174.6 1436.9 173.5 1439.3 171C1454 155.7 1470.7 151.3 1489.6 158.8C1503.5 164.3 1512.7 174.1 1513.9 189.4C1515.4 207 1515.3 224.8 1517.3 242.3C1518.2 250.3 1521.5 258.6 1525.5 265.7C1530.7 274.9 1530 283.2 1519.7 284.4C1499.4 286.7 1478.7 287.1 1458.2 286C1448.6 285.5 1446.7 276.9 1451.7 268.5C1464.3 247.6 1460.8 225.3 1455.9 203.5C1455 199.4 1446.2 194.4 1441.4 194.7C1436.8 195 1430.1 200.8 1428.6 205.6C1426 214 1426.5 223.4 1425.8 232.4C1425.1 232.6 1424.4 232.9 1423.7 233.2Z" fill="#253B5C"/>
<path d="M1330.2 215.9C1330.7 223.1 1330.6 232.7 1332.4 242C1333.2 246.3 1337.9 249.8 1340.1 254C1342.1 257.8 1345.4 262.9 1344.4 266.1C1337.4 287.8 1305.1 296.7 1287.6 281.6C1281.7 276.5 1277.7 276.8 1271.9 280.8C1258.3 290.1 1243.3 292 1227.4 287.7C1213.1 283.8 1204.3 274.4 1201.2 260.3C1198 246.1 1203 233 1215.2 226.8C1229 219.8 1244.9 217.3 1259.9 212.5C1265 210.8 1274.3 207.9 1274.1 206.1C1273.4 196.7 1270.6 187.4 1267.3 178.6C1267 177.9 1256.2 179.4 1252.2 182.4C1246.1 186.9 1242.2 194.3 1236.3 199.2C1228.8 205.5 1219.6 208.1 1212 199.6C1204.7 191.4 1209.3 183.4 1215.4 176.6C1236.4 153.3 1290.4 147 1314.9 166.4C1322.2 172.2 1326.6 182.7 1329.9 192C1332.1 198.4 1330.2 206.3 1330.2 215.9ZM1280.4 244.8C1274.5 238.4 1271.2 231.6 1267.6 231.5C1258.7 231.2 1254.2 238.2 1253.9 246.8C1253.6 254.1 1256.3 262.5 1264.5 260.9C1269.8 259.8 1273.8 251.8 1280.4 244.8Z" fill="#253B5C"/>
<path d="M576.7 228.5C576.6 242.2 586.8 254.1 601.4 254C611.3 253.9 621.1 249.4 631 247.3C635.5 246.4 642.7 244.9 644.2 247C647 250.8 647.1 257 647.1 262.2C647.1 264.7 644.3 267.6 642.1 269.5C619.5 289.3 593.3 294.8 565 286C538.5 277.8 524.3 258 520.1 231.2C515.6 202.6 533.4 173.2 562 160.8C590.6 148.4 625.2 154.7 642.1 177.5C648.6 186.3 652.5 198.2 653.9 209.2C655.5 221.9 649.2 226.6 635.9 226.8C617.4 227 598.8 227 580.3 227.2C579.1 227.2 577.9 228.1 576.7 228.5ZM590.5 207.1C596.8 201.3 604 197.9 604.6 193.5C606 184.2 600 178.1 589.9 178.3C579.8 178.6 574.4 185.7 575.2 194.3C575.6 198.3 583.5 201.6 590.5 207.1Z" fill="#253B5C"/>
<path d="M1612.5 155C1630.8 155 1647.7 159.6 1661.1 172.6C1676.9 187.8 1672.8 211.5 1653.7 217.9C1640.8 222.2 1630.8 217.6 1626.1 204.4C1622.7 195.1 1619.8 185.7 1607 187.9C1597.4 189.6 1591.3 201.1 1592.7 213.8C1595.6 240.2 1618 254.5 1643.3 245.8C1650 243.5 1656.9 238 1662.7 246.9C1668.1 255.1 1665.1 262.6 1659.5 269.4C1638.7 295.1 1588.5 297 1560.4 273.2C1532.1 249.2 1528.6 207.7 1552.5 180.7C1567.5 163.8 1588.1 154.9 1612.5 155Z" fill="#253B5C"/>
<path d="M123.2 365C94.1 341.2 91.5 306 116.7 279.6C140 255.2 170.1 243.7 202 236.4C213.3 233.8 225 232.6 236.6 231.4C248.9 230.1 259 234 264 246.1C268.1 256 263 272 253 278.1C245 283 236.2 286.7 227.3 289.9C211.1 295.7 194.3 300.1 178.3 306.3C150.8 316.8 126.2 330.7 123.2 365Z" fill="#253B5C"/>
<path d="M996 205.7C996 216.5 996.3 227.2 996 238C995.7 248.4 997.5 257.2 1006.6 264.1C1014.4 270 1012.2 276.9 1005 282.1C1002.6 283.8 999.6 285.6 996.8 285.6C975.5 285.7 954 286.8 932.8 284.7C919.8 283.4 918.6 273.3 927.5 263.4C931.8 258.6 936 252 936.5 245.9C937.7 231.4 937.2 216.7 936.1 202.2C935.8 198.5 931.6 194.4 928.2 191.7C918.6 184 917.9 175 928.8 171.2C947.4 164.8 966.7 160.6 985.9 156C993 154.3 996 158.8 996 165.7C996 179 996 192.3 996 205.7Z" fill="#253B5C"/>
<path d="M681.4 237.4C655.6 238.2 655.2 237.5 664.2 212.6C671.2 193.2 674.8 191.3 695.7 193.2C705.5 194.1 715.5 194.4 725.4 193.5C733.2 192.8 736.6 195.6 734.6 202.7C731.6 213.4 728.4 224.2 723.4 234C721.6 237.5 714.4 239.6 709.7 239.7C700.3 240 690.8 238.3 681.4 237.4Z" fill="#253B5C"/>
<path d="M968.3 105.8C971.7 106.1 975.8 105.2 978.4 106.8C984.2 110.4 992.7 114.5 993.7 119.6C994.7 124.7 989.1 135.1 984.3 136.6C969.6 141.3 953.9 144.2 938.5 145C933.8 145.2 925.7 137.1 924.5 131.6C923.5 127 929 118.2 934 115.7C944.5 110.3 956.4 107.8 967.7 104.2C967.9 104.7 968.1 105.2 968.3 105.8Z" fill="#253B5C"/>
</g>
<defs>
<clipPath id="clip0">
<rect width="1812.1" height="386.9" fill="white"/>
</clipPath>
</defs>
</svg>
