<svg width="1455" height="387" viewBox="0 0 1455 387" fill="none" xmlns="http://www.w3.org/2000/svg">
<path d="M225.4 386.8C220.6 386.8 215.9 386.8 211.1 386.8C210.2 386.1 209.3 385.1 208.3 384.8C197.8 382.1 187.2 379.6 176.7 376.8C172.6 375.7 168.5 372.8 164.7 373.2C156.5 374.1 148.5 376.3 140.5 378.6C119.8 384.6 119.1 384.6 107.2 367.3C104.5 363.4 102.6 361.8 97.5 364.1C88.2 368.2 81.8 365.2 76.5 356.2C73.3 350.7 69.9 345 65.5 340.6C57.3 332.3 56.7 329.4 64.5 320.8C65.5 319.6 66.9 318.8 66.7 319C67 311.9 67.3 306.3 67.5 300.7C67.7 293.6 69.1 286.3 67.6 279.6C66.4 273.9 67.3 270.9 71.6 267.5C80 260.8 80 256.8 72.1 249.2C70.1 247.3 67.9 245.6 65.2 243.4C63.2 246.2 62 249.3 59.8 250.5C55.8 252.8 51 255.4 46.7001 255C44.2001 254.8 40.7001 249.2 40.3 245.7C39.6 239.5 41.1001 233.1 41.4001 226.8C41.5 224.9 40.7001 222.9 40.3 221C39.6 220.9 38.9001 220.8 38.2001 220.7C36.5 223.4 34.8 226.1 33.1 228.8C29.6 234.4 26.5 240.4 22.4 245.5C17.8 251.1 7.20005 251.2 0.300049 245.7C12.3 240.9 13.4 229.5 17.8 219.8C15.2 219 13.1 218.4 10.3 217.6C15.4 211.8 25 208.8 19.5 197.8C25.3 194.7 31 191 37.3 188.5C51.3 183.1 62.2001 190.3 60.8 204.9C59.9 214.1 55.7001 222.9 53.2001 232C52 236.1 51.3001 240.4 50.4001 244.6C51.4001 245 52.4001 245.3 53.5 245.7C55.8 242 58.6001 238.5 60.4001 234.6C65.2001 224.3 70.2 214 74.1 203.4C77 195.6 82.7001 188 78.8 179.3C75.2001 180.4 72 181.3 68.8 182.2C68.8 178.7 68.8 175.2 68.8 171.4C65.8 171.4 63.5 171.4 60.8 171.4C60.6 168.5 60.1001 165.9 60.4001 163.4C61.2001 158 59.1 156.7 54 157.2C51.5 157.5 48.7001 156.1 44.2001 155C51.3 150.2 49.9001 146 47.9001 141.3C42.3001 127.8 38.8 113.9 46.6 100C48.9 95.8 52.3 92.2 55 88.1C59.2001 81.7 64.4 77 72.8 77.5C75.6001 77.6 78.6 77.5 81.1 76.5C88.3 73.6 98.9 75.4 104.4 81C106.5 83.2 108.6 85.4 110.8 87.8C109.3 89.1 108 90.3 105.5 92.4C111.1 96.3 115.9 100.1 121.1 103.1C126.8 106.3 131.1 110.2 129.3 117C128.6 119.6 124.1 120.9 122.9 123.6C120.1 129.5 117 127.2 113.2 125.2C109.5 123.2 105.5 121.5 101.7 119.7C101.2 120.5 100.7 121.2 100.3 122C102 123.5 103.7 125.1 105.5 126.6C114.4 134.2 124.1 141.1 132.1 149.6C137.5 155.3 142.2 156.6 149.2 154.6C157.7 152.1 166.4 150.3 175.9 148C179.1 143 182 135.6 191.3 134.7C193 134.5 195.8 132.6 196 131.3C196.9 124.7 200.6 123.3 206.5 123.8C210.8 124.1 215.5 117.2 212.8 115.2C208.5 111.9 211 109.2 211.5 106C212.7 98.7 213.9 91.5 214.7 84.2C214.9 82.1 213.9 79.8 213.3 76.7C208.7 79.1 204 80.1 201.6 83C192 94.6 182.8 106.3 168.3 112.4C161.1 115.4 154.1 118.8 146 122.5C146 120.5 145.7 118.3 146 116.2C148.9 98.9 150.9 81.4 155.1 64.4C157.5 54.5 154.5 43.1 162.7 34.6C163.4 33.9 161.5 30.7 160.4 27.1C168.1 21.7 176.2 15 185.2 10.2C190.4 7.4 197.4 7.2 202.6 11.9C206 15 206 25.8 203.5 30.8C202.5 32.9 202.6 35.6 202.1 38.1C205.9 37.9 210.3 38.9 213.2 37.2C216.7 35.2 218.9 31 221.5 27.6C225.1 23.1 223.6 20.3 218.4 18.8C216.8 18.4 215.2 18 213.5 17.9C208.4 17.6 206.8 13.5 209.1 10.6C212.9 5.8 218.2 0 222.6 0C231.2 0 239.8 3.7 248.4 6C247.4 9.3 245.7 12.2 245.8 15C246 22.6 246.9 30.1 247.7 38.7C249.4 38.2 252.9 38.2 254.5 36.4C255.6 35.2 254.3 31.6 253.8 29.1C252.8 23.1 250.4 16.7 255.5 11.6C260.6 6.5 266.9 7.1 272.6 10.5C279.8 14.9 286.8 19.8 293.7 24.7C294.8 25.5 296.1 28.2 295.8 28.6C291.8 33.1 296.4 36.1 297.8 39.3C299.3 42.6 302 45.3 303.4 47.2C301.9 50.7 299.8 53.1 300 55.2C301.3 65.3 303 75.3 304.9 85.2C307.2 96.9 310 108.5 313 122.2C300.8 116.6 289.3 113.2 280 106.5C270.3 99.5 262.8 89.4 253 79.2C253.7 83.7 253.4 87.2 254.9 89.8C259.2 97.6 264.2 105.1 269 112.6C271.8 116.9 274.8 121 279 127C269.2 128.1 261.6 128.9 253.6 129.8C261.8 136.3 269.2 142.2 276.7 148C277.2 148.4 278.1 148.2 278.7 148.4C287.4 150.4 296 152.5 304.7 154.2C307.5 154.8 311.4 155.3 313.3 153.9C319.1 149.5 323.9 143.9 329.4 139.2C334.7 134.6 340.4 130.4 345.8 126C347.6 124.5 349.3 122.9 351.1 121.4C350.6 120.7 350.2 120 349.7 119.3C346.4 121.1 342.9 122.7 339.7 124.6C335.7 127 331.9 129.7 328.8 123.4C328.4 122.5 327 121.6 326 121.6C321.3 121.5 320.8 117.9 321.8 115.2C323.2 111.4 325.3 107.5 328.2 104.9C333.5 100.1 339.5 96.3 345.7 91.8C342.6 89.6 341.1 88.5 339.6 87.5C343.7 84.2 347 80.8 351 78.5C357.1 75 363.4 69.8 370.8 76.4C371.7 77.2 373.6 77.2 374.9 76.9C383.8 75 390.2 77.4 395 85.7C397.5 90.1 403 92.8 405.2 97.2C412 111.5 410.5 126.1 403.6 140C400.9 145.5 399.5 149.9 406.8 155.7C400.7 155.7 397.1 155.7 392.3 155.7C392.3 158.5 392.2 161 392.3 163.6C392.5 167.9 392.8 171.6 386.5 171.6C382.9 171.6 379.4 173.4 381.4 178.6C381.7 179.4 380.5 180.8 379.9 182.1C377.2 180 375 178.3 372.3 176.2C370.2 189.8 390.6 237.9 401.2 244.3C400.7 241.3 400.7 239.2 400.1 237.2C397.2 228.7 393.3 220.5 391.2 211.9C389.6 205.2 387.6 197.3 393.6 191.7C400.2 185.5 408.6 186.2 416.4 189.3C422 191.5 427.1 195 432.5 197.9C425.3 209 439 210.4 440.5 217.6C438.9 219 437.2 220.5 435.5 222C437.1 226.3 438.1 230.5 440.2 234.2C441.7 236.9 444.4 238.9 446.7 241.1C448.3 242.6 450.2 243.8 452 245.2C449.7 247 447.3 250.4 445 250.3C438.8 250.1 432 250.3 427.9 243.7C424.1 237.6 420 231.6 415.9 225.5C414.9 223.9 413.6 222.5 411.2 219.5C411.7 229 412.9 236.2 412.3 243.3C412 247.2 409.4 252.8 406.4 254C402.8 255.4 397.2 253.9 393.3 251.9C389.8 250.1 387.6 245.9 384.8 242.8C373.3 251.7 372.6 257.5 380.9 268.7C382.6 271.1 383 274.7 383.2 277.9C383.5 284.2 383.1 290.6 383.3 297C383.5 303.8 383.9 310.7 384.2 317.5C382.8 318.1 383.3 318.6 383.9 319C393.8 324.8 394.4 334.2 386.3 341.8C381.2 346.6 376.8 352.3 373.2 358.3C369.5 364.5 364.7 367.1 358.5 364.4C350.6 360.8 346 363.4 342.6 370.5C342 371.8 341.2 373 340.4 374.1C334.3 383.1 327.2 384.4 317.1 380.7C307.8 377.3 298 375.4 288.4 373.1C287 372.8 285.2 373.5 283.6 374.1C267.6 379.7 251.7 385.5 234.2 384.6C231.5 384.3 228.4 385.9 225.4 386.8ZM368.1 310.6C368.8 310.1 369.5 309.6 370.2 309.1C371.2 299.2 369 289.6 364.1 281.3C357.2 269.8 348.8 259.1 341.1 248.1C337.8 243.4 334 244.2 330.2 247.2C325.3 251.1 324.9 256.1 326.1 262C329.1 277.3 324.8 281 310 277.4C304.6 276.1 298.7 277 293 277.3C291.7 277.4 290.4 279.2 289.2 280.2C289.4 280.9 289.6 281.5 289.8 282.2C293.6 282.2 297.4 282 301.2 282.3C306.9 282.8 312.5 282.3 317.1 287.6C320.7 291.8 326.1 292.9 329.5 288.6C335 289.4 339.9 289.2 343.9 291C351.1 294.4 361.8 293.4 363.2 305.2C363.6 307.2 366.5 308.8 368.1 310.6ZM156.6 280.8C156.6 280.1 156.6 279.5 156.5 278.8C150.1 276.7 143.6 277 137.2 279.7C129.9 282.7 125.7 280.3 125.4 272.4C125.3 269.1 126.3 265.8 126.1 262.5C125.9 258.1 125.7 253.5 124.3 249.4C122.3 244 115.5 243.7 111.9 248.3C109.9 250.9 107.4 253.2 105.5 255.8C99.7 263.8 92.9 271.4 88.5 280.1C85 287.1 80.8 295 84 305.3C91.2 294.7 101.4 292.6 111.6 290.9C115.4 290.3 119.6 289 123 290C130.6 292.1 134.6 290.9 137.8 283.9C144.1 282.9 150.4 281.8 156.6 280.8ZM159 228.7C153.8 233 147.5 236.1 146.9 244.4C146.7 248.1 145.4 251.8 144 255.3C141.7 261.2 143.8 264.9 149.5 265.8C156 266.8 162.6 266.7 169.8 267C166.1 254.1 162.7 242 159 228.7ZM283.1 264.8C290.2 264.8 296.8 264.7 303.4 264.8C310 264.9 310.2 261.1 308.6 256.3C307.1 251.6 303.9 246.9 304 242.3C304.1 234.2 299.4 231.9 293.3 229.9C289.9 241.7 286.5 253.2 283.1 264.8ZM130 208.4C136.1 211.7 141.4 214.9 147 217.4C148.4 218 151.9 217 152.4 215.8C154.3 211.8 156.3 207.4 156.3 203.1C156.4 200 154.1 194.9 151.8 194.1C146.8 192.3 141 192.7 135.5 192.3C135.3 192.3 134.9 193 134.8 193.5C133 198.7 131.4 204 130 208.4ZM316.7 191.3C310.1 191.1 302.2 189.7 298.1 196.3C293.2 204.1 299.2 211.1 301.7 217.4C309.1 214.9 316 212.5 322.8 210.2C320.9 204.3 319 198.3 316.7 191.3ZM158.8 180C159.7 174.8 160.4 171.1 161.4 165.4C155.4 167.9 151.3 169.7 146 171.9C150.5 174.8 153.8 176.8 158.8 180ZM294.2 178.3C298.2 176 300.9 174.4 304.5 172.3C300.4 169.9 297.8 168.4 294.2 166.2C294.2 170.4 294.2 173.3 294.2 178.3Z" fill="#253B5C"/>
<path d="M491.52 114.28V132.04H522.624V144.52H491.52V169H475.968V101.8H526.752V114.28H491.52ZM589.312 156.52V169H537.281V101.8H588.065V114.28H552.737V128.872H583.937V140.968H552.737V156.52H589.312ZM601.687 101.8H632.215C639.511 101.8 645.943 103.208 651.511 106.024C657.143 108.776 661.495 112.68 664.567 117.736C667.703 122.792 669.271 128.68 669.271 135.4C669.271 142.12 667.703 148.008 664.567 153.064C661.495 158.12 657.143 162.056 651.511 164.872C645.943 167.624 639.511 169 632.215 169H601.687V101.8ZM631.447 156.232C638.167 156.232 643.511 154.376 647.479 150.664C651.511 146.888 653.527 141.8 653.527 135.4C653.527 129 651.511 123.944 647.479 120.232C643.511 116.456 638.167 114.568 631.447 114.568H617.239V156.232H631.447ZM733.031 156.52V169H680.999V101.8H731.783V114.28H696.455V128.872H727.655V140.968H696.455V156.52H733.031ZM788.222 169L775.262 150.28H774.494H760.958V169H745.406V101.8H774.494C780.446 101.8 785.598 102.792 789.95 104.776C794.366 106.76 797.758 109.576 800.126 113.224C802.494 116.872 803.678 121.192 803.678 126.184C803.678 131.176 802.462 135.496 800.03 139.144C797.662 142.728 794.27 145.48 789.854 147.4L804.926 169H788.222ZM787.934 126.184C787.934 122.408 786.718 119.528 784.286 117.544C781.854 115.496 778.302 114.472 773.63 114.472H760.958V137.896H773.63C778.302 137.896 781.854 136.872 784.286 134.824C786.718 132.776 787.934 129.896 787.934 126.184ZM860.255 154.6H829.055L823.103 169H807.167L837.119 101.8H852.479L882.527 169H866.207L860.255 154.6ZM855.359 142.792L844.703 117.064L834.047 142.792H855.359ZM889.499 101.8H905.051V156.328H938.747V169H889.499V101.8ZM1035.78 169L1035.68 128.68L1015.9 161.896H1008.9L989.216 129.544V169H974.624V101.8H987.488L1012.64 143.56L1037.41 101.8H1050.18L1050.37 169H1035.78ZM1066.31 101.8H1081.86V169H1066.31V101.8ZM1159.44 101.8V169H1146.68L1113.17 128.2V169H1097.81V101.8H1110.68L1144.08 142.6V101.8H1159.44ZM1175.34 101.8H1190.9V169H1175.34V101.8ZM1228.92 170.152C1223.61 170.152 1218.46 169.448 1213.47 168.04C1208.54 166.568 1204.57 164.68 1201.56 162.376L1206.84 150.664C1209.72 152.776 1213.15 154.472 1217.12 155.752C1221.08 157.032 1225.05 157.672 1229.02 157.672C1233.44 157.672 1236.7 157.032 1238.81 155.752C1240.92 154.408 1241.98 152.648 1241.98 150.472C1241.98 148.872 1241.34 147.56 1240.06 146.536C1238.84 145.448 1237.24 144.584 1235.26 143.944C1233.34 143.304 1230.72 142.6 1227.39 141.832C1222.27 140.616 1218.08 139.4 1214.81 138.184C1211.55 136.968 1208.73 135.016 1206.36 132.328C1204.06 129.64 1202.91 126.056 1202.91 121.576C1202.91 117.672 1203.96 114.152 1206.08 111.016C1208.19 107.816 1211.36 105.288 1215.58 103.432C1219.87 101.576 1225.08 100.648 1231.23 100.648C1235.52 100.648 1239.71 101.16 1243.8 102.184C1247.9 103.208 1251.48 104.68 1254.56 106.6L1249.76 118.408C1243.55 114.888 1237.34 113.128 1231.13 113.128C1226.78 113.128 1223.55 113.832 1221.44 115.24C1219.39 116.648 1218.36 118.504 1218.36 120.808C1218.36 123.112 1219.55 124.84 1221.92 125.992C1224.35 127.08 1228.03 128.168 1232.96 129.256C1238.08 130.472 1242.27 131.688 1245.53 132.904C1248.8 134.12 1251.58 136.04 1253.88 138.664C1256.25 141.288 1257.44 144.84 1257.44 149.32C1257.44 153.16 1256.35 156.68 1254.17 159.88C1252.06 163.016 1248.86 165.512 1244.57 167.368C1240.28 169.224 1235.07 170.152 1228.92 170.152ZM1281.04 114.472H1259.54V101.8H1318.1V114.472H1296.6V169H1281.04V114.472ZM1369.28 169L1356.32 150.28H1355.56H1342.02V169H1326.47V101.8H1355.56C1361.51 101.8 1366.66 102.792 1371.01 104.776C1375.43 106.76 1378.82 109.576 1381.19 113.224C1383.56 116.872 1384.74 121.192 1384.74 126.184C1384.74 131.176 1383.52 135.496 1381.09 139.144C1378.72 142.728 1375.33 145.48 1370.92 147.4L1385.99 169H1369.28ZM1369 126.184C1369 122.408 1367.78 119.528 1365.35 117.544C1362.92 115.496 1359.36 114.472 1354.69 114.472H1342.02V137.896H1354.69C1359.36 137.896 1362.92 136.872 1365.35 134.824C1367.78 132.776 1369 129.896 1369 126.184ZM1428.38 145.192V169H1412.83V145L1386.81 101.8H1403.32L1421.28 131.656L1439.23 101.8H1454.49L1428.38 145.192ZM671.637 287.152C664.661 287.152 658.357 285.648 652.725 282.64C647.157 279.632 642.773 275.504 639.573 270.256C636.437 264.944 634.869 258.992 634.869 252.4C634.869 245.808 636.437 239.888 639.573 234.64C642.773 229.328 647.157 225.168 652.725 222.16C658.357 219.152 664.661 217.648 671.637 217.648C678.613 217.648 684.885 219.152 690.453 222.16C696.021 225.168 700.405 229.328 703.605 234.64C706.805 239.888 708.405 245.808 708.405 252.4C708.405 258.992 706.805 264.944 703.605 270.256C700.405 275.504 696.021 279.632 690.453 282.64C684.885 285.648 678.613 287.152 671.637 287.152ZM671.637 273.904C675.605 273.904 679.189 273.008 682.389 271.216C685.589 269.36 688.085 266.8 689.877 263.536C691.733 260.272 692.661 256.56 692.661 252.4C692.661 248.24 691.733 244.528 689.877 241.264C688.085 238 685.589 235.472 682.389 233.68C679.189 231.824 675.605 230.896 671.637 230.896C667.669 230.896 664.085 231.824 660.885 233.68C657.685 235.472 655.157 238 653.301 241.264C651.509 244.528 650.613 248.24 650.613 252.4C650.613 256.56 651.509 260.272 653.301 263.536C655.157 266.8 657.685 269.36 660.885 271.216C664.085 273.008 667.669 273.904 671.637 273.904ZM735.645 231.28V249.04H766.749V261.52H735.645V286H720.093V218.8H770.877V231.28H735.645ZM820.977 287.152C816.433 287.152 812.241 286.32 808.401 284.656C804.625 282.928 801.521 280.496 799.089 277.36L807.729 266.992C811.377 271.92 815.537 274.384 820.209 274.384C826.545 274.384 829.713 270.672 829.713 263.248V231.28H806.097V218.8H845.169V262.384C845.169 270.64 843.121 276.848 839.025 281.008C834.929 285.104 828.913 287.152 820.977 287.152ZM890.387 287.152C880.787 287.152 873.299 284.496 867.923 279.184C862.611 273.872 859.955 266.288 859.955 256.432V218.8H875.507V255.856C875.507 267.888 880.499 273.904 890.483 273.904C895.347 273.904 899.059 272.464 901.619 269.584C904.179 266.64 905.458 262.064 905.458 255.856V218.8H920.819V256.432C920.819 266.288 918.131 273.872 912.755 279.184C907.443 284.496 899.987 287.152 890.387 287.152ZM958.267 287.152C952.955 287.152 947.803 286.448 942.811 285.04C937.883 283.568 933.915 281.68 930.907 279.376L936.187 267.664C939.067 269.776 942.491 271.472 946.459 272.752C950.427 274.032 954.395 274.672 958.363 274.672C962.779 274.672 966.043 274.032 968.155 272.752C970.267 271.408 971.323 269.648 971.323 267.472C971.323 265.872 970.683 264.56 969.403 263.536C968.187 262.448 966.587 261.584 964.603 260.944C962.683 260.304 960.059 259.6 956.731 258.832C951.611 257.616 947.419 256.4 944.155 255.184C940.891 253.968 938.075 252.016 935.707 249.328C933.403 246.64 932.251 243.056 932.251 238.576C932.251 234.672 933.307 231.152 935.419 228.016C937.531 224.816 940.699 222.288 944.923 220.432C949.211 218.576 954.427 217.648 960.571 217.648C964.859 217.648 969.051 218.16 973.147 219.184C977.243 220.208 980.827 221.68 983.899 223.6L979.099 235.408C972.891 231.888 966.683 230.128 960.475 230.128C956.123 230.128 952.891 230.832 950.779 232.24C948.731 233.648 947.707 235.504 947.707 237.808C947.707 240.112 948.891 241.84 951.259 242.992C953.691 244.08 957.371 245.168 962.299 246.256C967.419 247.472 971.611 248.688 974.875 249.904C978.139 251.12 980.923 253.04 983.227 255.664C985.595 258.288 986.779 261.84 986.779 266.32C986.779 270.16 985.691 273.68 983.515 276.88C981.403 280.016 978.203 282.512 973.915 284.368C969.627 286.224 964.411 287.152 958.267 287.152ZM1010.39 231.472H988.884V218.8H1047.44V231.472H1025.94V286H1010.39V231.472ZM1055.81 218.8H1071.36V286H1055.81V218.8ZM1119.47 287.152C1112.62 287.152 1106.42 285.68 1100.85 282.736C1095.34 279.728 1090.99 275.6 1087.79 270.352C1084.66 265.04 1083.09 259.056 1083.09 252.4C1083.09 245.744 1084.66 239.792 1087.79 234.544C1090.99 229.232 1095.34 225.104 1100.85 222.16C1106.42 219.152 1112.66 217.648 1119.57 217.648C1125.39 217.648 1130.64 218.672 1135.31 220.72C1140.05 222.768 1144.02 225.712 1147.22 229.552L1137.23 238.768C1132.69 233.52 1127.06 230.896 1120.34 230.896C1116.18 230.896 1112.46 231.824 1109.2 233.68C1105.94 235.472 1103.38 238 1101.52 241.264C1099.73 244.528 1098.83 248.24 1098.83 252.4C1098.83 256.56 1099.73 260.272 1101.52 263.536C1103.38 266.8 1105.94 269.36 1109.2 271.216C1112.46 273.008 1116.18 273.904 1120.34 273.904C1127.06 273.904 1132.69 271.248 1137.23 265.936L1147.22 275.152C1144.02 279.056 1140.05 282.032 1135.31 284.08C1130.58 286.128 1125.3 287.152 1119.47 287.152ZM1209.75 273.52V286H1157.72V218.8H1208.5V231.28H1173.17V245.872H1204.37V257.968H1173.17V273.52H1209.75Z" fill="#253B5C"/>
</svg>
