<svg width="1984" height="384" viewBox="0 0 1984 384" fill="none" xmlns="http://www.w3.org/2000/svg">
<path d="M360.1 102.1C332.7 104.5 310.8 104.5 289 82.2001C244 36.0001 161 33.5001 108.8 71.3001C51 113 30.7001 187.8 59.9001 251.7C89.0001 315.4 156.7 349.9 223.8 335C291.8 319.9 339.8 260 339.5 192C339.4 177.7 334.3 172.8 320.5 173.6C307.3 174.4 293.9 173.2 280.7 173.8C260.1 174.8 243.4 173.1 228.9 153.1C212.7 130.7 176.8 132.8 156 152.6C134.8 172.8 133.5 205.7 153.1 227.8C172.3 249.3 204.1 252 226.5 234.1C251.6 214 258 212.4 291.1 217.8C287.5 261 234.5 300.4 186.3 295.8C136.3 291.1 98.7 258 89.8 210.9C81.2 165.4 103.8 119.8 145.5 98.5001C188.1 76.7001 238.1 85.7001 270.7 124.5C284.1 140.4 297.6 146.8 317.3 144.8C329.2 143.6 341.3 144.6 353.3 144.6C379.3 144.6 379.3 144.6 382.1 169.8C392.2 260.9 336.5 344.7 250.4 374.5C149.9 409.1 34.5 344 7.60005 243.1C-20.7999 136.6 43.4 31.7001 150.4 4.60011C223.7 -13.9999 315.9 26.4001 353.7 89.8001C355.8 93.4001 357.6 97.3001 360.1 102.1Z" fill="#253B5C"/>
<path d="M1216.3 145.8C1232.2 145.8 1245.4 145.8 1261.6 145.8C1261.6 162.7 1261.6 179.4 1261.6 196.2C1261.6 213.9 1261.4 231.6 1261.7 249.3C1262.1 272.4 1273.4 284.6 1294.1 285.4C1316.8 286.2 1331 273.4 1331.6 249.8C1332.4 222 1331.8 194.2 1331.8 166.3C1331.8 160.1 1331.8 153.9 1331.8 146.4C1347 146.4 1360.5 146.4 1373.7 146.4C1373.7 189.2 1379.4 232.7 1372.3 274C1363.2 326.4 1294.6 347.1 1250.5 315.6C1246.5 312.7 1242.7 309.4 1238.1 305.7C1219.6 321.9 1199.2 331.5 1174.3 330C1135.4 327.7 1105.7 303.7 1102.7 265C1099.6 226.2 1102 187 1102 146.5C1115.9 146.5 1129.9 146.5 1146.4 146.5C1146.4 181.6 1145.9 216.2 1146.6 250.7C1147.1 275.5 1162.1 288 1185.9 285.1C1204.4 282.9 1215.9 269.3 1216.1 247.9C1216.5 214.5 1216.3 181.1 1216.3 145.8Z" fill="#253B5C"/>
<path d="M1937.6 159.3C1937.6 127.6 1937.6 97.2001 1937.6 65.6001C1953 65.6001 1966.7 65.6001 1981.3 65.6001C1981.9 68.3001 1983.2 71.2001 1983.2 74.1001C1983.3 129.1 1984 184 1983.1 239C1982.3 286 1949.8 321.8 1903.9 329C1860.7 335.8 1818.6 310.9 1803.9 268.4C1791.1 231.3 1797.9 197 1824.6 168.2C1847 144.1 1875 135.1 1907.3 144.8C1917.1 147.9 1926.2 153.8 1937.6 159.3ZM1937.4 236.4C1937.7 206.9 1916.2 182.7 1890.2 183C1864.8 183.3 1844 206.8 1843.8 235.4C1843.6 263.7 1864.5 287.3 1890.1 287.6C1915.8 287.9 1937.2 264.7 1937.4 236.4Z" fill="#253B5C"/>
<path d="M890.9 216C848.3 234 806.7 251.6 764.7 269.5C782.8 290.5 810.5 297.9 827.4 282.2C846.3 264.6 866.6 270.1 887.3 269.3C882 305.9 841.8 332.6 797.5 329.7C750.1 326.6 712.3 286.4 711.1 238C709.9 188.7 746.4 145.9 793.9 141C841.9 136 881.9 166.1 890.9 216ZM753 233.9C783.4 221.1 810.6 209.6 839.4 197.4C822.7 180.1 805.3 177 786.8 183.5C765.7 190.8 756.2 207.8 753 233.9Z" fill="#253B5C"/>
<path d="M697.7 216C655 234.1 613.5 251.7 571.4 269.5C589.4 290.7 617 298.1 634.1 282.3C653 264.8 673.2 270 694 269.5C688.4 306.3 648.2 332.9 604.1 329.7C556.6 326.2 518.8 286.1 517.7 237.9C516.6 188.7 553 146.2 600.8 141C648.4 135.9 688.1 165.8 697.7 216ZM559.5 234C590.1 221.1 617.2 209.6 646.6 197.1C628.9 180.2 611.6 176.8 593.2 183.5C572.2 191.1 562.9 208.2 559.5 234Z" fill="#253B5C"/>
<path d="M1398.2 235.3C1398.4 182.5 1438.4 140.7 1489 140.6C1539.2 140.5 1579.9 182.9 1579.9 235.4C1580 287.7 1539.3 330.1 1488.9 329.9C1438.1 329.8 1398.1 288 1398.2 235.3ZM1443.8 235.4C1443.7 265.6 1463 288.1 1488.9 288.1C1513.6 288 1533.7 265.5 1534.4 237.1C1535.1 207.1 1514.3 182.2 1488.7 182.2C1463.4 182.2 1443.9 205.3 1443.8 235.4Z" fill="#253B5C"/>
<path d="M1071.3 325.1C1056.1 325.1 1043 325.1 1026.5 325.1C1026.5 311.2 1026.5 297.6 1026.5 284.1C1026.5 262 1026.9 239.9 1026.3 217.8C1025.7 196.7 1013.2 185.3 992.5 185.3C972.2 185.3 958 197.2 957.3 217C956.4 245.4 957 273.8 956.9 302.3C956.9 309.1 956.9 316 956.9 324.3C941.5 324.3 927.4 324.3 913.4 324.3C913.4 282.6 910 240.8 914.4 199.9C918.4 162.1 955.6 138.9 997.3 140.8C1037.5 142.7 1067.6 167 1070.6 206.3C1073.6 245 1071.3 284.3 1071.3 325.1Z" fill="#253B5C"/>
<path d="M1792.6 285.9C1792.6 299 1792.6 310.8 1792.6 322.5C1754.3 333.3 1716.4 307.9 1714.6 265.4C1711.9 199.4 1713.9 133.2 1713.9 65.8C1728.8 65.8 1742.9 65.8 1758.8 65.8C1758.8 108.1 1758.8 149.5 1758.8 191C1758.8 208.7 1758.7 226.3 1758.8 244C1759 273.7 1763.2 279 1792.6 285.9Z" fill="#253B5C"/>
<path d="M511.8 143.1C511.8 155.8 511.8 168.8 511.8 181.6C470.3 186.9 463.7 194.5 463.7 236C463.7 264.9 463.7 293.9 463.7 324.3C448.4 324.3 434.4 324.3 420.2 324.3C420.2 282.2 416.9 240.4 421.1 199.4C425.3 158.5 466.7 135 511.8 143.1Z" fill="#253B5C"/>
<path d="M1694.1 143.1C1694.1 155.8 1694.1 168.7 1694.1 181.6C1653.1 187 1645.7 195.5 1645.6 236.2C1645.6 263.9 1645.5 291.7 1645.4 319.4C1645.4 320.6 1644.7 321.8 1643.9 324.4C1630.3 324.4 1616.3 324.4 1602 324.4C1602 284 1599.1 244.2 1602.8 205.1C1607.1 159.6 1646.6 134.6 1694.1 143.1Z" fill="#253B5C"/>
<path d="M220.4 191.7C208 200.8 201.2 209.6 193.3 210.8C181.3 212.5 171.9 202.8 174.5 191.1C176.1 183.8 186.4 173.9 193.4 173.4C200.3 172.8 207.9 182.7 220.4 191.7Z" fill="#253B5C"/>
</svg>
