<svg width="1200" height="241" viewBox="0 0 1200 241" fill="none" xmlns="http://www.w3.org/2000/svg">
<path d="M25.4807 19.9594C-20.9193 67.9594 9.14733 115.293 29.9807 132.959H107.48C113.88 131.759 118.48 137.126 119.98 139.959L140.48 80.9595C151.68 63.7595 160.814 73.7928 163.98 80.9595L183.48 132.959H270.98C282.48 123.459 318.48 69.4595 278.98 24.4595C222.58 -25.1405 168.814 17.4594 148.98 44.9594C131.98 19.9594 73.4805 -24.5404 25.4807 19.9594Z" fill="#253B5C"/>
<path d="M100.48 152.959H49.9805C70.8138 176.293 116.68 225.259 133.48 234.459C150.28 243.659 162.814 238.293 166.98 234.459L248.98 152.959H173.48C168.28 152.959 164.98 147.626 163.98 144.959L152.48 113.959L128.48 178.459C122.88 187.659 113.147 181.293 108.98 176.959L100.48 152.959Z" fill="#253B5C"/>
<path d="M25.4807 19.9594C-20.9193 67.9594 9.14733 115.293 29.9807 132.959H107.48C113.88 131.759 118.48 137.126 119.98 139.959L140.48 80.9595C151.68 63.7595 160.814 73.7928 163.98 80.9595L183.48 132.959H270.98C282.48 123.459 318.48 69.4595 278.98 24.4595C222.58 -25.1405 168.814 17.4594 148.98 44.9594C131.98 19.9594 73.4805 -24.5404 25.4807 19.9594Z" stroke="#253B5C"/>
<path d="M100.48 152.959H49.9805C70.8138 176.293 116.68 225.259 133.48 234.459C150.28 243.659 162.814 238.293 166.98 234.459L248.98 152.959H173.48C168.28 152.959 164.98 147.626 163.98 144.959L152.48 113.959L128.48 178.459C122.88 187.659 113.147 181.293 108.98 176.959L100.48 152.959Z" stroke="#253B5C"/>
<path d="M404.461 169H383.367V125.125H342.234V169H321.141V66.625H342.234V108.109H383.367V66.625H404.461V169ZM456.633 170.406C445.477 170.406 436.383 166.984 429.352 160.141C422.367 153.297 418.875 144.18 418.875 132.789V130.82C418.875 123.18 420.352 116.359 423.305 110.359C426.258 104.312 430.43 99.6719 435.82 96.4375C441.258 93.1562 447.445 91.5156 454.383 91.5156C464.789 91.5156 472.969 94.7969 478.922 101.359C484.922 107.922 487.922 117.227 487.922 129.273V137.57H439.477C440.133 142.539 442.102 146.523 445.383 149.523C448.711 152.523 452.906 154.023 457.969 154.023C465.797 154.023 471.914 151.188 476.32 145.516L486.305 156.695C483.258 161.008 479.133 164.383 473.93 166.82C468.727 169.211 462.961 170.406 456.633 170.406ZM454.312 107.969C450.281 107.969 447 109.328 444.469 112.047C441.984 114.766 440.391 118.656 439.688 123.719H467.953V122.102C467.859 117.602 466.641 114.133 464.297 111.695C461.953 109.211 458.625 107.969 454.312 107.969ZM543.609 169C542.672 167.172 541.992 164.898 541.57 162.18C536.648 167.664 530.25 170.406 522.375 170.406C514.922 170.406 508.734 168.25 503.812 163.938C498.938 159.625 496.5 154.188 496.5 147.625C496.5 139.562 499.477 133.375 505.43 129.062C511.43 124.75 520.078 122.57 531.375 122.523H540.727V118.164C540.727 114.648 539.812 111.836 537.984 109.727C536.203 107.617 533.367 106.562 529.477 106.562C526.055 106.562 523.359 107.383 521.391 109.023C519.469 110.664 518.508 112.914 518.508 115.773H498.188C498.188 111.367 499.547 107.289 502.266 103.539C504.984 99.7891 508.828 96.8594 513.797 94.75C518.766 92.5938 524.344 91.5156 530.531 91.5156C539.906 91.5156 547.336 93.8828 552.82 98.6172C558.352 103.305 561.117 109.914 561.117 118.445V151.422C561.164 158.641 562.172 164.102 564.141 167.805V169H543.609ZM526.805 154.867C529.805 154.867 532.57 154.211 535.102 152.898C537.633 151.539 539.508 149.734 540.727 147.484V134.406H533.133C522.961 134.406 517.547 137.922 516.891 144.953L516.82 146.148C516.82 148.68 517.711 150.766 519.492 152.406C521.273 154.047 523.711 154.867 526.805 154.867ZM598.172 169H577.781V61H598.172V169ZM639.305 74.2188V92.9219H652.312V107.828H639.305V145.797C639.305 148.609 639.844 150.625 640.922 151.844C642 153.062 644.062 153.672 647.109 153.672C649.359 153.672 651.352 153.508 653.086 153.18V168.578C649.102 169.797 645 170.406 640.781 170.406C626.531 170.406 619.266 163.211 618.984 148.82V107.828H607.875V92.9219H618.984V74.2188H639.305ZM683.461 101.219C688.852 94.75 695.625 91.5156 703.781 91.5156C720.281 91.5156 728.648 101.102 728.883 120.273V169H708.562V120.836C708.562 116.477 707.625 113.266 705.75 111.203C703.875 109.094 700.758 108.039 696.398 108.039C690.445 108.039 686.133 110.336 683.461 114.93V169H663.141V61H683.461V101.219ZM798.633 142.141C798.633 138.156 797.227 135.109 794.414 133C791.602 130.844 786.539 128.594 779.227 126.25C771.914 123.859 766.125 121.516 761.859 119.219C750.234 112.938 744.422 104.477 744.422 93.8359C744.422 88.3047 745.969 83.3828 749.062 79.0703C752.203 74.7109 756.68 71.3125 762.492 68.875C768.352 66.4375 774.914 65.2188 782.18 65.2188C789.492 65.2188 796.008 66.5547 801.727 69.2266C807.445 71.8516 811.875 75.5781 815.016 80.4062C818.203 85.2344 819.797 90.7188 819.797 96.8594H798.703C798.703 92.1719 797.227 88.5391 794.273 85.9609C791.32 83.3359 787.172 82.0234 781.828 82.0234C776.672 82.0234 772.664 83.125 769.805 85.3281C766.945 87.4844 765.516 90.3438 765.516 93.9062C765.516 97.2344 767.18 100.023 770.508 102.273C773.883 104.523 778.828 106.633 785.344 108.602C797.344 112.211 806.086 116.688 811.57 122.031C817.055 127.375 819.797 134.031 819.797 142C819.797 150.859 816.445 157.82 809.742 162.883C803.039 167.898 794.016 170.406 782.672 170.406C774.797 170.406 767.625 168.977 761.156 166.117C754.688 163.211 749.742 159.25 746.32 154.234C742.945 149.219 741.258 143.406 741.258 136.797H762.422C762.422 148.094 769.172 153.742 782.672 153.742C787.688 153.742 791.602 152.734 794.414 150.719C797.227 148.656 798.633 145.797 798.633 142.141ZM857.133 74.2188V92.9219H870.141V107.828H857.133V145.797C857.133 148.609 857.672 150.625 858.75 151.844C859.828 153.062 861.891 153.672 864.938 153.672C867.188 153.672 869.18 153.508 870.914 153.18V168.578C866.93 169.797 862.828 170.406 858.609 170.406C844.359 170.406 837.094 163.211 836.812 148.82V107.828H825.703V92.9219H836.812V74.2188H857.133ZM925.547 169C924.609 167.172 923.93 164.898 923.508 162.18C918.586 167.664 912.188 170.406 904.312 170.406C896.859 170.406 890.672 168.25 885.75 163.938C880.875 159.625 878.438 154.188 878.438 147.625C878.438 139.562 881.414 133.375 887.367 129.062C893.367 124.75 902.016 122.57 913.312 122.523H922.664V118.164C922.664 114.648 921.75 111.836 919.922 109.727C918.141 107.617 915.305 106.562 911.414 106.562C907.992 106.562 905.297 107.383 903.328 109.023C901.406 110.664 900.445 112.914 900.445 115.773H880.125C880.125 111.367 881.484 107.289 884.203 103.539C886.922 99.7891 890.766 96.8594 895.734 94.75C900.703 92.5938 906.281 91.5156 912.469 91.5156C921.844 91.5156 929.273 93.8828 934.758 98.6172C940.289 103.305 943.055 109.914 943.055 118.445V151.422C943.102 158.641 944.109 164.102 946.078 167.805V169H925.547ZM908.742 154.867C911.742 154.867 914.508 154.211 917.039 152.898C919.57 151.539 921.445 149.734 922.664 147.484V134.406H915.07C904.898 134.406 899.484 137.922 898.828 144.953L898.758 146.148C898.758 148.68 899.648 150.766 901.43 152.406C903.211 154.047 905.648 154.867 908.742 154.867ZM982.992 74.2188V92.9219H996V107.828H982.992V145.797C982.992 148.609 983.531 150.625 984.609 151.844C985.688 153.062 987.75 153.672 990.797 153.672C993.047 153.672 995.039 153.508 996.773 153.18V168.578C992.789 169.797 988.688 170.406 984.469 170.406C970.219 170.406 962.953 163.211 962.672 148.82V107.828H951.562V92.9219H962.672V74.2188H982.992ZM1028.77 169H1008.38V92.9219H1028.77V169ZM1007.18 73.2344C1007.18 70.1875 1008.19 67.6797 1010.2 65.7109C1012.27 63.7422 1015.05 62.7578 1018.57 62.7578C1022.04 62.7578 1024.8 63.7422 1026.87 65.7109C1028.93 67.6797 1029.96 70.1875 1029.96 73.2344C1029.96 76.3281 1028.91 78.8594 1026.8 80.8281C1024.73 82.7969 1021.99 83.7812 1018.57 83.7812C1015.15 83.7812 1012.38 82.7969 1010.27 80.8281C1008.21 78.8594 1007.18 76.3281 1007.18 73.2344ZM1042.41 130.258C1042.41 122.711 1043.86 115.984 1046.77 110.078C1049.67 104.172 1053.84 99.6016 1059.28 96.3672C1064.77 93.1328 1071.12 91.5156 1078.34 91.5156C1088.6 91.5156 1096.97 94.6562 1103.44 100.938C1109.95 107.219 1113.59 115.75 1114.34 126.531L1114.48 131.734C1114.48 143.406 1111.22 152.781 1104.7 159.859C1098.19 166.891 1089.45 170.406 1078.48 170.406C1067.51 170.406 1058.74 166.891 1052.18 159.859C1045.66 152.828 1042.41 143.266 1042.41 131.172V130.258ZM1062.73 131.734C1062.73 138.953 1064.09 144.484 1066.8 148.328C1069.52 152.125 1073.41 154.023 1078.48 154.023C1083.4 154.023 1087.24 152.148 1090.01 148.398C1092.77 144.602 1094.16 138.555 1094.16 130.258C1094.16 123.18 1092.77 117.695 1090.01 113.805C1087.24 109.914 1083.35 107.969 1078.34 107.969C1073.37 107.969 1069.52 109.914 1066.8 113.805C1064.09 117.648 1062.73 123.625 1062.73 131.734ZM1145.7 92.9219L1146.33 101.711C1151.77 94.9141 1159.05 91.5156 1168.2 91.5156C1176.26 91.5156 1182.26 93.8828 1186.2 98.6172C1190.13 103.352 1192.15 110.43 1192.24 119.852V169H1171.92V120.344C1171.92 116.031 1170.98 112.914 1169.11 110.992C1167.23 109.023 1164.12 108.039 1159.76 108.039C1154.04 108.039 1149.75 110.477 1146.89 115.352V169H1126.57V92.9219H1145.7Z" fill="#253B5C"/>
</svg>
