<svg width="2743" height="354" viewBox="0 0 2743 354" fill="none" xmlns="http://www.w3.org/2000/svg">
<path d="M416.2 0.300049C428 12.6 442.2 23.5 451.2 37.6C476 76.3 463.2 121.8 423 145.2C388.3 165.4 336.6 152.8 318.2 119.6C295 77.6001 306.6 31.4 346 8.90005C350.4 6.40005 354.3 3.20005 358.5 0.400049C377.7 0.300049 397 0.300049 416.2 0.300049Z" fill="#253B5C"/>
<path d="M391.1 189.2C492.7 191.2 558.3 235.8 601.6 314.7C606.3 323.2 606.8 339 601.9 346.6C593.7 359.1 583 351.9 572.6 343.2C544 319.4 516.4 292.9 484.1 275.4C417.4 239.4 350.3 249.2 288.3 289.5C265.1 304.5 246.1 325.9 224.3 343.2C218.8 347.6 205.6 351.3 203.1 348.6C197.1 342.2 190.6 330 193 323.4C198.2 309.4 208.2 296.8 217.7 284.8C264.5 226 323.7 190.6 391.1 189.2Z" fill="#253B5C"/>
<path d="M194.4 276.8C186.6 290.2 179.4 302.8 170.7 317.9C118.1 288.1 65.5 255.4 -1.59998 277.4C42.9 215.5 125.6 225.3 194.4 276.8Z" fill="#253B5C"/>
<path d="M627.1 317.3C618.7 303.7 610.7 290.8 602.8 277.8C664.6 225.8 752.5 216.4 790.3 267.4C763.2 270.4 733.4 269.7 706.4 277.9C678.9 286.3 654.1 303.5 627.1 317.3Z" fill="#253B5C"/>
<path d="M143.3 218.9C125.6 219.2 100.8 197.6 100.8 181.9C100.8 167.1 124.1 142.3 138.4 141.8C157.6 141.1 180.4 163 179.8 181.7C179.4 200.7 161.9 218.6 143.3 218.9Z" fill="#253B5C"/>
<path d="M693.3 182C693.1 202 676.5 219.4 657.7 219.4C641.1 219.4 616.8 196.8 617.5 182.1C618.4 163.9 638.8 142.3 655.4 142.1C675.1 141.7 693.5 161.2 693.3 182Z" fill="#253B5C"/>
<path d="M837.2 45H916.1C940.1 45 957.2 53.4 967.4 70.2C970.2 74.8 972.2 80.5 973.3 87.2C974.4 93.9 975 103.3 975 115.3C975 130.6 973.9 142.3 971.7 150.4C969.5 158.6 965.9 165.2 960.8 170.3C951.6 179 940.2 183.3 926.7 183.3H892.2V299.8H837.2V45ZM903.3 135.9C905.3 135.9 907.5 135.4 909.8 134.4C912.1 133.4 914.1 132.3 915.9 131C917.7 129.3 918.9 127.3 919.5 125C920.1 122.8 920.5 119.1 920.5 114.1C920.5 106.1 919.2 100.5 916.5 97.2C913.8 93.9 909.2 92.3 902.6 92.3H892.3V135.8H903.3V135.9Z" fill="#253B5C"/>
<path d="M997.2 45H1109.5V95H1052.2V134.7H1107.2V182.8H1052.2V249.6H1111.8V299.6H997.2V45Z" fill="#253B5C"/>
<path d="M1131.2 111.8C1131.2 88.6002 1137.1 71.1002 1148.8 59.1002C1160.5 47.1002 1177.7 41.2002 1200.4 41.2002C1246.7 41.2002 1269.9 64.8002 1269.9 111.8V242.8C1269.9 261.4 1263.7 276.2 1251.2 287.1C1238.7 298 1221.7 303.5 1200 303.5C1178.6 303.5 1161.8 297.8 1149.6 286.3C1137.4 274.8 1131.3 259.2 1131.3 239.3V111.8H1131.2ZM1215.3 116C1215.3 104.8 1214.3 97.3002 1212.2 93.3002C1210.2 89.4002 1206.5 87.4002 1201.1 87.4002C1195.2 87.4002 1191.2 89.5002 1189.1 93.7002C1186.9 97.9002 1185.9 105.3 1185.9 116V221.9C1185.9 228.5 1186 233.3 1186.3 236.2C1186.6 239.1 1187.2 241.7 1188.2 244C1190.5 250.3 1194.8 253.5 1201.2 253.5C1206.3 253.5 1210 251.3 1212.3 247C1213.6 244.7 1214.4 242 1214.8 238.8C1215.2 235.6 1215.4 229.6 1215.4 220.7V116H1215.3Z" fill="#253B5C"/>
<path d="M1298.1 45H1377C1401 45 1418.1 53.4 1428.3 70.2C1431.1 74.8 1433.1 80.5 1434.2 87.2C1435.3 93.9 1435.9 103.3 1435.9 115.3C1435.9 130.6 1434.8 142.3 1432.6 150.4C1430.4 158.6 1426.8 165.2 1421.7 170.3C1412.5 179 1401.1 183.3 1387.6 183.3H1353.1V299.8H1298.1V45V45ZM1364.2 135.9C1366.2 135.9 1368.4 135.4 1370.7 134.4C1373 133.4 1375 132.3 1376.8 131C1378.6 129.3 1379.8 127.3 1380.4 125C1381 122.8 1381.4 119.1 1381.4 114.1C1381.4 106.1 1380.1 100.5 1377.4 97.2C1374.7 93.9 1370.1 92.3 1363.5 92.3H1353.2V135.8H1364.2V135.9Z" fill="#253B5C"/>
<path d="M1458.1 45H1512.7V249.7H1568.8V299.7H1458.1V45V45Z" fill="#253B5C"/>
<path d="M1589.1 45H1701.4V95H1644.1V134.7H1699.1V182.8H1644.1V249.6H1703.7V299.6H1589.1V45Z" fill="#253B5C"/>
<path d="M1840.4 45H1895.4V299.7H1840.4V45Z" fill="#253B5C"/>
<path d="M1925.9 45H2012.6L2025.2 121.8C2026 126.6 2026.7 132 2027.5 137.8C2028.3 143.7 2029 149.7 2029.8 155.9C2030.6 162.1 2031.3 168.3 2032.1 174.4C2032.9 180.5 2033.5 186.4 2034 192C2035.5 177.5 2037.1 164.2 2038.6 152.1C2040.1 140 2041.5 129.8 2042.8 121.4L2055.4 45.8L2142.5 45V299.7H2087.9V185.5C2087.9 181.4 2087.9 178 2087.9 175.2C2087.9 172.4 2088 169 2088.3 165.1C2088.6 161.2 2088.8 156 2089.1 149.6C2089.4 143.2 2089.9 134.5 2090.6 123.3L2091.7 104.6L2058.6 299.7H2009.5L1977.1 105.7L1977.9 122.5L1979.4 156.9C1980.2 169.9 1980.5 179.8 1980.5 186.7V299.7H1925.9V45V45Z" fill="#253B5C"/>
<path d="M2173 45H2251.9C2275.9 45 2293 53.4 2303.2 70.2C2306 74.8 2308 80.5 2309.1 87.2C2310.2 93.9 2310.8 103.3 2310.8 115.3C2310.8 130.6 2309.7 142.3 2307.5 150.4C2305.3 158.6 2301.7 165.2 2296.6 170.3C2287.4 179 2276 183.3 2262.5 183.3H2228V299.8H2173V45ZM2239 135.9C2241 135.9 2243.2 135.4 2245.5 134.4C2247.8 133.4 2249.8 132.3 2251.6 131C2253.4 129.3 2254.6 127.3 2255.2 125C2255.8 122.8 2256.2 119.1 2256.2 114.1C2256.2 106.1 2254.9 100.5 2252.2 97.2C2249.5 93.9 2244.9 92.3 2238.3 92.3H2228V135.8H2239V135.9Z" fill="#253B5C"/>
<path d="M2350.9 45H2424.2L2459.7 299.7H2405.5L2402.4 263.4H2373L2368 299.7H2315L2350.9 45ZM2387.6 84L2386.1 106.5C2385.6 112.4 2385.1 118.4 2384.8 124.6C2384.4 130.8 2384 137.6 2383.5 145L2379.7 189.3L2377.4 215.3H2397.6L2395.7 189.7C2394.2 169.3 2393 154.7 2392.3 145.8L2389.2 106.5L2387.6 84Z" fill="#253B5C"/>
<path d="M2474.6 116C2474.6 100 2476 87.6001 2478.8 78.8001C2481.6 70.0001 2486.7 62.7001 2494.1 56.8001C2506.8 46.4001 2524.3 41.1001 2546.4 41.1001C2590.9 41.1001 2613.2 63.8001 2613.2 109.1V142H2558.2V116C2558.2 105.3 2557.2 98.1001 2555.3 94.2001C2553.4 90.4001 2549.6 88.5001 2544 88.5001C2538.4 88.5001 2534.3 90.8001 2531.8 95.4001C2530.5 97.4001 2529.8 99.7001 2529.5 102.3C2529.2 104.8 2529.1 109.4 2529.1 116V222.5C2529.1 230.4 2529.2 235.9 2529.5 239.1C2529.8 242.3 2530.5 245 2531.8 247.3C2533.8 252.1 2537.8 254.6 2543.6 254.6C2546.4 254.6 2548.9 253.9 2551 252.5C2553.2 251.1 2554.8 249.1 2555.8 246.6C2556.8 244.6 2557.5 241.8 2557.7 238.4C2558 235 2558.1 229.7 2558.1 222.6V188.6H2613.1V234.8C2613.1 257.2 2607.2 274.3 2595.3 286C2583.5 297.7 2566.3 303.6 2543.9 303.6C2516.1 303.6 2496.7 295.1 2485.5 278C2483.2 274.7 2481.4 271.4 2480 268.1C2478.6 264.8 2477.5 261 2476.8 256.8C2476.1 252.6 2475.5 247.8 2475.1 242.3C2474.7 236.8 2474.5 230.3 2474.5 222.6V116H2474.6Z" fill="#253B5C"/>
<path d="M2655.2 96.2H2623.9V45H2742.7V96.2H2710.2V299.7H2655.2V96.2Z" fill="#253B5C"/>
</svg>
