<svg width="1452" height="387" viewBox="0 0 1452 387" fill="none" xmlns="http://www.w3.org/2000/svg">
<g clip-path="url(#clip0)">
<path d="M61.8 58.9C61.8 56.8 62 54.8 61.8 52.7C61.3 47 64.2 43.4 68.8 40.6C73.3 37.8 77.8 35 82.3 32.1C83.5 31.3 84.5 30.2 85.5 29.2C88.2 26.3 91.4 24.1 95.1 22.8C97.6 21.9 99.8 22.5 102 24C103.4 24.9 105.1 25.8 106.7 26.1C109.4 26.6 111.6 27.7 113.5 29.5C114.7 30.7 116 31.8 117.5 32.5C120.4 33.9 122.6 32.7 123.1 29.7C123.9 25.1 124.7 20.6 125.5 16C125.8 14.6 125.9 13 126.7 11.9C127.5 10.7 128.7 9.60004 130 9.20004C133.6 8.00004 137.3 7.30005 141 6.30005C146.2 4.90005 151.3 3.30005 156.5 1.90005C157.3 1.70005 158.2 1.90005 159 1.70005C161.3 1.40005 163.7 1.10005 166 0.700045C169.2 0.200045 172.4 -0.699955 175.1 1.90005C175.5 2.30005 176.1 2.80005 176.2 3.30005C176.3 7.30005 179.4 10 180.7 13.4C181.4 15.2 182.1 17.1 182.7 19C183.2 20.4 183.8 21.5 185.5 21.6C187.2 21.7 188.5 21.2 189.2 19.5C190.3 17 191.2 14.3 192.5 12C194.2 9.00004 196.2 6.10005 198.3 3.40005C200.6 0.600045 203.9 1.40005 206.9 1.80005C209.6 2.20005 212.3 3.50005 215 3.50005C218.6 3.40005 221.5 5.20005 224.8 5.90005C228.7 6.80005 232.5 8.00004 236.4 8.90004C240.9 10 243.5 13 244.5 18C245.1 21 246.3 24 247.1 27C247.4 28.2 247.5 29.5 247.6 30.8C248 34.9 251.5 36.9 254.5 34.2C259 30.2 264.1 27.6 269.6 25.5C271.2 24.9 272.8 24.1 274.4 23.7C275.2 23.5 276.4 24 277.1 24.5C280.1 26.7 283 29 286 31.2C287.7 32.4 289.6 33.5 291.5 34.5C295.5 36.6 299.6 38.5 303.4 40.8C307.9 43.6 311 47.6 308.7 53.4C307.1 57.5 306.5 62.1 305.5 66.5C304.9 69.4 306.8 71.5 309.9 71.5C315.1 71.4 320.3 71.3 325.4 71C331.2 70.6 334.7 73.8 337.3 78.3C339.5 82.2 341.2 86.3 344.4 89.7C346.6 92 347.7 95.3 349.3 98.2C350.5 100.2 351.7 102.1 353 104C355.4 107.5 354.8 110.3 352.4 113.8C350.1 117.1 348.5 121 347.2 124.9C345.5 129.8 346.1 130.5 351.4 131.6C353.7 132.1 356.1 132.3 358.3 133.2C363.7 135.5 368 138.6 369.4 145.1C370.6 151 371.1 157 371.8 162.9C372.3 166.8 373.1 170.7 373.9 174.6C374.9 179.3 372.7 183.8 368.2 185.5C364.5 186.9 362.9 190.3 360.8 193.1C360.3 193.8 360.8 195.8 361.5 196.8C364.1 200.3 366.9 203.8 371.1 205.7C374.6 207.3 375.6 211.8 374.7 215.3C373.1 221.7 371.9 228.3 371.1 234.8C370.3 240.7 369 246.2 365.9 251.3C363.9 254.7 361.1 255.7 357.4 255.9C353.1 256.1 348.8 256.7 344.6 257.6C341.7 258.2 341.4 259.8 343 262.3C346.4 267.6 349.7 272.9 353 278.3C354.5 280.7 354.1 283 352.5 285.4C350.9 287.7 349.4 290.2 348.4 292.7C347.1 296 345.1 298.7 342.8 301.3C341.2 303.2 340 305.5 338.5 307.5C336.4 310.2 334.3 312.9 331.9 315.3C331 316.2 329.2 316.5 327.9 316.4C322.4 316.2 317 315.8 311.5 315.4C309.8 315.3 308.1 315.3 306.5 315.2C304.6 315.1 303.8 316.2 304 317.9C304.5 321 305.1 324 305.7 327.1C306.4 330.5 307.2 334 307.7 337.4C308.2 341 306.4 343.8 303.6 345.8C300.2 348.2 296.7 350.5 293.2 352.8C292.8 353.1 292.5 353.4 292 353.5C288.3 354.9 285.7 357.4 283.4 360.7C280.4 364.9 274.8 365.6 269 362.9C265.1 361 261.4 358.8 257.6 356.6C256.9 356.2 256.3 355.7 255.7 355.4C251.3 352.9 248.7 354 247.5 359C246.4 363.5 245.4 368.1 244.4 372.6C243.3 377.3 240 379.3 235.6 380.4C230.2 381.7 224.7 382.1 219.1 382.6C215.7 382.9 212.3 384.6 209.1 385.9C206.4 387 204 386.9 201.9 385.1C199.7 383.2 197.2 381.4 195.3 379.2C193.2 376.9 191.6 374.2 189.8 371.7C188 369.2 185.4 369.1 183.7 371.7C180.9 376 178.1 380.4 175.4 384.8C174.2 386.7 171.6 387.5 169.4 387.1C167.4 386.7 165.3 386.7 163.4 386.2C160.9 385.5 158.6 384.3 156.1 383.7C153.4 383 150.6 382.4 147.8 382.6C142.7 382.9 138.2 380.8 133.8 379.2C131.7 378.4 130.2 375.3 129 372.9C127.6 370.2 126.8 367.1 125.8 364.2C125 361.8 124.1 359.3 123.7 356.8C123 352.7 119.9 351.1 116.2 353.2C112.8 355.1 109.4 357 106 358.9C104.9 359.5 103.6 360.1 102.8 361C99.1 365.6 92 364.3 88.7 360.8C85.2 357.1 80.9 354.7 76.7 352.1C72.6 349.4 68.6 346.5 64.6 343.6C62.5 342.1 61.7 339.9 61.9 337.4C62.2 332.2 62.6 327.1 63 321.9C63.3 318.5 62.8 316.9 58.3 317.2C54.1 317.4 50 318.4 45.8 318.6C42.1 318.7 38.7 317.6 36.4 314.3C34.7 311.8 33.3 309.1 31.6 306.5C30.3 304.5 28.8 302.8 27.4 300.9C25.7 298.5 24.2 296.1 22.6 293.7C20.8 291.1 19.1 288.4 17.3 285.8C17 285.3 16.5 284.9 16.1 284.4C14.4 282.4 14.1 280.5 15.9 278.6C20 274.2 21.4 268.5 24 263.4C24.9 261.6 24.2 259.8 22.2 259.3C17.7 258.2 13.2 257 8.6 256.3C3.6 255.6 1.9 254.3 1.1 249.4C-0.500005 239.4 -2.2 229.5 -3.8 219.5C-4.3 216.3 -4.6 213 -4.5 209.7C-4.4 204 -5.24521e-06 201.4 4.09999 198.8C5.59999 197.9 7.3 197.3 8.8 196.4C11.1 194.9 11.1 192.7 8.7 191.3C5.79999 189.5 2.79999 187.8 -0.300005 186.3C-2.8 185.1 -4.1 183.3 -4.2 180.6C-4.3 175.2 -3.9 169.9 -1.9 164.8C-1.7 164.3 -1.5 163.8 -1.4 163.3C-0.600005 158.2 -4.76837e-06 153.1 0.999995 148C1.4 145.6 1.69999 142.5 3.29999 141C7.39999 137 11.4 132.8 17.7 132.1C22.6 131.5 24.3 131 22.3 125C21 121 19.1 117.6 15.8 115C12.5 112.4 12.4 108.3 15.4 105.4C18.6 102.3 20.9 98.7 22.6 94.6C23.1 93.5 23.4 92.2 24.2 91.3C29.4 86.1 32.2 79.3 36.3 73.4C39.1 69.4 41.1 67.7 47 70.1C50.4 71.5 54.4 71.9 58.1 72.3C60.5 72.6 61.4 71.6 61.5 69.1C61.9 65.2 61.8 62 61.8 58.9ZM183.7 165.1C179.8 165.7 175.6 166.1 171.6 167.1C167.5 168.1 164.3 170.8 161.6 174C160 175.9 158.3 177.8 156.9 179.8C155.7 181.5 154.2 183.4 154.1 185.3C153.7 191.7 153.8 198.1 153.9 204.5C153.9 207.1 155.1 209.3 157.1 211.1C158.2 212.1 159.3 213.3 160 214.6C161.1 216.7 162.8 218.2 164.9 219.2C165.6 219.5 166.3 219.9 166.9 220.3C171.3 223.7 176.2 225.2 181.7 225.4C187.2 225.6 192.4 224.3 197.3 222.3C200.5 221 203.4 218.7 206.1 216.4C207.8 215 208.9 212.8 210.1 210.9C211 209.5 211.9 208.1 212.6 206.6C214.7 201.6 215.2 196.4 214.6 191.1C214.1 186.5 213.1 182 209.2 178.7C207.8 177.5 207.1 175.6 206.1 174C203.9 170.7 201.4 167.6 197.4 166.8C192.9 166.1 188.4 165.7 183.7 165.1ZM167.6 334.3C167.8 328.8 166.9 324.1 163.2 320.3C161.9 319 160.2 318.6 158.8 319.3C156.1 320.6 153.4 322.1 152 325.1C151.2 326.9 150.3 328.8 149 330.2C146.9 332.4 146.8 335 147.4 337.4C148.5 341.8 149.9 346.1 151.4 350.4C152.7 353.9 156.9 354.6 159.2 351.7C161.2 349.1 162.6 345.9 164.8 343.5C167.4 340.6 168 337.4 167.6 334.3ZM273.1 167.2C273.1 167.1 273.1 166.9 273.1 166.8C275.3 166.8 277.5 166.9 279.7 166.8C281.6 166.7 283 165.7 284 163.9C285.2 161.7 286.8 159.8 288.1 157.7C288.8 156.6 289.4 155.3 289.8 154C290.3 152.2 289.8 150.8 287.8 150.4C284 149.7 280.3 148.7 276.5 148.5C274.7 148.4 272.5 149.1 271 150.2C268.1 152.4 265.5 155 263.1 157.8C260.8 160.4 262 165.1 265.2 166.1C267.8 166.9 270.5 166.9 273.1 167.2ZM271.7 321.1C271.6 321 271.5 321 271.4 320.9C271.2 319 271 317.1 270.9 315.2C270.7 309.2 266 302.7 258.8 301.4C256.3 300.9 255.3 301.6 255.4 304.2C255.5 306.9 256 309.6 256.1 312.3C256.4 317.4 259.1 321.2 263.9 322.9C264.7 323.2 265.4 323.7 266.2 324C267.5 324.4 269.2 325.2 270.2 324.7C270.9 324.3 271.1 322.4 271.7 321.1ZM46.6 231.2C48.1 230.7 49.8 230.5 51.2 229.7C53.8 228.2 56.3 226.4 58.8 224.7C60.1 223.8 62 222.8 61.2 221.1C60.6 219.9 58.6 219.4 57.2 218.7C57 218.6 56.7 218.7 56.5 218.6C53.8 218.1 51.2 217.5 48.5 217.1C47.5 216.9 46.5 216.8 45.6 217C43 217.8 40.4 218.8 37.9 219.9C36 220.8 34.5 222.4 34.4 224.6C34.4 226.6 35.7 228.1 37.5 228.7C40.5 229.7 43.4 230.4 46.6 231.2ZM220.1 53.5C219.6 48.5 219.3 45 218.9 41.4C218.8 40.8 218.6 40.2 218.3 39.7C217.5 38.3 216 37.9 215.1 39C212 42.8 209.1 46.8 206.1 50.7C206 50.9 205.9 51.1 205.9 51.4C205.8 56 206.8 60.3 209.6 64.1C210.1 64.7 212 65.2 212.5 64.8C216.5 61.5 220.4 58 220.1 53.5ZM126.9 129.6C125.6 126.4 124.1 122.4 121.3 119.2C121.2 119.1 121.1 119 120.9 118.9C117.3 117 113.5 115.6 109.3 115.9C107.1 116.1 106.1 117.1 106.6 119.2C107.4 122.3 108.4 125.4 109.7 128.2C110.4 129.6 111.9 131.1 113.4 131.6C116.3 132.7 119.4 133.1 122.5 133.8C125.5 134.5 126.9 133.4 126.9 129.6ZM264.3 273.9C263.8 271.8 263.5 269.5 262.6 267.5C260.4 262.5 257 258.6 251.3 257.4C247.3 256.6 245.1 258.8 245.8 262.9C246.1 264.5 246.3 266.2 246.9 267.8C247.4 269.2 248.1 270.8 249.2 271.6C252.2 273.8 255.3 276.1 258.7 277.4C262.8 279.1 264.2 277.6 264.3 273.9ZM325.4 174.7C329.2 173.1 333.1 171.6 336.2 168.7C337.6 167.3 337.2 165.2 335.5 164.1C333.3 162.7 331.1 161.3 328.6 160.5C325.9 159.6 322.8 158.7 320.5 161.3C318.5 163.6 316.1 165.2 313.3 166.3C312.4 166.6 311.2 168 311.2 168.9C311.2 169.7 312.5 170.9 313.4 171.3C315.8 172.1 318.3 172.5 320.7 173.2C322.2 173.5 323.6 174.1 325.4 174.7ZM205.7 333.4C206 335.1 206.2 336.4 206.6 337.6C207.8 341.7 211.6 343.6 214.1 346.6C215.3 348 217.7 347.1 218 345.1C218.5 342.6 218.4 339.9 219 337.4C220.4 331.4 217.7 327 213.6 323.3C211.4 321.3 208.9 321.9 208 324.6C207.1 327.6 206.4 330.7 205.7 333.4ZM96.3 164.1C98.4 163.6 100.6 163.2 102.7 162.5C104.9 161.7 105.5 160.2 104.5 158.1C101.1 150.3 94.2 146.9 85.7 150.1C83.2 151 82.6 152.4 83.7 154.8C86.1 159.6 89.6 164.2 96.3 164.1ZM321.5 219.5V219.6C319.6 219.6 317.7 219.4 315.8 219.7C314.7 219.8 313 220.3 312.6 221.2C311.8 222.7 313.4 223.5 314.6 224.3C316.5 225.7 318.2 227.3 320 228.7C321.2 229.6 322.3 230.9 323.7 231.2C327.9 232.3 332.2 231.7 336.3 230.3C338.5 229.5 338.9 227.5 337.3 225.7C333.4 221.3 329.1 217.9 322.6 219.5C322.3 219.5 321.9 219.5 321.5 219.5ZM259.2 86.2C263.8 86.3 269.2 82.6 270.5 78.7C271.5 75.6 272.3 72.4 273 69.2C273.6 66.3 272.3 65.1 269.5 65.9C267.4 66.5 265.5 67.4 263.5 68.1C261 68.9 259.4 70.5 258.9 73C258.3 76.5 257.7 80.1 257.2 83.6C256.9 85.5 258.1 86.1 259.2 86.2ZM153 40.2C152.4 40.9 151.4 41.5 151.3 42.2C150.8 45 150.5 47.8 150.2 50.6C149.7 56.1 152.5 60.1 156.3 63.5C158.4 65.4 160.6 64.5 161.1 61.6C161.4 60.3 161.1 58.7 161.7 57.6C164.3 52.6 162.7 48.6 159.1 44.9C158 43.8 157 42.5 155.8 41.5C155.3 40.9 154.3 40.7 153 40.2ZM100.5 318.3C100.5 319.5 100.5 320.7 100.5 322C100.6 324.7 101.5 325.4 104.1 324.7C109 323.3 112.9 321 113.3 315.1C113.4 313.5 113.9 312 114 310.4C114.1 308.8 114.2 307.2 113.9 305.6C113.7 304.6 113 303.4 112.1 303C111.5 302.7 110.2 303.6 109.4 304.2C108.3 305 107.6 306.3 106.4 307C102 309.4 99.4 312.8 100.5 318.3ZM309.2 282.1C313.7 282.4 314 280.9 312.7 277.5C311.8 275.2 310.6 273.1 309.5 270.9C308.4 268.9 306.7 268.1 304.5 267.8C302.4 267.6 300.4 266.8 298.3 266.4C296.9 266.2 295.4 266.2 294 266.1C294.1 267.6 294.2 269.2 294.4 270.7C294.4 270.9 294.6 271.1 294.7 271.3C295.8 273.4 296.7 275.6 297.9 277.6C298.6 278.8 299.7 280.2 300.8 280.5C303.6 281.5 306.7 281.7 309.2 282.1ZM64.3 282.9C66.3 282.6 68.3 282.6 70.1 281.9C71.7 281.2 73.5 280.1 74.4 278.6C76.3 275.5 77.9 272.2 79.3 268.9C79.8 267.8 79.8 266.2 79.2 265.3C78.9 264.7 77 265.1 75.9 265.1C75.6 265.1 75.3 265.3 75.1 265.5C72.4 266.8 69.6 268.1 66.9 269.4C63.9 270.7 62.2 272.9 62 276.2C61.9 277.2 61.5 278.1 61.3 279.1C60.5 282 61.3 282.9 64.3 282.9ZM100.2 70.6C100.4 72.4 100.7 75.2 101.2 77.9C101.7 80.4 102.4 82.8 104.9 84.2C106.5 85.1 108 86.1 109.6 87C111.8 88.3 113.8 87.5 113.8 85C113.8 82 113.6 78.9 112.9 76C111.7 71 108.2 68.2 103.2 67.1C101 66.5 100.1 67.4 100.2 70.6ZM45.6 176.4C46.9 175.8 47.7 175.7 48.2 175.2C50.2 173.2 52.9 172.9 55.4 172.1C56.5 171.8 57.5 170.6 58.5 169.8C57.6 168.8 56.8 167.6 55.7 166.9C53.3 165.5 50.7 164.4 48.2 163.2C47.3 162.8 46.2 162.2 45.5 162.4C42.3 163.5 39.1 164.8 36.1 166.4C35.4 166.7 35 169.2 35.3 169.4C38.8 172 42.3 174.2 45.6 176.4ZM60.7 110.6C59.2 110.6 57.6 110.5 56.1 110.6C55.3 110.7 54.6 111.2 53.8 111.5C54.1 112.3 54.3 113.2 54.8 113.8C56.1 115.4 57.6 116.8 58.8 118.5C61.4 122.2 64.4 124.7 69.3 123.7C70.2 123.5 71.1 123.8 72 123.7C73.1 123.5 74.9 123.3 75.2 122.6C75.6 121.4 75.2 119.9 74.8 118.5C74.6 117.8 74 117.2 73.5 116.7C70.1 112.8 66.7 109.1 60.7 110.6ZM303.4 111.9C303.3 111.7 303.2 111.4 303.1 111.2C301.6 111.8 299.8 112.1 298.8 113.1C296.7 115.4 295 118.1 293.5 120.8C292.9 121.8 292.5 123.8 293.1 124.5C293.7 125.3 295.6 125.6 296.8 125.4C299.8 125 302.9 124.5 305.8 123.7C307.1 123.3 308.4 122.2 309 121.1C310.3 118.8 311.2 116.3 312.1 113.7C312.8 111.5 312.1 110.8 309.7 111C307.6 111.2 305.5 111.6 303.4 111.9ZM286.5 203.1C286.6 202.9 286.7 202.7 286.7 202.6C287.2 202.6 287.7 202.7 288 202.5C290.9 200.5 293.9 198.6 296.5 196.2C297.8 195 296.8 193.3 295.1 192.6C293.8 192.1 292.3 192 290.9 191.4C285.6 189 281.7 192.2 277.8 194.9C276.3 195.9 276.3 198.7 277.7 199.4C280.6 200.8 283.6 201.9 286.5 203.1ZM153.5 282.8C153.4 281.3 153.4 279.7 153.1 278.3C152.9 277.5 152.2 276.4 151.7 276.3C150.7 276.2 149.5 276.6 148.7 277.2C147.6 278.1 147 279.7 145.9 280.5C142.3 283.1 141.1 286.5 141.8 290.7C141.9 291.3 141.7 291.9 141.8 292.5C142 293.6 142.2 295.4 142.7 295.5C144 295.8 145.6 295.6 146.8 295.1C151.8 292.5 154 288.4 153.5 282.8ZM229.8 290.5C229.3 289.2 228.9 287.2 227.9 285.6C226.6 283.6 224.9 282 223.3 280.3C221.8 278.6 220.1 278.9 219.3 281.1C217.8 285.4 217.6 289.8 219.5 294C220.4 295.9 222 297.6 223.7 298.9C225.7 300.5 227.8 299.7 228.5 297.2C229 295.3 229.2 293.2 229.8 290.5ZM219.2 106.8C219.2 107.6 219.2 108.3 219.2 109.1C219.2 110.9 219.4 112.6 221.3 113.3C223.3 114 224.7 112.7 225.8 111.4C227 110 227.9 108.4 228.9 106.9C231.4 103.2 230.6 99.3 229.5 95.5C229.1 94 228 94 226.8 94.5C221.8 96.7 218.9 101.4 219.2 106.8ZM121 258.2C117.2 258.2 113.9 260.4 112.6 264.2C111.9 266.2 111.8 268.4 111.6 270.5C111.3 273.4 112.5 274.4 115.3 273.6C117.6 272.9 119.9 272.2 121.8 270.9C123 270.2 123.8 268.5 124.2 267.1C124.7 265.5 124.5 263.8 124.6 262.1C124.9 258.8 124.3 258.2 121 258.2ZM190.8 95.2C190.8 90.2 190.4 89 187.5 85.6C186.3 84.1 184.4 84.1 183.2 85.6C178.9 90.9 178.9 97.1 183.1 102.4C184.8 104.5 186.3 104.5 188 102.5C190 100.2 191.4 97.8 190.8 95.2ZM179.7 295.1C179.7 298.6 181 301.5 183.3 304C184.7 305.6 186.4 305.6 187.4 303.7C189.9 298.6 191.5 293.4 188.8 287.8C187.5 285.2 185 284.7 182.9 286.8C180.5 289 179.6 291.9 179.7 295.1ZM273.7 225.8C271.6 226.3 269.4 226.7 267.3 227.4C265.3 228 264.8 229.7 266 231.6C269.7 237.7 274.8 239.3 281.4 236.8C283.5 236 284 234.5 282.7 232.7C281.7 231.4 280.4 230.2 279.5 228.9C278 226.8 276.2 225.9 273.7 225.8ZM153.3 104.3C153 100.4 151 96.1 148.1 93.6C146.8 92.5 144.5 92.5 143.6 93.6C142.2 95.3 141.6 102.8 142.9 104.6C144.5 106.6 146.2 108.6 148 110.4C149.7 112.1 151.7 111.5 152.4 109.2C152.9 107.6 153 105.9 153.3 104.3ZM247.1 132.4C247.6 133.6 247.9 135.3 248.8 135.8C249.7 136.3 251.5 135.9 252.5 135.2C254.7 133.6 256.9 131.8 258.4 129.6C259.8 127.5 260.5 124.9 260.8 122.3C261.3 119.2 260 118.4 257.1 119.4C251.5 121.1 247.7 126.3 247.1 132.4ZM232.8 167.5C240 167.8 242.9 162.4 243 158.4C243.1 155.8 242 154.8 239.4 154.7C234.5 154.6 231 156.4 228.9 161.2C227.2 165.3 228.3 167.5 232.8 167.5ZM224.9 250.1C225 245 220.8 242.8 217.8 240C216.5 238.8 213.7 240.3 213.3 242.1C212.6 245.3 212.9 248.3 215.2 250.8C216.2 251.9 217.1 252.9 218.1 254C220.7 256.9 222.8 256.5 224.2 252.9C224.6 252.1 224.7 251.1 224.9 250.1ZM85.5 202.2C88.6 200.3 91.4 198.7 94 196.9C94.3 196.7 94 194.5 93.4 194.1C89.8 191.4 82 191.6 78.2 194.1C76.9 195 76.3 196.4 77.5 197.3C79.9 199.1 82.6 200.5 85.5 202.2ZM94 237C98.3 236.9 99.9 235.9 101.4 232.5C102.4 230.1 101.6 228.4 99 228C93.5 227.2 91.4 228.2 88.3 232.6C86.8 234.7 87.4 236 89.9 236.5C91.3 236.8 92.7 236.9 94 237ZM157.8 146.4C157.6 143.3 156.1 141.2 154.4 139.2C152.6 137 150.4 136.3 148.7 137.3C147.2 138.2 146.2 141.2 147.5 143.3C148.8 145.4 150.8 147.2 152.7 148.8C153.5 149.5 155.2 150 155.8 149.7C156.7 149 157.1 147.5 157.8 146.4ZM247.2 213.3C247.3 213.1 247.3 213 247.4 212.8C247.9 212.8 248.3 212.8 248.8 212.7C250.9 212.3 253.1 210.2 253.1 208.5C253 206.1 251.3 204.7 249.3 204.6C246.5 204.5 243.6 204.8 240.8 205.5C238.7 206.1 238.5 209 240.4 210.2C242.5 211.5 244.9 212.3 247.2 213.3ZM168.3 253.9C168.7 255.4 168.9 256.5 169.4 257.5C170.5 259.7 173.2 260.4 175 259C177.9 256.9 178.5 251.9 176.2 249.2C174.8 247.5 171.6 247.4 170.4 249.2C169.4 250.7 168.9 252.5 168.3 253.9ZM155.2 241.5C152.4 241.5 148.4 244.3 147.7 246.9C147.4 248 147.3 249.4 147.5 250.5C148.3 253.7 151.7 254.7 153.5 252C155.1 249.5 156 246.5 157 243.7C157.6 242.2 156.7 241.3 155.2 241.5ZM247.2 177.6C245.4 178.2 243.4 178.7 241.6 179.6C239.8 180.5 239.8 182.7 241.4 184C244 186.1 249.2 186.2 252 184.3C254.2 182.8 254.2 180.2 251.8 179C250.5 178.3 249 178.1 247.2 177.6ZM223.7 140.6C223.7 137.4 222 135.8 219.6 137.1C217.6 138.2 215.6 140.1 214.6 142.1C213.9 143.5 214.5 145.8 215.2 147.4C215.4 148 218 148.3 218.9 147.7C221.5 146.2 223.7 144.1 223.7 140.6ZM192.7 253.5C192.8 254 193 255 193.3 256C194.2 258.3 196.2 259.4 198.6 259C201.1 258.6 201.3 256.6 201.5 254.7C201.6 253.6 201.3 252.4 201 251.4C200 248.6 198.1 247.4 195.7 247.9C193.7 248.2 192.7 250 192.7 253.5ZM124.3 177.6C122.2 178.2 120.3 178.5 118.7 179.2C116.3 180.3 116.3 182.9 118.6 184.2C121.5 185.8 124.7 186 127.9 185.1C130.3 184.4 130.9 181.4 129 179.8C127.6 178.8 125.8 178.3 124.3 177.6ZM134.5 232.8C138.2 232.8 141.3 229.7 141 226.3C140.8 224.2 139.1 222.8 137.3 223.3C135 223.9 132 227.4 131.7 229.8C131.5 231.8 132.4 232.7 134.5 232.8ZM201.2 135.7C201.1 135.2 201.3 134.4 201 134C200.3 132.9 199.5 131.5 198.5 131.1C197.7 130.8 196.2 131.7 195.4 132.5C193.8 134.1 193.2 136.1 193.6 138.4C194 140.9 196 142 198.3 140.8C200.3 139.8 201.2 138 201.2 135.7ZM124.1 212C125.3 211.7 126.7 211.5 127.9 210.9C128.8 210.4 129.7 209.2 129.7 208.3C129.7 207.4 128.8 206.2 127.9 205.7C125.5 204.3 122.8 204.5 120.5 206C119.7 206.6 118.8 208 119 208.9C119.1 209.8 120.3 210.8 121.2 211.4C122 211.9 123 211.8 124.1 212ZM132.3 159.8C132.3 162.2 134.2 165.2 136.4 166.2C138.9 167.3 141 165.9 140.9 163.1C140.8 160.4 138.7 158 135.7 157.2C133.5 156.6 132.3 157.5 132.3 159.8ZM176.9 137C176.9 134 175.1 131.6 172.8 131.6C170.7 131.6 169.4 133.2 169.4 135.9C169.4 138.6 171.3 140.7 173.9 140.7C175.8 140.7 176.9 139.4 176.9 137ZM234.4 224.8C232.4 224.8 231.2 225.9 231.2 227.6C231.2 230 233.9 232.3 236.6 232.1C238.4 232 239.8 231.5 239.8 229.4C239.8 227.1 237.1 224.8 234.4 224.8Z" fill="#253B5C"/>
<path d="M437.8 179.3C441.2 190.1 449.2 197.5 467.8 197.5C486.1 197.5 492.8 190.7 492.8 182.2C492.8 173.3 487.6 167.8 463.5 163.8C433 158.6 426.1 148.9 426.1 135.7C426.1 117.9 443 108 464.8 108C497.1 108 505 124.8 506.1 135.1H489.7C487.9 128.9 483.9 120.6 464.3 120.6C450.9 120.6 442.6 125.1 442.6 134.1C442.6 141.5 446.6 146.1 467.9 149.7C503.7 155.9 509.4 166.9 509.4 180.6C509.4 196.5 496.8 210 466.5 210C438.4 210 424.5 197.2 421.4 179.3H437.8Z" fill="#253B5C"/>
<path d="M594.3 187.5C594.3 194.3 594.2 201.2 594.4 208H579.5C579.2 206.1 579.1 201.5 579 197C575.5 204.4 569.4 209.9 554.2 209.9C539.4 209.9 527.8 201.7 527.8 181.1V137.7H543.2V178.4C543.2 188.7 547.2 197.2 559 197.2C573.1 197.2 578.9 189 578.9 169.6V137.7H594.3V187.5Z" fill="#253B5C"/>
<path d="M615.9 155.4C615.9 149.5 615.9 142.9 615.8 137.7H630.8C631.1 140 631.3 145.5 631.3 149.7C634.4 143.4 641.5 135.7 656.2 135.7C672.9 135.7 683.5 146 683.5 165V208H668V167.7C668 157 663.9 148.3 651.6 148.3C638 148.3 631.4 158.5 631.4 173.9V207.9H615.9V155.4Z" fill="#253B5C"/>
<path d="M732.1 123.5H695.4V110H785V123.5H748.4V208H732.1V123.5Z" fill="#253B5C"/>
<path d="M797.1 156.8C797.1 150.5 797.1 144 797 137.7H812C812.3 139.9 812.5 147.4 812.5 153.1C816.9 142.7 826.7 135.7 840.6 135.8V150.3C824.5 150.1 812.5 159 812.5 179.5V208H797.1V156.8Z" fill="#253B5C"/>
<path d="M920.4 187.5C920.4 194.3 920.3 201.2 920.5 208H905.6C905.3 206.1 905.2 201.5 905.1 197C901.6 204.4 895.5 209.9 880.3 209.9C865.5 209.9 853.9 201.7 853.9 181.1V137.7H869.3V178.4C869.3 188.7 873.3 197.2 885.1 197.2C899.2 197.2 905 189 905 169.6V137.7H920.4V187.5Z" fill="#253B5C"/>
<path d="M951.1 186.6C953.4 194.1 960 198.6 971.9 198.6C984.4 198.6 988.7 194.3 988.7 188.8C988.7 183.4 985.3 179.9 968.4 177.8C943.2 174.5 938.8 165.6 938.8 156.9C938.8 147.4 946.2 135.7 969.2 135.7C993.6 135.7 1000.9 148 1001.7 156.9H986.3C985.3 152.9 982.5 146.8 968.4 146.8C956.5 146.8 954.1 151.8 954.1 155.5C954.1 160.2 957.2 163 972.5 165.1C999.4 168.8 1004.1 177.3 1004.1 187.6C1004.1 200.3 994.5 210 971 210C950.8 210 938.1 201.5 935.8 186.7H951.1V186.6Z" fill="#253B5C"/>
<path d="M1011.8 137.7H1025.4V115.5H1040.9V137.7H1058.7V149.5H1040.9V185.8C1040.9 193.3 1042.8 196.7 1050.2 196.7C1052.2 196.7 1054.9 196.6 1056.9 196.1V207.2C1053.6 208.3 1049.6 208.6 1045.2 208.6C1030 208.6 1025.4 201.9 1025.4 188.1V149.5H1011.8V137.7V137.7Z" fill="#253B5C"/>
<path d="M1116.5 110H1165.4C1187 110 1197.8 119.9 1197.8 134.8C1197.8 146.8 1189.8 153.3 1182.2 155.7C1191.2 158.2 1201.7 164.8 1201.7 179.2C1201.7 198.5 1186 208 1165.9 208H1116.6V110H1116.5ZM1161.5 150C1174.8 150 1180.8 145.2 1180.8 136.5C1180.8 126.2 1172.6 122.9 1161.9 122.9H1132.4V150H1161.5ZM1132.5 195.3H1162.6C1173.6 195.3 1184.4 192 1184.4 179.1C1184.4 168.3 1176.1 162.8 1161.7 162.8H1132.5V195.3V195.3Z" fill="#253B5C"/>
<path d="M1282 190.1C1282 197.5 1282.4 206.5 1282.6 208H1268C1267.4 205.7 1267.2 200.5 1267.2 198.3C1263.5 205.3 1255.5 209.9 1241 209.9C1221.3 209.9 1213.9 197.9 1213.9 187.2C1213.9 169.1 1230.2 164.1 1250.4 164.1C1258.2 164.1 1264.5 164.1 1266.9 164.1V160.7C1266.9 153.5 1263.8 146.9 1250 146.9C1237.5 146.9 1234.6 152.3 1233.3 158.1H1217.9C1218.7 148.9 1224.9 135.6 1249.9 135.6C1276.7 135.6 1282 148.5 1282 160.2V190.1V190.1ZM1267 174.7C1265 174.6 1260.2 174.6 1250.8 174.6C1235.9 174.6 1229 178 1229 186.5C1229 192.9 1233.8 198.3 1244.6 198.3C1261.7 198.3 1267 188.7 1267 177.3V174.7Z" fill="#253B5C"/>
<path d="M1303.7 155.4C1303.7 149.5 1303.7 142.9 1303.6 137.7H1318.6C1318.9 140 1319.1 145.5 1319.1 149.7C1322.2 143.4 1329.3 135.7 1344 135.7C1360.7 135.7 1371.3 146 1371.3 165V208H1355.8V167.7C1355.8 157 1351.7 148.3 1339.4 148.3C1325.8 148.3 1319.2 158.5 1319.2 173.9V207.9H1303.7V155.4Z" fill="#253B5C"/>
<path d="M1408.2 170.5C1415.5 163.6 1434.4 147.1 1444.8 137.7H1463.8L1432 164.9L1467.2 208H1448L1420.8 173.6L1408.1 183.9V208H1392.7V104.4H1408.1V170.5H1408.2Z" fill="#253B5C"/>
<path d="M832.7 255.7H819.5L820.5 250.9H852.7L851.7 255.7H838.4L831.7 287.7H825.9L832.7 255.7Z" fill="#253B5C"/>
<path d="M878.5 272.8C878.5 280.7 873.6 288.4 862.8 288.5C854.7 288.5 850.3 283.2 850.3 276.4C850.3 268.1 855.9 260.6 866 260.6C874.2 260.6 878.5 266.2 878.5 272.8ZM856 276.1C856 280.9 858.9 284 863.3 284C869.9 284 872.8 278.3 872.8 272.8C872.8 268.4 870.5 265 865.5 265C859.5 265 856 270.3 856 276.1Z" fill="#253B5C"/>
<path d="M885.6 268.7C886.1 266.2 886.6 263.6 887.1 261.3H892.5C892.4 261.9 892.1 264.1 891.8 265.3C893.6 262.9 896.1 260.5 900.7 260.5C905.2 260.5 907.1 262.7 907.6 265.6C909.5 263 912.3 260.5 917.5 260.5C923 260.5 926.3 263.9 924.8 271.4L921.4 287.7H915.9L919.2 272C919.9 269 919.9 265.2 915.2 265.2C911.1 265.2 908.3 268.4 907.2 273.7L904.2 287.7H898.7L902 272C902.6 269.1 902.8 265.2 898.1 265.2C893.5 265.2 890.8 269.3 889.8 274.2L886.9 287.8H881.4L885.6 268.7Z" fill="#253B5C"/>
<path d="M958.2 272.8C958.2 280.7 953.3 288.4 942.5 288.5C934.4 288.5 930 283.2 930 276.4C930 268.1 935.6 260.6 945.7 260.6C954 260.6 958.2 266.2 958.2 272.8ZM935.7 276.1C935.7 280.9 938.6 284 943 284C949.6 284 952.5 278.3 952.5 272.8C952.5 268.4 950.2 265 945.2 265C939.3 265 935.7 270.3 935.7 276.1Z" fill="#253B5C"/>
<path d="M965.2 269.1C965.7 266.5 966.4 263.7 966.8 261.3H972.1C972 262.2 971.6 264.9 971.1 267.1C973.6 262.6 977.2 260.7 981.7 260.7L980.4 266.2C974.5 266.2 970.6 269.9 969 277.5L966.9 287.7H961.4L965.2 269.1Z" fill="#253B5C"/>
<path d="M985.4 269.1C985.9 266.5 986.6 263.7 987 261.3H992.3C992.2 262.2 991.8 264.9 991.3 267.1C993.8 262.6 997.4 260.7 1001.9 260.7L1000.6 266.2C994.7 266.2 990.8 269.9 989.2 277.5L987.1 287.7H981.6L985.4 269.1Z" fill="#253B5C"/>
<path d="M1030.5 272.8C1030.5 280.7 1025.6 288.4 1014.8 288.5C1006.7 288.5 1002.3 283.2 1002.3 276.4C1002.3 268.1 1007.9 260.6 1018 260.6C1026.2 260.6 1030.5 266.2 1030.5 272.8ZM1007.9 276.1C1007.9 280.9 1010.8 284 1015.2 284C1021.8 284 1024.7 278.3 1024.7 272.8C1024.7 268.4 1022.4 265 1017.4 265C1011.5 265 1007.9 270.3 1007.9 276.1Z" fill="#253B5C"/>
<path d="M1041.2 261.3C1042.1 273.5 1042.7 279.9 1042.7 282.4H1042.8C1044.2 279.3 1045.8 276.2 1053.8 261.3H1059C1060.5 273.4 1061 279.9 1061.1 282.1H1061.2C1062.3 279.4 1065 274.5 1071.8 261.3H1077.3L1062.9 287.8H1057.3C1056.4 280.3 1055.3 270.7 1055.1 267.9H1055C1053.7 270.7 1050.2 277.3 1044.4 287.8H1038.6L1035.9 261.3H1041.2Z" fill="#253B5C"/>
<path d="M1078.8 264.2C1081.1 260.1 1083.9 253.8 1085 248.8H1090.8C1089.7 253.4 1086.3 260.6 1083.4 264.2H1078.8Z" fill="#253B5C"/>
<path d="M1093.7 279.5C1094.2 283.1 1097.1 284.4 1100.9 284.4C1104.2 284.4 1107.1 283.1 1107.1 280.5C1107.1 278.4 1105.6 277.2 1100.5 276.1C1092.9 274.4 1091.2 272 1091.2 268.7C1091.2 264 1095.3 260.6 1102.3 260.6C1112.1 260.6 1113.9 266.2 1114 268.9H1108.5C1108.2 266.9 1106.9 264.6 1102 264.6C1098.9 264.6 1096.8 265.8 1096.8 268C1096.8 269.8 1098.5 270.7 1103 271.7C1110.5 273.5 1112.8 275.8 1112.8 279.8C1112.8 284.9 1108.3 288.5 1100.4 288.5C1093.4 288.5 1088.5 285.6 1088.2 279.5H1093.7Z" fill="#253B5C"/>
<path d="M1140.7 250.9H1156.9C1164.4 250.9 1168 254.6 1168 259.7C1168 264.4 1164.9 267.4 1160.7 268.5C1163.4 269.5 1166.3 272 1166.3 276.2C1166.3 285.1 1158.1 287.8 1151.1 287.8H1133L1140.7 250.9ZM1139.6 283.1H1150.9C1155.7 283.1 1160.1 281.4 1160.1 276.4C1160.1 272.8 1157.5 270.7 1152.3 270.7H1142.2L1139.6 283.1ZM1153.6 265.9C1158.7 265.9 1161.9 264.6 1161.9 260.3C1161.9 257.3 1159.9 255.5 1155.4 255.5H1145.5L1143.3 265.8H1153.6V265.9Z" fill="#253B5C"/>
<path d="M1195.9 280.1C1195.1 284 1194.5 286.6 1194.4 287.8H1189C1189.1 286.9 1189.4 285.2 1189.6 283.9C1187.8 286.6 1184.8 288.5 1179.4 288.5C1172.5 288.5 1170.3 284.3 1170.3 280.9C1170.3 272.9 1179.1 271.8 1184.6 271.3C1186.7 271.1 1190.3 271.1 1192.3 271L1192.5 270.2C1193.1 267.3 1192.2 264.7 1186.8 264.7C1182.6 264.7 1180.5 266.1 1179.7 268.7H1174.1C1175 264.7 1178 260.6 1187.1 260.6C1197.1 260.6 1199.1 265.7 1197.9 271.1L1195.9 280.1ZM1191.5 274.8C1188.7 274.8 1186.5 274.9 1184.6 275.1C1180.5 275.5 1176.1 276.4 1176.1 280.3C1176.1 282.6 1177.9 284.1 1181.2 284.1C1187.1 284.1 1190 281.1 1191.4 275.4L1191.5 274.8Z" fill="#253B5C"/>
<path d="M1206.4 268C1206.9 265.8 1207.4 263.3 1207.7 261.3H1213.1C1212.9 262.6 1212.6 264.4 1212.3 265.8C1213.9 263.4 1216.7 260.5 1222.2 260.5C1228 260.5 1231.9 263.8 1230.1 272.1L1226.8 287.7H1221.3L1224.5 272.3C1225.4 268.3 1224.6 265.2 1219.8 265.2C1214.6 265.2 1211.5 269.4 1210.2 275.4L1207.6 287.7H1202.1L1206.4 268Z" fill="#253B5C"/>
<path d="M1243.2 273.4C1246 271 1254.4 264.8 1258.9 261.3H1266.1C1261.4 264.7 1255.9 268.8 1252 271.8L1261.2 287.8H1254.9L1247.8 274.8L1242.2 278.5L1240.2 287.8H1234.7L1243 248.8H1248.5L1243.2 273.4Z" fill="#253B5C"/>
<path d="M1295.9 255.7H1282.7L1283.7 250.9H1315.9L1314.9 255.7H1301.6L1294.9 287.7H1289.1L1295.9 255.7Z" fill="#253B5C"/>
<path d="M1341.7 272.8C1341.7 280.7 1336.8 288.4 1326 288.5C1317.9 288.5 1313.5 283.2 1313.5 276.4C1313.5 268.1 1319.1 260.6 1329.2 260.6C1337.4 260.6 1341.7 266.2 1341.7 272.8ZM1319.2 276.1C1319.2 280.9 1322.1 284 1326.5 284C1333.1 284 1336 278.3 1336 272.8C1336 268.4 1333.7 265 1328.7 265C1322.8 265 1319.2 270.3 1319.2 276.1Z" fill="#253B5C"/>
<path d="M1378.7 248.8L1372 280.3C1371.5 282.8 1371 285.3 1370.5 287.8H1365.2C1365.3 287.1 1365.5 285.8 1365.8 284.3C1364 286.7 1361.5 288.5 1356.4 288.5C1349.5 288.5 1345.6 283.6 1345.6 276.7C1345.6 268.3 1351.6 260.6 1360.7 260.6C1366.6 260.6 1369.2 263.4 1369.8 265.1L1373.2 248.8H1378.7V248.8ZM1351.3 276.2C1351.3 280.8 1353.7 283.9 1358.2 283.9C1363.9 283.9 1366.9 280.1 1367.8 275.2C1369.1 268.6 1366.7 265.2 1360.8 265.2C1354.8 265.2 1351.3 270.4 1351.3 276.2Z" fill="#253B5C"/>
<path d="M1404.1 280.1C1403.3 284 1402.7 286.6 1402.6 287.8H1397.2C1397.3 286.9 1397.6 285.2 1397.8 283.9C1396 286.6 1393 288.5 1387.6 288.5C1380.8 288.5 1378.5 284.3 1378.5 280.9C1378.5 272.9 1387.3 271.8 1392.8 271.3C1394.9 271.1 1398.5 271.1 1400.5 271L1400.7 270.2C1401.3 267.3 1400.4 264.7 1395 264.7C1390.8 264.7 1388.7 266.1 1387.9 268.7H1382.3C1383.2 264.7 1386.2 260.6 1395.3 260.6C1405.3 260.6 1407.3 265.7 1406.1 271.1L1404.1 280.1ZM1399.7 274.8C1396.9 274.8 1394.7 274.9 1392.8 275.1C1388.7 275.5 1384.3 276.4 1384.3 280.3C1384.3 282.6 1386.1 284.1 1389.4 284.1C1395.3 284.1 1398.2 281.1 1399.6 275.4L1399.7 274.8Z" fill="#253B5C"/>
<path d="M1417.3 261.3C1419.9 273.2 1421.5 281.1 1421.9 283.8H1422C1423.5 281.1 1427.7 273.4 1434.5 261.3H1440.5L1425.1 287.7C1419.3 297.8 1417.1 300.1 1410.5 300.1C1409.4 300.1 1407.2 299.9 1406.2 299.6L1407.3 294.9C1408.1 295.1 1409.2 295.2 1410.6 295.2C1413.8 295.2 1415.6 293.7 1418.2 289.4L1411.7 261.4H1417.3V261.3Z" fill="#253B5C"/>
</g>
<defs>
<clipPath id="clip0">
<rect width="1451.9" height="386.9" fill="white"/>
</clipPath>
</defs>
</svg>
