<svg width="511" height="386" viewBox="0 0 511 386" fill="none" xmlns="http://www.w3.org/2000/svg">
<path d="M140 385.3C129.9 385.3 120.7 385.3 110.4 385.3C110.4 346.3 110.4 307.5 110.4 268.8C109.6 268.7 108.9 268.6 108.1 268.5C100 307.3 91.9 346 83.7 385.6C76.5 385.6 69.5 386 62.6 385.3C60.9 385.2 58.6 382 58.1 379.9C49.9 345.2 41.9 310.5 33.8 275.8C33.2 273.2 32.5 270.7 31.8 268.2C31.2 268.3 30.6 268.3 30 268.4C30 307.2 30 345.9 30 385.1C19.5 385.1 10.1 385.1 0 385.1C0 318.6 0 252 0 184.4C13.6 184.4 27.1 184.2 40.5 184.6C41.8 184.6 43.7 188 44.1 190C52.3 231.4 60.3 272.8 68.4 314.2C69 317.3 69.9 320.3 72.4 323.4C74.6 311.8 76.9 300.2 79.1 288.6C85.2 255.8 91.2 222.9 97.5 190.1C97.9 188 100.4 184.7 102 184.6C114.5 184.1 127.1 184.3 140.1 184.3C140 251.7 140 318.2 140 385.3Z" fill="#253B5C"/>
<path d="M356.7 113.3C363.7 76.4 370.8 39.5 377.8 2.5C388.9 2.5 399.4 2.5 410.4 2.5C410.4 55.9 410.4 109.1 410.4 163C403.1 163 395.7 163 387.1 163C387.1 133.3 387.1 103.5 387.1 73.6C386.3 73.5 385.4 73.4 384.6 73.3C378.3 103.2 371.9 133.1 365.6 162.8C364.7 163.1 364.3 163.4 363.8 163.4C345.7 164.1 345.8 164.1 341.9 146.6C336.3 122.1 330.5 97.7 324.8 73.2C324.4 71.6 323.8 70 322.3 68.6C322.3 99.9 322.3 131.1 322.3 163C314.3 163 306.9 163 298.8 163C298.8 109.9 298.8 56.4 298.8 2.6C310 2.6 321.2 2.6 333.1 2.6C340.3 39.5 347.6 76.5 354.9 113.5C355.4 113.4 356.1 113.4 356.7 113.3Z" fill="#253B5C"/>
<path d="M162.8 383.6C184.9 318.2 207.1 252.7 229.2 187.3C229.7 187.2 230.3 187.1 230.8 187.1C253 252.6 275.2 318.1 298 385.7C280.7 374.5 265.3 364.4 249.8 354.4C243.3 350.2 236.6 343 230 343C223.4 343 216.7 350.2 210.2 354.4C194.8 364.3 179.5 374.4 164.1 384.4C163.8 384.1 163.3 383.8 162.8 383.6Z" fill="#253B5C"/>
<path d="M320.7 385.2C320.7 318.4 320.7 252.1 320.7 185.1C330.3 185.1 339.9 185.1 350.4 185.1C350.4 241.6 350.4 298 350.4 355.2C368 355.2 384.7 355.2 402.1 355.2C402.1 365.5 402.1 375.1 402.1 385.2C375.2 385.2 348.4 385.2 320.7 385.2Z" fill="#253B5C"/>
<path d="M429.4 385.2C429.4 318.4 429.4 252.1 429.4 185.1C439 185.1 448.6 185.1 459.1 185.1C459.1 241.6 459.1 298 459.1 355.2C476.7 355.2 493.4 355.2 510.8 355.2C510.8 365.5 510.8 375.1 510.8 385.2C483.8 385.2 456.8 385.2 429.4 385.2Z" fill="#253B5C"/>
<path d="M187.9 120.1C197 119.4 204.2 118.8 211.3 118.3C212.6 122.9 213.3 126.8 214.7 130.5C218.3 140.1 225.2 144.5 233 142.4C240.5 140.4 246.6 131.2 244.2 122.7C242.3 115.8 238.5 108.7 233.8 103.3C224.2 92.3999 212.8 82.9999 203.2 72.0999C190.7 57.9999 188.3 41.0999 194.2 23.3999C200 5.79993 218 -3.00007 238.3 0.899931C255.6 4.29993 268.3 20.0999 267.1 37.4999C259.9 38.7999 252.6 40.0999 245.5 41.3999C243.9 36.8999 242.8 33.0999 241.1 29.4999C238.8 24.3999 234.6 21.9999 229 22.1999C223.3 22.3999 219.8 25.5999 217.9 30.8999C214.7 39.5999 215.8 48.1999 221.1 55.2999C226.4 62.4999 232.9 68.9999 239.6 74.8999C252.8 86.5999 264.3 99.1999 268.3 117.1C272.8 136.8 262 158.5 244.1 163.4C221.5 169.6 202.3 162.7 193.6 141.4C191 135 190 128 187.9 120.1Z" fill="#253B5C"/>
<path d="M464.7 26.0999C464.7 40.4999 464.5 53.5999 464.9 66.5999C464.9 68.0999 468.1 70.6999 469.9 70.7999C478.7 71.1999 487.5 70.9999 496.9 70.9999C496.9 79.0999 496.9 86.6999 496.9 95.1999C486.3 95.1999 475.9 95.1999 465.2 95.1999C465.2 110.3 465.2 124.5 465.2 139.4C480.2 139.4 494.7 139.4 509.5 139.4C509.5 147.6 509.5 155 509.5 163C486.8 163 464.3 163 441.1 163C441.1 109.8 441.1 56.3999 441.1 2.59985C463.7 2.59985 486.2 2.59985 509.3 2.59985C509.3 10.1999 509.3 17.6999 509.3 26.0999C494.7 26.0999 480.3 26.0999 464.7 26.0999Z" fill="#253B5C"/>
<path d="M81.3 80.5C85.7 80.5 88.8 80.5 92.5 80.5C92.5 107 92.5 133.2 92.5 160.1C89.2 160.1 85.9 160.1 81.7 160.1C81.7 149 81.7 138.1 81.7 126.6C76.5 126.6 72.2 126.6 66.8 126.6C66.8 137.5 66.8 148.6 66.8 160.2C62.4 160.2 59.1 160.2 55.2 160.2C55.2 133.9 55.2 107.6 55.2 80.7C58.6 80.7 61.9 80.7 66.3 80.7C66.3 91.6 66.3 102.5 66.3 113.8C71.7 113.8 76.1 113.8 81.2 113.8C81.3 102.9 81.3 92.2 81.3 80.5Z" fill="#253B5C"/>
<path d="M137.6 148.8C137.6 153.2 137.6 156.4 137.6 160.2C126.4 160.2 115.3 160.2 103.7 160.2C103.7 133.7 103.7 107.4 103.7 80.7C114.9 80.7 125.8 80.7 137.3 80.7C137.3 84 137.3 87.4 137.3 91.5C130.2 91.5 123.3 91.5 115.8 91.5C115.8 99.3 115.8 106.4 115.8 114.2C120.9 114.2 125.8 114.2 131.3 114.2C131.3 118.2 131.3 121.6 131.3 125.9C126.3 125.9 121.2 125.9 115.7 125.9C115.7 133.9 115.7 141.1 115.7 148.9C122.8 148.8 129.8 148.8 137.6 148.8Z" fill="#253B5C"/>
<path d="M30.9 160.5C26.5 160.5 23.2 160.5 19 160.5C19 137.8 19 115.1 19 92.1C14.4 91.8 10.7 91.5 6.60001 91.2C6.60001 87.8 6.60001 84.6 6.60001 80.8C18.3 80.8 30.2 80.8 42.7 80.8C42.7 84.1 42.7 87.4 42.7 91.2C38.9 91.5 35.3 91.7 30.9 92C30.9 114.8 30.9 137.2 30.9 160.5Z" fill="#253B5C"/>
</svg>
