<svg width="240" height="387" viewBox="0 0 240 387" fill="none" xmlns="http://www.w3.org/2000/svg">
<path d="M130.911 208.702C130.611 219.502 130.511 230.002 129.811 240.502C129.411 246.602 128.211 252.702 127.311 258.902C127.311 259.202 127.211 259.602 127.111 259.902C126.511 264.802 126.011 269.702 125.211 274.602C124.611 278.202 123.611 281.802 122.711 285.402C122.111 288.102 121.511 290.702 120.911 293.402C120.311 296.402 119.911 299.502 119.111 302.402C117.911 306.602 116.311 310.702 115.011 314.902C114.211 317.402 113.711 319.902 113.011 322.302C112.611 323.802 112.011 325.302 111.411 326.702C110.611 328.802 109.611 330.902 108.811 333.002C107.711 336.102 106.711 339.202 105.511 342.302C104.911 343.902 104.211 345.402 103.511 346.902C102.211 349.902 100.911 352.902 99.5111 355.902C98.4111 358.302 97.1111 360.602 95.9111 363.002C94.6111 365.602 93.3111 368.202 91.9111 370.802C89.7111 374.702 87.3111 378.602 84.9111 382.502C84.2111 383.702 83.5111 384.902 82.7111 386.002C82.5111 386.302 82.1111 386.502 81.7111 386.802C81.5111 386.402 81.3111 386.002 81.2111 385.602C81.1111 385.302 81.2111 384.902 81.3111 384.602C82.2111 381.302 83.0111 378.002 83.9111 374.802C84.0111 374.502 84.1111 374.302 84.2111 374.002C84.8111 370.602 85.3111 367.102 86.0111 363.702C86.8111 359.702 87.8111 355.702 88.7111 351.702C88.7111 351.602 88.7111 351.602 88.7111 351.502C89.3111 347.502 89.8111 343.502 90.4111 339.502C91.2111 334.202 92.0111 328.902 92.7111 323.602C93.1111 320.702 93.2111 317.702 93.4111 314.702C94.1111 307.002 95.0111 299.402 95.4111 291.702C95.9111 280.602 96.0111 269.402 96.3111 258.202C96.3111 256.102 96.4111 253.902 96.2111 251.802C95.2111 242.402 95.6111 232.802 93.6111 223.502C93.5111 222.902 93.5111 222.302 93.4111 221.702C92.8111 216.502 92.4111 211.302 91.6111 206.202C90.8111 200.802 89.8111 195.402 88.6111 190.102C87.7111 185.802 86.6111 181.502 85.5111 177.202C84.1111 171.602 82.6111 166.102 81.0111 160.602C80.3111 158.202 79.2111 156.002 78.3111 153.602C77.8111 152.102 77.3111 150.602 76.9111 149.002C76.3111 147.002 75.8111 144.902 75.1111 142.902C74.4111 140.802 73.5111 138.802 72.7111 136.802C72.0111 135.102 71.4111 133.402 70.7111 131.702C69.3111 128.402 67.9111 125.002 66.5111 121.702C65.9111 120.202 65.2111 118.702 64.6111 117.202C63.8111 115.502 63.1111 113.702 62.3111 112.002C61.0111 109.302 59.8111 106.602 58.4111 103.902C57.2111 101.602 56.0111 99.3024 54.7111 97.0024C53.5111 94.8024 52.2111 92.6024 50.9111 90.4024C49.1111 87.3024 47.3111 84.3024 45.5111 81.3024C43.8111 78.6024 42.2111 75.8024 40.4111 73.2024C38.1111 69.8024 35.6111 66.5024 33.2111 63.1024C31.6111 60.8024 30.1111 58.4024 28.4111 56.3024C25.0111 52.0024 21.5111 47.7024 18.0111 43.6024C14.5111 39.5024 10.9111 35.6024 7.21107 31.7024C5.21107 29.6024 3.01107 27.7024 0.911069 25.7024C0.511069 25.3024 -0.0889328 24.5024 0.0110672 24.2024C0.211067 23.6024 0.911067 22.9024 1.51107 22.7024C5.81107 21.5024 10.1111 20.6024 14.3111 19.4024C16.7111 18.7024 18.9111 17.7024 21.3111 16.9024C23.0111 16.3024 24.8111 15.8024 26.6111 15.3024C28.9111 14.7024 31.2111 14.2024 33.5111 13.5024C36.2111 12.7024 38.8111 11.8024 41.4111 11.0024C43.0111 10.5024 44.7111 10.1024 46.3111 9.60237C49.0111 8.80237 51.6111 8.10237 54.3111 7.30237C56.8111 6.60237 59.2111 5.80237 61.7111 5.00237C64.2111 4.30237 66.7111 3.70237 69.1111 2.90237C71.6111 2.20237 74.2111 1.50237 76.6111 0.502369C78.9111 -0.397631 80.0111 -0.197631 81.0111 2.00237C81.4111 2.90237 82.0111 3.80237 82.3111 4.70237C84.0111 8.70237 85.6111 12.8024 87.3111 16.8024C88.0111 18.4024 88.9111 20.0024 89.6111 21.6024C90.3111 23.0024 91.0111 24.4024 91.5111 25.9024C92.2111 27.7024 92.7111 29.5024 93.3111 31.3024C93.8111 32.6024 94.4111 33.9024 95.0111 35.2024C96.3111 38.3024 97.7111 41.5024 99.0111 44.7024C99.6111 46.3024 100.211 47.9024 100.711 49.5024C101.811 52.9024 102.811 56.4024 103.911 59.8024C105.211 63.6024 106.811 67.3024 108.111 71.1024C108.911 73.5024 109.311 75.9024 110.011 78.3024C110.711 80.6024 111.511 82.9024 112.311 85.2024C112.411 85.5024 112.511 85.7024 112.611 86.0024C113.311 88.9024 113.811 91.8024 114.611 94.7024C115.311 97.3024 116.111 99.8024 116.911 102.302C117.011 102.602 117.211 102.802 117.211 103.002C117.911 106.302 118.411 109.502 119.211 112.802C119.911 116.002 120.811 119.102 121.711 122.302C121.811 122.502 121.811 122.702 121.911 122.902C122.511 126.602 122.911 130.402 123.611 134.102C124.411 138.802 125.411 143.502 126.311 148.202C126.511 149.002 126.411 149.802 126.511 150.702C127.111 157.102 127.211 163.502 128.311 169.802C131.011 182.802 130.011 196.002 130.911 208.702Z" fill="#253B5C"/>
<path d="M234.111 246.902C233.911 247.502 233.911 248.202 233.611 248.702C230.711 253.202 227.811 257.702 224.811 262.002C220.611 268.102 216.311 274.002 212.011 280.002C208.311 285.202 204.611 290.402 200.811 295.502C197.311 300.102 193.811 304.602 190.011 309.002C187.111 312.302 183.911 315.402 180.611 318.402C177.311 321.402 173.811 324.202 170.411 327.002C166.311 330.302 161.411 329.702 156.811 328.902C155.411 328.702 154.111 326.702 153.211 325.302C152.311 323.802 152.111 322.002 151.311 320.402C149.511 317.002 150.511 313.202 149.511 309.802C147.611 302.802 148.611 295.802 148.611 288.902C148.611 284.802 150.011 280.702 149.811 276.502C149.811 275.502 149.711 274.602 149.911 273.602C150.211 271.702 150.611 269.802 150.911 267.802C151.011 267.102 151.211 266.302 151.311 265.602C151.911 260.402 152.311 255.102 153.111 249.902C153.711 246.202 154.711 242.502 155.511 238.802C155.511 238.602 155.611 238.402 155.711 238.202C156.311 235.102 156.711 232.002 157.411 229.002C158.311 225.002 159.311 221.002 160.311 216.902C160.311 216.702 160.411 216.502 160.411 216.302C161.011 213.102 161.511 209.802 162.211 206.702C162.411 205.702 163.111 204.802 163.811 203.402C164.611 206.102 165.611 208.102 165.811 210.202C166.511 216.702 167.711 223.202 167.611 229.902C167.311 241.402 167.511 252.802 167.311 264.302C167.311 266.702 166.311 269.202 166.411 271.602C166.511 275.102 166.911 278.602 167.711 281.902C168.311 284.702 172.311 287.202 175.211 287.302C178.811 287.402 182.011 286.602 185.111 284.702C187.211 283.402 189.711 282.702 191.811 281.402C194.511 279.702 197.111 277.702 199.711 275.902C201.311 274.802 203.111 273.702 204.611 272.502C209.311 268.702 214.011 264.902 218.511 260.902C222.811 257.202 226.911 253.302 231.111 249.402C232.011 248.602 232.711 247.602 233.511 246.702C233.711 246.702 233.911 246.802 234.111 246.902Z" fill="#253B5C"/>
<path d="M164.211 51.3024C164.811 53.9024 165.511 56.5024 166.011 59.2024C168.711 74.9024 167.611 90.7024 167.211 106.402C167.111 111.502 166.311 116.702 166.211 121.902C166.211 125.702 167.311 129.202 169.411 132.202C170.311 133.402 172.111 134.302 173.711 134.602C179.111 135.602 183.911 133.502 188.311 130.902C192.911 128.202 197.311 125.202 201.511 121.902C208.911 116.102 216.211 110.202 223.411 104.102C226.311 101.602 228.811 98.7024 231.611 95.9024C231.811 95.7024 232.111 95.5024 232.311 95.3024C232.511 95.4024 232.711 95.5024 232.911 95.7024C232.211 96.9024 231.611 98.1024 230.911 99.2024C229.511 101.402 228.111 103.502 226.711 105.602C224.011 109.602 221.211 113.602 218.511 117.602C215.611 121.802 212.811 126.002 209.911 130.202C207.911 133.002 205.811 135.702 203.711 138.402C201.311 141.602 198.911 144.902 196.311 148.002C194.011 150.802 191.611 153.602 189.211 156.302C185.511 160.302 181.911 164.402 178.011 168.102C175.311 170.602 172.111 172.602 169.111 174.902C166.011 177.202 162.511 176.802 159.011 176.702C156.111 176.602 154.511 174.702 153.311 172.402C152.511 170.902 152.411 168.902 151.511 167.402C149.411 164.002 150.811 160.202 149.811 156.802C147.711 149.702 148.411 142.502 149.011 135.502C149.511 129.402 149.411 123.102 150.411 117.102C151.111 113.302 151.411 109.602 151.911 105.802C152.311 102.502 152.811 99.3024 153.411 96.1024C153.811 93.4024 154.011 90.6024 154.811 88.1024C156.411 83.2024 157.011 78.2024 157.911 73.1024C158.411 70.1024 159.611 67.1024 160.511 64.2024C160.511 64.1024 160.611 63.9024 160.611 63.8024C161.211 60.5024 161.711 57.2024 162.411 54.0024C162.611 52.9024 163.311 52.0024 163.711 51.0024C163.811 51.1024 164.011 51.2024 164.211 51.3024Z" fill="#253B5C"/>
<path d="M217.411 307.002C224.511 306.402 229.411 310.102 233.511 315.002C234.811 316.602 235.211 318.902 235.911 320.902C236.411 322.202 237.011 323.702 237.011 325.002C236.811 332.502 233.711 338.502 227.411 343.002C222.911 346.202 217.911 346.602 213.111 345.502C208.611 344.402 204.411 341.802 201.311 337.702C197.211 332.202 197.011 326.102 198.611 320.102C199.711 315.902 202.311 312.102 206.611 309.702C210.111 307.802 213.611 306.802 217.411 307.002Z" fill="#253B5C"/>
<path d="M219.011 160.402C227.511 160.002 232.711 164.202 236.711 170.202C239.711 174.702 239.811 180.202 238.311 185.002C236.511 190.702 232.811 195.402 226.611 198.002C222.911 199.502 219.511 199.003 216.011 199.103C214.411 199.103 212.911 198.002 211.311 197.302C208.411 196.102 205.711 194.402 203.911 191.702C200.811 187.102 199.011 182.002 200.011 176.502C200.411 174.502 201.811 172.702 202.411 170.702C203.211 167.802 205.311 166.102 207.411 164.202C208.011 163.602 208.811 163.302 209.611 162.802C212.711 161.002 216.011 160.002 219.011 160.402Z" fill="#253B5C"/>
</svg>
