<svg width="599" height="387" viewBox="0 0 599 387" fill="none" xmlns="http://www.w3.org/2000/svg">
<path d="M465.82 105.153C477.12 96.4526 487.62 88.4526 498.32 80.2526C490.12 62.3526 482.02 44.7526 473.92 27.2526C469.42 17.5526 473.12 6.85256 482.32 2.45256C491.52 -1.84744 502.42 2.25256 506.92 11.5526C514.02 26.3526 521.12 41.2526 528.52 56.4526C529.82 55.6526 531.02 55.1526 532.02 54.3526C544.32 45.1526 556.52 35.9526 568.82 26.8526C577.02 20.7526 588.52 22.1526 594.52 29.8526C600.92 38.0526 599.52 49.2526 591.02 55.8526C576.82 66.8526 562.42 77.7526 548.12 88.6526C546.82 89.6526 545.52 90.6526 543.82 91.9526C550.12 105.253 556.32 118.453 562.62 131.553C564.72 135.953 566.92 140.353 568.92 144.753C573.32 154.553 569.52 164.853 560.12 169.453C551.12 173.853 540.82 170.053 536.02 160.353C529.52 147.053 523.12 133.753 516.72 120.353C516.02 118.853 515.22 117.353 514.22 115.353C511.02 117.653 508.12 119.853 505.22 121.953C495.62 129.053 486.02 136.153 476.32 143.153C475.42 143.853 474.52 144.953 473.42 145.153C465.12 147.153 465.62 153.253 465.62 159.853C465.62 175.353 466.42 190.953 464.22 206.153C456.72 257.553 411.82 296.253 359.82 296.953C330.72 297.353 301.62 297.153 272.52 297.053C258.22 296.953 247.92 286.853 247.92 272.553C247.82 190.453 247.82 108.353 247.92 26.2526C247.92 12.1526 258.02 1.85256 272.02 1.75256C301.42 1.55256 330.92 1.25256 360.32 1.85256C414.92 3.05256 461.82 46.4526 465.32 101.753C465.32 102.553 465.52 103.253 465.82 105.153ZM296.32 248.653C298.52 248.653 300.22 248.653 301.92 248.653C319.92 248.653 337.92 248.653 355.92 248.653C391.42 248.553 417.12 222.953 417.12 187.553C417.12 162.453 416.62 137.453 417.22 112.353C418.12 74.9526 387.92 49.7526 355.12 50.2526C337.12 50.5526 319.12 50.2526 301.12 50.3526C299.52 50.3526 297.92 50.5526 296.32 50.6526C296.32 116.753 296.32 182.353 296.32 248.653ZM465.52 143.053C466.02 143.353 466.52 143.653 467.02 143.953C483.22 132.053 499.42 120.153 515.82 108.053C516.72 109.753 517.42 111.053 518.12 112.453C525.22 127.253 532.32 142.153 539.52 156.953C543.62 165.453 550.82 168.653 557.82 165.153C565.42 161.453 567.72 153.853 563.82 145.453C560.72 138.953 557.62 132.453 554.52 125.853C548.92 114.053 543.32 102.253 537.72 90.3526C538.82 89.4526 539.52 88.8526 540.32 88.2526C556.02 76.3526 571.62 64.4526 587.32 52.5526C594.12 47.3526 595.52 39.3526 590.82 33.0526C586.12 26.9526 577.92 26.0526 571.22 31.0526C563.62 36.6526 556.12 42.3526 548.62 47.9526C541.52 53.2526 534.42 58.5526 527.12 64.0526C526.12 62.0526 525.32 60.6526 524.62 59.1526C517.32 44.0526 510.02 28.8526 502.82 13.6526C499.42 6.65256 491.42 3.55256 484.72 6.65256C477.82 9.85256 475.22 17.3526 478.42 24.5526C485.12 39.2526 491.72 53.9526 498.42 68.6526C500.42 73.0526 502.42 77.4526 504.32 81.7526C492.32 90.9526 480.62 99.8526 469.12 108.753C467.72 109.853 465.82 111.453 465.82 112.753C465.42 122.953 465.52 132.953 465.52 143.053Z" fill="#253B5C"/>
<path d="M219.62 70.6524C219.02 88.6524 220.52 106.952 217.52 124.552C209.82 169.052 183.72 198.652 140.32 212.252C135.82 213.652 134.22 215.252 134.32 220.052C134.62 238.052 134.62 256.052 134.42 274.052C134.22 288.552 124.32 298.852 110.82 298.952C97.2204 299.152 86.4204 289.352 86.1204 275.552C85.7204 259.052 86.0204 242.552 85.9204 226.052C85.9204 214.452 85.9204 214.452 74.7204 210.752C31.5204 196.552 0.820409 154.252 0.720409 108.852C0.620409 81.2524 0.720409 53.6524 0.720409 26.0524C0.720409 10.8524 10.7204 0.152376 24.9204 0.0523756C39.1204 -0.0476244 49.7204 10.9524 49.7204 26.1524C49.7204 53.5524 49.6204 81.0524 49.7204 108.452C49.8204 138.952 73.0204 164.452 103.22 167.652C134.02 170.952 162.12 151.152 168.62 121.352C169.62 116.952 169.92 112.352 170.02 107.852C170.12 80.4524 170.02 52.9524 170.12 25.5524C170.12 11.3524 179.62 0.852376 192.82 0.0523756C207.22 -0.847624 218.82 9.95238 219.02 24.6524C219.22 39.9524 219.02 55.2524 219.02 70.5524C219.22 70.6524 219.42 70.6524 219.62 70.6524Z" fill="#253B5C"/>
<path d="M207.82 347.053C207.82 340.153 207.92 333.253 207.82 326.353C207.72 322.153 209.52 320.153 213.82 320.253C218.52 320.353 223.22 320.153 227.92 320.353C239.22 320.853 246.92 328.853 247.12 340.253C247.22 344.953 247.22 349.653 247.12 354.353C246.82 365.153 239.32 373.053 228.42 373.753C223.52 374.053 218.62 373.853 213.82 373.853C209.62 373.953 207.72 371.953 207.72 367.753C207.92 360.853 207.82 353.953 207.82 347.053ZM216.52 365.053C218.42 365.153 219.92 365.353 221.42 365.353C223.92 365.353 226.42 365.453 228.92 365.153C234.52 364.453 238.32 360.353 238.62 354.753C238.82 349.553 238.82 344.353 238.62 339.153C238.42 334.053 235.12 329.953 230.22 329.253C225.82 328.653 221.32 329.153 216.62 329.153C216.52 341.053 216.52 352.753 216.52 365.053Z" fill="#253B5C"/>
<path d="M383.82 337.252C389.22 333.052 394.92 331.852 400.92 335.252C406.92 338.652 408.42 344.352 408.32 350.752C408.22 356.252 408.32 361.852 408.32 367.352C408.32 370.552 408.22 373.952 404.02 373.852C399.72 373.752 399.92 370.252 399.92 367.152C399.92 361.052 399.92 355.052 399.92 348.952C399.92 344.952 398.42 341.752 393.92 341.852C389.72 341.952 388.32 345.052 388.32 348.852C388.32 355.452 388.62 361.952 388.12 368.552C388.02 370.452 385.92 373.352 384.32 373.752C380.82 374.452 380.02 371.552 380.02 368.552C380.02 362.152 380.02 355.752 380.02 349.352C380.02 345.452 378.82 342.252 374.32 341.852C370.62 341.552 368.52 344.452 368.42 349.552C368.32 355.752 368.42 361.952 368.42 368.252C368.42 371.152 367.82 373.852 364.22 373.952C360.62 374.052 360.02 371.352 360.02 368.352C360.02 362.152 360.12 355.952 360.02 349.652C359.92 343.552 361.72 338.252 367.32 335.152C372.72 331.952 378.32 333.052 383.82 337.252Z" fill="#253B5C"/>
<path d="M39.1204 333.153C39.1204 335.853 39.3204 338.553 39.1204 341.253C38.5204 348.053 35.3204 353.853 29.1204 356.453C24.4204 358.453 23.5204 361.153 23.8204 365.653C24.0204 368.953 25.1204 373.753 19.9204 373.853C14.1204 374.053 15.3204 368.953 15.6204 365.553C15.9204 360.953 14.9204 358.353 10.2204 356.453C4.82041 354.353 1.32041 349.453 0.620408 343.653C-0.179592 337.153 -0.0795917 330.553 0.220408 324.053C0.320408 322.653 2.92041 320.253 4.42041 320.353C5.82041 320.353 8.22041 322.753 8.42041 324.253C9.02041 328.753 8.62041 333.253 8.62041 337.853C8.72041 345.653 13.2204 350.553 19.9204 350.453C26.4204 350.353 30.7204 345.453 30.8204 337.953C30.8204 333.753 30.4204 329.453 31.0204 325.353C31.3204 323.453 33.3204 320.653 35.0204 320.253C38.4204 319.553 39.4204 322.453 39.4204 325.453C39.2204 328.053 39.2204 330.653 39.1204 333.153C39.2204 333.153 39.1204 333.153 39.1204 333.153Z" fill="#253B5C"/>
<path d="M159.52 334.352C161.22 334.052 162.32 333.752 163.52 333.552C172.72 332.052 180.72 338.452 181.02 347.752C181.22 354.652 181.02 361.552 181.12 368.452C181.12 371.552 180.22 373.952 176.72 373.852C173.42 373.752 172.82 371.252 172.82 368.452C172.82 362.252 172.82 356.052 172.82 349.852C172.72 344.652 170.12 341.652 165.92 341.752C162.02 341.852 159.72 344.752 159.62 349.852C159.52 355.852 159.62 361.952 159.62 367.952C159.62 371.052 159.02 373.952 155.12 373.752C151.52 373.552 151.22 370.752 151.22 367.852C151.22 354.052 151.22 340.352 151.22 326.552C151.22 323.352 151.82 320.452 155.62 320.652C159.12 320.752 159.72 323.552 159.62 326.452C159.52 329.052 159.52 331.552 159.52 334.352Z" fill="#253B5C"/>
<path d="M282.22 349.652C282.22 353.152 282.32 356.752 282.22 360.252C282.02 365.652 279.62 370.152 274.72 372.652C272.02 374.052 271.12 375.752 271.32 378.552C271.52 380.052 271.82 381.852 271.12 383.052C270.32 384.652 268.72 386.752 267.32 386.752C265.92 386.852 263.12 384.552 263.22 383.552C264.12 376.852 260.52 373.252 255.82 369.352C253.52 367.452 252.42 363.152 252.22 359.852C251.72 352.952 252.12 346.052 252.02 339.152C252.02 336.152 252.82 333.552 256.32 333.552C259.82 333.552 260.62 336.252 260.62 339.252C260.62 345.852 260.52 352.352 260.62 358.952C260.72 363.552 263.22 366.352 267.02 366.352C270.92 366.352 273.52 363.552 273.62 359.052C273.72 352.452 273.72 345.952 273.62 339.352C273.62 336.452 274.12 333.652 277.72 333.652C281.22 333.652 282.02 336.252 282.02 339.252C282.22 342.652 282.22 346.152 282.22 349.652Z" fill="#253B5C"/>
<path d="M353.32 358.052C353.32 361.752 353.42 365.452 353.32 369.152C353.12 372.652 351.42 374.252 347.62 373.452C346.12 373.152 344.42 373.152 342.92 373.552C332.32 376.152 323.72 369.552 323.52 358.552C323.42 354.852 323.32 351.152 323.62 347.452C324.02 339.652 330.32 333.652 338.02 333.352C346.02 333.052 352.72 338.952 353.32 346.952C353.42 350.652 353.22 354.352 353.32 358.052C353.22 358.052 353.22 358.052 353.32 358.052ZM344.82 353.852C344.82 352.052 344.92 350.152 344.82 348.352C344.52 344.352 342.12 342.052 338.42 341.952C334.52 341.852 332.22 344.352 331.92 348.252C331.72 351.952 331.62 355.652 331.92 359.252C332.22 363.052 334.72 365.452 338.62 365.352C342.22 365.252 344.42 363.052 344.82 359.352C345.02 357.552 344.82 355.752 344.82 353.852Z" fill="#253B5C"/>
<path d="M124.42 333.652C129.12 333.652 132.92 333.652 136.82 333.652C139.72 333.652 142.22 334.852 141.62 337.952C141.32 339.552 138.72 341.652 137.02 341.852C133.12 342.452 129.02 342.052 124.62 342.052C124.62 348.352 124.22 354.052 124.82 359.652C125.02 361.652 127.32 364.352 129.22 364.952C131.12 365.552 133.82 364.052 136.02 363.252C136.62 363.052 136.82 361.552 137.52 361.352C139.32 360.652 141.22 360.152 143.12 359.652C143.52 361.652 144.92 364.052 144.32 365.752C142.32 371.352 135.42 374.752 129.02 373.952C122.32 373.052 117.12 367.852 116.32 360.852C115.92 357.552 116.12 354.152 116.12 350.752C116.12 342.852 116.12 334.952 116.12 327.052C116.12 324.052 116.92 321.452 120.42 321.452C123.92 321.452 124.72 324.152 124.62 327.152C124.32 329.052 124.42 331.052 124.42 333.652Z" fill="#253B5C"/>
<path d="M447.12 346.553C450.42 342.653 453.02 338.853 456.32 335.753C457.72 334.453 460.52 334.753 462.72 334.253C462.72 336.453 463.62 339.253 462.62 340.853C459.72 345.353 456.12 349.353 452.52 353.753C456.02 357.953 459.22 361.953 462.52 365.953C464.42 368.353 465.32 371.253 462.42 372.853C460.92 373.653 457.62 372.653 456.12 371.353C452.92 368.453 450.42 364.853 447.12 360.853C444.12 364.353 441.32 367.553 438.62 370.853C436.62 373.253 434.52 375.253 431.42 372.853C428.42 370.353 430.02 367.853 431.92 365.453C434.92 361.453 440.12 357.553 440.22 353.453C440.32 349.653 435.02 345.753 432.02 341.853C430.22 339.453 428.32 336.953 431.32 334.453C434.52 331.753 436.82 334.053 438.82 336.553C441.42 339.753 444.02 342.853 447.12 346.553Z" fill="#253B5C"/>
<path d="M73.9204 354.352C73.9204 356.352 74.0204 358.352 73.9204 360.352C73.2204 368.052 67.2204 373.752 59.6204 374.052C52.0204 374.352 45.2204 369.252 44.3204 361.652C43.7204 356.552 43.7204 351.252 44.2204 346.152C45.1204 338.352 52.1204 332.952 59.8204 333.452C67.3204 333.852 73.3204 339.752 73.9204 347.352C74.1204 349.652 74.0204 351.952 73.9204 354.352ZM52.5204 353.752C52.5204 355.752 52.3204 357.752 52.6204 359.752C53.1204 363.452 55.4204 365.452 59.0204 365.552C62.7204 365.552 65.2204 363.652 65.5204 359.952C65.8204 355.752 65.9204 351.552 65.5204 347.452C65.1204 343.852 62.5204 341.752 58.9204 341.852C55.3204 341.952 53.0204 344.052 52.6204 347.752C52.3204 349.752 52.5204 351.752 52.5204 353.752Z" fill="#253B5C"/>
<path d="M287.52 358.352C287.52 354.852 287.32 351.252 287.52 347.752C288.02 339.552 294.42 333.452 302.22 333.352C310.12 333.252 316.82 339.052 317.32 347.252C317.72 354.452 317.72 361.752 317.32 368.952C317.22 370.752 314.72 373.452 313.02 373.752C309.82 374.252 309.12 371.452 309.12 368.652C309.12 362.452 309.22 356.252 309.12 349.952C309.02 344.752 306.32 341.652 302.22 341.852C298.32 342.052 296.02 344.952 295.92 349.952C295.82 356.052 295.92 362.052 295.92 368.152C295.92 371.052 295.32 373.852 291.82 373.952C287.92 374.052 287.42 371.052 287.42 367.952C287.52 364.752 287.52 361.552 287.52 358.352Z" fill="#253B5C"/>
<path d="M109.72 349.752C109.72 353.152 109.82 356.452 109.72 359.852C109.32 367.752 103.22 373.752 95.4204 374.052C87.3204 374.352 80.5204 368.752 80.0204 360.552C79.5204 353.152 79.6204 345.752 80.0204 338.352C80.1204 336.652 82.5204 335.052 83.8204 333.452C85.3204 335.152 87.9204 336.652 88.0204 338.452C88.5204 344.752 88.2204 351.252 88.2204 357.652C88.2204 362.652 90.7204 365.552 94.6204 365.652C98.7204 365.752 101.32 362.652 101.42 357.452C101.52 351.252 101.42 345.052 101.42 338.752C101.42 335.952 102.22 333.552 105.52 333.552C108.72 333.552 109.72 335.752 109.72 338.652C109.72 342.352 109.72 346.052 109.72 349.752Z" fill="#253B5C"/>
<path d="M423.22 353.852C423.22 358.852 423.22 363.952 423.22 368.952C423.22 371.852 421.92 374.452 418.92 373.752C417.22 373.352 415.02 370.552 414.92 368.752C414.52 358.752 414.72 348.652 414.72 338.552C414.72 335.652 415.92 333.052 418.92 333.652C420.62 334.052 422.72 336.852 422.92 338.752C423.62 343.752 423.22 348.752 423.22 353.852Z" fill="#253B5C"/>
<path d="M425.32 325.753C422.32 328.153 420.62 329.553 418.92 330.953C417.52 329.153 415.42 327.653 414.92 325.653C414.22 322.953 415.82 320.253 418.92 320.753C420.82 320.953 422.42 323.253 425.32 325.753Z" fill="#253B5C"/>
</svg>
