<?xml version="1.0" encoding="utf-8"?>
<!-- Generator: Adobe Illustrator 23.0.0, SVG Export Plug-In . SVG Version: 6.00 Build 0)  -->
<svg version="1.1" id="Layer_1" xmlns="http://www.w3.org/2000/svg" xmlns:xlink="http://www.w3.org/1999/xlink" x="0px" y="0px"
	 viewBox="0 0 644.6 386.9" style="enable-background:new 0 0 644.6 386.9;" xml:space="preserve">
<g>
	<path d="M489,105.1c11.3-8.7,21.8-16.7,32.5-24.9c-8.2-17.9-16.3-35.5-24.4-53c-4.5-9.7-0.8-20.4,8.4-24.8
		c9.2-4.3,20.1-0.2,24.6,9.1c7.1,14.8,14.2,29.7,21.6,44.9c1.3-0.8,2.5-1.3,3.5-2.1c12.3-9.2,24.5-18.4,36.8-27.5
		c8.2-6.1,19.7-4.7,25.7,3c6.4,8.2,5,19.4-3.5,26c-14.2,11-28.6,21.9-42.9,32.8c-1.3,1-2.6,2-4.3,3.3c6.3,13.3,12.5,26.5,18.8,39.6
		c2.1,4.4,4.3,8.8,6.3,13.2c4.4,9.8,0.6,20.1-8.8,24.7c-9,4.4-19.3,0.6-24.1-9.1c-6.5-13.3-12.9-26.6-19.3-40c-0.7-1.5-1.5-3-2.5-5
		c-3.2,2.3-6.1,4.5-9,6.6c-9.6,7.1-19.2,14.2-28.9,21.2c-0.9,0.7-1.8,1.8-2.9,2c-8.3,2-7.8,8.1-7.8,14.7c0,15.5,0.8,31.1-1.4,46.3
		c-7.5,51.4-52.4,90.1-104.4,90.8c-29.1,0.4-58.2,0.2-87.3,0.1c-14.3-0.1-24.6-10.2-24.6-24.5c-0.1-82.1-0.1-164.2,0-246.3
		c0-14.1,10.1-24.4,24.1-24.5c29.4-0.2,58.9-0.5,88.3,0.1C438.1,3,485,46.4,488.5,101.7C488.5,102.5,488.7,103.2,489,105.1z
		 M319.5,248.6c2.2,0,3.9,0,5.6,0c18,0,36,0,54,0c35.5-0.1,61.2-25.7,61.2-61.1c0-25.1-0.5-50.1,0.1-75.2
		c0.9-37.4-29.3-62.6-62.1-62.1c-18,0.3-36,0-54,0.1c-1.6,0-3.2,0.2-4.8,0.3C319.5,116.7,319.5,182.3,319.5,248.6z M488.7,143
		c0.5,0.3,1,0.6,1.5,0.9c16.2-11.9,32.4-23.8,48.8-35.9c0.9,1.7,1.6,3,2.3,4.4c7.1,14.8,14.2,29.7,21.4,44.5
		c4.1,8.5,11.3,11.7,18.3,8.2c7.6-3.7,9.9-11.3,6-19.7c-3.1-6.5-6.2-13-9.3-19.6c-5.6-11.8-11.2-23.6-16.8-35.5
		c1.1-0.9,1.8-1.5,2.6-2.1c15.7-11.9,31.3-23.8,47-35.7c6.8-5.2,8.2-13.2,3.5-19.5c-4.7-6.1-12.9-7-19.6-2
		c-7.6,5.6-15.1,11.3-22.6,16.9c-7.1,5.3-14.2,10.6-21.5,16.1c-1-2-1.8-3.4-2.5-4.9c-7.3-15.1-14.6-30.3-21.8-45.5
		c-3.4-7-11.4-10.1-18.1-7c-6.9,3.2-9.5,10.7-6.3,17.9c6.7,14.7,13.3,29.4,20,44.1c2,4.4,4,8.8,5.9,13.1c-12,9.2-23.7,18.1-35.2,27
		c-1.4,1.1-3.3,2.7-3.3,4C488.6,122.9,488.7,132.9,488.7,143z"/>
	<path d="M242.8,70.6c-0.6,18,0.9,36.3-2.1,53.9c-7.7,44.5-33.8,74.1-77.2,87.7c-4.5,1.4-6.1,3-6,7.8c0.3,18,0.3,36,0.1,54
		c-0.2,14.5-10.1,24.8-23.6,24.9c-13.6,0.2-24.4-9.6-24.7-23.4c-0.4-16.5-0.1-33-0.2-49.5c0-11.6,0-11.6-11.2-15.3
		C54.7,196.5,24,154.2,23.9,108.8c-0.1-27.6,0-55.2,0-82.8c0-15.2,10-25.9,24.2-26c14.2-0.1,24.8,10.9,24.8,26.1
		c0,27.4-0.1,54.9,0,82.3c0.1,30.5,23.3,56,53.5,59.2c30.8,3.3,58.9-16.5,65.4-46.3c1-4.4,1.3-9,1.4-13.5c0.1-27.4,0-54.9,0.1-82.3
		c0-14.2,9.5-24.7,22.7-25.5c14.4-0.9,26,9.9,26.2,24.6c0.2,15.3,0,30.6,0,45.9C242.4,70.6,242.6,70.6,242.8,70.6z"/>
	<path d="M231,347c0-6.9,0.1-13.8,0-20.7c-0.1-4.2,1.7-6.2,6-6.1c4.7,0.1,9.4-0.1,14.1,0.1c11.3,0.5,19,8.5,19.2,19.9
		c0.1,4.7,0.1,9.4,0,14.1c-0.3,10.8-7.8,18.7-18.7,19.4c-4.9,0.3-9.8,0.1-14.6,0.1c-4.2,0.1-6.1-1.9-6.1-6.1
		C231.1,360.8,231,353.9,231,347z M239.7,365c1.9,0.1,3.4,0.3,4.9,0.3c2.5,0,5,0.1,7.5-0.2c5.6-0.7,9.4-4.8,9.7-10.4
		c0.2-5.2,0.2-10.4,0-15.6c-0.2-5.1-3.5-9.2-8.4-9.9c-4.4-0.6-8.9-0.1-13.6-0.1C239.7,341,239.7,352.7,239.7,365z"/>
	<path d="M407,337.2c5.4-4.2,11.1-5.4,17.1-2c6,3.4,7.5,9.1,7.4,15.5c-0.1,5.5,0,11.1,0,16.6c0,3.2-0.1,6.6-4.3,6.5
		c-4.3-0.1-4.1-3.6-4.1-6.7c0-6.1,0-12.1,0-18.2c0-4-1.5-7.2-6-7.1c-4.2,0.1-5.6,3.2-5.6,7c0,6.6,0.3,13.1-0.2,19.7
		c-0.1,1.9-2.2,4.8-3.8,5.2c-3.5,0.7-4.3-2.2-4.3-5.2c0-6.4,0-12.8,0-19.2c0-3.9-1.2-7.1-5.7-7.5c-3.7-0.3-5.8,2.6-5.9,7.7
		c-0.1,6.2,0,12.4,0,18.7c0,2.9-0.6,5.6-4.2,5.7c-3.6,0.1-4.2-2.6-4.2-5.6c0-6.2,0.1-12.4,0-18.7c-0.1-6.1,1.7-11.4,7.3-14.5
		C395.9,331.9,401.5,333,407,337.2z"/>
	<path d="M62.3,333.1c0,2.7,0.2,5.4,0,8.1c-0.6,6.8-3.8,12.6-10,15.2c-4.7,2-5.6,4.7-5.3,9.2c0.2,3.3,1.3,8.1-3.9,8.2
		c-5.8,0.2-4.6-4.9-4.3-8.3c0.3-4.6-0.7-7.2-5.4-9.1c-5.4-2.1-8.9-7-9.6-12.8c-0.8-6.5-0.7-13.1-0.4-19.6c0.1-1.4,2.7-3.8,4.2-3.7
		c1.4,0,3.8,2.4,4,3.9c0.6,4.5,0.2,9,0.2,13.6c0.1,7.8,4.6,12.7,11.3,12.6c6.5-0.1,10.8-5,10.9-12.5c0-4.2-0.4-8.5,0.2-12.6
		c0.3-1.9,2.3-4.7,4-5.1c3.4-0.7,4.4,2.2,4.4,5.2C62.4,328,62.4,330.6,62.3,333.1C62.4,333.1,62.3,333.1,62.3,333.1z"/>
	<path d="M182.7,334.3c1.7-0.3,2.8-0.6,4-0.8c9.2-1.5,17.2,4.9,17.5,14.2c0.2,6.9,0,13.8,0.1,20.7c0,3.1-0.9,5.5-4.4,5.4
		c-3.3-0.1-3.9-2.6-3.9-5.4c0-6.2,0-12.4,0-18.6c-0.1-5.2-2.7-8.2-6.9-8.1c-3.9,0.1-6.2,3-6.3,8.1c-0.1,6,0,12.1,0,18.1
		c0,3.1-0.6,6-4.5,5.8c-3.6-0.2-3.9-3-3.9-5.9c0-13.8,0-27.5,0-41.3c0-3.2,0.6-6.1,4.4-5.9c3.5,0.1,4.1,2.9,4,5.8
		C182.7,329,182.7,331.5,182.7,334.3z"/>
	<path d="M305.4,349.6c0,3.5,0.1,7.1,0,10.6c-0.2,5.4-2.6,9.9-7.5,12.4c-2.7,1.4-3.6,3.1-3.4,5.9c0.2,1.5,0.5,3.3-0.2,4.5
		c-0.8,1.6-2.4,3.7-3.8,3.7c-1.4,0.1-4.2-2.2-4.1-3.2c0.9-6.7-2.7-10.3-7.4-14.2c-2.3-1.9-3.4-6.2-3.6-9.5
		c-0.5-6.9-0.1-13.8-0.2-20.7c0-3,0.8-5.6,4.3-5.6c3.5,0,4.3,2.7,4.3,5.7c0,6.6-0.1,13.1,0,19.7c0.1,4.6,2.6,7.4,6.4,7.4
		c3.9,0,6.5-2.8,6.6-7.3c0.1-6.6,0.1-13.1,0-19.7c0-2.9,0.5-5.7,4.1-5.7c3.5,0,4.3,2.6,4.3,5.6C305.4,342.6,305.4,346.1,305.4,349.6
		C305.4,349.6,305.4,349.6,305.4,349.6z"/>
	<path d="M376.5,358c0,3.7,0.1,7.4,0,11.1c-0.2,3.5-1.9,5.1-5.7,4.3c-1.5-0.3-3.2-0.3-4.7,0.1c-10.6,2.6-19.2-4-19.4-15
		c-0.1-3.7-0.2-7.4,0.1-11.1c0.4-7.8,6.7-13.8,14.4-14.1c8-0.3,14.7,5.6,15.3,13.6C376.6,350.6,376.4,354.3,376.5,358
		C376.4,358,376.4,358,376.5,358z M368,353.8c0-1.8,0.1-3.7,0-5.5c-0.3-4-2.7-6.3-6.4-6.4c-3.9-0.1-6.2,2.4-6.5,6.3
		c-0.2,3.7-0.3,7.4,0,11c0.3,3.8,2.8,6.2,6.7,6.1c3.6-0.1,5.8-2.3,6.2-6C368.2,357.5,368,355.7,368,353.8z"/>
	<path d="M147.6,333.6c4.7,0,8.5,0,12.4,0c2.9,0,5.4,1.2,4.8,4.3c-0.3,1.6-2.9,3.7-4.6,3.9c-3.9,0.6-8,0.2-12.4,0.2
		c0,6.3-0.4,12,0.2,17.6c0.2,2,2.5,4.7,4.4,5.3c1.9,0.6,4.6-0.9,6.8-1.7c0.6-0.2,0.8-1.7,1.5-1.9c1.8-0.7,3.7-1.2,5.6-1.7
		c0.4,2,1.8,4.4,1.2,6.1c-2,5.6-8.9,9-15.3,8.2c-6.7-0.9-11.9-6.1-12.7-13.1c-0.4-3.3-0.2-6.7-0.2-10.1c0-7.9,0-15.8,0-23.7
		c0-3,0.8-5.6,4.3-5.6c3.5,0,4.3,2.7,4.2,5.7C147.5,329,147.6,331,147.6,333.6z"/>
	<path d="M470.3,346.5c3.3-3.9,5.9-7.7,9.2-10.8c1.4-1.3,4.2-1,6.4-1.5c0,2.2,0.9,5-0.1,6.6c-2.9,4.5-6.5,8.5-10.1,12.9
		c3.5,4.2,6.7,8.2,10,12.2c1.9,2.4,2.8,5.3-0.1,6.9c-1.5,0.8-4.8-0.2-6.3-1.5c-3.2-2.9-5.7-6.5-9-10.5c-3,3.5-5.8,6.7-8.5,10
		c-2,2.4-4.1,4.4-7.2,2c-3-2.5-1.4-5,0.5-7.4c3-4,8.2-7.9,8.3-12c0.1-3.8-5.2-7.7-8.2-11.6c-1.8-2.4-3.7-4.9-0.7-7.4
		c3.2-2.7,5.5-0.4,7.5,2.1C464.6,339.7,467.2,342.8,470.3,346.5z"/>
	<path d="M97.1,354.3c0,2,0.1,4,0,6c-0.7,7.7-6.7,13.4-14.3,13.7c-7.6,0.3-14.4-4.8-15.3-12.4c-0.6-5.1-0.6-10.4-0.1-15.5
		c0.9-7.8,7.9-13.2,15.6-12.7c7.5,0.4,13.5,6.3,14.1,13.9C97.3,349.6,97.2,351.9,97.1,354.3z M75.7,353.7
		C75.7,353.7,75.7,353.7,75.7,353.7c0,2-0.2,4,0.1,6c0.5,3.7,2.8,5.7,6.4,5.8c3.7,0,6.2-1.9,6.5-5.6c0.3-4.2,0.4-8.4,0-12.5
		c-0.4-3.6-3-5.7-6.6-5.6c-3.6,0.1-5.9,2.2-6.3,5.9C75.5,349.7,75.7,351.7,75.7,353.7z"/>
	<path d="M310.7,358.3c0-3.5-0.2-7.1,0-10.6c0.5-8.2,6.9-14.3,14.7-14.4c7.9-0.1,14.6,5.7,15.1,13.9c0.4,7.2,0.4,14.5,0,21.7
		c-0.1,1.8-2.6,4.5-4.3,4.8c-3.2,0.5-3.9-2.3-3.9-5.1c0-6.2,0.1-12.4,0-18.7c-0.1-5.2-2.8-8.3-6.9-8.1c-3.9,0.2-6.2,3.1-6.3,8.1
		c-0.1,6.1,0,12.1,0,18.2c0,2.9-0.6,5.7-4.1,5.8c-3.9,0.1-4.4-2.9-4.4-6C310.7,364.7,310.7,361.5,310.7,358.3
		C310.7,358.3,310.7,358.3,310.7,358.3z"/>
	<path d="M132.9,349.7c0,3.4,0.1,6.7,0,10.1c-0.4,7.9-6.5,13.9-14.3,14.2c-8.1,0.3-14.9-5.3-15.4-13.5c-0.5-7.4-0.4-14.8,0-22.2
		c0.1-1.7,2.5-3.3,3.8-4.9c1.5,1.7,4.1,3.2,4.2,5c0.5,6.3,0.2,12.8,0.2,19.2c0,5,2.5,7.9,6.4,8c4.1,0.1,6.7-3,6.8-8.2
		c0.1-6.2,0-12.4,0-18.7c0-2.8,0.8-5.2,4.1-5.2c3.2,0,4.2,2.2,4.2,5.1C132.9,342.3,132.9,346,132.9,349.7
		C132.9,349.7,132.9,349.7,132.9,349.7z"/>
	<path d="M446.4,353.8c0,5,0,10.1,0,15.1c0,2.9-1.3,5.5-4.3,4.8c-1.7-0.4-3.9-3.2-4-5c-0.4-10-0.2-20.1-0.2-30.2
		c0-2.9,1.2-5.5,4.2-4.9c1.7,0.4,3.8,3.2,4,5.1C446.8,343.7,446.4,348.7,446.4,353.8z"/>
	<path d="M448.5,325.7c-3,2.4-4.7,3.8-6.4,5.2c-1.4-1.8-3.5-3.3-4-5.3c-0.7-2.7,0.9-5.4,4-4.9C444,320.9,445.6,323.2,448.5,325.7z"
		/>
</g>
</svg>
