<svg width="64" height="46" viewBox="0 0 64 46" fill="none" xmlns="http://www.w3.org/2000/svg">
<path d="M14.1923 45.1768C6.3662 45.1768 0 38.8106 0 30.9844C0 23.4346 5.9248 17.2423 13.3691 16.8145C13.498 15.4229 13.4013 11.6348 9.7714 6.36526C9.497 5.96775 9.5468 5.43166 9.8876 5.09086C11.373 3.60546 12.291 2.66996 12.9335 2.01566C13.7744 1.16016 14.1582 0.769558 14.7197 0.259758C14.9101 0.0869598 15.1503 6.10352e-05 15.3916 6.10352e-05C15.6259 6.10352e-05 15.8593 0.0820541 16.0478 0.245155C22.373 5.74905 29.3994 17.1212 28.3828 31.0567C27.7871 39.2383 21.8193 45.1768 14.1923 45.1768ZM15.4013 2.36626C15.1289 2.63475 14.8183 2.95116 14.3603 3.41706C13.8037 3.98436 13.04 4.76176 11.8818 5.92386C16.2871 12.712 15.455 17.5469 15.0908 18.2403C14.9179 18.5694 14.5634 18.7911 14.1923 18.7911C7.4697 18.7911 2 24.2608 2 30.9844C2 37.7071 7.4697 43.1768 14.1923 43.1768C20.7412 43.1768 25.8701 38.0186 26.3886 30.9122C27.5312 15.2383 18.2158 5.06155 15.4013 2.36626Z" fill="#253B5C"/>
<path d="M63.8994 31.0567V31.0577C63.3017 39.2383 57.333 45.1768 49.708 45.1768C41.8818 45.1768 35.5146 38.8106 35.5146 30.9844C35.5146 23.4346 41.4404 17.2423 48.8857 16.8145C49.0146 15.4239 48.9169 11.6378 45.2861 6.36526C45.0117 5.96775 45.0615 5.43166 45.4023 5.09086C46.8818 3.61136 47.7978 2.67776 48.4404 2.02446C49.2851 1.16316 49.6709 0.770561 50.2353 0.258858C50.4257 0.0869598 50.6669 6.10352e-05 50.9072 6.10352e-05C51.1416 6.10352e-05 51.375 0.0820541 51.5634 0.246155C57.8886 5.75006 64.915 17.1221 63.8994 31.0567ZM50.9169 2.36626C50.6425 2.63676 50.3291 2.95506 49.8671 3.42576C49.3105 3.99226 48.5498 4.76756 47.3964 5.92386C51.8017 12.713 50.9707 17.5469 50.6074 18.2403C50.4345 18.5684 50.0791 18.7911 49.708 18.7911C42.9843 18.7911 37.5146 24.2608 37.5146 30.9844C37.5146 37.7071 42.9843 43.1768 49.708 43.1768C56.2558 43.1768 61.3857 38.0186 61.9052 30.9112V30.9122C63.0468 15.2403 53.7314 5.06155 50.9169 2.36626Z" fill="#253B5C"/>
</svg>
