<svg width="64" height="46" viewBox="0 0 64 46" fill="none" xmlns="http://www.w3.org/2000/svg">
<path d="M50.6292 28.7743C50.5003 30.1678 50.5989 33.9559 54.2278 39.2235C54.5023 39.621 54.4525 40.1571 54.1116 40.4979C52.6321 41.9774 51.7161 42.911 51.0736 43.5643C50.2288 44.4257 49.8431 44.8182 49.2786 45.33C48.9017 45.6688 48.3314 45.6747 47.9505 45.3426C41.6253 39.8387 34.5999 28.4657 35.6165 14.5321C36.2122 6.35046 42.18 0.411957 49.806 0.411957C57.6321 0.411957 63.9993 6.77816 63.9993 14.6044C63.9993 22.1542 58.0736 28.3456 50.6292 28.7743ZM49.806 2.41196C43.2571 2.41196 38.1292 7.57016 37.6107 14.6766C37.6107 14.6766 37.6107 14.6766 37.6107 14.6776C36.4671 30.3485 45.7825 40.5272 48.597 43.2225C48.8714 42.952 49.1849 42.6337 49.6468 42.163C50.2034 41.5966 50.9652 40.8212 52.1175 39.6649C47.7122 32.8778 48.5433 28.0419 48.9075 27.3485C49.0804 27.0194 49.4349 26.7977 49.806 26.7977C56.5296 26.7977 61.9993 21.328 61.9993 14.6044C61.9993 7.88166 56.5296 2.41196 49.806 2.41196Z" fill="#253B5C"/>
<path d="M15.1136 28.774C14.9837 30.1636 15.0794 33.9488 18.7122 39.2232C18.9857 39.6207 18.9368 40.1568 18.596 40.4976C17.1194 41.9742 16.2044 42.9068 15.5628 43.5601C14.7152 44.4234 14.3284 44.817 13.764 45.3297C13.387 45.6685 12.8167 45.6734 12.4359 45.3433C6.11074 39.8394 -0.915657 28.4683 0.0989423 14.5318V14.5308C0.696642 6.35022 6.66534 0.411716 14.2913 0.411716C22.1175 0.411716 28.4847 6.77792 28.4847 14.6041C28.4847 22.1548 22.5589 28.3472 15.1136 28.774ZM14.2913 2.41172C7.74354 2.41172 2.61264 7.56992 2.09314 14.6773V14.6763C0.952542 30.3511 10.2679 40.5279 13.0823 43.2222C13.3577 42.9517 13.6722 42.6314 14.1351 42.1597C14.6907 41.5933 15.4515 40.8189 16.6019 39.6646C12.1966 32.8765 13.0277 28.0416 13.3919 27.3492C13.5648 27.0201 13.9202 26.7974 14.2913 26.7974C21.015 26.7974 26.4847 21.3277 26.4847 14.6041C26.4847 7.88142 21.015 2.41172 14.2913 2.41172Z" fill="#253B5C"/>
</svg>
