<?xml version="1.0" encoding="utf-8"?>
<!-- Generator: Adobe Illustrator 23.0.0, SVG Export Plug-In . SVG Version: 6.00 Build 0)  -->
<svg version="1.1" id="Слой_1" xmlns="http://www.w3.org/2000/svg" xmlns:xlink="http://www.w3.org/1999/xlink" x="0px" y="0px"
	 viewBox="0 0 408.53 384.56" style="enable-background:new 0 0 408.53 384.56;" xml:space="preserve">
<style type="text/css">
	.st0{opacity:0.6;fill:#EBEFF5;}
	.st1{fill:url(#SVGID_1_);}
	.st2{fill:#EEA886;}
	.st3{fill:#EEA987;}
	.st4{fill:#74C4B8;}
	.st5{fill:#DB9C7C;}
	.st6{fill:#EDDAD3;}
	.st7{fill:#253B5C;}
	.st8{fill:#64DD17;}
	.st9{fill:#252E3B;}
	.st10{fill:#A77860;}
	.st11{fill:#E6B74C;}
	.st12{fill:#254380;}
	.st13{fill:#BBD070;}
	.st14{fill:#97A43C;}
	.st15{fill:#48753A;}
	.st16{fill:#797A7C;}
	.st17{fill:#8B8C8E;}
	.st18{fill:#6770B5;}
	.st19{fill:#3A3F47;}
	.st20{fill:#489E10;}
	.st21{fill:#C5C6CF;}
	.st22{fill:#E2E3ED;}
	.st23{fill:#2D325E;}
	.st24{fill:#FCCCA2;}
	.st25{fill:#163342;}
	.st26{fill:#6B5ADE;}
	.st27{fill:#EFAA88;}
	.st28{fill:#D6D6D6;}
	.st29{fill:#E8E8E8;}
	.st30{fill:#C2C2C2;}
	.st31{fill:#DAE8F5;}
	.st32{fill:#78C2FF;}
	.st33{fill:#1A598C;}
	.st34{fill:#2273B5;}
	.st35{fill:#4DA8F2;}
	.st36{fill:#6EB2EB;}
	.st37{fill:#91C7FF;}
	.st38{fill:#FFFFFF;}
	.st39{fill:#4391D1;}
	.st40{fill:#FFB855;}
	.st41{fill:#22253B;}
	.st42{fill:#2D314F;}
	.st43{fill:#2B3B57;}
	.st44{fill:#353A3D;}
	.st45{fill:#D4D8E8;}
	.st46{fill:#E55353;}
	.st47{fill:#FFCB55;}
	.st48{fill:#C98E72;}
	.st49{fill:#DE9D7D;}
	.st50{fill:#464240;}
	.st51{fill:#EB4747;}
	.st52{fill:#5E5853;}
	.st53{fill:#91887F;}
	.st54{fill:#6E6760;}
	.st55{fill:#807066;}
	.st56{fill:#C2BEBC;}
	.st57{fill:#616161;}
	.st58{fill:#E0CEC7;}
	.st59{fill:#1D2033;}
	.st60{fill:#CF8C6C;}
	.st61{fill:#292C47;}
	.st62{fill:#3D4169;}
	.st63{fill:#1D2133;}
	.st64{fill:#548AD1;}
	.st65{fill:#151624;}
	.st66{fill:#3F71D9;}
	.st67{fill:#88C0FF;}
</style>
<path class="st0" d="M352.98,333.16C270.25,454.52,84.18,316.6,0,363.02V0h270.43c0,0-58.6,64.03,26.73,124.14
	C373.93,178.23,402.14,261.05,352.98,333.16z"/>
<linearGradient id="SVGID_1_" gradientUnits="userSpaceOnUse" x1="0.065" y1="104.8931" x2="185.919" y2="104.8931">
	<stop  offset="0" style="stop-color:#FFFFFF"/>
	<stop  offset="1" style="stop-color:#EFEBFF"/>
</linearGradient>
<path class="st1" d="M142.83,0.07h-2.65c26.83,21.4,44.06,54.36,44.06,91.28c0,64.35-52.35,116.7-116.7,116.7
	c-25.12,0-48.41-7.98-67.48-21.54v2.05c19.16,13.34,42.42,21.16,67.48,21.16c65.27,0,118.37-53.1,118.37-118.38
	C185.92,54.64,169.13,21.79,142.83,0.07z"/>
<path class="st2" d="M381.76,275.2c0,0-0.06-0.74,0.18-0.99c0.24-0.26,0.43-0.71,0.48-0.86c0.07-0.2,0.51-0.73,0.26-0.81
	c-0.24-0.08-0.76,0.85-0.91,1.03c-0.15,0.18-0.3-0.79-0.47-0.93c-0.17-0.14-1.79,0.3-1.6,0.95c0.19,0.64,0.59,1.19,0.71,1.42
	c0.05,0.11,0.24,0.59,0.24,0.59L381.76,275.2z"/>
<g>
	<path class="st3" d="M389.87,311.19c0,0-2.31,5.03-3.12,6.03c-0.8,1-2.61,4.15-2.53,4.76c0.08,0.61,0.12,1.34,0.86,2.51
		c0.74,1.17,1.09,3.92,1.03,4.81c-0.06,0.89-0.59,6.09-0.49,6.52c0.1,0.43-1.4,0.53-1.39-0.05c0.01-0.89-0.89-6.59-1.35-8.23
		c-0.46-1.63-2.03-4.67-1.93-5.57c0.11-0.9,1.11-5.22,1.49-6.52c0.68-2.32,1.99-6.35,2.22-6.87
		C384.92,308,390.76,304.3,389.87,311.19z"/>
</g>
<g>
	<path class="st3" d="M392.33,306.4c0,0,1.79,2.14,1.18,4.55c-0.61,2.41-2.11,7.72-2.2,8.59c-0.09,0.87-0.64,2.24,0.05,2.21
		c0.94-0.04,2.04-0.22,3.97,0.21c1.27,0.28,3.08-0.05,4.38,0.03c0.52,0.03,0.49,1.02,0.04,1.39c-0.35,0.3-9.2,1.83-10.82,1.48
		c-0.7-0.15-1.04-1.01-1.25-3.63c-0.1-1.18,0.04-5.24-0.12-6.65c-0.17-1.41,0-3.59,0-3.59S385.07,304.77,392.33,306.4z"/>
</g>
<g>
	<path class="st4" d="M383.83,308.85c1.45,1.73,4.38,3.33,4.64,3.41c0.25,0.08,0.54,0.1,0.54,0.1c0.58-1.56,1.34-2.59,2.07-3.24
		c1.75-1.55,3.6-0.99,3.6-0.99c0-0.04-0.03-0.12-0.04-0.16c0,0,0,0,0,0c-0.12-0.68-0.69-1.47-0.75-1.55c0,0,0,0,0,0c0,0,0,0,0,0
		c-5.41,1.78-9.08,1.21-9.51,1.13c-0.03,0-0.04-0.01-0.04-0.01C384.18,307.87,383.83,308.85,383.83,308.85z"/>
</g>
<g>
	<g>
		<g>
			<path class="st2" d="M405.33,305.4c0,0,0.37,0.14,0.57,0.34c0.15,0.16,0.5,0.3,0.68,0.4c0.18,0.09,0.89,0.58,1.03,0.74
				c0.06,0.06,0.25,0.6,0.38,0.72c0.13,0.12,0.43,0.33,0.32,0.44c-0.11,0.11-0.43-0.01-0.43-0.01s0.11,0.12,0.05,0.24
				c-0.13,0.24-0.3,0.24-0.3,0.24s0.04,0.19-0.04,0.28c-0.18,0.19-0.34,0.19-0.34,0.19s-0.03,0.14-0.18,0.25
				c-0.19,0.13-0.39,0.03-0.39,0.03s-0.2,0.22-0.35,0.16c-0.15-0.06-0.23-0.18-0.34-0.25c-0.11-0.08-0.79-0.96-0.99-1.82
				c-0.2-0.85-1.05-1.26-1.05-1.26L405.33,305.4z"/>
		</g>
	</g>
</g>
<g>
	<g>
		<path class="st5" d="M407.83,307.92c0,0-0.61-0.8-0.95-0.81c-0.34-0.01-0.14,0.29-0.14,0.29s-0.2-0.3-0.46-0.17
			c-0.26,0.13,0,0.47,0,0.47s-0.21-0.19-0.42,0.03c-0.21,0.22,0.07,0.46,0.07,0.46s-0.45-0.1-0.39,0.27
			c0.1,0.62,0.76,0.96,0.76,0.96s0.17,0.07,0.35-0.16c0,0,0.4,0.19,0.57-0.28c0,0,0.5-0.07,0.39-0.47
			C407.6,308.51,408.14,308.4,407.83,307.92z"/>
	</g>
</g>
<path class="st6" d="M388.31,290.34c0,0-1.13-1.59-1.61-2.4c-0.57-0.95-1.52-3.88-1.68-4.73c-0.22-1.13-3.05-8.61-3.05-8.61
	l-1.69,1.05c0,0,2.04,6.73,2.26,7.35c0.32,0.92,1.22,4.32,1.46,5.09c0.19,0.62,0.79,2.15,1.01,3.04c0.2,0.81,0.85,2.81,0.85,2.81
	L388.31,290.34z"/>
<path class="st7" d="M381.5,319.03c0,0,1.18,1.45,9.73,1.45c0,0,5.11-10.18,3.27-13.13c-1.61-2.59-9.82-0.83-9.82-0.83
	S382.8,309.49,381.5,319.03z"/>
<g>
	<path class="st8" d="M390.39,289.85c0,0-1.39,0.45-1.86,0.48c-0.47,0.03-2.54,2.1-2.95,2.9c-0.42,0.8-0.27,2.1,0.18,3.66
		c0.45,1.56-0.22,1.98-0.12,3.49c0.1,1.52-0.05,4.68-0.21,5.49c-0.16,0.81,7.26,1.93,9.15,0.65c0,0-1.38-2.78-1.55-3.17
		c-0.17-0.39,0.27-2.36,0.53-2.84c0.27-0.49,2.17-4.39,2.17-4.39s1.52-3.47,0.63-4.36c-0.77-0.78-3.08-1.32-3.48-1.52
		C392.48,290.05,391.26,289.83,390.39,289.85z"/>
</g>
<g>
	<path class="st2" d="M394.12,281.21c-0.67-0.5-3.23-2.01-4.98,1.32c-1.75,3.33-0.58,6.45,1.42,6.34c2-0.11,3.87-2.21,4.55-4.04
		C395.8,283,394.97,281.84,394.12,281.21z"/>
</g>
<g>
	<path class="st9" d="M389.14,282.53c0,0,0.8-3.06,3.84-2.24c3.04,0.83,3.08,3.55,2.27,5.28c-0.81,1.73-2.35,2.29-2.35,2.29
		s0.56-1.42,0.1-1.99c-0.46-0.56-2.57-2.04-3.04-4.12C389.97,281.77,389.32,282.17,389.14,282.53z"/>
</g>
<g>
	<path class="st9" d="M392.99,283.38c0.02,1.33,0.98,2.39,2.14,2.37c1.16-0.02,2.08-1.11,2.06-2.44c-0.02-1.33-0.98-2.39-2.14-2.37
		C393.89,280.96,392.97,282.05,392.99,283.38z"/>
</g>
<g>
	<path class="st2" d="M389.96,288.25c0,0-0.05,2.44-0.21,3.22c0,0,1.19,1.54,3.13-1.22c0,0-0.5-1.31,0.21-2.91
		C393.8,285.74,389.96,288.25,389.96,288.25z"/>
</g>
<g>
	<polygon class="st2" points="389.75,291.47 389.59,292.72 391.31,291.75 	"/>
</g>
<g>
	<path class="st6" d="M393.11,290.34c0,0-2.21,2.56-2.45,3.78c-0.25,1.22-0.66,10.54-0.42,13.58c0.24,3.04,5.14,0.32,5.14,0.32
		s-2.38-5.26-0.72-9.01c1.66-3.75,2.64-6.25,2.64-6.25s-0.63-1.36-1.85-1.71C394.21,290.7,393.11,290.34,393.11,290.34z"/>
</g>
<g>
	<path class="st6" d="M385.4,293.58c0,0-0.52,1.6,0.5,4.19c0,0-0.48,3.06-0.65,4.09c-0.17,1.04-0.92,4.94-0.92,4.94l1.18,0.92
		c0.24,0.18,0.58,0.02,0.59-0.29c0.02-3.04,0.31-14.55,3.25-17.27l-1.06,0.17C388.3,290.32,385.76,292.08,385.4,293.58z"/>
</g>
<g>
	<path class="st2" d="M392.9,285.15c0.2-0.24,0.58-0.21,0.75,0.02c0.16,0.22,0.14,0.74-0.39,1.25
		C392.74,286.93,391.43,286.99,392.9,285.15z"/>
</g>
<g>
	<path class="st10" d="M389.94,288.79l-0.01,0.48c0,0,1.06,0.35,2.7-1.2C392.63,288.07,391.46,289.17,389.94,288.79z"/>
</g>
<path class="st11" d="M392.74,289.64c0,0-1.45,0.41-2.83-0.13l-0.21,0.69l-0.37,2.83c0,0,2.86-1.6,2.87-1.7
	c0.01-0.1,0.76-1.05,0.76-1.05L392.74,289.64z"/>
<g>
	<path class="st6" d="M395.6,291.11c0,0,0.44,0.1,1.2,0.91c0.75,0.8,1.12,1.99,1.32,2.42c0.2,0.43,2.63,4.61,2.78,4.7
		c0.14,0.09,1.3,1.61,2.23,2.89c1,1.37,2.72,3.71,2.72,3.71l-1.54,1.23c0,0-3.84-4.52-4.79-5.79c-1.01-1.35-4.63-5.3-4.63-5.3
		S392.65,292.19,395.6,291.11z"/>
</g>
<path class="st12" d="M382.97,338.78c1.72-1.51,1.26-3.05,1.26-3.05s0.69-0.25,1.25-0.11c0.56,0.14,0.86,1.48,0.64,1.9l-0.17,2.19
	l-0.28-0.02l0.09-1.17c-0.33,1.13-0.65,2.55-1.41,2.77c-1.03,0.3-2.66,0.12-2.85-0.23C381.31,340.72,382.97,338.78,382.97,338.78z"
	/>
<g>
	<path class="st2" d="M384.24,335.72c0,0-0.2,0.96-0.44,1.63c-0.25,0.67-1.39,2.16-1.36,2.35c0.03,0.19,1.3,0.47,1.86,0.02
		c0.56-0.45,1.08-1.83,1.19-2.68c0.12-0.85,0.12-1.37,0.12-1.37S384.91,335.11,384.24,335.72z"/>
</g>
<path class="st2" d="M398.91,323.57c0,0,1.06-0.25,1.47-0.14c0.42,0.1,2.79,0.18,3.16,0.54c0.37,0.35,1,1.13,1.2,1.03
	c0.2-0.09,1.05-0.67,0.25-1.85c-0.8-1.18-1.04-1.47-1.53-1.54s-2.09-0.6-2.3-0.91l1.47-1l-0.21-0.31c0,0-2.02,0.95-2.54,0.95
	c-0.51,0.01-1.64,1.14-1.76,2.1C398.02,323.4,398.91,323.57,398.91,323.57z"/>
<path class="st12" d="M403.55,323.97c0,0-0.74-1.41-1.56-1.65c-0.81-0.24-2.35-0.18-3.15-1.25c0,0,0.22-0.75,1.82-0.93
	c0,0,1.56-0.58,1.77-0.75l0.21,0.31l-1.47,1c0,0,1.26,0.75,2.64,0.9c0,0,1.94,1.97,1.55,2.88c0,0-0.18,0.48-0.59,0.62
	C404.36,325.23,403.55,323.97,403.55,323.97z"/>
<g>
	<g>
		<path class="st13" d="M308.19,164.04c0,0,33.55,20.61,13.98,70.66c-19.57,50.05-7.74,69.28-7.74,69.28S246.9,250.05,308.19,164.04
			z"/>
	</g>
</g>
<g>
	<g>
		<path class="st14" d="M363.46,156.7c0,0,33.95,34.71-4.47,88.7c-38.41,53.99-30.04,80.54-30.04,80.54S264.38,241.19,363.46,156.7z
			"/>
	</g>
</g>
<g>
	<g>
		<path class="st15" d="M317.14,310.33c-19.25,5.3-6.11-51.72,21.97-71.07c28.08-19.34,54.16-22.85,69.4-40.66
			C408.51,198.6,411.94,284.2,317.14,310.33z"/>
	</g>
</g>
<path class="st16" d="M228.87,180.7c-1.19-4.82-3.04-9.38-5.45-13.57l5.8-8.52l-7.83-8l-7.83-8l-8.64,5.61
	c-4.14-2.51-8.66-4.46-13.45-5.76l-1.92-10.12l-11.19-0.13l-11.19-0.13l-2.14,10.07c-4.82,1.19-9.38,3.04-13.57,5.45l-8.52-5.8
	l-8,7.83l-8,7.83l5.61,8.64c-2.51,4.14-4.46,8.66-5.76,13.45l-10.12,1.92l-0.13,11.19l-0.13,11.19l10.07,2.14
	c1.19,4.82,3.04,9.38,5.45,13.57l-5.8,8.52l7.83,8l7.83,8l8.64-5.61c4.14,2.51,8.66,4.46,13.45,5.76l1.92,10.12l11.19,0.13
	l11.19,0.13l2.14-10.07c4.82-1.19,9.38-3.04,13.57-5.45l8.52,5.8l8-7.83l8-7.83l-5.61-8.64c2.51-4.14,4.46-8.66,5.76-13.45
	l10.12-1.92l0.13-11.19l0.13-11.19L228.87,180.7z M177.36,220.8c-15.16-0.17-27.31-12.6-27.14-27.75
	c0.17-15.16,12.6-27.31,27.75-27.14c15.16,0.17,27.31,12.6,27.14,27.75C204.95,208.82,192.52,220.97,177.36,220.8z"/>
<path class="st17" d="M303.97,237.76c1.52-4.16,2.42-8.46,2.73-12.77l8.54-3.41l-1.8-9.83l-1.8-9.83l-9.2-0.16
	c-1.82-3.92-4.19-7.62-7.09-10.97l3.62-8.45l-8.23-5.67l-8.23-5.67l-6.61,6.39c-4.16-1.52-8.46-2.42-12.77-2.73l-3.41-8.54
	l-9.83,1.8l-9.83,1.8l-0.16,9.2c-3.92,1.82-7.62,4.19-10.97,7.09l-8.45-3.62l-5.67,8.22l-5.67,8.23l6.39,6.61
	c-1.52,4.16-2.42,8.46-2.73,12.77l-8.54,3.41l1.8,9.83l1.8,9.83l9.2,0.16c1.82,3.92,4.19,7.62,7.09,10.97l-3.62,8.45l8.23,5.67
	l8.23,5.67l6.61-6.39c4.16,1.52,8.46,2.42,12.77,2.73l3.41,8.54l9.83-1.8l9.83-1.8l0.16-9.2c3.92-1.82,7.62-4.19,10.97-7.09
	l8.45,3.62l5.67-8.23l5.67-8.23L303.97,237.76z M245.84,241.77c-11.14-7.68-13.94-22.94-6.26-34.08
	c7.68-11.14,22.94-13.94,34.08-6.26c11.14,7.68,13.94,22.94,6.26,34.08C272.24,246.65,256.98,249.45,245.84,241.77z"/>
<path class="st17" d="M114.29,197.08c0.89-2.44,1.42-4.97,1.6-7.5l5.02-2l-1.06-5.77l-1.06-5.77l-5.4-0.09
	c-1.07-2.3-2.46-4.48-4.16-6.44l2.13-4.96l-4.83-3.33l-4.83-3.33l-3.88,3.75c-2.44-0.89-4.97-1.42-7.5-1.6l-2-5.02l-5.77,1.06
	l-5.77,1.06l-0.09,5.4c-2.3,1.07-4.48,2.46-6.44,4.16l-4.96-2.13l-3.33,4.83l-3.33,4.83l3.75,3.88c-0.89,2.44-1.42,4.97-1.6,7.5
	l-5.02,2.01l1.06,5.77l1.06,5.77l5.4,0.09c1.07,2.3,2.46,4.48,4.16,6.44l-2.13,4.96l4.83,3.33l4.83,3.33l3.88-3.75
	c2.44,0.89,4.97,1.42,7.5,1.6l2,5.02l5.77-1.06l5.77-1.06l0.09-5.4c2.3-1.07,4.48-2.46,6.44-4.16l4.96,2.13l3.33-4.83l3.33-4.83
	L114.29,197.08z M80.15,199.44c-6.54-4.51-8.19-13.48-3.68-20.02c4.51-6.54,13.48-8.19,20.02-3.68c6.54,4.51,8.19,13.48,3.67,20.02
	C95.65,202.3,86.69,203.95,80.15,199.44z"/>
<path class="st18" d="M116.41,277.63h70.36c-0.13-0.82-0.24-2.11-0.35-3.33c-0.68-7.33-1.11-12.2-1.11-12.2s-57.69-28.6-64.02-9.8
	c-2.03,6.04-3.47,13.58-4.46,21.99C116.68,275.56,116.54,276.85,116.41,277.63z"/>
<path class="st8" d="M175.95,180.41c0,0,3.22,19.14,5.81,31.78c0,0,0,0,0,0c1.05,5.13,2,9.18,2.59,10.46
	c0.74,1.61,6.78,8.09,14.17,15.71c12.97,13.35,30.11,30.17,30.11,30.17l6.7-12.72c0,0-15.22-17.85-25.54-29.76
	c-4.78-5.51-8.5-9.75-9.19-10.36c-2.16-1.93-4.66-20.95-8.18-36.62c-3.52-15.67-10.58-24.33-10.58-24.33L175.95,180.41z"/>
<path class="st2" d="M198.53,238.36c12.97,13.35,30.11,30.17,30.11,30.17l6.7-12.72c0,0-15.22-17.85-25.54-29.76
	C206.63,227.61,200.83,231.31,198.53,238.36z"/>
<path class="st8" d="M117.59,266.05c-0.48,1.7,65.15,2.4,65.15,2.4s-2.79-20.47-4.38-25.24c-1.59-4.77,4.52-33.28,5.54-42.59
	c0.82-7.45,2.87-40.79-2.04-45.88c-5.13-5.32-23.62-10.9-23.62-10.9l-26.95,1c0,0-4.45,0.93-7.63,2.41
	c-3.18,1.48-21.36,7.95-24.31,17.04c-2.95,9.08,18.14,38.29,18.14,38.29s0.04,1.31,0.1,3.46c0,0,0,0,0,0
	c0.08,2.87,0.2,7.23,0.31,11.96c0.14,6.12,0.26,12.87,0.26,17.79C118.17,247.38,118.07,264.35,117.59,266.05z"/>
<path class="st2" d="M150.84,85.29c0,0,23.39-5.28,18.05,24.17c-5.34,29.44-10.97,31.76-25.09,25.66
	c-14.11-6.09-12.85-24.96-13.56-34.21C129.53,91.66,143.38,85.61,150.84,85.29z"/>
<path class="st2" d="M157.03,151.4c0,0-10.36,10.98-26.74,1c0,0,3.66-23.8,1.73-35.4c-1.93-11.59,21.36,17.97,21.36,17.97
	c-0.31,0.16-0.51,1.27-0.56,2.84c-0.04,1.33,0.03,3,0.24,4.72C153.56,146.38,154.76,150.45,157.03,151.4z"/>
<path class="st2" d="M138.29,105.55c-0.31-2.6-5.44-3.55-5.86,0.34c-0.41,3.89,2.33,10.73,4.28,10.06
	C138.67,115.28,138.72,109.13,138.29,105.55z"/>
<path class="st19" d="M131.38,116.02c0,0,0.6-9.28,3.99-9.57c3.39-0.29,3.91,3.45,3.91,3.45l3.42,0.65c0,0-1.08-8.13,2.3-9.55
	c3.38-1.42,21.92,4.48,24.64,2.09c2.72-2.39,1.44-18.88-3.47-21.14c-4.91-2.26-18.48-7.31-28.41-0.59c0,0-7.75-0.88-8.9,5.37
	C127.71,92.98,129.28,111.37,131.38,116.02z"/>
<path class="st10" d="M153.08,142.53c-16.89-5.21-18.16-15.38-18.18-15.54c5.56,9.56,17.94,10.82,17.94,10.82
	C152.8,139.14,152.87,140.81,153.08,142.53z"/>
<path class="st2" d="M123.38,147.38c0,0,12.37,24.63,32.36,23.04c19.99-1.59,3.41-26.34,2.5-26.57
	C157.24,143.59,137.74,138.73,123.38,147.38z"/>
<path class="st8" d="M96.23,239.46c0.91,1.06,12.95,5.9,26.55,11.14l0,0c18.58,7.16,39.54,13.93,39.54,13.93l4.77-10.23
	c0,0-21.95-11.93-36.78-20.29c-7-3.95-12.42-7.11-13.19-7.84c-2.38-2.27-3-5.91-1.25-12.26c1.75-6.35,5.79-35.54,6.25-38.95
	c0.45-3.41-1.14-12.49-9.65-12.95c-8.52-0.45-12.85,1.95-12.85,1.95s-2.14,0.89-3.73,21.56C94.3,206.19,94.07,236.96,96.23,239.46z"
	/>
<path class="st20" d="M117.59,206.04C117.59,206.05,117.59,206.05,117.59,206.04c0.08,2.87,0.2,7.23,0.31,11.96
	c8.31-20.38,3.51-36.63,3.43-36.91C122.23,186.62,117.65,205.77,117.59,206.04z"/>
<path class="st20" d="M181.76,212.19C181.76,212.19,181.76,212.19,181.76,212.19c1.05,5.13,2,9.19,2.59,10.46
	c2.84-13.74,0.28-31.33,0.28-31.33C184.25,199.72,181.76,212.19,181.76,212.19z"/>
<path class="st2" d="M122.78,250.6L122.78,250.6c18.58,7.16,44.78,13.14,44.78,13.14l3.71-8.93c0,0-26.13-12.44-40.96-20.8
	C130.31,234.01,124.92,236.64,122.78,250.6z"/>
<path class="st2" d="M171.28,254.81c0,0,5.44-0.85,9.2-1.72c2.91-0.68,10.14,0.26,11.98,2.12c1.84,1.87,7.7,14.87,8.81,15.66
	c1.11,0.79-0.57,2.63-2.51,1.71c0,0-1.47,2.57-5.88,0.44c-4.41-2.13-7.71-3.66-10.02-4.48c-2.31-0.82-15.75-4.95-15.75-4.95
	S167.81,253.42,171.28,254.81z"/>
<path class="st2" d="M190.51,256.31c0,0,3.49,1.69,4.4,2.44c0.91,0.75,4.61,3.52,5.5,4.17c0.9,0.65-1.35,2.5-7.96-0.36
	C185.86,259.7,190.51,256.31,190.51,256.31z"/>
<polygon class="st12" points="190.82,218.09 184.73,274.69 264.85,274.69 270.94,218.09 "/>
<rect x="178.36" y="269.6" transform="matrix(-1 -1.224647e-16 1.224647e-16 -1 370.0968 544.2832)" class="st12" width="13.38" height="5.09"/>
<polygon class="st21" points="102.75,121.42 79.36,119.64 79.06,133.32 100.13,133.57 "/>
<polygon class="st22" points="101.75,120.14 79.36,119.64 79.06,133.32 100.13,133.57 "/>
<g>
	<path class="st3" d="M102.29,104.21c0,0-0.54,0.58-0.75,0.32c-0.21-0.26-0.44-0.63-0.44-0.63L102.29,104.21z"/>
	<path class="st3" d="M103.41,98.62l-0.72,3.18c0.21-0.26,0.59-0.67,0.71-0.54c0.17,0.18-0.41,1.04-0.52,1.41
		c-0.09,0.34-0.22,0.88-0.37,1.19l-0.26,0.52l-1.14-0.48c0,0,0.08-2.27,0.13-2.78c0.08-0.83,1.7-2.61,1.86-2.63
		C103.38,98.46,103.41,98.62,103.41,98.62z"/>
</g>
<path class="st23" d="M80.15,154c0,0-0.33,0.77-0.61,1.08c-0.28,0.3-1.32,0.84-1.34,1.76c-0.02,0.99,1.75,0.74,2.43,0.71
	c0.69-0.03,0.75-0.56,1.04-1.11c0.3-0.56,0.59-0.46,0.65-0.91c0.06-0.45-0.21-1.47-0.21-1.47L80.15,154z"/>
<g>
	<path class="st23" d="M95.46,159c0,0,0.95,1.02,1.92,1.24c0.97,0.22,1.65,0.5,1.65,1.08c0,0.58-2.81,0.92-3.92,0.33
		c-1.65-0.89-1.82-0.63-2-1.07c-0.18-0.44,0.24-1.59,0.23-1.73C93.32,158.68,95.46,159,95.46,159z"/>
</g>
<path class="st7" d="M93.25,129.9c0,0,0.92,7.33,1.3,9.8c0.45,2.9,0.58,5.29,0.7,6.79c0.15,1.88,0.35,11.78,0.46,12.33
	c0.11,0.55-2.64,0.25-2.64,0.25s-1.84-12.86-2.32-14.87c-0.45-1.87-1.64-9.58-2.07-9.08c-0.43,0.5-5.55,6.07-5.88,7.53
	c-0.33,1.47-0.56,11.36-0.56,11.36s-1.96,0.93-2.53,0.47c0,0-1.19-8.68-0.96-11.44c0.09-1.05,3.2-9.88,5.03-14.51
	C84.75,126.09,93.25,129.9,93.25,129.9z"/>
<path class="st24" d="M90.5,112.33c0,0,2.66,0.58,2.97,0.87c0.34,0.3,0.91,3.23,0.94,4.04c0.03,0.81-0.37,4.21-0.73,5.46
	c-0.36,1.26-0.36,7.86-0.22,8.9c0,0-5.36,0.98-10.62,0.23c0,0,0.98-5.72,0.79-7.46c-0.24-2.22-0.83-7.34-0.83-7.34
	s0.75-3.43,1.22-3.83c0.47-0.39,3.75-1,3.75-1L90.5,112.33z"/>
<path class="st2" d="M89.5,104.07c0,0,3.22-1.15,2.97,3.11c-0.25,4.26-1.01,4.68-3.11,4.06c-2.1-0.62-2.25-3.31-2.5-4.61
	C86.6,105.34,88.45,104.25,89.5,104.07z"/>
<path class="st2" d="M91.02,113.01c0,0-1.68,1.33-3.26-0.8c0,0,0.09-1.71-0.38-3.32c-0.47-1.61,3.33,2.18,3.33,2.18
	c-0.04,0.03-0.05,0.19-0.03,0.41c0.02,0.19,0.06,0.42,0.12,0.66C90.93,112.67,90.9,112.57,91.02,113.01z"/>
<path class="st25" d="M87.28,108.75c0,0,0-1.14,0.48-1.24c0.47-0.1,0.71,0.56,0.71,0.56l0.38-0.02c0,0-0.33-1.16,0.13-1.42
	c0.45-0.26,3.15,0.01,3.49-0.38c0.34-0.38-0.12-2.7-0.85-2.93c-0.73-0.24-2.74-0.72-4.03,0.4c0,0-1.14-0.01-1.16,1.37
	C86.42,106.01,86.9,108.13,87.28,108.75z"/>
<path class="st10" d="M90.8,112.13c-2.48-0.45-2.83-1.86-2.84-1.89c0.95,1.26,2.72,1.22,2.72,1.22
	C90.7,111.66,90.74,111.89,90.8,112.13z"/>
<path class="st2" d="M88.3,107.04c-0.14-0.38-0.94-0.34-0.86,0.26c0.08,0.6,0.72,1.52,0.99,1.35
	C88.69,108.48,88.49,107.56,88.3,107.04z"/>
<path class="st2" d="M86.9,112.38c0,0,1.47,3.05,3.68,2.84c2.21-0.22,0.96-2.35,0.75-2.69C91.33,112.52,90.01,111.65,86.9,112.38z"
	/>
<g>
	<path class="st24" d="M100.89,110.09c0.64-1.21,2.07-5.89,2.07-5.89l-1.94-0.43c0,0-1.06,2.35-1.57,3.98
		c-0.25,0.79-0.58,1.57-0.65,1.7c-0.07,0.13-3.41,2.59-3.78,2.77c-0.36,0.18-1.75,0.64-2.43,1.31c-0.67,0.66-0.36,1.59-0.36,1.59
		c1.38,1.83,4.01-0.49,4.01-0.49S99.99,111.79,100.89,110.09z"/>
</g>
<path class="st24" d="M97.6,113.53c0,0-3.11,3.31-3.23,4.55c-0.09,0.88-0.6-2.67-0.6-2.67L97.6,113.53z"/>
<rect x="77.25" y="118.97" transform="matrix(0.9999 0.012 -0.012 0.9999 1.5198 -1.055)" class="st26" width="22.97" height="14.47"/>
<path class="st27" d="M80.73,134.07c0,0-0.11-0.27-0.09-0.41c0,0,0.04-0.25,0.06-0.43c0-0.06,0.01-0.11,0.01-0.14
	c0-0.14-0.06-0.43,0.02-0.76c0.08-0.33,0.47-1.47,0.47-1.47l1.03,0.17l0.9-0.11c0,0,0.65,1.96,0.61,2.27c0,0.03-0.01,0.06-0.02,0.09
	c-0.06,0.26-0.21,0.44-0.26,0.57c-0.02,0.05-0.22,0.53-0.37,0.58c-0.21,0.06-0.38,0.02-0.49-0.08c0,0-0.41,0.1-0.67-0.02
	c0,0-0.38,0.11-0.66-0.14C81.26,134.2,80.86,134.26,80.73,134.07z"/>
<path class="st24" d="M85.49,113.15c0.35,0.14,0.71,0.99,0.41,2.64c-0.32,1.77-0.91,2.53-1.15,2.94c-0.24,0.41-1.73,3.17-1.73,3.58
	c0,1.07-0.06,3.89-0.03,4.1c0.05,0.37,0.24,4.62,0.24,4.62l-2.26,0.52c0,0-0.39-4.79-0.57-6.24c-0.07-0.58-0.23-2.18-0.01-3.76
	c0.21-1.53,1.36-4.9,1.51-5.17C82.05,116.11,83.19,112.22,85.49,113.15z"/>
<g>
	<g>
		<polygon class="st28" points="52.49,170.9 41.36,153.01 47.1,155.7 		"/>
	</g>
</g>
<g>
	<g>
		<polygon class="st29" points="52.49,170.9 51.93,160.2 47.84,157.79 		"/>
	</g>
</g>
<g>
	<g>
		<polygon class="st30" points="43.92,157.12 42.48,158.97 52.49,170.9 		"/>
	</g>
</g>
<path class="st31" d="M108.17,206.4v48.18c0,3.18-2.58,5.77-5.77,5.77H30.76c-3.18,0-5.77-2.58-5.77-5.77V206.4
	c0-3.18,2.58-5.76,5.77-5.76h71.64C105.59,200.64,108.17,203.22,108.17,206.4z"/>
<g>
	<path class="st32" d="M63.57,215.71c-2.55-7.14-9.38-11.53-16.57-11.31c-1.74,0.05-3.5,0.38-5.24,0.99
		c-5.24,1.88-9,6.05-10.54,10.98c-1.07,3.42-1.08,7.2,0.22,10.83c0.13,0.36,0.27,0.72,0.42,1.06c0.68,1.57,1.58,3,2.64,4.25
		c4.46,5.25,11.87,7.47,18.75,5.01C62.12,234.35,66.74,224.59,63.57,215.71z M51.81,233.5c-5.15,1.84-10.71,0.18-14.05-3.76
		c-0.8-0.94-1.47-2-1.98-3.18c-0.11-0.26-0.22-0.53-0.32-0.8c-0.97-2.72-0.97-5.56-0.17-8.12c1.16-3.7,3.97-6.83,7.9-8.23
		c1.3-0.46,2.62-0.71,3.92-0.75c5.39-0.16,10.51,3.13,12.43,8.48C61.93,223.8,58.46,231.13,51.81,233.5z"/>
</g>
<g>
	<path class="st33" d="M35.29,217.65l-4.08-1.27c1.54-4.93,5.3-9.1,10.54-10.98c1.73-0.62,3.49-0.94,5.24-0.99l0.13,4.27
		c-1.31,0.04-2.63,0.28-3.92,0.75C39.27,210.82,36.45,213.95,35.29,217.65z"/>
</g>
<g>
	<path class="st34" d="M35.78,226.57l-3.92,1.7c-0.15-0.35-0.29-0.7-0.42-1.06c-1.3-3.63-1.29-7.41-0.22-10.83l4.08,1.27
		c-0.8,2.56-0.81,5.4,0.17,8.12C35.56,226.04,35.66,226.3,35.78,226.57z"/>
</g>
<g>
	<path class="st35" d="M34.51,232.52c-1.06-1.25-1.96-2.67-2.64-4.25l3.92-1.7c0.51,1.18,1.18,2.25,1.98,3.18L34.51,232.52z"/>
</g>
<g>
	<path class="st36" d="M35.57,257.05c3.47,1.64,7.49,0.77,9.99-1.89c0.61-0.64,1.12-1.39,1.52-2.23c1.21-2.55,1.06-5.39-0.16-7.71
		c-0.84-1.61-2.19-2.97-3.96-3.8c-0.18-0.08-0.35-0.16-0.53-0.23c-0.81-0.32-1.64-0.51-2.47-0.57c-3.48-0.28-6.93,1.58-8.51,4.92
		C29.41,249.85,31.25,255.01,35.57,257.05z M33.41,246.46c1.19-2.51,3.77-3.9,6.38-3.69c0.62,0.05,1.25,0.19,1.85,0.43
		c0.13,0.05,0.27,0.11,0.4,0.17c1.33,0.63,2.34,1.64,2.97,2.85c0.91,1.74,1.02,3.87,0.12,5.78c-0.3,0.63-0.69,1.19-1.14,1.67
		c-1.88,1.99-4.89,2.65-7.49,1.41C33.26,253.56,31.88,249.7,33.41,246.46z"/>
</g>
<g>
	<path class="st33" d="M45.01,246.23l1.92-1c1.21,2.32,1.36,5.16,0.16,7.71c-0.4,0.84-0.91,1.59-1.52,2.23l-1.58-1.48
		c0.45-0.48,0.84-1.04,1.14-1.67C46.03,250.1,45.92,247.96,45.01,246.23z"/>
</g>
<g>
	<path class="st34" d="M41.64,243.2l0.79-2.01c0.18,0.07,0.36,0.15,0.53,0.23c1.77,0.84,3.12,2.19,3.96,3.8l-1.92,1
		c-0.63-1.21-1.64-2.22-2.97-2.85C41.91,243.31,41.77,243.25,41.64,243.2z"/>
</g>
<g>
	<path class="st35" d="M39.96,240.61c0.83,0.07,1.66,0.26,2.47,0.57l-0.79,2.01c-0.61-0.24-1.23-0.38-1.85-0.43L39.96,240.61z"/>
</g>
<path class="st37" d="M108.17,206.4v48.18c0,3.18-2.58,5.77-5.77,5.77H70.69v-59.71h31.72C105.59,200.64,108.17,203.22,108.17,206.4
	z"/>
<path class="st38" d="M102.6,209.87H76.25c-0.42,0-0.75-0.34-0.75-0.75v-1.53c0-0.42,0.34-0.75,0.75-0.75h26.35
	c0.42,0,0.75,0.34,0.75,0.75v1.53C103.35,209.53,103.01,209.87,102.6,209.87z"/>
<path class="st39" d="M102.6,216.38H76.25c-0.42,0-0.75-0.34-0.75-0.75v-1.53c0-0.41,0.34-0.75,0.75-0.75h26.35
	c0.42,0,0.75,0.34,0.75,0.75v1.53C103.35,216.04,103.01,216.38,102.6,216.38z"/>
<path class="st39" d="M100.82,255.12H78.03c-1.4,0-2.53-1.13-2.53-2.53v-29.25c0-1.4,1.13-2.53,2.53-2.53h22.79
	c1.4,0,2.53,1.13,2.53,2.53v29.25C103.35,253.98,102.22,255.12,100.82,255.12z"/>
<path class="st36" d="M62.11,245.67H51.86c-0.43,0-0.78-0.35-0.78-0.78v-1.58c0-0.43,0.35-0.78,0.78-0.78h10.25
	c0.43,0,0.78,0.35,0.78,0.78v1.58C62.9,245.32,62.55,245.67,62.11,245.67z"/>
<path class="st35" d="M62.11,250.81H51.86c-0.43,0-0.78-0.35-0.78-0.78v-1.58c0-0.43,0.35-0.78,0.78-0.78h10.25
	c0.43,0,0.78,0.35,0.78,0.78v1.58C62.9,250.46,62.55,250.81,62.11,250.81z"/>
<path class="st34" d="M62.11,255.95H51.86c-0.43,0-0.78-0.35-0.78-0.79v-1.58c0-0.43,0.35-0.79,0.78-0.79h10.25
	c0.43,0,0.78,0.35,0.78,0.79v1.58C62.9,255.6,62.55,255.95,62.11,255.95z"/>
<rect x="53.8" y="274.57" class="st40" width="217.76" height="3.45"/>
<g>
	<g>
		<path class="st2" d="M87.93,229.76c0,0-0.51-0.9,0.3-3.3c0.79-2.32,3.5-2.11,4.37-0.62c0.86,1.49,0.57,2.41-0.7,4.09
			C90.63,231.61,88.46,230.53,87.93,229.76z"/>
	</g>
</g>
<g>
	<g>
		<path class="st2" d="M94.24,271.05c0,0,0.13,0.99,0.15,1.13c0.02,0.15,1.5-0.09,1.5-0.09l0.12-1.17
			C96.01,270.93,94.43,270.92,94.24,271.05z"/>
	</g>
</g>
<g>
	<g>
		<path class="st41" d="M94.38,272.06c0,0-0.47,0.59-0.92,0.85c-0.45,0.26-1.17,0.36-1.43,0.63c-0.19,0.19-0.71,1.03,1.18,1.01
			c1.88-0.02,2.79,0.12,2.99-0.2c0.2-0.32-0.29-2.36-0.29-2.36S95.44,272.13,94.38,272.06z"/>
	</g>
</g>
<g>
	<g>
		<path class="st2" d="M84,271.05c0,0,0.13,0.99,0.15,1.13c0.02,0.15,1.5-0.09,1.5-0.09l0.12-1.17
			C85.77,270.93,84.19,270.92,84,271.05z"/>
	</g>
</g>
<g>
	<g>
		<path class="st41" d="M84.14,272.06c0,0-0.47,0.59-0.92,0.85c-0.45,0.26-2.12,0.47-2.39,0.74c-0.19,0.19-0.51,0.97,2.13,0.9
			c1.88-0.05,2.79,0.12,2.99-0.2c0.2-0.32-0.29-2.36-0.29-2.36S85.08,272.1,84.14,272.06z"/>
	</g>
</g>
<g>
	<g>
		<path class="st7" d="M93.75,246.51c0,0,0.76,2.36,0.66,4.39c-0.1,2.03,0.39,4.25,0.59,6.37c0.22,2.37,1.14,7.96,1.17,9.23
			c0.03,1.26-0.14,5.3-0.14,5.3l-1.84,0.04c0,0-1.54-9.79-1.94-10.79c-0.4-1-2.38-8.12-2.45-8.92
			C89.74,251.34,93.75,246.51,93.75,246.51z"/>
	</g>
</g>
<g>
	<g>
		<path class="st42" d="M86.13,246.26c0,0-1.12,6.23-1.25,7.47c-0.13,1.24-0.22,6.01-0.29,6.79c-0.07,0.78-0.44,10.16-0.8,11.32
			h2.05c0,0,2.1-6.82,2.1-10.05c0-3.23,1.39-7.02,2.29-9.15c0.9-2.13,2.96-2.18,3.51-6.13C93.75,246.51,86.88,245.01,86.13,246.26z"
			/>
	</g>
</g>
<g>
	<g>
		<path class="st2" d="M88.67,230.39c0,0,0.23,0.67,0,1.15c-0.23,0.48,2.95,0.19,2.95,0.19s-0.14-0.99,0.27-1.81
			C92.31,229.11,88.67,230.39,88.67,230.39z"/>
	</g>
</g>
<g>
	<g>
		<path class="st43" d="M93.89,247.02c0,0-1.14,1.17-7.87-0.18l0.1-0.58l7.64,0.29L93.89,247.02z"/>
	</g>
</g>
<g>
	<g>
		<path class="st2" d="M88.19,231.7c0,0-1.17,0.12-1.51,0.18c-0.34,0.06-2.6-0.4-3.06-0.45c-0.46-0.05-2.44-1.4-2.5-1.56
			c-0.06-0.16-1.2-3.04-1.27-3.67c-0.06-0.62-1.11-0.3-1.02,0.13c0.17,0.8,0.38,2.76,0.5,3.32c0.13,0.61,0.47,1.99,0.66,2.16
			c0.19,0.17,1.97,1.52,3.72,2.1c1.74,0.58,3.05,1.42,3.05,1.42h8.59c0,0,3.34-4.78,3.41-5.5c0.07-0.72-2.33-5.5-2.81-6.1
			c-0.48-0.6-1.17,0.2-1.17,0.2s1.44,4.22,1.63,4.82c0.19,0.6-1.67,3.23-2.18,3.24c-0.51,0.01-1.83-0.16-2.41-0.18
			c-0.58-0.02-1.2-0.28-1.2-0.28L88.19,231.7z"/>
	</g>
</g>
<g>
	<g>
		<path class="st8" d="M84.49,234.89c0,0,1.05,0.7,1.15,1.9c0.1,1.2,0.48,3.09,0.67,3.74c0.19,0.65-0.17,5.35-0.22,5.68
			c-0.05,0.34,6.65,1.13,7.68,0.34c0,0,0.29-4.39,0.41-5.64c0.12-1.25,0.7-4.27,0.89-4.68c0.19-0.41,2.52-3.67,2.61-4.1
			c0,0-1.2-1.92-2.07-1.94c0,0-1.37,1.61-1.82,1.68c-0.45,0.07-3.19-0.43-3.19-0.43c0,0-0.3,0.41-1.89-0.07c0,0-1.89,0.21-2.2,0.25
			c-0.37,0.05-2.97-0.33-2.97-0.33s-1.04,1.76-0.86,2.64L84.49,234.89z"/>
	</g>
</g>
<g>
	<g>
		<path class="st2" d="M79.91,226.58c0,0-0.23-1.11,0.05-1.43c0.16-0.18,0.55-0.66,0.58-0.73c0.04-0.07,0.45-0.31,0.45-0.42
			c0-0.11-0.41-0.26-0.76,0.07c-0.35,0.33-0.57,0.4-0.72,0.36c-0.14-0.04-0.34-1.21-0.36-1.5c-0.02-0.29-0.13-1.06-0.31-1.01
			c-0.18,0.05-0.17,0.39-0.17,0.39s-0.21-0.58-0.35-0.47c-0.14,0.11-0.12,0.4-0.12,0.4s-0.27-0.33-0.34-0.09
			c-0.07,0.24,0,0.45,0,0.45s-0.27-0.15-0.29,0.22s0.08,1.46,0.27,1.85c0.19,0.39,0.92,1.41,1.01,1.8
			C78.93,226.86,79.91,226.58,79.91,226.58z"/>
	</g>
</g>
<g>
	<g>
		<path class="st2" d="M95.01,224.62c0,0-0.8-1.34-1.07-1.46c-0.27-0.12-0.66-0.19-0.99-0.43c-0.34-0.24-0.78-0.44-0.76-0.52
			c0.02-0.08,0.42-0.05,0.84,0.14c0.42,0.18,0.61,0.1,0.65,0c0.04-0.1-0.23-0.77-0.35-0.93c-0.13-0.16-1.04-1.08-0.89-1.21
			c0.15-0.14,0.74,0.37,0.84,0.47c0,0-0.47-0.99-0.29-1.04c0.18-0.05,0.53,0.3,0.53,0.3s-0.04-0.85,0.87,0.53
			c0,0-0.19-0.46,0.09-0.3c0.28,0.15,0.55,1.01,0.64,1.44c0.09,0.43,0.49,1.81,0.83,2.14C96.29,224.07,95.01,224.62,95.01,224.62z"
			/>
	</g>
</g>
<g>
	<g>
		<path class="st44" d="M91.9,229.93c0,0-0.42,0.04-1.32-0.27c-0.9-0.31-0.96-1.88-1.16-1.69c-0.4,0.38-0.77,0.12-0.92-0.11
			c0,0,0.44-0.58,0.23-0.85c-0.2-0.28-0.53-0.48-0.53-0.48s0.63-3.04,3.5-1.65C95.07,226.5,91.9,229.93,91.9,229.93z"/>
	</g>
</g>
<g>
	<g>
		<path class="st45" d="M88.67,231.54l0.1-0.44c0,0,1.83-0.04,2.83,0.11l0.11,0.52C91.71,231.74,90.43,232.32,88.67,231.54z"/>
	</g>
</g>
<g>
	<g>
		<path class="st2" d="M89.13,227.58c0.17-0.28,0.78-0.46,0.85,0.32c0.06,0.61-1.1,1.27-1.11,0.7
			C88.86,228.04,89.02,227.77,89.13,227.58z"/>
	</g>
</g>
<g>
	<g>
		<path class="st46" d="M79.87,226.32c0,0-0.66,0.02-0.98,0.3c0,0-0.02,0.18,0.05,0.33c0,0,0.57-0.27,1.01-0.32
			C79.95,226.64,79.94,226.4,79.87,226.32z"/>
	</g>
</g>
<g>
	<g>
		<path class="st44" d="M79.09,226.49c-0.06,0.14,0.01,0.31,0.15,0.37c0.14,0.06,0.31-0.01,0.37-0.15c0.06-0.14-0.01-0.31-0.15-0.37
			C79.32,226.28,79.15,226.34,79.09,226.49z"/>
	</g>
</g>
<g>
	<g>
		<path class="st13" d="M281.62,262.1c0,0-18.65,15.26-11.15,28.8c7.5,13.53,12.31,2.53,12.31,2.53s5.6,2.16-1.71-14.38
			C277.63,271.25,281.62,262.1,281.62,262.1z"/>
	</g>
</g>
<g>
	<g>
		<path class="st14" d="M250.77,241.72c0,0-14.47,14.63,1.69,37.61c16.16,22.98,12.54,34.21,12.54,34.21
			S292.58,277.77,250.77,241.72z"/>
	</g>
</g>
<g>
	<g>
		<path class="st15" d="M270.05,306.95c8.15,2.29,2.71-21.91-9.15-30.18c-11.86-8.27-22.91-9.81-29.33-17.4
			C231.58,259.38,229.92,295.66,270.05,306.95z"/>
	</g>
</g>
<rect x="206.81" y="341.18" class="st40" width="197.52" height="3.45"/>
<g>
	<g>
		<path class="st47" d="M200.76,362.43c0,0-1.85,3.13-2.63,3.64c-1.06,0.69-0.4,1.4,0.11,1.4s3.07,0.18,3.64-0.46
			c0.57-0.64,0.85-2.57,1.37-3.07c0.53-0.5,1.07-2.5-0.26-2.99C201.82,360.52,200.76,362.43,200.76,362.43z"/>
	</g>
</g>
<g>
	<g>
		<path class="st48" d="M201.56,361.05c0,0-2.12,3.67-2.48,4.21c-0.37,0.54,0.69,0.54,1.34,0.28c0.65-0.26,2.29-2.89,2.53-3.37
			c0.28-0.57,0.05-1.23,0.05-1.23L201.56,361.05z"/>
	</g>
</g>
<g>
	<g>
		<polygon class="st47" points="203.71,363.03 203.22,366.79 202.96,366.8 203.04,364.09 		"/>
	</g>
</g>
<g>
	<g>
		<path class="st47" d="M219.09,362.43c0,0-1.85,3.13-2.63,3.64c-1.06,0.69-0.4,1.4,0.11,1.4c0.5,0,3.07,0.18,3.64-0.46
			c0.57-0.64,0.85-2.57,1.37-3.07c0.53-0.5,1.09-2.56-0.26-2.99C220.14,360.57,219.09,362.43,219.09,362.43z"/>
	</g>
</g>
<g>
	<g>
		<path class="st49" d="M219.78,361.06c0,0-2.01,3.66-2.37,4.2c-0.37,0.54,0.69,0.54,1.34,0.28c0.65-0.26,2.29-2.89,2.53-3.37
			c0.28-0.57,0.05-1.23,0.05-1.23L219.78,361.06z"/>
	</g>
</g>
<g>
	<g>
		<polygon class="st47" points="222.03,363.03 221.54,366.79 221.28,366.8 221.37,364.09 		"/>
	</g>
</g>
<g>
	<g>
		<path class="st2" d="M227.29,333.92l-16.72,7.62c0,0-1.87,0.61-2.08,2.68c-0.65,6.47-5.49,16.73-5.49,16.73
			c-1.55,0.76-1.43,0.1-1.43,0.1c0.98-3.14,2.17-16.09,2.59-21.29c0.09-1.1,0.15-1.86,0.16-2.1c0.01-0.16,0.19-0.38,0.5-0.63
			c2.29-1.86,11.74-5.71,11.74-5.71C223.64,331.14,227.29,333.92,227.29,333.92z"/>
	</g>
</g>
<g>
	<g>
		<path class="st2" d="M230.44,337.19c-0.52,4.52-6.97,4-6.97,4h-7.82c0,0,2.05,4.57,2.85,8.43c0.84,4.09,2.83,11.33,2.83,11.33
			s-0.13,0.25-1.54,0.11c0,0-6.14-12.24-8.49-15.31c-0.5-0.66-1.95-4.26-2.2-6.4c-0.08-0.72-0.03-1.28,0.24-1.5
			c0.27-0.23,0.89-0.66,1.73-1.18c2.45-1.54,6.7-3.92,9.07-4.46c3.17-0.71,8.2-2.05,8.2-2.05S230.96,332.67,230.44,337.19z"/>
	</g>
</g>
<path class="st50" d="M225.12,302.37c0,0,1.17-2.22,0.6-4.59c-0.57-2.37-2.77-4.72-5.98-3.64c-3.21,1.08-5.81,3.58-3.89,6.47
	c1.93,2.89-1.74,4.19-0.81,5.57c0.94,1.37,0.58,2.81,0.18,3.13c-0.4,0.32-1.67,1.46-1.53,2.81c0.14,1.35,6.24-3.93,6.24-3.93
	S223.25,301.51,225.12,302.37z"/>
<path class="st51" d="M215.32,330.78c0,0,0.48,2.35,12.97-0.62C228.29,330.16,224.1,328.77,215.32,330.78z"/>
<g>
	<path class="st8" d="M228.43,330.82c0.19,0.37,0.39,0.74,0.58,1.11c-4.57,0.13-9.13,0.27-13.7,0.4c0.72-2.42,0.49-5.69,0.36-8.18
		c-0.15-3.04-1.83-5.15-1.65-8.22c-0.9,0.15-1.06,0.17-1.96,0.31c1.38-3.94,1.86-5.89,6.16-7.41c1.4-0.49,2.32-0.59,3.83-0.47
		c4.98,0.41,6.48,0.47,8.92,4.98c-3.83,0.61-3.2,1.98-4.36,5.79c-0.57,1.86-1.16,3.93-0.85,5.89
		C226.06,326.94,228.43,329.06,228.43,330.82z"/>
</g>
<g>
	<path class="st2" d="M220.49,309.78c2.04-0.38,1.6-1.52,1.6-1.52s-0.09-0.64-0.13-1.45c-0.01-0.21-0.01-0.42-0.01-0.65
		c0-0.33,0.02-0.68,0.06-1c0.17-1.37-3.7-0.55-3.7-0.55s0.22,2.77-0.31,3.6C217.46,309.04,218.45,310.17,220.49,309.78z"/>
</g>
<g>
	<path class="st2" d="M224.38,308.26c0,0-4.11,4.75-5.63,5.84c0,0-1.75-1.58-0.67-5.74C218.08,308.36,220.06,307.37,224.38,308.26z"
		/>
</g>
<path class="st2" d="M224.26,296.84c0,0,2.13,4.11,0.02,8.01c-2.12,3.89-6.27-1.7-6.54-2.35c-0.27-0.66-1.69-4.37,1.14-5.49
	C221.71,295.87,223.66,295.72,224.26,296.84z"/>
<path class="st50" d="M223.55,298.3c0,0,1.47,1.93,1.64,3.35c0,0,0.58-2.7-1.07-5.29c-1.65-2.59-5.86-0.12-6.42,0.91
	c-0.56,1.03-2.21,1.95,0.56,6.39C218.27,303.67,223.25,300.21,223.55,298.3z"/>
<path class="st10" d="M220.14,305.25c0,0,0.37,0.81,1.82,1.56c-0.01-0.21-0.01-0.42-0.01-0.65
	C221.95,306.17,220.97,306.05,220.14,305.25z"/>
<path class="st2" d="M241.71,327.12c0,0,1.01,0.45,1.5,0.25c0.48-0.2,1.22-0.24,1.46-0.24c0.31,0,1.3-0.35,1.28,0.03
	c-0.02,0.38-1.59,0.65-1.92,0.77c-0.32,0.12,0.97,0.83,1.09,1.14c0.12,0.32-1.33,2.38-2.16,1.79c-0.82-0.59-1.26-1.77-1.43-1.84
	c-0.17-0.08-0.62-0.41-0.62-0.41L241.71,327.12z"/>
<path class="st2" d="M244.96,328.88c0,0,2.38,1.97,2.42,2.24c0.04,0.27-0.09,0.39-0.32,0.21c-0.23-0.17-2.36-1.84-2.36-1.84
	s2.38,2.82,2.46,3.02c0.05,0.12-0.18,0.38-0.31,0.29c-0.13-0.08-2.67-2.73-2.67-2.73s2.22,2.63,2.23,2.83
	c0.01,0.17-0.26,0.36-0.44,0.17c-0.18-0.18-2.39-2.51-2.39-2.51s1.49,2.02,1.39,2.2c-0.06,0.11-0.24,0.34-0.61-0.2
	c-0.37-0.53-1.37-1.7-1.37-1.7L244.96,328.88z"/>
<g>
	<path class="st7" d="M216.46,341.19h7c0,0,6.45,0.52,6.97-4c0.52-4.52-2.12-7.03-2.12-7.03s-3.41,0.91-6.39,1.63
		c-1.49-0.32-3.29-0.52-5.38-0.47c0,0-12.62,4.17-12.24,6.36C204.31,337.68,209.59,334.86,216.46,341.19z"/>
</g>
<polygon class="st52" points="221.02,333.37 207.67,333.17 214.41,336.59 "/>
<path class="st47" d="M216.87,331.66c0,0,3,1.16,6.69,0.11l0.17-1.38l-7.58,0.42L216.87,331.66z"/>
<polygon class="st53" points="214.41,336.59 221.02,334.03 221.02,333.37 213.89,335.94 "/>
<g>
	<path class="st7" d="M216.92,332.3c0.04,0.49-0.46,0.85-0.92,0.65l-0.78-0.33c-0.23-0.1-0.37-0.34-0.33-0.59
		c0.32-2.02,1.02-9.88,0-11.23c-0.37-0.5-0.61-0.94-0.74-1.32c-0.67,1.72-1.5,3.94-1.83,5.14l-6.31,8.39l-2.12,0.54
		c2.64-6.36,4.76-9.73,4.76-9.73c0.41-1.11,1.6-4.47,2.65-7.46c0.66-1.89,1.27-3.63,1.6-4.56c0.17-0.47,0.49-0.87,0.92-1.13
		c0.98-0.58,2.61-1.5,4.08-2.22c0.01,0,0.01-0.01,0.02-0.01c0.05-0.02,0.09-0.05,0.14-0.07c0,0,0,0,0,0c0,0,0,0,0,0
		c-2.81,4.25-1.71,16.25-1.16,23.92C216.92,332.28,216.92,332.29,216.92,332.3z"/>
	<path class="st7" d="M227.34,308.72c0.9,0.14,3.13,2.3,4.31,4.49c1.35,2.49,2.73,5.33,3.76,6.27c1.9,1.72,7.2,7.79,7.46,7.64
		c0.1-0.06-1.46,1.81-1.65,1.9c-0.1,0.04-8.72-7.43-9.55-8.57c-0.79-1.08-2.89-5.61-3.51-5.51c0,0,0,0,0,0c0,0,0,0,0,0
		c-0.05,0.1-0.81,1.76-1.54,4.18c-0.01,0.04-0.02,0.08-0.04,0.12c-0.5,1.69-0.45,3.52-0.18,5.58c0.2,1.56,1.36,4.1,2.06,5.34
		c0.08,0.15,0.06,0.43-0.03,0.65l0,0c-0.05,0.13-0.13,0.23-0.23,0.27l-2.53,0.94l-0.59,0.22c-0.43,0.16-0.88,0.08-1.21-0.17
		c-0.28-0.2-0.47-0.51-0.52-0.88c-0.56-4.33-1.28-8.76-1.84-10.42c-2.49-7.31,0.97-12.81,0.97-12.81S226.55,308.43,227.34,308.72z"
		/>
</g>
<polygon class="st54" points="214.41,336.59 210.44,325.75 197.63,325.96 201.42,335.95 "/>
<path class="st55" d="M206.34,330.54c0.39,0.78,0.27,1.63-0.26,1.9c-0.54,0.27-1.29-0.15-1.68-0.93c-0.39-0.78-0.27-1.63,0.26-1.9
	C205.2,329.35,205.95,329.76,206.34,330.54z"/>
<path class="st50" d="M219.84,300.93c0,0-0.82,1.28-0.06,2.38c0.76,1.1-0.19,2.18-0.36,3.35c-0.16,1.16,3.16,4.26-0.54,5.82
	c-3.7,1.56-4.88-1.02-3.93-2.44c0.94-1.42,1.61-2.57,1.69-4.59C216.72,303.43,217.39,300.28,219.84,300.93z"/>
<polygon class="st47" points="237.93,295.63 230.21,295.63 230.21,301.23 230.21,302.41 231.39,301.23 237.93,301.23 "/>
<g>
	<path class="st56" d="M37.41,140.41c-0.01-0.04-0.3-0.86-0.72-2.36l0.52-0.15c0.41,1.48,0.7,2.31,0.71,2.32L37.41,140.41z"/>
</g>
<g>
	<path class="st56" d="M249.13,195.1l-0.14-0.53c1.54-0.4,3.11-0.86,4.66-1.37l0.17,0.52C252.26,194.23,250.68,194.69,249.13,195.1z
		 M258.43,192.09l-0.2-0.51c1.5-0.57,3-1.2,4.49-1.86l0.22,0.5C261.45,190.89,259.93,191.51,258.43,192.09z M267.36,188.13
		l-0.25-0.49c1.44-0.73,2.88-1.5,4.29-2.29l0.27,0.47C270.25,186.63,268.8,187.4,267.36,188.13z M275.85,183.31l-0.29-0.46
		c1.37-0.87,2.72-1.78,4.03-2.7l0.31,0.44C278.59,181.52,277.23,182.44,275.85,183.31z M283.82,177.67l-0.34-0.43
		c1.28-1.01,2.53-2.05,3.72-3.11l0.36,0.41C286.36,175.6,285.1,176.66,283.82,177.67z M291.13,171.2l-0.38-0.39
		c1.16-1.15,2.28-2.34,3.33-3.53l0.41,0.36C293.43,168.85,292.3,170.04,291.13,171.2z M297.61,163.89l-0.43-0.33
		c1-1.3,1.94-2.63,2.81-3.95l0.46,0.3C299.57,161.24,298.61,162.58,297.61,163.89z M302.95,155.71l-0.48-0.26
		c0.78-1.44,1.48-2.91,2.1-4.36l0.5,0.21C304.45,152.77,303.73,154.25,302.95,155.71z M306.75,146.71l-0.52-0.16
		c0.48-1.55,0.87-3.13,1.17-4.69l0.53,0.1C307.63,143.54,307.24,145.13,306.75,146.71z M308.56,137.11l-0.54-0.04
		c0.06-0.88,0.09-1.78,0.09-2.66c0-0.72-0.02-1.45-0.06-2.17l0.54-0.03c0.04,0.73,0.06,1.47,0.06,2.2
		C308.65,135.3,308.62,136.21,308.56,137.11z M35.56,133.3c-0.32-1.58-0.6-3.19-0.84-4.81l0.54-0.08c0.23,1.61,0.51,3.22,0.83,4.78
		L35.56,133.3z M307.48,127.44c-0.28-1.57-0.67-3.15-1.14-4.7l0.52-0.16c0.48,1.57,0.87,3.17,1.16,4.76L307.48,127.44z
		 M34.17,123.64c-0.14-1.63-0.23-3.27-0.26-4.88l0.54-0.01c0.04,1.6,0.13,3.23,0.26,4.84L34.17,123.64z M304.67,118.21
		c-0.6-1.38-1.28-2.77-2.03-4.13l-0.11-0.21l0.48-0.26l0.11,0.21c0.76,1.38,1.45,2.79,2.05,4.18L304.67,118.21z M34.48,113.89
		l-0.54-0.02c0.06-1.63,0.18-3.27,0.35-4.87l0.54,0.06C34.66,110.64,34.55,112.27,34.48,113.89z M300.02,109.72
		c-0.9-1.36-1.85-2.68-2.83-3.91l0.43-0.34c0.99,1.25,1.95,2.58,2.86,3.95L300.02,109.72z M35.5,104.25l-0.54-0.09
		c0.28-1.61,0.63-3.22,1.02-4.78l0.53,0.13C36.12,101.06,35.78,102.66,35.5,104.25z M294.02,102.17c-1.11-1.16-2.29-2.28-3.5-3.31
		l0.35-0.41c1.23,1.05,2.42,2.18,3.54,3.35L294.02,102.17z M286.7,95.91c-1.3-0.91-2.68-1.77-4.09-2.57l0.27-0.47
		c1.43,0.81,2.82,1.68,4.13,2.6L286.7,95.91z M37.88,94.86l-0.52-0.17c0.52-1.55,1.1-3.08,1.74-4.57l0.5,0.21
		C38.98,91.81,38.4,93.33,37.88,94.86z M278.31,91.16c-1.43-0.65-2.94-1.27-4.49-1.83l0.19-0.51c1.56,0.57,3.08,1.19,4.52,1.85
		L278.31,91.16z M269.22,87.81c-1.48-0.44-3.06-0.86-4.69-1.25l0.13-0.53c1.64,0.39,3.22,0.81,4.72,1.25L269.22,87.81z M41.68,85.96
		l-0.48-0.25c0.76-1.44,1.58-2.86,2.45-4.23l0.46,0.29C43.25,83.13,42.43,84.54,41.68,85.96z M259.78,85.54
		c-1.51-0.3-3.08-0.58-4.78-0.86l0.09-0.54c1.71,0.28,3.28,0.57,4.8,0.87L259.78,85.54z M250.19,83.93
		c-1.44-0.21-3.01-0.43-4.82-0.67l0.07-0.54c1.81,0.24,3.39,0.46,4.83,0.67L250.19,83.93z M240.54,82.63l-0.15-0.02
		c-1.55-0.2-3.11-0.4-4.68-0.61l0.07-0.54c1.57,0.21,3.13,0.41,4.68,0.61l0.15,0.02L240.54,82.63z M230.89,81.34
		c-1.73-0.25-3.3-0.48-4.82-0.73l0.09-0.54c1.52,0.24,3.09,0.48,4.81,0.72L230.89,81.34z M221.26,79.79
		c-1.64-0.3-3.25-0.62-4.78-0.94l0.11-0.53c1.53,0.32,3.13,0.64,4.77,0.94L221.26,79.79z M46.88,77.79l-0.43-0.33
		c0.97-1.29,2.02-2.56,3.1-3.78l0.41,0.36C48.88,75.25,47.84,76.51,46.88,77.79z M211.72,77.76c-1.6-0.4-3.19-0.82-4.71-1.26
		l0.15-0.52c1.52,0.44,3.1,0.86,4.69,1.25L211.72,77.76z M202.35,75.06c-1.55-0.52-3.1-1.08-4.59-1.66l0.2-0.51
		c1.48,0.58,3.02,1.13,4.56,1.65L202.35,75.06z M193.27,71.52c-1.49-0.67-2.97-1.37-4.4-2.11l0.25-0.48
		c1.42,0.73,2.89,1.43,4.37,2.09L193.27,71.52z M53.31,70.55l-0.38-0.39c1.16-1.12,2.38-2.21,3.64-3.26l0.35,0.42
		C55.67,68.35,54.45,69.44,53.31,70.55z M184.59,67.08c-0.89-0.52-1.79-1.06-2.66-1.61c-0.5-0.31-1-0.62-1.5-0.93l0.28-0.46
		c0.5,0.31,1.01,0.62,1.51,0.93c0.87,0.55,1.76,1.08,2.64,1.6L184.59,67.08z M60.75,64.34l-0.32-0.44c1.3-0.94,2.66-1.86,4.05-2.73
		l0.29,0.46C63.39,62.49,62.04,63.41,60.75,64.34z M176.23,62.11c-1.41-0.78-2.86-1.54-4.3-2.26l0.24-0.49
		c1.45,0.72,2.9,1.49,4.32,2.27L176.23,62.11z M68.95,59.17l-0.26-0.48c1.41-0.77,2.87-1.52,4.35-2.22l0.23,0.49
		C71.81,57.67,70.35,58.41,68.95,59.17z M167.54,57.78c-1.47-0.66-2.97-1.29-4.47-1.89l0.2-0.5c1.5,0.6,3.02,1.24,4.49,1.9
		L167.54,57.78z M77.71,55.01l-0.21-0.5c1.49-0.61,3.02-1.19,4.56-1.73l0.18,0.51C80.72,53.82,79.19,54.4,77.71,55.01z
		 M158.52,54.18c-1.52-0.53-3.07-1.05-4.61-1.52l0.16-0.52c1.55,0.48,3.11,0.99,4.63,1.53L158.52,54.18z M86.87,51.79l-0.15-0.52
		c1.54-0.46,3.13-0.89,4.71-1.28l0.13,0.53C89.98,50.91,88.41,51.33,86.87,51.79z M149.24,51.33c-1.56-0.41-3.15-0.8-4.72-1.14
		l0.12-0.53c1.58,0.35,3.18,0.74,4.74,1.15L149.24,51.33z M96.3,49.47l-0.11-0.53c1.58-0.31,3.2-0.6,4.81-0.84l0.08,0.54
		C99.48,48.88,97.87,49.16,96.3,49.47z M139.76,49.23c-1.59-0.28-3.2-0.54-4.8-0.76l0.07-0.54c1.6,0.22,3.22,0.48,4.82,0.76
		L139.76,49.23z M105.9,48.01l-0.06-0.54c1.61-0.17,3.24-0.32,4.86-0.42l0.04,0.54C109.13,47.69,107.5,47.83,105.9,48.01z
		 M130.14,47.9c-1.61-0.16-3.23-0.28-4.84-0.38l0.03-0.54c1.61,0.09,3.25,0.22,4.86,0.38L130.14,47.9z M115.59,47.37l-0.01-0.54
		c1.62-0.04,3.25-0.04,4.88-0.02l-0.01,0.54C118.83,47.32,117.2,47.33,115.59,47.37z"/>
</g>
<g>
	<path class="st56" d="M241.77,196.66l-0.09-0.54c0.79-0.13,1.6-0.27,2.4-0.43l0.1,0.53C243.38,196.39,242.56,196.53,241.77,196.66z
		"/>
</g>
<g>
	<polygon class="st57" points="249.96,140.81 243.01,135.25 246.58,130.79 253.66,136.18 	"/>
</g>
<g>
	<polygon class="st58" points="249.77,140.24 243.61,135.3 246.78,131.34 253.07,136.12 	"/>
</g>
<g>
	<polygon class="st57" points="250.6,138.89 251.04,139.24 252.32,137.64 251.93,137.23 	"/>
</g>
<path class="st59" d="M239.84,152.85c0,0,0.05,1.26,0.08,1.79c0.03,0.52,0.43,0.74,0.08,0.83c-0.35,0.09-1.55,0.73-1.84,1.21
	c-0.29,0.47-1.98,3.62-2.76,3.42c-0.78-0.2-0.49-1.85,0.17-4.08c0.66-2.23,0.12-2.48,1.01-3.81
	C236.87,151.79,239.84,152.85,239.84,152.85z"/>
<polygon class="st2" points="240.79,152.89 239.84,152.85 239.91,155.21 240.82,155.26 "/>
<path class="st59" d="M278.43,166.86c0,0,1.05-0.67,1.48-0.96c0.43-0.28,0.42-0.73,0.67-0.48c0.25,0.25,1.39,0.96,1.93,0.97
	c0.54,0.01,4.04-0.1,4.25,0.65c0.21,0.76-1.32,1.33-3.54,1.86c-2.21,0.53-2.16,1.12-3.73,1.02
	C279,169.9,278.43,166.86,278.43,166.86z"/>
<polygon class="st2" points="278.05,166.2 278.5,166.99 280.39,165.74 279.97,164.97 "/>
<path class="st7" d="M264.79,145.31c-0.33,0.31-0.88,0.9-1.49,1.58c-0.25,0.28-0.51,0.57-0.77,0.87c-1.25,1.43-2.5,2.9-2.5,2.9
	c0,0-5.38,5.59-7.21,5.85c-3.6,0.51-13.1-0.93-13.1-0.93v-3.69c0,0,5.38,0.63,7.72,0.42c2.71-0.25,4.38,0.22,5.64-1.66
	c0.84-1.25,3.04-5.71,3.06-5.75c0.93-2.28,2.25-5.19,3.24-5.94C260.23,138.31,264.79,145.31,264.79,145.31z"/>
<path class="st7" d="M274.96,152.16c-0.18-1.19-2.13-4.26-3.5-6.1l0,0c-2.17-2.93-3.62-5.25-3.62-5.25s-9.87,0.96-9.67,1.93
	c0.38,1.84,5.04,3.94,5.9,4.63l1.79,1.25c0,0,1.77,1.27,3.08,2.38c1.75,1.5,1.44,2.28,2.54,4.53c0.98,2.01,6.6,11.94,6.6,11.94
	l3.02-1.87C281.1,165.59,275.23,154,274.96,152.16z"/>
<path class="st2" d="M280.16,131.9c0,0-0.82,0.14-1.28,0.12c-0.46-0.01,0.49-1.4,0.49-1.4L280.16,131.9z"/>
<path class="st2" d="M279.22,130.25c0,0,0.52-1.15,0.61-1.32c0.08-0.17,0.55-0.44,1.12-0.7c0.56-0.26,1.44-0.36,1.53-0.31
	c0.09,0.06,0.21,0.07,0.32,0.32c0.11,0.25,0.06,0.53,0.06,0.53s0.28,0.25,0.2,0.58c0,0,0.25,0.25,0.1,0.61c0,0,0.24,0.25,0.11,0.5
	c0,0-0.47,0.27-0.61,0.42c-0.14,0.15-1.45,0.7-2.49,1.03C280.16,131.9,279.37,131.82,279.22,130.25z"/>
<path class="st60" d="M280.92,129.69c0,0-0.02,0.63-0.11,0.81c-0.09,0.18,1.26,0.63,1.26,0.63S281.7,129.73,280.92,129.69z"/>
<path class="st5" d="M282.33,127.98c0,0-1.41,0.7-1.33,0.94c0.08,0.24,0.26,0.28,0.26,0.28l-0.45,0.55c0,0-0.09,0.53,0.52,0.48
	c0,0-0.14,0.49,0.44,0.37c0,0,0.05,0.36,0.33,0.35c0.28-0.01,1.17-0.5,1.17-0.5s0.14-0.19-0.11-0.5c0,0,0.17-0.34-0.1-0.61
	c0,0,0.09-0.29-0.2-0.58c0,0,0.16-0.67-0.38-0.85C282.48,127.92,282.39,127.95,282.33,127.98z"/>
<path class="st2" d="M279.87,128.9c0,0,1.08,0.02,1.67,0.28c0.13,0.06,0.25,0.14,0.24,0.29c-0.01,0.15-0.23,0.32-0.69,0.34
	c-0.47,0.02-1.07,0.25-1.07,0.25S279.53,129.94,279.87,128.9z"/>
<path class="st61" d="M266.66,125.74c0,0,2.6,4.01,4.56,5.91c0.61,0.59,7.8-1.73,8.03-1.49c0.23,0.24,0.3,2.36,0.3,2.36
	s-8.96,3.01-9.41,2.73c-0.46-0.28-6.15-6.81-6.43-7.71c-0.28-0.91-0.18-1.97,0.74-2.4C265.73,124.54,266.66,125.74,266.66,125.74z"
	/>
<g>
	<path class="st8" d="M268.59,123.73c0,0,0.69,3.04,0.52,4.71c-0.17,1.67-1.89,5.93-2.02,6.86c-0.13,0.93,0.74,5.51,0.74,5.51
		l-10.33,1.56c0,0,0.02-2.68,0.4-5.85c0.38-3.18,1.58-5.69,2-7.49c1.43-6.13,6.66-6.98,6.66-6.98L268.59,123.73z"/>
</g>
<g>
	<path class="st2" d="M273.59,116.93c0,0,0.67,1.63,0.23,1.83c-0.36,0.16,0.22,1.75,0.29,2.01c0.07,0.26-0.66,0.36-0.83,0.51
		c-0.17,0.14-0.82,2.06-1.42,2.05c-0.59,0-3.15-1.2-3.79-2.03c-0.64-0.83-0.88-4.28-0.25-5.66
		C268.46,114.27,272.41,114.08,273.59,116.93z"/>
</g>
<g>
	<path class="st2" d="M270.14,122.73c0,0-0.09,0.15-0.22,0.38c-0.05,0.1-0.12,0.21-0.18,0.33c-0.05,0.09-0.1,0.19-0.16,0.29
		c-0.34,0.64-0.73,1.42-0.82,1.82c-0.16,0.75-1.86-3.44-1.86-3.44s1.23-2.14,2.2-4.72C270.08,114.82,270.14,122.73,270.14,122.73z"
		/>
</g>
<g>
	<path d="M273.72,117.29c0,0,1.02-1.58-0.39-2.98c-1.41-1.4-4.49,0.47-4.82,0.52c-0.33,0.05-2.18-0.01-1.58,3.27
		c0.53,2.89,0.63,2.77,0.63,2.77s0.73-1.34,1.09-1.55c0.56-0.32,1.69-0.11,1.69-0.11s-0.39-1.5,0.48-1.62
		C271.7,117.48,272.9,116.88,273.72,117.29z"/>
</g>
<g>
	<path class="st2" d="M269.53,118.29c-0.05-0.21-0.21-1.08-0.99-0.66c-0.78,0.42,0.23,2.15,0.36,2.19
		C269.02,119.85,269.98,120.02,269.53,118.29z"/>
</g>
<g>
	<path class="st6" d="M267.09,121.78c0,0,1.07,2.49,1.98,3.34l-0.43,1.48l-2.09-4.53L267.09,121.78z"/>
</g>
<polygon class="st62" points="267.84,140.82 267.67,139.85 257.53,141.34 257.5,142.47 "/>
<g>
	<path class="st7" d="M268.32,129.58c-0.26,0.54-0.51,1.08-0.75,1.63l0,0c-0.52,1.2-0.98,2.43-1.39,3.62
		c-0.15,0.43-0.28,0.85-0.42,1.27c-1.58,4.98-4.7,8.43-4.7,8.43s-4.05-0.76-4.93-1.53c0,0,0.88-5.84,2.78-11.35
		c0.15-0.43,0.3-0.85,0.46-1.27c0,0,0,0,0,0c1.68-4.43,4.05-8.32,7.18-8.32C266.61,122.14,269.69,126.77,268.32,129.58z"/>
</g>
<path class="st7" d="M258.78,132.04c0,0-1.33,5.77-4.69,10.32c-0.46,0.62,4.41,1.57,4.41,1.57L258.78,132.04z"/>
<path class="st63" d="M263.38,127.56c-1.37,1.2-4.47,4.09-4.47,4.09c0.15-0.43,0.3-0.85,0.46-1.27c0,0,0,0,0,0
	C260.45,129.51,263.34,127.59,263.38,127.56z"/>
<path class="st10" d="M270.14,122.73c0,0-0.09,0.15-0.22,0.38c-0.05,0.1-0.12,0.21-0.18,0.33c-1.3-1.2-1.56-2-1.57-2.02
	C268.78,121.97,270.14,122.73,270.14,122.73z"/>
<g>
	<g>
		<path class="st64" d="M269.1,126.57c0,0-0.93,3.61-4.11,3.53c-2.85-0.07-7.1,0.91-8.55,1.86l-1.8,1.26l0.6-1.86
			c0,0,1.5-2.89,9.75-1.64c0,0,2.49,0.74,3.78-3.59C268.78,126.13,269.17,126.39,269.1,126.57z"/>
	</g>
</g>
<path class="st64" d="M269.05,125.2c0,0,0.22,1.07,0.11,1.44c-0.04,0.14-0.49-0.13-0.49-0.13L269.05,125.2z"/>
<path class="st65" d="M263.3,146.89c-0.25,0.28-0.51,0.57-0.77,0.87l-3.17-3.39c0.03,0.02,0.44,0.35,0.99,0.75
	C260.92,145.52,263.3,146.89,263.3,146.89z"/>
<g>
	<path class="st27" d="M245.28,137.64c0,0,0.06-0.33,0.16-0.46c0,0,0.19-0.22,0.32-0.39c0.04-0.05,0.08-0.1,0.09-0.13
		c0.08-0.14,0.21-0.46,0.5-0.74c0.28-0.28,1.38-1.15,1.38-1.15l0.91,0.8l0.95,0.45c0,0-0.58,2.33-0.82,2.61
		c-0.02,0.03-0.05,0.05-0.07,0.08c-0.22,0.22-0.48,0.3-0.61,0.4c-0.05,0.04-0.55,0.38-0.72,0.33c-0.24-0.07-0.38-0.21-0.44-0.38
		c0,0-0.47-0.15-0.65-0.44c0,0-0.44-0.13-0.56-0.54C245.72,138.09,245.29,137.91,245.28,137.64z"/>
</g>
<path class="st7" d="M265.72,126.05c0,0-6.35,2.31-8.87,3.9c-0.79,0.5-6.45,6.16-6.77,6.34c-0.31,0.18-2.63-1.46-2.63-1.46
	s6.86-7.16,7.28-7.57s9.97-4.89,11-4.95c1.03-0.06,1,0.45,1.21,1.54C267.24,125.38,265.72,126.05,265.72,126.05z"/>
<path class="st66" d="M223.39,245.48c-0.64,3.15,0.83,6.11,3.28,6.62c2.46,0.5,4.97-1.65,5.62-4.8c0.64-3.15-0.83-6.11-3.28-6.62
	C226.55,240.18,224.03,242.33,223.39,245.48z"/>
<path class="st9" d="M320.54,239.73c0,0,8.09-23.74-7.35-31.1c-15.45-7.36-28.56,3.28-31.04,9.04c-2.48,5.76-1.82,16.22,0.29,23.52
	c2.11,7.3,1.81,18.41-2.79,22.13c-4.59,3.72-10.28,9.89-10,22.45c0.17,7.79,30.67-19.94,30.67-19.94L320.54,239.73z"/>
<path class="st8" d="M298.83,267.97c0,0-12.7,2.81-17.74,5.76c-5.04,2.94-16.23,16.49-16.23,22.32c0,5.83,48.94,11.27,48.94,11.27
	l9.28,33.87c0,0,24.74-6.04,27.68-11.04c2.94-5.01-9.4-40.89-11.51-48.15c-2.15-7.41-11.02-12.57-21.33-14.02
	C307.63,266.53,298.83,267.97,298.83,267.97z"/>
<path class="st2" d="M317.05,267.85c0,0-0.29,15.43-12.52,15.89c-12.24,0.46-9.69-14.8-9.69-14.8S303.79,265.31,317.05,267.85z"/>
<path class="st9" d="M322.23,221.29c0,0,4.33,24.82-8,42.75C301.46,282.6,322.23,221.29,322.23,221.29z"/>
<path class="st2" d="M314.42,256.94c0,0-0.85,7.38,0.57,11.97c1.42,4.59-18.71,4.72-18.7,0.94c0.01-4.29,2.06-7.87,0.13-15.22
	C294.5,247.29,314.42,256.94,314.42,256.94z"/>
<path class="st10" d="M298.81,257.88c0,0,6.36,6.62,14.49,0.69c0,0-0.67,4.23-6.52,4.78C300.93,263.9,298.81,257.88,298.81,257.88z"
	/>
<path class="st2" d="M306.77,212.68c0,0,16.07,4.75,13.77,27.05c-2.29,22.3-12.79,21.15-13.77,21.31
	c-0.98,0.16-13.44,0.98-17.38-26.07C285.46,207.93,306.77,212.68,306.77,212.68z"/>
<path class="st9" d="M302.62,222.62c0,0,8.73,13.89,17.92,17.11c0,0,5.02-23.3-15.7-28.18c-20.72-4.88-17.48,23.54-15.93,31.11
	C288.91,242.66,293.22,231.51,302.62,222.62z"/>
<path class="st67" d="M290.91,220.53c0,0,4.6-8.9,12.36-9.3c7.76-0.4,12.38,6.33,12.38,6.33s-3.03-7.58-12.37-7.58
	C293.94,209.99,290.91,220.53,290.91,220.53z"/>
<polygon class="st12" points="322.5,290.53 327.95,341.18 256.23,341.18 250.79,290.53 "/>
<rect x="321.67" y="336.62" class="st12" width="11.98" height="4.56"/>
<path class="st66" d="M293.81,315.04c0.64,3.15-0.83,6.11-3.28,6.62c-2.46,0.5-4.97-1.65-5.62-4.8c-0.64-3.15,0.83-6.11,3.28-6.62
	C290.66,309.74,293.17,311.88,293.81,315.04z"/>
</svg>
