<?xml version="1.0" encoding="utf-8"?>
<!-- Generator: Adobe Illustrator 23.0.0, SVG Export Plug-In . SVG Version: 6.00 Build 0)  -->
<svg version="1.1" id="Слой_1" xmlns="http://www.w3.org/2000/svg" xmlns:xlink="http://www.w3.org/1999/xlink" x="0px" y="0px"
	 viewBox="0 0 2761.47 1603.92" style="enable-background:new 0 0 2761.47 1603.92;" xml:space="preserve">
<style type="text/css">
	.st0{fill:#FFFFFF;}
	.st1{opacity:0.6;fill:#EBEFF5;}
	.st2{fill:#C8DBF4;}
	.st3{fill:#D4E4F8;}
	.st4{fill:#9FC1F4;}
	.st5{fill:#8CB4F4;}
	.st6{fill:#9ABFE2;}
	.st7{fill:#BAD4F4;}
	.st8{fill:#DFEBFD;}
	.st9{fill:#B7D3F3;}
	.st10{fill:#C0D8FB;}
	.st11{fill:#233862;}
	.st12{fill:#FFB27D;}
	.st13{fill:#0F2549;}
	.st14{fill:#2B478B;}
	.st15{fill:#ED975D;}
	.st16{fill:#64DD17;}
	.st17{fill:#52BC0D;}
	.st18{fill:#ED7D2B;}
	.st19{fill:#F99746;}
	.st20{fill:#182D4F;}
	.st21{fill:#340048;}
	.st22{fill:#847A18;}
	.st23{fill:#1B3051;}
	.st24{fill:#720067;}
	.st25{fill:#EF9C62;}
	.st26{fill:#AAA129;}
	.st27{fill:#73A2E5;}
	.st28{fill:#2E3552;}
</style>
<rect class="st0" width="2761.47" height="1609.36"/>
<path class="st1" d="M230.12,1604.44c0,0-336.33-405.14-171.96-822.22C165.3,510.35,567.2,361.38,794.01,510.35
	c96.6,63.45,406.53,2.14,572.01-260.54c321.57-510.45,1443.86-200.45,1239.54,583.27c-98.88,379.26,300.92,393.05,97.21,772.16
	L230.12,1604.44z"/>
<g>
	<g>
		<path class="st2" d="M479.07,937.66c0,0-33.92-39.57-2.09-64.71c0,0,23.25-14.07,42.21-12.93c0,0-26.86,45.04-18.17,49.52
			c8.69,4.48,26.31-52.35,26.31-52.35s52.91-5.13,69.93,3.05c0,0-45.23,37.01-35.7,39.21c9.53,2.2,58.38-34.12,58.38-34.12
			s49.24,8.38,46.61,38.42c-2.63,30.04-19.59,39.31-27.05,38.52c-7.46-0.8-51.08-17.45-52.03-11.34
			c-0.95,6.11,25.31,26.08,43.7,27.01c0,0-34.72,38.29-57.79,27.24c-23.07-11.05-25.04-28.56-39.42-35.13
			c-14.38-6.57-26.66-6.55-20.72,0.15c5.94,6.7,31.97,13.21,40.19,27.76c8.22,14.55,15.6,24.36-8.27,20.77s-62.67-21.06-64.38-41.06
			C479.07,937.66,479.07,937.66,479.07,937.66z"/>
		<g>
			<path class="st2" d="M642.35,904.57c0,0-133.74-5.15-163.28,33.09c0,0-6.53,19.56-26.63,37.38l-3.13,8.54
				c0,0,23.18-24.44,31.47-25.91C480.77,957.67,467.8,910.28,642.35,904.57z"/>
			<path class="st2" d="M452.44,975.04c0,0-28.71,21.23-30.7,59.16l5.21,0.47c0,0,9.17-39.22,25.74-54.56
				C469.26,964.77,452.44,975.04,452.44,975.04z"/>
		</g>
	</g>
	<g>
		<path class="st2" d="M360.48,887.9c0,0,53.96-30.22,28.78-71.22c0,0-20.14-25.18-41.73-31.65c0,0,11.51,61.15,0,62.59
			c-11.51,1.44-7.91-69.07-7.91-69.07s-56.84-27.34-79.14-25.18c0,0,35.25,59.71,23.74,58.27c-11.51-1.44-51.08-61.87-51.08-61.87
			s-58.27-10.79-67.63,23.74c-9.35,34.53,5.76,51.8,14.39,53.96c8.63,2.16,64.03,1.44,62.59,8.63
			c-1.44,7.19-38.85,18.71-59.71,12.23c0,0,23.02,56.83,53.24,53.96c30.22-2.88,39.57-21.58,58.27-23.02
			c18.71-1.44,32.37,3.6,23.02,8.63c-9.35,5.04-41.01,1.65-56.12,14.5c-15.11,12.84-27.34,20.76,0.72,26.51
			c28.06,5.76,78.42,2.16,88.49-19.42C360.48,887.9,360.48,887.9,360.48,887.9z"/>
		<g>
			<path class="st2" d="M192.13,784.3c0,0,151.08,48.92,168.35,103.6c0,0-0.72,24.46,14.39,52.52v10.79c0,0-15.83-36.69-24.46-41.73
				C350.4,909.48,384.22,862,192.13,784.3z"/>
			<path class="st2" d="M374.86,940.42c0,0,23.3,35.38,10.02,78.45l-5.99-1.61c0,0,5.82-47.44-6.37-71.3
				C360.32,922.1,374.86,940.42,374.86,940.42z"/>
		</g>
	</g>
	<g>
		<path class="st3" d="M446.32,846.23c0,0-71.13-39.83-37.93-93.89c0,0,26.55-33.19,55-41.73c0,0-15.17,80.61,0,82.51
			c15.17,1.9,10.43-91.04,10.43-91.04s74.92-36.04,104.32-33.19c0,0-46.47,78.71-31.3,76.82c15.17-1.9,67.33-81.56,67.33-81.56
			s76.82-14.23,89.14,31.3s-7.59,68.28-18.97,71.13c-11.38,2.84-84.4,1.9-82.51,11.38c1.9,9.48,51.21,24.66,78.71,16.12
			c0,0-30.35,74.92-70.18,71.13c-39.83-3.79-52.16-28.45-76.82-30.35c-24.66-1.9-42.68,4.74-30.35,11.38
			c12.33,6.64,54.06,2.18,73.97,19.11c19.91,16.93,36.04,27.36-0.95,34.95c-36.99,7.59-103.37,2.84-116.65-25.61
			C446.32,846.23,446.32,846.23,446.32,846.23z"/>
		<g>
			<path class="st3" d="M668.23,709.66c0,0-199.15,64.49-221.91,136.56c0,0,0.95,32.24-18.97,69.23v14.23c0,0,20.86-48.37,32.24-55
				C459.59,874.68,415.02,812.09,668.23,709.66z"/>
			<path class="st3" d="M427.35,915.46c0,0-30.71,46.64-13.2,103.41l7.9-2.12c0,0-7.67-62.53,8.4-93.98
				C446.52,891.31,427.35,915.46,427.35,915.46z"/>
		</g>
	</g>
	<path class="st3" d="M443.92,1141.98c76.95,0,139.32-62.38,139.32-139.33H304.6C304.6,1079.6,366.97,1141.98,443.92,1141.98z"/>
	<path class="st3" d="M585.17,1149.07h-282.5v0c0-9.49,7.7-17.19,17.19-17.19h248.12C577.47,1131.88,585.17,1139.58,585.17,1149.07
		L585.17,1149.07z"/>
	<rect x="300.02" y="1002.65" class="st4" width="286.4" height="4.27"/>
</g>
<g>
	<g>
		<path class="st5" d="M1162.84,1601.55l0.69-0.01c5.63-0.1,9.98-4.71,9.45-10l-37.56-375.07l-32.77,2.92l53.93,377.09
			C1157,1599.42,1159.69,1601.6,1162.84,1601.55z"/>
	</g>
	<g>
		<path class="st5" d="M801.21,1601.55l-0.69-0.01c-5.63-0.1-9.98-4.71-9.45-10l37.56-375.07l32.77,2.92l-53.93,377.09
			C807.06,1599.42,804.36,1601.6,801.21,1601.55z"/>
	</g>
	<g>
		<path class="st5" d="M1427.79,1601.55l0.69-0.01c5.63-0.1,9.98-4.71,9.45-10l-37.56-375.07l-32.77,2.92l53.93,377.09
			C1421.95,1599.42,1424.64,1601.6,1427.79,1601.55z"/>
	</g>
	<path class="st5" d="M812.4,1161.91L745.74,832.7c-8.56-44.57,28.38-85.33,76.33-84.23l128.57,2.94
		c44.35,1.01,82.91,30.7,95.24,73.31l97.53,337.19H812.4z"/>
	<path class="st5" d="M852.73,1161.91L786.07,832.7c-8.56-44.57,28.38-85.33,76.33-84.23l128.57,2.94
		c44.35,1.01,82.91,30.7,95.24,73.31l97.53,337.19H852.73z"/>
	<path class="st5" d="M830.98,1221.95h508.66c10.22,0,18.58-8.36,18.58-18.58v-22.88c0-10.22-8.36-18.58-18.58-18.58H812.4v41.46
		C812.4,1213.59,820.76,1221.95,830.98,1221.95z"/>
	<path class="st5" d="M1069.68,1221.95h324.26c8.23,0,14.97-6.74,14.97-14.97v-30.11c0-8.23-6.74-14.97-14.97-14.97h-324.26
		c-8.23,0-14.97,6.74-14.97,14.97v30.11C1054.71,1215.22,1061.45,1221.95,1069.68,1221.95z"/>
</g>
<g>
	<path class="st6" d="M660.63,1157.62v11.23c0,3.93-1.27,7.14-2.83,7.14H247.94c-1.55,0-2.83-3.21-2.83-7.14v-11.23
		c0-3.93,1.27-7.14,2.83-7.14H657.8C659.35,1150.48,660.63,1153.7,660.63,1157.62z"/>
	<path class="st7" d="M660.63,1157.62v11.23c0,3.93-1.17,7.14-2.59,7.14H332.65c-1.43,0-2.59-3.21-2.59-7.14v-11.23
		c0-3.93,1.17-7.14,2.59-7.14h325.38C659.46,1150.48,660.63,1153.7,660.63,1157.62z"/>
	<rect x="265.92" y="1176" class="st2" width="290.97" height="424.11"/>
	<rect x="347.46" y="1176" class="st8" width="290.97" height="424.11"/>
	<g>
		<g>
			<path class="st9" d="M622.8,1576.69H363.1v-388.71h259.7V1576.69z M365.91,1573.89H620v-383.1H365.91V1573.89z"/>
		</g>
		<g>
			<rect x="364.5" y="1316.57" class="st9" width="256.9" height="2.8"/>
		</g>
		<g>
			<rect x="364.5" y="1447.66" class="st9" width="256.9" height="2.8"/>
		</g>
		<path class="st9" d="M519.28,1213.05h-47.67c-2.31,0-4.21-1.89-4.21-4.21l0,0c0-2.31,1.89-4.21,4.21-4.21h47.67
			c2.31,0,4.21,1.89,4.21,4.21l0,0C523.48,1211.16,521.59,1213.05,519.28,1213.05z"/>
		<path class="st9" d="M519.28,1341.25h-47.67c-2.31,0-4.21-1.89-4.21-4.21l0,0c0-2.31,1.89-4.21,4.21-4.21h47.67
			c2.31,0,4.21,1.89,4.21,4.21l0,0C523.48,1339.35,521.59,1341.25,519.28,1341.25z"/>
		<path class="st9" d="M519.28,1474.88h-47.67c-2.31,0-4.21-1.89-4.21-4.21l0,0c0-2.31,1.89-4.21,4.21-4.21h47.67
			c2.31,0,4.21,1.89,4.21,4.21l0,0C523.48,1472.99,521.59,1474.88,519.28,1474.88z"/>
	</g>
</g>
<g>
	<path class="st10" d="M1802.9,413.45h-184.43c-8.47,0-15.39-6.93-15.39-15.39V220.05c0-8.47,6.93-15.39,15.39-15.39h184.43
		c8.47,0,15.39,6.93,15.39,15.39v178.01C1818.3,406.52,1811.37,413.45,1802.9,413.45z"/>
	<path class="st8" d="M1794.91,404.41h-168.45c-7.73,0-14.06-6.33-14.06-14.06V227.76c0-7.73,6.33-14.06,14.06-14.06h168.45
		c7.73,0,14.06,6.33,14.06,14.06v162.59C1808.97,398.08,1802.64,404.41,1794.91,404.41z"/>
	<g>
		<g>
			<circle class="st9" cx="1710.68" cy="232.75" r="4.46"/>
			<path class="st9" d="M1742.2,239.06c1.2-2.15,3.91-2.93,6.06-1.73c2.15,1.2,2.93,3.91,1.73,6.06c-1.2,2.15-3.91,2.93-6.06,1.73
				C1741.78,243.92,1741,241.21,1742.2,239.06z"/>
			<path class="st9" d="M1773.02,263.54c2.07-1.33,4.83-0.74,6.16,1.33c1.33,2.07,0.74,4.83-1.33,6.16
				c-2.07,1.33-4.83,0.74-6.16-1.33C1770.36,267.64,1770.95,264.88,1773.02,263.54z"/>
			<path class="st9" d="M1788.29,301.44c2.46,0,4.46,2,4.46,4.46c0,2.46-2,4.46-4.46,4.46c-2.46,0-4.46-2-4.46-4.46
				C1783.83,303.44,1785.82,301.44,1788.29,301.44z"/>
			<path class="st9" d="M1780.49,345.42c1.74,1.74,1.74,4.56,0,6.3c-1.74,1.74-4.56,1.74-6.3,0c-1.74-1.74-1.74-4.56,0-6.3
				C1775.93,343.68,1778.75,343.68,1780.49,345.42z"/>
			<path class="st9" d="M1752.49,373.49c1.74,1.74,1.74,4.56,0,6.3c-1.74,1.74-4.56,1.74-6.3,0c-1.74-1.74-1.74-4.56,0-6.3
				C1747.93,371.75,1750.75,371.75,1752.49,373.49z"/>
			<path class="st9" d="M1706.23,387.96c0-2.46,2-4.46,4.46-4.46c2.46,0,4.46,2,4.46,4.46c0,2.46-2,4.46-4.46,4.46
				C1708.22,392.42,1706.23,390.42,1706.23,387.96z"/>
		</g>
		<g>
			<path class="st9" d="M1679.03,239.06c-1.2-2.15-3.91-2.93-6.06-1.73c-2.15,1.2-2.93,3.91-1.73,6.06c1.2,2.15,3.91,2.93,6.06,1.73
				C1679.45,243.92,1680.22,241.21,1679.03,239.06z"/>
			<path class="st9" d="M1648.21,263.54c-2.07-1.33-4.83-0.74-6.16,1.33c-1.34,2.07-0.74,4.83,1.33,6.16
				c2.07,1.33,4.83,0.74,6.16-1.33C1650.87,267.64,1650.28,264.88,1648.21,263.54z"/>
			<path class="st9" d="M1632.94,301.44c-2.46,0-4.46,2-4.46,4.46c0,2.46,2,4.46,4.46,4.46c2.46,0,4.46-2,4.46-4.46
				C1637.4,303.44,1635.4,301.44,1632.94,301.44z"/>
			<path class="st9" d="M1640.74,345.42c-1.74,1.74-1.74,4.56,0,6.3c1.74,1.74,4.56,1.74,6.3,0c1.74-1.74,1.74-4.56,0-6.3
				C1645.3,343.68,1642.48,343.68,1640.74,345.42z"/>
			<circle class="st9" cx="1671.88" cy="376.64" r="4.46"/>
		</g>
	</g>
	<g>
		<path class="st9" d="M1709.48,305.9c0-2.46,2-4.46,4.46-4.46c2.46,0,4.46,2,4.46,4.46c0,2.46-2,4.46-4.46,4.46
			C1711.48,310.36,1709.48,308.36,1709.48,305.9z"/>
		<g>
			<rect x="1713.33" y="250.2" class="st9" width="1.22" height="55.7"/>
		</g>
		<g>
			
				<rect x="1709.37" y="292.4" transform="matrix(0.7866 -0.6175 0.6175 0.7866 187.1192 1129.87)" class="st9" width="37.54" height="3.65"/>
		</g>
	</g>
</g>
<g>
	<g>
		<path class="st11" d="M1255.52,1093.02c-27.52,47.89-62.13,66.38-62.13,66.38H1049.4
			C1049.4,1159.4,1276.51,1056.48,1255.52,1093.02z"/>
		<g>
			<path class="st12" d="M1433.11,1568.84c-1.56,15.11,19.46,19.01,43.83,20.49c24.37,1.48,16.95,6.39,50.3,12.8
				c33.35,6.41,46.84-2.59,49.31-7.08c2.2-3.98-13.27-10.41-29.75-17.67c-2.08-0.91-4.15-1.84-6.23-2.77
				c-18.55-8.39-28.82-25.22-43.18-40.87c-13.6-14.82-26.17-61.95-26.17-61.95l-45.3-10.18c0,0,12.3,42.43,16.53,60.53
				c2.49,10.65-1.48,22.48-4.99,31.48C1435.57,1558.5,1433.66,1563.51,1433.11,1568.84z"/>
			<path class="st13" d="M1476.94,1589.32c24.37,1.48,16.95,6.39,50.3,12.8c33.35,6.41,46.84-2.59,49.31-7.08
				c2.2-3.98-13.27-10.41-29.75-17.67l-0.26,0.28c0,0-23.58,7.73-50.62,0.06c-22.04-6.24-43.27-19.68-58.46-24.11
				c-1.89,4.9-3.8,9.91-4.34,15.23C1431.56,1583.94,1452.57,1587.84,1476.94,1589.32z"/>
			<path class="st11" d="M1364.47,1043.96c-24.38-17.12-185.64-47.63-267.93-56.46l-90.96-78.96c0,0-77.42,114.67-78.04,202.4
				c-0.29,40.91,18.55,44.97,18.56,44.98c0,0,291.59,2.16,304.37,3.48c20.92,2.16,48.52,54.28,55.41,101.75
				c6.9,47.47,128.49,240.54,128.49,240.54s25.36,8.13,37.08,7.44c12.61-0.74,18.45-4.96,18.45-4.96
				S1419.45,1082.56,1364.47,1043.96z"/>
			<path class="st12" d="M1357.69,1568.84c-1.56,15.11,19.46,19.01,43.83,20.49c24.37,1.48,16.95,6.39,50.3,12.8
				c33.35,6.41,46.84-2.59,49.31-7.08c2.2-3.98-13.27-10.41-29.75-17.67c-2.07-0.91-4.15-1.84-6.23-2.77
				c-18.55-8.39-28.82-25.22-43.18-40.87c-13.6-14.82-26.17-61.95-26.17-61.95l-45.31-10.18c0,0,12.3,42.43,16.53,60.53
				c2.49,10.65-1.48,22.48-4.99,31.48C1360.14,1558.5,1358.24,1563.51,1357.69,1568.84z"/>
			<path class="st11" d="M1401.52,1589.32c24.37,1.48,16.95,6.39,50.3,12.8c33.35,6.41,46.84-2.59,49.31-7.08
				c2.2-3.98-13.27-10.41-29.75-17.67l-0.26,0.28c0,0-23.58,7.73-50.62,0.06c-22.04-6.24-43.27-19.68-58.46-24.11
				c-1.89,4.9-3.8,9.91-4.34,15.23C1356.14,1583.94,1377.15,1587.84,1401.52,1589.32z"/>
			<path class="st14" d="M1288.39,1043.96c-21.18-14.87-84.88-26.4-155.19-34.96c-19.44-2.37-35.4-16.5-40.15-35.5l0,0L929.5,908.54
				c0,0-77.42,114.67-78.04,202.4c-0.29,40.91,18.55,44.97,18.56,44.98c0,0,291.59,2.16,304.37,3.48
				c20.92,2.16,48.52,54.28,55.41,101.75c6.9,47.47,128.49,240.54,128.49,240.54s25.36,8.13,37.08,7.44
				c12.61-0.74,18.45-4.96,18.45-4.96S1343.36,1082.56,1288.39,1043.96z"/>
			<path class="st11" d="M1069.54,432.09c-22.47-11.8-56.67-13.4-62.23-14.14c-66.48-8.93-106.49,87.67-108.85,116.94
				c-4.34,53.95-32.88,62.18-73.05,95.97c-80.55,67.75-56.93,146.48-12.88,175.73c26.43,17.55,73.01,0,73.01,0
				c0.66,0.46,127.4-70.85,189.87-105.25C1169.07,688.02,1126.81,462.16,1069.54,432.09z"/>
			<path class="st12" d="M1055.67,668.1c0.29,0.15-29.54,13.72-51.08,6.6c-20.26-6.67-38.1-37.17-37.82-37.22
				c8.79-1.27,17.73-9.95,20.23-61.35l3.89,0.98l65.47,16.55c0,0-2.59,20.74-3.66,40.35
				C1051.81,650.48,1051.99,666.15,1055.67,668.1z"/>
			<path class="st15" d="M1056.37,593.66c0,0,0,4.27-2.45,23.56c-37.03-9.34-53.35-21.62-64.87-35.67L1056.37,593.66z"/>
			<path class="st12" d="M1070.34,596.28c0,0-86.57,14.1-94.52-39.95c-7.95-54.05-24.47-88.63,30.46-99.92
				c54.94-11.28,68.74,7.76,75.78,25.15C1089.1,498.95,1092.65,591.22,1070.34,596.28z"/>
			<path class="st11" d="M1070.42,454.14c0,0-39.32,62.06-74.41,76.76c-35.1,14.7-52.34,7.24-52.34,7.24s15.97-24.21,20.13-56.72
				c1.23-9.58,7.47-17.8,16.44-21.39C1005.42,449.94,1054.14,434.04,1070.42,454.14z"/>
			<path class="st11" d="M1035.89,460.14c0,0,23.04,11.81,32.53,22.89c9.16,10.68,19.74,39.68,18.98,52.7
				c0,0,11.37-62.4-12.31-83.85C1049.98,429.14,1035.89,460.14,1035.89,460.14z"/>
			<path class="st16" d="M1052.52,637.94c0,0,75.22,12.75,84.1,45.31c8.88,32.56,61.14,223.97,61.14,223.97s-38.44,6.91-56.2-10.85
				c-17.76-17.76-61.8-164.77-61.8-164.77L1052.52,637.94z"/>
			<path class="st16" d="M1124.93,800.14c-2.63,175.98-0.72,139.2-19.97,155.9c-4.64,4.02-17.68,6.42-34.84,7.55
				c-53.96,3.58-148.81-5.31-152.42-15.28c-12.45-34.5-3.66-45.22-14.04-98.05c-1.08-5.62-2.42-11.7-3.99-18.32
				c-8.66-36.28-17.08-48.63,13.63-106.91c27.86-52.8,60.61-95.69,63.22-94.15c73.49,43.63,76.01,7.06,76.01,7.06
				S1126.22,714.31,1124.93,800.14z"/>
			<path class="st17" d="M1070.12,963.6c-53.96,3.58-148.81-5.31-152.42-15.28c-12.45-34.5-3.66-45.22-14.04-98.05l26.03-73.29
				c0,0-4.3,81.61,19.76,103.08c24.04,21.46,98.54,41.44,110.24,59.37C1065.33,948.03,1069.04,956.66,1070.12,963.6z"/>
			<path class="st12" d="M1008.3,929.27c0,0,53.24-11.85,61.82-7.13c8.59,4.72,29.58,21.93,32.21,27.92
				c2.63,5.99-19.12-4.54-26.2-6.44c-4.58-1.23-16.64,2.96-22.61,4.95c-25.12,8.38-40.52,4.07-40.52,4.07L1008.3,929.27z"/>
			<path class="st16" d="M976.51,630.88c0,0-75.34,4.4-100.09,38.92c-34.83,48.58-103.93,255.63-64.33,283.24
				c44.6,31.1,202.97,8.14,202.97,8.14s5.27-24.63-2.06-36.55c-7.33-11.92-126.5-31.17-132-36.67
				c-5.5-5.5,68.75-107.25,68.75-123.75C949.75,747.71,976.51,630.88,976.51,630.88z"/>
			<path class="st12" d="M1072.7,936.96c0,0,11.15,14.39,14.81,16.11c3.66,1.72,6.02,1.29,6.02,1.29l-7.52-13.53L1072.7,936.96z"/>
			<path class="st12" d="M1070.12,922.14l32.43,15.75c0,0-1.38,2.26-5.37,2.08c-3.99-0.18-14.07-3.87-14.07-3.87L1070.12,922.14z"/>
		</g>
	</g>
</g>
<g>
	<path class="st18" d="M1189.59,959.48h-150.62l0,0c0-6.63,5.38-12.01,12.01-12.01h138.61V959.48z"/>
	<polygon class="st18" points="1189.15,795.44 1422.02,795.44 1366.16,959.48 1131.79,959.48 	"/>
	<polygon class="st19" points="1425.45,795.44 1369.59,959.48 1135.22,959.48 1192.58,795.44 	"/>
	<path class="st0" d="M1299.9,875.94c-1.45,6.27-7.7,11.35-13.97,11.35c-6.27,0-10.18-5.08-8.73-11.35
		c1.45-6.27,7.7-11.35,13.97-11.35S1301.35,869.67,1299.9,875.94z"/>
</g>
<g>
	<path class="st20" d="M986.91,996.38H2007.4c4.29,0,7.77-3.48,7.77-7.77v-21.36c0-4.29-3.48-7.77-7.77-7.77H986.91
		c-4.29,0-7.77,3.48-7.77,7.77v21.36C979.14,992.9,982.62,996.38,986.91,996.38z"/>
	<g>
		<path class="st20" d="M2032.38,1604.29l0.44-0.05c5.23-0.65,8.93-5.31,8.27-10.42l-90.94-615.56l-33.29,0.95l107,618.89
			C2024.54,1602.06,2028.3,1604.8,2032.38,1604.29z"/>
	</g>
	<g>
		<path class="st20" d="M952.74,1604.29l-0.44-0.05c-5.23-0.65-8.93-5.31-8.27-10.42l90.94-615.56l33.29,0.95l-107,618.89
			C960.58,1602.06,956.82,1604.8,952.74,1604.29z"/>
	</g>
	<g>
		<path class="st20" d="M1163.26,1604.29l-0.44-0.05c-5.23-0.65-8.93-5.31-8.27-10.42l90.94-615.56l33.29,0.95l-107,618.89
			C1171.1,1602.06,1167.34,1604.8,1163.26,1604.29z"/>
	</g>
</g>
<g>
	<path class="st11" d="M1699.76,1603.79h180.45c8.68-10.59,5.48-49.67,4.17-62.44c-0.27-2.57-0.46-4.07-0.46-4.07
		s-61.62-49.29-70.09-11.55c-0.26,1.18-0.57,2.34-0.91,3.48c-10.66,35.3-58.5,51.34-86.12,55.81
		C1708.85,1587.95,1702.22,1597.28,1699.76,1603.79z"/>
	<path class="st21" d="M2192.16,1017.43c-6.51,0-309.11,56.81-359.16,118.77c-25,30.95-28.72,388.41-28.72,388.41
		s30.93,38.35,97.74,16.08c0,0,48.98-244.57,45.37-318.74c-1-20.51,206.75-2.97,244.77-12.81s130.93-92.56,110.46-132.85
		C2282.14,1035.99,2192.16,1017.43,2192.16,1017.43z"/>
	<path class="st12" d="M1834.29,929.9c0,0-61.04,0.82-75.47,7.01c-14.43,6.19-43.72,20.39-35.88,22.57
		c7.84,2.18,45.23-0.9,53.31,0.34c8.08,1.24,18.04-0.34,22.99-0.34c4.95,0,28.03,0,28.03,0L1834.29,929.9z"/>
	<path class="st12" d="M1762.93,783.42c0,0-20.81-14.87-41.02-17.76c-11.53-1.65-22.73-3.7-29.5-6.09
		c-18.65-6.57-55.96-40.12-53.13-44.05c9.05-12.61,52.61,14.08,60.21,11.21c7.6-2.87-14.61-18.66-6.89-24.22
		c4.04-2.9,13.48,11.64,21.19,13.1c10.44,1.98,18.6,16.72,21.75,17.49c6.12,1.5,32.92,21.43,32.92,21.43L1762.93,783.42z"/>
	<path class="st22" d="M2162.02,609.76c0,0-46.46,14.4-92.24,140.46c-45.78,126.06-63.16,132.87-79.8,137.81
		c-16.64,4.95-162.7,34.03-162.7,34.03v37.41h225.05c0,0,84.39-80.28,109.69-134.32C2187.32,771.12,2162.02,609.76,2162.02,609.76z"
		/>
	<path class="st23" d="M1620.01,1603.79h180.45c8.68-10.59,5.48-49.67,4.17-62.44c-0.27-2.57-0.46-4.07-0.46-4.07
		s-61.62-49.29-70.09-11.55c-0.26,1.18-0.57,2.34-0.91,3.48c-10.66,35.3-58.5,51.34-86.12,55.81
		C1629.1,1587.95,1622.46,1597.28,1620.01,1603.79z"/>
	<path class="st24" d="M2102.99,1017.43c-6.52,0-309.11,56.81-359.16,118.77c-25,30.95-28.72,388.41-28.72,388.41
		s30.94,38.35,97.74,16.08c0,0,48.98-244.57,45.37-318.74c-1-20.51,206.75-2.97,244.77-12.81c38.02-9.84,130.93-92.56,110.46-132.85
		C2192.97,1035.99,2102.99,1017.43,2102.99,1017.43z"/>
	<path class="st12" d="M2121.92,649.71c21.77-1.8,44.59-7.6,64.32-14c24.66-8,44.53-19.7,31.73-42.23
		c-11.8-20.77-30.91-67.17-29.62-105.61l-45.88,36.98l-31.17,25.11c0,0,0.13,14.81,3.54,40.76c0.62,4.73,1.35,9.84,2.21,15.29
		c0.69,4.41-1.33,8.81-5.13,11.16c-0.24,0.15-0.47,0.29-0.7,0.44C2095.73,627.34,2103.69,651.22,2121.92,649.71z"/>
	<path class="st25" d="M2111.3,543.85c0,0-1.59,5.38,1.15,25.23c27.79-4.53,53.76-26.7,53.76-26.7
		c-14.15-3.88-19.29-19.17-29.83-17.74L2111.3,543.85z"/>
	<path class="st12" d="M2085.6,548.38c0,0,106.88,17.76,116.92-48.98c10.03-66.73,30.59-109.38-37.23-123.54
		c-67.82-14.16-84.94,9.31-93.7,30.77C2062.81,428.08,2058.05,542.04,2085.6,548.38z"/>
	<path d="M2055.86,377.09c-4.59,16.07,7.69,35.64,28.31,42.09c30.61,9.56,23.84,47.11,37.62,46.6c13.77-0.51,19.33-21.58,31.63-4.75
		c10.49,14.36-8.73,31.38-7.41,39.26c2.27,13.52,23.45,41.18,42.53,39.79c19.08-1.39,54.79-92.08,47.65-120.14
		c-7.14-28.06-35.71-57.65-62.75-61.73c-27.04-4.08-64.59,7.59-73.26,7.59S2058.34,368.41,2055.86,377.09z"/>
	<path class="st26" d="M2304.04,702.38c-15.45-62.18-58.15-127.42-87.02-127.37c-49.2,0.09-119.92,13.08-148.47,83.52
		c-21.03,51.88-49.08,350.31-17.38,371.53c72.47,48.52,240.46,147.56,270.3,46.56C2348.82,984.07,2330.85,810.3,2304.04,702.38z"/>
	<path class="st26" d="M2184.55,640.5c-14.03-36.51-59.3-49.13-90.17-25.11c-16.7,12.99-37.14,31.49-61.84,57.79
		c-91.81,97.77-110.47,97.16-127.71,95.14c-17.24-2.02-162.92-32.94-162.92-32.94s-7.46,5.5-11.85,14.4
		c-5.86,11.88-2.91,19.98-2.91,19.98c-5.71-3.69,51.64,35.84,80.18,51.6c37.7,20.81,94.5,40.33,117.12,47.74
		c6.41,2.1,13.33,2,19.68-0.29c33.58-12.1,146.34-56.21,238.14-132.73C2206.45,715.91,2197.56,674.35,2184.55,640.5z"/>
	<path class="st24" d="M2221.97,575.61l-11.14-25.09c0,0-99.7,8.13-116.46,64.87C2094.38,615.39,2171.66,576.83,2221.97,575.61z"/>
</g>
<g>
	<g>
		<path class="st5" d="M2464.03,1601.55l0.69-0.01c5.63-0.1,9.98-4.71,9.45-10l-37.56-375.07l-32.77,2.92l53.93,377.09
			C2458.19,1599.42,2460.88,1601.6,2464.03,1601.55z"/>
	</g>
	<g>
		<path class="st5" d="M2270.72,1601.55l0.69-0.01c5.63-0.1,9.98-4.71,9.45-10l-37.55-375.07l-32.77,2.92l53.93,377.09
			C2264.88,1599.42,2267.57,1601.6,2270.72,1601.55z"/>
	</g>
	<g>
		<path class="st27" d="M1907.82,1601.55l-0.69-0.01c-5.63-0.1-9.98-4.71-9.45-10l37.56-375.07l32.77,2.92l-53.93,377.09
			C1913.66,1599.42,1910.97,1601.6,1907.82,1601.55z"/>
	</g>
	<path class="st5" d="M2453.41,1163.33l35.64-313.26c4.67-45.14-10.43-89.35-75.58-92.77l-114.61-6.98
		c-67.93-2.8-98.59,53.73-107.19,97.25l-68.04,344.35L2453.41,1163.33z"/>
	<path class="st27" d="M2434.26,1221.95h-508.66c-10.22,0-18.58-8.36-18.58-18.58v-22.88c0-10.22,8.36-18.58,18.58-18.58h527.24
		v41.46C2452.84,1213.59,2444.48,1221.95,2434.26,1221.95z"/>
	<path class="st5" d="M2438.41,1221.95h-300.34c-7.94,0-14.43-6.49-14.43-14.43v-31.18c0-7.94,6.49-14.43,14.43-14.43h314.77v45.61
		C2452.84,1215.46,2446.35,1221.95,2438.41,1221.95z"/>
</g>
<path class="st28" d="M2761.47,1598.48H16.78c-2.12,0-3.86,1.74-3.86,3.86v3.16c0,2.13,1.74,3.86,3.86,3.86h2744.7V1598.48z"/>
</svg>
