<?xml version="1.0" encoding="utf-8"?>
<!-- Generator: Adobe Illustrator 23.0.0, SVG Export Plug-In . SVG Version: 6.00 Build 0)  -->
<svg version="1.1" id="_x2018_лой_x5F_1" xmlns="http://www.w3.org/2000/svg" xmlns:xlink="http://www.w3.org/1999/xlink"
	 x="0px" y="0px" viewBox="0 0 1508.44 1092.74" style="enable-background:new 0 0 1508.44 1092.74;" xml:space="preserve">
<style type="text/css">
	.st0{opacity:0.6;fill:#EBEFF5;}
	.st1{opacity:0.33;fill:#75CDFF;}
	.st2{fill:#F3AD4C;}
	.st3{fill:#253B5C;}
	.st4{fill:#14253F;}
	.st5{fill:#56130F;}
	.st6{fill:#EF8F6A;}
	.st7{fill:#64DD17;}
	.st8{fill:#E27452;}
	.st9{fill:#FFFFFF;}
	.st10{fill:#163560;}
	.st11{fill:#0B1A3B;}
	.st12{fill:#EB9235;}
	.st13{fill:#C62E45;}
	.st14{fill:#F0CAA8;}
	.st15{fill:#521EE0;}
	.st16{fill:#6F2BFF;}
	.st17{fill:#6FA9C9;}
	.st18{fill:#127CA0;}
	.st19{fill:#009CE1;}
</style>
<path class="st0" d="M1508.44,52.01v1043.51c-51.57-0.01-105.94-0.01-162.13-0.02h-0.21c-1.32,0-2.63,0-3.95-0.01
	c-328.02-0.06-717.27-0.26-974.7-0.77c-20.55-0.04-40.25-0.08-59.02-0.13c-17.78-0.04-34.71-0.09-50.72-0.13
	c-9.88-0.03-19.41-0.06-28.56-0.09c-89.49-0.3-143.47-0.67-143.65-1.13l-0.17-0.33c0,0-0.04-0.07-0.08-0.17
	c-0.04-0.1-0.09-0.23-0.09-0.32c-0.67-1.31-267.74-370.22,147.46-627.03c162.45-100.48-10.17-166.81,119.01-278.68
	C500.1,58.16,662.12,200.37,827.2,142.08c29.17-10.29,58.44-26.85,87.74-52.27c16.49-14.29,34.57-26.79,53.92-37.58
	c2.97-1.66,5.96-3.28,8.99-4.86c11.59-6.03,23.6-11.48,35.98-16.39c8.31-3.29,16.77-6.33,25.4-9.13h0.01
	c13.69-4.44,27.75-8.27,42.11-11.51c20.39-4.6,41.39-8.03,62.8-10.34c9.34-1.02,18.76-1.82,28.24-2.42
	c9.63-0.61,19.32-1.01,29.05-1.19c7.13-0.15,14.28-0.18,21.45-0.11c20.64,0.21,41.42,1.3,62.18,3.22
	c5.64,0.51,11.28,1.09,16.91,1.73C1373.86,9.39,1444.96,27.18,1508.44,52.01z"/>
<path class="st1" d="M1264.05,1092.74H720.22L827.2,142.08c29.17-10.29,58.44-26.85,87.74-52.27
	c16.49-14.29,34.57-26.79,53.92-37.58c2.97-1.66,5.96-3.28,8.99-4.86c11.59-6.03,23.6-11.49,35.97-16.39
	c8.31-3.29,16.78-6.33,25.41-9.13h0.01c13.69-4.44,27.75-8.27,42.11-11.51c20.39-4.6,41.39-8.03,62.8-10.34l4.15,37.81
	L1264.05,1092.74z"/>
<g>
	<path class="st2" d="M970.95,1092.74h-54.79c0,0-1.31-8.35,1.55-14.69c2.74-6.08,7.01-9.83,7.4-14.49
		c3.48,3.59,7.77,5.89,15.69,4.83c0.97,1.57,6.27,10,9.51,12.33C953.88,1083.29,969.85,1082.37,970.95,1092.74z"/>
	<path class="st2" d="M1061.83,1092.74h-54.79c0,0-1.31-8.35,1.55-14.69c2.74-6.08,7.01-9.83,7.4-14.49
		c3.48,3.59,7.77,5.89,15.69,4.83c0.97,1.57,6.27,10,9.51,12.33C1044.76,1083.29,1060.73,1082.37,1061.83,1092.74z"/>
	<path class="st3" d="M1045.91,782.95c1.37,25.75-11.63,285.29-11.63,285.29s-3.26,3.76-11.02,5.27c-6.86,1.34-15.33-0.6-15.33-0.6
		s-41.7-285.57-10.62-323.96c0.7-0.87,1.44-1.71,2.21-2.51c1.02-1.06,3.37-1.69,3-2.99c-8.85-30.66,29.96-15.28,30.09-14.86
		C1037.36,743.95,1044.08,748.57,1045.91,782.95z"/>
	<path class="st4" d="M1025.67,709.91l-71.04,16.86c0,0-18.87,12.15-24.28,79.42c-5.26,65.29-10.56,261.78-10.56,261.78
		s4.13,5.19,11.51,6.09c6.51,0.8,13.95-1.9,13.95-1.9c15.06-90.96,77.72-301.29,77.72-301.29L1025.67,709.91z"/>
	<path class="st5" d="M979.09,510.13c0,0-38.38-1.55-43.87,47.31c-4.63,41.28-68.78,38.13-48.2,82
		c20.58,43.87,77.45,18.96,87.19,11.37c9.75-7.58,64.99-24.91,70.95-36.83c5.96-11.91-9.61-23.39-14.49-39.05
		C1025.8,559.28,1041.64,498.15,979.09,510.13z"/>
	<g>
		<path class="st6" d="M1111,510.38c0,0-1.32-6.59-2.81-11.61c-0.66-2.23,3.93-16.83,7.1-18.63c3.17-1.8,11.44,8.04,9.1,15.59
			c-1.2,3.88-3.18,16.51-3.18,16.51L1111,510.38z"/>
		<path class="st6" d="M1111,510.38c0,0-1.73-3.82-3.28-4.44c-1.56-0.62-3.23-6.86-4.37-9.34c0,0,1.1-1.62,3.04,0.46
			c1.18,1.27,3.81,5,3.81,5L1111,510.38z"/>
	</g>
	<path class="st6" d="M874.24,496.36c-0.34,0.69-0.8,1.93-1.22,3.1c-0.01-0.32-0.01-0.63-0.01-0.94
		c-0.02-2.32-8.68-14.95-12.25-15.74c-3.56-0.79-8.59,11.04-4.14,17.57c2.29,3.36,9.32,18.42,9.32,18.42l7.78-8.33
		c0,0,0.53-4.16,1.84-5.2c1.31-1.05,1.08-7.51,1.45-10.21C877.01,495.03,875.48,493.8,874.24,496.36z"/>
	<path class="st5" d="M980.97,579.14c0,0-11.27-8.92-16.45-18.12c-3.7-6.56-9.22-33.75,18.16-39.15c0,0,7.83-1.91,16.63,0.41
		c7,1.84,18.06,7.23,16.86,33.07l0.31,8.48L980.97,579.14z"/>
	<path class="st7" d="M942.39,659.99l15.45,63.07l73.22,3.19c0,0,14.83-52.75,8.69-76.77c-6.14-24.01-15.51-40.69-15.51-40.69
		s-22.75-5.47-63.04-2.27L942.39,659.99z"/>
	<path class="st7" d="M1002.96,603.96c26.3-2.44,65.23-17.11,70.1-26.27c4.88-9.15,32.82-53.84,37.39-67.59c0,0,3.41-0.25,5.46,0.07
		c2.76,0.42,6.12,2.07,6.12,2.07s-16.3,67.3-25.94,84.12c-9.65,16.82-49.49,46.58-54.92,63.62
		C1035.73,677.03,995.03,604.7,1002.96,603.96z"/>
	<path class="st7" d="M980.59,603.96c-26.3-2.44-65.23-17.11-70.1-26.27c-4.87-9.15-30.73-54.05-36.77-67.26c0,0-2.8-1.14-6.03-0.28
		c-3.35,0.89-5.68,3.83-5.68,3.83s14.83,65.55,24.47,82.37c9.65,16.82,50.48,46.58,55.91,63.62
		C947.81,677.03,988.51,604.7,980.59,603.96z"/>
	<g>
		<path class="st6" d="M978.5,607.73c1.43-3.25,4.75-19.31,3.8-27.35l1.54,0.06l25.83,1c0,0,0.13,6.25,0.77,12.07
			c0,0.05,0.01,0.1,0.02,0.15c0.54,5.06,0.93,7.54,0.53,13.93c-0.18,2.88-9.46,4.99-20.25,4.74
			C986.88,612.24,977.56,609.88,978.5,607.73z"/>
		<path class="st8" d="M1009.67,581.45c0,0,0.13,6.25,0.77,12.07c-14.24,1.3-22.89-7.87-26.6-13.07L1009.67,581.45z"/>
		<path class="st6" d="M1017.99,582.5c0,0-32.57,12.02-39.74-8.38c-7.17-20.4-16.21-32.58,4.29-41.12
			c20.49-8.54,27.29-2.18,31.34,4.05C1017.92,543.27,1026.27,578.85,1017.99,582.5z"/>
		<path class="st5" d="M997.27,527.27c0,0-0.58,27.08-13.11,35.44s-19.79,6.77-19.79,6.77s7.62-12.09,4.68-27.5
			C969.06,541.99,986.52,518.25,997.27,527.27z"/>
		<path class="st5" d="M995.73,530c0,0,4.79-1.79,12.1,4.51c3.35,2.88,10.85,16.72,10.85,16.72s1.06-18.64-9.76-25.18
			C997.45,519.1,995.73,530,995.73,530z"/>
		<path class="st9" d="M1004.97,574.23c0,0,4.55,1.62,9.23-0.03c3.21-1.13,3.21-5.19,3.21-5.19s-2.44-0.28-5.96,1.15
			C1007.93,571.6,1004.97,574.23,1004.97,574.23z"/>
	</g>
	<path class="st9" d="M1001.94,611.68c0,0-15.71-3.16-21.11-13.16c0,0-7.43,1.06-10.17,4.06c0,0,8.6,16.4,25.07,18.64
		C995.73,621.23,1001.42,615.95,1001.94,611.68z"/>
	<path class="st9" d="M1011.03,599.49c0,0,5.35,0.23,7.88,1.9c0,0,2.83,10.39-6.61,18.82c0,0-5.08-8.02-10.36-8.53
		C1001.94,611.68,1011.76,606.7,1011.03,599.49z"/>
	<path class="st10" d="M1000.31,612.35c0-0.9,0.73-1.62,1.63-1.62s1.63,0.73,1.63,1.62c0,0.9-0.73,1.63-1.63,1.63
		S1000.31,613.24,1000.31,612.35z"/>
	<path class="st10" d="M1009.53,634.63c0-0.9,0.73-1.63,1.62-1.63c0.9,0,1.63,0.73,1.63,1.63c0,0.9-0.73,1.62-1.63,1.62
		C1010.25,636.25,1009.53,635.53,1009.53,634.63z"/>
	<path class="st10" d="M1014.28,660.83c0-0.9,0.73-1.62,1.63-1.62c0.9,0,1.63,0.73,1.63,1.62c0,0.9-0.73,1.63-1.63,1.63
		C1015.01,662.45,1014.28,661.73,1014.28,660.83z"/>
	<circle class="st10" cx="1017.53" cy="690.48" r="1.63"/>
	<path class="st11" d="M1033.63,714.9c0,0-6.88,5.44-20.54,5.71c-16.32,0.33-56.74-4.16-56.74-4.16s-1.8,5.02-1.72,10.32
		c0,0,49.38,12.46,77.98,1.82C1032.62,728.59,1036.31,721.65,1033.63,714.9z"/>
	<g>
		<path class="st9" d="M1024.45,725.95c0-0.04,0-0.08-0.01-0.12c-0.09-2.48-1.15-4.68-2.75-6.15c-1.28-1.17-2.91-1.87-4.68-1.87
			c-2.2,0-4.19,1.09-5.54,2.82c-0.91,1.14-1.54,2.55-1.78,4.11c-0.03,0.19-0.06,0.38-0.07,0.57c-0.03,0.3-0.05,0.61-0.05,0.93
			c0,2.52,0.98,4.79,2.54,6.34c1.31,1.3,3.03,2.09,4.9,2.09c2.47,0,4.67-1.37,6.02-3.47c0.9-1.39,1.43-3.1,1.43-4.96
			C1024.46,726.14,1024.46,726.04,1024.45,725.95z M1017.01,732.2c-0.14,0-0.28-0.01-0.42-0.02c-2.54-0.26-4.56-2.82-4.56-5.94
			c0-0.28,0.02-0.56,0.06-0.83c0.03-0.35,0.09-0.68,0.18-1c0.52-1.92,1.83-3.41,3.46-3.92c0.41-0.14,0.84-0.21,1.28-0.21
			c0.18,0,0.36,0.01,0.54,0.04c2.22,0.28,4.01,2.32,4.36,4.93c0.04,0.19,0.06,0.39,0.06,0.59c0.02,0.13,0.02,0.26,0.02,0.4
			c0,2.71-1.51,4.99-3.58,5.71C1017.97,732.12,1017.5,732.2,1017.01,732.2z"/>
	</g>
</g>
<g>
	<path class="st6" d="M383.6,793.39c0,0,3.85,17.04,2.75,21.71c-1.1,4.67-13.05,12.09-17.52,10.72c-4.47-1.37-0.62-24.74,7.08-28.59
		C383.6,793.39,383.6,793.39,383.6,793.39z"/>
	<path class="st5" d="M380.39,604.15c-15.36-17.93-13.78-32.76-13.32-46.56c0.46-13.8-9.57-53.92-43.97-49.88
		c0,0-9.01-3.66-20.25,2.17c-19.08,9.9-55.83,83.86-46.79,114.4c2.14,7.24,6.85,12.04,14.98,12.96c3.52,0.41,7.69,0.08,12.57-1.09
		c-0.8-1.55,5.41-4.57,13.62-5.71c14.1-1.95,34.1,1.64,34.6,27.8c0,0,7.43-0.18,17.08-1.61c5.99-0.9,12.84-2.27,19.3-4.37
		c3.57-1.17,7.03-2.56,10.16-4.23C392.7,640.43,400.12,627.18,380.39,604.15z"/>
	<path class="st2" d="M351.61,606.6c0,0,17.17,3.92,22.27,19.67c5.1,15.75,11.37,72.35,11.92,97.44
		c0.49,22.29,0.55,76.28,0.55,76.28s-7.15,3.57-17.52,0l-21.7-110.5L351.61,606.6z"/>
	<path class="st12" d="M368.62,765.96c0,0-3.74-61.57-0.63-91.84c2.49-24.22-27.83,46.54-25.77,59.41
		C344.29,746.39,368.62,765.96,368.62,765.96z"/>
	<path class="st13" d="M219.99,1048.52c0,0-10.41,9.5-8.38,16.26c2.03,6.75,11.43,11.25,12.7,19.51
		c1.27,8.25,6.35,12.75,10.92,12.75c4.57,0,21.8,0,21.8,0s3.37-5.81-4.76-7.56c-8.13-1.75-11.19-11.45-10.68-20.45
		c0.51-9-0.76-21.01-0.76-21.01l-17.27-4L219.99,1048.52z"/>
	<path class="st13" d="M308.13,1052.55c0,0-3.75,40.26,0.83,42.51l58.51-0.12c0,0,0-6.75-9.4-8.25c-9.4-1.5-25.91-7-28.7-19.26
		C326.57,1055.18,308.13,1052.55,308.13,1052.55z"/>
	<path class="st2" d="M263.12,652.98c0,0-0.87,12.29,0,27.04c0.58,9.78,10.47,22.88,11.87,26.11c3.52,8.13,7.49,9.45,7.49,9.45
		l30.72,7.53l10.8,2.64l34.06-10.17c0,0,15.51-43.3,9.29-67.68c-6.23-24.38-15.75-41.3-15.75-41.3s-23.09-5.55-63.99-2.31
		L263.12,652.98z"/>
	<path class="st14" d="M272.11,684.01c0.58,9.78,1.48,18.88,2.88,22.12c3.52,8.13,7.49,9.45,7.49,9.45l30.72,7.53l13.34-3.92
		c0,0-44.54-6.75-39.6-45.07L272.11,684.01z"/>
	<path class="st15" d="M355.9,722.16c0,0,16.87,52.5,17.95,70.38c1.08,17.88-32.24,253.95-33.59,262.18
		c-1.26,7.76-10.91,12.71-10.91,12.71s-4.43,2.62-10.76,0.83c-8.78-2.48-11.56-5.45-11.56-5.45s-13.13-168.36-5-228.51
		c8.13-60.14,8.22-112.15,8.22-112.15H355.9z"/>
	<path class="st16" d="M284.43,720.59c0,0-25.73,34.52-28.13,57.86c-2.4,23.34-3.76,105.32-8.87,128.07
		c-5.11,22.75-23.89,66.54-23.89,137.5c0,0,1.95,4.07,7.98,6.23c1.93,0.69,4.51,1.37,7.02,1.94c4.97,1.14,10.07-1.29,12.34-5.86
		c12.69-25.56,53.13-107.99,55.2-125.11c1.47-12.11,14.23-92.25,42.08-139.28c6.69-11.29-4.1-56.19-4.1-56.19L284.43,720.59z"/>
	<path class="st13" d="M358.6,714.05c0,0-6.77,5.36-20.22,5.63c-16.07,0.32-55.89-4.1-55.89-4.1s-1.77,4.94-1.7,10.16
		c0,0,48.63,12.27,76.81,1.79C357.59,727.54,361.23,720.7,358.6,714.05z"/>
	<g>
		<path class="st9" d="M349.03,722.15c-0.44-1.27-1.15-2.38-2.06-3.25c-0.05-0.05-0.1-0.09-0.15-0.14
			c-0.53-0.49-1.12-0.89-1.75-1.19c-0.87-0.42-1.83-0.65-2.84-0.65c-2.17,0-4.12,1.07-5.44,2.77c-0.59,0.72-1.05,1.55-1.36,2.46
			c-0.03,0.07-0.06,0.14-0.07,0.21c-0.28,0.81-0.43,1.69-0.45,2.6c-0.01,0.09-0.01,0.17-0.01,0.26c0,2.49,0.97,4.73,2.51,6.25
			c1.28,1.28,2.97,2.05,4.82,2.05c1.2,0,2.34-0.33,3.34-0.92c1.03-0.59,1.91-1.45,2.57-2.49c0.9-1.37,1.42-3.06,1.42-4.89
			C349.56,724.13,349.38,723.1,349.03,722.15z M342.23,731.09h-0.07c-0.1,0-0.2-0.01-0.29-0.02c-2.54-0.22-4.54-2.76-4.54-5.85
			v-0.05c0.01-1.1,0.27-2.14,0.73-3.02c0.13-0.26,0.27-0.5,0.44-0.73c0.64-0.9,1.5-1.57,2.48-1.87c0.4-0.13,0.82-0.2,1.25-0.2
			c0.18,0,0.36,0.01,0.53,0.04c0.45,0.05,0.88,0.18,1.28,0.38c0.12,0.06,0.24,0.12,0.35,0.19c0.83,0.49,1.53,1.25,2.01,2.19
			c0.46,0.9,0.73,1.95,0.73,3.07c0,2-0.83,3.76-2.11,4.81c-0.43,0.37-0.91,0.64-1.42,0.83
			C343.17,731.01,342.71,731.09,342.23,731.09z"/>
	</g>
	
		<rect x="251.71" y="665.93" transform="matrix(-0.7542 -0.6567 0.6567 -0.7542 32.4689 1434.438)" class="st17" width="66.06" height="90.43"/>
	<path class="st6" d="M293.72,723.71c0,0,19.5,1.72,19.44,6.05c-0.06,4.33-6.18,11.89-9.07,11.89c-6.6,0-13.83-9.88-13.83-9.88
		L293.72,723.71z"/>
	<path class="st2" d="M287.62,604.29c0,0-24.37,1.71-33.71,24.42c-9.34,22.71-27.07,60.84-27.07,67.26c0,6.41,9.9,26.19,63.08,37.56
		c0,0,5.5-5.79,5.17-10.36c0,0-33.19-28.51-33.11-31.84c0.17-6.3,5.44-14.62,34.59-43.78C304.49,639.62,287.62,604.29,287.62,604.29
		z"/>
	<path class="st6" d="M296.65,724.12c0,0,4.42-0.99,7.31-1.01c2.89-0.02,6.35-0.58,6.37,0.39c0.04,1.8-5.77,2.42-5.77,3.25
		C304.56,727.58,296.65,724.12,296.65,724.12z"/>
	<g>
		<path class="st6" d="M301.62,603.94c1.81-3.41,7.01-20.73,6.97-29.73l1.54,0.26l25.93,4.35c0,0-0.59,6.91-0.61,13.43
			c0,0.05,0,0.11,0,0.16c-0.03,5.66,0.07,8.44-1.06,15.45c-0.51,3.16-10.11,4.32-20.97,2.69
			C309.56,609.96,300.42,606.19,301.62,603.94z"/>
		<path class="st8" d="M336.07,578.81c0,0-0.59,6.91-0.61,13.43c-14.51-0.35-22.18-11.56-25.32-17.78L336.07,578.81z"/>
		<path class="st6" d="M340.91,586.92c0,0-34.33,0.57-34.36-20.82c-0.02-21.39-4.47-35.72,17.45-36.98
			c21.92-1.27,26.19,6.89,27.93,14.03C353.68,550.28,349.84,586.23,340.91,586.92z"/>
		<path class="st5" d="M339.64,528.6c0,0-9.4,25.09-23.83,28.8c-14.43,3.71-20.68-0.16-20.68-0.16s11.07-8.79,13.36-24.14
			C308.49,533.11,332.55,516.65,339.64,528.6z"/>
		<path class="st5" d="M337.31,530.63c0,0,6.97,2.61,9.84,7.69c2.81,4.97,5.2,11.56,4.64,19.63c0,0,7.08-17.05-0.88-26.7
			C342.48,521.03,337.31,530.63,337.31,530.63z"/>
	</g>
</g>
<g>
	<path class="st17" d="M639.49,1092.68c-4.95-3.02-2.13-25.55-2.13-25.55s23.06-18.45,26.23-4.32c3.17,14.12,21.91,20.46,32.57,22.2
		c7.36,1.19,9.64,5.27,10.35,7.68H639.49z"/>
	<path class="st17" d="M539.26,1092.68c-4.95-3.02-2.13-25.55-2.13-25.55s23.06-18.45,26.23-4.32c3.17,14.12,21.91,20.46,32.57,22.2
		c7.36,1.19,9.64,5.27,10.35,7.68H539.26z"/>
	<path class="st18" d="M555.34,769.94c0,22.2,8.62,53.47,8.62,53.47c6.57,31.82,63.57,248.73,69.06,250.79
		c9.16,3.45,32.5-3.79,32.13-7.05c-17.77-159.44-24.03-291.75-25.06-296.88C637.17,768.03,566.37,745.21,555.34,769.94z"/>
	<path class="st6" d="M620.8,497.51c0,0-15.57-16.99-20.39-17.56c-4.81-0.57-24.63,8.93-25.77,12.68s21.8-3.75,23.08,0
		c1.27,3.75,2.69,6.3,9.2,6.58c6.51,0.28,12.18,3.96,12.18,3.96L620.8,497.51z"/>
	<path class="st6" d="M590.4,570.58l-0.02,4c0,0,0.89,12.51-11.75,14.34c-12.64,1.83-22.22-4.88-21.88-14.54
		c1.14-7.48,2.39-12.61,2.47-18.8c0.03-2.3-0.1-4.74-0.45-7.49l24.5-0.6l7.21,1.44L590.4,570.58z"/>
	<path class="st8" d="M590.49,548.93l-0.07,16.11c-27.74-2.07-31.29-14.19-31.64-16.95l24.5-0.6L590.49,548.93z"/>
	<path class="st6" d="M595.93,559.45c0,0-38.24,7.73-42.68-16.16c-4.44-23.89-12.37-38.98,11.85-44.92
		c24.23-5.94,30.68,2.29,34.1,9.9C602.62,515.88,605.76,556.83,595.93,559.45z"/>
	<path class="st19" d="M618.83,749.94c-41.62,189.55-46.96,321.69-46.96,321.69s-12.48,3.65-37.36,0.55c0,0-5.7-83.97-8.6-146.87
		c-0.85-18.44-9.54-127.32,2.44-180.1C533.18,723.93,623.56,728.42,618.83,749.94z"/>
	<path class="st2" d="M641.24,771.24c0,0-12.36,11.25-45.01,11.04c-20.52-0.13-48.27-4.91-60.68-7.48
		c-16.7-3.46-14.04-9.5-12.69-21.87c1.74-15.85,2.43-44.58-6.48-93.27c-1.31-7.19-2.84-14.81-4.6-22.88
		c-7.5-34.37,35.71-54.29,41.29-62.4c31.74,29.11,40.6,2.11,40.6,2.11l0.01-0.01c0.32,0,15.04,2.13,28.5-5.91
		c12.86-7.69,11.77,41.48,11.79,57.36c0.02,17.05,3.56,59.09,4.05,77.62C638.65,729.59,641.24,771.24,641.24,771.24z"/>
	<path class="st2" d="M693.86,543.17c-0.27,1.38-0.64,2.82-1.12,4.33c0,0.01-0.01,0.01-0.01,0.01
		c-9.4,29.83-48.61,63.98-53.82,75.11c-3.06,6.54-4.32,25.82-4.22,25.22L605.96,583c0,0,41.37-31.09,43.11-35.5
		c2.63-6.68-37.84-43.39-37.84-43.39s-2.02-3.18,0.46-9.01c1.94-4.55,5.16-5.86,5.16-5.86S696.71,528.48,693.86,543.17z"/>
	<path class="st12" d="M523.52,716.63c-2.93-20.06-3.07-24.62-10.29-73.3c2.72,0.55,12.17-4.03,16.76,3.78
		C543.33,669.78,547.69,687.15,523.52,716.63z"/>
	<path class="st6" d="M513.12,726.32c0,0,19.85-12,26-10.48c6.15,1.52,19.5,7.32,18.67,10.87c-0.83,3.55-16.33,5.97-19.03,5.55
		c-2.7-0.42-7.05,0.07-8.82,1.6c-1.77,1.52-15.84,2.09-17.55-2.02C510.67,727.71,513.12,726.32,513.12,726.32z"/>
	<path class="st2" d="M553.06,574.38c0,0-30.35,5.93-42.16,15.69c-12.07,9.98-56.33,69-53.53,89.45
		c2.84,20.75,52.06,52.87,52.06,52.87s9.66,3.21,10-12.18c0,0-25.97-38.39-24.6-42.83c0.86-2.79,39.13-33.49,39.13-33.49
		L553.06,574.38z"/>
	<path class="st13" d="M618.72,738.5c-0.19,5.18-2.3,10.1-5.93,13.81l-5.7,5.83c-1.43,1.46-3.8,1.4-5.15-0.14l-7.91-9.03
		c-2.12-2.42-3.22-5.57-3.08-8.78c0.32-7.16,0.9-20.95,1.24-34.26c0.28-10.78,0.41-21.24,0.13-27.59
		c-0.9-20.26-8.29-84.64-8.29-84.64h4.87c0,0,13.37,24.44,21.47,58.23c2,8.32,3.67,17.19,4.75,26.42
		C615.12,678.34,619.58,715.09,618.72,738.5z"/>
	<path class="st13" d="M577.26,588.66l13.53-3.24c0,0,1.77,0.15,1.72,2.36c-0.05,2.2-3.81,8.64-5.48,9.16
		C585.37,597.45,574.06,593.12,577.26,588.66z"/>
	<path class="st12" d="M547.48,574.97c-0.11-2.11,10.07-5.48,10.07-5.48s7.65,17.14,26.48,17.41c0,0-5.37,10.45-11.69,13.15
		C572.34,600.06,548.11,587.49,547.48,574.97z"/>
	<path class="st12" d="M584.04,586.91c0,0,6.33-9.92,6.36-16.33c0,0,7.31,2.06,12.91,6.32c0,0-0.78,12.33-5.6,18.52
		C597.71,595.41,591.49,589.84,584.04,586.91z"/>
	<path class="st5" d="M537.05,528.49c5.82,19.57,19.28,22.3,19.28,22.3s-1.14-2.28-1.77-8.22c-0.08-0.75,0.12-1.82,0.44-2.89
		c0.75-2.51,0.68-5.16-0.17-7.64c-0.57-1.68-0.57-3.3,0.83-4.1c2.24-1.28,4.96,1.06,6.66,2.95c1.12,1.25,2.87,1.73,4.46,1.21
		c0.01,0,0.02-0.01,0.03-0.01c6.6-2.19,0.59-17.19,7.8-16.87c23.82,1.04,25.94-2.67,29.81-6.64c2.79-2.87,1.63-12.67-2.23-13.73
		c-4.02-1.11-9.87-2.93-16-6.32c-17.99-9.92-33.77-0.02-33.71,0.04C536.79,494.76,533.07,515.11,537.05,528.49z"/>
</g>
<g>
	<path class="st8" d="M885.3,283.17c0,0,31.16,11.8,37.46,21.32c6.3,9.52,7.65,36.98,17.47,44.23c3.06,2.26,41.33,20.67,49.21,18.78
		c5.33-1.28,6.1-16.63-6.6-24.71c-12.86-8.17-26.1-30.7-30.23-41.48c-7.03-18.4-15.45-65.27-9.3-58.81l35.35-25.81l-44.07,3.74
		L885.3,283.17z"/>
	<path class="st8" d="M901,334.25c0,0,19.21,45.91,31.22,61.04c4.82,6.07,22.49,24.47,30.14,23.51c12.64-1.58,8.88-23.29-6.17-41.25
		c-4.12-4.91-12.94-43.72-15.13-62.4c-5.46-46.44-8.72-74.41-8.72-74.41L901,334.25z"/>
	<g>
		<path class="st6" d="M1144.72,29.9c-6.61,10.37-12.74,20.14-18.03,28.72c-2.94,4.79-5.62,9.21-7.96,13.16
			c-3.78,6.37-6.67,11.5-8.39,14.97c-4.4,8.86-12.75,21.2-16.82,34.37v0.02c-0.01,0.02-0.02,0.04-0.03,0.06
			c-10.66,20.37-4.27,34.68-0.54,43.51c9.23,21.91,5.52,62.98-5.21,107.68c-5.85,24.38-6,55.73-5.39,67.8
			c0.2,3.96,1.31,12.82,2.23,22.32c1.29,13.24,2.2,27.72-0.27,31.94c-0.71,1.21-2.6,1.92-5.07,2.19c-6.26,0.73-16.3-1.23-20.63-4.5
			c-12.95-9.78-18.23-32.16-22.3-69.74c-3.87-35.8-13.27-50.06-24.54-61.16c-7.33-7.21-15.79-13.41-31.21-11.89
			c-1.81,0.18-7.6,0.34-14.84,1.83c-7.08,1.46-15.55,4.19-23,9.48c-2.58,1.83-5.05,3.96-7.29,6.47
			c-5.11,5.69-9.06,13.24-10.67,23.27c-0.05,0.32-0.11,0.63-0.17,0.95v0.02c0,0,0,0,0,0.01c-0.7,3.85-1.8,7.69-3.13,11.47
			c-2.66,7.54-6.23,14.93-9.29,22.13c-3,7.09-5.54,14-6.21,20.7v0.01c-0.4,3.99-0.15,7.9,1.06,11.73
			c3.92,12.46,3.87,26.77,4.48,42.32v0.01c0.43,11.24,1.21,23.13,4.1,35.42c6.94,29.58-6.51,39.96-18.36,36.04
			c-0.15-0.05-0.3-0.1-0.45-0.15c-3.71-1.35-11.01-15.55-16.92-28.66c-4.43-9.81-8.08-19.01-8.86-21.76
			c-2.46-8.57-5.18-45.79-15.15-80.61c-7.44-25.97,11.39-80.1,13.56-139.93c1.08-29.77,47.58-61.64,84.12-118.44
			c1.97-3.05,4.46-5.73,6.64-8.64l0.01-0.01c6.22-8.31,12.1-16.86,17.66-25.61c11.59-6.03,23.6-11.49,35.97-16.39
			c8.31-3.29,16.78-6.33,25.41-9.13h0.01c13.69-4.44,27.75-8.27,42.11-11.51C1104.41,15.74,1125.42,22.35,1144.72,29.9z"/>
		<path class="st9" d="M1131.75,60.74l-7.6,13.14l-27.93,48.29l-2.73-0.98L960.05,73.33l0.14-0.34l0.01-0.01l8.67-20.75
			c2.97-1.66,5.96-3.28,8.99-4.86c11.59-6.03,23.6-11.49,35.97-16.39c8.31-3.29,16.78-6.33,25.41-9.13h0.01l87.45,36.76
			L1131.75,60.74z"/>
		<path class="st7" d="M1172.39-2.42l-24.09,40.22l-22.1,36.88l-2.05-0.8l-0.58-0.22l-4.84-1.88h-0.01l-104.89-40.79
			c8.31-3.29,16.78-6.33,25.41-9.13h0.01c13.69-4.44,27.75-8.27,42.11-11.51c20.39-4.6,41.39-8.03,62.8-10.34
			C1153.49-1.02,1162.91-1.82,1172.39-2.42z"/>
		<path class="st7" d="M1091.68,92.13c0.24-3.01,2.87-5.26,5.88-5.02c3.01,0.24,5.26,2.87,5.02,5.88c-0.24,3.01-2.87,5.26-5.88,5.02
			C1093.68,97.78,1091.44,95.14,1091.68,92.13z"/>
	</g>
</g>
<g>
	<path class="st6" d="M1285.28,790.21c0,0-4.06,14.76-0.96,20.74c3.09,5.98,9.04,11.13,11.9,7.74c2.86-3.4-2.71-25.03-2.71-25.03
		L1285.28,790.21z"/>
	<path class="st5" d="M1332.24,496.1c0,0,15.57-1.64,29.38,7.36c13.81,9,12.32,32.22,24.29,37.72c11.97,5.5,31.44,23.34,29.55,39.87
		c-1.89,16.53-7.59,21.8,0.02,31.68c7.62,9.88-5.78,34.43-27.88,26.94c-22.1-7.5-90.98-30.48-97.88-43.5
		c-6.9-13.02-3.35-28.2,3.63-40.65C1300.33,543.08,1285.07,498.77,1332.24,496.1z"/>
	<path class="st8" d="M1310.39,878.71c11.04,71.09,20.05,147.68,15.77,187.96c-3.41,11.27-13.8,14.97-22.97,16.39l6.26,6.9
		l17.73,1.11l23.72-9.2c0,0-1.34-4.68-2.39-12.84c-1.21-9.48,3.29-31.12,3.29-31.12s11.93-74.74,5.45-91.57
		c-1.84-4.78-3.04-10.25-3.77-16.19v-0.01c-1.86-15.12-0.68-33.27,0.69-50.92c1.48-19.17,3.18-37.74,1.44-51.16
		c-7.95-61.24-7.78-114.17-7.78-114.17l-46.44-0.24c0,0-13.36,37.31-7.39,69.4C1299.07,810.33,1304.98,843.85,1310.39,878.71z"/>
	<path class="st2" d="M1305.22,596.42c0,0-10.13,2.56-15.03,14.48c-4.89,11.91-7.07,102.85-7.98,112.65
		c-0.9,9.8,2.12,70.92,2.12,70.92s7.16,2.52,12.51-1.57c19.42-14.85,10.53-97.22,10.53-97.22L1305.22,596.42z"/>
	<path class="st12" d="M1291.74,749.89c0,0-5.24-71.51-2.37-90.04c1.01-6.56,12.76,4.83,14.1,21.6
		C1304.8,698.23,1291.74,749.89,1291.74,749.89z"/>
	<path class="st13" d="M1331.49,1093.66c-10.33-1.34-7.61,1.32-22.1,1.33c-14.48,0.01-19.41-4.84-20.09-6.92
		c-0.6-1.84,6.4-3.3,13.88-5.02l0.27,0.19c0,0,9.08,5.08,21.02,4.03c9.73-0.85,19.71-4.77,26.42-5.41c0.4,2.2,0.8,4.46,0.6,6.73
		C1350.93,1095.05,1341.82,1095,1331.49,1093.66z"/>
	<path class="st6" d="M1336.58,871.48c11.04,71.09,28.51,155.44,24.23,195.72c-3.41,11.27-13.8,14.97-22.97,16.39l6.26,6.9
		l17.73,1.11l23.72-9.2c0,0-1.34-4.68-2.39-12.84c-1.21-9.48,3.3-31.12,3.3-31.12s11.93-74.74,5.45-91.57
		c-1.84-4.78-3.04-10.25-3.77-16.19v0c-1.86-15.12-0.68-33.28,0.69-50.92c1.48-19.17,3.18-37.74,1.44-51.16
		c-7.95-61.24-7.78-114.17-7.78-114.17l-46.44-0.24c0,0-13.35,37.31-7.39,69.4C1333.72,810.86,1331.17,836.63,1336.58,871.48z"/>
	<path class="st13" d="M1366.14,1094.2c-10.33-1.34-7.61,1.32-22.1,1.33c-14.48,0.01-19.41-4.84-20.09-6.92
		c-0.6-1.84,6.4-3.3,13.88-5.02l0.27,0.19c0,0,9.08,5.08,21.02,4.03c9.73-0.85,19.7-4.77,26.42-5.41c0.4,2.2,0.8,4.46,0.6,6.73
		C1385.59,1095.58,1376.47,1095.53,1366.14,1094.2z"/>
	<path class="st2" d="M1395.02,644.09c0,0,0.82,12.51-0.14,27.52c-0.64,9.95-10.78,23.22-12.22,26.51
		c-3.63,8.25-7.67,9.57-7.67,9.57l-31.3,7.5l-11.01,2.63l-34.61-10.53c0,0-15.56-44.15-9.09-68.92
		c6.47-24.77,16.24-41.95,16.24-41.95s39.91-10.16,70.73-0.98L1395.02,644.09z"/>
	<path class="st17" d="M1291.17,793.23c3.61,46.93,7.93,86.47,7.93,86.47s21.8,14.85,52.74,16.89l0,0h0.01
		c14.14,0.93,30.18-0.81,46.93-7.87c0,0,6.96-113.26,3-131.33c-3.96-18.07-21.79-42.99-21.79-42.99l-80.79,2.7
		C1299.2,717.11,1287.56,746.29,1291.17,793.23z"/>
	<path class="st11" d="M1297.53,705.73c0,0,6.86,5.49,20.55,5.83c16.35,0.41,56.89-3.87,56.89-3.87s1.77,5.04,1.67,10.35
		c0,0-49.55,12.23-78.17,1.42C1298.48,719.46,1294.82,712.48,1297.53,705.73z"/>
	<g>
		<path class="st9" d="M1321.55,716.36c-0.05-0.71-0.19-1.39-0.4-2.04c-0.06-0.19-0.13-0.39-0.2-0.58
			c-0.32-0.79-0.74-1.52-1.24-2.16c-1.36-1.73-3.33-2.83-5.53-2.84c-1.77-0.01-3.41,0.68-4.69,1.84c-0.05,0.05-0.1,0.1-0.15,0.14
			c-0.25,0.24-0.49,0.5-0.71,0.77c-0.52,0.65-0.96,1.38-1.28,2.18c-0.4,0.98-0.64,2.05-0.67,3.19c-0.01,0.09-0.01,0.19-0.01,0.29
			c-0.01,1.86,0.52,3.58,1.41,4.98c0.33,0.51,0.7,0.97,1.11,1.38c1.31,1.31,3.02,2.11,4.9,2.12c1.88,0.01,3.6-0.77,4.92-2.07
			c1.57-1.54,2.57-3.8,2.58-6.33C1321.59,716.94,1321.58,716.65,1321.55,716.36z M1314.53,723.14c-0.15,0.01-0.29,0.02-0.43,0.02
			c-0.49,0-0.96-0.09-1.41-0.26c-2.06-0.74-3.56-3.04-3.55-5.74c0-0.13,0-0.25,0.02-0.38c0.06-1.15,0.4-2.21,0.94-3.09
			c0.55-0.92,1.33-1.65,2.23-2.06c0.41-0.2,0.84-0.32,1.29-0.38c0.18-0.02,0.36-0.03,0.54-0.03c0.44,0,0.87,0.07,1.28,0.21
			c0.99,0.31,1.86,1,2.51,1.91c0.09,0.12,0.17,0.25,0.24,0.39c0.48,0.79,0.79,1.72,0.89,2.72c0.03,0.25,0.04,0.5,0.04,0.76
			C1319.1,720.33,1317.08,722.89,1314.53,723.14z"/>
	</g>
	
		<rect x="1339.09" y="657.15" transform="matrix(0.7576 -0.6528 0.6528 0.7576 -126.2063 1066.505)" class="st13" width="67.23" height="92.03"/>
	<path class="st6" d="M1363.5,715.9c0,0-18.59,2.08-18.55,6.49c0.04,4.41,4.56,13.49,6.85,13.91c2.29,0.41,15.18-12.17,15.18-12.17
		L1363.5,715.9z"/>
	<path class="st2" d="M1370.34,594.41c0,0,24.79,1.87,34.18,25.03c9.39,23.16,27.22,62.06,27.19,68.59
		c-0.03,6.53-10.21,26.6-64.39,37.89c0,0-5.57-5.92-5.2-10.57c0,0,33.93-28.84,33.86-32.23c-0.14-6.42-5.46-14.91-34.96-44.73
		C1352.99,630.27,1370.34,594.41,1370.34,594.41z"/>
	<path class="st6" d="M1366.45,593.19c-5.02-1.14-9.16-4.69-10.87-9.55c-2.06-5.85-3.67-14.48-3.57-25.29l-1.57,0.3l-26.42,5.09
		c0,0,0.56,8.31,0.53,16.13c0,0.06,0,0.13,0,0.19c0,6.79-4.49,12.77-11.03,14.62c-3.34,0.95,15.76,26.36,17.96,25.88
		C1336.07,619.55,1368.04,593.55,1366.45,593.19z"/>
	<path class="st8" d="M1324.02,563.74c0,0,0.56,8.31,0.53,16.13c14.77-0.34,22.65-13.77,25.88-21.22L1324.02,563.74z"/>
	<path class="st6" d="M1319.05,571.12c0,0,34.94,0.76,35.07-21.01c0.14-21.76,4.74-36.32-17.56-37.73
		c-22.3-1.4-26.69,6.87-28.5,14.13C1306.25,533.77,1309.97,570.36,1319.05,571.12z"/>
	<path class="st5" d="M1320.65,511.77c0,0,9.43,25.58,24.09,29.44c14.66,3.85,21.05-0.05,21.05-0.05s-11.21-9-13.47-24.63
		C1352.33,516.53,1327.93,499.66,1320.65,511.77z"/>
	<path class="st5" d="M1323.01,513.86c0,0-7.11,2.62-10.05,7.77c-2.88,5.04-5.35,11.73-4.83,19.96c0,0-7.12-17.39,1.03-27.17
		C1317.81,504.05,1323.01,513.86,1323.01,513.86z"/>
	<path class="st12" d="M1331.49,620.56c0,0,23.76-25.12,24.7-35.43c0,0,6.02,1.71,13.07,8.64c0,0-5.75,14.2-12.56,18.86
		c0,0-4.93-0.72-8.81-2.34c0,0,2.45,4.11,4.39,6.56C1352.28,616.84,1341.54,622.86,1331.49,620.56z"/>
	<path class="st12" d="M1323.38,585.92c0,0-9.41,16.99,8.1,34.64c0,0-11.04-2.17-16.67-9.99c0,0,1.78-4.17,3.28-5.13
		c0,0-3.31-1.34-5.4,0.59c0,0-1.22-9.14,0.06-11.92C1314.03,591.33,1320.65,585.82,1323.38,585.92z"/>
	<path class="st13" d="M1333.25,620.57c0-0.97-0.78-1.76-1.75-1.77c-0.97,0-1.76,0.78-1.77,1.75c0,0.97,0.78,1.76,1.75,1.77
		C1332.45,622.33,1333.24,621.54,1333.25,620.57z"/>
	<path class="st13" d="M1323.73,645.48c0-0.97-0.78-1.76-1.75-1.77c-0.97,0-1.76,0.78-1.77,1.75c-0.01,0.97,0.78,1.76,1.75,1.77
		C1322.93,647.23,1323.72,646.45,1323.73,645.48z"/>
	<path class="st13" d="M1321.81,674.73c0-0.97-0.78-1.77-1.75-1.77c-0.97-0.01-1.76,0.78-1.77,1.75c0,0.97,0.78,1.77,1.75,1.77
		C1321.02,676.49,1321.81,675.71,1321.81,674.73z"/>
</g>
</svg>
