<?xml version="1.0" encoding="utf-8"?>
<!-- Generator: Adobe Illustrator 23.0.0, SVG Export Plug-In . SVG Version: 6.00 Build 0)  -->
<svg version="1.1" id="layer" xmlns="http://www.w3.org/2000/svg" xmlns:xlink="http://www.w3.org/1999/xlink" x="0px" y="0px"
	 viewBox="0 0 525 350" style="enable-background:new 0 0 525 350;" xml:space="preserve">
<style type="text/css">
	.st0{fill:#FFFFFF;}
	.st1{fill:#EEEEEE;}
	.st2{opacity:0.4;fill:#223535;}
	.st3{fill:#FCD724;}
	.st4{fill:#172223;}
	.st5{fill:#223535;}
	.st6{fill:#352A23;}
	.st7{fill:#0C161C;}
	.st8{fill:#CEC8C4;}
	.st9{fill:#48545B;}
	.st10{fill:#FFF6EF;}
	.st11{fill:#4A433D;}
	.st12{fill:#CCD3D6;}
	.st13{fill:#231C18;}
	.st14{fill:#616D77;}
	.st15{fill:#2E393F;}
	.st16{fill:#F3F7F9;}
	.st17{opacity:0.5;fill:#FDEF84;}
	.st18{opacity:0.6;fill:#3EDDDD;}
	.st19{fill:#3F5E77;}
	.st20{fill:#152F3F;}
	.st21{fill:#64DD17;}
	.st22{fill:#3F9309;}
	.st23{fill:#EDA55D;}
	.st24{fill:#FDC280;}
	.st25{fill:#EAF3F9;}
	.st26{fill:#080B0C;}
	.st27{fill:#325268;}
	.st28{fill:#231F20;}
	.st29{fill:#46260F;}
	.st30{fill:#351B0A;}
	.st31{fill:#42A304;}
	.st32{fill:#ABBEC9;}
	.st33{fill:#4AAA0C;}
	.st34{fill:#0F2530;}
</style>
<rect class="st0" width="525" height="350"/>
<rect y="237.17" class="st1" width="525" height="112.83"/>
<path class="st2" d="M221.07,295.5c0-3.38-8.76-6.11-19.57-6.11s-19.57,2.74-19.57,6.11c0,1.49,1.71,2.85,4.54,3.91
	c-0.94,0.64-1.47,1.34-1.47,2.09c0,2.76,7.16,5,16,5s16-2.24,16-5c0-0.66-0.41-1.28-1.15-1.85
	C219.08,298.56,221.07,297.1,221.07,295.5z"/>
<path class="st2" d="M184.6,272.59c1.21-0.54,1.9-1.17,1.9-1.84c0-2.07-6.6-3.75-14.75-3.75c-8.15,0-14.75,1.68-14.75,3.75
	c0,0.75,0.88,1.45,2.39,2.04c-1.2,0.51-1.89,1.09-1.89,1.71c0,1.93,6.6,3.5,14.75,3.5c8.15,0,14.75-1.57,14.75-3.5
	C187,273.79,186.11,273.14,184.6,272.59z"/>
<path class="st2" d="M478.88,269.99c1.24-0.56,1.95-1.2,1.95-1.89c0-2.13-6.78-3.85-15.15-3.85c-8.37,0-15.15,1.72-15.15,3.85
	c0,0.77,0.91,1.49,2.45,2.1c-1.23,0.52-1.94,1.12-1.94,1.76c0,1.99,6.78,3.59,15.15,3.59c8.37,0,15.15-1.61,15.15-3.59
	C481.35,271.22,480.43,270.55,478.88,269.99z"/>
<path class="st2" d="M245.1,285.09c1.21-0.54,1.9-1.17,1.9-1.84c0-2.07-6.6-3.75-14.75-3.75c-8.15,0-14.75,1.68-14.75,3.75
	c0,0.75,0.88,1.45,2.39,2.04c-1.2,0.51-1.89,1.09-1.89,1.71c0,1.93,6.6,3.5,14.75,3.5c8.15,0,14.75-1.57,14.75-3.5
	C247.5,286.29,246.61,285.64,245.1,285.09z"/>
<path class="st2" d="M153.51,288.27c-0.46-2.07-6.88-3.75-14.34-3.75c-7.46,0-13.12,1.68-12.66,3.75c0.25,1.13,2.29,2.14,5.3,2.83
	c-0.4,0.51-0.56,1.06-0.43,1.64c0.53,2.35,5.54,4.25,11.2,4.25c5.66,0,9.82-1.9,9.3-4.25c-0.15-0.68-0.69-1.32-1.51-1.9
	C152.52,290.18,153.73,289.28,153.51,288.27z"/>
<path class="st2" d="M486.61,267.95c0.47-1.54,6.17-2.58,12.75-2.34c6.57,0.25,11.52,1.69,11.06,3.23
	c-0.22,0.74-1.73,1.48-4.75,1.95c0.34,0.39,0.46,0.81,0.33,1.25c-0.53,1.74-5,3-10,2.81c-4.99-0.19-8.61-1.75-8.08-3.49
	c0.15-0.51,0.65-0.97,1.38-1.37C487.43,269.41,486.38,268.69,486.61,267.95z"/>
<path class="st2" d="M426.07,272.89c0.28-1.9,6.09-3.4,12.97-3.36c6.89,0.04,12.24,1.62,11.96,3.52c-0.15,1.04-1.96,1.95-4.69,2.57
	c0.41,0.47,0.59,0.98,0.52,1.51c-0.31,2.15-4.81,3.87-10.04,3.84c-5.23-0.03-9.21-1.8-8.9-3.96c0.09-0.63,0.54-1.21,1.26-1.73
	C427.13,274.65,425.94,273.81,426.07,272.89z"/>
<path class="st2" d="M343.13,298.27c0-2.07-6.04-3.75-13.5-3.75c-7.46,0-13.5,1.68-13.5,3.75c0,1.13,1.81,2.14,4.66,2.83
	c-0.51,0.51-0.8,1.06-0.8,1.64c0,2.35,4.59,4.25,10.25,4.25c5.66,0,10.25-1.9,10.25-4.25c0-0.68-0.4-1.32-1.09-1.9
	C341.71,300.18,343.13,299.28,343.13,298.27z"/>
<path class="st2" d="M313.13,281.27c0-2.07-6.04-3.75-13.5-3.75c-7.46,0-13.5,1.68-13.5,3.75c0,1.13,1.81,2.14,4.66,2.83
	c-0.51,0.51-0.8,1.06-0.8,1.64c0,2.35,4.59,4.25,10.25,4.25c5.66,0,10.25-1.9,10.25-4.25c0-0.68-0.4-1.32-1.09-1.9
	C311.71,283.18,313.13,282.28,313.13,281.27z"/>
<path class="st2" d="M42.1,272.3c0.77-0.25,1.21-0.53,1.21-0.83c0-1.13-6.31-2.05-14.09-2.05s-14.09,0.92-14.09,2.05
	c0,0.55,1.47,1.04,3.86,1.41c-2.09,0.6-3.35,1.36-3.35,2.18c0,1.98,7.23,3.59,16.14,3.59c8.91,0,16.14-1.61,16.14-3.59
	C47.93,273.95,45.66,272.96,42.1,272.3z"/>
<path class="st2" d="M396.46,272.3c-0.77-0.25-1.21-0.53-1.21-0.83c0-1.13,6.31-2.05,14.09-2.05c7.78,0,14.09,0.92,14.09,2.05
	c0,0.55-1.47,1.04-3.86,1.41c2.09,0.6,3.35,1.36,3.35,2.18c0,1.98-7.23,3.59-16.14,3.59c-8.91,0-16.14-1.61-16.14-3.59
	C390.63,273.95,392.9,272.96,396.46,272.3z"/>
<path class="st2" d="M78.94,274c1.57-0.48,2.44-1.05,2.34-1.66c-0.26-1.66-7.47-3.01-16.11-3.01s-15.42,1.35-15.15,3.01
	c0.12,0.75,1.68,1.44,4.14,1.97c-2.54,0.67-4.01,1.55-3.86,2.52c0.34,2.12,8.37,3.84,17.95,3.84s17.07-1.72,16.73-3.84
	C84.81,275.71,82.49,274.71,78.94,274z"/>
<path class="st2" d="M386.2,291.5c1.97-0.48,3.12-1.05,3.12-1.66c0-1.66-8.37-3.01-18.7-3.01c-10.33,0-18.7,1.35-18.7,3.01
	c0,0.75,1.73,1.44,4.58,1.97c-3.16,0.67-5.09,1.55-5.09,2.52c0,2.12,9.29,3.84,20.75,3.84s20.75-1.72,20.75-3.84
	C392.91,293.21,390.32,292.21,386.2,291.5z"/>
<path class="st2" d="M118.72,277.25c-0.4-3.18-7.88-5.75-16.72-5.75s-15.68,2.57-15.28,5.75c0.17,1.4,1.72,2.68,4.15,3.67
	c-0.38,0.5-0.57,1.02-0.5,1.58c0.35,2.76,6.67,5,14.13,5s13.22-2.24,12.88-5c-0.08-0.67-0.53-1.31-1.25-1.9
	C117.89,279.66,118.88,278.5,118.72,277.25z"/>
<ellipse class="st3" cx="271.1" cy="319.83" rx="95.85" ry="21.11"/>
<path class="st4" d="M489.92,161.57l-3.47-24.37c0.11-0.24,0.17-0.47,0.18-0.67c0.06-1.6-0.7-3.27-2.2-4.84
	c-0.1-0.11-0.23-0.21-0.34-0.32c-0.07-0.07-0.15-0.13-0.22-0.2c-0.18-0.17-0.36-0.33-0.56-0.49c-1.64-1.38-3.88-2.61-6.53-3.53
	c-0.23-0.08-0.45-0.16-0.68-0.24c-0.03-0.01-0.05-0.02-0.07-0.02c-0.93-0.31-1.87-0.59-2.82-0.81l-0.02,0.09
	c-0.17-0.04-0.33-0.07-0.5-0.11l-2.05-2.18l-0.15,0.19l-0.01-1.57c2.52-2.15,4.2-6,4.2-10.39c0-1.76-0.04-3.49-0.25-5.08
	c3.26-7.42-4.33-9.24-6.94-8.7v0.08c-0.41-0.2-0.88-0.4-1.42-0.6c-1.95-0.72-8.73-2.72-10.17,2.48c-1.29,4.64,0.1,5.78,1.39,6.65
	c-0.24,1.61-0.3,3.37-0.3,5.16c0,4.23,1.56,7.96,3.92,10.15v1.8l-1.37,2.06c-4.69,1-9.14,2.99-11.63,5.57c-1.4,1.45-2.15,3-2.2,4.49
	c-0.2,0.4-0.36,0.81-0.46,1.21l-4.46,23.13c-0.07,0.28-0.09,0.56-0.09,0.84c0,0,0,0.01,0,0.01l1.61,27.97c0,0.13,0.38,0.18,1,0.14
	c0.06,0.24,0.12,0.49,0.16,0.67c0,0,0.05-0.02,0.13-0.05c0,0.08-0.01,0.14-0.04,0.17c-0.9,0.62-1.3,2.91-1.1,4.64
	c-1.79,0.13-3.2,1.61-3.2,3.43v0.75h-3.83c-1.38,0-2.5,1.55-2.5,3.46v9.69v6.28c0,1.91,1.12,3.46,2.5,3.46h20.73h0.73
	c0.2,2.31,0.33,3.86,0.33,4.07l0,39.93l0.17,0.03c-0.26,0.47-1.1,2.09-1.77,2.95c-1.76,2.27-2.93,3.33-2.43,3.62
	c-0.12,0.27-0.07,0.43,0.24,0.48c2.31,0.37,4.72-0.67,6.23-2.59c0.51-0.71,2.01-1.21,2.21-1.9c0-0.02-0.03-0.13-0.07-0.29
	c0.02-0.05,0.06-0.09,0.07-0.14c0.01-0.05-0.32-1.11-0.42-1.39l0.11,0.02l3.4-41.18l-0.29-3.18l0.19-1.49l0.39-26.9l1.17,0.01
	l0.03,0.04l0.56,27.03l0.23,1.4l-0.19,3.11l2.7,41.27l0.11-0.02c-0.13,0.38-0.39,1.23-0.38,1.28c0.01,0.05,0.05,0.09,0.07,0.14
	c-0.04,0.16-0.08,0.27-0.07,0.29c0.2,0.69,1.7,1.19,2.21,1.9c1.51,1.92,3.92,2.96,6.23,2.59c0.31-0.05,0.36-0.21,0.24-0.48
	c0.5-0.29-0.67-1.35-2.43-3.62c-0.66-0.85-1.49-2.45-1.76-2.94l0.12-0.02l0.79-40.33c0-0.26,2.75-27.59,2.75-31.88
	c0-0.64-0.01-1.28-0.01-1.92l0.17-0.11l-0.18-0.32c-0.04-2.47-0.12-4.88-0.23-7.01l0.67-0.04c0-0.27,0.23-25.33,1.74-34.72
	l2.36,13.09c0.02,0.51,0.13,0.99,0.3,1.44l-0.48,23.41c0,0,0.28-0.02,0.74,0l-0.45,1.17c0.02,0,0.03,0,0.05,0
	c-0.08,0.21-0.17,0.43-0.26,0.67c-0.31,0.17-1.52,0.85-2.14,1.6c-0.63,0.75,0.08,2.45,0.47,3.13c-0.12,0.45-0.19,0.79-0.16,0.95
	c0,0,0,0,0,0c-0.15,0.49-1.85,3.68-1.85,4.01c0,0.62,2.71,1.63,4.4,1.59c0.58-0.01,3.45-3.21,3.8-3.79
	c1.25-1.08,1.63-5.57,0.63-6.69c-0.04-0.04-0.04-0.15-0.03-0.27c0.09-0.33,0.26-0.85,0.36-1.17c0.55,0.25,0.84,0.44,0.84,0.44
	l1.84-23.41C490.55,164.41,490.46,162.93,489.92,161.57z M451.84,199.1h-10.88v-0.75c0-0.95,0.78-1.73,1.73-1.73h0.29
	c0.2,0.6,0.53,1.08,1.06,1.22c1.63,0.44,5.28,0.32,5.43-0.29c0.06-0.24,0.07-0.57,0.06-0.93h0.57c0.95,0,1.73,0.78,1.73,1.73V199.1z
	 M453.57,199.1v-0.75c0-1.91-1.55-3.46-3.46-3.46h-0.15c0.55-0.7,1.19-1.79,0.85-2.5c-0.42-0.87-2.2-2.36-2.46-2.6
	c-0.03-0.2-0.05-0.37-0.09-0.54c0.05,0.01,0.1,0.01,0.15,0.02l-0.24-0.76c0.38-0.15,0.6-0.28,0.6-0.38c0,0-0.01-0.01-0.01-0.01
	l0.01,0l-0.57-24.86c0.11-0.22,0.2-0.46,0.27-0.7l3.18-16.23c0.29,0.72,0.55,1.45,0.71,2.21c1.37,6.2,1.78,24.37,1.9,32.2
	c-0.06,4.28-0.1,10.34,0.08,12.97c0.05,0.7,0.22,2.71,0.46,5.39H453.57z"/>
<path class="st4" d="M268.85,201.1h-4.52v-0.88c0-2.15-1.67-3.89-3.78-4.05c0.24-2.04-0.24-4.74-1.3-5.47
	c-0.04-0.03-0.05-0.1-0.05-0.2c0.1,0.04,0.15,0.06,0.15,0.06c0.05-0.22,0.12-0.51,0.19-0.79c0.72,0.04,1.18-0.02,1.18-0.17l1.89-33
	c0,0,0-0.01,0-0.01c0-0.33-0.03-0.66-0.11-0.99l-5.26-27.29c-0.11-0.46-0.3-0.95-0.54-1.42c-0.06-1.76-0.94-3.59-2.59-5.3
	c-2.94-3.05-8.19-5.4-13.73-6.58l-1.62-2.43v-2.12c2.65-2.46,4.42-6.55,4.6-11.23c0.02,0.1,0.05,0.19,0.07,0.27
	c0.14-1.76,1.26-3.67,1.88-5.53c1.95-5.84,1.53-12.79-2.62-17.39c-4.69-5.21-13.39-4.16-18.34,0.09c-3.22,2.76-5.2,6.71-4.89,11
	c0.26,3.71,1.42,8.17,3.06,11.44c0,0,0-0.05,0.01-0.13c0.12,4.97,2.07,9.3,4.94,11.76l-0.01,1.85l-0.17-0.23l-2.42,2.58
	c-0.2,0.04-0.39,0.09-0.59,0.13l-0.03-0.1c-1.12,0.26-2.23,0.59-3.33,0.96c-0.03,0.01-0.06,0.02-0.09,0.03
	c-0.27,0.09-0.54,0.18-0.8,0.28c-3.13,1.09-5.77,2.53-7.71,4.16c-0.23,0.19-0.44,0.39-0.66,0.58c-0.08,0.08-0.18,0.16-0.26,0.24
	c-0.13,0.13-0.28,0.25-0.4,0.37c-1.78,1.85-2.67,3.82-2.6,5.71c0,0.04,0.01,0.08,0.02,0.11l-8.94,22.57
	c-1.82,3.19-1.45,6.58,0.52,9.18l12.62,24.67l0,0c0.07,0.14,0.5-0.01,1.13-0.37c0.18,0.22,0.37,0.44,0.5,0.61
	c0.07,0.13,0.12,0.25,0.1,0.31c-0.57,1.68,1.88,6.39,3.73,7c0.15,0.11,0.53,0.32,1.01,0.57c-0.01,0.96-0.03,1.93-0.03,2.91
	c0,5.06-4.41,34.57-4.41,34.88l11.71,50.33l0.14,0.03c-0.32,0.57-1.3,2.46-2.08,3.46c-2.08,2.68-3.46,3.93-2.87,4.27
	c-0.14,0.32-0.08,0.51,0.28,0.57c2.72,0.44,5.57-0.79,7.35-3.05c0.6-0.84,2.38-1.43,2.61-2.24c0.01-0.02-0.03-0.16-0.08-0.34
	c0.03-0.05,0.07-0.1,0.08-0.16c0.02-0.05-0.3-1.07-0.45-1.51l0.13,0.03l-7.6-48.69l-0.22-3.67l0.27-1.66l8.32-31.89l0.04-0.04
	l1.38-0.01l0.46,31.74l0.23,1.76l-0.34,3.75l0.8,48.59l0.12-0.02c-0.12,0.33-0.51,1.58-0.49,1.64c0.02,0.05,0.05,0.11,0.08,0.16
	c-0.05,0.18-0.09,0.32-0.08,0.34c0.23,0.81,2.01,1.4,2.61,2.24c1.78,2.26,4.63,3.49,7.35,3.05c0.36-0.06,0.42-0.25,0.28-0.57
	c0.59-0.34-0.79-1.59-2.87-4.27c-0.78-1.01-1.77-2.92-2.09-3.48l0.2-0.04l3.22-47.12c0-0.25,0.15-2.08,0.39-4.81h25.33
	c0.61,0,1.18-0.26,1.65-0.7c0.79-0.73,1.3-1.98,1.3-3.38l0-18.84C271.8,202.92,270.48,201.1,268.85,201.1z M207.74,153.93
	c0.37-0.45,0.65-0.98,0.81-1.57l6.5-14.51c0.5,1.07,0.91,2.18,1.16,3.33c1.55,7.09,2.1,27.37,2.28,37.17L207.74,153.93z
	 M247.41,200.22v0.88h-1.46c0.28-3.17,0.48-5.54,0.54-6.36c0.21-3.1,0.16-10.24,0.09-15.3c0.14-9.24,0.63-30.68,2.25-38
	c0.2-0.89,0.49-1.76,0.84-2.61l3.75,19.15c0.08,0.29,0.18,0.57,0.32,0.83l-0.68,29.33l0.01,0c0,0-0.01,0.01-0.01,0.01
	c0,0.12,0.27,0.28,0.71,0.45l-0.28,0.9c0.06-0.01,0.12-0.02,0.18-0.02c-0.04,0.2-0.07,0.41-0.1,0.64c-0.31,0.28-2.4,2.04-2.9,3.07
	c-0.41,0.84,0.35,2.13,1,2.95h-0.17C249.24,196.13,247.41,197.96,247.41,200.22z M262.28,201.1h-12.83v-0.88
	c0-1.13,0.92-2.04,2.04-2.04h0.67c-0.01,0.43,0,0.82,0.07,1.1c0.18,0.71,4.48,0.85,6.41,0.34c0.63-0.17,1.01-0.73,1.26-1.44h0.34
	c1.13,0,2.04,0.92,2.04,2.04V201.1z"/>
<path class="st4" d="M330.86,174.79l3.89-22.89c0,0-0.27-0.03-0.74-0.08l0.01-0.04c0,0-0.34-0.02-0.92-0.06
	c-0.58-0.06-1.29-0.14-2.1-0.23l0.03-0.22c0.19-1.7,0.17-3.06-0.04-4.11c0-0.01,0-0.01,0-0.02l-6.92-33.49
	c0.26-0.21,0.5-0.42,0.7-0.65c-0.39-0.44-0.74-0.87-1.1-1.3l-0.03-0.13c-0.21-0.4-0.45-0.88-0.71-1.36c-0.06-0.7-0.48-1.37-1.21-2
	c-0.37-0.5-0.74-0.89-1.11-1.05c-0.18-0.11-0.38-0.21-0.58-0.32c-5.56-8.63-5.05-15.11-4.14-19.19
	c4.63-20.88-10.95-26.46-15.24-23.41c-4.29-3.05-19.95,2.55-15.24,23.41c1.46,6.47,3.69,11.6,6.34,15.63l-0.05,0.05
	c0,0-6.45,0.64-11.53,3.46c-1.27,0.65-2.2,1.36-2.73,2.13c-0.68,0.63-1.2,1.43-1.47,2.35l-4.29,31.65
	c-0.15,0.93-0.26,1.84-0.31,2.71l-0.07,0.04c-0.05,0.73-0.01,31.55,0.14,32.67c0.05,0,0.1,0,0.15-0.01c-0.1,0.17-0.18,0.3-0.23,0.33
	c-1.04,0.72-1.37,3.39-1.06,5.39c-2.05,0.18-3.67,1.88-3.67,3.98v0.87h-4.45c-1.6,0-2.91,1.8-2.91,4.02v11.25h0v7.29
	c0,1.39,0.51,2.61,1.28,3.33c0.15,0.14,0.32,0.27,0.49,0.37c0.35,0.2,0.73,0.32,1.13,0.32h22.17c0.51,2.44,1.02,4.52,1.47,6.01h1.28
	l8.85,59.65c-0.06,0.12-0.15,0.32-0.24,0.57c-0.42,0.73-1.26,2.22-1.35,2.83c-0.12,0.81-0.38,3.1,0.29,3.38
	c0.67,0.29,3.47,0.33,3.85,0.1c0.3-0.19,0.86-1.22,1.13-2.1c0.26,0.88,0.83,1.91,1.13,2.1c0.38,0.24,3.18,0.19,3.85-0.1
	c0.67-0.29,0.41-2.57,0.29-3.38c-0.09-0.61-0.93-2.1-1.35-2.83c-0.1-0.25-0.19-0.45-0.24-0.57l8.85-59.65h0.76
	c2.06-7.26,5.2-26.29,5.52-35.56c0.39,0.24,0.81,0.4,1.22,0.37c1.91,0.08,4.39-0.35,5.22-1.08c0.44-0.39,0.79-0.89,1.09-1.42
	c2.19-0.15,3.71-0.29,3.71-0.29L330.86,174.79z M320.87,150.44c-3.13-0.3-5.91-0.53-7.17-0.55c0.13-5.58,0.97-12.3,3.24-19.67
	c0.1-0.25,0.19-0.5,0.3-0.75l3.16,16.48c0.11,0.51,0.24,1.1,0.4,1.7c-0.02,0.13-0.03,0.26-0.04,0.38L320.87,150.44z M279.88,145.1
	l2.94-15.72c3.81,10.14,3.15,24.67,1.43,36.04l0,0c-1.06,2.78-3.68,10.48-3.9,18.76c-0.35-0.1-0.7-0.17-1.08-0.17h-0.17
	c0.63-0.81,1.38-2.08,0.98-2.91c-0.49-1.01-2.55-2.74-2.85-3.02C277.2,176.92,279.08,154.56,279.88,145.1z M268.66,188.04
	c0-1.11,0.9-2.01,2.01-2.01H271c0.24,0.7,0.62,1.25,1.23,1.41c1.89,0.51,6.13,0.37,6.31-0.33c0.07-0.28,0.08-0.66,0.07-1.08h0.66
	c0.4,0,0.77,0.12,1.08,0.32c0,0.17,0,0.34,0.01,0.51c0.03,0.64,0.07,1.33,0.12,2.05h-11.82V188.04z M299.97,280.7
	C299.97,280.71,299.97,280.71,299.97,280.7L299.97,280.7c-0.01,0.01-0.2,1.29-0.34,2.53c-0.14-1.23-0.34-2.52-0.34-2.52l-0.01,0
	c0,0,0-0.01,0-0.01l-0.36-59.21h1.39L299.97,280.7z"/>
<path class="st4" d="M198.15,190.1c0-0.19-0.08-0.35-0.2-0.46l0-0.49c0.11-0.1,0.19-0.26,0.19-0.44c0-0.19-0.08-0.35-0.2-0.45l0-0.5
	c0.11-0.1,0.18-0.26,0.18-0.44c0-0.19-0.08-0.34-0.19-0.45l-0.01-0.51c0.11-0.1,0.18-0.26,0.18-0.43c0-0.18-0.08-0.34-0.19-0.44
	l-0.23-23.07c0,0,0-0.01,0-0.01c0-0.29-0.02-0.57-0.1-0.86l-4.17-23.26c-0.05-0.18-0.11-0.37-0.18-0.56c0-0.03,0.01-0.06,0.01-0.08
	c0.06-1.63-0.71-3.34-2.25-4.94c-2.07-2.15-5.47-3.88-9.24-5.01c0,0-0.01-0.01-0.01-0.01l0,0.01c-0.91-0.27-1.84-0.52-2.78-0.71
	l-1.65-2.48l-0.03,0.04v-1.56c2.36-2.1,3.96-5.67,4.13-9.79c0.01,0.05,0.03,0.11,0.04,0.16c0.92-1.89,2.1-7.36,1.6-9.71
	c0,0,3.07-5.62-7.06-9.14c-6.91-2.4-16.63,2.1-14.06,7.66c-2.34,3.03,1.4,10.5,1.4,10.5s0.02-0.03,0.05-0.08
	c0.02,4.36,1.66,8.18,4.13,10.38l0,0.44h0l-0.01,1.1l-2.33,2.48c-1.06,0.25-2.12,0.56-3.16,0.92l0,0c0,0,0,0,0,0
	c-3.36,1.17-6.44,2.87-8.29,4.8c-1.49,1.55-2.26,3.21-2.25,4.8c-0.11,0.26-0.2,0.53-0.26,0.78l-4.17,23.26
	c-0.07,0.29-0.1,0.58-0.1,0.86c0,0,0,0.01,0,0.01l-0.23,23.07c-0.11,0.1-0.19,0.26-0.19,0.44c0,0.18,0.07,0.33,0.18,0.43l0,0.51
	c-0.11,0.1-0.19,0.26-0.19,0.45c0,0.18,0.07,0.34,0.18,0.44l0,0.5c-0.12,0.1-0.2,0.26-0.2,0.45c0,0.19,0.08,0.34,0.19,0.44l0,0.49
	c-0.12,0.1-0.2,0.26-0.2,0.46c0,0.19,0.08,0.35,0.2,0.45l-0.01,1.15c0,0.13,0.39,0.18,1.02,0.15c0.06,0.24,0.12,0.48,0.16,0.67
	c0,0.13-0.01,0.24-0.04,0.28c-1.08,1.08-0.99,5.68,0.22,6.86c0.32,0.62,0.75,1.08,1.35,1.13c1.72,0.14,5.36-0.64,5.4-1.27
	c0.02-0.33-0.05-0.78-0.17-1.29c0,0,0,0,0,0c0.04-0.16-0.01-0.52-0.1-0.98c0-0.01,0.01-0.01,0.01-0.02l0,0c0,0,0.01-0.02,0.01-0.03
	c0.44-0.7,1.23-2.32,0.65-3.11c-0.58-0.8-1.77-1.57-2.08-1.77c-0.08-0.25-0.15-0.48-0.22-0.69c0.02,0,0.03,0,0.05,0l-0.24-0.78
	c0.38-0.15,0.61-0.29,0.61-0.39c0,0-0.01-0.01-0.01-0.01l0.01,0l1.3-26.04c0.13-0.24,0.24-0.5,0.32-0.78l2.57-14.03l0.31-1.46
	c0.04,0.12,0.09,0.23,0.13,0.35c0.13,0.39,0.24,0.79,0.33,1.19c1.79,8.16,2.04,36.55,2.04,36.84l0.38,0.02
	c-0.13,2.81-0.24,6.07-0.24,9.33c0,4.38,2.81,32.27,2.81,32.53l3.5,41.16l0.12,0.02c-0.28,0.49-1.12,2.13-1.8,3
	c-1.8,2.32-2.99,3.4-2.48,3.69c-0.12,0.27-0.07,0.44,0.24,0.49c2.35,0.38,4.82-0.68,6.36-2.64c0.52-0.73,2.05-1.24,2.25-1.94
	c0-0.02-0.03-0.13-0.07-0.29c0.03-0.05,0.06-0.09,0.07-0.14c0.01-0.05-0.26-0.92-0.39-1.3l0.11,0.02l0.05-42.11l-0.13-2.09l0,0
	l-0.07-1.08l0.23-1.43l0.57-27.5c0.41,0,0.82,0,1.23,0l0.4,27.32l0.2,1.52l0,0l-0.05,0.37c0,0.01,0.01,0.01,0.02,0.02l-0.26,2.85
	l0.69,42.02l0.11-0.02c-0.1,0.28-0.44,1.36-0.42,1.42c0.01,0.05,0.05,0.09,0.07,0.14c-0.05,0.16-0.08,0.28-0.07,0.29
	c0.2,0.7,1.73,1.21,2.25,1.94c1.54,1.96,4,3.02,6.36,2.64c0.31-0.05,0.36-0.21,0.24-0.49c0.51-0.29-0.69-1.37-2.48-3.69
	c-0.68-0.88-1.53-2.53-1.8-3.01l0.17-0.03l2.78-40.75c0-0.97,2.7-29.87,2.9-33.02c0.13-1.93,0.14-5.67,0.12-9.25l0.21-0.01
	c0-0.28,0.2-28.49,1.99-36.6c0.11-0.5,0.26-0.98,0.42-1.46l0.33,1.54c0.01-0.02,0.02-0.05,0.03-0.07l2.52,13.72
	c0.07,0.28,0.18,0.54,0.32,0.78l1.3,26.04c0,0,0,0,0.01,0c0,0-0.01,0.01-0.01,0.01c0,0.1,0.23,0.24,0.61,0.39l-0.24,0.78
	c0.02,0,0.03,0,0.05,0c-0.07,0.22-0.15,0.45-0.22,0.69c-0.31,0.19-1.49,0.97-2.08,1.77c-0.58,0.79,0.21,2.42,0.65,3.11
	c0,0.01,0.01,0.02,0.01,0.03l0,0c0,0.01,0.01,0.02,0.01,0.02c-0.09,0.46-0.14,0.82-0.1,0.98c0,0,0,0,0,0
	c-0.12,0.5-0.19,0.96-0.17,1.29c0.04,0.63,3.68,1.42,5.4,1.27c0.59-0.05,1.03-0.51,1.35-1.13c1.2-1.18,1.3-5.77,0.22-6.86
	c-0.04-0.04-0.05-0.15-0.04-0.28c0.04-0.19,0.1-0.43,0.16-0.67c0.62,0.03,1.02-0.01,1.02-0.15l-0.01-1.15
	C198.07,190.44,198.15,190.28,198.15,190.1z"/>
<path class="st4" d="M93.01,156.84l-3.79-26.6c0.12-0.27,0.19-0.51,0.2-0.73c0.07-1.75-0.76-3.57-2.41-5.28
	c-0.11-0.12-0.25-0.23-0.37-0.35c-0.07-0.07-0.16-0.14-0.24-0.22c-0.2-0.18-0.39-0.36-0.61-0.54c-1.79-1.51-4.23-2.84-7.13-3.85
	c-0.25-0.09-0.49-0.18-0.74-0.26c-0.03-0.01-0.05-0.02-0.08-0.03c-1.01-0.34-2.04-0.65-3.08-0.89l-0.03,0.1
	c-0.18-0.04-0.36-0.08-0.54-0.12l-2.24-2.38l-0.16,0.21l-0.01-1.71c2.75-2.35,4.59-6.55,4.59-11.34c0-7.37-0.62-14.18-9.66-14.18
	c-8.74,0-9.66,6.81-9.66,14.18c0,4.62,1.7,8.69,4.28,11.08v1.96l-1.5,2.25c-5.12,1.09-9.98,3.26-12.7,6.08
	c-1.53,1.59-2.34,3.27-2.4,4.9c-0.22,0.44-0.4,0.89-0.5,1.32l-4.87,25.25c-0.08,0.31-0.1,0.62-0.1,0.92c0,0,0,0.01,0,0.01
	l1.75,30.53c0,0.14,0.42,0.19,1.09,0.16c0.06,0.26,0.13,0.53,0.17,0.74c0,0,0.05-0.02,0.14-0.06c0,0.09-0.01,0.16-0.05,0.18
	c-0.98,0.68-1.42,3.18-1.2,5.06c-1.95,0.15-3.5,1.76-3.5,3.75v0.81H33.5c-1.51,0-2.73,1.69-2.73,3.78v10.58v6.85
	c0,2.09,1.22,3.78,2.73,3.78h22.63h0.8c0.22,2.53,0.36,4.22,0.36,4.45l0,43.59l0.18,0.03c-0.29,0.51-1.2,2.28-1.93,3.22
	c-1.92,2.48-3.2,3.64-2.66,3.95c-0.13,0.29-0.07,0.47,0.26,0.52c2.52,0.41,5.16-0.73,6.8-2.82c0.56-0.78,2.2-1.32,2.41-2.07
	c0-0.02-0.03-0.14-0.08-0.32c0.03-0.05,0.06-0.1,0.08-0.15c0.02-0.05-0.35-1.21-0.45-1.51l0.12,0.02l3.71-44.95l-0.32-3.47
	l0.21-1.63l0.43-29.36l1.27,0.01l0.04,0.04l0.61,29.51l0.25,1.53l-0.21,3.39l2.94,45.04l0.12-0.02c-0.14,0.41-0.43,1.35-0.41,1.39
	c0.01,0.05,0.05,0.1,0.08,0.15c-0.05,0.17-0.08,0.3-0.08,0.32c0.21,0.75,1.86,1.3,2.41,2.07c1.64,2.09,4.28,3.23,6.8,2.82
	c0.34-0.05,0.39-0.23,0.26-0.52c0.54-0.31-0.73-1.47-2.66-3.95c-0.72-0.93-1.63-2.68-1.92-3.2l0.13-0.03l0.86-44.02
	c0-0.28,3-30.12,3-34.8c0-0.7-0.01-1.4-0.01-2.09l0.18-0.12l-0.19-0.35c-0.04-2.7-0.14-5.33-0.25-7.65l0.73-0.04
	c0-0.29,0.25-27.65,1.9-37.89l2.58,14.29c0.02,0.56,0.15,1.08,0.32,1.58l-0.52,25.55c0,0,0.3-0.02,0.81,0l-0.49,1.28
	c0.02,0,0.04,0,0.06,0c-0.09,0.23-0.19,0.47-0.29,0.73c-0.34,0.18-1.66,0.93-2.33,1.74c-0.68,0.82,0.09,2.67,0.51,3.42
	c-0.13,0.49-0.21,0.87-0.18,1.04l0,0c-0.17,0.53-2.02,4.02-2.02,4.37c0,0.68,2.96,1.77,4.8,1.74c0.64-0.01,3.76-3.5,4.15-4.14
	c1.36-1.18,1.78-6.08,0.69-7.31c-0.04-0.05-0.04-0.16-0.03-0.3c0.1-0.36,0.28-0.93,0.39-1.27c0.6,0.28,0.92,0.48,0.92,0.48
	l2.01-25.56C93.69,159.94,93.6,158.32,93.01,156.84z M49.55,193.21h-0.16c0.6-0.76,1.3-1.96,0.92-2.73
	c-0.46-0.95-2.4-2.58-2.68-2.84c-0.03-0.21-0.06-0.41-0.09-0.59c0.06,0.01,0.11,0.01,0.17,0.02l-0.26-0.83
	c0.41-0.16,0.66-0.31,0.66-0.42c0,0-0.01-0.01-0.01-0.01l0.01,0l-0.63-27.13c0.12-0.24,0.22-0.5,0.29-0.77l3.47-17.71
	c0.32,0.78,0.6,1.59,0.78,2.41c1.49,6.77,1.95,26.6,2.08,35.15c-0.06,4.68-0.11,11.29,0.09,14.15c0.05,0.76,0.24,2.95,0.5,5.88
	h-1.35v-0.81C53.33,194.9,51.64,193.21,49.55,193.21z M39.57,196.98c0-1.04,0.85-1.89,1.89-1.89h0.31c0.22,0.65,0.58,1.17,1.16,1.33
	c1.78,0.48,5.77,0.35,5.93-0.31c0.06-0.26,0.08-0.62,0.07-1.02h0.62c1.04,0,1.89,0.85,1.89,1.89v0.81H39.57V196.98z"/>
<path class="st5" d="M134.53,157.19l-10.06-22.96c-0.06-0.24-0.14-0.49-0.24-0.74c0.05-0.17,0.09-0.32,0.1-0.47
	c0.07-1.78-0.78-3.64-2.45-5.38c-2.64-2.74-7.51-5.06-12.42-6.22l0,0l-2.82-2.14l-0.08,0.1l0-0.34c3.17-2.32,5.39-6.61,4.62-11.58
	c0.03-0.41,0.04-0.82,0.05-1.24c0.03,0.05,0.05,0.09,0.05,0.09s4.08-8.13,1.53-11.43c1.14-2.46,0.07-4.73-2.11-6.38l0,0c0,0,0,0,0,0
	c-4.18-2.64-11.1-5-11.35-6.04c-0.92,0.64-1.99,2.27-2.06,2.84c-0.28-0.85-0.43-1.99-0.43-1.99c-0.78,0.64-3.4,2.41-4.11,4.33
	c0-0.64,0.07-1.91,0.07-1.91s-6.66,4.65-2.93,11.91c0.21,2.3,0.76,7.48,1.61,9.35c-0.01,0.11-0.01,0.22-0.01,0.33
	c-0.53,5.21,1.47,9.35,4.42,11.64v0.19l-0.05-0.06l-1.48,2.33c-5.28,1.1-10.31,3.33-13.11,6.24c-1.67,1.74-2.52,3.6-2.45,5.38
	c0,0.07,0.02,0.14,0.03,0.21c-0.15,0.34-0.27,0.67-0.35,1l-5.54,25.39c-0.22,0.91-0.09,1.82,0.28,2.63c0,0.01,0,0.02,0,0.03
	l12.06,27.2c0.02,0.08,0.05,0.14,0.07,0.16c0.18,0.13,0.65,1.24,1.26,0.85c0.38,1.23,1.1,2.59,1.88,3.5
	c0.02,1.12,0.06,2.09,0.1,2.82c0.23,3.42-1.63,32.67-1.63,33.73l11.39,28.11l-0.96,20.87l0.12-0.02c-0.14,0.42-0.44,1.37-0.42,1.42
	c0.01,0.05,0.05,0.1,0.08,0.15c-0.05,0.17-0.08,0.3-0.08,0.32c0.22,0.76,1.89,1.32,2.45,2.11c1.67,2.13,4.36,3.29,6.92,2.87
	c0.34-0.06,0.4-0.23,0.27-0.53c0.25-0.14,0.14-0.45-0.26-0.99c2.07-1.08,3.53-3.24,3.86-5.67c0.09-0.97,1.25-2.3,1.05-3.06
	c0-0.02-0.1-0.11-0.23-0.24c0-0.06,0.01-0.12-0.01-0.17c-0.01-0.06-0.93-0.88-1.18-1.1l0.11-0.04l-5.25-16.11l3.43-26.26
	c0-0.29,6.17-30.51,6.17-35.27c0-3.75-0.13-7.49-0.29-10.66l0.57-0.03c0-0.08,0.02-2.46,0.09-6.04c0.1-0.34,0.14-0.66,0.1-0.91
	c-0.01-0.06,0.05-0.16,0.14-0.27c0.15-0.14,0.36-0.32,0.56-0.49c0.53,0.43,0.91,0.64,0.99,0.52l17.08-14.31
	C136.16,163.75,136.25,160.2,134.53,157.19z M125.99,159.45c0.06,0.23,0.15,0.45,0.25,0.66l-11.15,10.35
	c0.3-9.14,0.86-19.73,1.88-24.35c0.31-1.43,0.88-2.8,1.56-4.09L125.99,159.45z M85.46,143.93c0.32,0.79,0.6,1.6,0.78,2.43
	c1.54,6.98,1.99,27.56,2.12,36.09l-6.7-21.27L85.46,143.93z M91.54,107.07c0.01-0.06,0.03-0.12,0.04-0.18
	c0.03,0.79,0.11,1.56,0.23,2.31c-0.15-0.61-0.24-1.32-0.28-2.14C91.54,107.06,91.54,107.07,91.54,107.07z M105.51,276.24l0.18-0.06
	c0.01,0.6,0.12,2.62-0.03,3.82c-0.17,1.34-0.37,2.4-0.49,3.2c-0.34-0.41-0.7-0.86-1.11-1.38c-0.73-0.95-1.66-2.73-1.96-3.26
	l0.13-0.03l1.03-7.84L105.51,276.24z M95.59,230.05l0.38-5.36l4.74-27.49l1.3,0.01l0.04,0.04l-2.49,29.88l0.25,1.56l-0.21,3.46
	l-0.41,8.94L95.59,230.05z"/>
<path class="st4" d="M435.88,156.02l-9.44-21.54c-0.06-0.23-0.14-0.46-0.23-0.69c0.05-0.16,0.09-0.3,0.09-0.44
	c0.07-1.67-0.73-3.41-2.3-5.04c-2.47-2.57-7.05-4.75-11.65-5.84l0,0l-2.65-2l-0.07,0.1l0-0.32c2.97-2.18,5.06-6.2,4.33-10.86
	c0.03-0.38,0.04-0.77,0.04-1.16c0.03,0.05,0.05,0.09,0.05,0.09s3.83-7.63,1.43-10.73c1.07-2.31,0.06-4.43-1.98-5.98l0,0c0,0,0,0,0,0
	c-3.93-2.48-10.41-4.69-10.64-5.67c-0.86,0.6-1.86,2.13-1.93,2.66c-0.27-0.8-0.4-1.86-0.4-1.86c-0.73,0.6-3.19,2.26-3.86,4.06
	c0-0.6,0.07-1.8,0.07-1.8s-6.25,4.36-2.75,11.17c0.2,2.16,0.72,7.02,1.51,8.77c-0.01,0.1-0.01,0.21-0.01,0.31
	c-0.5,4.88,1.38,8.77,4.15,10.92v0.18l-0.05-0.06l-1.39,2.19c-4.95,1.03-9.67,3.12-12.3,5.85c-1.57,1.63-2.36,3.38-2.3,5.04
	c0,0.06,0.02,0.13,0.03,0.2c-0.14,0.32-0.25,0.63-0.33,0.94l-5.2,23.82c-0.21,0.85-0.09,1.71,0.26,2.47c0,0.01,0,0.02,0,0.03
	l11.32,25.51c0.02,0.08,0.04,0.13,0.07,0.15c0.17,0.12,0.61,1.16,1.18,0.8c0.36,1.15,1.03,2.43,1.76,3.29
	c0.02,1.05,0.05,1.96,0.1,2.65c0.21,3.21-1.53,30.64-1.53,31.64l10.69,26.37l-0.9,19.57l0.11-0.02c-0.13,0.39-0.41,1.29-0.39,1.33
	c0.01,0.05,0.05,0.09,0.07,0.14c-0.05,0.16-0.08,0.29-0.07,0.3c0.2,0.72,1.77,1.24,2.3,1.98c1.57,2,4.09,3.09,6.49,2.7
	c0.32-0.05,0.37-0.22,0.25-0.5c0.23-0.13,0.13-0.42-0.24-0.93c1.95-1.02,3.31-3.04,3.62-5.32c0.08-0.91,1.17-2.15,0.98-2.87
	c0-0.02-0.09-0.11-0.22-0.22c0-0.05,0-0.11-0.01-0.16c-0.01-0.05-0.87-0.83-1.11-1.03l0.11-0.04l-4.93-15.11l3.22-24.63
	c0-0.27,5.79-28.62,5.79-33.09c0-3.51-0.12-7.02-0.27-10l0.54-0.03c0-0.08,0.02-2.31,0.09-5.66c0.09-0.32,0.13-0.62,0.1-0.86
	c-0.01-0.06,0.05-0.15,0.13-0.26c0.14-0.13,0.34-0.3,0.53-0.46c0.5,0.4,0.85,0.6,0.93,0.49l16.02-13.42
	C437.41,162.17,437.49,158.83,435.88,156.02z M427.87,158.13c0.06,0.22,0.14,0.42,0.24,0.62l-10.46,9.71
	c0.29-8.57,0.81-18.51,1.76-22.85c0.29-1.34,0.82-2.63,1.46-3.83L427.87,158.13z M389.85,143.58c0.3,0.74,0.56,1.5,0.73,2.28
	c1.44,6.55,1.87,25.86,1.99,33.86l-6.28-19.95L389.85,143.58z M395.55,109c0.01-0.06,0.03-0.11,0.04-0.17
	c0.03,0.74,0.1,1.46,0.22,2.16C395.68,110.42,395.59,109.75,395.55,109C395.55,108.99,395.55,109,395.55,109z M408.66,267.69
	l0.17-0.06c0.01,0.56,0.11,2.46-0.03,3.58c-0.16,1.25-0.34,2.26-0.46,3c-0.32-0.39-0.66-0.8-1.04-1.29
	c-0.69-0.89-1.55-2.56-1.84-3.06l0.12-0.03l0.96-7.36L408.66,267.69z M399.35,224.36l0.36-5.03l4.45-25.79l1.22,0.01l0.03,0.04
	l-2.33,28.03l0.24,1.46l-0.2,3.24l-0.39,8.38L399.35,224.36z"/>
<path class="st6" d="M486.8,172.41c0.04-0.04,0.07-0.08,0.11-0.13c0,0.08,0,0.16,0,0.24L486.8,172.41z"/>
<path class="st6" d="M166.84,95.01c0-2-1.62-3.63-3.63-3.63c-0.11,0-0.22,0.01-0.33,0.02c0.53-0.47,0.87-1.16,0.87-1.93
	c0-1.43-1.16-2.58-2.58-2.58c-0.01,0-0.02,0-0.02,0c0.33-0.55,0.52-1.19,0.52-1.88c0-2-1.62-3.63-3.63-3.63
	c-0.91,0-1.74,0.34-2.38,0.89c-0.06-1.38-1.19-2.48-2.58-2.48c-0.15,0-0.29,0.02-0.43,0.04c-0.56-1.27-1.84-2.16-3.32-2.16
	c-0.95,0-1.82,0.37-2.47,0.97c-0.53-0.95-1.54-1.6-2.7-1.6c-1.14,0-2.13,0.62-2.67,1.54c-0.65-0.64-1.55-1.04-2.54-1.04
	c-1.56,0-2.9,0.99-3.41,2.38c-0.25-0.08-0.52-0.13-0.8-0.13c-1.39,0-2.52,1.1-2.58,2.48c-0.64-0.56-1.47-0.89-2.38-0.89
	c-2,0-3.63,1.62-3.63,3.63c0,0.69,0.19,1.33,0.52,1.88c-0.01,0-0.01,0-0.02,0c-1.43,0-2.58,1.16-2.58,2.58
	c0,0.77,0.34,1.46,0.87,1.93c-0.11-0.01-0.22-0.02-0.33-0.02c-2,0-3.63,1.62-3.63,3.63c0,1.55,0.97,2.86,2.33,3.39
	c-0.7,0.46-1.16,1.25-1.16,2.16c0,1.04,0.62,1.94,1.51,2.35c-0.91,0.66-1.51,1.73-1.51,2.94c0,2,1.62,3.63,3.63,3.63
	c0.02,0,0.03,0,0.05,0c-0.11,0.29-0.17,0.59-0.17,0.92c0,1.43,1.16,2.58,2.58,2.58c0.11,0,0.22-0.01,0.32-0.02
	c-0.05,0.24-0.07,0.48-0.07,0.73c0,2,1.62,3.63,3.63,3.63c0.59,0,1.15-0.14,1.64-0.39c0.3,1.09,1.3,1.89,2.49,1.89
	c0.86,0,1.61-0.42,2.08-1.06c0.47,0.64,1.23,1.06,2.08,1.06c0.58,0,1.11-0.19,1.54-0.51c0.43,0.32,0.96,0.51,1.54,0.51
	c0.83,0,1.57-0.39,2.04-1c0.47,0.61,1.21,1,2.04,1c0.81,0,1.53-0.37,2-0.95c0.47,0.58,1.19,0.95,2,0.95c1.19,0,2.18-0.8,2.49-1.89
	c0.49,0.25,1.05,0.39,1.64,0.39c2,0,3.63-1.62,3.63-3.63c0-0.25-0.03-0.49-0.07-0.73c0.11,0.01,0.21,0.02,0.32,0.02
	c1.43,0,2.58-1.16,2.58-2.58c0-0.32-0.06-0.63-0.17-0.92c0.02,0,0.03,0,0.05,0c2,0,3.63-1.62,3.63-3.63c0-1.21-0.6-2.29-1.51-2.94
	c0.89-0.41,1.51-1.3,1.51-2.35c0-0.9-0.46-1.69-1.16-2.16C165.88,97.87,166.84,96.55,166.84,95.01z"/>
<g>
	<path class="st7" d="M140.4,288.2c0,0-1.38,2.27-1.49,3.03s-0.36,2.9,0.27,3.17c0.63,0.27,3.25,0.31,3.61,0.09
		c0.36-0.22,1.12-1.73,1.19-2.59c0.07-0.85-0.45-4.26-0.45-4.26L140.4,288.2z"/>
	<polygon class="st8" points="140.42,288.14 143.52,288.14 143.1,219.22 130.19,219.22 	"/>
	<polygon class="st8" points="147.25,288.14 144.15,288.14 144.57,219.22 157.47,219.22 	"/>
	<path class="st9" d="M130.93,232.21h25.33c2.03-7.17,5.2-26.6,5.2-34.63c0-11.08-3.42-18.68-3.42-18.68l-28.18-0.2
		c0,0-4.48,10.44-4.06,21.09C126.15,208.43,129,225.92,130.93,232.21z"/>
	<ellipse class="st10" cx="144.24" cy="128.21" rx="21.43" ry="6.33"/>
	<path class="st11" d="M173.19,162.61l-6.88-33.29c-0.74-1.41-1.81-3.7-2.83-4.13c-3.56-2.1-10.74-3.51-19.24-3.51
		c-10.57,0-19.14,2.18-21.17,5.16c-0.63,0.59-1.12,1.33-1.37,2.2l-4.01,29.62c-0.58,3.54-0.54,6.88,1.89,7.64
		c0.42,0.13,0.85,0.2,1.29,0.2c2.03,0,3.23,0,3.8-2.08l3.45-18.42c3.57,9.49,2.95,23.09,1.34,33.74l29.19,0.71
		c0,0-4.65-14.9,1.65-34.49l2.98,15.55c0.38,1.78,1.03,4.59,2.57,5.55c0.68,0.43,1.08-1.73,1.88-1.67
		C170.4,165.59,172.99,165.31,173.19,162.61z"/>
	<path class="st12" d="M150.82,150.83v-27.69c-2.26-0.24-4.71-0.37-7.27-0.37c-2.27,0-4.44,0.11-6.48,0.29v27.76H150.82z"/>
	<path class="st11" d="M162.75,124.86c0-0.02,0.01-0.03,0.01-0.05c-3.32-2.35-11.28-2.78-11.28-2.78
		c-0.87,4.87-6.86,30.56-6.86,30.56s-8.36-26.39-8.2-30.99c0,0-6.81,0.68-11.66,3.75c0.03,0.13,0.09,0.24,0.12,0.38
		c1.26,6.03,2.35,11.95,2.8,17.83l0.09-0.3c9.53,19.55,2.09,35.44,2.09,35.44l8.5,4.92l5.32-3.38l5.92,3.26l8.58-3.87
		c0,0-5.72-16.48,3.02-35.61C161.18,137.58,162.35,131.45,162.75,124.86z"/>
	<g>
		<g>
			<g>
				<polygon class="st8" points="148.69,122.36 144.24,129.51 139.51,122.1 139.57,108.09 148.69,108.09 				"/>
				<ellipse class="st8" cx="144.13" cy="102.36" rx="10.89" ry="15.05"/>
			</g>
		</g>
		<polygon class="st12" points="139.53,118.64 136.42,121.61 135.67,127.96 144.24,129.51 		"/>
		<polygon class="st12" points="148.62,118.64 151.47,122.03 151.81,128.26 144.24,129.51 		"/>
	</g>
	<path class="st8" d="M140.46,287.92c0,0-1.42,2.84-0.5,3.96c0.37,0.45,3.7-0.41,3.56-4.22
		C143.38,283.86,140.46,287.92,140.46,287.92z"/>
	<path class="st7" d="M147.27,288.2c0,0,1.38,2.27,1.49,3.03s0.36,2.9-0.27,3.17c-0.63,0.27-3.25,0.31-3.61,0.09
		c-0.36-0.22-1.12-1.73-1.19-2.59c-0.07-0.85,0.45-4.26,0.45-4.26L147.27,288.2z"/>
	<path class="st8" d="M147.21,287.92c0,0,1.42,2.84,0.5,3.96c-0.37,0.45-3.7-0.41-3.56-4.22
		C144.29,283.86,147.21,287.92,147.21,287.92z"/>
</g>
<path class="st6" d="M159.11,100.72c0.14-0.22,0.25-0.47,0.31-0.74c0.26-1.05-0.19-2.11-1.04-2.69c0.09-0.2,0.17-0.41,0.22-0.63
	c0.06-0.24,0.09-0.47,0.1-0.71c0,0-1.57-11.35-8.64-13.08c-16.2-3.95-15.64,7.16-15.64,7.16c-0.04,0.1-0.07,0.21-0.09,0.32
	c-0.09,0.35-0.11,0.7-0.1,1.04c-1.03,0.11-1.92,0.85-2.18,1.91c-0.07,0.27-0.08,0.54-0.06,0.8c-1.02,0.12-1.9,0.85-2.16,1.91
	c-0.33,1.36,0.5,2.72,1.86,3.05c1.36,0.33,2.72-0.5,3.05-1.86c0.07-0.27,0.08-0.54,0.06-0.8c0.94-0.11,1.76-0.75,2.09-1.67
	c0.04,0.01,0.09,0.03,0.13,0.04c1.14,0.28,2.28-0.01,3.14-0.69c0.34,0.42,0.81,0.74,1.37,0.87c0.69,0.17,1.37,0.04,1.93-0.31
	c0.45,0.86,1.25,1.54,2.26,1.78c1.05,0.26,2.11,0,2.91-0.6c0.33,0.6,0.9,1.07,1.62,1.24c0.59,0.14,1.18,0.07,1.69-0.18
	c0.36,1.1,1.26,2,2.48,2.3c0.01,0,0.03,0,0.04,0.01c-0.06,0.9,0.37,1.75,1.1,2.25c-0.14,0.22-0.25,0.47-0.31,0.74
	c-0.33,1.36,0.5,2.72,1.86,3.05c1.36,0.33,2.72-0.5,3.05-1.86C160.41,102.36,159.96,101.3,159.11,100.72z"/>
<g>
	<path class="st13" d="M176.71,167.07c0,0-19.55-2.22-20.37-1.84c-0.82,0.37-4.64,28.27-4.04,30.21c0.61,1.94,19.39,1.16,19.39,1.16
		L176.71,167.07z"/>
	<path class="st6" d="M176.02,166.96c0,0-18.31-1.28-19.17-0.92c-0.86,0.37-4.07,28.34-3.37,30.29c0.7,1.95,18.46,0.31,18.46,0.31
		L176.02,166.96z"/>
</g>
<g>
	<g>
		<path class="st11" d="M164.57,187.22c0,0,4.16-1.74,5.4,1.04c0.27-1.72,1.23-6.41,1.3-7.04l1.95-14.73
			c0.31-2.8,0.04-4.64-0.81-5.62c-0.7-0.8-1.59-0.83-2.13-0.85c-0.09,0-0.17-0.01-0.24-0.01l-2.3-0.25
			c-0.29-0.56-0.97-1.31-1.75-1.33c-1.65-0.04-2.16,2.82-2.4,5.04l0.88,16.96C164.31,181.92,164.65,185.86,164.57,187.22z"/>
	</g>
</g>
<path class="st8" d="M164.91,186.82c0,0-6.08,2.98-3.85,6.82c0.1,0.69,1.54,3.43-1.01,3.66c-0.38,0,1.15,2.07,2.52,1.97
	c1.79,0.07,4.11-0.33,4.88-1.01c2.38-2.11,2.47-6.91,2.52-9.77C170.04,184.75,164.91,186.82,164.91,186.82z"/>
<path class="st14" d="M112.96,200.9v6.33c0,2.08,1.68,3.76,3.76,3.76h8.06c2.08,0,3.76-1.68,3.76-3.76v-6.33
	c0-2.08-1.68-3.76-3.76-3.76h-8.06C114.65,197.14,112.96,198.82,112.96,200.9z M114.84,200.9c0-1.04,0.84-1.88,1.88-1.88h8.06
	c1.04,0,1.88,0.84,1.88,1.88v6.33c0,1.04-0.84,1.88-1.88,1.88h-8.06c-1.04,0-1.88-0.84-1.88-1.88V200.9z"/>
<path class="st8" d="M117.39,192.12c0.24-0.17,1.12-2.18,1.12-2.18c1.63-0.58,4.24,0.12,4.24,0.12s-0.06,0.18,0.12,1.53
	c0.29,0.26,2.21,1.88,2.67,2.83c0.46,0.96-0.72,2.56-1.31,3.18c0.01,0.5-0.01,0.89-0.08,1.05l0,0c0.03,0.55,0.02,1.04-0.06,1.38
	c-0.16,0.66-4.13,0.79-5.9,0.31c-0.61-0.16-0.98-0.73-1.2-1.44C115.95,197.44,116.05,193.05,117.39,192.12z"/>
<path class="st14" d="M106.08,222.82c0,2.08,1.22,3.76,2.72,3.76h23.92c1.5,0,2.72-1.68,2.72-3.76v-17.36
	c0-2.08-1.22-3.76-2.72-3.76H108.8c-1.5,0-2.72,1.68-2.72,3.76V222.82z"/>
<path class="st9" d="M128.6,222.82v-17.36c0-2.08,1.22-3.76,2.72-3.76h2.33c1.5,0,2.72,1.68,2.72,3.76v17.36
	c0,2.08-1.22,3.76-2.72,3.76h-2.33C129.82,226.58,128.6,224.9,128.6,222.82z"/>
<path class="st9" d="M135.44,216v6.82c0,2.08-1.22,3.76-2.72,3.76H108.8c-1.5,0-2.72-1.68-2.72-3.76V216H135.44z"/>
<rect x="113" y="211.62" class="st9" width="6.92" height="2.99"/>
<g>
	<path class="st11" d="M125.69,156.8l-8.35,4.43c-0.05,0.68-0.01,29.53,0.13,30.58c1.92-0.09,3.68-0.14,5.4-0.22
		C122.83,190.2,125.69,156.8,125.69,156.8z"/>
</g>
<path class="st4" d="M473.82,197.62c0,0,1.09,0.1,2.65,0.21c0.22,0.38,0.46,0.74,0.78,1.02c0.59,0.52,2.36,0.83,3.73,0.77
	c0.29,0.02,0.59-0.09,0.87-0.26c0.23,6.62,2.47,20.21,3.94,25.4h0.54l6.32,42.6c-0.04,0.09-0.1,0.23-0.17,0.41
	c-0.3,0.52-0.9,1.59-0.97,2.02c-0.09,0.58-0.27,2.21,0.2,2.42c0.48,0.2,2.48,0.24,2.75,0.07c0.22-0.13,0.62-0.87,0.8-1.5
	c0.19,0.63,0.59,1.37,0.81,1.5c0.27,0.17,2.27,0.14,2.75-0.07c0.48-0.21,0.29-1.84,0.2-2.42c-0.06-0.43-0.66-1.5-0.97-2.02
	c-0.07-0.18-0.13-0.32-0.17-0.41l4.05-27.32l2.27-15.28h0.91c0.32-1.06,0.68-2.56,1.05-4.29H522c0.57,0,1.09-0.32,1.47-0.84
	c0.19-0.26,0.34-0.57,0.44-0.91c0.1-0.34,0.16-0.72,0.16-1.12v-5.2v-8.04c0-1.58-0.93-2.87-2.08-2.87h-3.18v-0.62
	c0-1.5-1.15-2.72-2.62-2.84c0.23-1.43-0.01-3.34-0.76-3.85c-0.04-0.03-0.1-0.12-0.17-0.24c0.04,0,0.07,0,0.11,0
	c0.1-0.8,0.13-22.81,0.1-23.33l-0.05-0.03c-0.03-0.62-0.11-1.27-0.22-1.93l-3.06-22.6c-0.19-0.66-0.57-1.23-1.05-1.68
	c-0.37-0.55-1.04-1.06-1.95-1.52c-3.63-2.01-8.23-2.47-8.23-2.47l-2.37-2.26l0,0l0-0.02c0.36-0.14,0.68-0.36,0.9-0.67
	c0.36,0.49,0.94,0.81,1.59,0.81c0.91,0,1.67-0.61,1.9-1.44c0.38,0.19,0.8,0.3,1.25,0.3c1.53,0,2.77-1.24,2.77-2.77
	c0-0.19-0.02-0.38-0.06-0.56c0.08,0.01,0.16,0.02,0.25,0.02c1.09,0,1.97-0.88,1.97-1.97c0-0.25-0.05-0.48-0.13-0.7
	c0.01,0,0.02,0,0.04,0c1.53,0,2.77-1.24,2.77-2.77c0-0.93-0.45-1.74-1.15-2.25c0.68-0.31,1.15-1,1.15-1.79
	c0-0.69-0.35-1.29-0.89-1.65c1.04-0.4,1.78-1.4,1.78-2.58c0-1.53-1.24-2.77-2.77-2.77c-0.09,0-0.17,0-0.25,0.01
	c0.41-0.36,0.67-0.89,0.67-1.47c0-1.09-0.88-1.97-1.97-1.97c-0.01,0-0.01,0-0.02,0c0.25-0.42,0.4-0.91,0.4-1.43
	c0-1.53-1.24-2.77-2.77-2.77c-0.7,0-1.33,0.26-1.82,0.68c-0.04-1.05-0.91-1.89-1.97-1.89c-0.21,0-0.42,0.04-0.61,0.1
	c-0.39-1.06-1.4-1.82-2.6-1.82c-0.76,0-1.44,0.3-1.94,0.79c-0.41-0.7-1.17-1.18-2.04-1.18c-0.89,0-1.66,0.49-2.06,1.22
	c-0.49-0.46-1.16-0.74-1.88-0.74c-1.13,0-2.1,0.68-2.53,1.65c-0.11-0.02-0.22-0.03-0.33-0.03c-1.06,0-1.92,0.84-1.97,1.89
	c-0.49-0.42-1.12-0.68-1.82-0.68c-1.53,0-2.77,1.24-2.77,2.77c0,0.52,0.15,1.01,0.4,1.43c-0.01,0-0.01,0-0.02,0
	c-1.09,0-1.97,0.88-1.97,1.97c0,0.59,0.26,1.11,0.67,1.47c-0.08-0.01-0.17-0.01-0.25-0.01c-1.53,0-2.77,1.24-2.77,2.77
	c0,1.18,0.74,2.19,1.78,2.58c-0.53,0.35-0.89,0.96-0.89,1.65c0,0.8,0.47,1.48,1.15,1.79c-0.7,0.5-1.15,1.32-1.15,2.25
	c0,1.53,1.24,2.77,2.77,2.77c0.01,0,0.02,0,0.04,0c-0.08,0.22-0.13,0.45-0.13,0.7c0,1.09,0.88,1.97,1.97,1.97
	c0.08,0,0.17-0.01,0.25-0.02c-0.04,0.18-0.06,0.37-0.06,0.56c0,1.53,1.24,2.77,2.77,2.77c0.45,0,0.87-0.11,1.25-0.3
	c0.23,0.83,0.99,1.44,1.9,1.44c0.62,0,1.16-0.28,1.53-0.72c0.19,0.23,0.42,0.41,0.69,0.54v0.12l-2.13,2.53c0,0-5.96,0.32-8.53,2.08
	c-0.22,0.11-0.43,0.22-0.62,0.33c-0.26,0.11-0.53,0.39-0.79,0.75c-0.52,0.45-0.82,0.93-0.86,1.43c-0.18,0.35-0.35,0.68-0.51,0.97
	l-5.25,25.4c0,0.01,0,0.01,0,0.02c-0.15,0.75-0.16,1.72-0.03,2.94l0.02,0.15c-0.58,0.06-1.08,0.12-1.5,0.16
	c-0.41,0.03-0.66,0.05-0.66,0.05l0,0.03c-0.33,0.04-0.53,0.06-0.53,0.06l2.78,16.35L473.82,197.62z M482.91,159.57
	c1.62,5.26,2.22,10.06,2.31,14.05c-0.91,0.01-2.89,0.18-5.12,0.39l0.09-1.71c-0.01-0.09-0.02-0.18-0.03-0.27
	c0.12-0.43,0.21-0.85,0.29-1.22l2.26-11.77C482.77,159.22,482.84,159.39,482.91,159.57z M511.27,193.76
	c-0.22,0.2-1.69,1.43-2.04,2.16c-0.29,0.59,0.25,1.5,0.7,2.08h-0.12c-0.27,0-0.53,0.05-0.77,0.12c-0.16-5.91-2.03-11.41-2.79-13.4h0
	c-1.23-8.12-1.7-18.5,1.02-25.74l2.1,11.23C509.94,176.95,511.29,192.93,511.27,193.76z M517.39,201.48h-8.44
	c0.04-0.51,0.06-1.01,0.08-1.46c0-0.12,0-0.24,0-0.36c0.22-0.14,0.49-0.23,0.77-0.23h0.47c-0.01,0.3,0,0.57,0.05,0.77
	c0.12,0.5,3.15,0.6,4.5,0.24c0.44-0.12,0.71-0.51,0.88-1.01h0.24c0.79,0,1.43,0.64,1.43,1.43V201.48z M494.77,224.76h1l-0.09,14.82
	l-0.16,27.47c0,0,0,0,0,0.01l0,0c0,0-0.14,0.92-0.24,1.8c-0.1-0.88-0.24-1.8-0.24-1.8l0,0c0,0,0,0,0,0L494.77,224.76z"/>
<g>
	<g>
		<g>
			<g>
				<path class="st14" d="M203.05,298.43c-0.02-0.07,0.54-1.86,0.58-1.93c0,0,1.44-1.35,5.2-1.1c0.06,0,1.41,2.75,2.44,4.09
					c2.54,3.31,4.18,4.69,2.96,4.89c-3.06,0.5-6.26-0.89-8.26-3.43C205.3,300,203.31,299.34,203.05,298.43z"/>
			</g>
			<g>
				<path class="st15" d="M203.05,297.87c-0.02-0.08,0.54-1.86,0.59-1.93c0,0,1.45-1.34,5.23-1.09c0.06,0,1.42,2.76,2.46,4.1
					c2.56,3.31,4.22,4.7,2.99,4.89c-3.08,0.49-6.3-0.9-8.31-3.44C205.32,299.44,203.31,298.78,203.05,297.87z"/>
			</g>
		</g>
		<g>
			<g>
				<path class="st14" d="M200.07,298.43c0.02-0.07-0.54-1.86-0.59-1.93c0,0-1.44-1.35-5.2-1.1c-0.06,0-1.41,2.75-2.44,4.09
					c-2.54,3.31-4.18,4.69-2.96,4.89c3.06,0.5,6.26-0.89,8.26-3.43C197.82,300,199.81,299.34,200.07,298.43z"/>
			</g>
			<g>
				<path class="st15" d="M200.07,297.87c0.02-0.08-0.54-1.86-0.59-1.93c0,0-1.45-1.34-5.23-1.09c-0.06,0-1.42,2.76-2.46,4.1
					c-2.56,3.31-4.22,4.7-2.99,4.89c3.08,0.49,6.3-0.9,8.31-3.44C197.8,299.44,199.81,298.78,200.07,297.87z"/>
			</g>
		</g>
		<g>
			<path class="st9" d="M186.53,175.78l15.07,6.03l14.74-5.3c0,0,1,11.41,1,22.78c0,5.68-3.65,41.91-3.65,42.26l-4.55,53.46
				l-5.74,1.18l-0.07-54.7l0.25-4.12l-0.3-1.86l-0.75-35.83l-0.04-0.05l-1.54-0.01l-0.52,35.66l-0.26,1.98l0.38,4.21l-0.9,54.58
				l-5.74-1.06l-3.62-52.93c0-1.26-3.5-38.8-3.77-42.88C186.15,193.52,186.53,175.78,186.53,175.78z"/>
		</g>
		<g>
			<path class="st15" d="M177.45,188.75c0,0.34-1.92,0.98-4.3,1.42c-2.37,0.45-4.3,0.54-4.3,0.2c0-0.34,1.92-0.98,4.3-1.42
				C175.52,188.5,177.45,188.41,177.45,188.75z"/>
			<g>
				<path class="st8" d="M170.32,191.8c0.25-0.25-0.31-2.31-0.31-2.31c1.99-0.7,6.27-1.09,6.27-1.09s0.4,1.19,0.91,2.77
					c0.4,0.25,1.94,1.25,2.7,2.29c0.76,1.05-0.31,3.23-0.88,4.1c0.12,0.6,0.18,1.06,0.14,1.28c0,0,0,0,0,0
					c0.16,0.65,0.25,1.24,0.23,1.67c-0.05,0.82-4.79,1.84-7.02,1.66c-0.77-0.06-1.34-0.66-1.75-1.46
					C169.04,199.17,168.91,193.2,170.32,191.8z"/>
				<path class="st16" d="M176.96,190.26l-0.6-1.92c0,0-4.46,0.46-6.45,1.16c0,0,0.33,1.29,0.47,1.95
					C170.38,191.46,174.19,189.76,176.96,190.26z"/>
			</g>
			<path class="st14" d="M167.86,154.82c-0.65,2.64,1.1,5.36,3.89,6.1l0,0c2.79,0.73,5.6-0.78,6.29-3.4l7.02-31.89
				c0.74-2.82-1.01-5.78-3.93-6.58l0,0c-2.92-0.81-5.97,2.66-6.67,5.5L167.86,154.82z"/>
			<path class="st14" d="M177.44,188.74l0.23-31c0.31-2.82-1.63-5.49-4.35-5.99c-2.73-0.5-5.24,1.37-5.59,4.2l1.12,34.43
				c0,0,1.63-0.93,4.67-1.47C175.84,188.5,177.44,188.74,177.44,188.74z"/>
			<g>
				<path class="st12" d="M217.6,177.79h-30.02c-0.22-11.55-0.83-31.87-2.48-39.39c-1.67-7.57-8.74-13.8-8.82-15.77
					c-0.26-6.56,11.52-13.9,26.31-13.9c14.79,0,26.57,7.34,26.31,13.9c-0.08,1.94-7.13,8.04-8.76,15.47
					C218.49,145.66,217.84,166.17,217.6,177.79z"/>
				<path class="st14" d="M241.28,151.92c0.65,2.64-1.1,5.36-3.89,6.1l0,0c-2.79,0.73-5.6-0.78-6.29-3.4l-12.41-29
					c-0.74-2.82,1.01-5.78,3.93-6.58l0,0c2.92-0.81,5.97,2.66,6.67,5.5L241.28,151.92z"/>
				<polygon class="st8" points="195.23,112.26 201.75,115.04 207.95,111.98 207.87,96.89 195.23,96.89 				"/>
			</g>
			<ellipse class="st8" cx="201.76" cy="91.02" rx="11.73" ry="16.2"/>
			<polygon class="st9" points="200.18,119.12 203.13,119.12 204.16,115.08 199.15,115.08 			"/>
			<polygon class="st9" points="200.18,119.1 203.13,119.1 204.16,137.31 201.42,144.44 199.15,137.31 			"/>
			<polygon class="st16" points="208.02,106.71 211.38,109.26 209.23,117.81 201.75,115.04 			"/>
			<polygon class="st16" points="195.17,106.46 193.41,109.24 194.28,117.75 201.75,115.04 			"/>
			<path class="st14" d="M177.78,116.68c3.34-3.47,9.33-6.13,15.63-7.44l8,34.5l9.91-34.5c5.87,1.38,11.72,4.16,14.88,7.44
				c1.99,2.07,3,4.29,2.92,6.41c-0.04,0.98-0.96,2.19-2.5,4.2c-2.23,2.92-5.29,6.92-6.27,11.41c-2.32,10.6-2.65,47.48-2.65,47.85
				l-12.85,0.73l-3.52-2.74l-3.52,2.61l-11.53-0.61c0-0.37-0.26-37-2.58-47.54c-1.01-4.58-4.08-8.66-6.33-11.64
				c-1.62-2.16-2.47-3.33-2.51-4.27C174.77,120.97,175.78,118.75,177.78,116.68z"/>
			<path class="st15" d="M213.42,162.62c-0.28,0.18,0.23,2.15,1.14,4.38c0.91,2.23,1.89,3.9,2.17,3.71
				c0.28-0.18-0.23-2.15-1.14-4.38C214.68,164.1,213.7,162.44,213.42,162.62z"/>
			<path class="st13" d="M214.77,145.84c0,0-20.77,5.75-21.4,6.45c-0.64,0.7,9.64,29.44,11.23,31.08
				c1.59,1.64,20.07-6.72,20.07-6.72L214.77,145.84z"/>
			<path class="st6" d="M214.02,146.01c0,0-19.05,6.16-19.72,6.86c-0.68,0.71,10.26,29.27,11.95,30.89
				c1.69,1.62,18.71-7.17,18.71-7.17L214.02,146.01z"/>
			<g>
				<g>
					<path class="st8" d="M204.03,166.68c0.15-0.15,0.57-0.36,1.14-0.58c0.42-0.95,1.67-3.04,2.96-2.97
						c1.28,0.07,2.96,0.82,3.39,1.02c1.6-0.43,2.82-0.74,2.82-0.74s2,3.8,2.49,5.86c0,0-2.03,0.65-2.1,1
						c-0.42,1.95-5.49,5.08-7.63,4.61c-0.9,0.09-6.57-0.44-7.04-1.05c-1.37-1.77-2.44-5.45-1.77-5.94
						C198.65,167.62,203.4,166.9,204.03,166.68L204.03,166.68z"/>
					<path class="st0" d="M212.41,163.85l1.94-0.54c0,0,2.04,4,2.53,6.05c0,0-1.26,0.42-1.89,0.66
						C214.99,170.02,214.35,165.9,212.41,163.85z"/>
				</g>
				<path class="st14" d="M213.43,162.62l19.72-8.85c2.13-1.86,6.76-4.25,8.13-1.84c2.04,3.58,1.94,7.82-0.98,8.98l-23.57,9.81
					c0,0-0.1-1.87-1.31-4.72C214.5,163.83,213.43,162.62,213.43,162.62z"/>
			</g>
		</g>
	</g>
	<path class="st11" d="M191.55,66.69c0,0-0.08,1.52-0.08,2.28c0.85-2.28,3.97-4.4,4.9-5.16c0,0,0.17,1.35,0.51,2.37
		c0.08-0.68,1.35-2.62,2.45-3.38c0.29,1.25,8.54,4.06,13.53,7.21c0,0,0,0,0,0l0,0c2.59,1.97,3.87,4.67,2.51,7.61
		c3.04,3.94-1.82,13.63-1.82,13.63s-3.04-5.1-3.49-9.75c-1.7,1.7-17,2.15-17.45,2.33c-0.45,0.18-1.7,4.65-2.59,8.32
		c-1.04-2.14-1.71-8.47-1.97-11.26C183.6,72.24,191.55,66.69,191.55,66.69z"/>
</g>
<path class="st11" d="M189.96,92.44c-0.98,9.59,5.25,16.2,11.73,16.2s13.25-7.2,11.73-16.2c0-0.24-0.02-0.47-0.03-0.71
	c-0.27,8.62-5.4,7.59-11.7,7.59c-6.3,0-11.43,1.03-11.7-7.59C189.97,91.96,189.96,92.2,189.96,92.44z M197.83,102
	c0-0.9,0.73-1.64,1.64-1.64h4.46c0.9,0,1.64,0.73,1.64,1.64c0,0.9-0.73,1.64-1.64,1.64h-4.46C198.56,103.63,197.83,102.9,197.83,102
	z"/>
<g>
	<g>
		<path class="st14" d="M398.55,203.72h-8.82c-2.27,0-4.11,1.84-4.11,4.11v6.92c0,2.27,1.84,4.11,4.11,4.11h8.82
			c2.27,0,4.11-1.84,4.11-4.11v-6.92C402.66,205.56,400.82,203.72,398.55,203.72z M400.6,214.75c0,1.13-0.92,2.06-2.06,2.06h-8.82
			c-1.13,0-2.06-0.92-2.06-2.06v-6.92c0-1.13,0.92-2.06,2.06-2.06h8.82c1.13,0,2.06,0.92,2.06,2.06V214.75z"/>
		<g>
			<g>
				<g>
					<g>
						<path class="st14" d="M369.88,291.32c0.02-0.07-0.49-1.67-0.52-1.73c0,0-1.29-1.21-4.66-0.99c-0.05,0-1.26,2.47-2.19,3.67
							c-2.28,2.96-3.75,4.2-2.66,4.38c2.74,0.45,5.62-0.8,7.4-3.07C367.86,292.73,369.65,292.14,369.88,291.32z"/>
					</g>
					<g>
						<path class="st15" d="M369.88,290.81c0.02-0.07-0.49-1.67-0.52-1.73c0,0-1.3-1.21-4.69-0.98c-0.05,0-1.28,2.47-2.21,3.67
							c-2.3,2.97-3.78,4.21-2.68,4.39c2.76,0.44,5.65-0.81,7.46-3.09C367.84,292.23,369.64,291.63,369.88,290.81z"/>
					</g>
				</g>
				<g>
					<g>
						<path class="st14" d="M372.54,291.32c-0.02-0.07,0.49-1.67,0.52-1.73c0,0,1.29-1.21,4.66-0.99c0.05,0,1.26,2.47,2.19,3.67
							c2.28,2.96,3.75,4.2,2.66,4.38c-2.74,0.45-5.62-0.8-7.4-3.07C374.56,292.73,372.78,292.14,372.54,291.32z"/>
					</g>
					<g>
						<path class="st15" d="M372.54,290.81c-0.02-0.07,0.49-1.67,0.52-1.73c0,0,1.3-1.21,4.69-0.98c0.05,0,1.28,2.47,2.21,3.67
							c2.3,2.97,3.78,4.21,2.68,4.39c-2.76,0.44-5.65-0.81-7.46-3.09C374.58,292.23,372.78,291.63,372.54,290.81z"/>
					</g>
				</g>
				<g>
					<path class="st11" d="M384.69,181.33l-13.51,5.41l-13.22-4.75c0,0-0.9,10.23-0.9,20.43c0,5.1,3.27,37.59,3.27,37.9l4.08,47.94
						l5.15,1.06l0.06-49.06l-0.23-3.7l0.27-1.67l0.67-32.13l0.04-0.04l1.39-0.01l0.47,31.98l0.23,1.77l-0.34,3.77l0.81,48.95
						l5.15-0.95l3.24-47.47c0-1.13,3.14-34.8,3.38-38.46C385.03,197.23,384.69,181.33,384.69,181.33z"/>
				</g>
				<g>
					<path class="st15" d="M391.31,195.67c0,0.3,1.73,0.88,3.85,1.28c2.13,0.4,3.85,0.48,3.85,0.18c0-0.3-1.73-0.88-3.85-1.28
						C393.03,195.45,391.31,195.37,391.31,195.67z"/>
					<g>
						<path class="st8" d="M397.54,198.23c-0.26-0.18,0.43-1.9,0.43-1.9c-1.79-0.63-5.62-0.98-5.62-0.98s-0.34,0.82-0.53,2.29
							c-0.31,0.28-2.42,2.05-2.92,3.09c-0.51,1.05,0.79,2.8,1.43,3.48c-0.01,0.55,0.01,0.97,0.08,1.15c0,0,0,0,0,0
							c-0.04,0.6-0.02,1.14,0.07,1.51c0.18,0.72,4.52,0.86,6.46,0.34c0.67-0.18,1.07-0.8,1.31-1.57
							C399.39,204.05,399.01,199.25,397.54,198.23z"/>
						<path class="st12" d="M391.74,197.03l0.54-1.72c0,0,4,0.41,5.79,1.04c0,0-0.3,1.16-0.42,1.75
							C397.64,198.1,394.23,196.58,391.74,197.03z"/>
					</g>
					<path class="st11" d="M400.81,162.86c0.58,2.37-0.98,4.81-3.49,5.47l0,0c-2.5,0.66-5.02-0.7-5.64-3.05L386,136.34
						c-0.67-2.53,0.91-5.18,3.52-5.9l0,0c2.62-0.72,5.35,2.38,5.98,4.94L400.81,162.86z"/>
					<path class="st11" d="M391.31,195.66l0.7-30.18c-0.28-2.52,1.47-4.92,3.9-5.37c2.45-0.45,4.7,1.23,5.01,3.77l-1.91,33.25
						c0,0-1.46-0.83-4.19-1.31C392.75,195.45,391.31,195.66,391.31,195.66z"/>
					<g>
						<path class="st12" d="M356.82,183.13h26.92c0.2-10.36,0.74-28.58,2.23-35.32c1.49-6.79,7.84-12.37,7.91-14.14
							c0.23-5.88-10.33-12.47-23.6-12.47c-13.26,0-23.82,6.59-23.59,12.47c0.07,1.74,6.39,7.21,7.85,13.87
							C356.03,154.32,356.61,172.71,356.82,183.13z"/>
						<path class="st11" d="M337.33,157.2c-0.58,2.37,0.98,4.81,3.49,5.47l0,0c2.5,0.66,5.02-0.7,5.64-3.05l10.5-23.46
							c0.67-2.53-2.01-5-4.63-5.73l0,0c-2.62-0.72-4.73-0.17-5.35,2.38L337.33,157.2z"/>
						<polygon class="st8" points="376.89,124.36 371.23,126.92 365.48,124.11 365.55,110.58 376.89,110.58 						"/>
					</g>
					<ellipse class="st8" cx="371.03" cy="105.32" rx="10.52" ry="14.53"/>
					<polygon class="st12" points="365.33,119.31 362.61,122.2 364.33,129.28 371.04,126.85 					"/>
					<polygon class="st12" points="376.74,119.31 378.67,122.2 377.74,129.28 371.04,126.85 					"/>
					<path class="st11" d="M392.35,128.6c-2.99-3.11-8.37-5.49-14.02-6.67l-7.17,30.94l-8.88-30.94
						c-5.26,1.23-10.51,3.73-13.34,6.67c-1.79,1.86-2.69,3.85-2.62,5.75c0.03,0.88,0.87,1.97,2.24,3.77c2,2.62,4.74,6.2,5.63,10.24
						c2.08,9.5,2.37,42.58,2.38,42.91l11.52,0.66l3.15-2.45l3.15,2.34l10.34-0.54c0-0.33,0.23-33.18,2.31-42.64
						c0.9-4.11,3.66-7.77,5.67-10.44c1.46-1.93,2.22-2.98,2.25-3.83C395.04,132.44,394.14,130.46,392.35,128.6z"/>
					<path class="st15" d="M356.84,186.59c0.13,0.27-1.16,1.55-2.89,2.85c-1.73,1.3-3.24,2.13-3.38,1.86
						c-0.13-0.27,1.16-1.55,2.89-2.85C355.19,187.15,356.7,186.32,356.84,186.59z"/>
					<g>
						<g>
							<path class="st8" d="M362.2,194.03c-0.05-0.19-0.28-0.54-0.61-0.97c0.11-0.93,0.11-3.11-0.92-3.65
								c-1.02-0.54-2.66-0.73-3.08-0.78c-1.03-1.07-1.83-1.87-1.83-1.87s-3.29,2.01-4.61,3.36c0,0,1.26,1.43,1.16,1.73
								c-0.58,1.69,1.89,6.44,3.75,7.05c0.65,0.48,5.26,2.68,5.9,2.43c1.87-0.74,4.38-3.08,4.1-3.76
								C365.91,197.23,362.58,194.5,362.2,194.03L362.2,194.03z"/>
							<path class="st12" d="M357.05,188l-1.24-1.3c0,0-3.41,2.14-4.73,3.49c0,0,0.78,0.91,1.15,1.38
								C352.23,191.57,354.61,188.69,357.05,188z"/>
						</g>
						<path class="st11" d="M356.83,186.58l-12.21-27.73c-1.91-1.67-6.06-3.81-7.29-1.65c-1.83,3.21-1.46,6.63,0.52,9.25
							l12.72,24.85c0,0,0.94-1.39,3.18-3.03C355.44,187.03,356.83,186.58,356.83,186.58z"/>
					</g>
				</g>
			</g>
			<path class="st6" d="M380.85,83.25c-4.73-5.25-13.49-4.19-18.48,0.09c-3.24,2.78-5.24,6.76-4.93,11.09
				c0.27,3.74,1.43,8.24,3.08,11.53c0,0,0.3-5.23,1.84-8.87c1.52,1.52,17.18,1.62,17.58,1.78c1.36,0.54,1.18,6.16,1.65,7.48
				c0.14-1.77,1.27-3.7,1.89-5.57C385.45,94.88,385.02,87.89,380.85,83.25z"/>
		</g>
		<polygon class="st11" points="364.49,192.04 361.77,192.04 357.4,200.02 362.9,203.49 368.26,199.58 		"/>
		<path class="st14" d="M410.19,231.81c0,2.27-1.33,4.11-2.98,4.11h-26.17c-1.64,0-2.98-1.84-2.98-4.11v-18.98
			c0-2.27,1.33-4.11,2.98-4.11h26.17c1.64,0,2.98,1.84,2.98,4.11V231.81z"/>
		<path class="st9" d="M385.55,231.81v-18.98c0-2.27-1.33-4.11-2.98-4.11h-2.55c-1.64,0-2.98,1.84-2.98,4.11v18.98
			c0,2.27,1.33,4.11,2.98,4.11h2.55C384.21,235.93,385.55,234.08,385.55,231.81z"/>
		<path class="st9" d="M378.07,224.35v7.46c0,2.27,1.33,4.11,2.98,4.11h26.17c1.64,0,2.98-1.84,2.98-4.11v-7.46H378.07z"/>
		<rect x="395.05" y="219.56" class="st9" width="7.57" height="3.27"/>
	</g>
	<polygon class="st6" points="371.23,126.92 370.84,126.92 368.19,127.89 369.93,131.25 372.14,131.25 373.89,127.89 	"/>
	<polygon class="st6" points="371.16,152.87 373.26,143.78 372.14,131.18 369.93,131.18 368.75,144.48 	"/>
</g>
<path class="st6" d="M381.46,103.09h-0.87c0,0,0,0-0.01,0c-0.18-0.43-0.57-0.73-1.08-0.73h-5.74c-0.67,0-1.54,0.32-1.64,1.11h-2.21
	c-0.1-0.79-0.97-1.11-1.64-1.11h-5.74c-0.51,0-0.9,0.3-1.08,0.73c0,0-0.01,0-0.01,0h-0.87c-0.27,0-0.49,0.22-0.49,0.49
	c0,0.27,0.22,0.49,0.49,0.49h0.77c0.01,0.74,0.07,1.69,0.29,2.5c0.19,0.68,0.86,1.79,2.06,1.93c1.79,0.2,3.69-0.03,4.89-0.44
	c0.67-0.22,1.26-1.03,1.36-2.56l-0.02-1.19h2.17l-0.02,1.19c0.1,1.53,0.69,2.33,1.36,2.56c1.2,0.4,3.1,0.63,4.89,0.44
	c1.2-0.13,1.87-1.24,2.06-1.93c0.22-0.81,0.28-1.76,0.29-2.5h0.77c0.27,0,0.49-0.22,0.49-0.49
	C381.95,103.31,381.73,103.09,381.46,103.09z M368.4,107.46c-0.89,0.3-2.13,0.47-3.34,0.47c-0.44,0-0.87-0.02-1.28-0.07
	c-0.95-0.11-1.41-1.09-1.51-1.46c-0.19-0.69-0.28-1.59-0.28-2.77c0-0.32,0.17-0.64,0.55-0.64h5.74c0.26,0,1.01,0.11,1.01,0.62
	l0.03,1.88C369.24,106.75,368.79,107.33,368.4,107.46z M379.78,106.41c-0.1,0.37-0.57,1.35-1.51,1.46
	c-0.41,0.05-0.84,0.07-1.28,0.07c-1.2,0-2.45-0.18-3.34-0.47c-0.39-0.13-0.84-0.72-0.92-1.96l0.03-1.88c0-0.51,0.74-0.62,1.01-0.62
	h5.74c0.38,0,0.55,0.32,0.55,0.64C380.06,104.82,379.97,105.72,379.78,106.41z"/>
<path class="st7" d="M326.24,299.41c0,0-1.55,2.55-1.67,3.4c-0.13,0.85-0.4,3.25,0.3,3.55c0.7,0.3,3.64,0.35,4.05,0.1
	c0.4-0.25,1.26-1.95,1.33-2.9c0.08-0.95-0.5-4.78-0.5-4.78L326.24,299.41z"/>
<polygon class="st8" points="326.26,299.35 329.74,299.35 329.28,222.02 314.79,222.02 "/>
<polygon class="st8" points="333.93,299.35 330.45,299.35 330.92,222.02 345.4,222.02 "/>
<path class="st9" d="M315.61,236.59h28.42c2.28-8.04,5.83-29.84,5.83-38.85c0-12.43-3.83-20.95-3.83-20.95l-31.62-0.23
	c0,0-5.03,11.72-4.55,23.66C310.25,209.91,313.46,229.53,315.61,236.59z"/>
<path class="st11" d="M346.63,96.36c4.92-22.2-11.64-28.13-16.2-24.89c-4.56-3.25-21.21,2.71-16.2,24.89
	c7.83,34.64,35.95,33.41,41.84,26.95C344.9,110.81,345.45,101.68,346.63,96.36z"/>
<path class="st10" d="M305.97,158.85c-0.73,2.82-3.27,4.61-5.68,3.99l0,0c-2.4-0.62-3.76-3.42-3.03-6.24l9.15-35.27
	c0.73-2.82,3.27-4.61,5.68-3.99l0,0c2.4,0.62,3.76,3.42,3.03,6.24L305.97,158.85z"/>
<path class="st10" d="M354.6,119.9c0,3.92-10.77,7.11-24.05,7.11s-24.05-3.18-24.05-7.11s10.77-7.11,24.05-7.11
	S354.6,115.98,354.6,119.9z"/>
<path class="st14" d="M362.77,156.53l-7.46-35.38c-0.83-1.58-2.03-4.16-3.18-4.64c-3.99-2.36-12.06-3.94-21.58-3.94
	c-11.86,0-21.47,2.44-23.75,5.79c-0.71,0.66-1.26,1.5-1.54,2.47l-9.14,36.12c-0.85,2.91-0.23,4.84,2.68,5.69
	c0.5,0.15,1.02,0.22,1.54,0.22c2.43,0,4.6-1.63,5.28-3.96l6.83-19.04c4,10.65,3.31,25.91,1.5,37.85l32.75,0.8
	c0,0-5.22-16.72,1.85-38.7l3.24,15.93c-0.15,2.03,0.83,3.96,2.55,5.05c0.76,0.48,1.64,0.77,2.54,0.83
	C359.91,161.84,362.55,159.56,362.77,156.53z"/>
<path class="st12" d="M337.93,145.28v-31.07c-2.54-0.27-5.28-0.41-8.16-0.41c-2.55,0-4.98,0.12-7.27,0.33v31.15H337.93z"/>
<path class="st14" d="M351.32,116.14c0-0.02,0.01-0.03,0.01-0.05c-3.72-2.64-12.66-3.12-12.66-3.12
	c-0.97,5.47-7.69,34.29-7.69,34.29s-9.38-29.61-9.2-34.77c0,0-7.64,0.76-13.08,4.21c0.04,0.15,0.1,0.27,0.13,0.42
	c1.41,6.77,2.63,13.41,3.14,20.01l0.1-0.34c10.69,21.94,2.34,39.77,2.34,39.77l9.53,5.52l5.97-3.8l6.64,3.66l9.63-4.34
	c0,0-6.42-18.49,3.39-39.96C349.56,130.42,350.87,123.54,351.32,116.14z"/>
<g>
	<g>
		<g>
			<polygon class="st8" points="335.54,113.34 330.55,121.36 325.25,113.05 325.31,97.33 335.54,97.33 			"/>
			<ellipse class="st8" cx="330.43" cy="90.89" rx="12.22" ry="16.89"/>
			<path class="st11" d="M317.77,95.53c-1.44-5.23,6.34-3.34,4.65-11.27c9.37,12.74,19.47,2.04,20.43,11.78
				c5.05-13.1-0.8-25.96-12.35-24.55C327.9,70.25,312.21,75.36,317.77,95.53z"/>
		</g>
	</g>
	<polygon class="st16" points="325.26,109.17 321.77,112.49 320.94,119.62 330.55,121.36 	"/>
	<polygon class="st16" points="335.47,109.17 338.67,112.97 339.05,119.95 330.55,121.36 	"/>
</g>
<g>
	<g>
		<path class="st8" d="M359.08,154.55c0.99,0.08,3.84-0.63,3.23,6.56l-1.77,16.52c-0.61,7.19-1.9,12.96-2.88,12.87l-2.94-0.25
			c-0.99-0.08-1.3-5.98-0.69-13.17L352.57,158c0.73-8.67,3.8-3.68,3.58-3.7L359.08,154.55z"/>
		<path class="st14" d="M353.5,184.04c0,0,4.99-2.79,6.45,0.29c0.26-1.94,1.1-5.88,1.16-6.59l1.77-16.58
			c0.27-3.15-0.08-5.2-1.07-6.28c-0.8-0.88-1.81-0.89-2.41-0.9c-0.1,0-0.2,0-0.27-0.01l-2.59-0.22c-0.35-0.62-1.13-1.44-2-1.44
			c-1.86,0-2.34,3.22-2.54,5.73l1.47,18.99C353.32,178.72,353.54,182.5,353.5,184.04z"/>
	</g>
</g>
<path class="st8" d="M354.13,184.2c0,0-5.03,6.17-4.12,7.76c0.91,1.59-0.74,7.01-1,8.61c-0.27,1.6,5.02,1.87,6.65-1.04
	c1.63-2.91,4.24-9.4,4.21-13.6C359.83,181.73,354.13,184.2,354.13,184.2z"/>
<rect x="307.58" y="123.88" transform="matrix(0.9594 -0.2819 0.2819 0.9594 -27.7473 95.7841)" class="st6" width="22.92" height="40.91"/>
<g>
	<path class="st8" d="M297.91,165.72c0.56,0.82,1.33,3.65,7.3-0.4l9.21-7.78c5.97-4.05,10.36-8,9.81-8.82l-1.65-2.44
		c-0.56-0.82-5.85,1.8-11.82,5.86l-9.44,3.14c-7.2,4.89-4.94,8.2-5.07,8.01L297.91,165.72z"/>
	<path class="st14" d="M316.83,147.96c-1.34,0.8-4.6,3.17-6.08,4.18l-9.91,2.42c-7.2,4.89-4.58,9.03-4.71,8.84l1.65,2.44
		c0.56,0.82,1.03,3.81,7-0.24l9.63-8.06c1.08-0.73,4.53-3.16,5.49-3.86C318.77,151.85,317.3,150.09,316.83,147.96z"/>
	<path class="st8" d="M317.01,148.73c0,0,2.91-7.41,4.74-7.4s5.75-4.07,7.01-5.09c1.26-1.02,4.09,3.46,2.36,6.3
		c-1.74,2.85-6.12,8.3-9.79,10.33C317.65,154.91,317.01,148.73,317.01,148.73z"/>
</g>
<path class="st8" d="M326.31,299.1c0,0-1.6,3.19-0.56,4.45c0.42,0.51,4.15-0.46,3.99-4.73C329.58,294.55,326.31,299.1,326.31,299.1z
	"/>
<path class="st7" d="M333.95,299.41c0,0,1.55,2.55,1.67,3.4c0.13,0.85,0.4,3.25-0.3,3.55c-0.7,0.3-3.64,0.35-4.05,0.1
	c-0.4-0.25-1.26-1.95-1.33-2.9c-0.08-0.95,0.5-4.78,0.5-4.78L333.95,299.41z"/>
<path class="st8" d="M333.88,299.1c0,0,1.6,3.19,0.56,4.45c-0.42,0.51-4.15-0.46-3.99-4.73C330.61,294.55,333.88,299.1,333.88,299.1
	z"/>
<path class="st17" d="M296.78,299.5c11.68,0.71,22.47,1.89,31.89,3.45C322.07,226.82,308.37,76.3,301.38,0h-9.71
	C291.67,0,295.1,299.4,296.78,299.5z"/>
<path class="st17" d="M252.66,0h-11.85c-6.99,76.3-20.69,226.82-27.3,302.95c9.79-1.62,21.04-2.84,33.24-3.54
	C248.7,299.3,252.66,0,252.66,0z"/>
<path class="st18" d="M318.25,0h-94.3c-14.64,94.66-48.7,311.35-48.7,319.83c0,11.66,42.91,21.11,95.85,21.11
	c52.94,0,95.85-9.45,95.85-21.11C366.95,311.35,332.88,94.66,318.25,0z"/>
<path class="st5" d="M463.24,186.04l3.22-18.91c0,0-0.23-0.03-0.61-0.07l0-0.03c0,0-0.28-0.02-0.76-0.05
	c-0.48-0.05-1.07-0.12-1.73-0.19l0.02-0.18c0.15-1.4,0.14-2.53-0.04-3.4c0-0.01,0-0.01,0-0.02l-6.07-29.38
	c-0.18-0.33-0.37-0.73-0.58-1.13c-0.05-0.58-0.4-1.13-1-1.66c-0.3-0.41-0.61-0.74-0.92-0.87c-0.22-0.13-0.47-0.26-0.72-0.38
	c-2.98-2.03-9.87-2.4-9.87-2.4l-2.46-2.93v-1.31c4.5-0.85,8.96-6.51,9.72-9.96c4.06-18.34-9.61-23.24-13.38-20.55
	c-3.77-2.68-17.44,2.22-13.38,20.55c0.72,3.25,4.73,8.48,8.96,9.78l-0.01,1.42l0,0l-2.74,2.62c0,0-5.33,0.53-9.52,2.86
	c-1.05,0.54-1.82,1.13-2.25,1.76c-0.56,0.52-0.99,1.18-1.21,1.94l-3.54,26.14c-0.51,3.13-0.48,6.07,1.67,6.74
	c0.37,0.12,0.75,0.17,1.14,0.17c1.13,0,1.97,0,2.57-0.47c0.64-0.36,3.07-1.97,6.11-4.05c0.16,5.52-0.34,11.22-1.09,16.2l0,0
	c-0.97,2.54-3.53,10.06-3.22,17.7c0.31,7.62,3.88,37.17,5.57,42.73h0c0.15,1.51,0.3,2.84,0.46,3.88c0.97,6.53,5.54,24.11,6.95,29.45
	c-0.02,0.07-0.04,0.14-0.06,0.22c-0.35,0.82-1.04,2.51-1.12,3.2c-0.1,0.92-0.32,3.5,0.24,3.83c0.55,0.32,2.87,0.38,3.18,0.11
	c0.18-0.15,0.48-0.82,0.71-1.55c0.22,0.72,0.68,1.56,0.92,1.71c0.32,0.2,2.63,0.16,3.18-0.08c0.55-0.24,0.34-2.12,0.24-2.8
	c-0.07-0.5-0.78-1.76-1.13-2.35c-0.08-0.19-0.15-0.36-0.19-0.46l5.63-37.98c2.11-9.12,6.4-32.78,6.84-40.68
	c0.33,0.2,0.68,0.34,1.03,0.31c1.58,0.06,3.63-0.29,4.31-0.9c0.36-0.32,0.65-0.73,0.9-1.18c1.81-0.13,3.07-0.24,3.07-0.24
	L463.24,186.04z M451.98,148.6l2.61,13.62c0.09,0.42,0.2,0.91,0.34,1.41c-0.01,0.1-0.03,0.21-0.04,0.31l0.1,1.98
	c-2.59-0.25-4.88-0.44-5.93-0.45c0.11-4.61,0.8-10.16,2.67-16.25C451.81,149.01,451.89,148.81,451.98,148.6z M421.99,156.91
	l1.57-8.38c0.77,2.05,1.32,4.33,1.69,6.72C424.12,155.83,423.02,156.39,421.99,156.91z M437.93,238.55l-0.21,34.99c0,0,0,0,0,0
	l-0.01,0c0,0-0.02,0.14-0.05,0.37c-0.12-1.37-0.27-2.76-0.27-2.76l-0.01,0c0-0.06-0.01-0.11-0.01-0.17l0.01-0.01
	c0,0-0.01-0.04-0.01-0.11c-0.02-0.35-0.06-0.64-0.11-0.87c-0.52-4.21-2.52-20.94-2.57-27.77c-0.01-0.98,0.03-2.22,0.09-3.63
	L437.93,238.55z"/>
<g>
	<g>
		<g>
			<path class="st19" d="M266.05,311.29c0.03-0.09-0.67-2.28-0.72-2.36c0,0-1.76-1.65-6.36-1.34c-0.07,0-1.72,3.37-2.98,5
				c-3.11,4.04-5.12,5.73-3.62,5.98c3.74,0.61,7.66-1.09,10.1-4.19C263.3,313.22,265.74,312.41,266.05,311.29z"/>
		</g>
		<g>
			<path class="st20" d="M266.05,310.6c0.03-0.09-0.67-2.28-0.72-2.36c0,0-1.77-1.64-6.4-1.33c-0.07,0-1.74,3.37-3.01,5.01
				c-3.14,4.05-5.16,5.75-3.66,5.99c3.76,0.6,7.71-1.1,10.17-4.21C263.28,312.54,265.73,311.72,266.05,310.6z"/>
		</g>
	</g>
	<g>
		<g>
			<path class="st19" d="M269.69,311.29c-0.03-0.09,0.67-2.28,0.72-2.36c0,0,1.76-1.65,6.36-1.34c0.07,0,1.72,3.37,2.98,5
				c3.11,4.04,5.12,5.73,3.62,5.98c-3.74,0.61-7.66-1.09-10.1-4.19C272.45,313.22,270.01,312.41,269.69,311.29z"/>
		</g>
		<g>
			<path class="st20" d="M269.69,310.6c-0.03-0.09,0.67-2.28,0.72-2.36c0,0,1.77-1.64,6.4-1.33c0.07,0,1.74,3.37,3.01,5.01
				c3.14,4.05,5.16,5.75,3.66,5.99c-3.76,0.6-7.71-1.1-10.17-4.21C272.47,312.54,270.01,311.72,269.69,310.6z"/>
		</g>
	</g>
	<g>
		<path class="st21" d="M286.26,161.26l-18.43,7.38l-18.03-6.48c0,0-1.23,13.95-1.23,27.87c0,6.95,4.46,51.27,4.46,51.69l5.57,65.4
			l7.02,1.45l0.08-66.91l-0.31-5.04l0.37-2.28l0.91-43.83l0.05-0.06l1.89-0.01l0.64,43.62l0.31,2.42l-0.47,5.15l1.1,66.77l7.02-1.3
			l4.42-64.75c0-1.54,4.28-47.47,4.62-52.46C286.72,182.95,286.26,161.26,286.26,161.26z"/>
	</g>
	<g>
		<path class="st22" d="M297.75,181.44c0,0.41,2.35,1.19,5.26,1.74c2.9,0.55,5.26,0.66,5.26,0.24s-2.35-1.19-5.26-1.74
			C300.1,181.14,297.75,181.03,297.75,181.44z"/>
		<g>
			<path class="st23" d="M306.26,195.8c-0.51,1.12-1.26,1.97-2.29,2.05c-2.73,0.22-8.52-1.02-8.58-2.03
				c-0.14-2.2,2.26-7.83,2.88-8.7L306.26,195.8z"/>
			<path class="st24" d="M306.46,185.17c1.94,1.94,1.5,11.01-1.17,11.34c-2.67,0.33-9.29-1.22-9.63-2.73
				c-0.33-1.5,3.5-12.77,3.5-12.77s5.23,0.47,7.67,1.33C306.84,182.34,306.16,184.86,306.46,185.17z"/>
			<path class="st25" d="M298.34,183.29l0.73-2.35c0,0,5.46,0.56,7.89,1.42c0,0-0.41,1.58-0.58,2.38
				C306.39,184.75,301.73,182.67,298.34,183.29z"/>
			<path class="st24" d="M298.18,184.32c0,0-2.35,1.41-3.42,2.88c-1.07,1.47,0.81,4.75,1.33,5.37
				C296.62,193.19,298.18,184.32,298.18,184.32z"/>
			<path class="st23" d="M297.53,186.02c-0.62,1.96-1.38,4.49-1.71,6.17c-0.07-0.11-0.26-0.46-0.43-0.78
				C295.25,191.17,296.72,187.5,297.53,186.02z"/>
		</g>
		<path class="st21" d="M307.64,135.52c0.8,3.23-1.34,6.56-4.76,7.46l0,0c-3.41,0.9-6.85-0.96-7.7-4.16l-7.14-38.92
			c-0.91-3.45,1.24-7.07,4.81-8.05l0,0c3.58-0.99,7.3,3.25,8.16,6.73L307.64,135.52z"/>
		<path class="st21" d="M297.75,181.43l-2.11-42.34c-0.38-3.44,2-6.71,5.33-7.33c3.34-0.62,6.41,1.67,6.83,5.14l0.46,46.53
			c0,0-1.99-1.14-5.71-1.79C299.71,181.13,297.75,181.43,297.75,181.43z"/>
		<g>
			<path class="st26" d="M306.88,180.88c0,0.5,0.33,0.9,0.73,0.9c0.4,0,0.73-0.4,0.73-0.9c0-0.5-0.33-0.9-0.73-0.9
				C307.21,179.98,306.88,180.38,306.88,180.88z"/>
			<path class="st20" d="M307.09,180.88c0,0.5,0.33,0.9,0.73,0.9c0.4,0,0.73-0.4,0.73-0.9c0-0.5-0.33-0.9-0.73-0.9
				C307.41,179.98,307.09,180.38,307.09,180.88z"/>
			<path class="st26" d="M307.53,180.55c0,0.13,0.09,0.24,0.2,0.24c0.11,0,0.2-0.11,0.2-0.24c0-0.13-0.09-0.24-0.2-0.24
				C307.61,180.31,307.53,180.42,307.53,180.55z"/>
			<path class="st26" d="M307.78,181.13c0,0.13,0.09,0.24,0.2,0.24c0.11,0,0.2-0.11,0.2-0.24c0-0.13-0.09-0.24-0.2-0.24
				C307.87,180.89,307.78,180.99,307.78,181.13z"/>
		</g>
		<g>
			<ellipse class="st26" cx="307.58" cy="178.67" rx="0.73" ry="0.9"/>
			<path class="st20" d="M307.05,178.67c0,0.5,0.33,0.9,0.73,0.9c0.4,0,0.73-0.4,0.73-0.9s-0.33-0.9-0.73-0.9
				C307.38,177.78,307.05,178.18,307.05,178.67z"/>
			<path class="st26" d="M307.49,178.35c0,0.13,0.09,0.24,0.2,0.24c0.11,0,0.2-0.11,0.2-0.24c0-0.13-0.09-0.24-0.2-0.24
				C307.58,178.1,307.49,178.21,307.49,178.35z"/>
			<ellipse class="st26" cx="307.94" cy="178.92" rx="0.2" ry="0.24"/>
		</g>
		<g>
			<path class="st26" d="M306.82,176.47c0,0.5,0.33,0.9,0.73,0.9c0.4,0,0.73-0.4,0.73-0.9s-0.33-0.9-0.73-0.9
				C307.15,175.57,306.82,175.98,306.82,176.47z"/>
			<ellipse class="st20" cx="307.76" cy="176.47" rx="0.73" ry="0.9"/>
			<ellipse class="st26" cx="307.66" cy="176.14" rx="0.2" ry="0.24"/>
			<path class="st26" d="M307.71,176.72c0,0.13,0.09,0.24,0.2,0.24c0.11,0,0.2-0.11,0.2-0.24c0-0.13-0.09-0.24-0.2-0.24
				C307.8,176.48,307.71,176.59,307.71,176.72z"/>
		</g>
		<path class="st27" d="M291.13,117.13l-3.59-16.62c-0.91-3.45,1.24-7.07,4.81-8.05c3.58-0.99,6.71,1.97,7.57,5.45
			C291.24,116.92,291.34,116.69,291.13,117.13z"/>
		<g>
			<path class="st26" d="M306.79,174.27c0,0.5,0.33,0.9,0.73,0.9c0.4,0,0.73-0.4,0.73-0.9s-0.33-0.9-0.73-0.9
				C307.11,173.37,306.79,173.77,306.79,174.27z"/>
			<path class="st20" d="M306.99,174.27c0,0.5,0.33,0.9,0.73,0.9c0.4,0,0.73-0.4,0.73-0.9s-0.33-0.9-0.73-0.9
				C307.32,173.37,306.99,173.77,306.99,174.27z"/>
			<path class="st26" d="M307.43,173.94c0,0.13,0.09,0.24,0.2,0.24c0.11,0,0.2-0.11,0.2-0.24c0-0.13-0.09-0.24-0.2-0.24
				C307.52,173.69,307.43,173.8,307.43,173.94z"/>
			<path class="st26" d="M307.68,174.52c0,0.13,0.09,0.24,0.2,0.24c0.11,0,0.2-0.11,0.2-0.24c0-0.13-0.09-0.24-0.2-0.24
				C307.77,174.27,307.68,174.38,307.68,174.52z"/>
		</g>
		<path class="st22" d="M303.71,136.01l-8,4.1c-0.22-0.4-0.4-0.83-0.53-1.3C295.18,138.81,300.01,136.27,303.71,136.01z"/>
		<path class="st22" d="M304.74,140.32l-8.98,0.39c-0.03-0.46-0.02-0.93,0.06-1.4C295.82,139.31,301.28,139.02,304.74,140.32z"/>
		<path class="st22" d="M298.34,183.29c0,0,0.51-0.38,3.69,0.06c2.7,0.38,4.36,1.4,4.36,1.4S302.49,183.01,298.34,183.29z"/>
		<path class="st22" d="M237.23,181.44c0,0.41-2.35,1.19-5.26,1.74c-2.9,0.55-5.26,0.66-5.26,0.24s2.35-1.19,5.26-1.74
			C234.87,181.14,237.23,181.03,237.23,181.44z"/>
		<g>
			<path class="st23" d="M228.71,195.8c0.51,1.12,1.26,1.97,2.29,2.05c2.73,0.22,8.52-1.02,8.58-2.03c0.14-2.2-2.26-7.83-2.88-8.7
				L228.71,195.8z"/>
			<path class="st24" d="M228.51,185.17c-1.94,1.94-1.5,11.01,1.17,11.34c2.67,0.33,9.29-1.22,9.63-2.73
				c0.33-1.5-3.5-12.77-3.5-12.77s-5.23,0.47-7.67,1.33C228.13,182.34,228.82,184.86,228.51,185.17z"/>
			<path class="st25" d="M236.64,183.29l-0.73-2.35c0,0-5.46,0.56-7.89,1.42c0,0,0.41,1.58,0.58,2.38
				C228.59,184.75,233.24,182.67,236.64,183.29z"/>
			<path class="st24" d="M236.79,184.32c0,0,2.35,1.41,3.42,2.88c1.07,1.47-0.81,4.75-1.33,5.37
				C238.36,193.19,236.79,184.32,236.79,184.32z"/>
			<path class="st23" d="M237.45,186.02c0.62,1.96,1.38,4.49,1.71,6.17c0.07-0.11,0.26-0.46,0.43-0.78
				C239.72,191.17,238.25,187.5,237.45,186.02z"/>
		</g>
		<g>
			<path class="st25" d="M249.19,164.98h36.73c0.27-14.13,1.02-38.99,3.04-48.18c2.04-9.26,10.69-16.88,10.79-19.29
				c0.31-8.02-14.1-17.01-32.19-17.01c-18.09,0-32.5,8.98-32.18,17.01c0.09,2.38,8.72,9.83,10.71,18.92
				C248.11,125.68,248.9,150.76,249.19,164.98z"/>
			<path class="st21" d="M227.33,135.52c-0.8,3.23,1.34,6.56,4.76,7.46l0,0c3.41,0.9,6.85-0.96,7.7-4.16l7.14-38.92
				c0.91-3.45-1.24-7.07-4.81-8.05l0,0c-3.58-0.99-7.3,3.25-8.16,6.73L227.33,135.52z"/>
			<path class="st21" d="M237.22,181.43l2.11-42.34c0.38-3.44-2-6.71-5.33-7.33c-3.34-0.62-6.41,1.67-6.83,5.14l-0.46,46.53
				c0,0,1.99-1.14,5.71-1.79C235.26,181.13,237.22,181.43,237.22,181.43z"/>
			<polygon class="st24" points="275.37,83.92 267.77,86.95 259.81,83.58 259.9,65.12 275.37,65.12 			"/>
		</g>
		<path class="st23" d="M259.85,74.92c2.4,2.61,5.37,4.24,8.61,4.39c2.51,0.12,5.76-0.85,6.91-2.56l0-11.64l-15.47,0L259.85,74.92z"
			/>
		<ellipse class="st24" cx="267.63" cy="57.57" rx="14.34" ry="19.82"/>
		<polygon class="st27" points="268.9,92.46 266.13,92.46 263.3,87.03 271.73,87.03 		"/>
		<polygon class="st28" points="268.9,92.37 266.13,92.37 263.3,124.14 271.73,124.14 		"/>
		<polygon class="st0" points="259.85,76.66 256.15,80.6 258.49,90.26 267.63,86.95 		"/>
		<polygon class="st0" points="275.42,76.66 278.05,80.6 276.78,90.26 267.63,86.95 		"/>
		<path class="st29" d="M253.21,57.86c0,0-5.95-11.86-2.23-16.68c-4.09-8.84,11.36-15.99,22.35-12.17
			c16.09,5.59,11.22,14.52,11.22,14.52s-0.91,12.03-2.55,15.43c-1.09-4.49-2.63-9.96-3.17-10.18c-0.55-0.22-19.26-0.77-21.34-2.85
			C256.93,51.62,253.21,57.86,253.21,57.86z"/>
		<path class="st30" d="M252.73,40.26c-1.09-1.62,22.3,9.32,29.56,6.4c-1.38,2.38-3.47,2.11-3.47,2.11s-14.17-0.01-21.01-2.26
			c-0.17,1.5-2.08,7.59-4.59,11.09C254.48,53.6,256.65,46.1,252.73,40.26z"/>
		<path class="st30" d="M252.76,40.12c13.21-2.15,17.21,10.11,30.59,3.04C273.53,47.28,267.03,34.97,252.76,40.12z"/>
		<path class="st30" d="M278.82,48.77c0.69,1.41,2.25,6.37,3.17,10.18c1.46-3.01,3.34-11.69,2.55-15.43
			C283.55,45.31,281.85,47.16,278.82,48.77z"/>
		<path class="st0" d="M260.68,66.94c1.29,3.24,3.91,5.46,6.95,5.46c3.03,0,5.66-2.22,6.95-5.46H260.68z"/>
		<path class="st23" d="M264.85,62.85c0.52,0.74,1.56,1.25,2.78,1.25c1.21,0,2.26-0.51,2.78-1.25H264.85z"/>
		<g>
			<path class="st26" d="M228.09,180.88c0,0.5-0.33,0.9-0.73,0.9c-0.4,0-0.73-0.4-0.73-0.9c0-0.5,0.33-0.9,0.73-0.9
				C227.76,179.98,228.09,180.38,228.09,180.88z"/>
			<path class="st20" d="M227.89,180.88c0,0.5-0.33,0.9-0.73,0.9c-0.4,0-0.73-0.4-0.73-0.9c0-0.5,0.33-0.9,0.73-0.9
				C227.56,179.98,227.89,180.38,227.89,180.88z"/>
			<path class="st26" d="M227.45,180.55c0,0.13-0.09,0.24-0.2,0.24c-0.11,0-0.2-0.11-0.2-0.24c0-0.13,0.09-0.24,0.2-0.24
				C227.36,180.31,227.45,180.42,227.45,180.55z"/>
			<path class="st26" d="M227.2,181.13c0,0.13-0.09,0.24-0.2,0.24c-0.11,0-0.2-0.11-0.2-0.24c0-0.13,0.09-0.24,0.2-0.24
				C227.11,180.89,227.2,180.99,227.2,181.13z"/>
		</g>
		<g>
			<ellipse class="st26" cx="227.39" cy="178.67" rx="0.73" ry="0.9"/>
			<path class="st20" d="M227.92,178.67c0,0.5-0.33,0.9-0.73,0.9c-0.4,0-0.73-0.4-0.73-0.9s0.33-0.9,0.73-0.9
				C227.59,177.78,227.92,178.18,227.92,178.67z"/>
			<path class="st26" d="M227.48,178.35c0,0.13-0.09,0.24-0.2,0.24c-0.11,0-0.2-0.11-0.2-0.24c0-0.13,0.09-0.24,0.2-0.24
				C227.39,178.1,227.48,178.21,227.48,178.35z"/>
			<path class="st26" d="M227.23,178.92c0,0.13-0.09,0.24-0.2,0.24c-0.11,0-0.2-0.11-0.2-0.24c0-0.13,0.09-0.24,0.2-0.24
				C227.14,178.68,227.23,178.79,227.23,178.92z"/>
		</g>
		<g>
			<path class="st26" d="M228.15,176.47c0,0.5-0.33,0.9-0.73,0.9c-0.4,0-0.73-0.4-0.73-0.9s0.33-0.9,0.73-0.9
				C227.83,175.57,228.15,175.98,228.15,176.47z"/>
			<ellipse class="st20" cx="227.22" cy="176.47" rx="0.73" ry="0.9"/>
			<ellipse class="st26" cx="227.31" cy="176.14" rx="0.2" ry="0.24"/>
			<path class="st26" d="M227.26,176.72c0,0.13-0.09,0.24-0.2,0.24c-0.11,0-0.2-0.11-0.2-0.24c0-0.13,0.09-0.24,0.2-0.24
				C227.17,176.48,227.26,176.59,227.26,176.72z"/>
		</g>
		<path class="st21" d="M243.84,116.7l3.59-16.62c0.91-3.45-1.24-7.07-4.81-8.05c-3.58-0.99-6.71,1.97-7.57,5.45
			C235.05,97.48,243.53,116.03,243.84,116.7z"/>
		<g>
			<path class="st26" d="M228.19,174.27c0,0.5-0.33,0.9-0.73,0.9c-0.4,0-0.73-0.4-0.73-0.9s0.33-0.9,0.73-0.9
				C227.86,173.37,228.19,173.77,228.19,174.27z"/>
			<path class="st20" d="M227.98,174.27c0,0.5-0.33,0.9-0.73,0.9c-0.4,0-0.73-0.4-0.73-0.9s0.33-0.9,0.73-0.9
				C227.65,173.37,227.98,173.77,227.98,174.27z"/>
			<path class="st26" d="M227.54,173.94c0,0.13-0.09,0.24-0.2,0.24c-0.11,0-0.2-0.11-0.2-0.24c0-0.13,0.09-0.24,0.2-0.24
				C227.45,173.69,227.54,173.8,227.54,173.94z"/>
			<path class="st26" d="M227.29,174.52c0,0.13-0.09,0.24-0.2,0.24c-0.11,0-0.2-0.11-0.2-0.24c0-0.13,0.09-0.24,0.2-0.24
				C227.2,174.27,227.29,174.38,227.29,174.52z"/>
		</g>
		<path class="st21" d="M297.17,89.7c-4.08-4.24-11.42-7.49-19.12-9.1l-9.78,42.2l-12.12-42.2c-7.18,1.68-14.34,5.09-18.2,9.1
			c-2.44,2.54-3.68,5.25-3.57,7.84c0.05,1.2,1.18,2.68,3.06,5.14c2.73,3.57,6.47,8.46,7.67,13.96c2.84,12.96,3.24,58.08,3.24,58.53
			l15.72,0.9l4.3-3.35l4.3,3.19l14.1-0.74c0-0.45,0.32-45.26,3.16-58.16c1.23-5.61,4.99-10.6,7.74-14.24
			c1.99-2.64,3.03-4.07,3.07-5.22C300.85,94.95,299.61,92.24,297.17,89.7z"/>
		<g>
			<path class="st29" d="M265.5,51.6c0.01,0,0.01,0.01,0.02,0.01c0-0.01,0-0.01,0.01-0.01c0.12-0.52-0.14-1.09-0.58-1.26
				c-3.87-1.5-7.39-0.6-8.01,2.06c0,0.01,0,0.01,0,0.02C258.15,50.49,261.64,50.1,265.5,51.6z"/>
		</g>
		<g>
			<path class="st29" d="M269.75,51.6c-0.01,0-0.01,0.01-0.02,0.01c0-0.01,0-0.01-0.01-0.01c-0.12-0.52,0.14-1.09,0.58-1.26
				c3.87-1.5,7.39-0.6,8.01,2.06c0,0.01,0,0.01,0,0.02C277.1,50.49,273.61,50.1,269.75,51.6z"/>
		</g>
		<g>
			<path class="st29" d="M275.75,55.04c0,0.69-0.56,1.26-1.26,1.26c-0.69,0-1.26-0.56-1.26-1.26s0.56-1.26,1.26-1.26
				C275.19,53.78,275.75,54.34,275.75,55.04z"/>
			<circle class="st29" cx="261.21" cy="55.04" r="1.26"/>
		</g>
		<g>
			<path class="st31" d="M266.93,132.7l0.06,39.08l5.69,4.14l-5.12-4.47l-0.16-38.56l-12.76-38.17l1.47-1.59l-3.38-3.65l-1.59-7.42
				c-0.72,0.25,0.48,7.42,0.48,7.42l3.65,3.65l-1.59,1.59L266.93,132.7z"/>
			<path class="st31" d="M282.46,81.72l-1.55,7.94l-3.21,3.47l1.66,1.79l-12.32,37.4l0.2,1.04l13.15-38.44l-1.79-1.79l3.47-3.47
				C282.06,89.66,283.11,81.91,282.46,81.72z"/>
		</g>
		<path class="st31" d="M231.26,136.01l8,4.1c0.22-0.4,0.4-0.83,0.53-1.3C239.79,138.81,234.96,136.27,231.26,136.01z"/>
		<path class="st31" d="M230.23,140.32l8.98,0.39c0.03-0.46,0.02-0.93-0.06-1.4C239.15,139.31,233.7,139.02,230.23,140.32z"/>
		<path class="st31" d="M259.94,158.14l-9.62,1.77c-0.12,0.02-0.24,0-0.34-0.05c0.05,0.74,0.44,1.27,0.89,1.19l8.92-1.64
			c0.94-0.17,1.74-1.26,1.72-2.42l0-0.19C261.18,157.49,260.6,158.02,259.94,158.14z"/>
		<path class="st31" d="M274.84,158.14l9.62,1.77c0.12,0.02,0.24,0,0.34-0.05c-0.05,0.74-0.44,1.27-0.89,1.19l-8.92-1.64
			c-0.94-0.17-1.74-1.26-1.72-2.42l0-0.19C273.6,157.49,274.18,158.02,274.84,158.14z"/>
		<path class="st32" d="M236.64,183.29c0,0-0.51-0.38-3.69,0.06c-2.7,0.38-4.36,1.4-4.36,1.4S232.48,183.01,236.64,183.29z"/>
		<path class="st31" d="M245.44,114.96c2.46,0.49,6.8,1.22,10.21,1l-11.63-2.76c0.43,1.06,0.8,2.16,1.05,3.28
			c2.02,1.17,4.93,2.66,7.62,3.37L245.44,114.96z"/>
		<path class="st31" d="M289.53,114.96c-2.46,0.49-6.8,1.22-10.21,1l11.63-2.76c-0.43,1.06-0.8,2.16-1.05,3.28
			c-2.02,1.17-4.93,2.66-7.62,3.37L289.53,114.96z"/>
	</g>
	<g>
		<path class="st33" d="M272.8,174.99l-4.89-3.24l-3.93,3.39c0,0-15.63-0.02-15.63,0.02l15.72,0.9l4.3-3.35l4.3,3.19l14.1-0.74
			C286.78,175.13,272.8,174.99,272.8,174.99z"/>
	</g>
	<path class="st33" d="M279.02,185.52l-11.26,3.02l-11.26-3.02c3.02,1.61,7.25,3.67,9.7,4.24l-8.62,0.51
		c2.74,0.48,17.61,0.48,20.35,0l-8.62-0.51C271.77,189.19,276.01,187.14,279.02,185.52z"/>
	<path class="st33" d="M257.88,178.15l-8.39,5.02c-0.1,0.06-0.22,0.09-0.34,0.07c0.3,0.68,0.85,1.04,1.25,0.8l7.79-4.66
		c0.82-0.49,1.19-1.78,0.77-2.87l-0.07-0.18C258.82,177.1,258.46,177.81,257.88,178.15z"/>
	<path class="st33" d="M277.17,178.15l8.39,5.02c0.1,0.06,0.22,0.09,0.34,0.07c-0.3,0.68-0.85,1.04-1.25,0.8l-7.79-4.66
		c-0.82-0.49-1.19-1.78-0.77-2.87l0.07-0.18C276.23,177.1,276.6,177.81,277.17,178.15z"/>
	<path class="st33" d="M265.19,174.49v13.93h0.71v-14.65C265.67,174.02,265.43,174.25,265.19,174.49z"/>
	<g>
		<path class="st33" d="M269.31,234.2l0.26,2.27l-0.08,0.59c1.32,1.48,3.44,3.45,5.34,4.53l-3.78-4.97
			c2.03,0.92,4.48,1.84,6.67,2.12L269.31,234.2z"/>
		<path class="st33" d="M265.39,236.61l0.27-2.1l-7.35,4.56c2.19-0.29,4.64-1.21,6.67-2.12l-3.78,4.97c1.53-0.87,3.07-2.29,4.3-3.58
			L265.39,236.61z"/>
	</g>
</g>
<g>
	<path class="st34" d="M270.31,133.31c0,0.76-0.62,1.38-1.38,1.38s-1.38-0.62-1.38-1.38c0-0.76,0.62-1.38,1.38-1.38
		S270.31,132.55,270.31,133.31z"/>
	<path class="st20" d="M270.22,133.21c0,0.71-0.58,1.29-1.29,1.29c-0.71,0-1.29-0.58-1.29-1.29c0-0.71,0.58-1.29,1.29-1.29
		C269.64,131.92,270.22,132.5,270.22,133.21z"/>
	<path class="st34" d="M269.58,132.9c0,0.13-0.1,0.23-0.23,0.23c-0.13,0-0.23-0.1-0.23-0.23c0-0.13,0.1-0.23,0.23-0.23
		C269.47,132.67,269.58,132.77,269.58,132.9z"/>
	<circle class="st34" cx="268.67" cy="133.57" r="0.23"/>
</g>
<g>
	<path class="st34" d="M270.31,150.6c0,0.76-0.62,1.38-1.38,1.38s-1.38-0.62-1.38-1.38c0-0.76,0.62-1.38,1.38-1.38
		S270.31,149.84,270.31,150.6z"/>
	<circle class="st20" cx="268.93" cy="150.5" r="1.29"/>
	<path class="st34" d="M269.58,150.19c0,0.13-0.1,0.23-0.23,0.23c-0.13,0-0.23-0.1-0.23-0.23c0-0.13,0.1-0.23,0.23-0.23
		C269.47,149.95,269.58,150.06,269.58,150.19z"/>
	<circle class="st34" cx="268.67" cy="150.86" r="0.23"/>
</g>
<g>
	<path class="st34" d="M270.31,166.18c0,0.76-0.62,1.38-1.38,1.38s-1.38-0.62-1.38-1.38c0-0.76,0.62-1.38,1.38-1.38
		S270.31,165.42,270.31,166.18z"/>
	<path class="st20" d="M270.22,166.08c0,0.71-0.58,1.29-1.29,1.29c-0.71,0-1.29-0.58-1.29-1.29c0-0.71,0.58-1.29,1.29-1.29
		C269.64,164.79,270.22,165.36,270.22,166.08z"/>
	<path class="st34" d="M269.58,165.77c0,0.13-0.1,0.23-0.23,0.23c-0.13,0-0.23-0.1-0.23-0.23c0-0.13,0.1-0.23,0.23-0.23
		C269.47,165.53,269.58,165.64,269.58,165.77z"/>
	<circle class="st34" cx="268.67" cy="166.44" r="0.23"/>
</g>
<path class="st4" d="M3.31,167.94l1.34,12.49c0.04,0.54,0.68,3.51,0.87,4.96c0.04-0.08,0.09-0.15,0.14-0.22
	c0.03,0.19,0.06,0.38,0.09,0.56c-0.1,0.24-0.16,0.52-0.16,0.87c-0.02,3.16,1.94,8.05,3.17,10.24c0.92,1.64,3.37,1.94,4.47,1.48
	c0.52,7.75,2.77,21.1,4.28,26.43h0.6l7,47.18c-0.04,0.1-0.12,0.26-0.19,0.45c-0.33,0.57-1,1.76-1.07,2.24
	c-0.09,0.64-0.3,2.45,0.23,2.68c0.53,0.23,2.74,0.26,3.05,0.08c0.24-0.15,0.68-0.97,0.89-1.66c0.21,0.69,0.65,1.51,0.89,1.66
	c0.3,0.19,2.52,0.15,3.05-0.08c0.53-0.23,0.32-2.03,0.23-2.68c-0.07-0.48-0.74-1.66-1.07-2.24c-0.08-0.2-0.15-0.36-0.19-0.45
	l7-47.18h1.01c1.62-5.32,4.04-20.1,4.33-27.39c0.29-7.31-2.16-14.52-3.08-16.95h0c-0.39-2.58-0.71-5.37-0.9-8.22l1.01,0.3l1.62-5.51
	l4.86,4.1c0.1,0.07,0.18,0.12,0.28,0.18l0.04,0.03c4.5,3.05,4.85,0.8,5.27,0.18l1.25-1.84c-0.05,0.08,0.53-0.85,0.13-2.33
	c0.23-0.69,0.18-1.52-0.11-2.53l-5.12-20.22l0.48-1.64l-0.97-0.28l-1.28-5.06c-0.21-0.73-0.63-1.36-1.16-1.86
	c-0.41-0.61-1.15-1.17-2.16-1.69c-3.07-1.71-6.78-2.4-8.35-2.63c2.05-3.19,3.76-7.21,4.9-12.26c3.76-16.65-8.68-21.15-12.16-18.76
	c-0.02,0.01-0.03,0.01-0.05,0.02c-3.45-2.43-15.89,2.04-12.19,18.75c0.69,3.11,1.09,7.96-2.71,14.38c-0.27,0.13-0.52,0.28-0.75,0.43
	c-0.24,0.12-0.48,0.24-0.69,0.37c-0.28,0.12-0.57,0.42-0.85,0.8c-0.61,0.52-0.95,1.07-1,1.65c-0.2,0.37-0.38,0.74-0.55,1.05
	l-0.27,1.28c-0.1,0.12-0.2,0.23-0.3,0.35c0.06,0.06,0.13,0.12,0.19,0.18L3.4,164.46c0.01,0.08,0.02,0.16,0.03,0.24
	C3.24,165.53,3.2,166.6,3.31,167.94z M44.06,159.6l0.75,2.09l-1.28-0.31L44.06,159.6z M27.45,224.75h1.1l-0.28,46.83c0,0,0,0,0,0.01
	l0,0c0,0-0.15,1.02-0.27,1.99c-0.11-0.98-0.27-1.99-0.27-1.99l0,0c0,0,0,0,0-0.01L27.45,224.75z M10.2,185.67c0-0.19,0-0.39,0-0.59
	c0.11,0.06,0.17,0.09,0.17,0.09c-0.03-1.15,0.13-4,0.02-5.27l1.1-14.3c-0.01-0.08-0.01-0.15-0.02-0.23c0.15-0.48,0.21-0.99,0.17-1.5
	l2.42-11.89c0.08,0.2,0.16,0.4,0.23,0.59c4.99,16.2,1.18,28.45,1.18,28.45l0,0c-0.8,2.24-2.26,7.23-2.37,13.75
	c-0.29-1.44-0.5-2.96-0.12-3.62C13.58,190.15,11.08,186.8,10.2,185.67z"/>
</svg>
