<?xml version="1.0" encoding="utf-8"?>
<!-- Generator: Adobe Illustrator 23.0.0, SVG Export Plug-In . SVG Version: 6.00 Build 0)  -->
<svg version="1.1" id="Layer_1" xmlns="http://www.w3.org/2000/svg" xmlns:xlink="http://www.w3.org/1999/xlink" x="0px" y="0px"
	 viewBox="0 0 1000 1000" style="enable-background:new 0 0 1000 1000;" xml:space="preserve">
<style type="text/css">
	.st0{fill:#F3AD4C;}
</style>
<path class="st0" d="M992.17,14.02c-3.87,0-7.01-3.14-7.01-7.01S988.3,0,992.17,0c3.87,0,7.01,3.14,7.01,7.01
	S996.04,14.02,992.17,14.02z"/>
<path class="st0" d="M992.17,65.45c-3.87,0-7.01-3.14-7.01-7.01s3.14-7.01,7.01-7.01c3.87,0,7.01,3.14,7.01,7.01
	S996.04,65.45,992.17,65.45z"/>
<path class="st0" d="M992.17,116.89c-3.87,0-7.01-3.14-7.01-7.01c0-3.87,3.14-7.01,7.01-7.01c3.87,0,7.01,3.14,7.01,7.01
	C999.18,113.75,996.04,116.89,992.17,116.89z"/>
<path class="st0" d="M992.17,168.32c-3.87,0-7.01-3.14-7.01-7.01s3.14-7.01,7.01-7.01c3.87,0,7.01,3.14,7.01,7.01
	S996.04,168.32,992.17,168.32z"/>
<path class="st0" d="M992.17,219.76c-3.87,0-7.01-3.14-7.01-7.01s3.14-7.01,7.01-7.01c3.87,0,7.01,3.14,7.01,7.01
	S996.04,219.76,992.17,219.76z"/>
<path class="st0" d="M992.17,271.2c-3.87,0-7.01-3.14-7.01-7.01s3.14-7.01,7.01-7.01c3.87,0,7.01,3.14,7.01,7.01
	S996.04,271.2,992.17,271.2z"/>
<ellipse transform="matrix(0.025 -0.9997 0.9997 0.025 910.2345 947.2759)" class="st0" cx="940.74" cy="7.01" rx="7.01" ry="7.01"/>
<ellipse transform="matrix(0.025 -0.9997 0.9997 0.025 858.8146 997.4271)" class="st0" cx="940.74" cy="58.44" rx="7.01" ry="7.01"/>
<ellipse transform="matrix(0.025 -0.9997 0.9997 0.025 807.3948 1047.5784)" class="st0" cx="940.74" cy="109.88" rx="7.01" ry="7.01"/>
<path class="st0" d="M940.74,168.32c-3.87,0-7.01-3.14-7.01-7.01s3.14-7.01,7.01-7.01c3.87,0,7.01,3.14,7.01,7.01
	S944.61,168.32,940.74,168.32z"/>
<ellipse transform="matrix(0.0217 -0.9998 0.9998 0.0217 707.5992 1148.6443)" class="st0" cx="940.74" cy="212.75" rx="7.01" ry="7.01"/>
<path class="st0" d="M940.74,271.2c-3.87,0-7.01-3.14-7.01-7.01s3.14-7.01,7.01-7.01c3.87,0,7.01,3.14,7.01,7.01
	S944.61,271.2,940.74,271.2z"/>
<path class="st0" d="M992.17,313.31c-3.87,0-7.01-3.14-7.01-7.01s3.14-7.01,7.01-7.01c3.87,0,7.01,3.14,7.01,7.01
	S996.04,313.31,992.17,313.31z"/>
<path class="st0" d="M992.17,351.51c-3.87,0-7.01-3.14-7.01-7.01c0-3.87,3.14-7.01,7.01-7.01c3.87,0,7.01,3.14,7.01,7.01
	C999.18,348.37,996.04,351.51,992.17,351.51z"/>
<ellipse transform="matrix(0.0227 -0.9997 0.9997 0.0227 613.1503 1239.8397)" class="st0" cx="940.74" cy="306.3" rx="7.01" ry="7.01"/>
<ellipse transform="matrix(0.9996 -0.0277 0.0277 0.9996 0.1479 24.6766)" class="st0" cx="889.3" cy="7.01" rx="7.01" ry="7.01"/>
<ellipse transform="matrix(0.9996 -0.0277 0.0277 0.9996 -1.2792 24.6964)" class="st0" cx="889.3" cy="58.44" rx="7.01" ry="7.01"/>
<ellipse transform="matrix(0.9996 -0.0277 0.0277 0.9996 -2.7063 24.7162)" class="st0" cx="889.3" cy="109.88" rx="7.01" ry="7.01"/>
<path class="st0" d="M889.3,168.32c-3.87,0-7.01-3.14-7.01-7.01s3.14-7.01,7.01-7.01c3.87,0,7.01,3.14,7.01,7.01
	S893.17,168.32,889.3,168.32z"/>
<ellipse transform="matrix(0.9997 -0.0238 0.0238 0.9997 -4.8094 21.2156)" class="st0" cx="889.3" cy="212.75" rx="7.01" ry="7.01"/>
<path class="st0" d="M889.3,271.2c-3.87,0-7.01-3.14-7.01-7.01s3.14-7.01,7.01-7.01c3.87,0,7.01,3.14,7.01,7.01
	S893.17,271.2,889.3,271.2z"/>
<ellipse transform="matrix(0.9996 -0.0277 0.0277 0.9996 0.1281 23.2495)" class="st0" cx="837.86" cy="7.01" rx="7.01" ry="7.01"/>
<ellipse transform="matrix(0.9996 -0.0277 0.0277 0.9996 -1.299 23.2693)" class="st0" cx="837.86" cy="58.44" rx="7.01" ry="7.01"/>
<ellipse transform="matrix(0.9996 -0.0277 0.0277 0.9996 -2.7261 23.2891)" class="st0" cx="837.86" cy="109.88" rx="7.01" ry="7.01"/>
<path class="st0" d="M837.86,168.32c-3.87,0-7.01-3.14-7.01-7.01s3.14-7.01,7.01-7.01c3.87,0,7.01,3.14,7.01,7.01
	S841.73,168.32,837.86,168.32z"/>
<ellipse transform="matrix(0.9997 -0.0238 0.0238 0.9997 -4.824 19.992)" class="st0" cx="837.86" cy="212.75" rx="7.01" ry="7.01"/>
<ellipse transform="matrix(0.9996 -0.0277 0.0277 0.9996 0.1083 21.8224)" class="st0" cx="786.43" cy="7.01" rx="7.01" ry="7.01"/>
<ellipse transform="matrix(0.9996 -0.0277 0.0277 0.9996 -1.3188 21.8422)" class="st0" cx="786.43" cy="58.44" rx="7.01" ry="7.01"/>
<ellipse transform="matrix(0.9996 -0.0277 0.0277 0.9996 -2.7459 21.862)" class="st0" cx="786.43" cy="109.88" rx="7.01" ry="7.01"/>
<path class="st0" d="M786.43,168.32c-3.87,0-7.01-3.14-7.01-7.01s3.14-7.01,7.01-7.01c3.87,0,7.01,3.14,7.01,7.01
	S790.3,168.32,786.43,168.32z"/>
<ellipse transform="matrix(0.9996 -0.0277 0.0277 0.9996 0.0885 20.3953)" class="st0" cx="734.99" cy="7.01" rx="7.01" ry="7.01"/>
<ellipse transform="matrix(0.9996 -0.0277 0.0277 0.9996 -1.3386 20.4151)" class="st0" cx="734.99" cy="58.44" rx="7.01" ry="7.01"/>
<ellipse transform="matrix(0.9996 -0.0277 0.0277 0.9996 -2.7657 20.4349)" class="st0" cx="734.99" cy="109.88" rx="7.01" ry="7.01"/>
<ellipse transform="matrix(0.9996 -0.0277 0.0277 0.9996 0.0687 18.9682)" class="st0" cx="683.56" cy="7.01" rx="7.01" ry="7.01"/>
<ellipse transform="matrix(0.9996 -0.0277 0.0277 0.9996 -1.3584 18.988)" class="st0" cx="683.56" cy="58.44" rx="7.01" ry="7.01"/>
<circle class="st0" cx="632.12" cy="7.01" r="7.01"/>
<path class="st0" d="M6.39,995.35c0-1.76-1.43-3.19-3.19-3.19S0,993.59,0,995.35c0,1.76,1.43,3.19,3.19,3.19
	S6.39,997.12,6.39,995.35z"/>
<path class="st0" d="M29.82,995.35c0-1.76-1.43-3.19-3.19-3.19c-1.76,0-3.19,1.43-3.19,3.19c0,1.76,1.43,3.19,3.19,3.19
	C28.39,998.55,29.82,997.12,29.82,995.35z"/>
<path class="st0" d="M53.25,995.35c0-1.76-1.43-3.19-3.19-3.19c-1.76,0-3.19,1.43-3.19,3.19c0,1.76,1.43,3.19,3.19,3.19
	C51.82,998.55,53.25,997.12,53.25,995.35z"/>
<path class="st0" d="M76.69,995.35c0-1.76-1.43-3.19-3.19-3.19c-1.76,0-3.19,1.43-3.19,3.19c0,1.76,1.43,3.19,3.19,3.19
	C75.26,998.55,76.69,997.12,76.69,995.35z"/>
<path class="st0" d="M100.12,995.35c0-1.76-1.43-3.19-3.19-3.19c-1.76,0-3.19,1.43-3.19,3.19c0,1.76,1.43,3.19,3.19,3.19
	C98.69,998.55,100.12,997.12,100.12,995.35z"/>
<path class="st0" d="M123.55,995.35c0-1.76-1.43-3.19-3.19-3.19c-1.76,0-3.19,1.43-3.19,3.19c0,1.76,1.43,3.19,3.19,3.19
	C122.12,998.55,123.55,997.12,123.55,995.35z"/>
<path class="st0" d="M6.39,971.92c0-1.76-1.43-3.19-3.19-3.19S0,970.16,0,971.92c0,1.76,1.43,3.19,3.19,3.19
	S6.39,973.68,6.39,971.92z"/>
<path class="st0" d="M29.82,971.92c0-1.76-1.43-3.19-3.19-3.19c-1.76,0-3.19,1.43-3.19,3.19c0,1.76,1.43,3.19,3.19,3.19
	C28.39,975.11,29.82,973.68,29.82,971.92z"/>
<path class="st0" d="M53.25,971.92c0-1.76-1.43-3.19-3.19-3.19c-1.76,0-3.19,1.43-3.19,3.19c0,1.76,1.43,3.19,3.19,3.19
	C51.82,975.11,53.25,973.68,53.25,971.92z"/>
<path class="st0" d="M76.69,971.92c0-1.76-1.43-3.19-3.19-3.19c-1.76,0-3.19,1.43-3.19,3.19c0,1.76,1.43,3.19,3.19,3.19
	C75.26,975.11,76.69,973.68,76.69,971.92z"/>
<path class="st0" d="M100.12,971.92c0-1.76-1.43-3.19-3.19-3.19c-1.76,0-3.19,1.43-3.19,3.19c0,1.76,1.43,3.19,3.19,3.19
	C98.69,975.11,100.12,973.68,100.12,971.92z"/>
<path class="st0" d="M123.55,971.92c0-1.76-1.43-3.19-3.19-3.19c-1.76,0-3.19,1.43-3.19,3.19c0,1.76,1.43,3.19,3.19,3.19
	C122.12,975.11,123.55,973.68,123.55,971.92z"/>
<path class="st0" d="M144.53,995.35c0-1.76-1.43-3.19-3.19-3.19c-1.76,0-3.19,1.43-3.19,3.19c0,1.76,1.43,3.19,3.19,3.19
	C143.1,998.55,144.53,997.12,144.53,995.35z"/>
<path class="st0" d="M166.84,995.35c0-1.76-1.43-3.19-3.19-3.19c-1.76,0-3.19,1.43-3.19,3.19c0,1.76,1.43,3.19,3.19,3.19
	C165.41,998.55,166.84,997.12,166.84,995.35z"/>
<path class="st0" d="M144.53,971.92c0-1.76-1.43-3.19-3.19-3.19c-1.76,0-3.19,1.43-3.19,3.19c0,1.76,1.43,3.19,3.19,3.19
	C143.1,975.11,144.53,973.68,144.53,971.92z"/>
<path class="st0" d="M6.39,948.49c0-1.76-1.43-3.19-3.19-3.19S0,946.72,0,948.49c0,1.76,1.43,3.19,3.19,3.19
	S6.39,950.25,6.39,948.49z"/>
<path class="st0" d="M29.82,948.49c0-1.76-1.43-3.19-3.19-3.19c-1.76,0-3.19,1.43-3.19,3.19c0,1.76,1.43,3.19,3.19,3.19
	C28.39,951.68,29.82,950.25,29.82,948.49z"/>
<path class="st0" d="M53.25,948.49c0-1.76-1.43-3.19-3.19-3.19c-1.76,0-3.19,1.43-3.19,3.19c0,1.76,1.43,3.19,3.19,3.19
	C51.82,951.68,53.25,950.25,53.25,948.49z"/>
<path class="st0" d="M76.69,948.49c0-1.76-1.43-3.19-3.19-3.19c-1.76,0-3.19,1.43-3.19,3.19c0,1.76,1.43,3.19,3.19,3.19
	C75.26,951.68,76.69,950.25,76.69,948.49z"/>
<path class="st0" d="M100.12,948.49c0-1.76-1.43-3.19-3.19-3.19c-1.76,0-3.19,1.43-3.19,3.19c0,1.76,1.43,3.19,3.19,3.19
	C98.69,951.68,100.12,950.25,100.12,948.49z"/>
<path class="st0" d="M123.55,948.49c0-1.76-1.43-3.19-3.19-3.19c-1.76,0-3.19,1.43-3.19,3.19c0,1.76,1.43,3.19,3.19,3.19
	C122.12,951.68,123.55,950.25,123.55,948.49z"/>
<path class="st0" d="M6.39,925.05c0-1.76-1.43-3.19-3.19-3.19S0,923.29,0,925.05c0,1.76,1.43,3.19,3.19,3.19
	S6.39,926.82,6.39,925.05z"/>
<path class="st0" d="M29.82,925.05c0-1.76-1.43-3.19-3.19-3.19c-1.76,0-3.19,1.43-3.19,3.19c0,1.76,1.43,3.19,3.19,3.19
	C28.39,928.25,29.82,926.82,29.82,925.05z"/>
<path class="st0" d="M53.25,925.05c0-1.76-1.43-3.19-3.19-3.19c-1.76,0-3.19,1.43-3.19,3.19c0,1.76,1.43,3.19,3.19,3.19
	C51.82,928.25,53.25,926.82,53.25,925.05z"/>
<path class="st0" d="M76.69,925.05c0-1.76-1.43-3.19-3.19-3.19c-1.76,0-3.19,1.43-3.19,3.19c0,1.76,1.43,3.19,3.19,3.19
	C75.26,928.25,76.69,926.82,76.69,925.05z"/>
<path class="st0" d="M100.12,925.05c0-1.76-1.43-3.19-3.19-3.19c-1.76,0-3.19,1.43-3.19,3.19c0,1.76,1.43,3.19,3.19,3.19
	C98.69,928.25,100.12,926.82,100.12,925.05z"/>
<path class="st0" d="M6.39,901.62c0-1.76-1.43-3.19-3.19-3.19S0,899.86,0,901.62c0,1.76,1.43,3.19,3.19,3.19
	S6.39,903.38,6.39,901.62z"/>
<path class="st0" d="M29.82,901.62c0-1.76-1.43-3.19-3.19-3.19c-1.76,0-3.19,1.43-3.19,3.19c0,1.76,1.43,3.19,3.19,3.19
	C28.39,904.81,29.82,903.38,29.82,901.62z"/>
<path class="st0" d="M53.25,901.62c0-1.76-1.43-3.19-3.19-3.19c-1.76,0-3.19,1.43-3.19,3.19c0,1.76,1.43,3.19,3.19,3.19
	C51.82,904.81,53.25,903.38,53.25,901.62z"/>
<path class="st0" d="M76.69,901.62c0-1.76-1.43-3.19-3.19-3.19c-1.76,0-3.19,1.43-3.19,3.19c0,1.76,1.43,3.19,3.19,3.19
	C75.26,904.81,76.69,903.38,76.69,901.62z"/>
<path class="st0" d="M6.39,878.19c0-1.76-1.43-3.19-3.19-3.19S0,876.42,0,878.19c0,1.76,1.43,3.19,3.19,3.19
	S6.39,879.95,6.39,878.19z"/>
<path class="st0" d="M29.82,878.19c0-1.76-1.43-3.19-3.19-3.19c-1.76,0-3.19,1.43-3.19,3.19c0,1.76,1.43,3.19,3.19,3.19
	C28.39,881.38,29.82,879.95,29.82,878.19z"/>
<path class="st0" d="M53.25,878.19c0-1.76-1.43-3.19-3.19-3.19c-1.76,0-3.19,1.43-3.19,3.19c0,1.76,1.43,3.19,3.19,3.19
	C51.82,881.38,53.25,879.95,53.25,878.19z"/>
<path class="st0" d="M6.39,854.75c0-1.76-1.43-3.19-3.19-3.19S0,852.99,0,854.75c0,1.76,1.43,3.19,3.19,3.19
	S6.39,856.52,6.39,854.75z"/>
<path class="st0" d="M29.82,854.75c0-1.76-1.43-3.19-3.19-3.19c-1.76,0-3.19,1.43-3.19,3.19c0,1.76,1.43,3.19,3.19,3.19
	C28.39,857.95,29.82,856.52,29.82,854.75z"/>
<path class="st0" d="M6.39,831.32c0-1.76-1.43-3.19-3.19-3.19S0,829.56,0,831.32c0,1.76,1.43,3.19,3.19,3.19
	S6.39,833.08,6.39,831.32z"/>
</svg>
