<?xml version="1.0" encoding="utf-8"?>
<!-- Generator: Adobe Illustrator 23.0.0, SVG Export Plug-In . SVG Version: 6.00 Build 0)  -->
<svg version="1.1" id="Layer_1" xmlns="http://www.w3.org/2000/svg" xmlns:xlink="http://www.w3.org/1999/xlink" x="0px" y="0px"
	 viewBox="0 0 392.8 479.9" style="enable-background:new 0 0 392.8 479.9;" xml:space="preserve">
<style type="text/css">
	.st0{fill:url(#SVGID_1_);}
	.st1{fill:url(#SVGID_2_);}
	.st2{fill:#EEEEEE;}
</style>
<linearGradient id="SVGID_1_" gradientUnits="userSpaceOnUse" x1="197.5173" y1="123.3035" x2="197.5173" y2="497.4368" gradientTransform="matrix(1 0 0 -1 0 497.4368)">
	<stop  offset="0" style="stop-color:#14375D"/>
	<stop  offset="0.1011" style="stop-color:#16475A"/>
	<stop  offset="0.3245" style="stop-color:#2B7048"/>
	<stop  offset="0.3783" style="stop-color:#317C41"/>
	<stop  offset="0.8095" style="stop-color:#A1CC3A"/>
</linearGradient>
<path class="st0" d="M384,196.1c-4.2,57-27.8,103.8-72.8,138.8c-58.5,45.6-137.9,52.1-203.9,15.9c-63.3-34.7-90.5-96.1-95-139.1
	c7,0,13.8-0.3,20.6,0.1c11.4,0.7,22.4,3.5,32.7,8.2c10,4.5,19.9,9.9,29.5,15.6c20.1,11.8,39.8,24.5,60,36.1
	c15.8,8.9,32.8,15.3,50.9,17.2c18.8,1.9,37-0.2,54.2-8.8c10.8-5.4,20.8-11.8,29.3-20.3c8.5-8.5,14.7-18.7,18.8-30
	c0.2-0.4,0.3-1,0.3-1.4c0.1-0.7,0-1.4,0-2.4c-4.4-0.3-8.6-0.3-12.8-0.9c-8.5-1.1-17.1-2.2-25.5-3.6c-6.1-1-12-2.5-17.9-4.1
	c-5.4-1.4-10.8-3.1-16-5c-6-2.1-11.7-4.5-17.6-6.8c-7.6-3-15.2-6.1-22.9-9.2c-9.5-3.8-18.9-7.5-28.4-11.2c-6-2.2-11.8-4.6-18-6.1
	c-7.2-1.8-14.5-3.1-21.9-3.8c-8.2-0.9-16.5-1.4-24.7-1.1c-7.3,0.3-14.5,2-21.8,3c-1,0.1-1.9,0.3-2.9,0.4c0-0.2-0.1-0.4-0.1-0.8
	c0.9-0.2,1.9-0.4,2.8-0.7c6.7-1.9,13.5-3.9,20.3-5.4c6.1-1.3,12.3-2.2,18.4-2.9c5.5-0.6,11.2-0.8,16.7-0.6c9.3,0.3,18.6,1,27.7,3.4
	c9.6,2.5,19.3,4.9,28.8,7.6c13.1,3.9,26.1,8,39.2,11.9c14.7,4.5,29.6,8.7,44.8,10.8c9.3,1.3,18.6,1.9,27.9,2.5
	c6.1,0.4,12.1,1,18.2,0.4c13.8-1.2,27.6-2.8,41.4-4.5C371,199.1,377,197.5,384,196.1z M33,160.9c3.8-6.1,8.5-11.6,12.7-17.3
	c2.2-3,4.2-6.1,6.6-8.7c3.3-3.6,7-7,10.7-10.2c6-5,12-9.7,18.1-14.6c9.1-7.2,19.4-12.1,29.7-17.3c2-1,4-1.9,6.1-2.7
	c3.9-1.4,7.7-2.8,11.7-4c5.7-1.9,11.5-4.1,17.4-5.5c5.5-1.3,11.2-2.2,16.8-2.5c8.3-0.6,16.7-0.8,25-0.7c4.2,0.1,8.4,1,12.5,1.9
	c4.6,0.9,9.4,1.7,13.9,3.1c5.4,1.8,10.7,4.1,16,6.4c5,2.1,9.8,4.4,14.7,6.8c1.3,0.7,2.3,1.9,3.6,2.8c5.1,3.2,10.3,6.2,15.2,9.5
	c9.9,6.6,18.6,15,26.3,24.1c5.5,6.4,10.7,13.3,14,21.2c0.3,0.9,2,2.1,2.9,2c7.2-0.7,14.4-1.3,21.2-3.9c6.2-2.2,12.4-4.4,18.1-7.7
	c7.8-4.6,14.9-10.3,21.9-16.2c3.1-2.7,4.4-6,3.2-8.7c-2.1-5-3.9-10-6.3-14.9c-2.4-4.7-5.3-9.3-8.1-13.9c-4.9-8-9.8-15.8-16.3-22.5
	c-4.3-4.5-8.2-9.5-12.6-13.9c-4.6-4.7-9.4-9.3-14.6-13.4c-5.6-4.4-11.6-8.7-17.8-12.3c-9.1-5.1-18.4-9.7-27.9-13.9
	c-7-3.1-14.2-5.5-21.5-7.7c-5.3-1.7-10.9-2.8-16.5-3.6c-6.6-1.1-13.4-2.3-20-2.4c-10.6-0.1-21.3,0.3-31.9,1
	c-5.6,0.3-11.4,1.3-16.9,2.4c-6.7,1.3-13.6,2.9-20.1,5c-9.7,3.2-19.3,6.6-28.3,11.7c-5.9,3.3-11.9,6.3-17.6,9.9
	c-5.1,3.3-9.8,7.2-14.7,10.8c-1.5,1.1-3.2,2.2-4.5,3.4c-4,3.8-8.1,7.6-11.9,11.6c-3.5,3.5-7,7.2-10.2,10.9
	c-2.9,3.4-5.3,7.1-7.8,10.7c-2.7,3.6-5.5,7.1-7.7,10.9c-4.6,8.3-9.2,16.7-13.3,25.3c-2.7,5.6-4.6,11.5-6.3,17.4
	c-3.6,13.4-7.1,26.7-7.4,40.6c-0.3,11.2-0.1,22.4-0.1,33.7c0.2,0,0.4,0.1,0.6,0.1c0.4-0.9,1-1.7,1.3-2.5
	C17.5,188.3,24.6,174.3,33,160.9z"/>
<g>
	
		<linearGradient id="SVGID_2_" gradientUnits="userSpaceOnUse" x1="196.42" y1="58.4992" x2="196.42" y2="103.0736" gradientTransform="matrix(1 0 0 -1 0 497.4368)">
		<stop  offset="0" style="stop-color:#14375D"/>
		<stop  offset="0.1011" style="stop-color:#16475A"/>
		<stop  offset="0.3245" style="stop-color:#2B7048"/>
		<stop  offset="0.3783" style="stop-color:#317C41"/>
		<stop  offset="0.8095" style="stop-color:#A1CC3A"/>
	</linearGradient>
	<path class="st1" d="M217.2,438.1c-0.5,0.1-0.6,0.1-0.7,0.1c-3.6-0.2-7.7,0.5-10.6-1c-3-1.6-4.7-5.5-7-8.5c-2.8-3.6-5.5-7.4-8.3-11
		c-0.5-0.7-1.5-1-2.8-1.8c0,7.8,0,14.9,0,22.1c-3.8,0-7.5,0-11.5,0c0-14,0-27.9,0-42.1c3.4-2.4,7.4-0.7,11.3-0.1
		c0.7,0.1,1.2,1.6,1.9,2.4c3.2,4,6.5,7.9,9.6,12c1.2,1.5,2,3.3,3.1,4.9c0.7,1,1.5,1.8,2.3,2.8c0.3-0.1,0.6-0.2,0.9-0.3
		c0-1.5,0-2.9,0-4.4c0-5.1,0-10.1-0.1-15.2c-0.1-2.3,0.6-3.2,3-3.2c8.9,0.1,9,0,9,8.8c0,10.6,0,21.2,0,31.8
		C217.2,436.2,217.2,437.1,217.2,438.1z M83.7,419.3c2.8-5.1,3.1-10.2,0.8-15.8c-1.2-3-3.4-5.1-5.6-6.2c-3.3-1.6-7.4-2-11.1-2.3
		c-4.7-0.4-9.4-0.1-14.1-0.1c-6,0-6,0-6,6c0,11.5,0,23,0,34.5c0,0.9,0,1.9,0,2.8c4.6,0,8.7,0,13.1,0c0-3.8,0-7.5,0-11.2
		c1.6,0,2.8,0.1,4.1,0c2-0.3,3.1,0.5,3.8,2.4c1,2.6,2.3,5.1,3.6,7.6c0.3,0.7,1.2,1.4,1.9,1.4c4.2,0.1,8.4,0.1,13.2,0.1
		c-3-4.9-5.8-9.3-8.4-13.5C80.7,422.8,82.6,421.3,83.7,419.3z M72.2,407.1c1.9,1.8,1.9,3.9,1.3,6.2c-0.7,2.5-2.5,3.6-4.9,3.8
		c-2.5,0.2-5,0-7.7,0c0-3.8,0-7.5,0-11.4C64.7,405.3,68.7,403.7,72.2,407.1z M111.6,405.1c4.8-0.1,9.6,0,14.4,0c1.7,0,2.1-0.9,2-2.4
		c-0.2-2.7,0.6-5.6-1.9-7.7c-0.1,0-0.2,0-0.3-0.1c-2.3,0-4.6-0.1-6.8-0.1c-8,0-15.9,0.1-23.9-0.1c-2.3,0-3,0.9-2.9,3
		c0.2,3.6,0.4,7.2,0.4,10.8c0.1,8.7,0,17.4,0,26.1c0,1.1,0,2.3,0,3.4c12,0,23.7,0,35.3,0c0-3.2,0-6.3,0-9.6c-7.6,0-15.1,0-22.5,0
		c0-2.4,0-4.5,0-7c6.7,0,13.3,0,19.8,0c0-3.3,0-6.3,0-9.4c-1-0.1-1.9-0.3-2.8-0.3c-4.6,0-9.2-0.1-13.8,0.1c-2.3,0.1-3.1-1-3.3-3
		c-0.1-0.9,0-1.8,0-3.3C107.5,405.4,109.6,405.2,111.6,405.1z M150.4,411.8c-1,0-2.9-0.4-3-0.8c-0.2-1.7,0-3.5,0.2-5.3
		c0-0.2,0.7-0.5,1.1-0.5c6,0.1,12.1,0.2,18.1,0.4c1.6,0.1,2.6-0.3,2.6-2.1c0-1.8-0.1-3.6,0-5.4c0.2-2.4-0.9-3.2-3.2-3.2
		c-9.7,0.1-19.4,0.1-29.1,0c-2.3,0-3.3,0.9-3.2,3.2c0.2,5.8,0.4,11.6,0.4,17.5c0.1,6.5,0,13,0,19.6c0,1,0.1,2.1,0.1,3.1
		c12,0,23.6,0,35.2,0c0-3.2,0-6.3,0-9.6c-7.6,0-15.1,0-22.5,0c0-2.5,0-4.6,0-6.9c6.7,0,13.2,0,19.8,0c0-3.2,0-6.2,0-9.7
		C161.4,411.8,155.9,411.9,150.4,411.8z M390,413.6c-0.1-0.9-1.5-2.2-2.3-2.2c-4.2,0-8.4,0.3-12.6,0.5c-4.8,0.2-5.9-1.3-4.6-6.5
		c7,0,14.2,0,21.8,0c0-2.9-0.1-5.2,0-7.5c0.1-2.2-0.6-3.1-2.9-3c-7.5,0.1-15,0-22.5,0c-2.4,0-4.7,0-7.1,0c-1.9,0-2.9,0.7-2.8,2.7
		c0.2,4.1,0.4,8.1,0.5,12.2c0.1,8.4,0,16.8,0,25.3c0,1,0,2.1,0,3.1c12.1,0,23.7,0,35.3,0c0-3.2,0-6.3,0-9.6c-7.6,0-15.1,0-22.6,0
		c0-2.4,0-4.6,0-6.9c6.7,0,13.2,0,20,0C390.1,418.6,390.3,416.1,390,413.6z M309,436.5c-3.1-7.4-6.2-14.7-9.2-22.1
		c-2.3-5.6-4.3-11.4-6.6-17c-0.4-1-1.8-2.2-2.9-2.3c-2.7-0.2-5.5,0.5-8.1,0.2c-2.9-0.2-4.4,0.9-5.2,3.4c-0.4,1.2-1.1,2.4-1.6,3.5
		c-3.3,8.1-6.5,16.2-9.8,24.4c-1.6,3.8-3.3,7.6-5,11.7c3,0,5.5,0,8.1,0c5,0,5.1,0,6.7-4.6c0.7-1.9,1.6-2.5,3.5-2.4
		c3.2,0.1,6.3,0,9.5,0c5.2,0,5.3,0,7,5c0.5,1.5,1.2,2,2.7,2c3.7-0.1,7.4,0,11.4,0C309.3,437.5,309.2,437,309,436.5z M283.5,412.2
		c0.2-0.5,1-1,1.5-1c0.6,0,1.4,0.5,1.6,1c1.1,2.6,2.1,5.3,2.9,8.1c0.1,0.4-0.8,1.7-1.3,1.8c-2.7,0.2-5.4,0.1-8.6,0.1
		C281,418.5,282.2,415.3,283.5,412.2z M331.1,427.9c-5.5-0.6-9.5-6-9-11.7c0.5-5.5,5.3-10.4,10.8-10.5c3.3-0.1,6.2,0.9,8.8,2.7
		c2.1,1.5,3.6,1.1,5.1-0.9c1-1.4,2-2.7,3.2-3.8c1.4-1.4,1.6-3.1-0.1-4c-3.3-1.8-6.7-4.1-10.2-4.6c-4.5-0.6-9.4-0.2-13.8,0.8
		c-9.3,2.2-14.9,8.2-16.2,17.9c-0.9,6.6,0.8,12.5,5,17.6c7.3,8.8,27.1,10.1,35.7,2.4c0.4-0.4,0.7-1.1,0.7-1.6c0.1-5.2,0-10.5,0-16.1
		c-3.1,0-5.8,0.1-8.5,0c-1.8-0.1-2.4,0.7-2.3,2.4c0.1,2.7,0,5.4,0,8.8C337,427.5,334,428.2,331.1,427.9z M28.8,395
		c-4.5-0.7-9.3-1-13.7,0.9c-2.6,1.1-5.8,1.8-7.4,3.7c-3.6,4.2-7.1,8.5-7.6,14.8c-0.6,9,3.3,17.6,11.5,21.7c9.9,5,19.5,2.9,28.8-2
		c0.5-0.3,1.2-1,1.2-1.6c0.1-5.4,0.1-10.8,0.1-16.3c-3.8,0-7.1,0-10.8,0c0,3.6,0,7,0,10.3c-1.2,0.4-2.1,0.8-3.1,1.1
		c-4.6,1.2-8.9,0.7-12.1-3.1c-3.6-4.4-3.9-9.3-0.7-14.2c2.2-3.4,5.7-4.8,9.4-4.6c2.6,0.2,5.3,1.4,7.7,2.6c2.2,1.1,3.7,1.2,5.2-0.9
		c1.4-1.9,3.1-3.7,4.7-5.7C38.9,397.1,33.8,395.7,28.8,395z M249.9,437.7c6-1.6,9.8-5.8,10.1-11.9c0.2-4.5-1.4-8.9-7.8-11.8
		c-3.6-1.6-7.4-2.9-11.3-4c-1.9-0.5-3.1-1.6-2.9-3.2c0.3-2,2.3-2.6,4.1-2.1c3.8,1.1,7.6,2.3,11.3,3.8c1.3,0.5,2.1,0.9,2.8-0.6
		c0.9-2,1.9-4,3-5.9c1.1-2,0.4-3.2-1.4-4c-2.3-0.9-4.5-2-6.9-2.5c-6.7-1.3-13.4-2.1-19.8,1.4c-4.5,2.4-7.4,7.7-6.7,12.6
		c0.7,5,4.7,9.1,9.7,10.3c3.6,0.9,7.2,2,10.7,3.4c0.9,0.4,1.7,2,1.8,3.1c0,0.7-1.3,1.7-2.2,2.1c-1,0.4-2.3,0.4-3.4,0.3
		c-5.3-0.7-10-3.2-14.5-6.2c-1.6,3.2-3.1,6.2-4.8,9.5C230.5,437.8,239.7,440.5,249.9,437.7z"/>
	<g>
		<path class="st2" d="M17,464.7c2.9,1.5,4.8,3.3,5.1,6.2c0.4,3.7-2.5,7.7-6.3,8.1c-5.2,0.5-10.4,0.6-15.8,0.9c0-9.5,0-18.5,0-27.9
			c4.9,0,9.9-0.3,14.8,0.1c2.9,0.2,5.6,1.9,6.2,5.2C21.5,460.4,20.3,463,17,464.7z M4.5,475.6c3.5-0.3,6.8-0.3,10.1-0.8
			c1.9-0.3,2.7-1.7,2.7-3.7s-1.2-3.1-2.8-3.4c-3.2-0.5-6.5-0.6-10-0.8C4.5,469.9,4.5,472.4,4.5,475.6z M4.5,455.5c0,2.9,0,5.2,0,8.1
			c3.2-0.3,6.3-0.4,9.4-0.8c1.9-0.2,2.3-1.7,2.3-3.4c0-1.8-0.8-3-2.6-3.2C10.7,455.9,7.7,455.7,4.5,455.5z"/>
		<path class="st2" d="M113.3,452c1.8,0,3,0,4.6,0c0,9.2,0,18.2,0,27.3c-2.9,1.1-4.7-0.1-6.3-2.4c-3.4-4.9-7.1-9.7-10.6-14.5
			c-0.4-0.6-0.4-1.4-0.6-2.1c-0.5,0.4-0.9,0.7-1.4,1.1c0,6,0,12,0,18.2c-1.6,0-2.9,0-4.3,0c0-9,0-18,0-27.2c2.6-0.7,4.6-0.2,6.3,2.3
			c3.8,5.5,7.9,10.9,12.4,17C113.3,464.5,113.3,458.3,113.3,452z"/>
		<path class="st2" d="M274.3,460.6c0,6.6,0,12.6,0,18.7c-1.7,0-3.1,0-4.7,0c0-9.1,0-18.1,0-27.1c3.1-1.2,5.1,0.1,6.9,2.7
			c3.8,5.4,7.8,10.7,12.3,15.9c0-6.2,0-12.4,0-18.8c1.7,0,2.9,0,4.3,0c0,9,0,18.1,0,27.3c-2.6,0.7-4.5,0.2-6.1-2.3
			c-3.5-5.1-7.3-10-11-15C275.7,461.7,275.3,461.4,274.3,460.6z"/>
		<path class="st2" d="M249.8,451.7c9-0.1,14.7,6.5,14.6,14c-0.2,8.4-6,13.5-14.5,13.8c-8,0.3-14.6-6.1-14.6-13.7
			C235.2,457.6,241.1,451.8,249.8,451.7z M249.9,475.3c5.6,0,9.8-4.3,9.8-10c0-5.3-4.6-9.8-9.9-9.7c-5.2,0.1-10.4,4.5-9.9,10.5
			C240.4,471.3,244.3,475.3,249.9,475.3z"/>
		<path class="st2" d="M130.4,475.2c5,0,9.8,0,14.9,0c0,1.5,0,2.8,0,4.2c-6.5,0-13,0-19.7,0c0-9.1,0-18.2,0-27.4
			c6.4,0,12.8,0,19.3,0c0,1.2,0,2.3,0,3.7c-4.7,0-9.5,0-14.4,0c0,2.6,0,4.9,0,7.5c4.2,0,8.5,0,13,0c0,1.6,0,2.9,0,4.4
			c-4.4,0-8.7,0-13,0C130.4,470.2,130.4,472.5,130.4,475.2z"/>
		<path class="st2" d="M170,454.5c-0.7,1.3-1.2,2.5-1.6,3.3c-3.3-0.6-6.4-1.3-9.5-1.5c-1-0.1-2.5,1-2.9,2c-0.6,1.4,0,2.8,1.7,3.5
			c2.3,0.9,4.7,1.7,7,2.6c4,1.5,6.1,4.2,5.9,7.7c-0.3,3.5-3,6.2-7.1,7c-5.7,1.1-11-0.4-14.5-4.1c0.6-1.2,1.2-2.3,1.6-3.2
			c2.6,1.1,5,2.3,7.5,3c1.5,0.4,3.4,0.2,4.9-0.2c0.8-0.2,1.9-1.5,1.9-2.4c0-1-0.6-2.6-1.5-3c-2.5-1.3-5.3-2.1-8-3.1
			c-3.9-1.6-5.7-4.5-5.1-7.9c0.6-3.3,3.9-6,7.5-6.3C162.2,451.6,166.2,451.9,170,454.5z"/>
		<path class="st2" d="M76.5,454.6c-0.8,1.4-1.4,2.6-1.7,3.3c-3.1-0.6-6-1.4-8.8-1.5c-1.2-0.1-3,0.9-3.5,1.9
			c-0.9,1.8,0.5,3.2,2.3,3.9c2.1,0.8,4.2,1.5,6.3,2.2c3.9,1.4,6.1,4.2,5.9,7.4c-0.2,3.6-2.8,6.3-6.9,7.3c-5.4,1.2-11.1-0.3-14.7-4
			c0.6-1.1,1.1-2.3,1.6-3.3c2.7,1.1,5.2,2.3,7.9,3.3c0.7,0.3,1.6,0.3,2.4,0.2c1.8-0.4,3.9-0.5,4.3-3c0.4-2.4-1.4-3.3-3.2-4
			c-2-0.8-4.1-1.3-6.1-2.1c-4-1.5-5.6-3.8-5.4-7.4c0.2-3.1,2.5-6,6.1-6.6C67.7,451.3,72.3,451.6,76.5,454.6z"/>
		<path class="st2" d="M194.4,454.5c-0.5,1.2-1,2.4-1.4,3.3c-3.3-0.6-6.4-1.3-9.5-1.5c-1-0.1-2.7,0.9-3.1,1.8c-0.6,1.5,0,3,1.8,3.7
			c2.3,0.8,4.7,1.7,7,2.6c3.8,1.4,5.9,4,5.7,7.5c-0.2,3.4-3,6.2-6.7,7.2c-4.1,1.1-7.8,0.3-11.4-1.5c-4-2-4-2.1-1.7-5.8
			c2.5,1.1,4.8,2.4,7.4,3.1c1.5,0.4,3.4,0.2,5-0.2c0.8-0.2,1.9-1.4,1.9-2.1c0-1.1-0.5-2.9-1.4-3.3c-2.6-1.3-5.5-2.1-8.2-3.2
			c-4.6-1.9-6.4-6.4-3.7-10.2c1.3-1.8,3.7-3.3,5.9-3.7C186.2,451.3,190.6,451.7,194.4,454.5z"/>
		<path class="st2" d="M299.3,471.6c3.2,1.4,5.6,2.5,8.2,3.3c1.2,0.4,2.8,0.4,3.9-0.1c1.2-0.5,3-1.9,3-2.8c-0.1-1.3-1.4-2.9-2.6-3.5
			c-2.3-1.2-4.9-1.6-7.3-2.6c-4.7-2-6.4-6.8-3.3-10.7c1.2-1.5,3.4-2.9,5.4-3.1c2.9-0.4,6-0.1,8.8,0.6c4.3,1,4.4,1.8,2.2,5.1
			c-3.3-0.5-6.3-1.2-9.3-1.4c-1.1,0-2.8,1.1-3.2,2.1c-0.3,0.7,0.8,2.6,1.7,3.1c1.8,1.1,3.9,1.6,6,2.3c4.9,1.6,6.8,3.7,6.8,7.8
			c0,3.4-1.8,5.9-5.5,7.1c-5.5,1.8-10.5,0.6-14.8-3C298.5,475.3,299.2,473.1,299.3,471.6z"/>
		<path class="st2" d="M324.3,452c1.7,0,3.1,0,4.9,0c0,3.3,0,6.6,0,9.9c0,2.1,0,4.2,0,6.2c0,4.3,2.8,7.1,7.1,7.1
			c4.7,0,7.6-2.6,7.6-7.1c0.1-5.3,0-10.6,0-16.1c1.5,0,2.7,0,4.4,0c0,2.8,0,5.7,0,8.5c0,2.7-0.1,5.4,0,8.1
			c0.1,8.4-7.7,11.9-14.2,10.6c-6.9-1.3-8.9-5-9.7-11.4c-0.1-0.7,0-1.4,0-2.2C324.3,461.3,324.3,456.7,324.3,452z"/>
		<path class="st2" d="M46.6,452c1.5,0,2.7,0,4.3,0c0,6.3,0.5,12.7-0.1,18.9c-0.6,6-7.6,9.9-13.8,8.5c-6.8-1.5-9.9-5.3-9.9-12.4
			c0-5,0-9.9,0-15c1.6,0,3,0,4.9,0c0,2.4,0,4.9,0,7.4c0,2.7,0,5.4,0,8.2c0,4.8,2.4,7.6,6.8,7.6c5,0.1,7.8-2.5,7.9-7.4
			C46.7,462.6,46.6,457.4,46.6,452z"/>
		<path class="st2" d="M230.7,472.1c0.9,1,1.6,1.8,2.3,2.5c-4.2,5.5-13.3,6.9-20.1,1.4c-5.2-4.2-6.1-13.8-1.7-19
			c5.6-6.6,14.9-7.2,21.8-1.2c-0.8,1-1.7,2.1-2.5,3.1c-6.9-5.4-11.8-3.4-14.9-0.3c-3.6,3.4-3.6,9-0.5,13
			C218.4,476,223.8,476.2,230.7,472.1z"/>
		<path class="st2" d="M386.3,479.5c-1.7,0-2.8,0-4.3,0c0-7.8,0-15.5,0-23.6c-3,0-5.8,0-8.7,0c0-1.5,0-2.6,0-3.8
			c7.1,0,14.2,0,21.4,0c0,1.1,0,2.2,0,3.7c-2.6,0-5.4,0-8.4,0C386.3,463.8,386.3,471.5,386.3,479.5z"/>
		<path class="st2" d="M359.8,452c0,7.8,0,15.3,0,23.2c4,0,7.8,0,11.7,0c0,1.5,0,2.7,0,4.2c-5.2,0-10.5,0-16,0c0-9.1,0-18.1,0-27.3
			C356.8,452,358.1,452,359.8,452z"/>
		<path class="st2" d="M86.7,452c0,9.2,0,18.2,0,27.4c-1.4,0-2.6,0-4,0c0-9.1,0-18.2,0-27.4C83.9,452,85.2,452,86.7,452z"/>
	</g>
</g>
</svg>
