<?xml version="1.0" encoding="utf-8"?>
<!-- Generator: Adobe Illustrator 23.0.0, SVG Export Plug-In . SVG Version: 6.00 Build 0)  -->
<svg version="1.1" id="Layer_1" xmlns="http://www.w3.org/2000/svg" xmlns:xlink="http://www.w3.org/1999/xlink" x="0px" y="0px"
	 viewBox="0 0 751.5 167.2" style="enable-background:new 0 0 751.5 167.2;" xml:space="preserve">
<style type="text/css">
	.st0{fill:url(#SVGID_1_);}
	.st1{fill:url(#SVGID_2_);}
	.st2{fill:#193762;}
</style>
<linearGradient id="SVGID_1_" gradientUnits="userSpaceOnUse" x1="83.3493" y1="123.3035" x2="83.3493" y2="290.5242" gradientTransform="matrix(1 0 0 -1 0 290.5242)">
	<stop  offset="0" style="stop-color:#14375D"/>
	<stop  offset="0.1011" style="stop-color:#16475A"/>
	<stop  offset="0.3245" style="stop-color:#2B7048"/>
	<stop  offset="0.3783" style="stop-color:#317C41"/>
	<stop  offset="0.8095" style="stop-color:#A1CC3A"/>
</linearGradient>
<path class="st0" d="M166.7,87.7c-1.9,25.5-12.4,46.4-32.5,62C108,170.1,72.5,173,43,156.8C14.7,141.3,2.5,113.9,0.6,94.6
	c3.1,0,6.2-0.1,9.2,0c5.1,0.3,10,1.6,14.6,3.7c4.5,2,8.9,4.4,13.2,7c9,5.3,17.8,11,26.8,16.1c7.1,4,14.7,6.9,22.8,7.7
	c8.4,0.8,16.5-0.1,24.2-3.9c4.8-2.4,9.3-5.3,13.1-9.1c3.8-3.8,6.6-8.3,8.4-13.4c0.1-0.2,0.1-0.4,0.1-0.6c0-0.3,0-0.6,0-1.1
	c-2-0.1-3.8-0.1-5.7-0.4c-3.8-0.5-7.6-1-11.4-1.6c-2.7-0.4-5.4-1.1-8-1.8c-2.4-0.6-4.8-1.4-7.2-2.2c-2.7-0.9-5.2-2-7.8-3.1
	c-3.4-1.3-6.8-2.7-10.2-4.1c-4.2-1.7-8.4-3.4-12.7-5c-2.7-1-5.3-2.1-8-2.7c-3.2-0.8-6.5-1.4-9.8-1.7c-3.7-0.4-7.4-0.6-11.1-0.5
	c-3.3,0.1-6.5,0.9-9.7,1.3c-0.4,0-0.8,0.1-1.3,0.2c0-0.1,0-0.2,0-0.3c0.4-0.1,0.8-0.2,1.2-0.3c3-0.8,6-1.7,9.1-2.4
	c2.7-0.6,5.5-1,8.2-1.3c2.5-0.2,5-0.3,7.5-0.2c4.1,0.1,8.3,0.4,12.4,1.5c4.3,1.1,8.6,2.2,12.9,3.4c5.9,1.7,11.6,3.6,17.5,5.3
	c6.6,2,13.2,3.9,20,4.8c4.1,0.6,8.3,0.8,12.5,1.1c2.7,0.2,5.4,0.4,8.1,0.2c6.2-0.5,12.3-1.2,18.5-2C160.9,89,163.6,88.3,166.7,87.7z
	 M9.8,71.9c1.7-2.7,3.8-5.2,5.7-7.7c1-1.3,1.9-2.7,3-3.9c1.5-1.6,3.1-3.1,4.8-4.5c2.7-2.2,5.4-4.3,8.1-6.5c4-3.2,8.7-5.4,13.3-7.7
	c0.9-0.4,1.8-0.8,2.7-1.2c1.7-0.6,3.5-1.2,5.2-1.8c2.6-0.8,5.1-1.8,7.8-2.5c2.5-0.6,5-1,7.5-1.1c3.7-0.2,7.5-0.3,11.2-0.3
	c1.9,0,3.8,0.4,5.6,0.8c2.1,0.4,4.2,0.7,6.2,1.4c2.4,0.8,4.8,1.8,7.2,2.9c2.2,0.9,4.4,2,6.6,3.1c0.6,0.3,1,0.8,1.6,1.2
	c2.3,1.4,4.6,2.8,6.8,4.2c4.4,3,8.3,6.7,11.7,10.8c2.5,2.9,4.8,5.9,6.3,9.5c0.1,0.4,0.9,0.9,1.3,0.9c3.2-0.3,6.4-0.6,9.5-1.7
	c2.8-1,5.5-2,8.1-3.5c3.5-2.1,6.7-4.6,9.8-7.3c1.4-1.2,2-2.7,1.4-3.9c-0.9-2.2-1.7-4.5-2.8-6.7c-1.1-2.1-2.4-4.1-3.6-6.2
	c-2.2-3.6-4.4-7.1-7.3-10.1c-1.9-2-3.7-4.2-5.6-6.2c-2.1-2.1-4.2-4.1-6.5-6c-2.5-2-5.2-3.9-7.9-5.5c-4-2.3-8.2-4.3-12.5-6.2
	c-3.1-1.4-6.4-2.5-9.6-3.5c-2.4-0.7-4.9-1.2-7.4-1.6c-3-0.5-6-1-8.9-1.1c-4.7,0-9.5,0.1-14.3,0.4C72,0.6,69.5,1,67,1.5
	c-3,0.6-6.1,1.3-9,2.2c-4.3,1.4-8.6,3-12.6,5.2c-2.6,1.5-5.3,2.8-7.8,4.4c-2.3,1.5-4.4,3.2-6.6,4.8c-0.7,0.5-1.4,1-2,1.5
	c-1.8,1.7-3.6,3.4-5.3,5.2c-1.6,1.6-3.1,3.2-4.5,4.9c-1.3,1.5-2.4,3.2-3.5,4.8c-1.2,1.6-2.5,3.2-3.5,4.9C10.1,43.2,8,47,6.2,50.8
	C5,53.4,4.1,56,3.4,58.6c-1.6,6-3.2,11.9-3.3,18.2c-0.1,5,0,10,0,15.1c0.1,0,0.2,0,0.2,0c0.2-0.4,0.4-0.7,0.6-1.1
	C2.9,84.2,6.1,77.9,9.8,71.9z"/>
<g>
	
		<linearGradient id="SVGID_2_" gradientUnits="userSpaceOnUse" x1="473.6277" y1="206.7533" x2="473.6277" y2="269.8159" gradientTransform="matrix(1 0 0 -1 0 290.5242)">
		<stop  offset="0" style="stop-color:#14375D"/>
		<stop  offset="0.1011" style="stop-color:#16475A"/>
		<stop  offset="0.3245" style="stop-color:#2B7048"/>
		<stop  offset="0.3783" style="stop-color:#317C41"/>
		<stop  offset="0.8095" style="stop-color:#A1CC3A"/>
	</linearGradient>
	<path class="st1" d="M503,82.5c-0.7,0.1-0.8,0.1-1,0.1c-5.1-0.3-10.9,0.7-15-1.4c-4.2-2.3-6.6-7.8-9.9-12
		c-4-5.1-7.8-10.5-11.7-15.6c-0.7-1-2.1-1.4-4-2.5c0,11,0,21.1,0,31.3c-5.4,0-10.6,0-16.3,0c0-19.8,0-39.5,0-59.6
		c4.8-3.4,10.5-1,16-0.1c1,0.1,1.7,2.3,2.7,3.4c4.5,5.7,9.2,11.2,13.6,17c1.7,2.1,2.8,4.7,4.4,6.9c1,1.4,2.1,2.5,3.3,4
		c0.4-0.1,0.8-0.3,1.3-0.4c0-2.1,0-4.1,0-6.2c0-7.2,0-14.3-0.1-21.5c-0.1-3.3,0.8-4.5,4.2-4.5c12.6,0.1,12.7,0,12.7,12.4
		c0,15,0,30,0,45C503,79.9,503,81.1,503,82.5z M314.2,55.9c4-7.2,4.4-14.4,1.1-22.4c-1.7-4.2-4.8-7.2-7.9-8.8
		c-4.7-2.3-10.5-2.8-15.7-3.3c-6.6-0.6-13.3-0.1-19.9-0.1c-8.5,0-8.5,0-8.5,8.5c0,16.3,0,32.5,0,48.8c0,1.3,0,2.7,0,4
		c6.5,0,12.3,0,18.5,0c0-5.4,0-10.6,0-15.8c2.3,0,4,0.1,5.8,0c2.8-0.4,4.4,0.7,5.4,3.4c1.4,3.7,3.3,7.2,5.1,10.8c0.4,1,1.7,2,2.7,2
		c5.9,0.1,11.9,0.1,18.7,0.1c-4.2-6.9-8.2-13.2-11.9-19.1C309.9,60.9,312.6,58.8,314.2,55.9z M297.9,38.7c2.7,2.5,2.7,5.5,1.8,8.8
		c-1,3.5-3.5,5.1-6.9,5.4c-3.5,0.3-7.1,0-10.9,0c0-5.4,0-10.6,0-16.1C287.3,36.1,292.9,33.9,297.9,38.7z M353.6,35.9
		c6.8-0.1,13.6,0,20.4,0c2.4,0,3-1.3,2.8-3.4c-0.3-3.8,0.8-7.9-2.7-10.9c-0.1,0-0.3,0-0.4-0.1c-3.3,0-6.5-0.1-9.6-0.1
		c-11.3,0-22.5,0.1-33.8-0.1c-3.3,0-4.2,1.3-4.1,4.2c0.3,5.1,0.6,10.2,0.6,15.3c0.1,12.3,0,24.6,0,36.9c0,1.6,0,3.3,0,4.8
		c17,0,33.5,0,49.9,0c0-4.5,0-8.9,0-13.6c-10.8,0-21.4,0-31.8,0c0-3.4,0-6.4,0-9.9c9.5,0,18.8,0,28,0c0-4.7,0-8.9,0-13.3
		c-1.4-0.1-2.7-0.4-4-0.4c-6.5,0-13-0.1-19.5,0.1c-3.3,0.1-4.4-1.4-4.7-4.2c-0.1-1.3,0-2.5,0-4.7C347.8,36.3,350.8,36,353.6,35.9z
		 M408.5,45.3c-1.4,0-4.1-0.6-4.2-1.1c-0.3-2.4,0-5,0.3-7.5c0-0.3,1-0.7,1.6-0.7c8.5,0.1,17.1,0.3,25.6,0.6c2.3,0.1,3.7-0.4,3.7-3
		c0-2.5-0.1-5.1,0-7.6c0.3-3.4-1.3-4.5-4.5-4.5c-13.7,0.1-27.4,0.1-41.2,0c-3.3,0-4.7,1.3-4.5,4.5c0.3,8.2,0.6,16.4,0.6,24.8
		c0.1,9.2,0,18.4,0,27.7c0,1.4,0.1,3,0.1,4.4c17,0,33.4,0,49.8,0c0-4.5,0-8.9,0-13.6c-10.8,0-21.4,0-31.8,0c0-3.5,0-6.5,0-9.8
		c9.5,0,18.7,0,28,0c0-4.5,0-8.8,0-13.7C424.1,45.3,416.3,45.5,408.5,45.3z M747.5,47.9c-0.1-1.3-2.1-3.1-3.3-3.1
		c-5.9,0-11.9,0.4-17.8,0.7c-6.8,0.3-8.3-1.8-6.5-9.2c9.9,0,20.1,0,30.8,0c0-4.1-0.1-7.4,0-10.6c0.1-3.1-0.8-4.4-4.1-4.2
		c-10.6,0.1-21.2,0-31.8,0c-3.4,0-6.6,0-10,0c-2.7,0-4.1,1-4,3.8c0.3,5.8,0.6,11.5,0.7,17.3c0.1,11.9,0,23.8,0,35.8c0,1.4,0,3,0,4.4
		c17.1,0,33.5,0,49.9,0c0-4.5,0-8.9,0-13.6c-10.8,0-21.4,0-32,0c0-3.4,0-6.5,0-9.8c9.5,0,18.7,0,28.3,0
		C747.6,55,747.9,51.4,747.5,47.9z M632.9,80.3c-4.4-10.5-8.8-20.8-13-31.3c-3.3-7.9-6.1-16.1-9.3-24.1c-0.6-1.4-2.5-3.1-4.1-3.3
		c-3.8-0.3-7.8,0.7-11.5,0.3c-4.1-0.3-6.2,1.3-7.4,4.8c-0.6,1.7-1.6,3.4-2.3,5c-4.7,11.5-9.2,22.9-13.9,34.5
		c-2.3,5.4-4.7,10.8-7.1,16.6c4.2,0,7.8,0,11.5,0c7.1,0,7.2,0,9.5-6.5c1-2.7,2.3-3.5,5-3.4c4.5,0.1,8.9,0,13.4,0
		c7.4,0,7.5,0,9.9,7.1c0.7,2.1,1.7,2.8,3.8,2.8c5.2-0.1,10.5,0,16.1,0C633.3,81.7,633.2,81,632.9,80.3z M596.8,45.9
		c0.3-0.7,1.4-1.4,2.1-1.4c0.8,0,2,0.7,2.3,1.4c1.6,3.7,3,7.5,4.1,11.5c0.1,0.6-1.1,2.4-1.8,2.5c-3.8,0.3-7.6,0.1-12.2,0.1
		C593.3,54.8,595,50.3,596.8,45.9z M664.2,68.1c-7.8-0.8-13.4-8.5-12.7-16.6c0.7-7.8,7.5-14.7,15.3-14.9c4.7-0.1,8.8,1.3,12.5,3.8
		c3,2.1,5.1,1.6,7.2-1.3c1.4-2,2.8-3.8,4.5-5.4c2-2,2.3-4.4-0.1-5.7c-4.7-2.5-9.5-5.8-14.4-6.5c-6.4-0.8-13.3-0.3-19.5,1.1
		c-13.2,3.1-21.1,11.6-22.9,25.3c-1.3,9.3,1.1,17.7,7.1,24.9c10.3,12.4,38.3,14.3,50.5,3.4c0.6-0.6,1-1.6,1-2.3
		c0.1-7.4,0-14.9,0-22.8c-4.4,0-8.2,0.1-12,0c-2.5-0.1-3.4,1-3.3,3.4c0.1,3.8,0,7.6,0,12.4C672.5,67.5,668.3,68.5,664.2,68.1z
		 M236.5,21.6c-6.4-1-13.2-1.4-19.4,1.3c-3.7,1.6-8.2,2.5-10.5,5.2c-5.1,5.9-10,12-10.8,20.9c-0.8,12.7,4.7,24.9,16.3,30.7
		c14,7.1,27.6,4.1,40.7-2.8c0.7-0.4,1.7-1.4,1.7-2.3c0.1-7.6,0.1-15.3,0.1-23.1c-5.4,0-10,0-15.3,0c0,5.1,0,9.9,0,14.6
		c-1.7,0.6-3,1.1-4.4,1.6c-6.5,1.7-12.6,1-17.1-4.4c-5.1-6.2-5.5-13.2-1-20.1c3.1-4.8,8.1-6.8,13.3-6.5c3.7,0.3,7.5,2,10.9,3.7
		c3.1,1.6,5.2,1.7,7.4-1.3c2-2.7,4.4-5.2,6.6-8.1C250.8,24.5,243.6,22.6,236.5,21.6z M549.3,82c8.5-2.3,13.9-8.2,14.3-16.8
		c0.3-6.4-2-12.6-11-16.7c-5.1-2.3-10.5-4.1-16-5.7c-2.7-0.7-4.4-2.3-4.1-4.5c0.4-2.8,3.3-3.7,5.8-3c5.4,1.6,10.8,3.3,16,5.4
		c1.8,0.7,3,1.3,4-0.8c1.3-2.8,2.7-5.7,4.2-8.3c1.6-2.8,0.6-4.5-2-5.7c-3.3-1.3-6.4-2.8-9.8-3.5c-9.5-1.8-19-3-28,2
		c-6.4,3.4-10.5,10.9-9.5,17.8c1,7.1,6.6,12.9,13.7,14.6c5.1,1.3,10.2,2.8,15.1,4.8c1.3,0.6,2.4,2.8,2.5,4.4c0,1-1.8,2.4-3.1,3
		c-1.4,0.6-3.3,0.6-4.8,0.4c-7.5-1-14.1-4.5-20.5-8.8c-2.3,4.5-4.4,8.8-6.8,13.4C521.8,82.1,534.9,85.9,549.3,82z"/>
	<g>
		<path class="st2" d="M219.8,120.2c4.1,2.1,6.8,4.7,7.2,8.8c0.6,5.2-3.5,10.9-8.9,11.5c-7.4,0.7-14.7,0.8-22.4,1.3
			c0-13.4,0-26.2,0-39.5c6.9,0,14-0.4,20.9,0.1c4.1,0.3,7.9,2.7,8.8,7.4C226.2,114.1,224.5,117.8,219.8,120.2z M202.1,135.6
			c5-0.4,9.6-0.4,14.3-1.1c2.7-0.4,3.8-2.4,3.8-5.2s-1.7-4.4-4-4.8c-4.5-0.7-9.2-0.8-14.1-1.1C202.1,127.5,202.1,131.1,202.1,135.6z
			 M202.1,107.2c0,4.1,0,7.4,0,11.5c4.5-0.4,8.9-0.6,13.3-1.1c2.7-0.3,3.3-2.4,3.3-4.8c0-2.5-1.1-4.2-3.7-4.5
			C210.9,107.7,206.6,107.4,202.1,107.2z"/>
		<path class="st2" d="M356,102.2c2.5,0,4.2,0,6.5,0c0,13,0,25.7,0,38.6c-4.1,1.6-6.6-0.1-8.9-3.4c-4.8-6.9-10-13.7-15-20.5
			c-0.6-0.8-0.6-2-0.8-3c-0.7,0.6-1.3,1-2,1.6c0,8.5,0,17,0,25.7c-2.3,0-4.1,0-6.1,0c0-12.7,0-25.5,0-38.5c3.7-1,6.5-0.3,8.9,3.3
			c5.4,7.8,11.2,15.4,17.5,24.1C356,119.9,356,111.1,356,102.2z"/>
		<path class="st2" d="M583.8,114.4c0,9.3,0,17.8,0,26.5c-2.4,0-4.4,0-6.6,0c0-12.9,0-25.6,0-38.3c4.4-1.7,7.2,0.1,9.8,3.8
			c5.4,7.6,11,15.1,17.4,22.5c0-8.8,0-17.5,0-26.6c2.4,0,4.1,0,6.1,0c0,12.7,0,25.6,0,38.6c-3.7,1-6.4,0.3-8.6-3.3
			c-5-7.2-10.3-14.1-15.6-21.2C585.8,115.9,585.2,115.5,583.8,114.4z"/>
		<path class="st2" d="M549.1,101.8c12.7-0.1,20.8,9.2,20.7,19.8c-0.3,11.9-8.5,19.1-20.5,19.5c-11.3,0.4-20.7-8.6-20.7-19.4
			C528.5,110.1,536.8,101.9,549.1,101.8z M549.3,135.2c7.9,0,13.9-6.1,13.9-14.1c0-7.5-6.5-13.9-14-13.7c-7.4,0.1-14.7,6.4-14,14.9
			C535.8,129.5,541.4,135.2,549.3,135.2z"/>
		<path class="st2" d="M380.2,135c7.1,0,13.9,0,21.1,0c0,2.1,0,4,0,5.9c-9.2,0-18.4,0-27.9,0c0-12.9,0-25.7,0-38.8
			c9.1,0,18.1,0,27.3,0c0,1.7,0,3.3,0,5.2c-6.6,0-13.4,0-20.4,0c0,3.7,0,6.9,0,10.6c5.9,0,12,0,18.4,0c0,2.3,0,4.1,0,6.2
			c-6.2,0-12.3,0-18.4,0C380.2,128,380.2,131.2,380.2,135z"/>
		<path class="st2" d="M436.2,105.7c-1,1.8-1.7,3.5-2.3,4.7c-4.7-0.8-9.1-1.8-13.4-2.1c-1.4-0.1-3.5,1.4-4.1,2.8c-0.8,2,0,4,2.4,5
			c3.3,1.3,6.6,2.4,9.9,3.7c5.7,2.1,8.6,5.9,8.3,10.9c-0.4,5-4.2,8.8-10,9.9c-8.1,1.6-15.6-0.6-20.5-5.8c0.8-1.7,1.7-3.3,2.3-4.5
			c3.7,1.6,7.1,3.3,10.6,4.2c2.1,0.6,4.8,0.3,6.9-0.3c1.1-0.3,2.7-2.1,2.7-3.4c0-1.4-0.8-3.7-2.1-4.2c-3.5-1.8-7.5-3-11.3-4.4
			c-5.5-2.3-8.1-6.4-7.2-11.2c0.8-4.7,5.5-8.5,10.6-8.9C425.2,101.6,430.9,102.1,436.2,105.7z"/>
		<path class="st2" d="M304,105.9c-1.1,2-2,3.7-2.4,4.7c-4.4-0.8-8.5-2-12.4-2.1c-1.7-0.1-4.2,1.3-5,2.7c-1.3,2.5,0.7,4.5,3.3,5.5
			c3,1.1,5.9,2.1,8.9,3.1c5.5,2,8.6,5.9,8.3,10.5c-0.3,5.1-4,8.9-9.8,10.3c-7.6,1.7-15.7-0.4-20.8-5.7c0.8-1.6,1.6-3.3,2.3-4.7
			c3.8,1.6,7.4,3.3,11.2,4.7c1,0.4,2.3,0.4,3.4,0.3c2.5-0.6,5.5-0.7,6.1-4.2c0.6-3.4-2-4.7-4.5-5.7c-2.8-1.1-5.8-1.8-8.6-3
			c-5.7-2.1-7.9-5.4-7.6-10.5c0.3-4.4,3.5-8.5,8.6-9.3C291.5,101.2,298,101.6,304,105.9z"/>
		<path class="st2" d="M470.8,105.7c-0.7,1.7-1.4,3.4-2,4.7c-4.7-0.8-9.1-1.8-13.4-2.1c-1.4-0.1-3.8,1.3-4.4,2.5
			c-0.8,2.1,0,4.2,2.5,5.2c3.3,1.1,6.6,2.4,9.9,3.7c5.4,2,8.3,5.7,8.1,10.6c-0.3,4.8-4.2,8.8-9.5,10.2c-5.8,1.6-11,0.4-16.1-2.1
			c-5.7-2.8-5.7-3-2.4-8.2c3.5,1.6,6.8,3.4,10.5,4.4c2.1,0.6,4.8,0.3,7.1-0.3c1.1-0.3,2.7-2,2.7-3c0-1.6-0.7-4.1-2-4.7
			c-3.7-1.8-7.8-3-11.6-4.5c-6.5-2.7-9.1-9.1-5.2-14.4c1.8-2.5,5.2-4.7,8.3-5.2C459.2,101.2,465.4,101.8,470.8,105.7z"/>
		<path class="st2" d="M619.2,129.9c4.5,2,7.9,3.5,11.6,4.7c1.7,0.6,4,0.6,5.5-0.1c1.7-0.7,4.2-2.7,4.2-4c-0.1-1.8-2-4.1-3.7-5
			c-3.3-1.7-6.9-2.3-10.3-3.7c-6.6-2.8-9.1-9.6-4.7-15.1c1.7-2.1,4.8-4.1,7.6-4.4c4.1-0.6,8.5-0.1,12.4,0.8c6.1,1.4,6.2,2.5,3.1,7.2
			c-4.7-0.7-8.9-1.7-13.2-2c-1.6,0-4,1.6-4.5,3c-0.4,1,1.1,3.7,2.4,4.4c2.5,1.6,5.5,2.3,8.5,3.3c6.9,2.3,9.6,5.2,9.6,11
			c0,4.8-2.5,8.3-7.8,10c-7.8,2.5-14.9,0.8-20.9-4.2C618,135.2,619,132.1,619.2,129.9z"/>
		<path class="st2" d="M654.5,102.2c2.4,0,4.4,0,6.9,0c0,4.7,0,9.3,0,14c0,3,0,5.9,0,8.8c0,6.1,4,10,10,10c6.6,0,10.8-3.7,10.8-10
			c0.1-7.5,0-15,0-22.8c2.1,0,3.8,0,6.2,0c0,4,0,8.1,0,12c0,3.8-0.1,7.6,0,11.5c0.1,11.9-10.9,16.8-20.1,15
			c-9.8-1.8-12.6-7.1-13.7-16.1c-0.1-1,0-2,0-3.1C654.5,115.4,654.5,108.9,654.5,102.2z"/>
		<path class="st2" d="M261.7,102.2c2.1,0,3.8,0,6.1,0c0,8.9,0.7,18-0.1,26.7c-0.8,8.5-10.8,14-19.5,12c-9.6-2.1-14-7.5-14-17.5
			c0-7.1,0-14,0-21.2c2.3,0,4.2,0,6.9,0c0,3.4,0,6.9,0,10.5c0,3.8,0,7.6,0,11.6c0,6.8,3.4,10.8,9.6,10.8c7.1,0.1,11-3.5,11.2-10.5
			C261.8,117.2,261.7,109.8,261.7,102.2z"/>
		<path class="st2" d="M522.1,130.6c1.3,1.4,2.3,2.5,3.3,3.5c-5.9,7.8-18.8,9.8-28.4,2c-7.4-5.9-8.6-19.5-2.4-26.9
			c7.9-9.3,21.1-10.2,30.8-1.7c-1.1,1.4-2.4,3-3.5,4.4c-9.8-7.6-16.7-4.8-21.1-0.4c-5.1,4.8-5.1,12.7-0.7,18.4
			C504.7,136.2,512.4,136.4,522.1,130.6z"/>
		<path class="st2" d="M742.3,141.1c-2.4,0-4,0-6.1,0c0-11,0-21.9,0-33.4c-4.2,0-8.2,0-12.3,0c0-2.1,0-3.7,0-5.4c10,0,20.1,0,30.3,0
			c0,1.6,0,3.1,0,5.2c-3.7,0-7.6,0-11.9,0C742.3,118.9,742.3,129.8,742.3,141.1z"/>
		<path class="st2" d="M704.8,102.2c0,11,0,21.6,0,32.8c5.7,0,11,0,16.6,0c0,2.1,0,3.8,0,5.9c-7.4,0-14.9,0-22.6,0
			c0-12.9,0-25.6,0-38.6C700.5,102.2,702.4,102.2,704.8,102.2z"/>
		<path class="st2" d="M318.4,102.2c0,13,0,25.7,0,38.8c-2,0-3.7,0-5.7,0c0-12.9,0-25.7,0-38.8C314.4,102.2,316.3,102.2,318.4,102.2
			z"/>
	</g>
</g>
</svg>
