<?xml version="1.0" encoding="utf-8"?>
<!-- Generator: Adobe Illustrator 23.0.0, SVG Export Plug-In . SVG Version: 6.00 Build 0)  -->
<svg version="1.1" id="Layer_1" xmlns="http://www.w3.org/2000/svg" xmlns:xlink="http://www.w3.org/1999/xlink" x="0px" y="0px"
	 viewBox="0 0 651.5 127.8" style="enable-background:new 0 0 651.5 127.8;" xml:space="preserve">
<style type="text/css">
	.st0{fill:url(#SVGID_1_);}
	.st1{fill:url(#SVGID_2_);}
	.st2{fill:#EEEEEE;}
</style>
<linearGradient id="SVGID_1_" gradientUnits="userSpaceOnUse" x1="63.6827" y1="52.0507" x2="63.6827" y2="179.8149" gradientTransform="matrix(1 0 0 -1 0 179.8149)">
	<stop  offset="0" style="stop-color:#14375D"/>
	<stop  offset="0.1011" style="stop-color:#16475A"/>
	<stop  offset="0.3245" style="stop-color:#2B7048"/>
	<stop  offset="0.3783" style="stop-color:#317C41"/>
	<stop  offset="0.8095" style="stop-color:#A1CC3A"/>
</linearGradient>
<path class="st0" d="M127.4,67c-1.4,19.5-9.5,35.4-24.8,47.4c-20,15.6-47.1,17.8-69.6,5.4C11.3,108,1.9,87,0.4,72.3
	c2.4,0,4.7-0.1,7.1,0c3.9,0.2,7.7,1.2,11.2,2.8c3.4,1.5,6.8,3.4,10.1,5.3c6.9,4,13.6,8.4,20.5,12.3c5.4,3.1,11.2,5.2,17.4,5.9
	c6.4,0.6,12.6-0.1,18.5-3c3.7-1.8,7.1-4,10-6.9c2.9-2.9,5-6.4,6.4-10.3c0.1-0.2,0.1-0.3,0.1-0.5c0-0.2,0-0.5,0-0.8
	c-1.5-0.1-2.9-0.1-4.4-0.3c-2.9-0.4-5.8-0.8-8.7-1.2c-2.1-0.3-4.1-0.9-6.1-1.4c-1.8-0.5-3.7-1.1-5.5-1.7c-2-0.7-4-1.5-6-2.3
	c-2.6-1-5.2-2.1-7.8-3.1c-3.2-1.3-6.4-2.6-9.7-3.8c-2-0.8-4-1.6-6.1-2.1c-2.5-0.6-4.9-1.1-7.5-1.3c-2.8-0.3-5.6-0.5-8.4-0.4
	c-2.5,0.1-4.9,0.7-7.4,1c-0.3,0-0.6,0.1-1,0.2c0-0.1,0-0.2,0-0.3c0.3-0.1,0.6-0.2,0.9-0.2c2.3-0.6,4.6-1.3,6.9-1.8
	c2.1-0.5,4.2-0.8,6.3-1c1.9-0.2,3.8-0.3,5.7-0.2c3.2,0.1,6.3,0.3,9.5,1.2c3.3,0.9,6.6,1.7,9.8,2.6c4.5,1.3,8.9,2.7,13.4,4.1
	c5,1.5,10.1,3,15.3,3.7c3.2,0.5,6.3,0.6,9.5,0.9c2.1,0.2,4.1,0.3,6.2,0.2c4.7-0.4,9.4-0.9,14.1-1.5C122.9,68,125,67.4,127.4,67z
	 M7.5,54.9c1.3-2.1,2.9-4,4.3-5.9c0.8-1,1.4-2.1,2.3-3c1.1-1.2,2.4-2.4,3.7-3.5c2-1.7,4.1-3.3,6.2-5c3.1-2.5,6.6-4.1,10.1-5.9
	c0.7-0.3,1.4-0.6,2.1-0.9c1.3-0.5,2.6-0.9,4-1.4c2-0.6,3.9-1.4,6-1.9c1.9-0.5,3.8-0.8,5.7-0.9c2.8-0.2,5.7-0.3,8.5-0.2
	c1.4,0,2.9,0.3,4.3,0.6c1.6,0.3,3.2,0.6,4.8,1.1c1.8,0.6,3.7,1.4,5.5,2.2c1.7,0.7,3.4,1.5,5,2.3c0.5,0.2,0.8,0.6,1.2,0.9
	c1.7,1.1,3.5,2.1,5.2,3.2c3.4,2.3,6.3,5.1,9,8.2c1.9,2.2,3.7,4.5,4.8,7.2c0.1,0.3,0.7,0.7,1,0.7c2.5-0.2,4.9-0.5,7.2-1.3
	c2.1-0.8,4.2-1.5,6.2-2.6c2.7-1.6,5.1-3.5,7.5-5.5c1.1-0.9,1.5-2,1.1-3c-0.7-1.7-1.3-3.4-2.1-5.1c-0.8-1.6-1.8-3.2-2.8-4.8
	c-1.7-2.7-3.4-5.4-5.6-7.7c-1.5-1.5-2.8-3.2-4.3-4.8c-1.6-1.6-3.2-3.2-5-4.6c-1.9-1.5-4-3-6.1-4.2c-3.1-1.7-6.3-3.3-9.5-4.8
	c-2.4-1.1-4.9-1.9-7.4-2.6c-1.8-0.6-3.7-0.9-5.6-1.2C72.4,0.5,70.1,0,67.9,0C64.2,0,60.6,0.1,57,0.3c-1.9,0.1-3.9,0.5-5.8,0.8
	c-2.3,0.5-4.6,1-6.9,1.7c-3.3,1.1-6.6,2.3-9.7,4c-2,1.1-4.1,2.1-6,3.4c-1.7,1.1-3.4,2.5-5,3.7c-0.5,0.4-1.1,0.8-1.5,1.2
	c-1.4,1.3-2.8,2.6-4.1,4c-1.2,1.2-2.4,2.5-3.5,3.7c-1,1.2-1.8,2.4-2.7,3.7c-0.9,1.2-1.9,2.4-2.6,3.7c-1.6,2.8-3.1,5.7-4.5,8.6
	c-0.9,1.9-1.6,3.9-2.1,6c-1.2,4.6-2.4,9.1-2.5,13.9c-0.1,3.8,0,7.7,0,11.5c0.1,0,0.2,0,0.2,0c0.2-0.3,0.3-0.6,0.5-0.9
	C2.2,64.3,4.6,59.5,7.5,54.9z"/>
<g>
	
		<linearGradient id="SVGID_2_" gradientUnits="userSpaceOnUse" x1="400.6079" y1="115.9328" x2="400.6079" y2="171.4051" gradientTransform="matrix(1 0 0 -1 0 179.8149)">
		<stop  offset="0" style="stop-color:#14375D"/>
		<stop  offset="0.1011" style="stop-color:#16475A"/>
		<stop  offset="0.3245" style="stop-color:#2B7048"/>
		<stop  offset="0.3783" style="stop-color:#317C41"/>
		<stop  offset="0.8095" style="stop-color:#A1CC3A"/>
	</linearGradient>
	<path class="st1" d="M426.5,62.8c-0.6,0.1-0.7,0.1-0.9,0.1c-4.5-0.2-9.6,0.6-13.2-1.2c-3.7-2-5.8-6.8-8.7-10.6
		c-3.5-4.5-6.8-9.2-10.3-13.7c-0.6-0.9-1.9-1.2-3.5-2.2c0,9.7,0,18.5,0,27.5c-4.7,0-9.3,0-14.3,0c0-17.4,0-34.7,0-52.4
		c4.2-3,9.2-0.9,14.1-0.1c0.9,0.1,1.5,2,2.4,3c4,5,8.1,9.8,11.9,14.9c1.5,1.9,2.5,4.1,3.9,6.1c0.9,1.2,1.9,2.2,2.9,3.5
		c0.4-0.1,0.7-0.2,1.1-0.4c0-1.9,0-3.6,0-5.5c0-6.3,0-12.6-0.1-18.9c-0.1-2.9,0.7-4,3.7-4c11.1,0.1,11.2,0,11.2,11
		c0,13.2,0,26.4,0,39.6C426.5,60.4,426.5,61.6,426.5,62.8z M260.3,39.4c3.5-6.3,3.9-12.7,1-19.7c-1.5-3.7-4.2-6.3-7-7.7
		c-4.1-2-9.2-2.5-13.8-2.9C234.7,8.7,228.8,9,223,9c-7.5,0-7.5,0-7.5,7.5c0,14.3,0,28.6,0,42.9c0,1.1,0,2.4,0,3.5
		c5.7,0,10.8,0,16.3,0c0-4.7,0-9.3,0-13.9c2,0,3.5,0.1,5.1,0c2.5-0.4,3.9,0.6,4.7,3c1.2,3.2,2.9,6.3,4.5,9.5
		c0.4,0.9,1.5,1.7,2.4,1.7c5.2,0.1,10.5,0.1,16.4,0.1c-3.7-6.1-7.2-11.6-10.5-16.8C256.6,43.8,259,41.9,260.3,39.4z M246,24.2
		c2.4,2.2,2.4,4.9,1.6,7.7c-0.9,3.1-3.1,4.5-6.1,4.7c-3.1,0.2-6.2,0-9.6,0c0-4.7,0-9.3,0-14.2C236.7,22,241.7,20,246,24.2z
		 M295.1,21.7c6-0.1,11.9,0,17.9,0c2.1,0,2.6-1.1,2.5-3c-0.2-3.4,0.7-7-2.4-9.6c-0.1,0-0.2,0-0.4-0.1c-2.9,0-5.7-0.1-8.5-0.1
		c-10,0-19.8,0.1-29.7-0.1c-2.9,0-3.7,1.1-3.6,3.7c0.2,4.5,0.5,9,0.5,13.4c0.1,10.8,0,21.7,0,32.5c0,1.4,0,2.9,0,4.2
		c14.9,0,29.5,0,43.9,0c0-4,0-7.8,0-11.9c-9.5,0-18.8,0-28,0c0-3,0-5.6,0-8.7c8.3,0,16.6,0,24.6,0c0-4.1,0-7.8,0-11.7
		c-1.2-0.1-2.4-0.4-3.5-0.4c-5.7,0-11.4-0.1-17.2,0.1c-2.9,0.1-3.9-1.2-4.1-3.7c-0.1-1.1,0-2.2,0-4.1
		C289.9,22.1,292.6,21.9,295.1,21.7z M343.3,30.1c-1.2,0-3.6-0.5-3.7-1c-0.2-2.1,0-4.4,0.2-6.6c0-0.2,0.9-0.6,1.4-0.6
		c7.5,0.1,15.1,0.2,22.5,0.5c2,0.1,3.2-0.4,3.2-2.6c0-2.2-0.1-4.5,0-6.7c0.2-3-1.1-4-4-4c-12.1,0.1-24.1,0.1-36.2,0
		c-2.9,0-4.1,1.1-4,4c0.2,7.2,0.5,14.4,0.5,21.8c0.1,8.1,0,16.2,0,24.4c0,1.2,0.1,2.6,0.1,3.9c14.9,0,29.4,0,43.8,0
		c0-4,0-7.8,0-11.9c-9.5,0-18.8,0-28,0c0-3.1,0-5.7,0-8.6c8.3,0,16.4,0,24.6,0c0-4,0-7.7,0-12.1C357,30.1,350.2,30.2,343.3,30.1z
		 M641.5,32.3c-0.1-1.1-1.9-2.7-2.9-2.7c-5.2,0-10.5,0.4-15.7,0.6c-6,0.2-7.3-1.6-5.7-8.1c8.7,0,17.7,0,27.1,0c0-3.6-0.1-6.5,0-9.3
		c0.1-2.7-0.7-3.9-3.6-3.7c-9.3,0.1-18.7,0-28,0c-3,0-5.8,0-8.8,0c-2.4,0-3.6,0.9-3.5,3.4c0.2,5.1,0.5,10.1,0.6,15.2
		c0.1,10.5,0,20.9,0,31.5c0,1.2,0,2.6,0,3.9c15.1,0,29.5,0,43.9,0c0-4,0-7.8,0-11.9c-9.5,0-18.8,0-28.1,0c0-3,0-5.7,0-8.6
		c8.3,0,16.4,0,24.9,0C641.6,38.5,641.9,35.4,641.5,32.3z M540.7,60.8c-3.9-9.2-7.7-18.3-11.4-27.5c-2.9-7-5.4-14.2-8.2-21.2
		c-0.5-1.2-2.2-2.7-3.6-2.9c-3.4-0.2-6.8,0.6-10.1,0.2c-3.6-0.2-5.5,1.1-6.5,4.2c-0.5,1.5-1.4,3-2,4.4c-4.1,10.1-8.1,20.2-12.2,30.4
		c-2,4.7-4.1,9.5-6.2,14.6c3.7,0,6.8,0,10.1,0c6.2,0,6.3,0,8.3-5.7c0.9-2.4,2-3.1,4.4-3c4,0.1,7.8,0,11.8,0c6.5,0,6.6,0,8.7,6.2
		c0.6,1.9,1.5,2.5,3.4,2.5c4.6-0.1,9.2,0,14.2,0C541.1,62.1,541,61.4,540.7,60.8z M509,30.6c0.2-0.6,1.2-1.2,1.9-1.2
		c0.7,0,1.7,0.6,2,1.2c1.4,3.2,2.6,6.6,3.6,10.1c0.1,0.5-1,2.1-1.6,2.2c-3.4,0.2-6.7,0.1-10.7,0.1C505.9,38.4,507.4,34.4,509,30.6z
		 M568.2,50.1c-6.8-0.7-11.8-7.5-11.2-14.6c0.6-6.8,6.6-12.9,13.4-13.1c4.1-0.1,7.7,1.1,11,3.4c2.6,1.9,4.5,1.4,6.3-1.1
		c1.2-1.7,2.5-3.4,4-4.7c1.7-1.7,2-3.9-0.1-5c-4.1-2.2-8.3-5.1-12.7-5.7c-5.6-0.7-11.7-0.2-17.2,1c-11.6,2.7-18.5,10.2-20.2,22.3
		c-1.1,8.2,1,15.6,6.2,21.9c9.1,11,33.7,12.6,44.4,3c0.5-0.5,0.9-1.4,0.9-2c0.1-6.5,0-13.1,0-20c-3.9,0-7.2,0.1-10.6,0
		c-2.2-0.1-3,0.9-2.9,3c0.1,3.4,0,6.7,0,11C575.6,49.6,571.8,50.5,568.2,50.1z M192,9.2c-5.6-0.9-11.6-1.2-17,1.1
		c-3.2,1.4-7.2,2.2-9.2,4.6c-4.5,5.2-8.8,10.6-9.5,18.4c-0.7,11.2,4.1,21.9,14.3,27c12.3,6.2,24.3,3.6,35.8-2.5
		c0.6-0.4,1.5-1.2,1.5-2c0.1-6.7,0.1-13.4,0.1-20.3c-4.7,0-8.8,0-13.4,0c0,4.5,0,8.7,0,12.8c-1.5,0.5-2.6,1-3.9,1.4
		c-5.7,1.5-11.1,0.9-15.1-3.9c-4.5-5.5-4.9-11.6-0.9-17.7c2.7-4.2,7.1-6,11.7-5.7c3.2,0.2,6.6,1.7,9.6,3.2c2.7,1.4,4.6,1.5,6.5-1.1
		c1.7-2.4,3.9-4.6,5.8-7.1C204.6,11.8,198.2,10,192,9.2z M467.2,62.3c7.5-2,12.2-7.2,12.6-14.8c0.2-5.6-1.7-11.1-9.7-14.7
		c-4.5-2-9.2-3.6-14.1-5c-2.4-0.6-3.9-2-3.6-4c0.4-2.5,2.9-3.2,5.1-2.6c4.7,1.4,9.5,2.9,14.1,4.7c1.6,0.6,2.6,1.1,3.5-0.7
		c1.1-2.5,2.4-5,3.7-7.3c1.4-2.5,0.5-4-1.7-5c-2.9-1.1-5.6-2.5-8.6-3.1c-8.3-1.6-16.7-2.6-24.6,1.7c-5.6,3-9.2,9.6-8.3,15.7
		c0.9,6.2,5.8,11.3,12.1,12.8c4.5,1.1,9,2.5,13.3,4.2c1.1,0.5,2.1,2.5,2.2,3.9c0,0.9-1.6,2.1-2.7,2.6c-1.2,0.5-2.9,0.5-4.2,0.4
		c-6.6-0.9-12.4-4-18-7.7c-2,4-3.9,7.7-6,11.8C443,62.4,454.5,65.8,467.2,62.3z"/>
	<g>
		<path class="st2" d="M177.3,95.9c3.6,1.9,6,4.1,6.3,7.7c0.5,4.6-3.1,9.6-7.8,10.1c-6.5,0.6-12.9,0.7-19.7,1.1c0-11.8,0-23,0-34.7
			c6.1,0,12.3-0.4,18.4,0.1c3.6,0.2,7,2.4,7.7,6.5C182.9,90.6,181.4,93.8,177.3,95.9z M161.8,109.5c4.4-0.4,8.5-0.4,12.6-1
			c2.4-0.4,3.4-2.1,3.4-4.6s-1.5-3.9-3.5-4.2c-4-0.6-8.1-0.7-12.4-1C161.8,102.4,161.8,105.5,161.8,109.5z M161.8,84.5
			c0,3.6,0,6.5,0,10.1c4-0.4,7.8-0.5,11.7-1c2.4-0.2,2.9-2.1,2.9-4.2c0-2.2-1-3.7-3.2-4C169.5,85,165.7,84.7,161.8,84.5z"/>
		<path class="st2" d="M297.2,80.1c2.2,0,3.7,0,5.7,0c0,11.4,0,22.6,0,34c-3.6,1.4-5.8-0.1-7.8-3c-4.2-6.1-8.8-12.1-13.2-18
			c-0.5-0.7-0.5-1.7-0.7-2.6c-0.6,0.5-1.1,0.9-1.7,1.4c0,7.5,0,14.9,0,22.6c-2,0-3.6,0-5.4,0c0-11.2,0-22.4,0-33.9
			c3.2-0.9,5.7-0.2,7.8,2.9c4.7,6.8,9.8,13.6,15.4,21.2C297.2,95.7,297.2,87.9,297.2,80.1z"/>
		<path class="st2" d="M497.5,90.8c0,8.2,0,15.7,0,23.3c-2.1,0-3.9,0-5.8,0c0-11.3,0-22.5,0-33.7c3.9-1.5,6.3,0.1,8.6,3.4
			c4.7,6.7,9.7,13.3,15.3,19.8c0-7.7,0-15.4,0-23.4c2.1,0,3.6,0,5.4,0c0,11.2,0,22.5,0,34c-3.2,0.9-5.6,0.2-7.6-2.9
			c-4.4-6.3-9.1-12.4-13.7-18.7C499.3,92.2,498.8,91.8,497.5,90.8z"/>
		<path class="st2" d="M467,79.7c11.2-0.1,18.3,8.1,18.2,17.4c-0.2,10.5-7.5,16.8-18,17.2c-10,0.4-18.2-7.6-18.2-17
			C448.9,87.1,456.2,79.9,467,79.7z M467.2,109.1c7,0,12.2-5.4,12.2-12.4c0-6.6-5.7-12.2-12.3-12.1c-6.5,0.1-12.9,5.6-12.3,13.1
			C455.3,104.1,460.2,109.1,467.2,109.1z"/>
		<path class="st2" d="M318.4,109c6.2,0,12.2,0,18.5,0c0,1.9,0,3.5,0,5.2c-8.1,0-16.2,0-24.5,0c0-11.3,0-22.6,0-34.1
			c8,0,15.9,0,24,0c0,1.5,0,2.9,0,4.6c-5.8,0-11.8,0-17.9,0c0,3.2,0,6.1,0,9.3c5.2,0,10.6,0,16.2,0c0,2,0,3.6,0,5.5
			c-5.5,0-10.8,0-16.2,0C318.4,102.8,318.4,105.6,318.4,109z"/>
		<path class="st2" d="M367.7,83.2c-0.9,1.6-1.5,3.1-2,4.1c-4.1-0.7-8-1.6-11.8-1.9c-1.2-0.1-3.1,1.2-3.6,2.5
			c-0.7,1.7,0,3.5,2.1,4.4c2.9,1.1,5.8,2.1,8.7,3.2c5,1.9,7.6,5.2,7.3,9.6c-0.4,4.4-3.7,7.7-8.8,8.7c-7.1,1.4-13.7-0.5-18-5.1
			c0.7-1.5,1.5-2.9,2-4c3.2,1.4,6.2,2.9,9.3,3.7c1.9,0.5,4.2,0.2,6.1-0.2c1-0.2,2.4-1.9,2.4-3c0-1.2-0.7-3.2-1.9-3.7
			c-3.1-1.6-6.6-2.6-10-3.9c-4.9-2-7.1-5.6-6.3-9.8c0.7-4.1,4.9-7.5,9.3-7.8C358,79.6,363,80,367.7,83.2z"/>
		<path class="st2" d="M251.4,83.3c-1,1.7-1.7,3.2-2.1,4.1c-3.9-0.7-7.5-1.7-11-1.9c-1.5-0.1-3.7,1.1-4.4,2.4
			c-1.1,2.2,0.6,4,2.9,4.9c2.6,1,5.2,1.9,7.8,2.7c4.9,1.7,7.6,5.2,7.3,9.2c-0.2,4.5-3.5,7.8-8.6,9.1c-6.7,1.5-13.8-0.4-18.3-5
			c0.7-1.4,1.4-2.9,2-4.1c3.4,1.4,6.5,2.9,9.8,4.1c0.9,0.4,2,0.4,3,0.2c2.2-0.5,4.9-0.6,5.4-3.7c0.5-3-1.7-4.1-4-5
			c-2.5-1-5.1-1.6-7.6-2.6c-5-1.9-7-4.7-6.7-9.2c0.2-3.9,3.1-7.5,7.6-8.2C240.4,79.2,246.1,79.6,251.4,83.3z"/>
		<path class="st2" d="M398.1,83.2c-0.6,1.5-1.2,3-1.7,4.1c-4.1-0.7-8-1.6-11.8-1.9c-1.2-0.1-3.4,1.1-3.9,2.2
			c-0.7,1.9,0,3.7,2.2,4.6c2.9,1,5.8,2.1,8.7,3.2c4.7,1.7,7.3,5,7.1,9.3c-0.2,4.2-3.7,7.7-8.3,9c-5.1,1.4-9.7,0.4-14.2-1.9
			c-5-2.5-5-2.6-2.1-7.2c3.1,1.4,6,3,9.2,3.9c1.9,0.5,4.2,0.2,6.2-0.2c1-0.2,2.4-1.7,2.4-2.6c0-1.4-0.6-3.6-1.7-4.1
			c-3.2-1.6-6.8-2.6-10.2-4c-5.7-2.4-8-8-4.6-12.7c1.6-2.2,4.6-4.1,7.3-4.6C387.9,79.2,393.4,79.7,398.1,83.2z"/>
		<path class="st2" d="M528.6,104.5c4,1.7,7,3.1,10.2,4.1c1.5,0.5,3.5,0.5,4.9-0.1c1.5-0.6,3.7-2.4,3.7-3.5
			c-0.1-1.6-1.7-3.6-3.2-4.4c-2.9-1.5-6.1-2-9.1-3.2c-5.8-2.5-8-8.5-4.1-13.3c1.5-1.9,4.2-3.6,6.7-3.9c3.6-0.5,7.5-0.1,11,0.7
			c5.4,1.2,5.5,2.2,2.7,6.3c-4.1-0.6-7.8-1.5-11.6-1.7c-1.4,0-3.5,1.4-4,2.6c-0.4,0.9,1,3.2,2.1,3.9c2.2,1.4,4.9,2,7.5,2.9
			c6.1,2,8.5,4.6,8.5,9.7c0,4.2-2.2,7.3-6.8,8.8c-6.8,2.2-13.1,0.7-18.4-3.7C527.6,109.1,528.5,106.4,528.6,104.5z"/>
		<path class="st2" d="M559.8,80.1c2.1,0,3.9,0,6.1,0c0,4.1,0,8.2,0,12.3c0,2.6,0,5.2,0,7.7c0,5.4,3.5,8.8,8.8,8.8
			c5.8,0,9.5-3.2,9.5-8.8c0.1-6.6,0-13.2,0-20c1.9,0,3.4,0,5.5,0c0,3.5,0,7.1,0,10.6c0,3.4-0.1,6.7,0,10.1
			c0.1,10.5-9.6,14.8-17.7,13.2c-8.6-1.6-11.1-6.2-12.1-14.2c-0.1-0.9,0-1.7,0-2.7C559.8,91.7,559.8,86,559.8,80.1z"/>
		<path class="st2" d="M214.2,80.1c1.9,0,3.4,0,5.4,0c0,7.8,0.6,15.8-0.1,23.5c-0.7,7.5-9.5,12.3-17.2,10.6
			c-8.5-1.9-12.3-6.6-12.3-15.4c0-6.2,0-12.3,0-18.7c2,0,3.7,0,6.1,0c0,3,0,6.1,0,9.2c0,3.4,0,6.7,0,10.2c0,6,3,9.5,8.5,9.5
			c6.2,0.1,9.7-3.1,9.8-9.2C214.3,93.3,214.2,86.8,214.2,80.1z"/>
		<path class="st2" d="M443.3,105.1c1.1,1.2,2,2.2,2.9,3.1c-5.2,6.8-16.6,8.6-25,1.7c-6.5-5.2-7.6-17.2-2.1-23.6
			c7-8.2,18.5-9,27.1-1.5c-1,1.2-2.1,2.6-3.1,3.9c-8.6-6.7-14.7-4.2-18.5-0.4c-4.5,4.2-4.5,11.2-0.6,16.2
			C428,110,434.7,110.2,443.3,105.1z"/>
		<path class="st2" d="M636.9,114.3c-2.1,0-3.5,0-5.4,0c0-9.7,0-19.3,0-29.4c-3.7,0-7.2,0-10.8,0c0-1.9,0-3.2,0-4.7
			c8.8,0,17.7,0,26.6,0c0,1.4,0,2.7,0,4.6c-3.2,0-6.7,0-10.5,0C636.9,94.8,636.9,104.4,636.9,114.3z"/>
		<path class="st2" d="M603.9,80.1c0,9.7,0,19,0,28.9c5,0,9.7,0,14.6,0c0,1.9,0,3.4,0,5.2c-6.5,0-13.1,0-19.9,0c0-11.3,0-22.5,0-34
			C600.2,80.1,601.8,80.1,603.9,80.1z"/>
		<path class="st2" d="M264.1,80.1c0,11.4,0,22.6,0,34.1c-1.7,0-3.2,0-5,0c0-11.3,0-22.6,0-34.1C260.6,80.1,262.2,80.1,264.1,80.1z"
			/>
	</g>
</g>
</svg>
