<?xml version="1.0" encoding="utf-8"?>
<!-- Generator: Adobe Illustrator 23.0.0, SVG Export Plug-In . SVG Version: 6.00 Build 0)  -->
<svg version="1.1" xmlns="http://www.w3.org/2000/svg" xmlns:xlink="http://www.w3.org/1999/xlink" x="0px" y="0px"
	 viewBox="0 0 2510.1 1127.7" style="enable-background:new 0 0 2510.1 1127.7;" xml:space="preserve">
<style type="text/css">
	.st0{opacity:5.000000e-02;}
	.st1{opacity:0.42;fill:#808184;}
	.st2{fill:#8F9394;}
	.st3{fill:#404041;}
	.st4{fill:#1D232D;}
	.st5{fill:#9BA6A7;}
	.st6{fill:#EAEBED;}
	.st7{fill:#BBBDBF;}
	.st8{fill:url(#SVGID_1_);}
	.st9{fill:#A6A8AB;}
	.st10{fill:#6D6E70;}
	.st11{fill:#D0D2D3;}
	.st12{fill:#231F20;}
	.st13{fill:#808184;}
	.st14{fill:url(#SVGID_2_);}
	.st15{fill:url(#SVGID_3_);}
	.st16{fill:url(#SVGID_4_);}
	.st17{fill:#494C4C;}
	.st18{fill:#2D2D84;}
	.st19{fill:#414195;}
	.st20{fill:#5354A3;}
	.st21{fill:url(#SVGID_5_);}
	.st22{fill:#222123;}
	.st23{fill:#084727;}
	.st24{fill:#E6E7E8;}
	.st25{fill:#58595B;}
	.st26{fill:#EC1C24;}
	.st27{fill:url(#SVGID_6_);}
	.st28{fill:url(#SVGID_7_);}
	.st29{fill:url(#SVGID_8_);}
	.st30{fill:#F1F1F2;}
	.st31{fill:#4A463E;}
	.st32{fill:url(#SVGID_9_);}
	.st33{fill:url(#SVGID_10_);}
	.st34{fill:#0B0D0E;}
	.st35{fill:none;stroke:#808184;stroke-width:2;stroke-miterlimit:10;}
	.st36{opacity:0.49;fill:#286370;}
	.st37{fill:#1F2220;}
	.st38{fill:#444848;}
	.st39{fill:#F5B962;}
	.st40{fill:#212323;}
	.st41{fill:#FAAF40;}
	.st42{opacity:0.39;fill:#808184;}
	.st43{opacity:0.17;fill:#231F20;}
	.st44{fill:url(#SVGID_11_);}
	.st45{fill:#FFFFFF;}
	.st46{opacity:0.93;}
	.st47{opacity:0.51;fill:#FFFFFF;}
	.st48{fill:#8A5D3B;}
	.st49{opacity:0.69;fill:#FFFFFF;}
	.st50{fill:#5A4A42;}
	.st51{fill:#C3996B;}
	.st52{fill:#F8C631;}
	.st53{fill:#49463E;}
	.st54{opacity:0.54;fill:#132242;}
	.st55{fill:none;stroke:#F9C732;stroke-width:3;stroke-linecap:round;stroke-miterlimit:10;stroke-dasharray:5,5;}
	.st56{fill:#F9C732;}
</style>
<g id="EPE">
	<g class="st0">
		<g>
			<path class="st1" d="M1003.2,848.5L1003.2,848.5c2.5,0.2,4.2-2.3,3.1-4.5c-28.6-55.9-92.1-88-156.3-74.2
				c-8,1.7-15.7,4.1-23.1,7.1c-2.3,0.9-2.8,4-0.9,5.6l0,0c0,0,0,0,0,0c7.9-3.4,16.3-6,25-7.9C913.9,760.9,976.2,793.1,1003.2,848.5
				C1003.2,848.5,1003.2,848.5,1003.2,848.5z"/>
			
				<rect x="963.4" y="930.9" transform="matrix(0.7716 -0.6361 0.6361 0.7716 -380.5386 829.0919)" class="st2" width="1.8" height="27.3"/>
			
				<rect x="963.1" y="930.9" transform="matrix(0.1015 -0.9948 0.9948 0.1015 -72.9009 1807.4338)" class="st2" width="2" height="26.3"/>
			
				<rect x="953.3" y="948.3" transform="matrix(0.8547 -0.5192 0.5192 0.8547 -360.4768 635.1422)" class="st2" width="2" height="26.3"/>
			
				<rect x="953.3" y="948.3" transform="matrix(0.2427 -0.9701 0.9701 0.2427 -210.0491 1653.8318)" class="st2" width="2" height="26.3"/>
			<path class="st3" d="M780.9,1037.7c-30.7-23.5-52-57.2-60.1-94.9c-18.9-87.7,37.1-174.5,124.9-193.3c46.6-10,95.2,0.9,133.2,30
				c30.7,23.5,52,57.2,60.1,94.9c18.9,87.7-37.1,174.5-124.9,193.3C867.5,1077.7,818.9,1066.8,780.9,1037.7
				C780.9,1037.7,780.9,1037.7,780.9,1037.7z M952.5,814c-27.9-21.3-63.5-29.4-97.7-22c-64.3,13.8-105.4,77.4-91.5,141.7
				c5.9,27.6,21.6,52.3,44.1,69.5c27.9,21.3,63.5,29.4,97.7,22c31.1-6.7,57.8-25.1,75.1-51.9c17.3-26.8,23.2-58.7,16.5-89.8
				C990.6,855.9,974.9,831.2,952.5,814z"/>
			<path class="st4" d="M1035.5,875.1c-18.5-85.8-103.3-140.6-189-122.1s-140.6,103.3-122.1,189c18.5,85.8,103.3,140.6,189,122.1
				C999.2,1045.7,1053.9,960.9,1035.5,875.1z M759.7,934.5c-14.3-66.3,28.1-131.8,94.3-146c66.3-14.3,131.8,28.1,146,94.3
				c14.3,66.3-28.1,131.8-94.3,146C839.5,1043,774,1000.7,759.7,934.5z"/>
			<path class="st5" d="M996.9,883.9c-5.9-27.9-21.7-52.8-44.3-70.2c-28-21.4-63.8-29.4-98.3-21.9c-64,14-105.1,77.5-91.4,141.6
				c5.9,27.9,21.7,52.8,44.3,70.2c28,21.4,63.8,29.4,98.3,21.9C969.5,1011.5,1010.6,948,996.9,883.9z M952.8,984.7
				c-5.9,9.8-17,16.2-27,21.1c-8.7,4.2-18.6,7.4-28.1,8.9c-15.3,2.5-31.8-0.2-47.3-4.9c-9.8-1.4-19-5.1-26.9-11.4
				c-1.1-0.9-2.1-1.8-3-2.8c-1.7-0.8-3.3-1.7-4.9-2.7c-9.6-6.5-16.2-14.8-21.5-24c-0.4-0.3-0.8-0.6-1.1-0.9
				c-16.6-13.8-21.8-32.9-19.8-53.5c0.1-1.1,0.3-2.2,0.5-3.3c-0.2-0.9-0.4-1.9-0.5-2.9c-0.9-7.2,0.7-14.4,3.1-21.2
				c-0.3-4.1,0.2-8.2,1.5-12c3.2-9.8,8.8-18.1,15.4-25.6c0.9-2.4,2.1-4.7,3.7-6.8c5.7-7.3,12.3-15.1,20-20.4c2-1.4,4.2-2.6,6.3-3.9
				c6.4-7.7,14.6-14,25.3-14.5c2.6-0.1,5.2,0,7.6,0.4c9.6-3.3,20.1-4,31.2-1.7c6.6,1.3,13,3.4,19.6,4.6c9,1.7,18.1,4,26.4,8.1
				c18.7,9.3,35.1,23.4,43.7,42.9c2.3,5.2,3.4,10.4,4.2,15.6c5.6,7.8,7.3,18.4,3.7,27.2c-0.1,0.3-0.2,0.6-0.4,0.9
				c0.5,6,0.7,11.9-0.1,18c-0.1,1-0.3,2-0.5,2.9c0,0.7,0,1.4,0,2.1c-0.1,5.8-1.6,11.3-3.9,16.5c-1.3,11.1-7.6,21.2-14.8,29.7
				c-3.7,4.4-7.6,8.8-11.9,12.6C953.2,984.1,953,984.4,952.8,984.7z"/>
			<path class="st2" d="M809.4,1000.7c-21.6-16.6-36.6-40.5-42.1-67.4c-12.6-61.8,27.2-123.3,88.9-137.2c33.1-7.5,67.5,0,94.2,20.5
				c21.6,16.6,36.6,40.5,42.1,67.4c12.6,61.8-27.2,123.3-88.9,137.2C870.5,1028.6,836.2,1021.1,809.4,1000.7z M943.8,825.2
				c-24.2-18.5-55.3-25.3-85.2-18.5c-55.9,12.6-92.1,68.4-80.6,124.5c5,24.3,18.5,45.9,38.1,60.9c24.2,18.5,55.3,25.3,85.2,18.5
				c55.9-12.6,92.1-68.4,80.6-124.5C976.9,861.8,963.4,840.1,943.8,825.2z"/>
			<path class="st6" d="M988.9,884.6c-5.3-26-19.8-49.2-40.7-65.2c-25.9-19.8-59.1-27-91.2-19.8c-59.7,13.5-98.3,73.1-86.1,133
				c5.3,26,19.8,49.2,40.7,65.2c25.9,19.8,59.1,27,91.2,19.8C962.6,1004.1,1001.2,944.5,988.9,884.6z M902,1014.1
				c-31,7-63.2,0-88.2-19.2c-20.3-15.5-34.2-37.9-39.4-63.1c-11.9-57.9,25.5-115.7,83.4-128.7c31-7,63.2,0,88.2,19.2
				c20.3,15.5,34.2,37.9,39.4,63.1C997.3,943.3,959.9,1001,902,1014.1z"/>
			<path class="st2" d="M830,973.8c-15.2-11.6-25.7-28.4-29.5-47.3c-9-43.9,19.4-87.6,63.2-97.5c23.3-5.3,47.5,0,66.3,14.3
				c15.2,11.6,25.7,28.4,29.5,47.3c9,43.9-19.4,87.6-63.2,97.5C872.9,993.4,848.7,988.2,830,973.8z"/>
			<path class="st7" d="M832,971.2c-14.6-11.1-24.6-27.3-28.3-45.4c-8.6-42.1,18.6-84,60.6-93.5c22.4-5,45.5,0,63.5,13.7
				c14.6,11.1,24.6,27.3,28.3,45.4c8.6,42.1-18.6,84-60.6,93.5C873.2,990,850,984.9,832,971.2z"/>
			<linearGradient id="SVGID_1_" gradientUnits="userSpaceOnUse" x1="805.4056" y1="908.604" x2="954.4026" y2="908.604">
				<stop  offset="6.424581e-02" style="stop-color:#F1F1F2"/>
				<stop  offset="0.3324" style="stop-color:#BBBDBF"/>
				<stop  offset="0.5503" style="stop-color:#FFFFFF"/>
				<stop  offset="0.986" style="stop-color:#929497"/>
			</linearGradient>
			<path class="st8" d="M834,968.5c-13.9-10.7-23.6-26.1-27.1-43.4c-8.2-40.3,17.8-80.4,58-89.5c21.4-4.8,43.6,0,60.8,13.2
				c13.9,10.7,23.6,26.1,27.1,43.4c8.2,40.3-17.8,80.4-58,89.5C873.4,986.5,851.3,981.7,834,968.5z"/>
			<path class="st9" d="M847.2,951.3c-10-7.6-16.8-18.7-19.4-31.1c-5.9-28.7,12.7-57.4,41.4-63.8c0.4-0.1,0.8-0.2,1.2-0.2l-0.2-16.5
				c0-2.7-2.5-4.8-5.2-4.2c0,0,0,0-0.1,0c-40.2,9.1-66.3,49.2-58,89.5c3.6,17.3,13.2,32.8,27.1,43.4c4.3,3.3,9,6.1,13.8,8.3
				c11,5.1,23.6-3.2,23.5-15.3l0,0C862.6,960.2,854.3,956.8,847.2,951.3z"/>
			<path class="st10" d="M849.4,948.5c-9.3-7.1-15.7-17.4-18-28.9c-5.5-26.8,11.8-53.5,38.6-59.6c14.3-3.2,29,0,40.5,8.8
				c9.3,7.1,15.7,17.4,18,28.9c5.5,26.8-11.8,53.5-38.6,59.6C875.6,960.4,860.9,957.2,849.4,948.5z"/>
			<path class="st11" d="M852.4,944.5c-8.3-6.4-14.1-15.6-16.2-26c-4.9-24.1,10.6-48.2,34.7-53.6c12.8-2.9,26.1,0,36.4,7.9
				c8.3,6.4,14.1,15.6,16.2,26c4.9,24.1-10.6,48.2-34.7,53.6C876,955.2,862.8,952.4,852.4,944.5z"/>
			<path class="st9" d="M855.5,940.4c-7.4-5.7-12.5-13.9-14.4-23.1c-4.4-21.4,9.5-42.8,30.9-47.6c11.4-2.6,23.2,0,32.3,7
				c7.4,5.7,12.5,13.9,14.4,23.1c4.4,21.4-9.5,42.8-30.9,47.6C876.5,950,864.7,947.5,855.5,940.4z"/>
			<path class="st12" d="M867.6,924.6c-3.7-2.9-6.3-7-7.3-11.7c-2.2-10.8,4.7-21.5,15.5-23.9c5.8-1.3,11.7,0,16.4,3.6
				c3.7,2.9,6.3,7,7.3,11.7c2.2,10.8-4.7,21.5-15.5,23.9C878.2,929.5,872.3,928.2,867.6,924.6z"/>
			
				<ellipse transform="matrix(0.6079 -0.794 0.794 0.6079 -376.4383 1054.8765)" class="st13" cx="879.9" cy="908.6" rx="16.6" ry="16.2"/>
			<path class="st11" d="M879.4,928c0-1.6-1.1-3-2.7-3.3c-6.2-1.1-11.4-5.9-12.8-12.6c-1.8-8.9,3.9-17.7,12.7-19.7l0,0
				c1.6-0.4,2.7-1.8,2.7-3.4l0-11.4c0-2-1.8-3.6-3.8-3.3c-0.8,0.1-1.6,0.3-2.5,0.5c-18.5,4.2-30.5,22.6-26.7,41.2
				c1.6,8,6.1,15.1,12.5,20c5,3.8,10.8,6.1,16.9,6.7c2,0.2,3.7-1.3,3.7-3.3L879.4,928z"/>
			
				<rect x="822.8" y="970.4" transform="matrix(0.5033 0.8641 -0.8641 0.5033 1258.9978 -223.3342)" class="st2" width="2" height="26.3"/>
			
				<rect x="822.8" y="970.4" transform="matrix(0.9655 0.2605 -0.2605 0.9655 284.6749 -180.6466)" class="st2" width="2" height="26.3"/>
			
				<rect x="808.7" y="956.8" transform="matrix(0.2452 0.9695 -0.9695 0.2452 1551.5684 -52.8327)" class="st2" width="2" height="26.3"/>
			
				<rect x="808.7" y="956.8" transform="matrix(0.856 0.517 -0.517 0.856 618.0578 -278.9235)" class="st2" width="2" height="26.3"/>
			
				<rect x="797.2" y="940.5" transform="matrix(0.104 0.9946 -0.9946 0.104 1663.6727 60.5694)" class="st2" width="2" height="26.3"/>
			
				<rect x="797.2" y="940.5" transform="matrix(0.7733 0.6341 -0.6341 0.7733 785.6802 -289.9137)" class="st2" width="2" height="26.3"/>
			
				<rect x="790" y="922.4" transform="matrix(-0.1747 0.9846 -0.9846 -0.1747 1850.2449 320.1101)" class="st2" width="2" height="26.3"/>
			
				<rect x="790" y="922.4" transform="matrix(0.5681 0.8229 -0.8229 0.5681 1111.4838 -246.8865)" class="st2" width="2" height="26.3"/>
			
				<rect x="786.6" y="901.9" transform="matrix(-0.3985 0.9172 -0.9172 -0.3985 1940.7095 557.3306)" class="st2" width="2" height="26.3"/>
			
				<rect x="786.6" y="901.9" transform="matrix(0.3615 0.9324 -0.9324 0.3615 1356.0486 -150.093)" class="st2" width="2" height="26.3"/>
			
				<rect x="920.5" y="977.4" transform="matrix(0.9942 -0.1075 0.1075 0.9942 -101.1793 104.8376)" class="st2" width="2" height="26.3"/>
			
				<rect x="920.5" y="977.4" transform="matrix(0.6313 -0.7755 0.7755 0.6313 -428.4865 1079.8257)" class="st2" width="2" height="26.3"/>
			
				<rect x="902.4" y="984.8" transform="matrix(0.9852 0.1712 -0.1712 0.9852 184.1386 -139.9029)" class="st2" width="2" height="26.3"/>
			
				<rect x="902.4" y="984.8" transform="matrix(0.8209 -0.571 0.571 0.8209 -408.067 694.5728)" class="st2" width="2" height="26.3"/>
			
				<rect x="882.8" y="988.6" transform="matrix(0.9506 0.3103 -0.3103 0.9506 354.4886 -224.8013)" class="st2" width="2" height="26.3"/>
			
				<rect x="882.8" y="988.6" transform="matrix(0.8942 -0.4478 0.4478 0.8942 -354.9923 501.7462)" class="st2" width="2" height="26.3"/>
			
				<rect x="863.7" y="986.4" transform="matrix(0.828 0.5607 -0.5607 0.828 709.6534 -312.7706)" class="st2" width="1.8" height="27.8"/>
			
				<rect x="863.3" y="987.8" transform="matrix(0.983 -0.1835 0.1835 0.983 -168.9649 175.5406)" class="st2" width="2" height="26.3"/>
			
				<rect x="940.1" y="961.1" transform="matrix(0.9648 -0.263 0.263 0.9648 -223.5797 281.8414)" class="st2" width="1.9" height="29.9"/>
			
				<rect x="940" y="962.6" transform="matrix(0.5011 -0.8654 0.8654 0.5011 -374.9777 1301.0723)" class="st2" width="2" height="26.3"/>
			
				<rect x="843.8" y="981.2" transform="matrix(0.6751 0.7377 -0.7377 0.6751 1008.48 -299.8488)" class="st2" width="1.8" height="27.8"/>
			
				<rect x="843.2" y="982.5" transform="matrix(0.9988 4.984433e-02 -4.984433e-02 0.9988 50.6792 -40.8405)" class="st2" width="2" height="26.3"/>
			
				<rect x="787.5" y="881.9" transform="matrix(-0.5256 0.8507 -0.8507 -0.5256 1964.3958 694.7109)" class="st2" width="2" height="26.3"/>
			
				<rect x="787.5" y="881.9" transform="matrix(0.2244 0.9745 -0.9745 0.2244 1483.781 -74.1983)" class="st2" width="2" height="26.3"/>
			
				<rect x="792.9" y="863.1" transform="matrix(-0.7401 0.6725 -0.6725 -0.7401 1970.6514 990.9111)" class="st2" width="2" height="26.3"/>
			
				<rect x="792.9" y="863.1" transform="matrix(-5.339182e-02 0.9986 -0.9986 -5.339182e-02 1711.2432 130.3468)" class="st2" width="2" height="26.3"/>
			
				<rect x="802.7" y="845" transform="matrix(-0.8491 0.5283 -0.5283 -0.8491 1939.4751 1162.0941)" class="st2" width="2" height="26.3"/>
			
				<rect x="802.7" y="845" transform="matrix(-0.2323 0.9726 -0.9726 -0.2323 1825.0654 275.6966)" class="st2" width="2" height="26.3"/>
			
				<rect x="815.7" y="828.8" transform="matrix(-0.9485 0.3167 -0.3167 -0.9485 1858.0443 1381.8541)" class="st2" width="2" height="26.3"/>
			
				<rect x="815.7" y="828.8" transform="matrix(-0.4518 0.8921 -0.8921 -0.4518 1936.8245 493.6812)" class="st2" width="2" height="26.3"/>
			
				<rect x="831.2" y="816.1" transform="matrix(-0.9841 0.1778 -0.1778 -0.9841 1798.506 1497.3346)" class="st2" width="2" height="26.3"/>
			
				<rect x="831.2" y="816.1" transform="matrix(-0.5748 0.8183 -0.8183 -0.5748 1989.4763 625.1325)" class="st2" width="2.2" height="26.8"/>
			
				<rect x="848.6" y="807.5" transform="matrix(-0.9949 -0.1009 0.1009 -0.9949 1612.0601 1723.7864)" class="st2" width="2.1" height="27.3"/>
			
				<rect x="848.7" y="807.5" transform="matrix(-0.7784 0.6278 -0.6278 -0.7784 2026.3156 925.9554)" class="st2" width="2" height="26.3"/>
			
				<rect x="871.1" y="802.3" transform="matrix(-0.9411 -0.338 0.338 -0.9411 1417.1259 1878.9631)" class="st2" width="2" height="27.5"/>
			
				<rect x="870.9" y="803.5" transform="matrix(-0.9069 0.4214 -0.4214 -0.9069 2006.7941 1189.8571)" class="st2" width="2" height="26.3"/>
			
				<rect x="892" y="802.8" transform="matrix(-0.8369 -0.5473 0.5473 -0.8369 1193.5056 1988.4371)" class="st2" width="2" height="27.3"/>
			
				<rect x="891.7" y="803.6" transform="matrix(-0.9799 0.1992 -0.1992 -0.9799 1930.255 1439.3494)" class="st2" width="2" height="26.3"/>
			
				<rect x="911.2" y="807.9" transform="matrix(-0.75 -0.6614 0.6614 -0.75 1053.3743 2040.2059)" class="st2" width="2" height="26.3"/>
			
				<rect x="911" y="807.9" transform="matrix(-0.9984 5.704412e-02 -5.704412e-02 -0.9984 1869.6088 1589.2361)" class="st2" width="2.2" height="26.8"/>
			
				<rect x="928.4" y="816" transform="matrix(-0.5382 -0.8428 0.8428 -0.5382 730.3748 2059.5532)" class="st2" width="2.1" height="27.3"/>
			
				<rect x="928.9" y="816.3" transform="matrix(-0.9753 -0.2208 0.2208 -0.9753 1653.5553 1843.8059)" class="st2" width="2" height="26.3"/>
			
				<rect x="945.5" y="830" transform="matrix(-0.3198 -0.9475 0.9475 -0.3198 449.9984 2010.2595)" class="st2" width="2.1" height="27.3"/>
			
				<rect x="946.1" y="830.3" transform="matrix(-0.8936 -0.4488 0.4488 -0.8936 1414.7424 2022.3361)" class="st2" width="2" height="26.3"/>
			
				<rect x="959.5" y="848.3" transform="matrix(-8.167789e-02 -0.9967 0.9967 -8.167789e-02 179.7637 1889.7369)" class="st2" width="2" height="27.5"/>
			
				<rect x="958.9" y="848.9" transform="matrix(-0.7589 -0.6513 0.6513 -0.7589 1126.8484 2141.3936)" class="st2" width="2" height="26.3"/>
			
				<rect x="967.8" y="867.5" transform="matrix(0.152 -0.9884 0.9884 0.152 -49.3507 1704.7754)" class="st2" width="2" height="27.3"/>
			
				<rect x="967.4" y="867.9" transform="matrix(-0.5869 -0.8097 0.8097 -0.5869 823.2612 2182.1445)" class="st2" width="2" height="26.3"/>
			
				<rect x="971.6" y="887.4" transform="matrix(0.2918 -0.9565 0.9565 0.2918 -172.6185 1568.0154)" class="st2" width="2" height="26.3"/>
			
				<rect x="971.2" y="887.2" transform="matrix(-0.465 -0.8853 0.8853 -0.465 627.129 2180.1294)" class="st2" width="2.2" height="26.8"/>
			
				<rect x="970.7" y="906.1" transform="matrix(0.5446 -0.8387 0.8387 0.5446 -328.8518 1233.9672)" class="st2" width="2.1" height="27.3"/>
			
				<rect x="971.2" y="907" transform="matrix(-0.2025 -0.9793 0.9793 -0.2025 268.0085 2058.4556)" class="st2" width="2" height="26.3"/>
			<path class="st1" d="M1546.2,785.9L1546.2,785.9c2.1-1.3,1.9-4.4-0.3-5.5c-56.7-27-126.7-13.8-169.2,36.1
				c-5.3,6.2-10,12.8-14,19.6c-1.3,2.1,0.2,4.8,2.7,5l0,0c0,0,0,0,0,0c4.2-7.5,9.2-14.7,15-21.5
				C1422.1,770.7,1491.1,758.3,1546.2,785.9C1546.2,785.9,1546.2,785.9,1546.2,785.9z"/>
			
				<rect x="1572.8" y="872.1" transform="matrix(0.226 -0.9741 0.9741 0.226 355.2125 2218.5767)" class="st2" width="1.8" height="27.3"/>
			
				<rect x="1572.3" y="872.4" transform="matrix(-0.5242 -0.8516 0.8516 -0.5242 1643.8663 2689.553)" class="st2" width="2" height="26.3"/>
			
				<rect x="1575" y="892.2" transform="matrix(0.363 -0.9318 0.9318 0.363 160.2987 2045.2162)" class="st2" width="2" height="26.3"/>
			
				<rect x="1575" y="892.2" transform="matrix(-0.3971 -0.9178 0.9178 -0.3971 1370.7786 2711.27)" class="st2" width="2" height="26.3"/>
			<path class="st3" d="M1484.7,1071.3c-38.6,0-76-13.8-105.4-38.8c-68.3-58.2-76.6-161.1-18.4-229.4c30.9-36.3,76.1-57.2,124-57.2
				c38.6,0,76,13.8,105.4,38.8c68.3,58.2,76.6,161.1,18.4,229.4C1577.8,1050.4,1532.6,1071.3,1484.7,1071.3
				C1484.7,1071.3,1484.7,1071.3,1484.7,1071.3z M1484.9,789.4c-35.1,0-68.2,15.3-90.9,41.9c-42.7,50.1-36.6,125.5,13.5,168.2
				c21.5,18.3,49,28.4,77.3,28.4c35.1,0,68.2-15.3,90.9-41.9c20.6-24.2,30.6-55.1,28-86.9c-2.5-31.8-17.3-60.7-41.5-81.3
				C1540.6,799.5,1513.2,789.4,1484.9,789.4z"/>
			<path class="st4" d="M1588,787.5c-66.8-56.9-167.4-48.8-224.3,18c-56.9,66.8-48.8,167.4,18,224.3c66.8,56.9,167.4,48.8,224.3-18
				S1654.8,844.3,1588,787.5z M1405.1,1002.2c-51.6-43.9-57.8-121.7-13.9-173.3s121.7-57.8,173.3-13.9
				c51.6,43.9,57.8,121.7,13.9,173.3C1534.5,1039.9,1456.7,1046.1,1405.1,1002.2z"/>
			<path class="st5" d="M1562.7,817.8c-21.7-18.6-49.3-28.8-77.9-28.8c-35.3,0-68.6,15.4-91.4,42.3c-42.4,50-36.3,125.4,13.5,168
				c21.7,18.6,49.3,28.8,77.9,28.8c35.3,0,68.6-15.4,91.4-42.3C1618.5,935.8,1612.5,860.5,1562.7,817.8z M1589,924.7
				c1.3,11.4-3.7,23.2-8.6,33.2c-4.3,8.6-10.3,17.1-16.9,24.2c-10.6,11.3-25.4,19.2-40.6,24.8c-8.6,4.8-18.2,7.5-28.3,7.3
				c-1.4,0-2.7-0.2-4.1-0.4c-1.8,0.4-3.6,0.7-5.5,0.8c-11.6,0.6-21.9-1.9-31.6-6c-0.5,0-1,0-1.4,0c-21.5-0.9-37.3-12.9-48.3-30.5
				c-0.6-1-1.1-1.9-1.5-2.9c-0.7-0.6-1.5-1.3-2.1-2c-5.1-5.2-8.2-11.9-10.5-18.7c-2.7-3.1-4.8-6.6-6.1-10.5
				c-3.4-9.8-4-19.7-3.3-29.7c-0.8-2.5-1.2-5.1-1.2-7.7c0.1-9.3,0.6-19.5,3.5-28.3c0.8-2.4,1.7-4.6,2.6-6.9c0.4-10,3.1-20,11.2-26.8
				c2-1.7,4.1-3.1,6.3-4.3c5.6-8.4,13.5-15.4,23.7-20.3c6-2.9,12.3-5.2,18.3-8.2c8.2-4.1,16.8-7.8,25.8-9.6
				c20.5-4,42.2-2.8,60.7,7.5c5,2.8,9,6.2,12.8,9.8c9.2,2.8,17,10.2,19.5,19.3c0.1,0.3,0.2,0.6,0.2,0.9c4,4.4,7.8,9.1,10.8,14.3
				c0.5,0.9,0.9,1.8,1.3,2.7c0.4,0.5,0.8,1.1,1.3,1.6c3.5,4.7,5.6,10,7,15.5c5.7,9.6,6.9,21.5,6.4,32.6c-0.3,5.7-0.7,11.6-1.8,17.2
				C1588.9,924,1588.9,924.3,1589,924.7z"/>
			<path class="st2" d="M1484.8,1024.6c-27.3,0-53.7-9.9-74.4-27.9c-47.6-41.4-53.4-114.5-12.9-163c21.8-26.1,53.6-41,87.3-41
				c27.3,0,53.7,9.9,74.4,27.9c47.6,41.4,53.4,114.5,12.9,163C1550.3,1009.6,1518.5,1024.6,1484.8,1024.6z M1484.8,803.5
				c-30.5,0-59.2,13.5-78.9,37.1c-36.7,44-31.5,110.3,11.7,147.8c18.7,16.3,42.6,25.2,67.2,25.2c30.5,0,59.2-13.5,78.9-37.1
				c36.7-44,31.5-110.3-11.7-147.8C1533.3,812.5,1509.5,803.5,1484.8,803.5z"/>
			<path class="st6" d="M1556.8,823.3c-20-17.4-45.6-27-72-27c-32.6,0-63.4,14.5-84.5,39.7c-39.2,47-33.6,117.9,12.5,157.9
				c20,17.4,45.6,27,72,27c32.6,0,63.4-14.5,84.5-39.7C1608.5,934.2,1602.9,863.4,1556.8,823.3z M1566.5,978.9
				c-20.4,24.4-50.2,38.4-81.7,38.4c-25.5,0-50.2-9.3-69.6-26.1c-44.6-38.8-50-107.4-12.1-152.9c20.4-24.4,50.2-38.4,81.7-38.4
				c25.5,0,50.2,9.3,69.6,26.1C1599.1,864.8,1604.5,933.4,1566.5,978.9z"/>
			<path class="st2" d="M1484.8,990.8c-19.1,0-37.7-7-52.2-19.6c-33.8-29.4-37.9-81.3-9.1-115.8c15.3-18.4,37.7-28.9,61.3-28.9
				c19.1,0,37.7,7,52.2,19.6c33.8,29.4,37.9,81.3,9.1,115.8C1530.8,980.2,1508.5,990.8,1484.8,990.8z"/>
			<path class="st7" d="M1484.8,987.4c-18.3,0-36.1-6.7-50.1-18.8c-32.4-28.2-36.3-78-8.7-111.1c14.7-17.6,36.1-27.7,58.8-27.7
				c18.3,0,36.1,6.7,50.1,18.8c32.4,28.2,36.3,78,8.7,111.1C1528.9,977.3,1507.5,987.4,1484.8,987.4z"/>
			<linearGradient id="SVGID_2_" gradientUnits="userSpaceOnUse" x1="1410.9188" y1="908.6026" x2="1558.7175" y2="908.6026">
				<stop  offset="6.424581e-02" style="stop-color:#F1F1F2"/>
				<stop  offset="0.3324" style="stop-color:#BBBDBF"/>
				<stop  offset="0.5503" style="stop-color:#FFFFFF"/>
				<stop  offset="0.986" style="stop-color:#929497"/>
			</linearGradient>
			<path class="st14" d="M1484.8,984c-17.5,0-34.6-6.4-47.9-18c-31-27-34.8-74.7-8.4-106.3c14.1-16.9,34.6-26.5,56.3-26.5
				c17.5,0,34.6,6.4,47.9,18c31,27,34.8,74.7,8.4,106.3C1527,974.4,1506.5,984,1484.8,984z"/>
			<linearGradient id="SVGID_3_" gradientUnits="userSpaceOnUse" x1="1410.9188" y1="921.091" x2="1513.7037" y2="921.091">
				<stop  offset="6.424581e-02" style="stop-color:#F1F1F2"/>
				<stop  offset="0.405" style="stop-color:#BBBDBF"/>
				<stop  offset="0.986" style="stop-color:#929497"/>
			</linearGradient>
			<path class="st15" d="M1484.8,962.4c-12.5,0-24.7-4.6-34.3-12.9c-22.1-19.2-24.8-53.2-6-75.8c0.3-0.3,0.5-0.6,0.8-0.9l-10.1-13
				c-1.7-2.1-4.9-2.3-6.7-0.2c0,0,0,0,0,0c-26.4,31.7-22.7,79.4,8.4,106.3c13.4,11.6,30.4,18,47.9,18c5.5,0,10.8-0.6,16-1.8
				c11.8-2.7,16.8-16.9,9.3-26.4l0,0C1502.5,960.1,1493.8,962.4,1484.8,962.4z"/>
			<path class="st10" d="M1484.8,958.8c-11.7,0-23-4.3-31.9-12c-20.7-17.9-23.1-49.7-5.6-70.8c9.4-11.2,23-17.7,37.5-17.7
				c11.7,0,23,4.3,31.9,12c20.7,17.9,23.1,49.7,5.6,70.8C1512.9,952.4,1499.3,958.8,1484.8,958.8z"/>
			<path class="st11" d="M1484.8,953.8c-10.5,0-20.7-3.8-28.7-10.8c-18.6-16.1-20.8-44.7-5-63.7c8.4-10.1,20.7-15.9,33.7-15.9
				c10.5,0,20.7,3.8,28.7,10.8c18.6,16.1,20.8,44.7,5,63.7C1510.1,948,1497.8,953.8,1484.8,953.8z"/>
			<path class="st9" d="M1484.8,948.7c-9.3,0-18.4-3.4-25.5-9.6c-16.5-14.3-18.5-39.7-4.4-56.5c7.5-9,18.4-14.1,29.9-14.1
				c9.3,0,18.4,3.4,25.5,9.6c16.5,14.3,18.5,39.7,4.4,56.5C1507.3,943.6,1496.4,948.7,1484.8,948.7z"/>
			<path class="st12" d="M1484.8,928.8c-4.7,0-9.3-1.7-12.9-4.8c-8.3-7.2-9.3-20-2.2-28.4c3.8-4.5,9.3-7.1,15.2-7.1
				c4.7,0,9.3,1.7,12.9,4.8c8.3,7.2,9.3,20,2.2,28.4C1496.2,926.2,1490.7,928.8,1484.8,928.8z"/>
			<ellipse class="st13" cx="1484.8" cy="908.6" rx="16.2" ry="16.6"/>
			<path class="st11" d="M1496.2,924.3c-1-1.3-2.7-1.7-4.1-0.9c-5.6,2.9-12.7,2.2-17.8-2.2c-6.8-5.9-7.6-16.4-1.8-23.4l0,0
				c1-1.2,1.1-3,0.1-4.3l-6.9-9c-1.2-1.6-3.6-1.7-5-0.3c-0.6,0.6-1.1,1.2-1.7,1.9c-12.2,14.6-10.4,36.5,3.8,48.9
				c6.1,5.3,14,8.3,22,8.3c6.2,0,12.3-1.7,17.5-4.9c1.7-1,2.1-3.3,0.9-4.9L1496.2,924.3z"/>
			
				<rect x="1484.8" y="989.1" transform="matrix(0.925 0.3801 -0.3801 0.925 492.4364 -489.5178)" class="st2" width="2" height="26.3"/>
			
				<rect x="1484.8" y="989.1" transform="matrix(0.925 -0.3801 0.3801 0.925 -269.4213 639.9479)" class="st2" width="2" height="26.3"/>
			
				<rect x="1465.4" y="986.9" transform="matrix(0.784 0.6207 -0.6207 0.784 937.3934 -694.2457)" class="st2" width="2" height="26.3"/>
			
				<rect x="1465.4" y="986.9" transform="matrix(0.9939 -0.1099 0.1099 0.9939 -101.0288 167.2336)" class="st2" width="2" height="26.3"/>
			
				<rect x="1446.4" y="980.9" transform="matrix(0.6872 0.7265 -0.7265 0.6872 1174.8345 -740.5139)" class="st2" width="2" height="26.3"/>
			
				<rect x="1446.4" y="980.9" transform="matrix(0.9994 3.337477e-02 -3.337477e-02 0.9994 33.9815 -47.7509)" class="st2" width="2" height="26.3"/>
			
				<rect x="1429.6" y="970.9" transform="matrix(0.4599 0.888 -0.888 0.4599 1646.4396 -738.8118)" class="st2" width="2" height="26.3"/>
			
				<rect x="1429.6" y="970.9" transform="matrix(0.9514 0.308 -0.308 0.9514 372.6911 -392.8211)" class="st2" width="2" height="26.3"/>
			
				<rect x="1414.4" y="956.7" transform="matrix(0.2411 0.9705 -0.9705 0.2411 2015.3289 -637.7086)" class="st2" width="2" height="26.3"/>
			
				<rect x="1414.4" y="956.7" transform="matrix(0.8538 0.5206 -0.5206 0.8538 711.726 -595.0499)" class="st2" width="2" height="26.3"/>
			
				<rect x="1566.7" y="935.3" transform="matrix(0.724 -0.6898 0.6898 0.724 -221.5408 1343.1119)" class="st2" width="2" height="26.3"/>
			
				<rect x="1566.7" y="935.3" transform="matrix(2.982432e-02 -0.9996 0.9996 2.982432e-02 572.9427 2487.114)" class="st2" width="2" height="26.3"/>
			
				<rect x="1556.8" y="952.1" transform="matrix(0.8863 -0.4631 0.4631 0.8863 -269.8824 831.0447)" class="st2" width="2" height="26.3"/>
			
				<rect x="1556.8" y="952.1" transform="matrix(0.3047 -0.9525 0.9525 0.3047 163.8304 2154.8721)" class="st2" width="2" height="26.3"/>
			
				<rect x="1543.5" y="967" transform="matrix(0.9434 -0.3315 0.3315 0.9434 -237.6121 567.4854)" class="st2" width="2" height="26.3"/>
			
				<rect x="1543.5" y="967" transform="matrix(0.4378 -0.8991 0.8991 0.4378 -12.8859 1939.7877)" class="st2" width="2" height="26.3"/>
			
				<rect x="1527.5" y="976.8" transform="matrix(0.9983 -5.813422e-02 5.813422e-02 0.9983 -55.0097 90.5313)" class="st2" width="1.8" height="27.8"/>
			
				<rect x="1527.6" y="978.3" transform="matrix(0.669 -0.7433 0.7433 0.669 -230.951 1464.3195)" class="st2" width="2" height="26.3"/>
			
				<rect x="1573.4" y="910.1" transform="matrix(0.6062 -0.7953 0.7953 0.6062 -115.6761 1616.4716)" class="st2" width="1.9" height="29.9"/>
			
				<rect x="1573.1" y="911.7" transform="matrix(-0.1282 -0.9917 0.9917 -0.1282 858.7466 2604.5039)" class="st2" width="2" height="26.3"/>
			
				<rect x="1508.6" y="984.8" transform="matrix(0.9845 0.1753 -0.1753 0.9845 198.4239 -249.1188)" class="st2" width="1.8" height="27.8"/>
			
				<rect x="1508.4" y="986.3" transform="matrix(0.8233 -0.5676 0.5676 0.8233 -300.5913 1033.3312)" class="st2" width="2" height="26.3"/>
			
				<rect x="1403" y="940.3" transform="matrix(9.984100e-02 0.995 -0.995 9.984100e-02 2212.4763 -538.7734)" class="st2" width="2" height="26.3"/>
			
				<rect x="1403" y="940.3" transform="matrix(0.7706 0.6373 -0.6373 0.7706 929.7014 -676.0882)" class="st2" width="2" height="26.3"/>
			
				<rect x="1395.8" y="922.1" transform="matrix(-0.1788 0.9839 -0.9839 -0.1788 2566.7332 -271.8663)" class="st2" width="2" height="26.3"/>
			
				<rect x="1395.8" y="922.1" transform="matrix(0.5647 0.8253 -0.8253 0.5647 1379.9633 -745.6809)" class="st2" width="2" height="26.3"/>
			
				<rect x="1392.6" y="901.7" transform="matrix(-0.353 0.9356 -0.9356 -0.353 2741.5056 -66.1824)" class="st2" width="2" height="26.3"/>
			
				<rect x="1392.6" y="901.7" transform="matrix(0.4069 0.9135 -0.9135 0.4069 1662.3053 -730.4578)" class="st2" width="2" height="26.3"/>
			
				<rect x="1393.1" y="880.9" transform="matrix(-0.5606 0.8281 -0.8281 -0.5606 2916.0222 240.838)" class="st2" width="2" height="26.3"/>
			
				<rect x="1393.1" y="880.9" transform="matrix(0.1836 0.983 -0.983 0.1836 2017.0096 -640.5131)" class="st2" width="2" height="26.3"/>
			
				<rect x="1397.7" y="861.4" transform="matrix(-0.6733 0.7394 -0.7394 -0.6733 2987.0391 429.2967)" class="st2" width="2" height="26.3"/>
			
				<rect x="1397.8" y="861.3" transform="matrix(4.112136e-02 0.9992 -0.9992 4.112136e-02 2215.3728 -559.0051)" class="st2" width="2.2" height="26.8"/>
			
				<rect x="1406.6" y="843.9" transform="matrix(-0.8513 0.5247 -0.5247 -0.8513 3055.8225 848.9816)" class="st2" width="2.1" height="27.3"/>
			
				<rect x="1406.4" y="844" transform="matrix(-0.2364 0.9717 -0.9717 -0.2364 2572.8567 -307.791)" class="st2" width="2" height="26.3"/>
			
				<rect x="1421.4" y="826.1" transform="matrix(-0.9528 0.3037 -0.3037 -0.9528 3032.7612 1207.9684)" class="st2" width="2" height="27.5"/>
			
				<rect x="1421.6" y="827.3" transform="matrix(-0.4639 0.8859 -0.8859 -0.4639 2827.0647 -29.9314)" class="st2" width="2" height="26.3"/>
			
				<rect x="1438.1" y="813.8" transform="matrix(-0.9972 7.419269e-02 -7.419269e-02 -0.9972 2935.7527 1545.8169)" class="st2" width="2" height="27.3"/>
			
				<rect x="1438.2" y="814.8" transform="matrix(-0.6569 0.7539 -0.7539 -0.6569 3008.832 286.7855)" class="st2" width="2" height="26.3"/>
			
				<rect x="1456.3" y="806.3" transform="matrix(-0.9976 -6.919894e-02 6.919894e-02 -0.9976 2854.312 1737.7345)" class="st2" width="2" height="26.3"/>
			
				<rect x="1456.2" y="806.3" transform="matrix(-0.758 0.6522 -0.6522 -0.758 3096.6416 490.5403)" class="st2" width="2.2" height="26.8"/>
			
				<rect x="1475.1" y="802.2" transform="matrix(-0.9397 -0.342 0.342 -0.9397 2584.2979 2087.3203)" class="st2" width="2.1" height="27.3"/>
			
				<rect x="1475.4" y="802.3" transform="matrix(-0.9086 0.4176 -0.4176 -0.9086 3158.343 939.8401)" class="st2" width="2" height="26.3"/>
			
				<rect x="1497.2" y="802.8" transform="matrix(-0.8299 -0.5579 0.5579 -0.8299 2286.1877 2329.8953)" class="st2" width="2.1" height="27.3"/>
			
				<rect x="1497.6" y="802.9" transform="matrix(-0.9824 0.1869 -0.1869 -0.9824 3123.2078 1337.7726)" class="st2" width="2" height="26.3"/>
			
				<rect x="1519.5" y="808.9" transform="matrix(-0.6707 -0.7417 0.7417 -0.6707 1930.2159 2502.1785)" class="st2" width="2" height="27.5"/>
			
				<rect x="1519" y="809.9" transform="matrix(-0.9984 -5.577395e-02 5.577395e-02 -0.9984 2991.791 1729.5735)" class="st2" width="2" height="26.3"/>
			
				<rect x="1537.7" y="819.1" transform="matrix(-0.4802 -0.8772 0.8772 -0.4802 1547.1187 2582.342)" class="st2" width="2" height="27.3"/>
			
				<rect x="1537.3" y="819.8" transform="matrix(-0.9582 -0.2861 0.2861 -0.9582 2773.9351 2071.2112)" class="st2" width="2" height="26.3"/>
			
				<rect x="1552.5" y="832.8" transform="matrix(-0.3498 -0.9368 0.9368 -0.3498 1304.4186 2597.1538)" class="st2" width="2" height="26.3"/>
			
				<rect x="1552.2" y="832.7" transform="matrix(-0.9074 -0.4202 0.4202 -0.9074 2607.2349 2266.5454)" class="st2" width="2.2" height="26.8"/>
			
				<rect x="1563.5" y="848" transform="matrix(-7.750787e-02 -0.997 0.997 -7.750787e-02 826.8019 2488.2659)" class="st2" width="2.1" height="27.3"/>
			
				<rect x="1564.1" y="848.5" transform="matrix(-0.7561 -0.6544 0.6544 -0.7561 2184.5603 2537.3708)" class="st2" width="2" height="26.3"/>
			<path class="st3" d="M1149.3,779.4l-3.8,2.7c-16.7,12-23.9,33.3-17.7,53l5.1,16c6.7,21.2,27.5,34.8,49.6,32.4l212.1-22.7
				l-4.1-15.4L1181.3,866c-13.6,1.3-26.3-7-30.4-20l-5.7-17.9c-3.7-11.6,0.5-24.3,10.5-31.3l10.6-7.5L1149.3,779.4z"/>
			<path class="st13" d="M1137.6,793.7c5.2,3.1,4.4,9.1,4.4,18.3s-1.8,37.2,8,47.8c9.8,10.6,19.9,17.5,40.1,16.6
				c20.3-0.9,18.5,3.2,18.5,3.2s-20.6,3.3-28.8,1.5s-36.2-4.4-47-37.5S1137.6,793.7,1137.6,793.7z"/>
			<path class="st9" d="M1201.3,762.7l-3.9-1.3l-39.6,22.9l-3.8,14.3l3.8,2.4l2.9,11.8l6.7,17.2c0,0-0.8,14.9,5.9,13.6
				c6.7-1.3,37-4.4,37.8-5.1c0.8-0.8,13.4-45.9,12.9-49.4S1201.3,762.7,1201.3,762.7z"/>
			<linearGradient id="SVGID_4_" gradientUnits="userSpaceOnUse" x1="1154.0997" y1="800.5416" x2="1212.8535" y2="800.5416">
				<stop  offset="6.424581e-02" style="stop-color:#F1F1F2"/>
				<stop  offset="0.3324" style="stop-color:#BBBDBF"/>
				<stop  offset="0.5503" style="stop-color:#FFFFFF"/>
				<stop  offset="0.986" style="stop-color:#929497"/>
			</linearGradient>
			<path class="st16" d="M1197.5,761.4l-27.9,23.4l-11.6-0.5l-3.8,14.3l8,4l14.1,37.2c0,0,36.8-28.7,36.6-29.6
				c-0.2-0.9-1.4-26.9-1.4-26.9l-10.1-20.5L1197.5,761.4z"/>
			<path class="st10" d="M1095.8,757.5l57.7,85.7c8.1,12,21.2,19.8,35.6,21.2l195.5,18.2l-18.4-14L1193,847.6
				c-11.6-1.4-22-7.9-28.4-17.7l-53.1-81.4L1095.8,757.5z"/>
			<path class="st17" d="M1095.8,752.7l57.7,85.7c8.1,12,21.2,19.8,35.6,21.2l177.2,16.8v-12.6L1193,842.8
				c-11.6-1.4-22-7.9-28.4-17.7l-53.1-81.4L1095.8,752.7z"/>
			<path class="st18" d="M1063.9,832.5c-19.4-73.4-85.2-135.1-164.5-135.2c-51.7-0.1-93.3,16.8-132.6,61.2
				c-2.9,3.3-9.9,16.6-6.4,13.9c4-3,8.2-5.9,12.5-8.6c29.9-25.7,72.2-41.3,118.8-40.1c79.9,2,144.8,52.6,155.1,116.8
				c0.7-0.1,1.4-0.1,2.2-0.1c3,0,5.8,0.5,8.4,1.3C1057.9,836.3,1060.3,836.6,1063.9,832.5z"/>
			<path class="st19" d="M1067.4,905.3c1.2-7.7,2-15.5,2.2-23.5c2.5-96.4-73.9-176.8-170.3-179.3c-58.6-1.5-111.3,26.2-144.2,69.8
				c-2.7,3.5,1.8,8,5.3,5.3c4-3,8.1-5.9,12.5-8.6c29.9-25.7,72.2-41.3,118.8-40.1c83.2,2.1,150.2,56.9,156.1,124.9
				c0.9,10.4,3.1,20.6,7.2,30.2C1057.9,890.9,1062,898.5,1067.4,905.3z"/>
			<path class="st20" d="M992.4,732.3c-9.7-6.5-20.1-12.1-31.1-16.7C846,694.4,783.2,742.2,758.6,768c-1.2,1.4-2.3,2.9-3.4,4.4
				c-2.7,3.5,1.8,8,5.3,5.3c4-3,8.1-5.9,12.5-8.6c29.9-25.7,72.2-41.3,118.8-40.1c83.2,2.1,150.2,56.9,156.1,124.9
				c0.9,10.4,3.1,20.6,7.2,30.2c2.8,6.5,6.6,13.7,11.7,20.3C1063.5,805,1020.4,754.7,992.4,732.3z"/>
			<polygon class="st3" points="1024.9,607.5 979.6,624.6 1010.5,669.5 1046.3,645.6 			"/>
			<path class="st12" d="M1285.2,716.2c0,0,106.8,7.9,108.4,7c1.6-0.9,68.5-39,68.5-39l-28.5-9.9l-177.9,4.3L1285.2,716.2z"/>
			<linearGradient id="SVGID_5_" gradientUnits="userSpaceOnUse" x1="1301.4564" y1="853.2552" x2="1496.1805" y2="853.2552">
				<stop  offset="6.424581e-02" style="stop-color:#F1F1F2"/>
				<stop  offset="0.3324" style="stop-color:#BBBDBF"/>
				<stop  offset="0.7346" style="stop-color:#FFFFFF"/>
				<stop  offset="0.986" style="stop-color:#929497"/>
			</linearGradient>
			<path class="st21" d="M1494.1,900.1l-2-2.8c-0.7,0-1.4-0.2-2.2-0.4c-3.8-1.1-5.7-3.9-6.2-6.9c-4.6-2.5-8.2-6.3-10.7-10.7
				L1325.8,789l-24.3,64.4l182.5,64l6-2.4C1496.1,912.7,1498.1,905.2,1494.1,900.1z"/>
			<path class="st12" d="M1322.7,787.1l147,90.1c9.6,5.9,17.9,13.7,24.4,22.8l0,0l-178.2-71.3L1322.7,787.1z"/>
			<path class="st10" d="M1494.1,900.1c0,0,2.5,2.9,2,6.8l-184.4-71.1l4.1-7L1494.1,900.1z"/>
			<path class="st22" d="M1542.7,705c0,0-131.5-35.6-210.8,76.7l-49.8-64.6l151.6-42.8L1542.7,705z"/>
			<path class="st20" d="M1236.4,678.5c0,0,62.5,18.9,72.3,33c0,0-71.6,81.4-72.3,87l-35-74.4l9.1-41.7L1236.4,678.5z"/>
			<g>
				<polygon class="st3" points="1249.1,883.7 1255,902.1 1277.8,925.2 1291.2,923.5 1291.2,913.2 1257.8,880.1 				"/>
				<path class="st12" d="M1289.8,913.3c0,0-10.1-3.5-12,11.9l13.4-1.7v-10.3L1289.8,913.3z"/>
			</g>
			<path class="st18" d="M1295.9,726.2l54.2,37.3c0,0-53.3,58.2-31.6,117.2l-103.1,4.2l-29.7-9.9c-6.9-2.3-9.3-10.9-4.5-16.4
				L1295.9,726.2z"/>
			<path class="st20" d="M1295.9,726.2l36,41.5c0,0-47,16.8-32.3,102.4H1181L1295.9,726.2z"/>
			<path class="st23" d="M1322.7,763.4c0,0-91.6,31.5-125.2,89.1c0,0,62.6-26.6,77.4-9.1c10.3,12.2,12.4,21.3,16.8,27.1
				c1.5,2,4.6,0.2,3.6-2.1C1287.2,851,1274.6,807.2,1322.7,763.4z"/>
			<path class="st24" d="M1322.7,763.4c0,0-96.1,33.7-129.8,91.2c0,0,57.5-28.8,72.3-11.2c11.3,13.5,18.5,23.1,26.6,28.8
				c1.8,1.2,3.9-0.9,2.8-2.7C1283.5,852.4,1262.3,805.9,1322.7,763.4z"/>
			<path class="st13" d="M1289.8,738.2c0,0-4.2,14-10.5,25.2c-6.3,11.2-28.8,42.1-28.8,42.1s-14.5,2-16.1-2.2
				C1232.7,799.1,1289.8,738.2,1289.8,738.2z"/>
			<polygon class="st12" points="1604.7,646 1604.7,705.4 1583.8,705.4 1547,691.2 1547,666.3 1585.6,648 			"/>
			<polygon class="st25" points="1604.7,646 1585.6,648 1585.6,696.7 1604.7,696.7 			"/>
			<rect x="1604.7" y="655" class="st26" width="6.1" height="41.7"/>
			<polygon class="st12" points="1593.6,646 1694.6,634.3 1730.4,591.4 1708.7,591.4 1680.6,623.8 1614,634.3 			"/>
			<path class="st9" d="M1646.9,766.9c0,0-37.9-68.8-53.3-80l-46.5-8.4l-6.8,15.4l65.3,36.1l35.1,41L1646.9,766.9z"/>
			<path class="st12" d="M1515.2,696.6c0,0,73.2,23.4,114.3,72.1c4.8,5.7,13.9,4.8,17.4-1.8l0,0c0,0-35.1-56.1-70.2-73l-29.7-15.4
				L1515.2,696.6z"/>
			<path class="st24" d="M1186.6,723.7l-53.7,31c-1.4,0.8-3.2,0.3-4-1.1l-0.6-1.1c-0.8-1.4-0.3-3.2,1.1-4l53.7-31
				c1.4-0.8,3.2-0.3,4,1.1l0.6,1.1C1188.5,721.1,1188,722.9,1186.6,723.7z"/>
			<linearGradient id="SVGID_6_" gradientUnits="userSpaceOnUse" x1="1124.627" y1="734.5801" x2="1178.365" y2="734.5801">
				<stop  offset="6.424581e-02" style="stop-color:#F1F1F2"/>
				<stop  offset="0.3324" style="stop-color:#BBBDBF"/>
				<stop  offset="0.5503" style="stop-color:#FFFFFF"/>
				<stop  offset="0.986" style="stop-color:#929497"/>
			</linearGradient>
			<path class="st27" d="M1176.9,724l-47.2,27.3c-1.4,0.8-3.2,0.3-4-1.1l-0.6-1.1c-0.8-1.4-0.3-3.2,1.1-4l47.2-27.3
				c1.4-0.8,3.2-0.3,4,1.1l0.6,1.1C1178.8,721.4,1178.3,723.2,1176.9,724z"/>
			<path class="st11" d="M1194.2,732.2l-55.1,31.8c-1.4,0.8-3.2,0.3-4-1.1l-0.6-1.1c-0.8-1.4-0.3-3.2,1.1-4l55.1-31.8
				c1.4-0.8,3.2-0.3,4,1.1l0.6,1.1C1196.1,729.5,1195.6,731.3,1194.2,732.2z"/>
			<path class="st9" d="M1195,726.5l-62.1,35.9c-1.4,0.8-3.2,0.3-4-1.1l-0.6-1.1c-0.8-1.4-0.3-3.2,1.1-4l62.1-35.9
				c1.4-0.8,3.2-0.3,4,1.1l0.6,1.1C1196.9,723.8,1196.4,725.7,1195,726.5z"/>
			<path class="st24" d="M1193.8,744.5l-45,26c-1.4,0.8-3.2,0.3-4-1.1l-0.6-1.1c-0.8-1.4-0.3-3.2,1.1-4l45-26c1.4-0.8,3.2-0.3,4,1.1
				l0.6,1.1C1195.7,741.9,1195.2,743.7,1193.8,744.5z"/>
			<linearGradient id="SVGID_7_" gradientUnits="userSpaceOnUse" x1="1139.0974" y1="750.3859" x2="1195.8362" y2="750.3859">
				<stop  offset="6.424581e-02" style="stop-color:#F1F1F2"/>
				<stop  offset="0.3324" style="stop-color:#BBBDBF"/>
				<stop  offset="0.5503" style="stop-color:#FFFFFF"/>
				<stop  offset="0.986" style="stop-color:#929497"/>
			</linearGradient>
			<path class="st28" d="M1194.4,739l-50.2,29c-1.4,0.8-3.2,0.3-4-1.1l-0.6-1.1c-0.8-1.4-0.3-3.2,1.1-4l50.2-29
				c1.4-0.8,3.2-0.3,4,1.1l0.6,1.1C1196.3,736.4,1195.8,738.2,1194.4,739z"/>
			<path class="st7" d="M1192.9,758l-33.8,19.5c-1.4,0.8-3.2,0.3-4-1.1l-0.6-1.1c-0.8-1.4-0.3-3.2,1.1-4l33.8-19.5
				c1.4-0.8,3.2-0.3,4,1.1l0.6,1.1C1194.8,755.3,1194.3,757.1,1192.9,758z"/>
			<linearGradient id="SVGID_8_" gradientUnits="userSpaceOnUse" x1="1149.439" y1="760.3038" x2="1195.7183" y2="760.3038">
				<stop  offset="6.424581e-02" style="stop-color:#F1F1F2"/>
				<stop  offset="0.3324" style="stop-color:#BBBDBF"/>
				<stop  offset="0.5503" style="stop-color:#FFFFFF"/>
				<stop  offset="0.986" style="stop-color:#929497"/>
			</linearGradient>
			<path class="st29" d="M1194.2,751.9l-39.7,22.9c-1.4,0.8-3.2,0.3-4-1.1l-0.6-1.1c-0.8-1.4-0.3-3.2,1.1-4l39.7-22.9
				c1.4-0.8,3.2-0.3,4,1.1l0.6,1.1C1196.1,749.3,1195.7,751.1,1194.2,751.9z"/>
			<path class="st30" d="M1193.4,763.7l-30.2,17.4c-1,0.6-2.3,0.2-2.9-0.8l-0.2-0.4c-0.6-1-0.2-2.3,0.8-2.9l30.2-17.4
				c1-0.6,2.3-0.2,2.9,0.8l0.2,0.4C1194.8,761.8,1194.4,763.1,1193.4,763.7z"/>
			<path class="st20" d="M1527.9,696.3l145.7-104.8h-106.7l-133.3,82.9l71.7,25.2C1512.9,702.2,1521.3,701,1527.9,696.3z"/>
			<rect x="1533.6" y="581.3" class="st3" width="217.2" height="10.4"/>
			<path class="st31" d="M1573.2,585.9c0,0-89.8-2.8-101.7,0c-11.9,2.8-32.3,18.2-58.9,30.4c-26.7,12.1-152.4,31.4-152.4,31.4
				c-0.9,0.7,2.4,2.7,1.9,3.6c3.8,4,2.6,8,3.7,13.6c2.2,3.9,3.5,8.4,3.7,13.2c22.9,16.3,48.8,23.9,65.6,27.2
				c3.6-1.8,7.6-2.7,11.7-2.7c4.5,0,8.7,1.1,12.3,2.9c0.2-0.1,0.5-0.1,0.7-0.2c3.4-3.8,7.8-6.7,12.8-7.6c7.8-1.4,14.9-4.6,22.2-7.6
				c7.3-3,14.8-4.9,22.6-5.7c1.2-1,2.5-1.9,3.8-2.4c5.2-2.3,10.5-4.7,16-6.4c4.7-1.5,9.5-2.2,14.3-2.8
				c43.1-16.8,86.3-35.5,99.3-45.5C1578.1,606,1573.2,585.9,1573.2,585.9z"/>
			<path class="st18" d="M1584.4,589c-6.8-0.4-13.7-1.4-20.5-0.8c-1.7,0.2-3.3,0.5-4.8,0.9c1.6,3,1.5,7-1.5,10.3
				c-16.6,18.6-37.5,34.1-59.8,45.1c-14.3,7-29.6,12.4-45.4,14.1c-1.2,1.2-2.7,2.2-4.5,3.1c-1.8,0.9-3.5,1.2-5.1,1
				c-1.2,0.9-2.4,1.9-3.7,2.7c-0.4,3.1-2.3,5.9-6.4,6.8c-1,0.2-2,0.4-3,0.7c-2.2,0.5-4.4,1.1-6.6,1.7c-0.9,0.2-1.8,0.5-2.7,0.7
				c0.2,0.4,0.3,0.9,0.5,1.4c2.6-1.2,5.6-1.9,8.4-2.1c8.2-0.6,15.2,3.6,22.6,6.3c1.3,0.5,2.4,1.1,3.3,1.9c1.7-0.6,2.8-1,3.2-1.2
				l0.3-0.1l73.2-31.2l0.3-0.1C1537.7,647.6,1585.6,624.2,1584.4,589z"/>
			<path class="st10" d="M1553.6,585.4c0,0-143.5,103.7-203.5,108.6c0,0-67-2.2-90-46.3c0,0-13.2,24.6,33.2,46.3
				c0,0,43.9,17.7,61.2,12.6c17.3-5.1,100-35.1,100-35.1l73-31.1c0,0,50.7-23.6,45.8-54.5L1553.6,585.4z"/>
			<path class="st18" d="M1233.4,682.7c0,0,57.2,18.5,66.2,31.4c0,0-65.6,74.5-66.2,79.6l-32.1-68.1l8.3-38.1L1233.4,682.7z"/>
			<circle class="st10" cx="1232.2" cy="815.3" r="61"/>
			<linearGradient id="SVGID_9_" gradientUnits="userSpaceOnUse" x1="1279.3818" y1="788.2432" x2="1185.4949" y2="842.4488">
				<stop  offset="6.424581e-02" style="stop-color:#F1F1F2"/>
				<stop  offset="0.7123" style="stop-color:#BBBDBF"/>
				<stop  offset="0.8184" style="stop-color:#FFFFFF"/>
				<stop  offset="0.986" style="stop-color:#929497"/>
			</linearGradient>
			<circle class="st32" cx="1232.4" cy="815.3" r="54.2"/>
			<linearGradient id="SVGID_10_" gradientUnits="userSpaceOnUse" x1="1274.7485" y1="790.9185" x2="1190.1281" y2="839.7742">
				<stop  offset="6.424581e-02" style="stop-color:#F1F1F2"/>
				<stop  offset="0.3324" style="stop-color:#BBBDBF"/>
				<stop  offset="0.5503" style="stop-color:#FFFFFF"/>
				<stop  offset="0.986" style="stop-color:#929497"/>
			</linearGradient>
			<circle class="st33" cx="1232.4" cy="815.3" r="48.8"/>
			<path class="st18" d="M1627.7,591.4c0,0,10.4,1.9,0,11.4c-10.4,9.5-137.2,91.6-137.2,91.6s16.6,10,33.4,6.6l149.7-109.5
				L1627.7,591.4z"/>
			<path class="st20" d="M1006.6,685.1l28.1-47c0,0,62.9-41.3,153-30.2c9.5,1.2,18.7,4.4,26.8,9.4c19.1,11.9,53.4,37.1,57.4,67.8
				c0,0-168.4,61.7-183.1,82.8C1088.7,767.9,1034.6,697.7,1006.6,685.1z"/>
			<path class="st18" d="M1071.8,620.7L1071.8,620.7c5.3,9.8,3.6,21.9-4.2,29.8c-18.5,18.7-35.2,53.4,95.4,52.9
				c0,0,49.4,4.3,70.8-3.9c0,0-129.8,49.5-145.2,68.4c0,0-74.9-76.6-96.6-87.1l42.6-42.7L1071.8,620.7z"/>
			<path class="st24" d="M1039,719.3c0,0,33-33.6,106-43.4l67.9-11.2c0,0-94,23.2-124.2,103.1L1039,719.3z"/>
			<g>
				<path class="st10" d="M938.4,690.1h-23.5V585.3H940c21.2,0,38.4,17.2,38.4,38.4v26.5C978.3,672.2,960.4,690.1,938.4,690.1z"/>
				<path class="st34" d="M930.4,585.3h-13c45.2,20.7,87.4,57-0.4,104.8h10.8c34.2,0,62-23.4,62-52.2v-2.6
					C989.8,607.7,963.2,585.3,930.4,585.3z"/>
				<path class="st25" d="M926.2,599.8c-0.9-5.5-2.1-10.8-4-14.5h-7.2v104.8h7.2c2-3.7,3.1-9,4-14.5c1.7-10.2,2.6-23.6,2.6-37.9
					C928.8,623.4,927.8,610,926.2,599.8z"/>
				<ellipse class="st24" cx="914.3" cy="637.7" rx="5.4" ry="52.4"/>
			</g>
			<path class="st35" d="M1039.4,553c-1.6-5.2-33.4-53.4-33.4-53.4v-32.9"/>
			<g>
				
					<ellipse transform="matrix(0.847 -0.5316 0.5316 0.847 -90.6265 607.019)" class="st12" cx="1009.3" cy="461" rx="7.6" ry="21.3"/>
				
					<ellipse transform="matrix(0.847 -0.5316 0.5316 0.847 -89.5237 608.006)" class="st13" cx="1011.5" cy="459.5" rx="5" ry="21.3"/>
			</g>
			<path class="st36" d="M917.7,597.4c0,0,51.6,2.3,67,17.7l3.5,8.7c0,0-32.3-17-68.5-15.8L917.7,597.4z"/>
			<path class="st12" d="M1052.9,553.5h28.7c4.5,0,8.1-3.6,8.1-8.1l0,0c0-4.4-3.5-7.9-7.8-8.1l-28.7-0.9c-4.6-0.2-8.3,3.5-8.3,8.1
				v0.9C1044.8,549.8,1048.4,553.5,1052.9,553.5z"/>
			<path class="st25" d="M1089.6,541.1L1089.6,541.1c0,2-4.6,3.8-6.6,3.8l-34.6-0.3c-2,0-3.6-1.6-3.6-3.7v-1.1
				c0-2.1,1.7-3.7,3.8-3.7l37.5,1.2C1088.1,537.5,1089.6,539.1,1089.6,541.1z"/>
			<ellipse class="st12" cx="1050.3" cy="544.6" rx="8.4" ry="14.6"/>
			<path class="st13" d="M1043.6,539.4l-13.6,0.6c-6.9,0.3-12.8,5.3-14.6,12.3l-14.1,53.8c-1.1,4.2-4.2,7.5-8.2,8.7l-15.3,4.6
				l-3,8.9l20.3-3.3c6.6-1.8,11-4.5,12.9-11.5l14.6-54.3c1.5-5.5,6.2-9.3,11.5-9.3h10.7l2.2-10.6H1043.6z"/>
			<path class="st12" d="M1043.3,538.4l-14.5,0.6c-7.3,0.3-13.7,5.3-15.7,12.3L998,605c-1.2,4.2-4.5,7.5-8.7,8.7l-16.4,4.6v10.4
				l18.6-4.8c7-1.8,11.8-4.5,13.8-11.5l15.6-54.3c1.6-5.5,6.6-9.3,12.3-9.3h11.5l2.4-10.6H1043.3z"/>
			<path class="st12" d="M964.8,573.4l29.6-12.6c1.9-0.8,4.2-0.1,5.2,1.8l43.4,77.4c1.8,3.2,0.8,7.3-2.2,9.3l-26,17.3
				c-2.4,1.6-5.7,1-7.3-1.4l-31.3-45.5l-14.5-39.3C960.8,577.6,962.1,574.6,964.8,573.4z"/>
			<path class="st12" d="M1095.3,562h34.2c5.3,0,9.6-4.3,9.6-9.6v0c0-5.2-4.1-9.5-9.3-9.6l-34.2-1.1c-5.4-0.2-10,4.2-10,9.6v1.1
				C1085.7,557.7,1090,562,1095.3,562z"/>
			<path class="st25" d="M1139.2,547.2L1139.2,547.2c0,2.4-5.5,4.5-7.9,4.5l-41.2-0.3c-2.4,0-4.3-2-4.3-4.4v-1.3
				c0-2.5,2-4.4,4.5-4.4l44.8,1.5C1137.3,543,1139.2,544.9,1139.2,547.2z"/>
			<path class="st3" d="M878.8,915.2l-2.4-1.2c-3.2-1.6-4.5-5.4-2.9-8.6L1006,636.6l13.9,6.9L887.5,912.3
				C885.9,915.5,882,916.8,878.8,915.2z"/>
			<polygon class="st25" points="1013,586.2 970,602.8 967,594.5 1008.5,578.3 			"/>
			
				<rect x="912.6" y="755.9" transform="matrix(0.8969 0.4422 -0.4422 0.8969 460.9886 -321.6424)" class="st25" width="15.5" height="144.2"/>
			<path class="st37" d="M904.8,895.8l-28.7-14.2l66.7-135.3c0.5-1,1.8-1.4,2.8-0.9l25,12.3c1,0.5,1.4,1.8,0.9,2.8L904.8,895.8z"/>
			
				<rect x="913.6" y="742.4" transform="matrix(0.8969 0.4422 -0.4422 0.8969 457.0794 -323.1149)" class="st9" width="16" height="152.9"/>
			
				<rect x="921.4" y="744.2" transform="matrix(0.8969 0.4422 -0.4422 0.8969 458.2703 -324.5664)" class="st38" width="7.8" height="152.9"/>
			<g>
				<path class="st10" d="M1567.5,692.7l7.5-1.1l-5-35.2l-8.1,1.2c-7.3,1-12.4,7.8-11.3,15.1l1.2,8.2
					C1552.8,688.5,1559.9,693.8,1567.5,692.7z"/>
				<path class="st34" d="M1564.8,657.1l4.4-0.6c-14.2,9.1-26.7,23.4,5.2,35.2l-3.6,0.5c-11.5,1.6-22-4.9-23.3-14.6l-0.1-0.9
					C1545.9,667.5,1553.7,658.7,1564.8,657.1z"/>
				<path class="st25" d="M1566.9,661.8c0-1.9,0.2-3.7,0.7-5.1l2.4-0.3l5,35.2l-2.4,0.3c-0.8-1.2-1.5-2.9-2.1-4.7
					c-1.1-3.3-2-7.8-2.7-12.6C1567.1,669.9,1566.8,665.3,1566.9,661.8z"/>
				
					<ellipse transform="matrix(0.99 -0.1414 0.1414 0.99 -79.4876 229.1237)" class="st39" cx="1572.7" cy="674" rx="1.8" ry="17.8"/>
			</g>
			
				<ellipse transform="matrix(0.4422 -0.8969 0.8969 0.4422 -318.1505 1296.1069)" class="st40" cx="883" cy="903.8" rx="3.4" ry="3.2"/>
			<polygon class="st3" points="1331.9,795.4 1338.6,823 1450.8,867.8 			"/>
			<path class="st35" d="M1070.8,551c-1.6-5.2-33.4-53.4-33.4-53.4v-32.9"/>
			<g>
				
					<ellipse transform="matrix(0.847 -0.5316 0.5316 0.847 -84.7154 623.4003)" class="st12" cx="1040.7" cy="458.9" rx="7.6" ry="21.3"/>
				
					<ellipse transform="matrix(0.847 -0.5316 0.5316 0.847 -83.6127 624.3875)" class="st13" cx="1043" cy="457.5" rx="5" ry="21.3"/>
			</g>
			<path class="st13" d="M1084.2,545.2l-16.2,0.7c-8.2,0.3-15.2,6.3-17.5,14.7l-16.9,64.1c-1.3,5.1-5,9-9.8,10.4l-18.2,5.5
				l-3.5,10.6l24.3-3.9c7.8-2.1,13.1-5.4,15.3-13.7l17.4-64.7c1.8-6.6,7.4-11.1,13.7-11.1h12.8l2.7-12.6H1084.2z"/>
			<path class="st3" d="M1083.9,544l-17.3,0.7c-8.8,0.3-16.3,6.3-18.7,14.7l-18.1,64.1c-1.4,5.1-5.4,9-10.4,10.4l-29.6,8.1
				c-5.5,1.5-7.3,8.5-3.1,12.4l0,0l35.4-8.3c8.4-2.1,14-5.4,16.4-13.7l18.6-64.7c1.9-6.6,7.9-11.1,14.7-11.1h13.7l2.8-12.6H1083.9z"
				/>
			<ellipse class="st12" cx="1092.2" cy="551.4" rx="10.1" ry="17.4"/>
			<g>
				<path class="st10" d="M979.2,669.8h-7.6v-35.6h8.2c7.4,0,13.4,6,13.4,13.4v8.3C993.1,663.6,986.9,669.8,979.2,669.8z"/>
				<path class="st34" d="M976.8,634.2h-4.4c15.3,7,29.7,19.4-0.1,35.6h3.7c11.6,0,21-7.9,21-17.7v-0.9
					C997,641.8,988,634.2,976.8,634.2z"/>
				<path class="st25" d="M975.4,639.2c-0.3-1.9-0.7-3.7-1.4-4.9h-2.5v35.6h2.5c0.7-1.3,1.1-3.1,1.4-4.9c0.6-3.5,0.9-8,0.9-12.9
					C976.3,647.2,976,642.6,975.4,639.2z"/>
				<ellipse class="st39" cx="971.3" cy="652" rx="1.8" ry="17.8"/>
			</g>
			<path class="st3" d="M1005.6,670.6c-7.2,0-13.1-5.9-13.1-13.1s5.9-13.1,13.1-13.1c7.2,0,13.1,5.9,13.1,13.1
				S1012.9,670.6,1005.6,670.6z"/>
			<circle class="st41" cx="1005.6" cy="657.4" r="10.7"/>
			<path class="st12" d="M990,564.7c0,0-1-4.9-2.7-4.3c-1.7,0.6-22.2,10.3-22.2,10.3l1.3,3.6L990,564.7z"/>
			<path class="st42" d="M1098.8,759.9l10.6-6.5c0,0,41.2,90.5,74.2,99l-2.4,6.3l-2.8,0.7c0,0-3.5,6-26.9-23.8
				S1098.8,759.9,1098.8,759.9z"/>
			<path class="st3" d="M1057.2,710.3c0,0,32.9-0.8,49.8,5.8l-4.7,9.4c0,0-23.2-12.8-50.1-9.4L1057.2,710.3z"/>
			<path class="st3" d="M1070.8,702.5c0,0,33.5,1.6,39.4,5l6.3-5.9c0,0-29.1-4.6-34.4-4.3S1070.8,702.5,1070.8,702.5z"/>
			<path class="st3" d="M1095.8,686.9l-6.1,3.2c0,0,27.4,0.5,32.4,3.8l6.5-3.8C1128.6,690.1,1114.7,684.5,1095.8,686.9z"/>
			<path class="st43" d="M1137.6,702.9c-29.3-1.1-52.7-5.9-65.5-10.5c-22.2,14.1-33.1,26.8-33.1,26.8l0,0
				c25.1,23.5,49.7,48.6,49.7,48.6C1099.3,739.6,1117.9,718.5,1137.6,702.9z"/>
			<circle class="st3" cx="1155.8" cy="787.1" r="10.7"/>
			<circle class="st24" cx="1155.8" cy="787.1" r="9.1"/>
			<linearGradient id="SVGID_11_" gradientUnits="userSpaceOnUse" x1="1388.886" y1="779.0934" x2="1461.9698" y2="779.0934">
				<stop  offset="6.424581e-02" style="stop-color:#F1F1F2"/>
				<stop  offset="0.3324" style="stop-color:#BBBDBF"/>
				<stop  offset="0.5503" style="stop-color:#FFFFFF"/>
				<stop  offset="0.986" style="stop-color:#929497"/>
			</linearGradient>
			<path class="st44" d="M1391.3,712.1l5.7-2.6c2.1-0.9,4.5,0,5.4,2L1462,843l-13.1,6l-59.6-131.4
				C1388.3,715.5,1389.2,713.1,1391.3,712.1z"/>
			<path class="st9" d="M1398.2,717.8l58,127.9l5.8-2.6l-57.7-127.2c-2.1-4.7-5.9-7.6-8.4-6.4l-2.9,1.3c-2.4,1.1-2.7,5.4-0.9,9.9
				L1398.2,717.8z"/>
			<path class="st3" d="M1426.6,821.5l31.8-14.4l41.2,90.9c1.6,3.5,0,7.5-3.4,9.1l-19.2,8.7c-3.5,1.6-7.5,0-9.1-3.4L1426.6,821.5z"
				/>
			<path class="st9" d="M1441.3,818l42.8,94.5c0.2-0.1,0.4-0.1,0.6-0.2l2.1-0.9c4.2-1.9,4.9-9.3,1.6-16.6l-37.6-82.8l-17.2,7.8
				l0.7,1.5L1441.3,818z"/>
			<g>
				<path class="st7" d="M1387.6,725.3l22-10c0.9-0.4,1.9,0,2.3,0.9l0.3,0.7c0.4,0.9,0,1.9-0.9,2.3l-22,10c-0.9,0.4-1.9,0-2.3-0.9
					l-0.3-0.7C1386.3,726.7,1386.7,725.7,1387.6,725.3z"/>
				<path class="st25" d="M1411.8,716.1l-25.1,11.3c0,0.2,0.1,0.4,0.2,0.5c0.5,1.1,1.8,1.5,2.8,1.1l21.3-9.7
					c1.1-0.5,1.5-1.8,1.1-2.8C1412,716.4,1411.9,716.3,1411.8,716.1z"/>
			</g>
			<g>
				<path class="st7" d="M1390.7,732.3l22-10c0.9-0.4,1.9,0,2.3,0.9l0.3,0.7c0.4,0.9,0,1.9-0.9,2.3l-22,10c-0.9,0.4-1.9,0-2.3-0.9
					l-0.3-0.7C1389.4,733.7,1389.8,732.7,1390.7,732.3z"/>
				<path class="st25" d="M1415,723.1l-25.1,11.3c0,0.2,0.1,0.4,0.2,0.5c0.5,1.1,1.8,1.5,2.8,1.1l21.3-9.7c1.1-0.5,1.5-1.8,1.1-2.8
					C1415.1,723.4,1415.1,723.2,1415,723.1z"/>
			</g>
			<g>
				<path class="st7" d="M1393.6,739.9l22-10c0.9-0.4,1.9,0,2.3,0.9l0.3,0.7c0.4,0.9,0,1.9-0.9,2.3l-22,10c-0.9,0.4-1.9,0-2.3-0.9
					l-0.3-0.7C1392.4,741.4,1392.8,740.3,1393.6,739.9z"/>
				<path class="st25" d="M1417.9,730.7l-25.1,11.3c0,0.2,0.1,0.4,0.2,0.5c0.5,1.1,1.8,1.5,2.8,1.1l21.3-9.7
					c1.1-0.5,1.5-1.8,1.1-2.8C1418.1,731,1418,730.9,1417.9,730.7z"/>
			</g>
			<g>
				<path class="st7" d="M1397.3,748l22-10c0.9-0.4,1.9,0,2.3,0.9l0.3,0.7c0.4,0.9,0,1.9-0.9,2.3l-22,10c-0.9,0.4-1.9,0-2.3-0.9
					l-0.3-0.7C1396,749.5,1396.4,748.4,1397.3,748z"/>
				<path class="st25" d="M1421.6,738.9l-25.1,11.3c0,0.2,0.1,0.4,0.2,0.5c0.5,1.1,1.8,1.5,2.8,1.1l21.3-9.7
					c1.1-0.5,1.5-1.8,1.1-2.8C1421.7,739.1,1421.7,739,1421.6,738.9z"/>
			</g>
			<g>
				<path class="st7" d="M1401.6,755.9l22-10c0.9-0.4,1.9,0,2.3,0.9l0.3,0.7c0.4,0.9,0,1.9-0.9,2.3l-22,10c-0.9,0.4-1.9,0-2.3-0.9
					l-0.3-0.7C1400.3,757.4,1400.7,756.3,1401.6,755.9z"/>
				<path class="st25" d="M1425.8,746.8l-25.1,11.3c0,0.2,0.1,0.4,0.2,0.5c0.5,1.1,1.8,1.5,2.8,1.1l21.3-9.7
					c1.1-0.5,1.5-1.8,1.1-2.8C1426,747,1425.9,746.9,1425.8,746.8z"/>
			</g>
			<g>
				<path class="st7" d="M1404.7,762.9l22-10c0.9-0.4,1.9,0,2.3,0.9l0.3,0.7c0.4,0.9,0,1.9-0.9,2.3l-22,10c-0.9,0.4-1.9,0-2.3-0.9
					l-0.3-0.7C1403.4,764.4,1403.8,763.3,1404.7,762.9z"/>
				<path class="st25" d="M1429,753.7l-25.1,11.3c0,0.2,0.1,0.4,0.2,0.5c0.5,1.1,1.8,1.5,2.8,1.1l21.3-9.7c1.1-0.5,1.5-1.8,1.1-2.8
					C1429.1,754,1429.1,753.9,1429,753.7z"/>
			</g>
			<g>
				<path class="st7" d="M1407.6,770.6l22-10c0.9-0.4,1.9,0,2.3,0.9l0.3,0.7c0.4,0.9,0,1.9-0.9,2.3l-22,10c-0.9,0.4-1.9,0-2.3-0.9
					l-0.3-0.7C1406.4,772,1406.8,771,1407.6,770.6z"/>
				<path class="st25" d="M1431.9,761.4l-25.1,11.3c0,0.2,0.1,0.4,0.2,0.5c0.5,1.1,1.8,1.5,2.8,1.1l21.3-9.7
					c1.1-0.5,1.5-1.8,1.1-2.8C1432.1,761.6,1432,761.5,1431.9,761.4z"/>
			</g>
			<g>
				<path class="st7" d="M1411.3,778.7l22-10c0.9-0.4,1.9,0,2.3,0.9l0.3,0.7c0.4,0.9,0,1.9-0.9,2.3l-22,10c-0.9,0.4-1.9,0-2.3-0.9
					l-0.3-0.7C1410,780.1,1410.4,779.1,1411.3,778.7z"/>
				<path class="st25" d="M1435.6,769.5l-25.1,11.3c0,0.2,0.1,0.4,0.2,0.5c0.5,1.1,1.8,1.5,2.8,1.1l21.3-9.7
					c1.1-0.5,1.5-1.8,1.1-2.8C1435.7,769.8,1435.7,769.6,1435.6,769.5z"/>
			</g>
			<g>
				<path class="st7" d="M1415.3,786.4l22-10c0.9-0.4,1.9,0,2.3,0.9l0.3,0.7c0.4,0.9,0,1.9-0.9,2.3l-22,10c-0.9,0.4-1.9,0-2.3-0.9
					l-0.3-0.7C1414,787.9,1414.4,786.8,1415.3,786.4z"/>
				<path class="st25" d="M1439.6,777.2l-25.1,11.3c0,0.2,0.1,0.4,0.2,0.5c0.5,1.1,1.8,1.5,2.8,1.1l21.3-9.7
					c1.1-0.5,1.5-1.8,1.1-2.8C1439.7,777.5,1439.7,777.4,1439.6,777.2z"/>
			</g>
			<g>
				<path class="st7" d="M1419.6,794.3l22-10c0.9-0.4,1.9,0,2.3,0.9l0.3,0.7c0.4,0.9,0,1.9-0.9,2.3l-22,10c-0.9,0.4-1.9,0-2.3-0.9
					l-0.3-0.7C1418.3,795.8,1418.7,794.7,1419.6,794.3z"/>
				<path class="st25" d="M1443.8,785.2l-25.1,11.3c0,0.2,0.1,0.4,0.2,0.5c0.5,1.1,1.8,1.5,2.8,1.1l21.3-9.7
					c1.1-0.5,1.5-1.8,1.1-2.8C1444,785.4,1443.9,785.3,1443.8,785.2z"/>
			</g>
			<g>
				<path class="st7" d="M1422.7,801.3l22-10c0.9-0.4,1.9,0,2.3,0.9l0.3,0.7c0.4,0.9,0,1.9-0.9,2.3l-22,10c-0.9,0.4-1.9,0-2.3-0.9
					l-0.3-0.7C1421.4,802.8,1421.8,801.7,1422.7,801.3z"/>
				<path class="st25" d="M1447,792.1l-25.1,11.3c0,0.2,0.1,0.4,0.2,0.5c0.5,1.1,1.8,1.5,2.8,1.1l21.3-9.7c1.1-0.5,1.5-1.8,1.1-2.8
					C1447.1,792.4,1447.1,792.3,1447,792.1z"/>
			</g>
			<g>
				<path class="st7" d="M1425.6,808.9l22-10c0.9-0.4,1.9,0,2.3,0.9l0.3,0.7c0.4,0.9,0,1.9-0.9,2.3l-22,10c-0.9,0.4-1.9,0-2.3-0.9
					l-0.3-0.7C1424.4,810.4,1424.8,809.4,1425.6,808.9z"/>
				<path class="st25" d="M1449.9,799.8l-25.1,11.3c0,0.2,0.1,0.4,0.2,0.5c0.5,1.1,1.8,1.5,2.8,1.1l21.3-9.7
					c1.1-0.5,1.5-1.8,1.1-2.8C1450.1,800,1450,799.9,1449.9,799.8z"/>
			</g>
			<path class="st25" d="M1387.1,703.1l5.2-2.3c4.1-1.9,9,0,10.9,4.1l3.7,8.2l-20.1,9.1l-3.7-8.2
				C1381.1,709.9,1383,705,1387.1,703.1z"/>
			<path class="st9" d="M1391,704.7c2.8-1.3,6.1,0,7.3,2.8c1.3,2.8,0,6.1-2.8,7.3c-2.8,1.3-6.1,0-7.3-2.8
				C1386.9,709.3,1388.2,706,1391,704.7z"/>
			<circle class="st13" cx="1393.2" cy="709.8" r="4.3"/>
			<path class="st25" d="M1485.4,916.7l5.2-2.3c4.1-1.9,6-6.7,4.1-10.9l-3.7-8.2l-20.1,9.1l3.7,8.2
				C1476.4,916.8,1481.2,918.6,1485.4,916.7z"/>
			<path class="st9" d="M1486.7,912.8c2.8-1.3,4-4.6,2.8-7.3c-1.3-2.8-4.6-4-7.3-2.8c-2.8,1.3-4,4.6-2.8,7.3
				C1480.6,912.8,1483.9,914,1486.7,912.8z"/>
			<circle class="st13" cx="1484.4" cy="907.7" r="4.3"/>
			<polygon class="st9" points="1436.2,824.1 1440.5,822.3 1472.9,894.1 1468.6,896.2 			"/>
			<path class="st18" d="M1776.3,581.3l-261.5,4.9c-6,0.1-11-4.7-11.1-10.7l-4.2-223.9c-0.1-6,4.7-11,10.7-11.1l261.5-4.9
				c6-0.1,11,4.7,11.1,10.7l4.2,223.9C1787.1,576.2,1782.3,581.2,1776.3,581.3z"/>
			<path class="st20" d="M1780.5,369.6l-242.9,5.3c-0.4,4.3,3.1,8.1,7.4,8l235.6-6.4L1780.5,369.6z"/>
			<polygon class="st20" points="1744.7,381.4 1719.1,513.7 1517,566 1784.4,535.1 			"/>
			<circle class="st20" cx="1540.2" cy="378.9" r="6.8"/>
			<path class="st45" d="M1783.4,382.8c0,0-240.8-33.7-281.5,95.6l118.5,31.8C1703.7,532.6,1785.1,469,1783.4,382.8L1783.4,382.8z"
				/>
			<g class="st46">
				<g>
					<path class="st45" d="M1157.8,636.9c-0.9,0.1-1.8,0.3-2.8,0.4c0.2,1.3,0.4,2.6,0.7,4c0.3,1.7,0.6,3.4,0.9,5.1
						c0.1,0.5,0,0.8-0.6,0.8c-0.8,0-1.5,0.3-2.4,0.4c-1.2-6.9-2.4-13.8-3.6-20.8c1.1-0.2,2.1-0.4,3.1-0.6c0.5,2.8,1,5.6,1.5,8.5
						c1-0.2,1.9-0.3,2.9-0.5c-0.5-2.8-0.9-5.5-1.4-8.4c1-0.2,2-0.4,3.1-0.6c0.4,2.5,0.8,4.8,1.2,7.2c0.7,4.3,1.5,8.5,2.2,12.8
						c0.1,0.6-0.1,1-0.7,1c-0.5,0-1,0-1.4,0.2c-0.7,0.3-0.9-0.1-1-0.6c-0.5-2.6-0.9-5.2-1.3-7.8
						C1158,637.6,1157.9,637.3,1157.8,636.9z"/>
					<path class="st45" d="M1127.2,638.2c-1.1,0.2-1.8,0.3-2.5,0.4c-0.4,0.1-0.6-0.1-0.6-0.5c-0.2-1-0.4-2-0.6-3
						c-0.2-0.7-0.8-1-1.4-0.9c-0.6,0.1-1.3,0.4-1.2,1.2c0.1,1.4,0.2,2.7,0.4,4.1c0.4,2.4,0.8,4.8,1.3,7.1c0.2,1,0.5,1.9,0.8,2.8
						c0.2,0.5,0.7,0.8,1.2,0.6c0.4-0.1,0.8-0.4,1-0.7c0.6-0.9,0.2-1.9,0.2-2.9c-0.1-0.9-0.3-1.8-0.5-2.7c-0.1-0.2-0.5-0.5-0.6-0.5
						c-0.8,0.3-1.2,0.1-1.2-0.8c0-0.4-0.1-0.8-0.2-1.3c1.4-0.2,2.8-0.5,4.3-0.7c0.4,2,0.7,4,1,5.9c0.3,1.5,0.5,3,0.8,4.5
						c0.1,0.4,0.3,0.9-0.3,1c-0.5,0.1-1.1,0.2-1.3-0.6c-0.1-0.3-0.2-0.6-0.4-1c-1.2,2.5-3.4,3.3-5.4,2.1c-1.1-0.7-1.8-1.7-2.1-3
						c-0.6-2.9-1.2-5.8-1.7-8.7c-0.3-1.6-0.6-3.3-0.6-4.9c0-2.9,1.8-4.1,4.3-4.3c1-0.1,2-0.1,2.7,0.6c0.5,0.4,1,1,1.2,1.5
						C1126.4,635.1,1126.8,636.6,1127.2,638.2z"/>
					<path class="st45" d="M1146.4,640c0.8-0.2,1.7-0.4,2.6-0.5c0.1,0,0.5,0.2,0.5,0.3c0.2,1.9,0.6,3.8,0.5,5.7
						c-0.1,2.3-1.4,3.2-3.5,3.5c-2.8,0.5-4.4-0.9-5-3.3c-0.7-2.5-1.1-5-1.5-7.5c-0.3-1.7-0.6-3.4-0.8-5.1c-0.1-1.6-0.1-3.2,1.4-4.4
						c1.5-1.2,4.1-1.5,5.5-0.4c1.1,0.8,1.5,1.9,1.9,3.1c0.3,1.1,0.5,2.3,0.6,3.4c0,0.2-0.2,0.6-0.4,0.6c-0.6,0.2-1.3,0.3-2,0.4
						c-0.4,0.1-0.6-0.1-0.7-0.6c-0.2-1.3-0.5-2.6-0.8-3.9c-0.1-0.7-0.7-1-1.2-1c-0.7,0-1.3,0.4-1.2,1.3c0.1,1.4,0.3,2.8,0.5,4.2
						c0.4,2.4,0.8,4.8,1.3,7.3c0.2,0.9,0.5,1.8,0.8,2.7c0.2,0.5,0.7,0.7,1.4,0.5c0.7-0.2,0.9-0.7,0.8-1.2
						C1146.9,643.5,1146.6,641.8,1146.4,640z"/>
					<path class="st45" d="M1167.4,635.6c0.4,2.2,0.8,4.4,1.1,6.6c1.3-0.2,2.6-0.4,3.9-0.6c0.2,0.9,0.3,1.7,0.5,2.6
						c-1.2,0.2-2.4,0.5-3.6,0.7c-0.8,0.2-1.7,0.3-2.5,0.5c-0.8,0.2-1,0-1.1-0.8c-0.8-4.2-1.5-8.5-2.3-12.7c-0.4-2.3-0.8-4.7-1.2-7.1
						c2.3-0.4,4.6-0.8,6.9-1.2c0.2,0.9,0.3,1.8,0.5,2.7c-1.1,0.2-2.2,0.4-3.3,0.6c-0.4,0.1-0.5,0.2-0.5,0.6c0.3,1.8,0.6,3.6,1,5.6
						c1-0.2,1.9-0.3,2.9-0.5c0.6-0.1,0.9-0.1,0.9,0.6c0,0.6,0.4,1.4,0.1,1.8c-0.2,0.4-1.1,0.3-1.7,0.4
						C1168.6,635.3,1168,635.5,1167.4,635.6z"/>
					<path class="st45" d="M1135.8,629.3c0.2,0.9,0.3,1.7,0.5,2.6c-1.3,0.3-2.6,0.5-3.9,0.8c0.4,2.1,0.7,4,1.1,6.1
						c1.2-0.2,2.4-0.4,3.6-0.6c0.1,0.9,0.3,1.7,0.4,2.6c-1.2,0.2-2.3,0.4-3.6,0.7c0.4,2.2,0.7,4.4,1.1,6.7c1.1-0.2,2.2-0.3,3.2-0.6
						c0.6-0.2,0.9,0.1,0.9,0.7c0,0.2,0.1,0.4,0.1,0.6c0.2,1.7,0.5,1.2-1.1,1.5c-1.8,0.4-3.7,0.6-5.7,1c-0.2-0.9-0.4-1.9-0.5-2.9
						c-0.6-3.3-1.1-6.6-1.7-9.9c-0.4-2.6-0.9-5.1-1.3-7.7c0-0.1,0.3-0.4,0.4-0.4C1131.5,630,1133.6,629.6,1135.8,629.3z"/>
					<path class="st45" d="M1175.1,622.5c0.3,2,0.7,3.9,1,5.8c0.4,2.4,0.8,4.7,1.2,7.1c0.2,1.4,0.5,2.9,0.7,4.3c0.1,1,0.2,1,1.2,0.8
						c1-0.2,2-0.3,3-0.5c0.2,0.8,0.3,1.7,0.5,2.6c-1.7,0.3-3.3,0.6-4.9,0.9c-0.4,0.1-0.9,0-1.3,0.2c-0.8,0.3-1-0.1-1.1-0.8
						c-0.8-5-1.7-10-2.6-15c-0.2-1.4-0.5-2.8-0.7-4.2c0-0.3,0.2-0.7,0.4-0.8C1173.3,622.7,1174.1,622.6,1175.1,622.5z"/>
					<path class="st45" d="M1178.6,627.8c4.4,0.5,8.7,0.9,13.1,1.4c0,0,0,0.1,0,0.1c-3.1,0.6-6.2,1.1-9.3,1.7
						c-1,0.2-2.7-0.8-3.2-1.9C1179,628.7,1178.8,628.3,1178.6,627.8z"/>
					<path class="st45" d="M1160.6,653.2c1.3,0.3,1.9,0.8,1.9,1.7c0,1-0.6,1.8-1.7,2c-0.8,0.2-1.5,0.4-2.3,0.4
						c-0.2,0-0.6-0.4-0.6-0.6c-0.4-1.8-0.7-3.6-1-5.5c-0.1-0.4-0.1-0.8,0.5-0.9c0.9-0.1,1.7-0.2,2.6-0.3c0.7-0.1,1.3,0.1,1.5,0.8
						c0.3,0.7,0.3,1.5-0.4,2C1160.9,652.9,1160.8,653,1160.6,653.2z M1158.6,656.7c0.7-0.1,1.3-0.2,1.9-0.3c0.7-0.2,1.2-0.6,1.2-1.3
						c0-0.6-0.2-1.3-1-1.4c-0.7,0-1.4,0.1-2.1,0.3c-0.2,0-0.4,0.3-0.4,0.5C1158.3,655.1,1158.5,655.9,1158.6,656.7z M1158,653.3
						c0.6-0.1,1.1-0.2,1.6-0.3c0.1,0,0.2,0,0.2,0c0.7-0.2,1.1-0.8,1-1.3c-0.1-0.9-0.4-1.1-1.3-1c-0.4,0-0.9,0.1-1.3,0.1
						c-0.5,0-0.6,0.3-0.6,0.7C1157.8,652.1,1157.9,652.7,1158,653.3z"/>
					<path class="st45" d="M1144.2,655.6c0-1.3,0.2-2.3,1.2-3c1.2-0.7,2.5-1,3.8-0.1c1.2,0.8,1.5,2.2,1.6,3.6c0,2.7-2.5,3.6-4.4,3.1
						c-1-0.2-1.5-1.1-1.8-1.9C1144.3,656.6,1144.3,656,1144.2,655.6z M1150.1,656c-0.1-0.5-0.1-1-0.2-1.4c-0.6-1.9-1.9-2.4-3.7-1.6
						c-1.8,0.8-1.2,4.5,0.1,5.3c0.8,0.5,1.7,0.4,2.5,0.1C1149.8,657.9,1150.1,657.1,1150.1,656z"/>
					<path class="st45" d="M1127.6,662c0-0.4-0.1-0.7-0.1-1.1c-0.1-0.8-0.3-1.4-1.3-0.9c-0.1,0.1-0.4-0.1-0.5-0.2
						c0.1-0.2,0.3-0.3,0.4-0.5c0,0,0.1,0,0.1,0c1.7-0.4,1.8-0.3,2.1,1.5c0.1,0.6,0.2,1.1,0.2,1.7c-1.8,0.6-3.6,1.5-5.3-0.1
						c-1.2-1.2-1.4-3.3-0.7-4.6c0.7-1.4,2.8-2.1,4.7-1.7c0,0.7,0,0.7-0.9,0.6c-1.1-0.1-2.6,0.2-3.1,1.5c-0.5,1.1-0.3,2.8,0.5,3.8
						c0.7,0.7,2,1,3.2,0.6C1127.1,662.2,1127.3,662.1,1127.6,662z"/>
					<path class="st45" d="M1174.6,654.6c-1.5,0-1.3-1.5-2.3-2c-0.8,0.1-1.7,0.3-2.6,0.5c-0.6,0.7,0,2-1,2.5c-0.1,0-0.2-0.1-0.3-0.1
						c0.2-1.2,0.5-2.5,0.7-3.7c0.2-1,0.4-2,0.6-2.9c0.1-0.3,0.3-0.5,0.5-0.7c0.2,0.2,0.5,0.3,0.6,0.6
						C1172.1,650.6,1173.3,652.5,1174.6,654.6z M1172.1,652c-0.6-1.1-1.2-2-1.8-3c-0.2,1.2-0.4,2.3-0.6,3.4
						C1170.6,652.3,1171.3,652.1,1172.1,652z"/>
					<path class="st45" d="M1139,660.7c-1.2,0.2-2.4,0.4-3.7,0.7c-0.2-0.9-0.4-1.8-0.6-2.7c-0.2-1.2-0.4-2.4-0.6-3.6
						c-0.1-0.5,0-0.8,0.7-0.7c0.2,1.2,0.4,2.4,0.6,3.5c0.1,0.7,0.2,1.4,0.3,2.2c0.1,0.4,0.2,0.5,0.7,0.4c0.6-0.2,1.3-0.3,1.9-0.3
						c0.2,0,0.5,0.1,0.7,0.2C1139.1,660.5,1139,660.6,1139,660.7z"/>
					<path class="st45" d="M1180.1,646.5c0.3,1.9,0.7,3.8,1,5.6c0.1,0.6,0.3,0.7,0.8,0.5c0.6-0.2,1.2-0.2,1.8-0.3
						c0.2,0,0.4,0.1,0.6,0.2c-0.1,0.2-0.3,0.4-0.4,0.5c-0.9,0.2-1.9,0.4-2.8,0.5c-0.2,0-0.6-0.3-0.6-0.5c-0.4-1.9-0.7-3.7-1-5.6
						C1179.4,646.9,1179.4,646.5,1180.1,646.5z"/>
				</g>
			</g>
			<path class="st47" d="M1181,607.5c0,0-55-5-87.1,6.4c-32.1,11.5,29.4,29.4,51.4,23.7C1167.2,632,1224.7,630,1181,607.5z"/>
		</g>
		<g>
			<path class="st48" d="M1199,181.5c0,0,0.2,26.7,5.6,33.7c4.5,5.8-10.8,41.1-10.8,41.1l1.9,0c6.6-0.1,13,2.2,18,6.5
				c9.7,8.5,31.8,12.4,38.3,21.6c4,5.7,36,23.6,43.7,24c15.7,0.8,19.6-7.8,29.9-12.5c4.8-2.2-5.1-40.3-5.2-45.6l-0.3-16.1
				l-18.5-48.3l-62.3-27.4L1199,181.5z"/>
			<path class="st12" d="M1290.8,244.1c0,0-15.9,28.2-45,35.1l4.4,2.9c0,0,23.2-6.1,44.7-33.5S1290.8,244.1,1290.8,244.1z"/>
			<path class="st12" d="M1214.2,197.9c-1-0.9-0.6-2.6,0.7-3c4.5-1.2,13.2-3.1,19.1-1.4c8.3,2.3,6,3.9,6,3.9
				S1225.8,194.9,1214.2,197.9L1214.2,197.9z"/>
			
				<ellipse transform="matrix(0.9998 -2.149815e-02 2.149815e-02 0.9998 -4.1828 26.3979)" class="st12" cx="1225.7" cy="207.7" rx="5.4" ry="6.7"/>
			
				<ellipse transform="matrix(0.9998 -2.149815e-02 2.149815e-02 0.9998 -4.1008 26.3813)" class="st45" cx="1224.9" cy="203.9" rx="0.7" ry="1.4"/>
			<path class="st18" d="M1264.9,92c-52.1,1.1-89.7,42.3-88.7,92.1c0.1,3.4,0.3,6.8,0.8,10.1l73.6-1.6l4.7,28.4l-68.5,22.6
				l13.2,26.8c3.5,7.1,11.7,10.6,19.2,8.2l120.5-38.7c11.2-15,17.5-34.9,16.9-59.7C1355.5,130.4,1321.5,90.8,1264.9,92z"/>
			<path class="st12" d="M1177,193.8l107.1-2.3l0-0.8c-0.4-20.1-14-37.4-33.3-42.8l-59.4-16.4c-10,15-15.5,33.1-15.1,52.5
				C1176.3,187.3,1176.6,190.6,1177,193.8z"/>
			<path class="st49" d="M1252.6,105.7c17-0.1,83.9,4.2,88.2,74.9c0.1,1.7-0.9,3.3-2.5,3.9l0,0c-2.3,0.8-4.8-0.6-5.1-3.1
				c-2.1-14.9-14-59.7-80.9-65.5c-1.9-0.2-3.4-1.8-3.5-3.7l-0.1-2.5C1248.7,107.4,1250.5,105.7,1252.6,105.7z"/>
			
				<rect x="1195.1" y="243" transform="matrix(0.9592 -0.2828 0.2828 0.9592 -20.5729 349.3832)" class="st47" width="9.6" height="6"/>
			
				<rect x="1206.9" y="239.5" transform="matrix(0.9592 -0.2828 0.2828 0.9592 -19.105 352.5832)" class="st47" width="9.6" height="6"/>
			
				<rect x="1218.7" y="236" transform="matrix(0.9592 -0.2828 0.2828 0.9592 -17.6317 355.7948)" class="st47" width="9.6" height="6"/>
			
				<rect x="1197.3" y="250.7" transform="matrix(0.9592 -0.2828 0.2828 0.9592 -22.6623 350.3346)" class="st47" width="9.6" height="6"/>
			
				<rect x="1209.1" y="247.2" transform="matrix(0.9592 -0.2828 0.2828 0.9592 -21.1943 353.5346)" class="st47" width="9.6" height="6"/>
			
				<rect x="1221" y="243.7" transform="matrix(0.9592 -0.2828 0.2828 0.9592 -19.721 356.7462)" class="st47" width="9.6" height="6"/>
			<path d="M1304.3,656.5c-0.9-14.6-10-28-24.5-33.6c-19.8-7.6-42,2.2-49.6,22c-4.2,10.9-3.1,22.6,2,32.1c-0.1,0-0.1,0.1-0.1,0.1
				s18.8,116.6,38.3,156.9l47.6-9C1318,824.9,1312,669.5,1304.3,656.5z"/>
			<path class="st50" d="M1265.4,831.3l15.8-1.4l0,0c3.5-1.8,7.2-3,11.1-3.6l29.9-4.4c0,0,4.2,6.8,2.1,12.7s0.4,9.9,0.6,14.8
				c0.2,4.9,2.4,18.3,3,21.9c0.6,3.6,4.5,23.5,5.7,27c1.2,3.5,1.3,11.6,1.3,11.6l-39.5,6.5l-1.3-8.5c0,0-15.8,9.6-23.4,12.7
				c-7.6,3.1-49.1,7.9-49.1,7.9l-11.9-0.5l-1.1-6.7l4.8-0.8c0,0-4.6-5.5-1.6-9.7c3-4.2,14.6-9.8,31.2-14.4
				C1259.8,891.9,1278.9,845.3,1265.4,831.3z"/>
			<path class="st51" d="M1269.2,838.8l10.8-1.8c2.2-0.4,4.3,1.1,4.6,3.3l0,0c0.4,2.2-1.1,4.3-3.3,4.6l-11.4,1.9
				C1270,846.8,1270.2,843.3,1269.2,838.8z"/>
			<path class="st51" d="M1269.6,851.5l10.8-1.8c2.2-0.4,4.3,1.1,4.6,3.3v0c0.4,2.2-1.1,4.3-3.3,4.6l-13.7,2.1
				C1268,859.8,1269.1,856.1,1269.6,851.5z"/>
			<path class="st51" d="M1266.5,864.9l10.8-1.8c2.2-0.4,4.3,1.1,4.6,3.3l0,0c0.4,2.2-1.1,4.3-3.3,4.6l-15.6,2.6
				C1263,873.6,1265.1,869.2,1266.5,864.9z"/>
			<path class="st3" d="M1246.2,895.3c0,0,16.4-10.5,31.6-8.3c0,0-13.6,1.5-26.9,7.5c-13.3,6.1-0.8,0.1-0.8,0.1L1246.2,895.3z"/>
			<circle class="st12" cx="1398.3" cy="509.8" r="68.5"/>
			<path class="st18" d="M1270.3,297.7l50.9-53.1c0,0,15,22.5,30.6,31c14.9,8.2,77.9,101.8,99.9,180.3c1.9,6.7-1.1,13.7-7.1,17.2
				l-102.9,60c-3.8,2.2-8.7,1.3-11.5-2.1c-17.5-21.9-65.6-101.5-56.6-159.6C1284.7,335.4,1275.6,313.1,1270.3,297.7z"/>
			<path class="st45" d="M1388.5,322.2c0,0-15.2,84.4-38,110.3c-22.9,25.9-35.3,42.6-41.4,69.7c0,0,32.4-42.5,54.1-57.2
				C1384.8,430.1,1406.2,373.8,1388.5,322.2z"/>
			<path class="st18" d="M1348.8,475.5c0,0,11.3-36.1,25-65.2c0,0-9.4,37.5-5.7,52.4S1348.8,475.5,1348.8,475.5z"/>
			<path class="st18" d="M1270.3,297.7c0,0,6.7,18.4,8.5,42.5c0,0,52.8-56.7,49.3-86.4l-6.9-9.2L1270.3,297.7z"/>
			<path class="st52" d="M1325.2,250.1c0,0-50.2,39.1-46.3,90.1c0,0,31.3-67.7,46.7-85.5C1325.5,254.7,1326.5,253.6,1325.2,250.1z"
				/>
			<path class="st52" d="M1400.4,341.5c0,0,8.1,38.8,0.3,65.5c0,0,14.3-32.7,12.4-43L1400.4,341.5z"/>
			<circle class="st18" cx="1398.3" cy="509.8" r="68.5"/>
			<path d="M1451.8,467.2c-4.1-4.5-10.3-6.4-16.1-4.8c-13,3.4-37.2,11.7-60.8,30.8c-26.8,21.6-96.4,87.6-130.1,133.6
				c-8.6,9.4,44.1,64.3,48.5,60.2c0,0,160.3-67.8,190.1-114.5C1507.3,534.9,1468.1,485.2,1451.8,467.2z"/>
			<path class="st52" d="M1484.4,516.5c0,0-107.2,16.9-195.7,126.8c9.2-3.4,19.6-6,31-7.1c36.1-31.2,88.8-59.2,163.6-63.7
				C1483.3,572.4,1499.9,557.6,1484.4,516.5z"/>
			<path class="st53" d="M1490.1,536.4c0,0-61.7,2.8-114.4,38.5c0,0,54.3-15.4,81.4-15.9c8.8-0.1,17.2-3.7,23.5-9.8
				C1485.9,544.1,1490.7,538.6,1490.1,536.4z"/>
			<path class="st45" d="M1306.5,608.5c0,0,75.8-76.3,131.6-88.6C1438.1,519.9,1368.3,510.2,1306.5,608.5z"/>
			<path class="st13" d="M1167.1,508c0,0-49.9,12.9-63.5,26.1c0,0-10.8,2.4-4,11c6.8,8.6-0.3,10.5,10.5,10.8s12.5-18.2,24.2-11.8
				s17.4,9.7,28.6,5.1c10.4-4.3,9.8-17.9,16.3-17.1c6.6,0.8-3.4-26.4-3.4-26.4L1167.1,508z"/>
			<path class="st13" d="M1108.5,542.7c0,0-10.4,13.3-8.8,19.2c1.6,5.9,9.5,5.5,15.6-3.6c3.1-4.6,3.8-16.6,3.8-16.6L1108.5,542.7z"
				/>
			<path class="st54" d="M1375.7,326c0,0-33.2,88.7-47.5,109.5c-33.5,48.8-38.5,17.2-39.6-13c-0.3-9.5,4.1-85.9,15.3-99.9
				c26.7-33.2,29.6-32.6,36.6-27.7C1354.8,304.8,1371.2,297.1,1375.7,326z"/>
			<path class="st18" d="M1364.7,304.5c-6.5-15.3-24.1-22.4-39.4-15.9c-9.1,3.9-15.3,11.7-17.5,20.6c-7.2,15.5-17.1,41.9-22,54.1
				c-4.3,10.6-10,28.1-13.9,40.4c-1.9,3.4-3.1,7.2-3.5,11.1c-0.6,1.8-0.9,2.9-0.9,2.9l0.7,0.6c0.1,3.6,0.8,7.3,2.3,10.8
				c6.3,14.8,23.4,21.7,38.2,15.5c7.7-3.3,13.2-9.4,15.9-16.7c24.5-36.7,35.4-79.1,39.4-98.5
				C1367.8,321.8,1368.3,312.8,1364.7,304.5z"/>
			<path class="st18" d="M1261.8,418.5l-68.7,53.4c-2.4,0.4-4.5,1.1-5.2,4c-1.4,1-2.8,2-4.3,2.9c-5.3-0.2-7,2.2-7.5,4.3l-5.5,4.4
				c-3.7,1.7-4.6,0.7-7.5,3.6l-7.8,7.8c-1.5,1.2-1.9,3.4-0.7,4.9l0.8,0.7c1.8,1.7,3.3,3.6,4.7,5.7l3,4.7l16.4,21.7
				c1.2,1.6,3.4,1.9,5,0.8l9.5-7.6c0.4,0.4,0.7,0.6,0.8,0.5c0.5-0.2,5.4-6.9,9.2-7.4c1.9-0.3,2-1.4,1.7-2.4l4.8-3.9
				c0.8-0.2,1.5-0.3,2-0.4c1-0.2,1.9-1.2,2.7-3.3l78.5-52.2c11.6-8.8,26.7-19.4,17.9-31l-2.4-4.5
				C1300.3,413.5,1273.5,409.7,1261.8,418.5z"/>
		</g>
		
			<image style="overflow:visible;" width="657" height="524" xlink:href="../Brand Identity System/Logo/Gechel Global logo transparent.png"  transform="matrix(0.1654 0 0 0.1654 1602.9458 408.427)">
		</image>
	</g>
</g>
<g id="MAP">
	<path class="st55" d="M2307,1109h82.6v-15.6L2490,993V832.3h-26.8l-15.6,22.3l-2.2,20.1l-35.7,2.2l-71.4-31.2
		c0,0-11.2-15.6,17.8-29c29-13.4,17.8-42.4,0-53.5c-17.8-11.2-225.3,0-225.3,0s-24.5,11.2-13.4,31.2c11.2,20.1,24.5,33.5,24.5,33.5
		l-27.5,46.9l-48.4,11.2l-35.7,47.7h-93.7c0,0-24.5,8.1,0,39.3l-20.1,6.7c0,0-37.9-49.1-73.6-2.2c0,0-26.8-8.9-80.3,26.8
		c0,0-13.4,4.5-31.2-6.7c-17.8-11.2-20.1-35.7-58-35.7s-37.9,46.9-49.1,55.8c-11.2,8.9-49.1-2.2-49.1,15.6c0,0,11.2-35.7-24.5-64.7
		c0,0-49.1-20.1-78.1-11.2s-53.5,31.2-69.2,31.2c-15.6,0-55.8-4.5-66.9-4.5c-11.2,0-15.6-20.1-44.6-22.3c-29-2.2-75.9,4.5-22.3,66.9
		l71.4,35.7"/>
	<path class="st55" d="M1233.8,1030.9l-31.2-53.5c0,0,3.7-31.5,31.2-22.3c27.5,9.2,26.8-60.2,55.8-60.2v-42.4h20.1l37.9-40.2
		c0,0,46.9-3.2,22.3-54l-20.1-50.8c0,0,46.9-20.1,46.9-69.2c0,0,0-44.7-37.9-51.4c0,0-33.5-11.1,2.2-24.5c0,0,58-2.2,64.7,0
		c6.7,2.2,40.2,42.6,91.5-1c0,0-4.5-65.9,53.5-86l49.1-17.8l-24.5-53.5l-62.5-24.5l-29-15.6V337l-24.5-20.1l-2.2-78.1l-285,13.4
		l-20.7-31.2l-71.4-33.5c0,0-2.2-40.2-73.6-51.3h-91.5c0,0-31.2-22.3-69.2-31.2S714,40.3,696.1,15.7l-95.9,156.2v35.7
		c0,0-29,55.8-15.6,73.6c13.4,17.8,8.9,58,8.9,58s-8.9,58-84.8,84.8l-73.6,42.4c0,0-49.1,33.5-24.5,91.5l26.8,62.5l2.2,58
		l-35.9,22.3c0,0-28.8-2.2-42.2,15.6c-13.4,17.8-35.7,60.2-35.7,60.2L261,781l-46.9,15.6c0,0-35.7-20.1-109.3,0
		C31.2,816.7,0,810,0,810"/>
	<path class="st55" d="M681.5,39.5l52.5,40.9c0,0,6.7,49.1,22.3,53.5c15.6,4.5,40.2,31.2,64.7,26.8l91.5,60.2h37.9l40.2,93.7
		c0,0,29-20.1,37.9-15.6c8.9,4.5,69.2-15.6,33.5-89.2l37.9-22.3"/>
	<path class="st55" d="M1192.1,252.2l-27.4,73.6l80.4,91.5c0,0,15.7,22.3,0,35.7s-62.6,49.5-62.6,81.6s9.5,190.6,9.5,190.6
		s-9.5,28-56.4,33s-58,2.7-122.7,49.6l-22.3-22.3l24.5-27.3c0,0,11.2-1.7,22.3-24c11.2-22.3,11.2-104.9,11.2-104.9l-2.2-20.1
		l111.6-40.2"/>
	<path class="st55" d="M879.1,218.8l-46.9,13.4v82.6l-22.3,13.4l8.9,17.8h51.3l-2.2,26.8c0,0,16.6,8.9,22.8,22.3s35.2,0,35.2,0
		l26.8,22.3c0,0-62.5,136.1-71.4,140.6s-46.9,33.4-62.5,28.9s-8.9,51.4-8.9,51.4s17.8,26.8,8.9,66.9s-4.5,55.8,13.4,87l2.2,84.8
		l35.7-11.2c0,0,22.3,8.9,33.5,0c11.2-8.9,46.9-8.9,49.1-8.9c2.2,0,35.7-24.5,37.9-71.4"/>
	<path class="st55" d="M890.2,553.5l37.9,44.6h29l33.5-11.2c0,0-29-24.5-13.4-33.4c15.6-8.9,46.9-18.8,46.9-18.8l11.2-25.9
		l-8.9-37.9c0,0,33.5-29,42.4,0c8.9,29,42.4,102.6,42.4,102.6"/>
	<path class="st55" d="M957.7,414.5c19.2-5.8,32.2-14.5,40.9-23.2c17.4-26.1,43.5-34.8,56.5-60.9c4.3-17.4-17.4-17.4-26.5-31.4"/>
	<path class="st55" d="M424.9,687.5l16.9,15.4l11.2,40.2c0,0,6.7,20.1,22.3,26.8c15.6,6.7,4.5,44.6,24.5,51.3s17.8,22.3,46.9,26.8
		c29,4.5,89.2,29,98.2,29c8.9,0,36.7,11.2,36.7,11.2l128.4-26.8c0,0,23.1-40.6,23.1-40.3"/>
	<path class="st55" d="M479.7,1013.1c0,0,49.1,0,60.2,0s8.9-6.7,24.5-26.8c15.6-20.1,40.2-20.1,40.2-20.1v-55.8
		c0,0,11.2-24.5,64.7-22.3"/>
	<path class="st55" d="M975.8,832.8c0,0,14.9,17.4,24.9,44.2s0,42.4,0,42.4s-22,17.7-24.9,31.2"/>
	<path class="st55" d="M1013,950.5c0,0,44.6-46.8,62.5-49c17.8-2.2,24.5,32.1,24.5,32.1"/>
	<path class="st55" d="M1075.4,901.5l35.7-13.5h69.2l29-11h35.8c0,0,13.5-3.5,0-44.2"/>
	<line class="st55" x1="1183.4" y1="564.5" x2="1233.8" y2="615.9"/>
	<path class="st55" d="M1606.4,448.6h33.5l20.1-26.8h29l13.4,36.2l-33.5,30.7c0,0-42.4,82.6-14.5,127.2l30.1,26.8h17.8l22.3,20.1
		l29,15.6l33.5-8.9l33.5,8.9c0,0,35.8-6.7,46.9,0c11.1,6.7,8.9,11.5,58,9.1c49.1-2.4,78.1-22.5,78.1-22.5l49.1,13.4l40.2-15.6
		l24.5-24.5l22.3-22.3l26.8-29.1l33.5-13.3h60.2h93.7l20.1,16.7h62.5l-80.3,173"/>
	<path class="st55" d="M1163.2,891.7v41.9c0,0,47.8-4.9,70.6,0"/>
	<path class="st55" d="M1477,238.9h28.5l12.4-20.1l-12.4-41.7l-19.1-22l11-35.1l17.2,15.4l20.9-2.2l24.8-26.4c0,0-3,0,0-15.4h332.4
		l-25.3,73.7l-20.9,22.9l4.4,30.7l16.5,33.5l9.9,46.9l-19.8,46.8l-70.3,58l-85,54.1"/>
	<path class="st55" d="M1892.8,91.4h28.6h17.6l125.2,13.2h79.1c19.8,0,48.3-6.6,48.3-6.6"/>
</g>
<g id="IKORODU">
	<g>
		<g>
			<path class="st45" d="M1619.5,286.8h4.1v20.4h-4.1V286.8z"/>
			<path class="st45" d="M1627.6,285.6h4.1v12.3l5.4-6.9h5.3l-7.1,8.1l7.2,8.1h-5.3l-5.5-6.9v6.9h-4.1V285.6z"/>
			<path class="st45" d="M1651.9,307.5c-4.7,0-8.2-3.3-8.2-8.4c0-5.1,3.7-8.4,8.3-8.4c4.7,0,8.3,3.2,8.3,8.4
				C1660.3,304.2,1656.6,307.5,1651.9,307.5z M1651.9,303.9c2.2,0,4.2-1.6,4.2-4.8c0-3.2-2-4.8-4.2-4.8s-4.1,1.5-4.1,4.8
				C1647.8,302.3,1649.7,303.9,1651.9,303.9z"/>
			<path class="st45" d="M1667.4,307.2h-4.1V291h4.1v2.5c1-1.7,2.7-2.7,5-2.7v4.3h-1.1c-2.4,0-3.9,0.9-3.9,4.1V307.2z"/>
			<path class="st45" d="M1682.3,307.5c-4.7,0-8.2-3.3-8.2-8.4c0-5.1,3.7-8.4,8.3-8.4c4.7,0,8.3,3.2,8.3,8.4
				C1690.8,304.2,1687,307.5,1682.3,307.5z M1682.3,303.9c2.2,0,4.2-1.6,4.2-4.8c0-3.2-2-4.8-4.2-4.8s-4.1,1.5-4.1,4.8
				C1678.2,302.3,1680.1,303.9,1682.3,303.9z"/>
			<path class="st45" d="M1700.1,290.8c2.1,0,4.2,1,5.3,2.5v-7.7h4.1v21.6h-4.1v-2.4c-1,1.5-2.8,2.7-5.3,2.7c-4.1,0-7.4-3.4-7.4-8.4
				S1696,290.8,1700.1,290.8z M1701.2,294.4c-2.2,0-4.3,1.6-4.3,4.7c0,3.1,2.1,4.8,4.3,4.8c2.3,0,4.3-1.7,4.3-4.8
				C1705.5,296,1703.4,294.4,1701.2,294.4z"/>
			<path class="st45" d="M1728.9,307.2h-4.1v-2c-1,1.4-2.8,2.3-4.8,2.3c-3.8,0-6.5-2.5-6.5-6.9V291h4.1v8.9c0,2.6,1.4,4,3.6,4
				c2.2,0,3.6-1.4,3.6-4V291h4.1V307.2z"/>
		</g>
		<path class="st56" d="M1651.9,248.6l9.3-16.1h8.5v2.7h-6.9l-7.7,13.4H1651.9z M1673.4,235.2h6.9l7.7,13.4h3.1l-9.3-16.1h-8.5
			V235.2z M1688,252.3l-7.7,13.4h-6.9v2.7h8.5l9.3-16.1H1688z M1669.7,265.7h-6.9l-7.7-13.4h-3.1l9.3,16.1h8.5V265.7z"/>
		<polygon class="st56" points="1678.1,239.1 1665,239.1 1658.4,250.5 1665,261.8 1678.1,261.8 1684.6,250.5 		"/>
	</g>
	<g>
		<g>
			<path class="st45" d="M1583.7,816.4v17.2h6.7v3.2h-10.8v-20.4H1583.7z"/>
			<path class="st45" d="M1599.4,820.4c2.6,0,4.4,1.2,5.3,2.6v-2.3h4.1v16.2h-4.1v-2.4c-1,1.4-2.8,2.6-5.4,2.6
				c-4.1,0-7.4-3.4-7.4-8.4C1592,823.6,1595.2,820.4,1599.4,820.4z M1600.4,824c-2.2,0-4.3,1.6-4.3,4.7s2.1,4.8,4.3,4.8
				c2.3,0,4.3-1.7,4.3-4.8C1604.7,825.7,1602.7,824,1600.4,824z"/>
			<path class="st45" d="M1619.2,820.4c2.5,0,4.4,1.2,5.3,2.6v-2.3h4.1v16.3c0,4.4-2.7,7.9-8,7.9c-4.6,0-7.7-2.3-8.2-6h4.1
				c0.4,1.5,1.9,2.4,4,2.4c2.3,0,4-1.3,4-4.3v-2.5c-1,1.4-2.8,2.7-5.3,2.7c-4.1,0-7.4-3.4-7.4-8.4
				C1611.8,823.6,1615.1,820.4,1619.2,820.4z M1620.2,824c-2.2,0-4.3,1.6-4.3,4.7s2.1,4.8,4.3,4.8c2.3,0,4.3-1.7,4.3-4.8
				C1624.5,825.7,1622.5,824,1620.2,824z"/>
			<path class="st45" d="M1639.8,837.1c-4.7,0-8.2-3.3-8.2-8.4c0-5.1,3.7-8.4,8.3-8.4c4.7,0,8.3,3.2,8.3,8.4
				C1648.3,833.8,1644.5,837.1,1639.8,837.1z M1639.8,833.5c2.2,0,4.2-1.6,4.2-4.8c0-3.2-2-4.8-4.2-4.8s-4.1,1.5-4.1,4.8
				C1635.8,831.9,1637.6,833.5,1639.8,833.5z"/>
			<path class="st45" d="M1657.5,837.1c-4.1,0-6.9-2.4-7.1-5.4h4.1c0.1,1.2,1.3,2.2,2.9,2.2c1.6,0,2.5-0.7,2.5-1.7
				c0-2.9-9.1-1.1-9.1-7c0-2.7,2.4-4.9,6.4-4.9c3.9,0,6.3,2.1,6.5,5.3h-3.9c-0.1-1.3-1.1-2.1-2.7-2.1c-1.5,0-2.3,0.6-2.3,1.5
				c0,3,9,1.1,9.1,7C1663.9,835,1661.4,837.1,1657.5,837.1z"/>
			<path class="st45" d="M1674.2,816.4h4.1v20.4h-4.1V816.4z"/>
			<path class="st45" d="M1688.5,837.1c-4.1,0-6.9-2.4-7.1-5.4h4.1c0.1,1.2,1.3,2.2,2.9,2.2c1.6,0,2.5-0.7,2.5-1.7
				c0-2.9-9.1-1.1-9.1-7c0-2.7,2.4-4.9,6.4-4.9c3.9,0,6.3,2.1,6.5,5.3h-3.9c-0.1-1.3-1.1-2.1-2.7-2.1c-1.5,0-2.3,0.6-2.3,1.5
				c0,3,9,1.1,9.1,7C1694.9,835,1692.4,837.1,1688.5,837.1z"/>
			<path class="st45" d="M1698.2,815.2h4.1v21.6h-4.1V815.2z"/>
			<path class="st45" d="M1712.7,820.4c2.6,0,4.4,1.2,5.3,2.6v-2.3h4.1v16.2h-4.1v-2.4c-1,1.4-2.8,2.6-5.4,2.6
				c-4.1,0-7.4-3.4-7.4-8.4C1705.3,823.6,1708.6,820.4,1712.7,820.4z M1713.7,824c-2.2,0-4.3,1.6-4.3,4.7s2.1,4.8,4.3,4.8
				c2.3,0,4.3-1.7,4.3-4.8C1718,825.7,1716,824,1713.7,824z"/>
			<path class="st45" d="M1737.5,827.9c0-2.6-1.4-4-3.6-4c-2.2,0-3.7,1.4-3.7,4v8.9h-4.1v-16.2h4.1v2c1.1-1.4,2.8-2.3,4.9-2.3
				c3.8,0,6.5,2.5,6.5,6.9v9.5h-4.1V827.9z"/>
			<path class="st45" d="M1751.8,820.4c2.1,0,4.2,1,5.3,2.5v-7.7h4.1v21.6h-4.1v-2.4c-1,1.5-2.8,2.7-5.3,2.7c-4.1,0-7.4-3.4-7.4-8.4
				C1744.4,823.6,1747.7,820.4,1751.8,820.4z M1752.9,824c-2.2,0-4.3,1.6-4.3,4.7s2.1,4.8,4.3,4.8c2.3,0,4.3-1.7,4.3-4.8
				C1757.2,825.7,1755.1,824,1752.9,824z"/>
		</g>
		<path class="st56" d="M1649.5,778.2l9.3-16.1h8.5v2.7h-6.9l-7.7,13.4H1649.5z M1671,764.9h6.9l7.7,13.4h3.1l-9.3-16.1h-8.5V764.9z
			 M1685.7,781.9l-7.7,13.4h-6.9v2.7h8.5l9.3-16.1H1685.7z M1667.3,795.3h-6.9l-7.7-13.4h-3.1l9.3,16.1h8.5V795.3z"/>
		<polygon class="st56" points="1675.7,768.7 1662.6,768.7 1656.1,780.1 1662.6,791.4 1675.7,791.4 1682.3,780.1 		"/>
	</g>
	<g>
		<g>
			<path class="st45" d="M2120.4,367.9c-5.8,0-10.5-4.3-10.5-10.5c0-6.1,4.7-10.4,10.5-10.4c5.8,0,10.4,4.3,10.4,10.4
				C2130.9,363.6,2126.2,367.9,2120.4,367.9z M2120.4,364.2c3.7,0,6.2-2.7,6.2-6.8s-2.5-6.8-6.2-6.8c-3.7,0-6.3,2.6-6.3,6.8
				S2116.7,364.2,2120.4,364.2z"/>
			<path class="st45" d="M2140.2,351.2c2.5,0,4.4,1.2,5.3,2.6v-2.3h4.1v16.3c0,4.4-2.7,7.9-8,7.9c-4.6,0-7.7-2.3-8.2-6h4.1
				c0.4,1.5,1.9,2.4,4,2.4c2.3,0,4-1.3,4-4.3v-2.5c-1,1.4-2.8,2.7-5.3,2.7c-4.1,0-7.4-3.4-7.4-8.4S2136.1,351.2,2140.2,351.2z
				 M2141.3,354.8c-2.2,0-4.3,1.6-4.3,4.7c0,3.1,2.1,4.8,4.3,4.8c2.3,0,4.3-1.7,4.3-4.8C2145.6,356.5,2143.6,354.8,2141.3,354.8z"/>
			<path class="st45" d="M2169,367.7h-4.1v-2c-1,1.4-2.8,2.3-4.8,2.3c-3.8,0-6.5-2.5-6.5-6.9v-9.5h4.1v8.9c0,2.6,1.4,4,3.6,4
				c2.2,0,3.6-1.4,3.6-4v-8.9h4.1V367.7z"/>
			<path class="st45" d="M2184.4,358.7c0-2.6-1.4-4-3.6-4c-2.2,0-3.7,1.4-3.7,4v8.9h-4.1v-16.2h4.1v2c1.1-1.4,2.8-2.3,4.9-2.3
				c3.8,0,6.5,2.5,6.5,6.9v9.5h-4.1V358.7z"/>
			<path class="st45" d="M2206.3,367.9c-4.2,0-7.5-2.2-7.6-6.1h4.4c0.1,1.6,1.2,2.7,3.1,2.7c1.9,0,3.1-1,3.1-2.5
				c0-4.4-10.5-1.8-10.5-9.1c0-3.7,3-5.9,7.2-5.9c4.2,0,7,2.1,7.3,5.8h-4.5c-0.1-1.3-1.2-2.4-2.9-2.4c-1.6-0.1-2.8,0.7-2.8,2.4
				c0,4.1,10.5,1.8,10.5,9C2213.6,365,2211,367.9,2206.3,367.9z"/>
			<path class="st45" d="M2217.7,354.9h-1.9v-3.4h1.9v-4h4.1v4h3.6v3.4h-3.6v7.8c0,1.1,0.4,1.5,1.7,1.5h1.9v3.4h-2.6
				c-3.1,0-5.2-1.3-5.2-5V354.9z"/>
			<path class="st45" d="M2234.8,351.2c2.6,0,4.4,1.2,5.3,2.6v-2.3h4.1v16.2h-4.1v-2.4c-1,1.4-2.8,2.6-5.4,2.6
				c-4.1,0-7.4-3.4-7.4-8.4S2230.7,351.2,2234.8,351.2z M2235.8,354.8c-2.2,0-4.3,1.6-4.3,4.7c0,3.1,2.1,4.8,4.3,4.8
				c2.3,0,4.3-1.7,4.3-4.8C2240.1,356.5,2238.1,354.8,2235.8,354.8z"/>
			<path class="st45" d="M2248.9,354.9h-1.9v-3.4h1.9v-4h4.1v4h3.6v3.4h-3.6v7.8c0,1.1,0.4,1.5,1.7,1.5h1.9v3.4h-2.6
				c-3.1,0-5.2-1.3-5.2-5V354.9z"/>
			<path class="st45" d="M2266.7,367.9c-4.7,0-8.1-3.3-8.1-8.4c0-5.1,3.3-8.4,8.1-8.4c4.7,0,8,3.2,8,8c0,0.5,0,1.1-0.1,1.6h-11.8
				c0.2,2.4,1.8,3.7,3.9,3.7c1.8,0,2.7-0.9,3.2-2h4.4C2273.3,365.6,2270.7,367.9,2266.7,367.9z M2262.7,358.1h7.7
				c-0.1-2.1-1.8-3.5-3.9-3.5C2264.6,354.6,2263,355.9,2262.7,358.1z"/>
		</g>
		<path class="st56" d="M2173.8,309.1l9.3-16.1h8.5v2.7h-6.9l-7.7,13.4H2173.8z M2195.3,295.7h6.9l7.7,13.4h3.1l-9.3-16.1h-8.5
			V295.7z M2210,312.8l-7.7,13.4h-6.9v2.7h8.5l9.3-16.1H2210z M2191.6,326.2h-6.9l-7.7-13.4h-3.1l9.3,16.1h8.5V326.2z"/>
		<polygon class="st56" points="2200,299.6 2186.9,299.6 2180.4,310.9 2186.9,322.3 2200,322.3 2206.5,310.9 		"/>
	</g>
	<g>
		<g>
			<path class="st45" d="M877,705.6h4.1V726H877V705.6z"/>
			<path class="st45" d="M885.1,704.4h4.1v12.3l5.4-6.9h5.3l-7.1,8.1l7.2,8.1h-5.3l-5.5-6.9v6.9h-4.1V704.4z"/>
			<path class="st45" d="M909.2,726.3c-4.7,0-8.1-3.3-8.1-8.4c0-5.1,3.3-8.4,8.1-8.4c4.7,0,8,3.2,8,8c0,0.5,0,1.1-0.1,1.6h-11.8
				c0.2,2.4,1.8,3.7,3.9,3.7c1.8,0,2.7-0.9,3.2-2h4.4C915.9,723.9,913.3,726.3,909.2,726.3z M905.3,716.4h7.7
				c-0.1-2.1-1.8-3.5-3.9-3.5C907.2,712.9,905.6,714.2,905.3,716.4z"/>
			<path class="st45" d="M924.3,709.8v18.8c0,3.7-2,5.1-5.1,5.1h-1.8v-3.5h1.2c1.3,0,1.7-0.5,1.7-1.5v-18.9H924.3z M919.7,705.5
				c0-1.3,1.1-2.4,2.5-2.4c1.4,0,2.5,1.1,2.5,2.4c0,1.3-1.1,2.4-2.5,2.4C920.8,707.9,919.7,706.8,919.7,705.5z"/>
			<path class="st45" d="M934.7,709.6c2.6,0,4.4,1.2,5.3,2.6v-2.3h4.1V726H940v-2.4c-1,1.4-2.8,2.6-5.4,2.6c-4.1,0-7.4-3.4-7.4-8.4
				C927.3,712.8,930.5,709.6,934.7,709.6z M935.7,713.2c-2.2,0-4.3,1.6-4.3,4.7s2.1,4.8,4.3,4.8c2.3,0,4.3-1.7,4.3-4.8
				C940,714.8,938,713.2,935.7,713.2z"/>
		</g>
		<path class="st56" d="M894,667.4l9.3-16.1h8.5v2.7h-6.9l-7.7,13.4H894z M915.5,654h6.9l7.7,13.4h3.1l-9.3-16.1h-8.5V654z
			 M930.2,671.1l-7.7,13.4h-6.9v2.7h8.5l9.3-16.1H930.2z M911.8,684.5h-6.9l-7.7-13.4H894l9.3,16.1h8.5V684.5z"/>
		<polygon class="st56" points="920.2,657.9 907.1,657.9 900.6,669.3 907.1,680.6 920.2,680.6 926.8,669.3 		"/>
	</g>
	<g>
		<g>
			<path class="st45" d="M248.1,943.8h-8.8v-20.4h8.4c4.3,0,6.6,2.2,6.6,5.3c0,2.5-1.5,4-3.5,4.7c2.3,0.4,3.9,2.5,3.9,4.9
				C254.8,941.6,252.3,943.8,248.1,943.8z M247.1,926.8h-3.7v5.1h3.7c1.9,0,3-0.9,3-2.5C250.2,927.7,249.1,926.8,247.1,926.8z
				 M247.4,935h-4v5.5h4.1c2,0,3.2-1,3.2-2.7C250.7,936.1,249.4,935,247.4,935z"/>
			<path class="st45" d="M264.4,927.4c2.6,0,4.4,1.2,5.3,2.6v-2.3h4.1v16.2h-4.1v-2.4c-1,1.4-2.8,2.6-5.4,2.6
				c-4.1,0-7.4-3.4-7.4-8.4C257.1,930.6,260.3,927.4,264.4,927.4z M265.5,931c-2.2,0-4.3,1.6-4.3,4.7s2.1,4.8,4.3,4.8
				c2.3,0,4.3-1.7,4.3-4.8C269.8,932.7,267.7,931,265.5,931z"/>
			<path class="st45" d="M284.3,927.4c2.1,0,4.2,1,5.3,2.5v-7.7h4.1v21.6h-4.1v-2.4c-1,1.5-2.8,2.7-5.3,2.7c-4.1,0-7.4-3.4-7.4-8.4
				C276.9,930.6,280.1,927.4,284.3,927.4z M285.3,931c-2.2,0-4.3,1.6-4.3,4.7s2.1,4.8,4.3,4.8c2.3,0,4.3-1.7,4.3-4.8
				C289.6,932.7,287.6,931,285.3,931z"/>
			<path class="st45" d="M304.1,927.4c2.6,0,4.4,1.2,5.3,2.6v-2.3h4.1v16.2h-4.1v-2.4c-1,1.4-2.8,2.6-5.4,2.6
				c-4.1,0-7.4-3.4-7.4-8.4C296.7,930.6,299.9,927.4,304.1,927.4z M305.1,931c-2.2,0-4.3,1.6-4.3,4.7s2.1,4.8,4.3,4.8
				c2.3,0,4.3-1.7,4.3-4.8C309.4,932.7,307.4,931,305.1,931z"/>
			<path class="st45" d="M323.9,927.4c2.5,0,4.4,1.2,5.3,2.6v-2.3h4.1V944c0,4.4-2.7,7.9-8,7.9c-4.6,0-7.7-2.3-8.2-6h4.1
				c0.4,1.5,1.9,2.4,4,2.4c2.3,0,4-1.3,4-4.3v-2.5c-1,1.4-2.8,2.7-5.3,2.7c-4.1,0-7.4-3.4-7.4-8.4
				C316.5,930.6,319.8,927.4,323.9,927.4z M324.9,931c-2.2,0-4.3,1.6-4.3,4.7s2.1,4.8,4.3,4.8c2.3,0,4.3-1.7,4.3-4.8
				C329.2,932.7,327.2,931,324.9,931z"/>
			<path class="st45" d="M343.7,927.4c2.6,0,4.4,1.2,5.3,2.6v-2.3h4.1v16.2H349v-2.4c-1,1.4-2.8,2.6-5.4,2.6c-4.1,0-7.4-3.4-7.4-8.4
				C336.3,930.6,339.6,927.4,343.7,927.4z M344.7,931c-2.2,0-4.3,1.6-4.3,4.7s2.1,4.8,4.3,4.8c2.3,0,4.3-1.7,4.3-4.8
				C349,932.7,347,931,344.7,931z"/>
			<path class="st45" d="M361.2,943.8h-4.1v-16.2h4.1v2.5c1-1.7,2.7-2.7,5-2.7v4.3h-1.1c-2.4,0-3.9,0.9-3.9,4.1V943.8z"/>
			<path class="st45" d="M380.1,927.7h4.4l-10,23.8h-4.4l3.5-8.1l-6.5-15.8h4.6l4.2,11.3L380.1,927.7z"/>
		</g>
		<path class="st56" d="M293.2,885.3l9.3-16.1h8.5v2.7h-6.9l-7.7,13.4H293.2z M314.7,871.9h6.9l7.7,13.4h3.1l-9.3-16.1h-8.5V871.9z
			 M329.4,889l-7.7,13.4h-6.9v2.7h8.5l9.3-16.1H329.4z M311,902.3h-6.9l-7.7-13.4h-3.1l9.3,16.1h8.5V902.3z"/>
		<polygon class="st56" points="319.4,875.8 306.3,875.8 299.8,887.1 306.3,898.4 319.4,898.4 326,887.1 		"/>
	</g>
</g>
</svg>
