<svg width="1596" height="387" viewBox="0 0 1596 387" fill="none" xmlns="http://www.w3.org/2000/svg">
<path d="M592.5 205C595.2 181.7 580.8 166.5 557.5 165.4C533.7 164.3 511 169.9 488.2 175.6C485.3 176.3 482.3 176.7 477.6 177.6C482.4 163.4 486.5 150.8 491.1 138.4C491.8 136.4 494.2 134.1 496.2 133.7C526.5 127.4 557 123.8 587.7 129.7C605.8 133.2 621.8 141.5 633 157C643.9 172.1 647.9 189.5 645.7 207.5C641.6 241.8 636.2 276 630.9 310.2C630.4 313.5 627.4 317.5 624.4 319.3C603.7 331.5 580.2 335.3 557 337C532.8 338.8 508.5 338.4 485 329C446.2 313.4 435.5 259.3 466.7 231.4C483.1 216.6 503.3 209.8 524.6 207.8C545.7 205.8 567 206.1 588.3 205.4C589.5 205.5 590.7 205.2 592.5 205ZM566.1 238.3C563.2 238.3 560.3 237.7 557.6 238.4C544.3 241.6 530.5 243.6 518 248.9C506.8 253.7 502.9 265.9 505.2 277.9C507.5 289.6 516.2 295.4 526.6 296.4C539.6 297.8 553.1 298 566 296.3C582.6 294.1 582.4 293 584.7 276.3C585.4 271.3 586.2 266.3 586.8 261.3C589.5 238.2 589.5 238.2 566.1 238.3Z" fill="#253B5C"/>
<path d="M1240.2 246.7C1232.6 246.7 1228.3 246.7 1223.9 246.7C1184.1 246.7 1144.4 246.8 1104.6 246.9C1092.8 246.9 1092.1 247.8 1093.5 259.5C1096 280.7 1113.9 295.8 1136.8 297.5C1157.9 299.1 1178.2 295.9 1198.3 289.7C1202.2 288.5 1206.3 287.8 1212.2 286.5C1210.4 293.2 1209.1 298.8 1207.4 304.3C1200 329.3 1200.1 330.1 1174.1 334.6C1144.8 339.7 1115.5 340.7 1087.4 327.8C1057.2 313.9 1042.5 289 1040 257.3C1036 206.2 1056.2 166 1100.6 140C1112.7 132.9 1127.8 129.4 1141.9 127.9C1161 125.8 1180.4 125.2 1198.8 134.3C1223 146.3 1237.6 165.1 1240 191.7C1241.4 209.3 1240.2 227 1240.2 246.7ZM1146.3 212.2C1146.3 212.1 1146.3 212.1 1146.3 212.2C1159 212.2 1171.7 212.4 1184.3 212C1187 211.9 1191.6 209.3 1191.8 207.5C1193.8 188.9 1188.1 171.4 1166 165.3C1142.9 159 1110.6 175.9 1102 204.6C1099.9 211.5 1104.5 212.1 1109.2 212.1C1121.6 212.3 1133.9 212.2 1146.3 212.2Z" fill="#253B5C"/>
<path d="M102.9 132.8C85.7001 150 68.4001 167.1 51.3001 184.4C46.0001 189.8 40.3001 195 36.0001 201.1C34.5001 203.3 35.3001 209.3 37.2001 211.2C46.2001 220.2 56.4001 228 65.3001 237C76.4001 248.2 86.2001 260.6 97.2001 271.8C119.9 294.9 143.1 317.6 166.1 340.3C169.6 343.7 173.1 348.1 177.3 349.3C181.4 350.5 188.2 349.8 191 347.1C209.9 329 228 310 246.5 291.5C271.8 266.2 297.2 241 322.5 215.7C329.5 208.7 329.5 201.7 322.3 194.5C305.3 177.7 287.9 161.3 271.1 144.4C252.3 125.6 234 106.3 215.4 87.3C198.6 70.1 182.3 52.3 164.7 36C152.9 25 158.1 13.4 159 0C163.2 1.8 166.7 2.2 168.6 4.2C180.8 17 192.4 30.3 204.6 43.1C219.4 58.5 234.6 73.6 249.8 88.7C270.7 109.4 291.9 129.9 312.8 150.6C328.4 166.1 343.8 181.7 359.1 197.4C363.9 202.3 365.8 207.2 359.4 213.4C325.3 246.7 291.6 280.3 257.9 313.9C234.8 336.9 211.7 359.8 188.9 383C184 387.9 180.3 388.4 175.5 383.2C169.3 376.6 162.7 370.4 156.3 364C135.6 343.3 114.9 322.7 94.3001 302C73.9001 281.5 53.7001 260.8 33.2001 240.4C24.0001 231.2 14.2001 222.5 4.80012 213.5C0.100119 208.9 -1.29988 203.1 3.40012 198.4C24.7001 177.2 46.8001 156.8 67.7001 135.3C78.6001 124.1 90.2001 130 101.6 129.8C102 130.8 102.4 131.8 102.9 132.8Z" fill="#253B5C"/>
<path d="M1583.9 177C1570.2 173.3 1557.9 169.2 1545.3 166.7C1531.8 164 1518.3 164.2 1505.8 171.9C1495.4 178.3 1493.4 190.6 1503.4 197.9C1514.8 206.2 1527.7 212.5 1539.9 219.7C1557.1 230 1573.2 241.4 1576.5 263.2C1581.1 292.6 1563.6 319 1533.1 329.6C1499.8 341.2 1466.4 338.9 1432.9 331.1C1411.8 326.2 1411.8 325.8 1417.9 305.1C1423.7 285.4 1423.6 285.6 1443.5 291.5C1461.6 296.9 1480.2 299.2 1498.8 295.2C1504.5 294 1510.3 291.1 1514.8 287.5C1522.5 281.5 1523.1 270.8 1515.8 264.1C1509.1 258 1501 253.4 1493.3 248.4C1483 241.7 1472.3 235.6 1462.1 228.8C1432.4 209 1436.5 160.8 1471.9 140.6C1497.4 126.1 1524.7 125.8 1552.3 128.1C1564.8 129.1 1577 133.4 1589.3 136C1595.1 137.2 1596.4 140 1594.4 145.4C1590.8 155.8 1587.5 166.3 1583.9 177Z" fill="#253B5C"/>
<path d="M1357.1 125.1C1376 128.6 1394.8 132.1 1413.7 135.6C1419.6 136.7 1421.4 140 1419.3 145.9C1416.4 153.9 1413.6 162.1 1411.3 170.3C1409.6 176.3 1407 177 1400.9 175.5C1384.7 171.6 1368.4 167.8 1351.9 166.1C1345 165.4 1336.8 168.5 1330.5 172.2C1319.7 178.5 1319.1 192.1 1329.4 199.2C1340.8 207 1353.5 213.1 1365.5 220.2C1381.3 229.6 1395.7 240.2 1400.7 259.4C1406.3 281 1397.3 305.4 1379 318.2C1352.8 336.7 1323.1 339.6 1292.6 336.7C1276.3 335.2 1260.3 330.6 1244.2 327.4C1238.2 326.2 1236.5 323.1 1238.9 317.1C1242.2 308.9 1245 300.4 1247.5 291.9C1249.3 285.7 1251.9 285 1257.8 287.4C1278.1 295.6 1299.1 299.7 1320.9 295.4C1325.8 294.4 1330.8 293 1335.2 290.6C1348.5 283.4 1350 269.8 1337.7 260.7C1327.6 253.2 1315.9 247.9 1305.1 241.3C1299.1 237.7 1293.6 233.4 1287.8 229.6C1259.7 210.8 1261.9 165.1 1290.2 145.3C1310.3 131.2 1332.6 126.4 1356.7 127.5C1356.8 126.6 1357 125.9 1357.1 125.1Z" fill="#253B5C"/>
<path d="M831.4 290.1C827.6 302.4 823.9 315.2 819.5 327.6C818.6 330.2 814.8 333 812 333.4C787.8 337.2 763.3 340.5 739.1 335.2C698.4 326.3 671.3 302.3 665.9 257.3C661.1 217.7 674.1 183.4 703.7 156C722.6 138.5 745.7 129.6 770.8 127.8C796.4 126 822.2 126.2 847.1 135C854.5 137.6 856.6 140.7 853.5 148.1C850.3 155.7 848 163.6 845.7 171.5C844.2 176.6 842 177.4 836.7 176.4C821.6 173.5 806.3 169.8 791 169.8C741.4 169.7 709 223 731.9 266.9C741.8 285.9 759.5 295.1 780.4 295.1C796.9 295.1 813.6 291.9 831.4 290.1Z" fill="#253B5C"/>
<path d="M1019.5 289.8C1015.2 302.9 1011.5 316.9 1005.8 330C1004.4 333.1 996.4 334 991.3 334.6C969 337.6 946.7 339.2 924.2 334.1C875.2 323 853 288.4 853 244C853 197.9 873.8 162 915.1 140.3C927.7 133.7 942.5 129.7 956.7 128.3C982.9 125.6 1009.2 126.3 1034.7 135C1042.1 137.5 1044 140.9 1041.1 148C1038.9 153.3 1037.5 158.8 1035.8 164.2C1031 179 1031 179 1016.2 174.1C998 168.1 979.7 167.4 961.1 172.5C929.8 181.1 910.3 210.8 912.4 243.2C914.5 275.5 945.2 296.9 970.8 295.3C986.6 294.3 1002.3 291.8 1019.5 289.8Z" fill="#253B5C"/>
<path d="M162.3 54C169.8 62 177 70.1 184.7 77.9C195.3 88.6 206.4 99 217.1 109.7C241.1 133.8 265 158 289 182.1C294.6 187.7 300.3 193.2 306.3 198.4C311.5 203 311.5 206.4 306.3 211.5C280.5 236.8 255.1 262.4 229.6 287.9C215.5 302 201.2 316 187.2 330.3C183.4 334.2 181 334.3 177.1 330.4C165.6 318.8 153.7 307.8 142.2 296.3C114.7 268.9 87.2001 241.4 59.8001 213.8C57.2001 211.1 54.9001 208.1 50.9001 203.5C66.4001 188.6 81.7001 174 96.9001 159.3C104.1 152.3 111.1 145.2 117.7 137.7C123.5 131.1 130 127.6 139.1 128.8C144.4 129.5 149.8 128.9 155.2 128.9C155.8 129.8 156.5 130.7 157.1 131.5C150.8 138.3 144.8 145.2 138.3 151.8C123.4 166.9 108.3 181.7 93.3001 196.7C87.3001 202.8 87.5001 209 93.5001 215C120 241.1 146.4 267.1 172.9 293.3C178.1 298.4 185.9 299.1 190.8 294.3C210.6 274.5 230.3 254.7 250 234.9C257.5 227.3 264.7 219.4 272.4 212C277.3 207.3 276.6 203.3 272.3 199C241 167.9 209.4 137 178.5 105.4C170.1 96.8 162.6 86.7 157 76.1C154.3 70.8 157 62.7 157.2 55.8C158.8 55.1 160.5 54.6 162.3 54Z" fill="#253B5C"/>
<path d="M181.2 128.9C205.3 152.9 228.7 176.3 252.3 199.4C257.3 204.3 256.1 207.9 251.7 212.2C231.7 232 211.8 251.8 191.8 271.7C182.3 281.1 182.4 281.1 172.8 271.7C154.7 254 136.7 236.2 118.4 218.7C105.3 206.2 104.8 205.2 117.2 192C124.6 184.1 133.1 177.1 140.8 169.5C154.2 156.4 167.4 142.9 181.2 128.9ZM137.1 201.5C138.2 202.8 139.3 204.1 140.5 205.4C141.1 206.5 141.5 207.8 142.3 208.6C154.1 220.5 165.7 232.5 177.9 243.9C179.4 245.3 185.1 244.6 187 242.8C197.4 233.1 206.9 222.4 217.5 212.9C224.3 206.8 222.7 202.3 217.5 197.1C207.7 187.3 198.2 177.2 187.9 168.1C185.7 166.2 179.1 166.1 176.7 168C163.1 178.6 150.3 190.2 137.1 201.5Z" fill="#253B5C"/>
</svg>
