<svg width="318" height="133" viewBox="0 0 318 133" fill="none" xmlns="http://www.w3.org/2000/svg">
<path d="M77.8093 93.5908L60.934 65.2143L1.00024 127.304L59.2483 87.1496L77.8093 93.5908Z" fill="#253B5C" stroke="#253B5C"/>
<path d="M19 95L61 2L119 132.5L61 46L19 95Z" fill="#253B5C" stroke="#253B5C"/>
<path d="M132.734 52.7266H123.488L121.73 58H116.123L125.65 32.4062H130.537L140.117 58H134.51L132.734 52.7266ZM124.912 48.4551H131.311L128.094 38.875L124.912 48.4551ZM142.508 58V32.4062H150.383C152.633 32.4062 154.643 32.916 156.412 33.9355C158.193 34.9434 159.582 36.3848 160.578 38.2598C161.574 40.123 162.072 42.2441 162.072 44.623V45.8008C162.072 48.1797 161.58 50.2949 160.596 52.1465C159.623 53.998 158.246 55.4336 156.465 56.4531C154.684 57.4727 152.674 57.9883 150.436 58H142.508ZM147.781 36.6777V53.7637H150.33C152.393 53.7637 153.969 53.0898 155.059 51.7422C156.148 50.3945 156.705 48.4668 156.729 45.959V44.6055C156.729 42.0039 156.189 40.0352 155.111 38.6992C154.033 37.3516 152.457 36.6777 150.383 36.6777H147.781ZM174.693 41.2305L179.492 32.4062H185.557L178.104 45.0977L185.75 58H179.615L174.693 49.0352L169.771 58H163.637L171.283 45.0977L163.83 32.4062H169.895L174.693 41.2305ZM217.479 49.4746C217.279 52.2285 216.26 54.3965 214.42 55.9785C212.592 57.5605 210.178 58.3516 207.178 58.3516C203.896 58.3516 201.312 57.25 199.426 55.0469C197.551 52.832 196.613 49.7969 196.613 45.9414V44.377C196.613 41.916 197.047 39.748 197.914 37.873C198.781 35.998 200.018 34.5625 201.623 33.5664C203.24 32.5586 205.115 32.0547 207.248 32.0547C210.201 32.0547 212.58 32.8457 214.385 34.4277C216.189 36.0098 217.232 38.2305 217.514 41.0898H212.24C212.111 39.4375 211.648 38.2422 210.852 37.5039C210.066 36.7539 208.865 36.3789 207.248 36.3789C205.49 36.3789 204.172 37.0117 203.293 38.2773C202.426 39.5312 201.98 41.4824 201.957 44.1309V46.0645C201.957 48.8301 202.373 50.8516 203.205 52.1289C204.049 53.4062 205.373 54.0449 207.178 54.0449C208.807 54.0449 210.02 53.6758 210.816 52.9375C211.625 52.1875 212.088 51.0332 212.205 49.4746H217.479ZM230.416 48.6309H226.215V58H220.941V32.4062H230.451C233.475 32.4062 235.807 33.0801 237.447 34.4277C239.088 35.7754 239.908 37.6797 239.908 40.1406C239.908 41.8867 239.527 43.3457 238.766 44.5176C238.016 45.6777 236.873 46.6035 235.338 47.2949L240.875 57.7539V58H235.215L230.416 48.6309ZM226.215 44.3594H230.469C231.793 44.3594 232.818 44.0254 233.545 43.3574C234.271 42.6777 234.635 41.7461 234.635 40.5625C234.635 39.3555 234.289 38.4062 233.598 37.7148C232.918 37.0234 231.869 36.6777 230.451 36.6777H226.215V44.3594ZM259.332 46.9082H249.207V53.7637H261.09V58H243.934V32.4062H261.055V36.6777H249.207V42.7773H259.332V46.9082ZM264.184 58V32.4062H272.059C274.309 32.4062 276.318 32.916 278.088 33.9355C279.869 34.9434 281.258 36.3848 282.254 38.2598C283.25 40.123 283.748 42.2441 283.748 44.623V45.8008C283.748 48.1797 283.256 50.2949 282.271 52.1465C281.299 53.998 279.922 55.4336 278.141 56.4531C276.359 57.4727 274.35 57.9883 272.111 58H264.184ZM269.457 36.6777V53.7637H272.006C274.068 53.7637 275.645 53.0898 276.734 51.7422C277.824 50.3945 278.381 48.4668 278.404 45.959V44.6055C278.404 42.0039 277.865 40.0352 276.787 38.6992C275.709 37.3516 274.133 36.6777 272.059 36.6777H269.457ZM293.205 58H287.932V32.4062H293.205V58ZM316.848 36.6777H309.008V58H303.734V36.6777H296V32.4062H316.848V36.6777ZM159.418 95.7637H170.615V100H154.145V74.4062H159.418V95.7637ZM179.264 100H173.99V74.4062H179.264V100ZM191.059 74.4062L197.633 92.9688L204.172 74.4062H211.098V100H205.807V93.0039L206.334 80.9277L199.426 100H195.805L188.914 80.9453L189.441 93.0039V100H184.168V74.4062H191.059ZM221.311 100H216.037V74.4062H221.311V100ZM244.953 78.6777H237.113V100H231.84V78.6777H224.105V74.4062H244.953V78.6777ZM263.375 88.9082H253.25V95.7637H265.133V100H247.977V74.4062H265.098V78.6777H253.25V84.7773H263.375V88.9082ZM268.227 100V74.4062H276.102C278.352 74.4062 280.361 74.916 282.131 75.9355C283.912 76.9434 285.301 78.3848 286.297 80.2598C287.293 82.123 287.791 84.2441 287.791 86.623V87.8008C287.791 90.1797 287.299 92.2949 286.314 94.1465C285.342 95.998 283.965 97.4336 282.184 98.4531C280.402 99.4727 278.393 99.9883 276.154 100H268.227ZM273.5 78.6777V95.7637H276.049C278.111 95.7637 279.688 95.0898 280.777 93.7422C281.867 92.3945 282.424 90.4668 282.447 87.959V86.6055C282.447 84.0039 281.908 82.0352 280.83 80.6992C279.752 79.3516 278.176 78.6777 276.102 78.6777H273.5Z" fill="#253B5C"/>
</svg>
