<svg width="545" height="147" viewBox="0 0 545 147" fill="none" xmlns="http://www.w3.org/2000/svg">
<path d="M38.2961 73.5C38.2961 39.7776 60.1603 11.365 90.016 2.70152C83.9102 0.931559 77.4901 0 70.8904 0C31.7413 0 0 32.884 0 73.5C0 114.116 31.6964 147 70.8455 147C77.4901 147 83.9102 146.068 89.9712 144.298C60.1604 135.588 38.2961 107.176 38.2961 73.5Z" fill="#253B5C"/>
<path d="M177.114 73.5C177.114 37.4021 150.491 7.82514 116.504 4.65784C109.77 5.30993 103.305 6.94016 97.2441 9.54852C121.533 19.8888 138.593 44.6217 138.593 73.5466C138.593 102.472 121.533 127.158 97.2441 137.498C103.26 140.06 109.725 141.737 116.504 142.389C150.491 139.175 177.114 109.551 177.114 73.5Z" fill="#253B5C"/>
<path d="M103.305 7.26624C101.285 7.91833 99.3094 8.617 97.3789 9.4554C98.8605 10.1075 100.297 10.8062 101.689 11.5514C123.598 22.8698 138.638 46.3451 138.638 73.4535C138.638 100.562 123.598 124.037 101.689 135.356C100.297 136.101 98.8605 136.8 97.3789 137.452C99.3094 138.29 101.285 138.989 103.305 139.641C126.516 127.344 142.454 102.285 142.454 73.4535C142.454 44.6218 126.516 19.5628 103.305 7.26624Z" fill="#253B5C"/>
<path d="M109.141 0C70.0372 0 38.2959 32.884 38.2959 73.5C38.2959 114.116 70.0372 147 109.141 147C148.246 147 179.987 114.116 179.987 73.5C179.987 32.884 148.246 0 109.141 0ZM109.141 142.622C72.3269 142.622 42.4712 111.647 42.4712 73.4534C42.4712 35.2595 72.3269 4.33175 109.141 4.33175C145.956 4.33175 175.812 35.3061 175.812 73.5C175.812 111.694 145.956 142.622 109.141 142.622Z" fill="#253B5C"/>
<path d="M101.599 32.0922C108.783 32.0456 115.562 33.4429 121.982 36.7966C123.598 37.635 124.227 38.4268 123.239 40.3365C121.488 43.7833 120.006 47.3698 118.39 50.8631C117.088 53.6112 116.145 53.9372 113.586 52.5865C104.428 47.8355 95.224 48.2082 86.1999 52.866C81.7552 55.1483 78.5677 58.9211 76.278 63.4392C72.5516 70.7985 70.7558 78.577 71.8333 86.8679C72.9557 95.4382 78.6574 100.934 87.0081 101.819C93.6975 102.565 100.163 101.773 106.403 99.1644C108.199 98.4192 109.636 99.2576 109.86 101.214C110.264 104.8 110.533 108.387 110.938 111.973C111.072 113.371 110.668 114.349 109.366 114.721C104.742 116.072 100.163 117.749 95.4934 118.541C87.8162 119.892 80.0941 119.379 72.5067 117.144C59.7114 113.371 50.7772 101.726 50.1486 87.8926C49.3854 71.0314 54.6382 56.6388 66.5805 45.134C73.9434 38.0542 82.8776 34.0485 92.8894 32.8374C95.8076 32.558 98.7259 32.3717 101.599 32.0922Z" fill="#253B5C"/>
<path d="M227.082 57.7414L218.019 59.3773C217.713 57.5669 217.015 56.2036 215.925 55.2875C214.856 54.3714 213.46 53.9133 211.737 53.9133C209.446 53.9133 207.614 54.7095 206.24 56.3018C204.888 57.8723 204.211 60.5116 204.211 64.2197C204.211 68.3422 204.898 71.2541 206.273 72.9555C207.669 74.6569 209.534 75.5075 211.867 75.5075C213.612 75.5075 215.041 75.0168 216.154 74.0352C217.266 73.0318 218.051 71.3196 218.509 68.8984L227.54 70.4362C226.602 74.5805 224.802 77.7106 222.141 79.8264C219.48 81.9422 215.914 83.0001 211.442 83.0001C206.36 83.0001 202.303 81.3969 199.271 78.1905C196.261 74.984 194.756 70.5452 194.756 64.874C194.756 59.1374 196.272 54.6767 199.304 51.4921C202.335 48.2857 206.436 46.6825 211.606 46.6825C215.837 46.6825 219.196 47.5986 221.683 49.4309C224.191 51.2413 225.991 54.0115 227.082 57.7414ZM240.954 58.0686L232.611 56.5635C233.549 53.2044 235.163 50.7178 237.453 49.1037C239.744 47.4896 243.146 46.6825 247.662 46.6825C251.762 46.6825 254.816 47.1733 256.823 48.1549C258.829 49.1146 260.236 50.347 261.043 51.852C261.872 53.3353 262.287 56.0727 262.287 60.0644L262.189 70.7961C262.189 73.8498 262.33 76.1074 262.614 77.5688C262.919 79.0084 263.475 80.5571 264.283 82.2148H255.187C254.947 81.6041 254.652 80.6989 254.303 79.4992C254.151 78.9539 254.042 78.594 253.976 78.4195C252.406 79.9464 250.726 81.0915 248.938 81.8549C247.149 82.6184 245.24 83.0001 243.212 83.0001C239.635 83.0001 236.81 82.0294 234.738 80.0881C232.687 78.1468 231.662 75.693 231.662 72.7265C231.662 70.7634 232.131 69.0184 233.069 67.4915C234.007 65.9428 235.316 64.765 236.995 63.9579C238.697 63.129 241.14 62.4092 244.324 61.7985C248.621 60.9914 251.599 60.2389 253.256 59.5409V58.6248C253.256 56.858 252.82 55.6038 251.948 54.8622C251.075 54.0987 249.428 53.717 247.007 53.717C245.371 53.717 244.095 54.0442 243.179 54.6986C242.263 55.3311 241.521 56.4545 240.954 58.0686ZM253.256 65.5284C252.079 65.921 250.214 66.39 247.662 66.9353C245.109 67.4806 243.441 68.015 242.656 68.5385C241.456 69.3892 240.856 70.4689 240.856 71.7776C240.856 73.0646 241.336 74.177 242.296 75.1149C243.255 76.0529 244.477 76.5218 245.96 76.5218C247.618 76.5218 249.199 75.9765 250.704 74.8859C251.817 74.057 252.548 73.0427 252.897 71.8431C253.136 71.0578 253.256 69.5637 253.256 67.3606V65.5284ZM271.121 47.4678H279.693V52.5719C280.805 50.8269 282.31 49.4091 284.208 48.3184C286.106 47.2278 288.211 46.6825 290.523 46.6825C294.558 46.6825 297.983 48.2639 300.796 51.4267C303.61 54.5895 305.017 58.9956 305.017 64.645C305.017 70.4471 303.599 74.9622 300.764 78.1905C297.928 81.3969 294.493 83.0001 290.457 83.0001C288.538 83.0001 286.793 82.6184 285.222 81.8549C283.674 81.0915 282.038 79.7828 280.315 77.9287V95.4331H271.121V47.4678ZM280.216 64.2524C280.216 68.1568 280.991 71.0469 282.539 72.9228C284.088 74.7768 285.975 75.7039 288.2 75.7039C290.337 75.7039 292.115 74.8532 293.533 73.1518C294.951 71.4286 295.66 68.6148 295.66 64.7104C295.66 61.0678 294.929 58.363 293.467 56.5962C292.006 54.8294 290.196 53.946 288.036 53.946C285.79 53.946 283.925 54.8185 282.441 56.5635C280.958 58.2867 280.216 60.8496 280.216 64.2524ZM312.346 42.7563V34.2495H321.54V42.7563H312.346ZM312.346 82.2148V47.4678H321.54V82.2148H312.346ZM346.93 47.4678V54.7967H340.648V68.8002C340.648 71.6359 340.702 73.2936 340.811 73.7735C340.942 74.2315 341.215 74.6132 341.629 74.9186C342.065 75.224 342.589 75.3767 343.2 75.3767C344.05 75.3767 345.283 75.0822 346.897 74.4933L347.682 81.6259C345.544 82.542 343.123 83.0001 340.419 83.0001C338.761 83.0001 337.267 82.7274 335.936 82.1821C334.606 81.615 333.624 80.8952 332.991 80.0227C332.381 79.1284 331.955 77.9287 331.715 76.4237C331.519 75.3549 331.421 73.1954 331.421 69.9454V54.7967H327.2V47.4678H331.421V40.5642L340.648 35.1983V47.4678H346.93ZM360.181 58.0686L351.837 56.5635C352.775 53.2044 354.389 50.7178 356.68 49.1037C358.97 47.4896 362.373 46.6825 366.888 46.6825C370.989 46.6825 374.042 47.1733 376.049 48.1549C378.056 49.1146 379.463 50.347 380.27 51.852C381.099 53.3353 381.513 56.0727 381.513 60.0644L381.415 70.7961C381.415 73.8498 381.557 76.1074 381.84 77.5688C382.146 79.0084 382.702 80.5571 383.509 82.2148H374.413C374.173 81.6041 373.879 80.6989 373.53 79.4992C373.377 78.9539 373.268 78.594 373.203 78.4195C371.632 79.9464 369.952 81.0915 368.164 81.8549C366.375 82.6184 364.467 83.0001 362.438 83.0001C358.861 83.0001 356.036 82.0294 353.964 80.0881C351.914 78.1468 350.888 75.693 350.888 72.7265C350.888 70.7634 351.357 69.0184 352.295 67.4915C353.233 65.9428 354.542 64.765 356.222 63.9579C357.923 63.129 360.366 62.4092 363.551 61.7985C367.848 60.9914 370.825 60.2389 372.483 59.5409V58.6248C372.483 56.858 372.046 55.6038 371.174 54.8622C370.301 54.0987 368.655 53.717 366.233 53.717C364.598 53.717 363.322 54.0442 362.405 54.6986C361.489 55.3311 360.748 56.4545 360.181 58.0686ZM372.483 65.5284C371.305 65.921 369.44 66.39 366.888 66.9353C364.336 67.4806 362.667 68.015 361.882 68.5385C360.682 69.3892 360.082 70.4689 360.082 71.7776C360.082 73.0646 360.562 74.177 361.522 75.1149C362.482 76.0529 363.703 76.5218 365.186 76.5218C366.844 76.5218 368.426 75.9765 369.931 74.8859C371.043 74.057 371.774 73.0427 372.123 71.8431C372.363 71.0578 372.483 69.5637 372.483 67.3606V65.5284ZM390.609 82.2148V34.2495H399.803V82.2148H390.609ZM415.737 82.2148L404.743 47.4678H413.675L420.186 70.2399L426.174 47.4678H435.041L440.832 70.2399L447.474 47.4678H456.537L445.38 82.2148H436.546L430.558 59.8681L424.669 82.2148H415.737ZM481.534 71.156L490.695 72.6938C489.517 76.0529 487.652 78.6158 485.1 80.3826C482.57 82.1276 479.396 83.0001 475.579 83.0001C469.537 83.0001 465.065 81.0261 462.164 77.078C459.874 73.9152 458.729 69.9236 458.729 65.1031C458.729 59.3446 460.234 54.8403 463.244 51.5903C466.254 48.3184 470.06 46.6825 474.663 46.6825C479.832 46.6825 483.911 48.3948 486.899 51.8193C489.888 55.2221 491.316 60.4461 491.186 67.4915H468.152C468.217 70.2181 468.959 72.3448 470.377 73.8716C471.794 75.3767 473.561 76.1292 475.677 76.1292C477.117 76.1292 478.327 75.7366 479.309 74.9513C480.29 74.1661 481.032 72.901 481.534 71.156ZM482.057 61.8639C481.992 59.2028 481.305 57.1852 479.996 55.811C478.687 54.415 477.095 53.717 475.219 53.717C473.212 53.717 471.554 54.4477 470.246 55.9091C468.937 57.3706 468.293 59.3555 468.315 61.8639H482.057ZM498.318 82.2148V34.2495H507.512V51.5249C510.348 48.2966 513.707 46.6825 517.589 46.6825C521.821 46.6825 525.322 48.2203 528.092 51.2958C530.862 54.3496 532.247 58.7448 532.247 64.4814C532.247 70.4144 530.829 74.984 527.994 78.1905C525.18 81.3969 521.756 83.0001 517.72 83.0001C515.735 83.0001 513.772 82.5093 511.831 81.5278C509.911 80.5244 508.254 79.0521 506.858 77.1108V82.2148H498.318ZM507.447 64.0888C507.447 67.6878 508.014 70.3489 509.148 72.0721C510.74 74.5151 512.856 75.7366 515.495 75.7366C517.524 75.7366 519.247 74.875 520.665 73.1518C522.105 71.4068 522.824 68.6694 522.824 64.9395C522.824 60.9696 522.105 58.1122 520.665 56.3672C519.225 54.6004 517.382 53.717 515.136 53.717C512.932 53.717 511.1 54.5786 509.639 56.3018C508.177 58.0031 507.447 60.5988 507.447 64.0888ZM194.347 121.215V97.2322H201.594L205.945 113.591L210.248 97.2322H217.511V121.215H213.013V102.336L208.252 121.215H203.59L198.846 102.336V121.215H194.347ZM225.724 109.142L221.552 108.389C222.021 106.71 222.828 105.466 223.973 104.659C225.118 103.852 226.82 103.449 229.077 103.449C231.128 103.449 232.655 103.694 233.658 104.185C234.661 104.665 235.365 105.281 235.768 106.033C236.183 106.775 236.39 108.144 236.39 110.14L236.341 115.505C236.341 117.032 236.412 118.161 236.554 118.892C236.706 119.612 236.984 120.386 237.388 121.215H232.84C232.72 120.909 232.573 120.457 232.398 119.857C232.322 119.584 232.267 119.404 232.235 119.317C231.45 120.081 230.61 120.653 229.715 121.035C228.821 121.417 227.867 121.607 226.853 121.607C225.064 121.607 223.652 121.122 222.616 120.151C221.59 119.181 221.078 117.954 221.078 116.471C221.078 115.489 221.312 114.617 221.781 113.853C222.25 113.079 222.905 112.49 223.744 112.086C224.595 111.672 225.816 111.312 227.409 111.007C229.557 110.603 231.046 110.227 231.875 109.878V109.42C231.875 108.536 231.657 107.909 231.22 107.538C230.784 107.157 229.961 106.966 228.75 106.966C227.932 106.966 227.294 107.13 226.836 107.457C226.378 107.773 226.007 108.335 225.724 109.142ZM231.875 112.872C231.286 113.068 230.353 113.302 229.077 113.575C227.801 113.848 226.967 114.115 226.574 114.377C225.975 114.802 225.675 115.342 225.675 115.996C225.675 116.64 225.915 117.196 226.395 117.665C226.874 118.134 227.485 118.368 228.227 118.368C229.056 118.368 229.846 118.096 230.599 117.55C231.155 117.136 231.52 116.629 231.695 116.029C231.815 115.636 231.875 114.889 231.875 113.788V112.872ZM256.741 121.215H252.144V112.348C252.144 110.472 252.046 109.262 251.85 108.716C251.653 108.16 251.331 107.729 250.884 107.424C250.448 107.119 249.919 106.966 249.297 106.966C248.501 106.966 247.787 107.184 247.154 107.62C246.522 108.057 246.086 108.635 245.846 109.354C245.617 110.074 245.502 111.405 245.502 113.346V121.215H240.905V103.841H245.175V106.393C246.691 104.43 248.599 103.449 250.901 103.449C251.915 103.449 252.842 103.634 253.682 104.005C254.522 104.365 255.154 104.828 255.579 105.395C256.016 105.963 256.316 106.606 256.479 107.326C256.654 108.046 256.741 109.076 256.741 110.418V121.215ZM264.855 109.142L260.684 108.389C261.152 106.71 261.96 105.466 263.105 104.659C264.25 103.852 265.951 103.449 268.209 103.449C270.259 103.449 271.786 103.694 272.789 104.185C273.793 104.665 274.496 105.281 274.9 106.033C275.314 106.775 275.521 108.144 275.521 110.14L275.472 115.505C275.472 117.032 275.543 118.161 275.685 118.892C275.838 119.612 276.116 120.386 276.519 121.215H271.971C271.851 120.909 271.704 120.457 271.53 119.857C271.453 119.584 271.399 119.404 271.366 119.317C270.581 120.081 269.741 120.653 268.847 121.035C267.952 121.417 266.998 121.607 265.984 121.607C264.195 121.607 262.783 121.122 261.747 120.151C260.722 119.181 260.209 117.954 260.209 116.471C260.209 115.489 260.444 114.617 260.913 113.853C261.382 113.079 262.036 112.49 262.876 112.086C263.726 111.672 264.948 111.312 266.54 111.007C268.689 110.603 270.177 110.227 271.006 109.878V109.42C271.006 108.536 270.788 107.909 270.352 107.538C269.916 107.157 269.092 106.966 267.882 106.966C267.064 106.966 266.426 107.13 265.968 107.457C265.51 107.773 265.139 108.335 264.855 109.142ZM271.006 112.872C270.417 113.068 269.485 113.302 268.209 113.575C266.933 113.848 266.098 114.115 265.706 114.377C265.106 114.802 264.806 115.342 264.806 115.996C264.806 116.64 265.046 117.196 265.526 117.665C266.006 118.134 266.616 118.368 267.358 118.368C268.187 118.368 268.978 118.096 269.73 117.55C270.286 117.136 270.652 116.629 270.826 116.029C270.946 115.636 271.006 114.889 271.006 113.788V112.872ZM279.644 122.36L284.895 122.998C284.982 123.609 285.184 124.029 285.501 124.258C285.937 124.585 286.624 124.748 287.562 124.748C288.761 124.748 289.661 124.568 290.261 124.209C290.665 123.969 290.97 123.581 291.177 123.047C291.319 122.665 291.39 121.962 291.39 120.937V118.401C290.016 120.277 288.282 121.215 286.188 121.215C283.854 121.215 282.005 120.228 280.642 118.254C279.573 116.694 279.039 114.753 279.039 112.43C279.039 109.518 279.737 107.293 281.133 105.755C282.539 104.218 284.284 103.449 286.368 103.449C288.516 103.449 290.288 104.392 291.684 106.279V103.841H295.987V119.432C295.987 121.482 295.818 123.014 295.48 124.029C295.142 125.043 294.667 125.839 294.056 126.417C293.446 126.995 292.628 127.448 291.603 127.775C290.588 128.102 289.301 128.266 287.742 128.266C284.797 128.266 282.709 127.759 281.476 126.744C280.244 125.741 279.628 124.465 279.628 122.916C279.628 122.764 279.633 122.578 279.644 122.36ZM283.75 112.168C283.75 114.011 284.105 115.364 284.813 116.225C285.533 117.076 286.417 117.501 287.464 117.501C288.587 117.501 289.536 117.065 290.31 116.193C291.084 115.309 291.472 114.006 291.472 112.283C291.472 110.483 291.101 109.147 290.359 108.275C289.618 107.402 288.68 106.966 287.545 106.966C286.444 106.966 285.533 107.397 284.813 108.258C284.105 109.109 283.75 110.412 283.75 112.168ZM310.612 115.685L315.193 116.454C314.604 118.134 313.671 119.415 312.395 120.299C311.13 121.171 309.543 121.607 307.635 121.607C304.614 121.607 302.378 120.62 300.927 118.646C299.782 117.065 299.21 115.069 299.21 112.659C299.21 109.78 299.962 107.528 301.467 105.903C302.972 104.267 304.875 103.449 307.177 103.449C309.761 103.449 311.801 104.305 313.295 106.017C314.789 107.718 315.503 110.33 315.438 113.853H303.921C303.954 115.216 304.325 116.28 305.033 117.043C305.742 117.796 306.626 118.172 307.684 118.172C308.403 118.172 309.009 117.976 309.5 117.583C309.99 117.19 310.361 116.558 310.612 115.685ZM310.874 111.039C310.841 109.709 310.497 108.7 309.843 108.013C309.189 107.315 308.393 106.966 307.455 106.966C306.451 106.966 305.622 107.331 304.968 108.062C304.314 108.793 303.992 109.785 304.003 111.039H310.874ZM318.857 103.841H323.094V106.213C324.61 104.37 326.415 103.449 328.509 103.449C329.621 103.449 330.587 103.678 331.405 104.136C332.223 104.594 332.893 105.286 333.417 106.213C334.18 105.286 335.004 104.594 335.887 104.136C336.77 103.678 337.714 103.449 338.717 103.449C339.993 103.449 341.073 103.71 341.956 104.234C342.84 104.747 343.5 105.504 343.936 106.508C344.252 107.249 344.41 108.449 344.41 110.107V121.215H339.813V111.285C339.813 109.562 339.655 108.449 339.339 107.947C338.914 107.293 338.259 106.966 337.376 106.966C336.732 106.966 336.127 107.162 335.56 107.555C334.993 107.947 334.584 108.526 334.333 109.289C334.082 110.041 333.957 111.236 333.957 112.872V121.215H329.36V111.694C329.36 110.003 329.278 108.913 329.114 108.422C328.951 107.931 328.694 107.566 328.345 107.326C328.007 107.086 327.544 106.966 326.955 106.966C326.246 106.966 325.608 107.157 325.041 107.538C324.474 107.92 324.065 108.471 323.814 109.191C323.574 109.911 323.454 111.105 323.454 112.773V121.215H318.857V103.841ZM359.068 115.685L363.649 116.454C363.06 118.134 362.127 119.415 360.851 120.299C359.586 121.171 357.999 121.607 356.091 121.607C353.07 121.607 350.834 120.62 349.383 118.646C348.238 117.065 347.666 115.069 347.666 112.659C347.666 109.78 348.418 107.528 349.923 105.903C351.428 104.267 353.331 103.449 355.633 103.449C358.217 103.449 360.257 104.305 361.751 106.017C363.245 107.718 363.96 110.33 363.894 113.853H352.377C352.41 115.216 352.781 116.28 353.49 117.043C354.199 117.796 355.082 118.172 356.14 118.172C356.86 118.172 357.465 117.976 357.956 117.583C358.446 117.19 358.817 116.558 359.068 115.685ZM359.33 111.039C359.297 109.709 358.954 108.7 358.299 108.013C357.645 107.315 356.849 106.966 355.911 106.966C354.907 106.966 354.079 107.331 353.424 108.062C352.77 108.793 352.448 109.785 352.459 111.039H359.33ZM383.46 121.215H378.863V112.348C378.863 110.472 378.765 109.262 378.568 108.716C378.372 108.16 378.05 107.729 377.603 107.424C377.167 107.119 376.638 106.966 376.016 106.966C375.22 106.966 374.506 107.184 373.873 107.62C373.241 108.057 372.804 108.635 372.565 109.354C372.335 110.074 372.221 111.405 372.221 113.346V121.215H367.624V103.841H371.894V106.393C373.41 104.43 375.318 103.449 377.62 103.449C378.634 103.449 379.561 103.634 380.401 104.005C381.24 104.365 381.873 104.828 382.298 105.395C382.735 105.963 383.034 106.606 383.198 107.326C383.373 108.046 383.46 109.076 383.46 110.418V121.215ZM396.106 103.841V107.506H392.965V114.508C392.965 115.925 392.992 116.754 393.046 116.994C393.112 117.223 393.248 117.414 393.455 117.567C393.673 117.719 393.935 117.796 394.241 117.796C394.666 117.796 395.282 117.649 396.089 117.354L396.482 120.92C395.413 121.378 394.202 121.607 392.85 121.607C392.021 121.607 391.274 121.471 390.609 121.198C389.944 120.915 389.453 120.555 389.136 120.119C388.831 119.672 388.618 119.072 388.498 118.319C388.4 117.785 388.351 116.705 388.351 115.08V107.506H386.241V103.841H388.351V100.39L392.965 97.7066V103.841H396.106ZM408.784 121.215V97.4285H413.626V117.174H425.667V121.215H408.784ZM429.102 101.486V97.2322H433.699V101.486H429.102ZM429.102 121.215V103.841H433.699V121.215H429.102ZM438.083 103.841H442.32V106.213C443.836 104.37 445.641 103.449 447.735 103.449C448.848 103.449 449.813 103.678 450.631 104.136C451.449 104.594 452.12 105.286 452.643 106.213C453.407 105.286 454.23 104.594 455.113 104.136C455.997 103.678 456.94 103.449 457.944 103.449C459.22 103.449 460.299 103.71 461.183 104.234C462.066 104.747 462.726 105.504 463.162 106.508C463.478 107.249 463.637 108.449 463.637 110.107V121.215H459.04V111.285C459.04 109.562 458.881 108.449 458.565 107.947C458.14 107.293 457.485 106.966 456.602 106.966C455.959 106.966 455.353 107.162 454.786 107.555C454.219 107.947 453.81 108.526 453.559 109.289C453.308 110.041 453.183 111.236 453.183 112.872V121.215H448.586V111.694C448.586 110.003 448.504 108.913 448.341 108.422C448.177 107.931 447.921 107.566 447.572 107.326C447.234 107.086 446.77 106.966 446.181 106.966C445.472 106.966 444.834 107.157 444.267 107.538C443.7 107.92 443.291 108.471 443.04 109.191C442.8 109.911 442.68 111.105 442.68 112.773V121.215H438.083V103.841ZM468.233 101.486V97.2322H472.83V101.486H468.233ZM468.233 121.215V103.841H472.83V121.215H468.233ZM485.525 103.841V107.506H482.384V114.508C482.384 115.925 482.412 116.754 482.466 116.994C482.532 117.223 482.668 117.414 482.875 117.567C483.093 117.719 483.355 117.796 483.66 117.796C484.086 117.796 484.702 117.649 485.509 117.354L485.902 120.92C484.833 121.378 483.622 121.607 482.27 121.607C481.441 121.607 480.694 121.471 480.029 121.198C479.363 120.915 478.872 120.555 478.556 120.119C478.251 119.672 478.038 119.072 477.918 118.319C477.82 117.785 477.771 116.705 477.771 115.08V107.506H475.661V103.841H477.771V100.39L482.384 97.7066V103.841H485.525ZM498.776 115.685L503.357 116.454C502.768 118.134 501.835 119.415 500.559 120.299C499.294 121.171 497.707 121.607 495.799 121.607C492.778 121.607 490.542 120.62 489.092 118.646C487.946 117.065 487.374 115.069 487.374 112.659C487.374 109.78 488.126 107.528 489.631 105.903C491.136 104.267 493.04 103.449 495.341 103.449C497.926 103.449 499.965 104.305 501.459 106.017C502.953 107.718 503.668 110.33 503.602 113.853H492.085C492.118 115.216 492.489 116.28 493.198 117.043C493.907 117.796 494.79 118.172 495.848 118.172C496.568 118.172 497.173 117.976 497.664 117.583C498.155 117.19 498.525 116.558 498.776 115.685ZM499.038 111.039C499.005 109.709 498.662 108.7 498.007 108.013C497.353 107.315 496.557 106.966 495.619 106.966C494.616 106.966 493.787 107.331 493.132 108.062C492.478 108.793 492.156 109.785 492.167 111.039H499.038ZM523.299 121.215H519.029V118.663C518.32 119.655 517.48 120.397 516.51 120.888C515.55 121.368 514.579 121.607 513.598 121.607C511.602 121.607 509.89 120.806 508.461 119.203C507.043 117.589 506.334 115.342 506.334 112.463C506.334 109.518 507.027 107.282 508.412 105.755C509.797 104.218 511.547 103.449 513.663 103.449C515.604 103.449 517.284 104.256 518.702 105.87V97.2322H523.299V121.215ZM511.029 112.152C511.029 114.006 511.286 115.347 511.798 116.176C512.54 117.376 513.576 117.976 514.906 117.976C515.964 117.976 516.864 117.529 517.606 116.634C518.347 115.729 518.718 114.382 518.718 112.594C518.718 110.598 518.358 109.164 517.638 108.291C516.919 107.408 515.997 106.966 514.874 106.966C513.783 106.966 512.867 107.402 512.125 108.275C511.395 109.136 511.029 110.429 511.029 112.152Z" fill="#253B5C"/>
</svg>
