<svg width="742" height="387" viewBox="0 0 742 387" fill="none" xmlns="http://www.w3.org/2000/svg">
<g clip-path="url(#clip0)">
<path d="M475.1 0.300049H412.1V12.5H462.9V191.3H340.7C352.7 181.4 360.4 166.4 360.4 149.7V44H349.3V149.6C349.3 169.8 335.3 186.8 316.4 191.2H301.7V203.4H306.5C306.8 203.4 307.2 203.4 307.5 203.4H474.9V0.300049H475.1Z" fill="#253B5C"/>
<path d="M383.9 116.1C383.9 145.8 408.1 169.9 437.7 169.9V158.9C414.1 158.9 394.9 139.7 394.9 116.1V12.5H395V0.3H394.9V0H383.8V0.3H272V203.4H284.2V12.4H383.9V116.1Z" fill="#253B5C"/>
<path d="M26.9 264.9H34.3V306.1C34.3 315.4 28.1 321.2 18.8 321.2C9.50005 321.2 3.30005 315.3 3.30005 305.5H10.6C10.7 310.6 13.1 314.7 18.8 314.7C24.6 314.7 26.9 310.7 26.9 306.1V264.9Z" fill="#253B5C"/>
<path d="M81.6 308.3H57.2L52.7 320.7H45L65.2 265.2H73.6L93.7 320.7H86L81.6 308.3ZM69.4 274.2L59.3 302.4H79.5L69.4 274.2Z" fill="#253B5C"/>
<path d="M120.6 264.9C133.7 264.9 140 272.2 140 281.3C140 288.4 136.1 295.2 126.7 297.3L140.7 320.7H132L118.7 297.9H109.9V320.7H102.6V264.9H120.6V264.9ZM120.6 270.9H109.9V292H120.6C128.8 292 132.4 287.5 132.4 281.3C132.4 275 128.9 270.9 120.6 270.9Z" fill="#253B5C"/>
<path d="M181.3 270.8H158.6V289.5H178.9V295.5H158.6V314.7H181.3V320.7H151.3V264.8H181.3V270.8Z" fill="#253B5C"/>
<path d="M236.2 264.8V320.7H228.9L199.6 276.3V320.7H192.3V264.8H199.6L228.9 309.2V264.8H236.2Z" fill="#253B5C"/>
<path d="M302.9 308.3H278.6L274.1 320.7H266.4L286.6 265.2H295L315.1 320.7H307.4L302.9 308.3ZM290.8 274.2L280.7 302.4H300.9L290.8 274.2Z" fill="#253B5C"/>
<path d="M367.8 264.8V320.7H360.5L331.2 276.3V320.7H323.9V264.8H331.2L360.5 309.2V264.8H367.8Z" fill="#253B5C"/>
<path d="M427.2 292.9C427.2 310.2 415.9 320.7 397.6 320.7H380.2V264.9H397.6C415.9 264.9 427.2 275.6 427.2 292.9ZM397.6 314.7C412.2 314.7 419.8 306.5 419.8 292.9C419.8 279.3 412.2 270.8 397.6 270.8H387.5V314.7H397.6V314.7Z" fill="#253B5C"/>
<path d="M478.9 264.9H486.3V306.1C486.3 315.4 480.1 321.2 470.8 321.2C461.5 321.2 455.3 315.3 455.3 305.5H462.6C462.7 310.6 465.1 314.7 470.8 314.7C476.5 314.7 478.9 310.7 478.9 306.1V264.9Z" fill="#253B5C"/>
<path d="M525.9 321.2C510.2 321.2 497.9 309.4 497.9 292.7C497.9 276 510.2 264.2 525.9 264.2C541.7 264.2 553.9 276 553.9 292.7C553.9 309.5 541.7 321.2 525.9 321.2ZM525.9 314.9C537.7 314.9 546.5 306.3 546.5 292.7C546.5 279 537.7 270.5 525.9 270.5C514.1 270.5 505.3 279 505.3 292.7C505.3 306.3 514.1 314.9 525.9 314.9Z" fill="#253B5C"/>
<path d="M581.2 321.2C570 321.2 562.1 315 561.9 305.7H569.7C570.2 310.3 573.5 315 581.2 315C588.2 315 592.4 311 592.4 305.7C592.4 290.6 562.2 300.3 562.2 279.5C562.2 270.3 569.6 264 580.7 264C591.3 264 598.3 269.8 599.2 278.3H591.2C590.7 274.5 587.2 270.3 580.4 270.2C574.4 270 569.7 273.2 569.7 279.2C569.7 293.6 599.8 284.6 599.8 305.3C599.8 313.4 593.3 321.2 581.2 321.2Z" fill="#253B5C"/>
<path d="M640.6 270.8H617.9V289.5H638.2V295.5H617.9V314.7H640.6V320.7H610.6V264.8H640.6V270.8Z" fill="#253B5C"/>
<path d="M669.6 297.4H658.9V320.7H651.6V264.9H669.6C682.7 264.9 688.9 272.1 688.9 281.2C688.9 289.7 683.5 297.4 669.6 297.4ZM669.6 291.4C677.9 291.4 681.4 287.5 681.4 281.2C681.4 274.7 677.9 270.9 669.6 270.9H658.9V291.4H669.6Z" fill="#253B5C"/>
<path d="M733.7 295.4H705.3V320.7H698V264.9H705.3V289.4H733.7V264.9H741V320.7H733.7V295.4V295.4Z" fill="#253B5C"/>
<path d="M55.8999 363.1H59.7999V386.9H55.8999V363.1Z" fill="#253B5C"/>
<path d="M86.5 363.1V386.9H82.6L70.9 369.1V386.9H67V363.1H70.9L82.6 380.8V363.1H86.5Z" fill="#253B5C"/>
<path d="M92.3999 363.1H109V366.3H102.7V386.9H98.7999V366.3H92.3999V363.1V363.1Z" fill="#253B5C"/>
<path d="M128.1 366.3H118.9V373.3H127.1V376.5H118.9V383.8H128.1V387H114.9V363.2H128.1V366.3Z" fill="#253B5C"/>
<path d="M143.1 363.1C148.8 363.1 151.5 366.4 151.5 370.2C151.5 373 150 376 146 377L151.9 386.9H147.2L141.7 377.4H138.7V386.9H134.8V363.1H143.1ZM143.1 366.3H138.8V374.3H143.1C146.1 374.3 147.5 372.6 147.5 370.3C147.5 367.8 146.1 366.3 143.1 366.3Z" fill="#253B5C"/>
<path d="M158.5 363.1H162.4V386.9H158.5V363.1Z" fill="#253B5C"/>
<path d="M180.4 387.2C173.7 387.2 168.2 382.2 168.2 375C168.2 367.9 173.6 362.8 180.4 362.8C187.2 362.8 192.6 367.8 192.6 375C192.5 382.1 187.2 387.2 180.4 387.2ZM180.4 383.8C185.1 383.8 188.6 380.4 188.6 375C188.6 369.6 185.2 366.3 180.4 366.3C175.7 366.3 172.2 369.7 172.2 375C172.2 380.3 175.7 383.8 180.4 383.8Z" fill="#253B5C"/>
<path d="M206.6 363.1C212.3 363.1 215 366.4 215 370.2C215 373 213.5 376 209.5 377L215.4 386.9H210.7L205.2 377.4H202.2V386.9H198.3V363.1H206.6ZM206.6 366.3H202.3V374.3H206.6C209.6 374.3 211 372.6 211 370.3C211 367.8 209.6 366.3 206.6 366.3Z" fill="#253B5C"/>
<path d="M253.3 375.1C253.3 382.4 248.3 386.9 240.7 386.9H232.9V363.1H240.7C248.3 363.1 253.3 367.7 253.3 375.1ZM240.7 383.7C246.3 383.7 249.3 380.5 249.3 375.1C249.3 369.7 246.3 366.3 240.7 366.3H236.8V383.7H240.7V383.7Z" fill="#253B5C"/>
<path d="M272.3 366.3H263.1V373.3H271.3V376.5H263.1V383.8H272.3V387H259.1V363.2H272.3V366.3Z" fill="#253B5C"/>
<path d="M287 387.2C282.2 387.2 278.6 384.6 278.6 380.4H282.8C283 382.4 284.3 383.9 287 383.9C289.7 383.9 291.3 382.4 291.3 380.4C291.3 374.6 278.7 378.4 278.7 369.6C278.7 365.4 282 362.8 286.9 362.8C291.5 362.8 294.7 365.2 295 369.3H290.7C290.6 367.7 289.2 366.2 286.7 366.1C284.4 366 282.7 367.1 282.7 369.4C282.7 374.8 295.3 371.4 295.3 380.1C295.2 383.7 292.3 387.2 287 387.2Z" fill="#253B5C"/>
<path d="M301.8 363.1H305.7V386.9H301.8V363.1Z" fill="#253B5C"/>
<path d="M334.7 370H330C328.7 367.6 326.5 366.4 323.6 366.4C318.9 366.4 315.4 369.8 315.4 375C315.4 380.2 318.8 383.6 323.6 383.6C327.9 383.6 330.6 381 331.2 377H322.3V373.9H335.4V376.9C334.7 382.4 330 387.1 323.6 387.1C316.9 387.1 311.4 382.1 311.4 374.9C311.4 367.8 316.8 362.7 323.6 362.7C328.6 362.8 332.9 365.3 334.7 370Z" fill="#253B5C"/>
<path d="M360.8 363.1V386.9H356.9L345.2 369.1V386.9H341.3V363.1H345.2L356.9 380.8V363.1H360.8Z" fill="#253B5C"/>
<path d="M378.9 363.1H382.8V386.9H378.9V363.1Z" fill="#253B5C"/>
<path d="M408.6 387.2C403.8 387.2 400.2 384.6 400.2 380.4H404.4C404.6 382.4 405.9 383.9 408.6 383.9C411.3 383.9 412.9 382.4 412.9 380.4C412.9 374.6 400.3 378.4 400.3 369.6C400.3 365.4 403.6 362.8 408.5 362.8C413.1 362.8 416.3 365.2 416.6 369.3H412.3C412.2 367.7 410.8 366.2 408.3 366.1C406 366 404.3 367.1 404.3 369.4C404.3 374.8 416.9 371.4 416.9 380.1C416.9 383.7 413.9 387.2 408.6 387.2Z" fill="#253B5C"/>
<path d="M431.7 377.3H427.4V387H423.5V363.2H431.7C437.4 363.2 440.1 366.4 440.1 370.3C440.1 373.6 437.9 377.3 431.7 377.3ZM431.7 374.1C434.7 374.1 436.1 372.6 436.1 370.2C436.1 367.7 434.7 366.3 431.7 366.3H427.4V374.1H431.7V374.1Z" fill="#253B5C"/>
<path d="M460.2 382H450.2L448.5 386.9H444.4L452.9 363.1H457.4L465.9 386.9H461.8L460.2 382ZM455.2 367.8L451.3 378.9H459.1L455.2 367.8Z" fill="#253B5C"/>
<path d="M470.5 363.1H487.1V366.3H480.8V386.9H476.9V366.3H470.5V363.1V363.1Z" fill="#253B5C"/>
<path d="M493 363.1H496.9V386.9H493V363.1Z" fill="#253B5C"/>
<path d="M518.4 382H508.4L506.7 386.9H502.6L511.1 363.1H515.6L524.1 386.9H520L518.4 382ZM513.4 367.8L509.5 378.9H517.3L513.4 367.8Z" fill="#253B5C"/>
<path d="M533.8 363.1V383.8H541.8V387H529.8V363.2H533.8V363.1Z" fill="#253B5C"/>
<path d="M578.4 375.1C578.4 382.4 573.4 386.9 565.8 386.9H558V363.1H565.8C573.4 363.1 578.4 367.7 578.4 375.1ZM565.8 383.7C571.4 383.7 574.4 380.5 574.4 375.1C574.4 369.7 571.4 366.3 565.8 366.3H561.9V383.7H565.8V383.7Z" fill="#253B5C"/>
<path d="M597.4 366.3H588.2V373.3H596.4V376.5H588.2V383.8H597.4V387H584.2V363.2H597.4V366.3Z" fill="#253B5C"/>
<path d="M612 387.2C607.2 387.2 603.6 384.6 603.6 380.4H607.8C608 382.4 609.3 383.9 612 383.9C614.7 383.9 616.3 382.4 616.3 380.4C616.3 374.6 603.7 378.4 603.7 369.6C603.7 365.4 607 362.8 611.9 362.8C616.5 362.8 619.7 365.2 620 369.3H615.7C615.6 367.7 614.2 366.2 611.7 366.1C609.4 366 607.7 367.1 607.7 369.4C607.7 374.8 620.3 371.4 620.3 380.1C620.3 383.7 617.4 387.2 612 387.2Z" fill="#253B5C"/>
<path d="M626.9 363.1H630.8V386.9H626.9V363.1Z" fill="#253B5C"/>
<path d="M659.8 370H655.1C653.8 367.6 651.6 366.4 648.7 366.4C644 366.4 640.5 369.8 640.5 375C640.5 380.2 643.9 383.6 648.7 383.6C653 383.6 655.7 381 656.3 377H647.4V373.9H660.5V376.9C659.8 382.4 655.1 387.1 648.7 387.1C642 387.1 636.5 382.1 636.5 374.9C636.5 367.8 641.9 362.7 648.7 362.7C653.7 362.8 658 365.3 659.8 370Z" fill="#253B5C"/>
<path d="M685.9 363.1V386.9H682L670.2 369.1V386.9H666.3V363.1H670.2L682 380.8V363.1H685.9Z" fill="#253B5C"/>
</g>
<defs>
<clipPath id="clip0">
<rect width="742" height="386.9" fill="white"/>
</clipPath>
</defs>
</svg>
