<svg width="1724" height="385" viewBox="0 0 1724 385" fill="none" xmlns="http://www.w3.org/2000/svg">
<path d="M293.7 122.2C320.5 175.3 318.8 227.3 294.2 278.6C346.5 305.8 404.4 290.3 421.2 243C395.2 243 370.1 243 343.3 243C343.3 222.8 343.3 205.5 343.3 184.6C389.9 184.6 436.3 184.3 482.7 185.3C485.8 185.4 491.3 195.8 491.3 201.4C491.3 323.3 381.5 392.4 270.8 339.6C254.9 332.1 243.5 330.9 227 339.5C161.5 373.8 80 355.9 34.6 299.6C-11.4 242.6 -11.8 159.7 33.7 102.6C79.1 45.5001 159.8 26.7001 225.7 60.1001C242.1 68.4001 253.1 67.8001 269.2 59.9001C339.8 25.0001 427.6 48.1001 467.4 111.7C452.3 120.6 437.7 130.6 421.8 137.7C417 139.8 407.4 135.3 402 131.1C369.9 106.5 331.1 102.4 293.7 122.2ZM245.4 199.7C245.3 147.3 207.3 109 156 109.4C104.4 109.9 66.9 148.6 67.5 200.8C68 253.1 106 291.3 157.3 291.2C208.4 291 245.5 252.5 245.4 199.7Z" fill="#253B5C"/>
<path d="M676.4 77.6001C690.8 77.6001 703.2 82.8001 713.5 93.2001C723.8 103.6 729 116.3 729 131.3C729 146.2 723.9 158.7 713.7 169C703.5 179.3 691.1 184.4 676.5 184.4C661.2 184.4 648.5 179.1 638.4 168.6C628.3 158 623.2 145.5 623.2 131C623.2 121.3 625.6 112.3 630.3 104.2C635 96.0001 641.5 89.6001 649.7 84.8001C658 80.0001 666.9 77.6001 676.4 77.6001ZM676.2 96.6001C666.8 96.6001 658.9 99.9001 652.4 106.4C646 113 642.8 121.3 642.8 131.4C642.8 142.7 646.8 151.6 654.9 158.1C661.2 163.2 668.4 165.8 676.5 165.8C685.7 165.8 693.5 162.5 700 155.8C706.5 149.2 709.7 141 709.7 131.2C709.7 121.5 706.4 113.3 699.9 106.6C693.4 99.9001 685.5 96.6001 676.2 96.6001Z" fill="#253B5C"/>
<path d="M740.8 80.2002H762.6L784 112.9L805.4 80.2002H827.2L794.9 129.6L829.2 182H807.4L784 146.2L760.5 182H738.6L773 129.5L740.8 80.2002Z" fill="#253B5C"/>
<path d="M844 80.2002H894.5V99.1002H863.2V117.6H894.5V136.2H863.2V182H844V80.2002Z" fill="#253B5C"/>
<path d="M959.8 77.6001C974.2 77.6001 986.6 82.8001 996.9 93.2001C1007.2 103.6 1012.4 116.3 1012.4 131.3C1012.4 146.2 1007.3 158.7 997.1 169C986.9 179.3 974.5 184.4 959.9 184.4C944.6 184.4 931.9 179.1 921.8 168.6C911.7 158 906.6 145.5 906.6 131C906.6 121.3 909 112.3 913.7 104.2C918.4 96.0001 924.9 89.6001 933.1 84.8001C941.4 80.0001 950.3 77.6001 959.8 77.6001ZM959.6 96.6001C950.2 96.6001 942.3 99.9001 935.8 106.4C929.4 113 926.2 121.3 926.2 131.4C926.2 142.7 930.2 151.6 938.3 158.1C944.6 163.2 951.8 165.8 959.9 165.8C969.1 165.8 976.9 162.5 983.4 155.8C989.9 149.2 993.1 141 993.1 131.2C993.1 121.5 989.8 113.3 983.3 106.6C976.9 99.9001 969 96.6001 959.6 96.6001Z" fill="#253B5C"/>
<path d="M1032.1 80.2002H1052.6C1063.8 80.2002 1071.8 81.2002 1076.6 83.2002C1081.4 85.2002 1085.2 88.5002 1088.1 93.2002C1091 97.9002 1092.5 103.4 1092.5 109.7C1092.5 116.4 1090.9 122 1087.7 126.5C1084.5 131 1079.7 134.4 1073.2 136.7L1097.3 182H1076.1L1053.2 138.9H1051.4V182H1032V80.2002H1032.1ZM1051.5 120H1057.6C1063.8 120 1068 119.2 1070.3 117.6C1072.6 116 1073.8 113.3 1073.8 109.5C1073.8 107.3 1073.2 105.3 1072.1 103.7C1070.9 102.1 1069.4 100.9 1067.5 100.2C1065.6 99.5002 1062 99.1002 1056.9 99.1002H1051.6V120H1051.5Z" fill="#253B5C"/>
<path d="M1113.1 80.2002H1136.1C1150.9 80.2002 1161.9 82.0002 1169.1 85.7002C1176.3 89.4002 1182.2 95.3002 1186.9 103.6C1191.6 111.9 1193.9 121.5 1193.9 132.5C1193.9 140.3 1192.6 147.5 1190 154.1C1187.4 160.7 1183.8 166.1 1179.2 170.5C1174.6 174.8 1169.6 177.8 1164.3 179.5C1159 181.2 1149.7 182 1136.5 182H1113.2V80.2002H1113.1ZM1132.3 98.9002V163.1H1141.3C1150.2 163.1 1156.6 162.1 1160.6 160.1C1164.6 158.1 1167.9 154.7 1170.4 149.8C1172.9 145 1174.2 139.1 1174.2 132.1C1174.2 121.3 1171.2 112.9 1165.1 107C1159.7 101.6 1150.9 99.0002 1138.9 99.0002H1132.3V98.9002Z" fill="#253B5C"/>
<path d="M1345.9 96.8001L1332.3 110.3C1323.7 101.2 1313.6 96.6001 1302.1 96.6001C1292.1 96.6001 1283.7 99.9001 1276.9 106.6C1270.1 113.2 1266.8 121.3 1266.8 130.8C1266.8 140.6 1270.3 149 1277.3 155.8C1284.3 162.6 1293 166 1303.3 166C1310 166 1315.6 164.6 1320.2 161.8C1324.8 159 1328.5 154.6 1331.3 148.6H1301.8V130.4H1353L1353.1 134.7C1353.1 143.6 1350.8 152 1346.2 160C1341.6 168 1335.6 174.1 1328.3 178.3C1321 182.5 1312.4 184.6 1302.5 184.6C1291.9 184.6 1282.5 182.3 1274.2 177.7C1265.9 173.1 1259.4 166.6 1254.5 158.1C1249.7 149.6 1247.3 140.5 1247.3 130.6C1247.3 117.1 1251.8 105.4 1260.7 95.4001C1271.3 83.5001 1285 77.6001 1301.9 77.6001C1310.8 77.6001 1319 79.2001 1326.7 82.5001C1333.3 85.3001 1339.6 90.1001 1345.9 96.8001Z" fill="#253B5C"/>
<path d="M1372.2 80.2002H1392.7C1403.9 80.2002 1411.9 81.2002 1416.7 83.2002C1421.5 85.2002 1425.3 88.5002 1428.2 93.2002C1431.1 97.9002 1432.6 103.4 1432.6 109.7C1432.6 116.4 1431 122 1427.8 126.5C1424.6 131 1419.8 134.4 1413.3 136.7L1437.4 182H1416.2L1393.3 138.9H1391.5V182H1372.1V80.2002H1372.2ZM1391.6 120H1397.7C1403.9 120 1408.1 119.2 1410.4 117.6C1412.7 116 1413.9 113.3 1413.9 109.5C1413.9 107.3 1413.3 105.3 1412.2 103.7C1411 102.1 1409.5 100.9 1407.6 100.2C1405.7 99.5002 1402.1 99.1002 1397 99.1002H1391.7V120H1391.6Z" fill="#253B5C"/>
<path d="M1501.2 77.6001C1515.6 77.6001 1528 82.8001 1538.3 93.2001C1548.6 103.6 1553.8 116.3 1553.8 131.3C1553.8 146.2 1548.7 158.7 1538.5 169C1528.3 179.3 1515.9 184.4 1501.3 184.4C1486 184.4 1473.3 179.1 1463.2 168.6C1453.1 158 1448 145.5 1448 131C1448 121.3 1450.4 112.3 1455.1 104.2C1459.8 96.0001 1466.3 89.6001 1474.5 84.8001C1482.8 80.0001 1491.7 77.6001 1501.2 77.6001ZM1501 96.6001C1491.6 96.6001 1483.7 99.9001 1477.2 106.4C1470.8 113 1467.6 121.3 1467.6 131.4C1467.6 142.7 1471.6 151.6 1479.7 158.1C1486 163.2 1493.2 165.8 1501.3 165.8C1510.5 165.8 1518.3 162.5 1524.8 155.8C1531.3 149.2 1534.5 141 1534.5 131.2C1534.5 121.5 1531.2 113.3 1524.7 106.6C1518.2 99.9001 1510.3 96.6001 1501 96.6001Z" fill="#253B5C"/>
<path d="M1571.4 80.2002H1590.8V146C1590.8 151.7 1591.3 155.7 1592.3 158C1593.3 160.4 1594.9 162.2 1597.2 163.6C1599.5 165 1602.2 165.7 1605.5 165.7C1608.9 165.7 1611.9 164.9 1614.3 163.3C1616.8 161.7 1618.5 159.7 1619.4 157.3C1620.3 154.9 1620.8 150.3 1620.8 143.4V80.2002H1640.2V140.9C1640.2 151.1 1639.6 158.2 1638.5 162.2C1637.3 166.2 1635.1 170 1631.9 173.7C1628.6 177.4 1624.9 180.1 1620.7 181.9C1616.5 183.7 1611.5 184.6 1605.9 184.6C1598.5 184.6 1592.1 182.9 1586.6 179.5C1581.1 176.1 1577.2 171.9 1574.9 166.8C1572.5 161.7 1571.4 153.1 1571.4 141V80.2002V80.2002Z" fill="#253B5C"/>
<path d="M1662.8 80.2002H1683.4C1694.5 80.2002 1702.5 81.2002 1707.4 83.3002C1712.3 85.4002 1716.2 88.7002 1719 93.3002C1721.8 97.9002 1723.3 103.4 1723.3 109.8C1723.3 116.9 1721.4 122.8 1717.7 127.5C1714 132.2 1708.9 135.5 1702.6 137.3C1698.9 138.4 1692.1 138.9 1682.2 138.9V182H1662.8V80.2002V80.2002ZM1682.1 120H1688.3C1693.1 120 1696.5 119.7 1698.4 119C1700.3 118.3 1701.8 117.2 1702.9 115.6C1704 114 1704.5 112.1 1704.5 109.8C1704.5 105.9 1703 103 1699.9 101.2C1697.7 99.9002 1693.6 99.2002 1687.6 99.2002H1682.1V120Z" fill="#253B5C"/>
<path d="M849 257.3H866L905.8 318.5V257.3H923.5V350.3H906.5L866.8 289.3V350.3H849V257.3Z" fill="#253B5C"/>
<path d="M969.4 257.3H987V350.3H969.4V257.3Z" fill="#253B5C"/>
<path d="M1118.6 272.5L1106.1 284.8C1098.2 276.5 1089 272.3 1078.5 272.3C1069.3 272.3 1061.7 275.3 1055.5 281.4C1049.3 287.5 1046.2 294.8 1046.2 303.5C1046.2 312.5 1049.4 320.1 1055.8 326.3C1062.2 332.5 1070.1 335.7 1079.5 335.7C1085.6 335.7 1090.8 334.4 1095 331.8C1099.2 329.2 1102.6 325.2 1105.2 319.7H1078.3V303.1H1125.1L1125.2 307C1125.2 315.1 1123.1 322.9 1118.9 330.1C1114.7 337.4 1109.2 343 1102.5 346.8C1095.8 350.6 1087.9 352.6 1078.9 352.6C1069.2 352.6 1060.6 350.5 1053.1 346.3C1045.5 342.1 1039.5 336.1 1035.1 328.4C1030.7 320.6 1028.5 312.3 1028.5 303.3C1028.5 291 1032.6 280.3 1040.7 271.2C1050.4 260.4 1062.9 254.9 1078.4 254.9C1086.5 254.9 1094.1 256.4 1101.1 259.4C1107.1 262 1112.9 266.3 1118.6 272.5Z" fill="#253B5C"/>
<path d="M1167.5 257.3H1218.3V274.6H1185.1V291.4H1218.3V308.4H1185.1V332.9H1218.3V350.3H1167.5V257.3Z" fill="#253B5C"/>
<path d="M1261.9 257.3H1280.7C1291 257.3 1298.3 258.2 1302.6 260.1C1306.9 262 1310.5 265 1313.1 269.2C1315.8 273.5 1317.1 278.5 1317.1 284.3C1317.1 290.4 1315.6 295.5 1312.7 299.6C1309.8 303.7 1305.4 306.8 1299.5 308.9L1321.5 350.3H1302.1L1281.2 310.9H1279.6V350.3H1261.9V257.3V257.3ZM1279.6 293.7H1285.1C1290.7 293.7 1294.6 293 1296.7 291.5C1298.8 290 1299.9 287.6 1299.9 284.1C1299.9 282.1 1299.4 280.3 1298.3 278.8C1297.2 277.3 1295.8 276.2 1294.1 275.6C1292.3 274.9 1289.1 274.6 1284.4 274.6H1279.5V293.7H1279.6Z" fill="#253B5C"/>
<path d="M1360.4 257.3H1378V350.3H1360.4V257.3Z" fill="#253B5C"/>
<path d="M1452.2 257.3H1470.2L1506 350.3H1487.6L1480.3 331.1H1442.3L1434.7 350.3H1416.3L1452.2 257.3ZM1461.3 282L1448.8 313.9H1473.7L1461.3 282Z" fill="#253B5C"/>
<path d="M566.3 0.100098H557.5V384.3H566.3V0.100098Z" fill="#253B5C"/>
</svg>
