<svg width="2126" height="386" viewBox="0 0 2126 386" fill="none" xmlns="http://www.w3.org/2000/svg">
<path d="M650.579 94.2999C651.679 92.7999 653.279 91.3999 653.979 89.6999C667.379 53.2999 694.979 36.1999 732.179 35.5999C750.779 35.2999 769.479 39.2999 787.879 42.2999C793.979 43.2999 799.479 47.4999 805.779 50.4999C801.579 62.8999 797.779 73.9999 794.279 84.3999C778.479 79.6999 763.679 73.8999 748.279 70.8999C721.779 65.7999 701.279 76.7999 694.179 97.6999C686.379 120.9 695.479 143.9 718.879 156.7C736.379 166.3 754.779 174.4 772.579 183.7C811.179 203.9 828.879 243.2 817.779 285C809.679 315.5 787.979 333.2 758.879 342C747.079 345.6 734.279 347 721.879 347.4C698.179 348.2 674.379 347.6 650.579 347.6C650.579 341 650.579 334.5 650.579 327.9C656.079 315.9 661.479 304 667.079 291.8C687.379 303.7 708.179 311.6 731.479 310.5C754.279 309.4 772.579 295.9 777.979 276.8C783.979 255.6 776.279 233.9 756.679 221.3C744.079 213.2 730.579 206.1 716.679 200.1C685.779 186.9 660.079 169.1 651.579 134.1C651.479 133.8 650.879 133.7 650.479 133.6C650.579 120.6 650.579 107.5 650.579 94.2999Z" fill="#253B5C"/>
<path d="M278.579 147.2C283.879 155.9 288.979 164.6 294.379 173.3C306.479 193 320.179 211.5 337.379 227.2C346.079 235.2 354.379 244 361.079 253.7C389.279 294.5 377.379 347.2 333.679 370.7C295.079 391.4 255.479 390.7 217.879 367.9C176.779 343 167.879 289 197.679 250.3C204.779 241.1 212.979 232.7 221.579 224.8C243.279 205 257.979 180.1 272.779 155.3C274.179 152.9 275.579 150.5 277.079 148.1C277.179 147.8 277.779 147.7 278.579 147.2Z" fill="#253B5C"/>
<path d="M125.779 354.8C94.779 340.3 66.479 322.3 43.079 297.7C-2.12103 250.1 -10.921 195.4 12.779 134.9C16.379 125.6 21.079 116.7 25.279 107.6C40.679 74.1 43.179 39.5 33.679 3.9C33.479 3 33.379 2.1 32.979 0C50.679 12.7 66.279 26.1 79.279 42.4C110.779 81.9 115.779 124.8 95.579 170.8C86.379 191.8 78.479 213.1 75.979 236.1C73.679 257.4 77.679 277.6 88.279 296C98.079 312.9 109.179 329.1 119.679 345.6C121.779 348.7 123.779 351.7 125.779 354.8Z" fill="#253B5C"/>
<path d="M518.879 1.2002C517.379 15.2002 515.079 29.5002 514.479 43.7002C513.379 68.2002 519.679 91.3002 530.779 113.1C543.079 137.2 551.579 162.4 553.079 189.7C554.979 224.3 544.479 254.9 523.579 282.2C498.479 315 464.779 337 427.779 355.1C428.979 353 430.179 350.9 431.479 348.9C440.279 335.5 449.079 322 458.079 308.6C480.179 275.8 483.179 240.7 470.479 203.8C466.879 193.5 463.179 183.2 458.879 173.1C435.679 119 443.679 72.9002 484.679 30.6002C492.879 22.1002 502.379 14.7002 511.279 6.9002C513.879 4.6002 516.779 2.7002 518.879 1.2002Z" fill="#253B5C"/>
<path d="M356.579 64.3999C359.779 76.0999 362.379 87.3999 365.979 98.3999C372.179 117.1 383.079 132.9 397.679 146.3C416.979 164 432.679 184.4 440.279 210C449.979 242.7 442.679 273.2 426.879 302.2C414.679 324.7 398.279 344.1 380.279 362.3C379.679 362.9 378.979 363.3 377.479 364.4C382.979 350 388.279 336.6 393.179 323.1C409.179 280 398.879 242.9 366.679 211.4C351.379 196.4 338.879 179.9 334.479 158.5C328.579 129.4 335.879 102.6 348.979 76.8999C350.779 73.3999 352.879 69.9999 354.879 66.5999C355.379 65.7999 355.979 65.1999 356.579 64.3999Z" fill="#253B5C"/>
<path d="M196.779 64.7998C217.379 97.5998 229.279 131.6 216.379 169.9C211.679 183.9 202.879 195.1 193.079 206C183.279 216.9 173.379 227.9 165.679 240.2C151.179 263.3 150.379 288.8 158.379 314.3C162.679 328.3 168.479 341.8 173.579 355.6C174.379 357.9 175.279 360.2 175.479 362.8C158.279 346.7 143.279 329.1 131.279 309C116.979 285.1 108.079 259.8 110.179 231.4C111.679 211.1 118.779 192.7 130.579 176.4C137.979 166.3 145.979 156.3 155.279 147.9C178.279 127 190.579 100.9 195.779 70.8998C195.979 68.7998 196.479 66.7998 196.779 64.7998Z" fill="#253B5C"/>
<path d="M1264.58 255.8C1273.28 227 1281.98 198.1 1290.68 169.3C1302.78 129.4 1314.98 89.5 1326.68 49.5C1328.78 42.2 1331.98 39.9 1339.38 39.8C1347.38 39.7 1348.48 44.1 1349.78 50.2C1368.88 144.9 1388.28 239.5 1407.38 334.1C1407.88 336.4 1407.48 338.9 1407.48 341.7C1395.18 341.7 1383.08 341.7 1370.18 341.7C1358.38 278.2 1346.68 215.2 1334.98 152.2C1334.18 152.2 1333.28 152.1 1332.48 152.1C1321.48 185.3 1310.68 218.5 1299.58 251.7C1289.88 280.8 1280.18 309.9 1270.18 338.9C1269.08 342.2 1265.88 344.7 1263.68 347.6C1260.98 344.8 1256.88 342.4 1255.68 339C1235.88 282.2 1216.48 225.4 1196.98 168.5C1195.18 163.2 1193.18 157.9 1188.98 152.4C1177.58 215.3 1166.08 278.2 1154.58 341.6C1141.68 341.6 1129.08 341.6 1115.88 341.6C1127.88 277.5 1139.78 214 1151.58 150.4C1157.78 117.4 1163.78 84.4 1170.08 51.4C1171.08 46.2 1170.08 39.7 1179.08 39.6C1186.98 39.5 1191.38 40.9 1194.08 49.5C1214.78 114.5 1236.18 179.4 1257.38 244.3C1258.68 248.1 1260.08 251.9 1261.48 255.7C1262.58 255.9 1263.58 255.9 1264.58 255.8Z" fill="#253B5C"/>
<path d="M1671.68 341.5C1671.68 241.3 1671.68 141.5 1671.68 40.2999C1712.28 39.3999 1752.18 32.3999 1791.88 42.2999C1832.48 52.3999 1852.58 76.6999 1854.98 117.7C1857.18 154.7 1835.98 188 1801.28 201.8C1800.18 202.2 1799.08 202.7 1796.18 203.9C1824.98 249.7 1853.48 295.1 1883.18 342.3C1867.58 342.3 1854.08 342.8 1840.78 341.9C1837.48 341.7 1833.58 337.3 1831.48 333.9C1807.88 296.5 1784.48 259 1761.48 221.2C1757.58 214.9 1753.48 212 1745.98 212.1C1735.08 212.3 1724.08 211.3 1711.98 210.7C1711.98 254.6 1711.98 297.5 1711.98 341.3C1697.98 341.5 1685.18 341.5 1671.68 341.5ZM1712.28 175.2C1737.28 179.6 1761.58 179.4 1785.08 170.8C1805.38 163.4 1810.98 146.1 1811.88 126.6C1812.78 108 1807.38 92.1999 1789.18 84.1999C1764.48 73.3999 1738.78 73.3999 1712.28 77.7999C1712.28 110.8 1712.28 142.6 1712.28 175.2Z" fill="#253B5C"/>
<path d="M1915.58 40.6001C1929.28 40.6001 1941.88 40.6001 1955.98 40.6001C1955.98 45.8001 1955.98 50.6001 1955.98 55.4001C1955.98 120.2 1955.78 185 1956.08 249.7C1956.18 280 1975.08 302.9 2003.38 308.9C2036.68 315.9 2066.98 303.9 2078.78 277.4C2082.78 268.4 2084.88 257.7 2084.98 247.8C2085.48 183.4 2085.28 119.1 2085.28 54.7001C2085.28 50.3001 2085.28 45.9001 2085.28 40.7001C2099.38 40.7001 2112.28 40.7001 2125.98 40.7001C2125.98 142.6 2125.98 244.5 2125.98 347.6C2098.78 347.6 2071.88 348.2 2044.98 347.4C2023.98 346.8 2002.48 346.8 1982.08 342.4C1942.98 334 1917.38 306.4 1916.28 266.8C1914.08 192.1 1915.58 117.1 1915.58 40.6001Z" fill="#253B5C"/>
<path d="M1039.18 40.7002C1053.78 40.7002 1066.28 40.7002 1080.18 40.7002C1080.18 45.8002 1080.18 50.2002 1080.18 54.6002C1080.18 119.8 1080.18 184.9 1080.18 250.1C1080.18 299.7 1056.28 331.1 1008.28 343.8C979.179 351.5 950.379 350.1 922.379 338.8C891.379 326.3 874.579 302.8 870.079 270.2C868.679 260.1 868.279 249.8 868.179 239.6C867.979 178.1 868.079 116.7 868.079 55.2002C868.079 50.8002 868.079 46.3002 868.079 41.0002C881.979 41.0002 894.779 41.0002 909.479 41.0002C909.479 46.1002 909.479 50.9002 909.479 55.6002C909.479 119.9 909.379 184.3 909.579 248.6C909.679 279.9 928.779 303.3 958.279 309.2C992.079 315.9 1022.48 302.9 1033.58 275.5C1037.28 266.3 1038.88 255.6 1038.98 245.6C1039.48 182.1 1039.18 118.6 1039.18 55.0002C1039.18 50.6002 1039.18 46.2002 1039.18 40.7002Z" fill="#253B5C"/>
<path d="M1443.18 341.6C1443.18 241 1443.18 141.5 1443.18 41C1502.78 41 1561.98 41 1621.78 41C1621.78 52.7 1621.78 64 1621.78 76.7C1576.28 76.7 1530.98 76.7 1484.68 76.7C1484.68 105.2 1484.68 132.4 1484.68 160.7C1516.88 160.7 1549.08 160.7 1582.18 160.7C1582.18 172.7 1582.18 183.4 1582.18 195.6C1549.48 195.6 1517.28 195.6 1484.38 195.6C1484.38 232.6 1484.38 268.1 1484.38 305.3C1529.18 305.3 1573.88 305.3 1619.58 305.3C1619.58 318.2 1619.58 329.5 1619.58 341.5C1561.08 341.6 1502.68 341.6 1443.18 341.6Z" fill="#253B5C"/>
</svg>
