<svg width="1037" height="386" viewBox="0 0 1037 386" fill="none" xmlns="http://www.w3.org/2000/svg">
<path d="M30.4 354.9C33.9 341.8 32.4 328.7 49.1 325.5C52.5 324.8 55.9 319.9 57.7 316.2C61.2 308.8 64.3 301.1 66.4 293.2C72.6 269.8 82.8 251.1 109.7 245.7C122.5 243.1 127.5 232 126.9 218.3C124.4 158.6 141.5 133.2 198.9 114.8C230.7 104.6 263.4 97.2 295.6 88.6C298.8 87.7 302 86.9 305.2 86C305 84.8 304.8 83.5 304.6 82.3C295.5 83.2 286.4 84.1 275 85.2C301.4 42.1 336.1 12.9 385 4.7C409.9 0.5 435.7 1.4 461.6 0C453.3 30 466.7 56.7 468.4 84.3C468.8 91.5 467 100.8 462.5 105.8C456.1 113 448.3 110.4 442.4 101.8C436.2 92.6 429.1 83.9 421.7 75.6C414.2 67 407.5 68.9 403.1 79C396.7 93.6 390.5 108.2 384.6 123C378.4 138.6 369.5 147.7 350.8 142.8C343.3 140.8 334.8 142.5 326.8 142.5C326.7 143.8 326.5 145.1 326.4 146.4C337.2 147.5 348.1 148.6 358.9 149.7C382.9 152.1 387.9 160.5 377.4 182C371.8 193.5 365.8 204.9 359.6 216.1C349.4 234.8 348.5 235.4 327.3 244.2C318 226.3 318.8 224 336.2 219.4C338.1 218.9 340.8 218.3 341.5 216.9C348.5 203 355.1 189 362.8 173C314.3 182 267.4 190.7 217.9 199.9C218.8 187.4 219.4 178.2 220 169C219 168.5 218 168.1 216.9 167.6C215.2 169.9 212 172.2 212.1 174.3C213.8 201.1 200.1 221.5 181.1 236.6C164.2 250 144.2 260.6 124 268.2C107.4 274.5 95 282.6 87.7 298.7C83 309 78.5 319.4 72.8 329.1C64.1 344.3 51.3 354.2 30.4 354.9Z" fill="#253B5C"/>
<path d="M0 223.4C2.6 195.1 25.4 172.1 62.1 166.9C83.1 163.9 104.5 163.3 125.3 161.6C122.6 174.1 113.5 182.5 100 186.8C83 192.3 65.9 197.6 49.1 203.8C32 210.1 15.2 217.3 0 223.4Z" fill="#253B5C"/>
<path d="M397 191.6C404.3 178.5 411 166.2 418.6 152.5C409.3 152.5 401.6 153.5 394.4 152.2C389.5 151.3 385.1 147.2 380.5 144.5C385.6 139.1 390.7 133.7 395.9 128.4C396.1 128.2 396.9 128.5 397.4 128.6C433.6 132.8 448.1 131.8 423.4 175.2C414.1 191.4 407.9 210.3 386.4 215.1C378 197.3 379.3 194.8 397 191.6Z" fill="#253B5C"/>
<path d="M150.6 267.1C139.3 289.8 133.3 317.2 99.8 320.5C101.8 309 102.2 299.2 115.4 296.2C118.7 295.5 122 289.9 123.1 285.9C127.2 271.1 140.6 272.1 150.6 267.1Z" fill="#253B5C"/>
<path d="M283.5 351.3C283.5 357 285 361.5 287.9 364.6C290.8 367.7 294.9 369.3 300.3 369.3C305.6 369.3 309.6 367.9 312.5 365.1C315.4 362.3 316.8 358.3 316.8 353.2L317.9 370.3C316.2 374.4 313.5 377.8 309.7 380.5C305.9 383.2 301.2 384.6 295.7 384.6C286.6 384.6 279.7 381.7 274.7 375.9C269.8 370.1 267.3 361.9 267.3 351.3V301.5H283.4V351.3H283.5ZM316.8 301.5H332.8V383.5H316.8V301.5ZM357.3 301.5H373.4V383.5H357.3V301.5ZM407 333.8C407 328 405.5 323.5 402.5 320.4C399.5 317.2 395.3 315.7 389.9 315.7C384.6 315.7 380.6 317.1 377.7 319.9C374.8 322.7 373.4 326.6 373.4 331.7L371.7 315.9C374.2 311 377.5 307.1 381.6 304.4C385.7 301.7 390.2 300.4 395.1 300.4C404 300.4 410.9 303.3 415.8 309.1C420.7 314.9 423.1 323.1 423.1 333.8V383.6H407V333.8ZM447.6 383.4H463.7V301.4H447.6V383.4ZM501.4 380.4C496.3 377.6 492.5 373.5 489.8 368.2C487.1 362.9 485.8 356.4 485.8 348.9V335.6C485.8 328.2 487.1 321.8 489.8 316.5C492.5 311.2 496.3 307.2 501.4 304.4C506.5 301.6 512.5 300.3 519.6 300.3C526.7 300.3 532.8 301.7 537.8 304.4C542.9 307.2 546.7 311.2 549.4 316.5C552.1 321.8 553.4 328.1 553.4 335.6V349.2C553.4 356.7 552.1 363.1 549.4 368.4C546.7 373.7 542.9 377.7 537.8 380.5C532.7 383.3 526.7 384.7 519.6 384.7C512.5 384.6 506.5 383.2 501.4 380.4ZM532.7 364C535.8 360.5 537.3 355.5 537.3 349.2V335.6C537.3 329.2 535.8 324.3 532.7 320.8C529.6 317.3 525.3 315.6 519.6 315.6C514 315.6 509.6 317.3 506.5 320.8C503.4 324.3 501.9 329.2 501.9 335.6V349.2C501.9 355.6 503.4 360.5 506.5 364C509.6 367.5 513.9 369.3 519.6 369.3C525.3 369.3 529.6 367.5 532.7 364ZM576.4 301.5H592.5V383.5H576.4V301.5ZM626.1 333.8C626.1 328 624.6 323.5 621.6 320.4C618.6 317.2 614.4 315.7 609 315.7C603.7 315.7 599.7 317.1 596.8 319.9C593.9 322.7 592.5 326.6 592.5 331.7L590.8 315.9C593.3 311 596.6 307.1 600.7 304.4C604.8 301.7 609.3 300.4 614.2 300.4C623.1 300.4 630 303.3 634.9 309.1C639.8 314.9 642.2 323.1 642.2 333.8V383.6H626.1V333.8V333.8ZM678.3 374.7H677.9L677.1 383.4H671.1V267.1H678.3V300.8L677.9 317.4H678.3C686.1 309.3 697.3 303.8 707.4 303.8C729.3 303.8 740.3 319.4 740.3 343.4C740.3 369.8 723.4 385.4 704.3 385.4C696.3 385.4 686 381.2 678.3 374.7ZM732.7 343.5C732.7 324.4 725.2 310.2 706.2 310.2C698.1 310.2 688 314.7 678.3 324.4V367.5C687.3 375.8 697.5 378.9 703.8 378.9C720.5 379 732.7 364.5 732.7 343.5ZM765.9 364.1C765.9 346.7 783.3 338.5 825.5 334.8C825.4 322 820.2 310.1 802.4 310.1C790.7 310.1 779.4 316.1 773 320.7L769.7 315.4C775.9 310.9 789.4 303.8 803.3 303.8C824.1 303.8 832.7 317.2 832.7 333.8V383.4H826.6L825.8 371.8H825.4C816.5 378.9 804.4 385.4 793 385.4C779.1 385.4 765.9 378.7 765.9 364.1ZM825.5 365.1V340.2C786 343.7 773.3 351.2 773.3 363.7C773.3 374.8 783.7 379.1 794.2 379.1C804.2 379.1 814.6 374.3 825.5 365.1ZM865.2 305.8H871.3L872.1 320.7H872.7C881.7 311.1 890.8 303.8 903.4 303.8C922.2 303.8 931.3 314 931.3 335V383.4H924V336C924 318.6 917.5 310.3 902.2 310.3C891.2 310.3 883.6 316.1 872.4 327.8V383.5H865.2V305.8ZM965.1 267.1H972.3V352.6H972.9L1022.8 305.8H1031.7L972.3 361.4V383.5H965.1V267.1ZM993.4 338.4L998.2 333.4L1036.9 383.4H1028.6L993.4 338.4Z" fill="#253B5C"/>
</svg>
