<?xml version="1.0" encoding="utf-8"?>
<!-- Generator: Adobe Illustrator 23.0.0, SVG Export Plug-In . SVG Version: 6.00 Build 0)  -->
<svg version="1.1" xmlns="http://www.w3.org/2000/svg" xmlns:xlink="http://www.w3.org/1999/xlink" x="0px" y="0px"
	 viewBox="0 0 1369.62 1369.62" style="enable-background:new 0 0 1369.62 1369.62;" xml:space="preserve">
<style type="text/css">
	.st0{display:none;}
	.st1{display:inline;fill:#262626;}
	.st2{display:inline;fill:#DFB163;}
	.st3{display:inline;fill:none;}
	.st4{display:inline;}
	.st5{fill:#262626;}
	.st6{fill:#DFB163;}
	.st7{fill:none;}
	.st8{display:inline;fill:#FFFFFF;}
	.st9{font-family:'Poppins-SemiBold';}
	.st10{font-size:125.7941px;}
</style>
<g id="Layer_1">
	<rect class="st0" width="1369.92" height="1369.92"/>
	<g class="st0">
		<path class="st1" d="M1169.19,200.58C1039.85,71.23,867.88,0,684.96,0C502.04,0,330.07,71.23,200.72,200.58
			S0.15,501.89,0.15,684.81c0,182.92,71.23,354.89,200.58,484.24s301.31,200.58,484.23,200.58c182.92,0,354.89-71.23,484.24-200.58
			s200.58-301.31,200.58-484.24C1369.77,501.89,1298.54,329.92,1169.19,200.58z M684.96,1349.33c-367,0-664.52-297.52-664.52-664.52
			S317.95,20.29,684.96,20.29s664.52,297.52,664.52,664.52S1051.96,1349.33,684.96,1349.33z"/>
		<circle class="st2" cx="684.96" cy="684.81" r="469.89"/>
		<path id="SVGID_x5F_1_x5F_" class="st3" d="M1154.84,684.81c0-259.51-210.38-469.89-469.89-469.89S215.07,425.3,215.07,684.81
			s210.38,469.89,469.89,469.89S1154.84,944.32,1154.84,684.81z"/>
		<text class="st4">		<textPath  xlink:href="#SVGID_x5F_1_x5F_" startOffset="73.519%">
<tspan  class="st5 st9" style="font-size:152.183px;">VOFSTORAGE</tspan>		</textPath>
</text>
		<path class="st1" d="M453.83,913.78c5.34-1.27,10.63-3.14,16.01-3.67c10.7-1.05,26.01,3.72,30.99-3.3
			c5.76-8.11,2.94-26.34,2.97-40.18c0.17-77.36,0.06-154.72,0.1-232.08c0.01-20.06,2.13-22.68,17.99-22.72
			c27.96-0.07,55.91-0.02,85.55-0.02c0,7.46,0,13.3,0,19.14c0,86.4,0,172.8,0.01,259.2c0,21.84,1.34,23.01,20.85,17.16
			c0-5.11,0-10.53,0-15.96c0-127.59-0.01-255.18-0.01-382.78c0-25.65,0.8-26.65,20.72-26.64c64.14,0.03,128.28,0.02,192.42,0.03
			c24.89,0,26.7,2.65,23.95,37.08c-3.91,0.35-8.1,1.01-12.28,1.04c-18.44,0.11-36.88,0.13-55.32-0.01
			c-9.09-0.07-14.8,4.6-14.79,16.63c0.06,123.06,0.21,246.11,0.35,369.17c0,0.45,0.26,0.9,0.8,2.66c5.74,0,11.9,0,19.56,0
			c0-11.87,0-23.62,0-36.38c21.27,0,41.07,0,62.4,0c0,12.14,0,23.9,0,35.38c17.27,6.7,35.23-3.99,49.98,11.29
			c-153.86,0-307.72,0-461.57,0C454.28,917.16,454.06,915.47,453.83,913.78z"/>
		<path class="st1" d="M834.93,454.87c-59.17,0-116.69,0-173.66,0c-0.8-1.25-1.22-1.6-1.26-2c-3.67-35.74-3.67-35.74,24.79-35.74
			c45.3,0,90.61,0.48,135.91-0.33c11.72-0.21,16.03,4.19,14.33,18.63C834.35,441.27,834.93,447.35,834.93,454.87z"/>
		<path class="st1" d="M607.61,378.01c93.52,0,185.47,0,277.42,0c0.59,1.43,1.18,2.85,1.77,4.28c-4.35,2.76-8.56,7.33-13.08,7.9
			c-9.91,1.25-19.98,0.53-29.99,0.52c-73.24-0.06-146.48-0.14-219.72-0.24C617.33,390.47,610.26,391.15,607.61,378.01z"/>
		<path class="st1" d="M606.41,495.82c0.39,3.52,0.95,6.38,0.96,9.25c0.02,4.37-0.35,8.75-0.65,15.09c-10.84,0-21.11,0-31.37,0
			c-25.57,0-51.15,0.04-76.72-0.04c-6.97-0.02-14.6-0.08-14.61-12.28c-0.01-11.59,6.88-13.06,14.26-13.05
			c33.56,0.05,67.13,0.01,100.69,0.07C601.28,494.85,603.59,495.43,606.41,495.82z"/>
		<path class="st1" d="M607.43,584.54c-24.74,0-47.75,0-70.44,0c-0.72-1.67-1.35-2.48-1.43-3.38c-3.22-34.29-3.21-34.29,23.89-34.27
			c12.81,0.01,25.64,0.35,38.44-0.13c7.27-0.28,10.19,3,9.64,12.21C607.06,566.93,607.43,574.96,607.43,584.54z"/>
		<path class="st1" d="M866.27,714.19c-21.1,0-40.84,0-61.41,0c0-12.27,0-23.96,0-37.53c18.72,0,36.99-0.28,55.23,0.38
			c2.12,0.08,5.63,5.12,5.9,8.2C866.78,694.52,866.27,703.97,866.27,714.19z"/>
		<path class="st1" d="M866.29,584.66c-21.18,0-40.6,0-61.13,0c0-11.74,0-23.37,0-37.49c18.58,0,37.52-0.22,56.44,0.39
			c1.62,0.05,4.26,5.43,4.48,8.55C866.69,564.96,866.29,573.93,866.29,584.66z"/>
		<path class="st1" d="M866.26,844.2c-21.3,0-40.83,0-61.29,0c0-12.12,0-23.85,0-37.97c18.62,0,37.27-0.23,55.9,0.35
			c1.85,0.06,4.94,4.88,5.14,7.75C866.68,823.71,866.26,833.2,866.26,844.2z"/>
		<path class="st1" d="M865.45,778.78c-20.48,0-39.95,0-60.42,0c0-12.03,0-23.64,0-36.31c20.09,0,39.81,0,60.42,0
			C865.45,754.38,865.45,765.6,865.45,778.78z"/>
		<path class="st1" d="M804.71,612.49c20.86,0,40.31,0,60.68,0c0,11.95,0,23.17,0,35.7c-20.02,0-40.02,0-60.68,0
			C804.71,636.4,804.71,625.18,804.71,612.49z"/>
		<path class="st1" d="M1253.75,742.47c-29.89,286.56-272.17,509.96-566.65,509.96c-294.48,0-536.76-223.4-566.65-509.96h-8.17
			c13.46,131.76,71.27,253.9,166.2,348.82c109.15,109.15,254.27,169.26,408.63,169.26s299.48-60.11,408.63-169.26
			c94.93-94.93,152.74-217.07,166.2-348.82H1253.75z"/>
		<rect x="12.32" y="742.47" class="st1" width="108.14" height="7.73"/>
		<rect x="1254.9" y="742.47" class="st1" width="108.14" height="7.73"/>
	</g>
	<g>
		<path class="st5" d="M1169.04,200.58C1039.7,71.23,867.73,0,684.81,0C501.89,0,329.92,71.23,200.58,200.58S0,501.89,0,684.81
			c0,182.92,71.23,354.89,200.58,484.24s301.31,200.58,484.23,200.58c182.92,0,354.89-71.23,484.24-200.58
			s200.58-301.31,200.58-484.24C1369.62,501.89,1298.39,329.92,1169.04,200.58z M684.81,1349.33c-367,0-664.52-297.52-664.52-664.52
			S317.81,20.29,684.81,20.29s664.52,297.52,664.52,664.52S1051.81,1349.33,684.81,1349.33z"/>
		<circle class="st6" cx="684.81" cy="684.81" r="469.89"/>
		<path id="SVGID_x5F_2_x5F_" class="st7" d="M1154.7,684.81c0,259.51-210.38,469.89-469.89,469.89S214.92,944.32,214.92,684.81
			S425.3,214.92,684.81,214.92S1154.7,425.3,1154.7,684.81z"/>
		<text class="st0">		<textPath  xlink:href="#SVGID_x5F_2_x5F_" startOffset="1409.7656%"  class="st4">
<tspan  class="st6" style="font-family:'Poppins-Bold'; font-size:164px;">VOFSTORAGE</tspan>		</textPath>
</text>
		<g class="st0">
			<path class="st2" d="M213.54,336.96L230,312.25l73.18,97.81l-19.46,29.21l-118.45-29.83l16.55-24.84l88.16,24.43L213.54,336.96z"
				/>
			<path class="st2" d="M370.82,336.77c-24.22,21.88-60.31,21.56-83.51-4.12c-23.2-25.68-19.75-61.5,4.46-83.37
				c24.34-21.99,59.96-21.46,83.15,4.22S395.04,314.89,370.82,336.77z M353.67,317.79c13.63-12.31,13.61-30.2,0.08-45.16
				c-13.74-15.21-31.31-16.8-44.94-4.49c-13.87,12.53-13.95,30.06-0.21,45.27C322.13,328.38,339.8,330.32,353.67,317.79z"/>
			<path class="st2" d="M366.48,192.7l65.2-36.96l11.08,19.55l-40.8,23.13l11.97,21.12l30.53-17.31l10.76,18.98l-30.53,17.31
				l22.97,40.52l-24.4,13.83L366.48,192.7z"/>
			<path class="st2" d="M537.07,239.83c-23.48,7.87-45.74,2.36-53.92-19.46l28.3-9.49c3.59,8.14,10.23,10.41,17.7,7.91
				c7.78-2.61,11.45-8.16,9.31-14.54c-6.78-20.22-57.71,8.97-70.38-29.86c-6.93-20.68,6.16-37.87,29.02-45.53
				c23.79-7.97,43.77-1.53,51.84,18.95l-28.77,9.64c-2.81-6.84-9.2-9.37-16.4-7.13c-6.43,1.98-10.15,6.86-7.86,13.71
				c6.36,18.97,57.45-7.67,69.7,28.87C571.77,211.24,562.58,231.28,537.07,239.83z"/>
			<path class="st2" d="M567.81,109.79l88.37-10.99l2.77,22.3l-30.27,3.77l11.44,91.95l-27.83,3.46l-11.44-91.95l-30.27,3.77
				L567.81,109.79z"/>
			<path class="st2" d="M732.67,218.49c-32.47-3.28-56.44-30.27-52.96-64.69s32.35-55.9,64.82-52.62
				c32.63,3.3,56.13,30.07,52.65,64.5S765.14,221.77,732.67,218.49z M735.24,193.03c18.27,1.85,31.52-10.17,33.55-30.23
				c2.06-20.4-8.55-34.49-26.82-36.34c-18.6-1.88-31.65,9.82-33.71,30.22C706.23,176.75,716.64,191.15,735.24,193.03z"/>
			<path class="st2" d="M882.74,134.14c26.61,9.37,34.52,29.37,27.87,48.24c-4.79,13.61-16.74,23.84-35.19,22.9l9.92,51.83
				l-29.86-10.51l-8.15-48.95l-6.34-2.23l-14.44,40.99l-26.45-9.31l38.24-108.59L882.74,134.14z M873.46,155.56l-16.4-5.77
				l-9.48,26.92l16.4,5.77c9.9,3.49,16.34,0.02,19.33-8.49C886.15,165.94,883.36,159.05,873.46,155.56z"/>
			<path class="st2" d="M966.31,282.85l-36.22-23.12l-16.75,13.43l-24.74-15.8l97.07-74.62l27.37,17.47l-26.85,119.45l-25.02-15.97
				L966.31,282.85z M982.54,217.52l-34.57,27.93l23.91,15.27L982.54,217.52z"/>
			<path class="st2" d="M1121.57,348.28l-21.28-22.53c2.68-8.39,0.25-16.93-6.95-24.56c-12.39-13.12-29.91-13.04-44.45,0.7
				c-15.5,14.64-16.23,32.02-2.38,46.68c9.57,10.13,21.58,12.1,33.93,6.31L1056,329l15.02-14.19l41.89,44.35l-18.96,17.9
				c-18.48,9.33-46.08,9.01-66.91-13.05c-23.65-25.04-22.78-59.24,2.26-82.88c25.04-23.64,59.24-22.78,82.88,2.26
				C1131.09,303.42,1134.57,327.65,1121.57,348.28z"/>
			<path class="st2" d="M1185.53,425.65l-21.94-36.37l-19.94,12.03l19.4,32.16l-18.54,11.18l-19.4-32.16l-21.63,13.05l21.94,36.37
				l-19.24,11.61l-36.43-60.38l98.58-59.47l36.43,60.38L1185.53,425.65z"/>
		</g>
		<g>
			<path class="st5" d="M359.05,828.5l9.75,28.04l-122.16-0.76l-11.53-33.15l95.33-76.38l9.8,28.19l-72.73,55.5L359.05,828.5z"/>
			<path class="st5" d="M309.07,968.91c-19.69-26.03-16.24-61.96,11.35-82.84c27.6-20.88,62.98-14.34,82.68,11.68
				c19.79,26.16,16.17,61.6-11.42,82.48C364.08,1001.12,328.76,994.94,309.07,968.91z M329.47,953.47
				c11.08,14.65,28.9,16.18,44.99,4c16.35-12.37,19.46-29.74,8.37-44.38c-11.28-14.91-28.74-16.51-45.09-4.14
				C321.65,921.13,318.19,938.56,329.47,953.47z"/>
			<path class="st5" d="M442.72,946.43l59.66,45.37l-13.6,17.88l-37.33-28.39l-14.69,19.32l27.94,21.24l-13.2,17.36l-27.94-21.25
				l-28.19,37.07l-22.32-16.98L442.72,946.43z"/>
			<path class="st5" d="M498.26,1117.46c-22.71-9.88-35.54-28.89-27-50.57l27.37,11.91c-2.78,8.45,0.63,14.58,7.85,17.73
				c7.52,3.27,13.97,1.61,16.65-4.56c8.51-19.55-48.85-32-32.25-69.31c8.71-20,29.94-23.99,52.05-14.37
				c23.01,10.02,33.52,28.19,25.8,48.79l-27.82-12.11c2.49-6.96-0.55-13.12-7.4-16.28c-6.1-2.83-12.14-1.71-15.02,4.91
				c-7.99,18.35,47.79,32.79,32.41,68.13C543.17,1119.48,522.92,1128.2,498.26,1117.46z"/>
			<path class="st5" d="M583.68,1027.9l87.91,14.21l-3.59,22.18l-30.11-4.87l-14.79,91.47l-27.68-4.48l14.79-91.47l-30.11-4.87
				L583.68,1027.9z"/>
			<path class="st5" d="M742.18,1152.39c-32.4,3.92-61.71-17.14-65.87-51.5s19.3-61.64,51.7-65.57
				c32.56-3.94,61.37,17.02,65.53,51.37S774.58,1148.46,742.18,1152.39z M739.1,1126.99c18.24-2.21,28.52-16.83,26.1-36.86
				c-2.46-20.35-15.91-31.77-34.14-29.57c-18.56,2.25-28.73,16.53-26.26,36.88C707.22,1117.47,720.54,1129.23,739.1,1126.99z"/>
			<path class="st5" d="M832.32,1007.6c25.77-11.47,45.26-2.37,53.39,15.91c5.87,13.18,4.21,28.82-9.84,40.82l42.81,30.85
				l-28.92,12.87l-39.54-29.97l-6.14,2.73l17.67,39.7l-25.62,11.4l-46.81-105.18L832.32,1007.6z M840.29,1029.54l-15.88,7.07
				l11.6,26.07l15.88-7.07c9.59-4.27,11.88-11.21,8.22-19.45C856.64,1028.37,849.88,1025.28,840.29,1029.54z"/>
			<path class="st5" d="M992.18,1013.56l-32.73,27.84l7.93,19.95l-22.36,19.02l-42.85-114.68l24.73-21.04l106.32,60.71l-22.61,19.23
				L992.18,1013.56z M934.49,978.88l16.56,41.24l21.61-18.38L934.49,978.88z"/>
			<path class="st5" d="M1045.95,845.2l-16.44,26.28c-8.8-0.47-16.45,4.03-22.01,12.92c-9.57,15.29-5.07,32.23,11.89,42.84
				c18.08,11.31,35.08,7.63,45.78-9.47c7.39-11.82,6.27-23.93-2.45-34.42l-18.87,30.17l-17.52-10.96l32.35-51.72l22.11,13.83
				c13.69,15.53,20.34,42.32,4.25,68.04c-18.26,29.2-51.58,36.99-80.77,18.73c-29.2-18.27-36.99-51.58-18.73-80.77
				C1000.14,847.3,1022.71,837.82,1045.95,845.2z"/>
			<path class="st5" d="M1056.81,757.73l-12.11,40.71l22.32,6.64l10.71-36l20.75,6.17l-10.71,36l24.21,7.2l12.11-40.71l21.54,6.4
				l-20.1,67.59l-110.35-32.82l20.1-67.59L1056.81,757.73z"/>
		</g>
		<path class="st5" d="M453.68,913.78c5.34-1.27,10.63-3.14,16.01-3.67c10.7-1.05,26.01,3.72,30.99-3.3
			c5.76-8.11,2.94-26.34,2.97-40.18c0.17-77.36,0.06-154.72,0.1-232.08c0.01-20.06,2.13-22.68,17.99-22.72
			c27.96-0.07,55.91-0.02,85.55-0.02c0,7.46,0,13.3,0,19.14c0,86.4,0,172.8,0.01,259.2c0,21.84,1.34,23.01,20.85,17.16
			c0-5.11,0-10.53,0-15.96c0-127.59-0.01-255.18-0.01-382.78c0-25.65,0.8-26.65,20.72-26.64c64.14,0.03,128.28,0.02,192.42,0.03
			c24.89,0,26.7,2.65,23.95,37.08c-3.91,0.35-8.1,1.01-12.28,1.04c-18.44,0.11-36.88,0.13-55.32-0.01
			c-9.09-0.07-14.8,4.6-14.79,16.63c0.06,123.06,0.21,246.11,0.35,369.17c0,0.45,0.26,0.9,0.8,2.66c5.74,0,11.9,0,19.56,0
			c0-11.87,0-23.62,0-36.38c21.27,0,41.07,0,62.4,0c0,12.14,0,23.9,0,35.38c17.27,6.7,35.23-3.99,49.98,11.29
			c-153.86,0-307.72,0-461.57,0C454.14,917.16,453.91,915.47,453.68,913.78z"/>
		<path class="st5" d="M834.78,454.87c-59.17,0-116.69,0-173.66,0c-0.8-1.25-1.22-1.6-1.26-2c-3.67-35.74-3.67-35.74,24.79-35.74
			c45.3,0,90.61,0.48,135.91-0.33c11.72-0.21,16.03,4.19,14.33,18.63C834.2,441.27,834.78,447.35,834.78,454.87z"/>
		<path class="st5" d="M607.46,378.01c93.52,0,185.47,0,277.42,0c0.59,1.43,1.18,2.85,1.77,4.28c-4.35,2.76-8.56,7.33-13.08,7.9
			c-9.91,1.25-19.98,0.53-29.99,0.52c-73.24-0.06-146.48-0.14-219.72-0.24C617.18,390.47,610.11,391.15,607.46,378.01z"/>
		<path class="st5" d="M606.26,495.82c0.39,3.52,0.95,6.38,0.96,9.25c0.02,4.37-0.35,8.75-0.65,15.09c-10.84,0-21.11,0-31.37,0
			c-25.57,0-51.15,0.04-76.72-0.04c-6.97-0.02-14.6-0.08-14.61-12.28c-0.01-11.59,6.88-13.06,14.26-13.05
			c33.56,0.05,67.13,0.01,100.69,0.07C601.14,494.85,603.44,495.43,606.26,495.82z"/>
		<path class="st5" d="M607.29,584.54c-24.74,0-47.75,0-70.44,0c-0.72-1.67-1.35-2.48-1.43-3.38c-3.22-34.29-3.21-34.29,23.89-34.27
			c12.81,0.01,25.64,0.35,38.44-0.13c7.27-0.28,10.19,3,9.64,12.21C606.91,566.93,607.29,574.96,607.29,584.54z"/>
		<path class="st5" d="M866.13,714.19c-21.1,0-40.84,0-61.41,0c0-12.27,0-23.96,0-37.53c18.72,0,36.99-0.28,55.23,0.38
			c2.12,0.08,5.63,5.12,5.9,8.2C866.63,694.52,866.13,703.97,866.13,714.19z"/>
		<path class="st5" d="M866.15,584.66c-21.18,0-40.6,0-61.13,0c0-11.74,0-23.37,0-37.49c18.58,0,37.52-0.22,56.44,0.39
			c1.62,0.05,4.26,5.43,4.48,8.55C866.54,564.96,866.15,573.93,866.15,584.66z"/>
		<path class="st5" d="M866.12,844.2c-21.3,0-40.83,0-61.29,0c0-12.12,0-23.85,0-37.97c18.62,0,37.27-0.23,55.9,0.35
			c1.85,0.06,4.94,4.88,5.14,7.75C866.53,823.71,866.12,833.2,866.12,844.2z"/>
		<path class="st5" d="M865.31,778.78c-20.48,0-39.95,0-60.42,0c0-12.03,0-23.64,0-36.31c20.09,0,39.81,0,60.42,0
			C865.31,754.38,865.31,765.6,865.31,778.78z"/>
		<path class="st5" d="M804.56,612.49c20.86,0,40.31,0,60.68,0c0,11.95,0,23.17,0,35.7c-20.02,0-40.02,0-60.68,0
			C804.56,636.4,804.56,625.18,804.56,612.49z"/>
		<path class="st5" d="M1253.6,742.47c-29.89,286.56-272.17,509.96-566.65,509.96c-294.48,0-536.76-223.4-566.65-509.96h-8.17
			c13.46,131.76,71.27,253.9,166.2,348.82c109.15,109.15,254.27,169.26,408.63,169.26s299.48-60.11,408.63-169.26
			c94.93-94.93,152.74-217.07,166.2-348.82H1253.6z"/>
		<rect x="12.17" y="742.47" class="st5" width="108.14" height="7.73"/>
		<rect x="1261.78" y="742.47" class="st5" width="108.14" height="7.73"/>
	</g>
	<g class="st0">
		<path class="st8" d="M1169.04,200.58C1039.7,71.23,867.73,0,684.81,0C501.89,0,329.92,71.23,200.58,200.58S0,501.89,0,684.81
			c0,182.92,71.23,354.89,200.58,484.24s301.31,200.58,484.23,200.58c182.92,0,354.89-71.23,484.24-200.58
			s200.58-301.31,200.58-484.24C1369.62,501.89,1298.39,329.92,1169.04,200.58z M684.81,1349.33c-367,0-664.52-297.52-664.52-664.52
			S317.81,20.29,684.81,20.29s664.52,297.52,664.52,664.52S1051.81,1349.33,684.81,1349.33z"/>
		<circle class="st8" cx="684.81" cy="684.81" r="469.89"/>
		<path id="SVGID_x5F_3_x5F_" class="st3" d="M1154.7,684.81c0,259.51-210.38,469.89-469.89,469.89S214.92,944.32,214.92,684.81
			S425.3,214.92,684.81,214.92S1154.7,425.3,1154.7,684.81z"/>
		<text>		<textPath  xlink:href="#SVGID_x5F_3_x5F_" startOffset="1409.7656%"  class="st4">
<tspan  class="st6" style="font-family:'Poppins-Bold'; font-size:164px;">VOFSTORAGE</tspan>		</textPath>
</text>
		<g class="st4">
			<path class="st6" d="M213.54,336.96L230,312.25l73.18,97.81l-19.46,29.21l-118.45-29.83l16.55-24.84l88.16,24.43L213.54,336.96z"
				/>
			<path class="st6" d="M370.82,336.77c-24.22,21.88-60.31,21.56-83.51-4.12c-23.2-25.68-19.75-61.5,4.46-83.37
				c24.34-21.99,59.96-21.46,83.15,4.22S395.04,314.89,370.82,336.77z M353.67,317.79c13.63-12.31,13.61-30.2,0.08-45.16
				c-13.74-15.21-31.31-16.8-44.94-4.49c-13.87,12.53-13.95,30.06-0.21,45.27C322.13,328.38,339.8,330.32,353.67,317.79z"/>
			<path class="st6" d="M366.48,192.7l65.2-36.96l11.08,19.55l-40.8,23.13l11.97,21.12l30.53-17.31l10.76,18.98l-30.53,17.31
				l22.97,40.52l-24.4,13.83L366.48,192.7z"/>
			<path class="st6" d="M537.07,239.83c-23.48,7.87-45.74,2.36-53.92-19.46l28.3-9.49c3.59,8.14,10.23,10.41,17.7,7.91
				c7.78-2.61,11.45-8.16,9.31-14.54c-6.78-20.22-57.71,8.97-70.38-29.86c-6.93-20.68,6.16-37.87,29.02-45.53
				c23.79-7.97,43.77-1.53,51.84,18.95l-28.77,9.64c-2.81-6.84-9.2-9.37-16.4-7.13c-6.43,1.98-10.15,6.86-7.86,13.71
				c6.36,18.97,57.45-7.67,69.7,28.87C571.77,211.24,562.58,231.28,537.07,239.83z"/>
			<path class="st6" d="M567.81,109.79l88.37-10.99l2.77,22.3l-30.27,3.77l11.44,91.95l-27.83,3.46l-11.44-91.95l-30.27,3.77
				L567.81,109.79z"/>
			<path class="st6" d="M732.67,218.49c-32.47-3.28-56.44-30.27-52.96-64.69s32.35-55.9,64.82-52.62
				c32.63,3.3,56.13,30.07,52.65,64.5S765.14,221.77,732.67,218.49z M735.24,193.03c18.27,1.85,31.52-10.17,33.55-30.23
				c2.06-20.4-8.55-34.49-26.82-36.34c-18.6-1.88-31.65,9.82-33.71,30.22C706.23,176.75,716.64,191.15,735.24,193.03z"/>
			<path class="st6" d="M882.74,134.14c26.61,9.37,34.52,29.37,27.87,48.24c-4.79,13.61-16.74,23.84-35.19,22.9l9.92,51.83
				l-29.86-10.51l-8.15-48.95l-6.34-2.23l-14.44,40.99l-26.45-9.31l38.24-108.59L882.74,134.14z M873.46,155.56l-16.4-5.77
				l-9.48,26.92l16.4,5.77c9.9,3.49,16.34,0.02,19.33-8.49C886.15,165.94,883.36,159.05,873.46,155.56z"/>
			<path class="st6" d="M966.31,282.85l-36.22-23.12l-16.75,13.43l-24.74-15.8l97.07-74.62l27.37,17.47l-26.85,119.45l-25.02-15.97
				L966.31,282.85z M982.54,217.52l-34.57,27.93l23.91,15.27L982.54,217.52z"/>
			<path class="st6" d="M1121.57,348.28l-21.28-22.53c2.68-8.39,0.25-16.93-6.95-24.56c-12.39-13.12-29.91-13.04-44.45,0.7
				c-15.5,14.64-16.23,32.02-2.38,46.68c9.57,10.13,21.58,12.1,33.93,6.31L1056,329l15.02-14.19l41.89,44.35l-18.96,17.9
				c-18.48,9.33-46.08,9.01-66.91-13.05c-23.65-25.04-22.78-59.24,2.26-82.88c25.04-23.64,59.24-22.78,82.88,2.26
				C1131.09,303.42,1134.57,327.65,1121.57,348.28z"/>
			<path class="st6" d="M1185.53,425.65l-21.94-36.37l-19.94,12.03l19.4,32.16l-18.54,11.18l-19.4-32.16l-21.63,13.05l21.94,36.37
				l-19.24,11.61l-36.43-60.38l98.58-59.47l36.43,60.38L1185.53,425.65z"/>
		</g>
		<g>
			<path class="st2" d="M359.05,828.5l9.75,28.04l-122.16-0.76l-11.53-33.15l95.33-76.38l9.8,28.19l-72.73,55.5L359.05,828.5z"/>
			<path class="st2" d="M309.07,968.91c-19.69-26.03-16.24-61.96,11.35-82.84c27.6-20.88,62.98-14.34,82.68,11.68
				c19.79,26.16,16.17,61.6-11.42,82.48C364.08,1001.12,328.76,994.94,309.07,968.91z M329.47,953.47
				c11.08,14.65,28.9,16.18,44.99,4c16.35-12.37,19.46-29.74,8.37-44.38c-11.28-14.91-28.74-16.51-45.09-4.14
				C321.65,921.13,318.19,938.56,329.47,953.47z"/>
			<path class="st2" d="M442.72,946.43l59.66,45.37l-13.6,17.88l-37.33-28.39l-14.69,19.32l27.94,21.24l-13.2,17.36l-27.94-21.25
				l-28.19,37.07l-22.32-16.98L442.72,946.43z"/>
			<path class="st2" d="M498.26,1117.46c-22.71-9.88-35.54-28.89-27-50.57l27.37,11.91c-2.78,8.45,0.63,14.58,7.85,17.73
				c7.52,3.27,13.97,1.61,16.65-4.56c8.51-19.55-48.85-32-32.25-69.31c8.71-20,29.94-23.99,52.05-14.37
				c23.01,10.02,33.52,28.19,25.8,48.79l-27.82-12.11c2.49-6.96-0.55-13.12-7.4-16.28c-6.1-2.83-12.14-1.71-15.02,4.91
				c-7.99,18.35,47.79,32.79,32.41,68.13C543.17,1119.48,522.92,1128.2,498.26,1117.46z"/>
			<path class="st2" d="M583.68,1027.9l87.91,14.21l-3.59,22.18l-30.11-4.87l-14.79,91.47l-27.68-4.48l14.79-91.47l-30.11-4.87
				L583.68,1027.9z"/>
			<path class="st2" d="M742.18,1152.39c-32.4,3.92-61.71-17.14-65.87-51.5s19.3-61.64,51.7-65.57
				c32.56-3.94,61.37,17.02,65.53,51.37S774.58,1148.46,742.18,1152.39z M739.1,1126.99c18.24-2.21,28.52-16.83,26.1-36.86
				c-2.46-20.35-15.91-31.77-34.14-29.57c-18.56,2.25-28.73,16.53-26.26,36.88C707.22,1117.47,720.54,1129.23,739.1,1126.99z"/>
			<path class="st2" d="M832.32,1007.6c25.77-11.47,45.26-2.37,53.39,15.91c5.87,13.18,4.21,28.82-9.84,40.82l42.81,30.85
				l-28.92,12.87l-39.54-29.97l-6.14,2.73l17.67,39.7l-25.62,11.4l-46.81-105.18L832.32,1007.6z M840.29,1029.54l-15.88,7.07
				l11.6,26.07l15.88-7.07c9.59-4.27,11.88-11.21,8.22-19.45C856.64,1028.37,849.88,1025.28,840.29,1029.54z"/>
			<path class="st2" d="M992.18,1013.56l-32.73,27.84l7.93,19.95l-22.36,19.02l-42.85-114.68l24.73-21.04l106.32,60.71l-22.61,19.23
				L992.18,1013.56z M934.49,978.88l16.56,41.24l21.61-18.38L934.49,978.88z"/>
			<path class="st2" d="M1045.95,845.2l-16.44,26.28c-8.8-0.47-16.45,4.03-22.01,12.92c-9.57,15.29-5.07,32.23,11.89,42.84
				c18.08,11.31,35.08,7.63,45.78-9.47c7.39-11.82,6.27-23.93-2.45-34.42l-18.87,30.17l-17.52-10.96l32.35-51.72l22.11,13.83
				c13.69,15.53,20.34,42.32,4.25,68.04c-18.26,29.2-51.58,36.99-80.77,18.73c-29.2-18.27-36.99-51.58-18.73-80.77
				C1000.14,847.3,1022.71,837.82,1045.95,845.2z"/>
			<path class="st2" d="M1056.81,757.73l-12.11,40.71l22.32,6.64l10.71-36l20.75,6.17l-10.71,36l24.21,7.2l12.11-40.71l21.54,6.4
				l-20.1,67.59l-110.35-32.82l20.1-67.59L1056.81,757.73z"/>
		</g>
		<path class="st1" d="M453.68,913.78c5.34-1.27,10.63-3.14,16.01-3.67c10.7-1.05,26.01,3.72,30.99-3.3
			c5.76-8.11,2.94-26.34,2.97-40.18c0.17-77.36,0.06-154.72,0.1-232.08c0.01-20.06,2.13-22.68,17.99-22.72
			c27.96-0.07,55.91-0.02,85.55-0.02c0,7.46,0,13.3,0,19.14c0,86.4,0,172.8,0.01,259.2c0,21.84,1.34,23.01,20.85,17.16
			c0-5.11,0-10.53,0-15.96c0-127.59-0.01-255.18-0.01-382.78c0-25.65,0.8-26.65,20.72-26.64c64.14,0.03,128.28,0.02,192.42,0.03
			c24.89,0,26.7,2.65,23.95,37.08c-3.91,0.35-8.1,1.01-12.28,1.04c-18.44,0.11-36.88,0.13-55.32-0.01
			c-9.09-0.07-14.8,4.6-14.79,16.63c0.06,123.06,0.21,246.11,0.35,369.17c0,0.45,0.26,0.9,0.8,2.66c5.74,0,11.9,0,19.56,0
			c0-11.87,0-23.62,0-36.38c21.27,0,41.07,0,62.4,0c0,12.14,0,23.9,0,35.38c17.27,6.7,35.23-3.99,49.98,11.29
			c-153.86,0-307.72,0-461.57,0C454.14,917.16,453.91,915.47,453.68,913.78z"/>
		<path class="st1" d="M834.78,454.87c-59.17,0-116.69,0-173.66,0c-0.8-1.25-1.22-1.6-1.26-2c-3.67-35.74-3.67-35.74,24.79-35.74
			c45.3,0,90.61,0.48,135.91-0.33c11.72-0.21,16.03,4.19,14.33,18.63C834.2,441.27,834.78,447.35,834.78,454.87z"/>
		<path class="st1" d="M607.46,378.01c93.52,0,185.47,0,277.42,0c0.59,1.43,1.18,2.85,1.77,4.28c-4.35,2.76-8.56,7.33-13.08,7.9
			c-9.91,1.25-19.98,0.53-29.99,0.52c-73.24-0.06-146.48-0.14-219.72-0.24C617.18,390.47,610.11,391.15,607.46,378.01z"/>
		<path class="st1" d="M606.26,495.82c0.39,3.52,0.95,6.38,0.96,9.25c0.02,4.37-0.35,8.75-0.65,15.09c-10.84,0-21.11,0-31.37,0
			c-25.57,0-51.15,0.04-76.72-0.04c-6.97-0.02-14.6-0.08-14.61-12.28c-0.01-11.59,6.88-13.06,14.26-13.05
			c33.56,0.05,67.13,0.01,100.69,0.07C601.14,494.85,603.44,495.43,606.26,495.82z"/>
		<path class="st1" d="M607.29,584.54c-24.74,0-47.75,0-70.44,0c-0.72-1.67-1.35-2.48-1.43-3.38c-3.22-34.29-3.21-34.29,23.89-34.27
			c12.81,0.01,25.64,0.35,38.44-0.13c7.27-0.28,10.19,3,9.64,12.21C606.91,566.93,607.29,574.96,607.29,584.54z"/>
		<path class="st1" d="M866.13,714.19c-21.1,0-40.84,0-61.41,0c0-12.27,0-23.96,0-37.53c18.72,0,36.99-0.28,55.23,0.38
			c2.12,0.08,5.63,5.12,5.9,8.2C866.63,694.52,866.13,703.97,866.13,714.19z"/>
		<path class="st1" d="M866.15,584.66c-21.18,0-40.6,0-61.13,0c0-11.74,0-23.37,0-37.49c18.58,0,37.52-0.22,56.44,0.39
			c1.62,0.05,4.26,5.43,4.48,8.55C866.54,564.96,866.15,573.93,866.15,584.66z"/>
		<path class="st1" d="M866.12,844.2c-21.3,0-40.83,0-61.29,0c0-12.12,0-23.85,0-37.97c18.62,0,37.27-0.23,55.9,0.35
			c1.85,0.06,4.94,4.88,5.14,7.75C866.53,823.71,866.12,833.2,866.12,844.2z"/>
		<path class="st1" d="M865.31,778.78c-20.48,0-39.95,0-60.42,0c0-12.03,0-23.64,0-36.31c20.09,0,39.81,0,60.42,0
			C865.31,754.38,865.31,765.6,865.31,778.78z"/>
		<path class="st1" d="M804.56,612.49c20.86,0,40.31,0,60.68,0c0,11.95,0,23.17,0,35.7c-20.02,0-40.02,0-60.68,0
			C804.56,636.4,804.56,625.18,804.56,612.49z"/>
		<path class="st8" d="M1253.6,742.47c-29.89,286.56-272.17,509.96-566.65,509.96c-294.48,0-536.76-223.4-566.65-509.96h-8.17
			c13.46,131.76,71.27,253.9,166.2,348.82c109.15,109.15,254.27,169.26,408.63,169.26s299.48-60.11,408.63-169.26
			c94.93-94.93,152.74-217.07,166.2-348.82H1253.6z"/>
		<rect x="12.17" y="742.47" class="st8" width="108.14" height="7.73"/>
		<rect x="1261.78" y="742.47" class="st8" width="108.14" height="7.73"/>
	</g>
</g>
<g id="Layer_1_copy" class="st0">
	<g>
		<path class="st8" d="M1080.33,0H289.58l-395.38,684.81l395.38,684.81h790.75l395.37-684.81L1080.33,0z M1071.75,1354.76H298.17
			L-88.63,684.81L298.17,14.86h773.59l386.79,669.95L1071.75,1354.76z"/>
		<polygon class="st8" points="987.21,1061.56 1204.73,684.81 944.84,234.68 425.07,234.68 165.19,684.81 382.71,1061.56 		"/>
		<text transform="matrix(1 0 0 1 258.4818 1218.1641)" class="st2 st9 st10">VOFSTORAGE</text>
		<g class="st4">
			<path class="st5" d="M848.91,1019.27c0,13.51,0,26.1,0,38.66h97.46c0-12.58,0-25.43,0-38.66
				C913.06,1019.27,882.14,1019.27,848.91,1019.27z"/>
			<path class="st5" d="M574.94,1057.92H817.1c-0.22-152.27-0.45-304.53-0.54-456.8c-0.01-15.01,8.9-20.82,23.1-20.74
				c28.8,0.17,57.61,0.15,86.41,0.01c6.54-0.03,13.08-0.86,19.19-1.29c4.3-42.92,1.48-46.22-37.4-46.22
				c-100.19-0.02-200.38,0-300.57-0.04c-31.11-0.01-32.37,1.23-32.37,33.21c0.01,159.05,0.02,318.1,0.02,477.15
				C574.94,1048.16,574.94,1053.12,574.94,1057.92z"/>
			<path class="st5" d="M378.69,1057.92h164.56c-0.73-3.89-0.88-9.19-0.88-16.22c-0.01-107.7-0.01-215.41-0.01-323.11
				c0-7.28,0-14.57,0-23.86c-46.29,0-89.96-0.06-133.62,0.02c-24.78,0.05-28.08,3.32-28.1,28.32
				c-0.07,96.43,0.11,192.86-0.16,289.29C380.43,1027.38,383.76,1046.54,378.69,1057.92z"/>
		</g>
		<path class="st1" d="M897.68,486.09c-92.42,0-182.28,0-271.25,0c-1.25-1.55-1.9-1.99-1.97-2.5c-5.73-44.55-5.73-44.55,38.73-44.55
			c70.76,0,141.54,0.6,212.28-0.41c18.3-0.26,25.04,5.22,22.38,23.22C896.79,469.14,897.68,476.71,897.68,486.09z"/>
		<path class="st1" d="M542.62,390.27c146.07,0,289.7,0,433.33,0c0.92,1.78,1.84,3.56,2.76,5.33c-6.8,3.44-13.36,9.13-20.44,9.85
			c-15.48,1.56-31.21,0.66-46.84,0.65c-114.4-0.08-228.8-0.17-343.2-0.29C557.8,405.8,546.75,406.65,542.62,390.27z"/>
		<path class="st1" d="M540.75,537.12c0.61,4.39,1.49,7.96,1.5,11.53c0.02,5.45-0.55,10.9-1.01,18.81c-16.93,0-32.97,0-49,0
			c-39.94,0-79.89,0.05-119.83-0.06c-10.89-0.03-22.81-0.11-22.82-15.31c-0.01-14.44,10.74-16.28,22.27-16.27
			c52.43,0.06,104.85,0.01,157.28,0.09C532.74,535.92,536.33,536.64,540.75,537.12z"/>
		<path class="st1" d="M542.34,647.73c-38.64,0-74.59,0-110.03,0c-1.13-2.08-2.11-3.1-2.24-4.22c-5.03-42.75-5.02-42.74,37.32-42.72
			c20.02,0.01,40.04,0.44,60.04-0.17c11.36-0.34,15.92,3.74,15.06,15.22C541.76,625.77,542.34,635.78,542.34,647.73z"/>
		<path class="st1" d="M946.65,809.34c-32.95,0-63.8,0-95.93,0c0-15.3,0-29.87,0-46.79c29.24,0,57.78-0.35,86.28,0.47
			c3.31,0.09,8.8,6.38,9.21,10.23C947.43,784.82,946.65,796.6,946.65,809.34z"/>
		<path class="st1" d="M946.68,647.87c-33.09,0-63.41,0-95.49,0c0-14.63,0-29.13,0-46.74c29.02,0,58.6-0.27,88.16,0.48
			c2.53,0.06,6.66,6.77,6.99,10.65C947.3,623.31,946.68,634.49,946.68,647.87z"/>
		<path class="st1" d="M946.63,971.4c-33.27,0-63.78,0-95.74,0c0-15.11,0-29.74,0-47.33c29.08,0,58.21-0.28,87.32,0.44
			c2.88,0.07,7.72,6.08,8.03,9.66C947.28,945.86,946.63,957.69,946.63,971.4z"/>
		<path class="st1" d="M945.37,889.85c-31.99,0-62.4,0-94.37,0c0-15,0-29.47,0-45.26c31.38,0,62.19,0,94.37,0
			C945.37,859.44,945.37,873.43,945.37,889.85z"/>
		<path class="st1" d="M850.48,682.56c32.59,0,62.96,0,94.78,0c0,14.9,0,28.88,0,44.5c-31.27,0-62.51,0-94.78,0
			C850.48,712.37,850.48,698.38,850.48,682.56z"/>
	</g>
	<g>
		<path class="st1" d="M1080.33,0H289.58l-395.38,684.81l395.38,684.81h790.75l395.37-684.81L1080.33,0z M1071.75,1354.76H298.17
			L-88.63,684.81L298.17,14.86h773.59l386.79,669.95L1071.75,1354.76z"/>
		<polygon class="st2" points="987.21,1061.56 1204.73,684.81 944.84,234.68 425.07,234.68 165.19,684.81 382.71,1061.56 		"/>
		<text transform="matrix(1 0 0 1 258.4818 1218.1641)" class="st1 st9 st10">VOFSTORAGE</text>
		<path class="st1" d="M907.01,534.53c-87.63,0-172.83,0-257.19,0c-1.19-1.47-1.8-1.89-1.87-2.37
			c-5.44-42.24-5.43-42.24,36.72-42.24c67.1,0,134.2,0.57,201.28-0.39c17.35-0.25,23.74,4.95,21.22,22.01
			C906.16,518.46,907.01,525.64,907.01,534.53z"/>
		<path class="st1" d="M570.35,443.68c138.5,0,274.69,0,410.87,0c0.87,1.69,1.75,3.37,2.62,5.06c-6.44,3.26-12.67,8.66-19.38,9.34
			c-14.68,1.48-29.59,0.63-44.41,0.62c-108.47-0.07-216.94-0.16-325.41-0.28C584.75,458.41,574.27,459.21,570.35,443.68z"/>
		<path class="st1" d="M568.58,582.92c0.58,4.16,1.41,7.54,1.43,10.93c0.02,5.17-0.52,10.34-0.96,17.83c-16.05,0-31.26,0-46.46,0
			c-37.87,0-75.75,0.05-113.62-0.05c-10.33-0.03-21.62-0.1-21.64-14.51c-0.01-13.7,10.18-15.44,21.12-15.43
			c49.71,0.06,99.42,0.01,149.13,0.09C560.98,581.78,564.39,582.47,568.58,582.92z"/>
		<path class="st1" d="M570.09,687.8c-36.64,0-70.73,0-104.33,0c-1.07-1.97-2-2.94-2.12-4c-4.77-40.53-4.76-40.53,35.39-40.5
			c18.98,0.01,37.97,0.42,56.93-0.16c10.77-0.33,15.1,3.54,14.28,14.44C569.53,666.97,570.09,676.46,570.09,687.8z"/>
		<path class="st1" d="M953.44,841.03c-31.24,0-60.49,0-90.95,0c0-14.5,0-28.32,0-44.36c27.73,0,54.78-0.33,81.8,0.44
			c3.14,0.09,8.34,6.05,8.73,9.7C954.18,817.78,953.44,828.95,953.44,841.03z"/>
		<path class="st1" d="M953.47,687.93c-31.38,0-60.13,0-90.54,0c0-13.88,0-27.62,0-44.31c27.51,0,55.56-0.26,83.59,0.46
			c2.4,0.06,6.31,6.42,6.63,10.1C954.06,664.64,953.47,675.25,953.47,687.93z"/>
		<path class="st1" d="M953.43,994.7c-31.55,0-60.47,0-90.78,0c0-14.33,0-28.19,0-44.88c27.57,0,55.19-0.27,82.79,0.42
			c2.73,0.07,7.32,5.77,7.62,9.16C954.04,970.47,953.43,981.69,953.43,994.7z"/>
		<path class="st1" d="M952.23,917.37c-30.33,0-59.17,0-89.48,0c0-14.22,0-27.94,0-42.92c29.75,0,58.96,0,89.48,0
			C952.23,888.54,952.23,901.8,952.23,917.37z"/>
		<path class="st1" d="M862.26,720.82c30.9,0,59.7,0,89.87,0c0,14.13,0,27.38,0,42.19c-29.65,0-59.27,0-89.87,0
			C862.26,749.09,862.26,735.82,862.26,720.82z"/>
		<g class="st4">
			<path class="st5" d="M860.77,1040.75c0,5.88,0,11.57,0,17.17h92.41c0-5.65,0-11.37,0-17.17
				C921.59,1040.75,892.28,1040.75,860.77,1040.75z"/>
			<path class="st5" d="M417.57,1057.92h152.55c-0.01-100.75-0.01-201.5-0.01-302.26c0-6.91,0-13.81,0-22.63
				c-43.89,0-85.29-0.06-126.7,0.02c-23.5,0.04-26.63,3.15-26.64,26.85c-0.07,91.43,0.1,182.87-0.15,274.3
				C416.59,1041.59,417.43,1050.01,417.57,1057.92z"/>
			<path class="st5" d="M830.58,1057.92c-0.2-137.88-0.41-275.76-0.49-413.64c-0.01-14.23,8.44-19.74,21.91-19.66
				c27.31,0.16,54.62,0.14,81.93,0.01c6.2-0.03,12.4-0.82,18.19-1.23c4.08-40.69,1.4-43.82-35.46-43.83
				c-95-0.01-189.99,0-284.99-0.03c-29.5-0.01-30.69,1.17-30.69,31.49c0.01,148.97,0.01,297.93,0.02,446.9H830.58z"/>
		</g>
	</g>
</g>
</svg>
