<?xml version="1.0" standalone="no"?>
<!DOCTYPE svg PUBLIC "-//W3C//DTD SVG 20010904//EN"
 "http://www.w3.org/TR/2001/REC-SVG-20010904/DTD/svg10.dtd">
<svg version="1.0" xmlns="http://www.w3.org/2000/svg"
 width="148.000000pt" height="148.000000pt" viewBox="0 0 148.000000 148.000000"
 preserveAspectRatio="xMidYMid meet">

<g transform="translate(0.000000,148.000000) scale(0.100000,-0.100000)"
fill="#000000" stroke="none">
<path d="M660 1464 c-137 -24 -140 -25 -133 -53 3 -14 10 -36 14 -49 5 -13 9
-27 9 -31 0 -8 -77 -41 -96 -41 -5 0 -20 20 -32 45 -12 25 -26 45 -31 45 -19
0 -128 -81 -178 -132 -46 -47 -123 -153 -123 -169 0 -3 23 -16 50 -29 28 -13
49 -29 46 -34 -2 -6 -11 -30 -20 -52 l-17 -41 -50 14 c-28 8 -53 12 -56 9 -31
-30 -39 -262 -14 -373 l12 -51 55 18 c51 18 55 18 61 2 3 -9 12 -32 19 -51 8
-18 14 -35 14 -37 0 -2 -23 -15 -50 -29 l-51 -26 23 -41 c35 -62 151 -182 221
-228 l62 -40 24 48 c13 26 25 49 27 51 4 5 94 -30 99 -39 3 -4 -2 -30 -10 -56
-8 -27 -15 -50 -15 -51 0 -9 93 -25 175 -29 72 -4 121 -2 174 10 41 8 76 18
79 20 2 3 -3 26 -12 52 -9 26 -16 49 -16 51 0 5 89 43 99 43 4 0 18 -22 31
-50 27 -58 25 -58 137 27 68 51 146 140 179 205 14 27 14 28 -36 53 -27 14
-50 27 -50 29 0 2 9 24 20 50 23 51 29 53 89 31 46 -16 42 -19 60 50 14 51 14
230 1 292 -17 76 -20 78 -76 59 -26 -9 -50 -13 -53 -11 -6 7 -42 98 -38 100 1
1 23 14 50 29 30 17 45 32 41 39 -36 60 -91 131 -137 174 -52 50 -142 113
-159 113 -5 0 -18 -20 -30 -45 -12 -25 -28 -45 -35 -45 -10 0 -74 26 -92 37
-2 1 4 23 13 49 9 26 16 51 16 55 0 18 -226 44 -290 33z m210 -176 c130 -30
266 -127 338 -241 61 -96 84 -168 89 -277 9 -161 -41 -300 -147 -413 -226
-242 -607 -242 -829 -1 -234 255 -189 653 96 848 138 94 290 122 453 84z"/>
<path d="M440 1075 c0 -8 -4 -15 -10 -15 -5 0 -10 -7 -10 -15 0 -8 5 -15 11
-15 8 0 9 -16 4 -52 -4 -29 -8 -120 -9 -203 -1 -148 -1 -150 -23 -153 -13 -2
-23 -10 -23 -18 0 -9 -7 -14 -17 -12 -16 3 -19 22 -23 168 l-6 165 -2 -167 -2
-167 -45 -3 -45 -3 35 -74 c96 -199 320 -316 540 -281 176 27 344 162 399 318
l15 42 -45 0 -45 0 3 145 3 145 -72 0 -72 0 -7 60 -7 60 -47 0 c-38 0 -47 -3
-47 -17 1 -10 0 -37 -1 -60 -2 -41 -3 -43 -35 -43 -21 0 -36 7 -45 20 -27 44
-92 17 -92 -39 0 -14 -8 -21 -27 -23 -20 -2 -29 -9 -31 -25 -3 -19 -10 -23
-37 -23 l-34 0 2 135 c1 74 -1 135 -5 135 -5 0 -8 7 -8 15 0 18 -40 20 -40 3
-1 -7 -3 -111 -5 -232 -2 -120 -6 -221 -9 -224 -3 -2 -12 -2 -21 1 -12 5 -15
27 -16 109 -2 113 -7 326 -8 346 -1 17 -41 15 -41 -3z m680 -251 l0 -34 -55 0
c-37 0 -55 4 -55 13 0 6 -3 22 -6 34 -6 20 -2 22 47 25 30 2 57 2 62 0 4 -2 7
-19 7 -38z m-240 1 c0 -32 -2 -35 -30 -35 -28 0 -30 3 -30 35 0 32 2 35 30 35
28 0 30 -3 30 -35z m-222 -127 l-3 -73 -30 0 -30 0 -3 73 -3 72 36 0 36 0 -3
-72z m212 55 c-1 -35 -26 -117 -38 -121 -9 -3 -12 16 -12 67 0 69 1 71 25 71
17 0 25 -5 25 -17z m250 -73 c0 -73 -3 -90 -15 -90 -8 0 -15 6 -15 14 0 8 -10
16 -22 18 -18 2 -25 13 -35 53 -21 92 -20 95 37 95 l50 0 0 -90z"/>
</g>
</svg>
