<?xml version="1.0" encoding="utf-8"?>
<!-- Generator: Adobe Illustrator 23.0.0, SVG Export Plug-In . SVG Version: 6.00 Build 0)  -->
<svg version="1.1" id="Layer_1" xmlns="http://www.w3.org/2000/svg" xmlns:xlink="http://www.w3.org/1999/xlink" x="0px" y="0px"
	 viewBox="0 0 1369.6 1369.6" style="enable-background:new 0 0 1369.6 1369.6;" xml:space="preserve">
<style type="text/css">
	.st0{display:none;}
	.st1{display:inline;fill:#262626;}
	.st2{display:inline;fill:#DFB163;}
	.st3{display:inline;fill:none;}
	.st4{font-family:'ArialMT';}
	.st5{font-size:12px;}
	.st6{display:inline;}
	.st7{fill:#262626;}
	.st8{fill:#FFFFFF;}
	.st9{fill:none;}
</style>
<g>
	<rect class="st0" width="1369.9" height="1369.9"/>
	<g class="st0">
		<path class="st1" d="M1169,200.6C1039.7,71.2,867.7,0,684.8,0S329.9,71.2,200.6,200.6S0,501.9,0,684.8s71.2,354.9,200.6,484.2
			s301.3,200.6,484.2,200.6s354.9-71.2,484.2-200.6s200.6-301.3,200.6-484.2C1369.6,501.9,1298.4,329.9,1169,200.6z M684.8,1349.3
			c-367,0-664.5-297.5-664.5-664.5S317.8,20.3,684.8,20.3s664.5,297.5,664.5,664.5S1051.8,1349.3,684.8,1349.3z"/>
		<circle class="st2" cx="684.8" cy="684.8" r="469.9"/>
		<path id="SVGID_x5F_2_x5F_" class="st3" d="M1154.7,684.8c0,259.5-210.4,469.9-469.9,469.9S214.9,944.3,214.9,684.8
			s210.4-469.9,469.9-469.9S1154.7,425.3,1154.7,684.8z"/>
		<text class="st4 st5"> </text>
		<g>
			<path class="st2" d="M213.5,337l16.5-24.7l73.2,97.8l-19.5,29.2l-118.4-29.8l16.6-24.8L270,409L213.5,337z"/>
			<path class="st2" d="M370.8,336.8c-24.2,21.9-60.3,21.6-83.5-4.1s-19.8-61.5,4.5-83.4c24.3-22,60-21.5,83.1,4.2
				S395,314.9,370.8,336.8z M353.7,317.8c13.6-12.3,13.6-30.2,0.1-45.2c-13.7-15.2-31.3-16.8-44.9-4.5c-13.9,12.5-14,30.1-0.2,45.3
				C322.1,328.4,339.8,330.3,353.7,317.8z"/>
			<path class="st2" d="M366.5,192.7l65.2-37l11.1,19.6L402,198.4l12,21.1l30.5-17.3l10.8,19l-30.5,17.3l23,40.5l-24.4,13.8
				L366.5,192.7z"/>
			<path class="st2" d="M537.1,239.8c-23.5,7.9-45.7,2.4-53.9-19.5l28.3-9.5c3.6,8.1,10.2,10.4,17.7,7.9c7.8-2.6,11.5-8.2,9.3-14.5
				c-6.8-20.2-57.7,9-70.4-29.9c-6.9-20.7,6.2-37.9,29-45.5c23.8-8,43.8-1.5,51.8,18.9l-28.8,9.6c-2.8-6.8-9.2-9.4-16.4-7.1
				c-6.4,2-10.1,6.9-7.9,13.7c6.4,19,57.4-7.7,69.7,28.9C571.8,211.2,562.6,231.3,537.1,239.8z"/>
			<path class="st2" d="M567.8,109.8l88.4-11l2.8,22.3l-30.3,3.8l11.4,92l-27.8,3.5l-11.4-91.9l-30.3,3.8L567.8,109.8z"/>
			<path class="st2" d="M732.7,218.5c-32.5-3.3-56.4-30.3-53-64.7s32.3-55.9,64.8-52.6c32.6,3.3,56.1,30.1,52.7,64.5
				S765.1,221.8,732.7,218.5z M735.2,193c18.3,1.9,31.5-10.2,33.5-30.2c2.1-20.4-8.5-34.5-26.8-36.3c-18.6-1.9-31.7,9.8-33.7,30.2
				C706.2,176.8,716.6,191.1,735.2,193z"/>
			<path class="st2" d="M882.7,134.1c26.6,9.4,34.5,29.4,27.9,48.2c-4.8,13.6-16.7,23.8-35.2,22.9l9.9,51.8l-29.9-10.5l-8.2-48.9
				l-6.3-2.2l-14.4,41l-26.5-9.3l38.2-108.6L882.7,134.1z M873.5,155.6l-16.4-5.8l-9.5,26.9l16.4,5.8c9.9,3.5,16.3,0,19.3-8.5
				C886.2,165.9,883.4,159.1,873.5,155.6z"/>
			<path class="st2" d="M966.3,282.9l-36.2-23.1l-16.8,13.4l-24.7-15.8l97.1-74.6l27.4,17.5l-26.8,119.5l-25-16L966.3,282.9z
				 M982.5,217.5L948,245.5l23.9,15.3L982.5,217.5z"/>
			<path class="st2" d="M1121.6,348.3l-21.3-22.5c2.7-8.4,0.3-16.9-6.9-24.6c-12.4-13.1-29.9-13-44.4,0.7
				c-15.5,14.6-16.2,32-2.4,46.7c9.6,10.1,21.6,12.1,33.9,6.3L1056,329l15-14.2l41.9,44.4l-19,17.9c-18.5,9.3-46.1,9-66.9-13
				c-23.7-25-22.8-59.2,2.3-82.9s59.2-22.8,82.9,2.3C1131.1,303.4,1134.6,327.6,1121.6,348.3z"/>
			<path class="st2" d="M1185.5,425.6l-21.9-36.4l-19.9,12l19.4,32.2l-18.5,11.2l-19.4-32.2l-21.6,13l21.9,36.4l-19.2,11.6
				l-36.4-60.4l98.6-59.5l36.4,60.4L1185.5,425.6z"/>
		</g>
		<g class="st6">
			<path class="st7" d="M359,828.5l9.8,28l-122.2-0.8l-11.5-33.2l95.3-76.4l9.8,28.2l-72.7,55.5L359,828.5z"/>
			<path class="st7" d="M309.1,968.9c-19.7-26-16.2-62,11.4-82.8c27.6-20.9,63-14.3,82.7,11.7c19.8,26.2,16.2,61.6-11.4,82.5
				C364.1,1001.1,328.8,994.9,309.1,968.9z M329.5,953.5c11.1,14.7,28.9,16.2,45,4c16.4-12.4,19.5-29.7,8.4-44.4
				c-11.3-14.9-28.7-16.5-45.1-4.1C321.6,921.1,318.2,938.6,329.5,953.5z"/>
			<path class="st7" d="M442.7,946.4l59.7,45.4l-13.6,17.9l-37.3-28.4l-14.7,19.3l27.9,21.2l-13.2,17.4l-27.9-21.3l-28.2,37.1
				l-22.3-17L442.7,946.4z"/>
			<path class="st7" d="M498.3,1117.5c-22.7-9.9-35.5-28.9-27-50.6l27.4,11.9c-2.8,8.4,0.6,14.6,7.9,17.7c7.5,3.3,14,1.6,16.6-4.6
				c8.5-19.6-48.9-32-32.3-69.3c8.7-20,29.9-24,52-14.4c23,10,33.5,28.2,25.8,48.8l-27.8-12.1c2.5-7-0.5-13.1-7.4-16.3
				c-6.1-2.8-12.1-1.7-15,4.9c-8,18.3,47.8,32.8,32.4,68.1C543.2,1119.5,522.9,1128.2,498.3,1117.5z"/>
			<path class="st7" d="M583.7,1027.9l87.9,14.2l-3.6,22.2l-30.1-4.9l-14.8,91.5l-27.7-4.5l14.8-91.5l-30.1-4.9L583.7,1027.9z"/>
			<path class="st7" d="M742.2,1152.4c-32.4,3.9-61.7-17.1-65.9-51.5s19.3-61.6,51.7-65.6c32.6-3.9,61.4,17,65.5,51.4
				S774.6,1148.5,742.2,1152.4z M739.1,1127c18.2-2.2,28.5-16.8,26.1-36.9c-2.5-20.3-15.9-31.8-34.1-29.6
				c-18.6,2.3-28.7,16.5-26.3,36.9C707.2,1117.5,720.5,1129.2,739.1,1127z"/>
			<path class="st7" d="M832.3,1007.6c25.8-11.5,45.3-2.4,53.4,15.9c5.9,13.2,4.2,28.8-9.8,40.8l42.8,30.8l-28.9,12.9l-39.5-30
				l-6.1,2.7l17.7,39.7l-25.6,11.4l-46.8-105.2L832.3,1007.6z M840.3,1029.5l-15.9,7.1l11.6,26.1l15.9-7.1
				c9.6-4.3,11.9-11.2,8.2-19.4C856.6,1028.4,849.9,1025.3,840.3,1029.5z"/>
			<path class="st7" d="M992.2,1013.6l-32.7,27.8l7.9,19.9l-22.4,19l-42.8-114.7l24.7-21l106.3,60.7l-22.6,19.2L992.2,1013.6z
				 M934.5,978.9l16.6,41.2l21.6-18.4L934.5,978.9z"/>
			<path class="st7" d="M1045.9,845.2l-16.4,26.3c-8.8-0.5-16.5,4-22,12.9c-9.6,15.3-5.1,32.2,11.9,42.8
				c18.1,11.3,35.1,7.6,45.8-9.5c7.4-11.8,6.3-23.9-2.4-34.4l-18.9,30.2l-17.5-11l32.3-51.7l22.1,13.8c13.7,15.5,20.3,42.3,4.3,68
				c-18.3,29.2-51.6,37-80.8,18.7c-29.2-18.3-37-51.6-18.7-80.8C1000.1,847.3,1022.7,837.8,1045.9,845.2z"/>
			<path class="st7" d="M1056.8,757.7l-12.1,40.7l22.3,6.6l10.7-36l20.8,6.2l-10.7,36l24.2,7.2l12.1-40.7l21.5,6.4l-20.1,67.6
				l-110.3-32.8l20.1-67.6L1056.8,757.7z"/>
		</g>
		<path class="st1" d="M453.7,913.8c5.3-1.3,10.6-3.1,16-3.7c10.7-1,26,3.7,31-3.3c5.8-8.1,2.9-26.3,3-40.2
			c0.2-77.4,0.1-154.7,0.1-232.1c0-20.1,2.1-22.7,18-22.7c28-0.1,55.9,0,85.5,0c0,7.5,0,13.3,0,19.1c0,86.4,0,172.8,0,259.2
			c0,21.8,1.3,23,20.8,17.2c0-5.1,0-10.5,0-16c0-127.6,0-255.2,0-382.8c0-25.6,0.8-26.6,20.7-26.6c64.1,0,128.3,0,192.4,0
			c24.9,0,26.7,2.6,24,37.1c-3.9,0.3-8.1,1-12.3,1c-18.4,0.1-36.9,0.1-55.3,0c-9.1-0.1-14.8,4.6-14.8,16.6
			c0.1,123.1,0.2,246.1,0.3,369.2c0,0.5,0.3,0.9,0.8,2.7c5.7,0,11.9,0,19.6,0c0-11.9,0-23.6,0-36.4c21.3,0,41.1,0,62.4,0
			c0,12.1,0,23.9,0,35.4c17.3,6.7,35.2-4,50,11.3c-153.9,0-307.7,0-461.6,0C454.1,917.2,453.9,915.5,453.7,913.8z"/>
		<path class="st1" d="M834.8,454.9c-59.2,0-116.7,0-173.7,0c-0.8-1.3-1.2-1.6-1.3-2c-3.7-35.7-3.7-35.7,24.8-35.7
			c45.3,0,90.6,0.5,135.9-0.3c11.7-0.2,16,4.2,14.3,18.6C834.2,441.3,834.8,447.4,834.8,454.9z"/>
		<path class="st1" d="M607.5,378c93.5,0,185.5,0,277.4,0c0.6,1.4,1.2,2.9,1.8,4.3c-4.3,2.8-8.6,7.3-13.1,7.9
			c-9.9,1.3-20,0.5-30,0.5c-73.2-0.1-146.5-0.1-219.7-0.2C617.2,390.5,610.1,391.1,607.5,378z"/>
		<path class="st1" d="M606.3,495.8c0.4,3.5,1,6.4,1,9.3c0,4.4-0.3,8.8-0.7,15.1c-10.8,0-21.1,0-31.4,0c-25.6,0-51.2,0-76.7,0
			c-7,0-14.6-0.1-14.6-12.3c0-11.6,6.9-13.1,14.3-13c33.6,0,67.1,0,100.7,0.1C601.1,494.9,603.4,495.4,606.3,495.8z"/>
		<path class="st1" d="M607.3,584.5c-24.7,0-47.8,0-70.4,0c-0.7-1.7-1.3-2.5-1.4-3.4c-3.2-34.3-3.2-34.3,23.9-34.3
			c12.8,0,25.6,0.3,38.4-0.1c7.3-0.3,10.2,3,9.6,12.2C606.9,566.9,607.3,575,607.3,584.5z"/>
		<path class="st1" d="M866.1,714.2c-21.1,0-40.8,0-61.4,0c0-12.3,0-24,0-37.5c18.7,0,37-0.3,55.2,0.4c2.1,0.1,5.6,5.1,5.9,8.2
			C866.6,694.5,866.1,704,866.1,714.2z"/>
		<path class="st1" d="M866.2,584.7c-21.2,0-40.6,0-61.1,0c0-11.7,0-23.4,0-37.5c18.6,0,37.5-0.2,56.4,0.4c1.6,0,4.3,5.4,4.5,8.5
			C866.5,565,866.2,573.9,866.2,584.7z"/>
		<path class="st1" d="M866.1,844.2c-21.3,0-40.8,0-61.3,0c0-12.1,0-23.8,0-38c18.6,0,37.3-0.2,55.9,0.3c1.8,0.1,4.9,4.9,5.1,7.8
			C866.5,823.7,866.1,833.2,866.1,844.2z"/>
		<path class="st1" d="M865.3,778.8c-20.5,0-40,0-60.4,0c0-12,0-23.6,0-36.3c20.1,0,39.8,0,60.4,0
			C865.3,754.4,865.3,765.6,865.3,778.8z"/>
		<path class="st1" d="M804.6,612.5c20.9,0,40.3,0,60.7,0c0,12,0,23.2,0,35.7c-20,0-40,0-60.7,0
			C804.6,636.4,804.6,625.2,804.6,612.5z"/>
		<path class="st1" d="M1253.6,742.5c-29.9,286.6-272.2,510-566.7,510s-536.8-223.4-566.7-510h-8.2
			c13.5,131.8,71.3,253.9,166.2,348.8c109.1,109.2,254.3,169.3,408.6,169.3s299.5-60.1,408.6-169.3
			c94.9-94.9,152.7-217.1,166.2-348.8L1253.6,742.5L1253.6,742.5z"/>
		<rect x="12.2" y="742.5" class="st1" width="108.1" height="7.7"/>
		<rect x="1261.8" y="742.5" class="st1" width="108.1" height="7.7"/>
	</g>
	<g>
		<path class="st8" d="M1169,200.6C1039.7,71.2,867.7,0,684.8,0S329.9,71.2,200.6,200.6S0,501.9,0,684.8s71.2,354.9,200.6,484.2
			s301.3,200.6,484.2,200.6s354.9-71.2,484.2-200.6s200.6-301.3,200.6-484.2C1369.6,501.9,1298.4,329.9,1169,200.6z M684.8,1349.3
			c-367,0-664.5-297.5-664.5-664.5S317.8,20.3,684.8,20.3s664.5,297.5,664.5,664.5S1051.8,1349.3,684.8,1349.3z"/>
		<circle class="st8" cx="684.8" cy="684.8" r="469.9"/>
		<path id="SVGID_x5F_3_x5F_" class="st9" d="M1154.7,684.8c0,259.5-210.4,469.9-469.9,469.9S214.9,944.3,214.9,684.8
			s210.4-469.9,469.9-469.9S1154.7,425.3,1154.7,684.8z"/>
		<text class="st4 st5"> </text>
		<g class="st0">
			<path class="st2" d="M213.5,337l16.5-24.7l73.2,97.8l-19.5,29.2l-118.4-29.8l16.6-24.8L270,409L213.5,337z"/>
			<path class="st2" d="M370.8,336.8c-24.2,21.9-60.3,21.6-83.5-4.1s-19.8-61.5,4.5-83.4c24.3-22,60-21.5,83.1,4.2
				S395,314.9,370.8,336.8z M353.7,317.8c13.6-12.3,13.6-30.2,0.1-45.2c-13.7-15.2-31.3-16.8-44.9-4.5c-13.9,12.5-14,30.1-0.2,45.3
				C322.1,328.4,339.8,330.3,353.7,317.8z"/>
			<path class="st2" d="M366.5,192.7l65.2-37l11.1,19.6L402,198.4l12,21.1l30.5-17.3l10.8,19l-30.5,17.3l23,40.5l-24.4,13.8
				L366.5,192.7z"/>
			<path class="st2" d="M537.1,239.8c-23.5,7.9-45.7,2.4-53.9-19.5l28.3-9.5c3.6,8.1,10.2,10.4,17.7,7.9c7.8-2.6,11.5-8.2,9.3-14.5
				c-6.8-20.2-57.7,9-70.4-29.9c-6.9-20.7,6.2-37.9,29-45.5c23.8-8,43.8-1.5,51.8,18.9l-28.8,9.6c-2.8-6.8-9.2-9.4-16.4-7.1
				c-6.4,2-10.1,6.9-7.9,13.7c6.4,19,57.4-7.7,69.7,28.9C571.8,211.2,562.6,231.3,537.1,239.8z"/>
			<path class="st2" d="M567.8,109.8l88.4-11l2.8,22.3l-30.3,3.8l11.4,92l-27.8,3.5l-11.4-91.9l-30.3,3.8L567.8,109.8z"/>
			<path class="st2" d="M732.7,218.5c-32.5-3.3-56.4-30.3-53-64.7s32.3-55.9,64.8-52.6c32.6,3.3,56.1,30.1,52.7,64.5
				S765.1,221.8,732.7,218.5z M735.2,193c18.3,1.9,31.5-10.2,33.5-30.2c2.1-20.4-8.5-34.5-26.8-36.3c-18.6-1.9-31.7,9.8-33.7,30.2
				C706.2,176.8,716.6,191.1,735.2,193z"/>
			<path class="st2" d="M882.7,134.1c26.6,9.4,34.5,29.4,27.9,48.2c-4.8,13.6-16.7,23.8-35.2,22.9l9.9,51.8l-29.9-10.5l-8.2-48.9
				l-6.3-2.2l-14.4,41l-26.5-9.3l38.2-108.6L882.7,134.1z M873.5,155.6l-16.4-5.8l-9.5,26.9l16.4,5.8c9.9,3.5,16.3,0,19.3-8.5
				C886.2,165.9,883.4,159.1,873.5,155.6z"/>
			<path class="st2" d="M966.3,282.9l-36.2-23.1l-16.8,13.4l-24.7-15.8l97.1-74.6l27.4,17.5l-26.8,119.5l-25-16L966.3,282.9z
				 M982.5,217.5L948,245.5l23.9,15.3L982.5,217.5z"/>
			<path class="st2" d="M1121.6,348.3l-21.3-22.5c2.7-8.4,0.3-16.9-6.9-24.6c-12.4-13.1-29.9-13-44.4,0.7
				c-15.5,14.6-16.2,32-2.4,46.7c9.6,10.1,21.6,12.1,33.9,6.3L1056,329l15-14.2l41.9,44.4l-19,17.9c-18.5,9.3-46.1,9-66.9-13
				c-23.7-25-22.8-59.2,2.3-82.9s59.2-22.8,82.9,2.3C1131.1,303.4,1134.6,327.6,1121.6,348.3z"/>
			<path class="st2" d="M1185.5,425.6l-21.9-36.4l-19.9,12l19.4,32.2l-18.5,11.2l-19.4-32.2l-21.6,13l21.9,36.4l-19.2,11.6
				l-36.4-60.4l98.6-59.5l36.4,60.4L1185.5,425.6z"/>
		</g>
		<g>
			<path class="st7" d="M359,828.5l9.8,28l-122.2-0.8l-11.5-33.2l95.3-76.4l9.8,28.2l-72.7,55.5L359,828.5z"/>
			<path class="st7" d="M309.1,968.9c-19.7-26-16.2-62,11.4-82.8c27.6-20.9,63-14.3,82.7,11.7c19.8,26.2,16.2,61.6-11.4,82.5
				C364.1,1001.1,328.8,994.9,309.1,968.9z M329.5,953.5c11.1,14.7,28.9,16.2,45,4c16.4-12.4,19.5-29.7,8.4-44.4
				c-11.3-14.9-28.7-16.5-45.1-4.1C321.6,921.1,318.2,938.6,329.5,953.5z"/>
			<path class="st7" d="M442.7,946.4l59.7,45.4l-13.6,17.9l-37.3-28.4l-14.7,19.3l27.9,21.2l-13.2,17.4l-27.9-21.3l-28.2,37.1
				l-22.3-17L442.7,946.4z"/>
			<path class="st7" d="M498.3,1117.5c-22.7-9.9-35.5-28.9-27-50.6l27.4,11.9c-2.8,8.4,0.6,14.6,7.9,17.7c7.5,3.3,14,1.6,16.6-4.6
				c8.5-19.6-48.9-32-32.3-69.3c8.7-20,29.9-24,52-14.4c23,10,33.5,28.2,25.8,48.8l-27.8-12.1c2.5-7-0.5-13.1-7.4-16.3
				c-6.1-2.8-12.1-1.7-15,4.9c-8,18.3,47.8,32.8,32.4,68.1C543.2,1119.5,522.9,1128.2,498.3,1117.5z"/>
			<path class="st7" d="M583.7,1027.9l87.9,14.2l-3.6,22.2l-30.1-4.9l-14.8,91.5l-27.7-4.5l14.8-91.5l-30.1-4.9L583.7,1027.9z"/>
			<path class="st7" d="M742.2,1152.4c-32.4,3.9-61.7-17.1-65.9-51.5s19.3-61.6,51.7-65.6c32.6-3.9,61.4,17,65.5,51.4
				S774.6,1148.5,742.2,1152.4z M739.1,1127c18.2-2.2,28.5-16.8,26.1-36.9c-2.5-20.3-15.9-31.8-34.1-29.6
				c-18.6,2.3-28.7,16.5-26.3,36.9C707.2,1117.5,720.5,1129.2,739.1,1127z"/>
			<path class="st7" d="M832.3,1007.6c25.8-11.5,45.3-2.4,53.4,15.9c5.9,13.2,4.2,28.8-9.8,40.8l42.8,30.8l-28.9,12.9l-39.5-30
				l-6.1,2.7l17.7,39.7l-25.6,11.4l-46.8-105.2L832.3,1007.6z M840.3,1029.5l-15.9,7.1l11.6,26.1l15.9-7.1
				c9.6-4.3,11.9-11.2,8.2-19.4C856.6,1028.4,849.9,1025.3,840.3,1029.5z"/>
			<path class="st7" d="M992.2,1013.6l-32.7,27.8l7.9,19.9l-22.4,19l-42.8-114.7l24.7-21l106.3,60.7l-22.6,19.2L992.2,1013.6z
				 M934.5,978.9l16.6,41.2l21.6-18.4L934.5,978.9z"/>
			<path class="st7" d="M1045.9,845.2l-16.4,26.3c-8.8-0.5-16.5,4-22,12.9c-9.6,15.3-5.1,32.2,11.9,42.8
				c18.1,11.3,35.1,7.6,45.8-9.5c7.4-11.8,6.3-23.9-2.4-34.4l-18.9,30.2l-17.5-11l32.3-51.7l22.1,13.8c13.7,15.5,20.3,42.3,4.3,68
				c-18.3,29.2-51.6,37-80.8,18.7c-29.2-18.3-37-51.6-18.7-80.8C1000.1,847.3,1022.7,837.8,1045.9,845.2z"/>
			<path class="st7" d="M1056.8,757.7l-12.1,40.7l22.3,6.6l10.7-36l20.8,6.2l-10.7,36l24.2,7.2l12.1-40.7l21.5,6.4l-20.1,67.6
				l-110.3-32.8l20.1-67.6L1056.8,757.7z"/>
		</g>
		<path class="st7" d="M453.7,913.8c5.3-1.3,10.6-3.1,16-3.7c10.7-1,26,3.7,31-3.3c5.8-8.1,2.9-26.3,3-40.2
			c0.2-77.4,0.1-154.7,0.1-232.1c0-20.1,2.1-22.7,18-22.7c28-0.1,55.9,0,85.5,0c0,7.5,0,13.3,0,19.1c0,86.4,0,172.8,0,259.2
			c0,21.8,1.3,23,20.8,17.2c0-5.1,0-10.5,0-16c0-127.6,0-255.2,0-382.8c0-25.6,0.8-26.6,20.7-26.6c64.1,0,128.3,0,192.4,0
			c24.9,0,26.7,2.6,24,37.1c-3.9,0.3-8.1,1-12.3,1c-18.4,0.1-36.9,0.1-55.3,0c-9.1-0.1-14.8,4.6-14.8,16.6
			c0.1,123.1,0.2,246.1,0.3,369.2c0,0.5,0.3,0.9,0.8,2.7c5.7,0,11.9,0,19.6,0c0-11.9,0-23.6,0-36.4c21.3,0,41.1,0,62.4,0
			c0,12.1,0,23.9,0,35.4c17.3,6.7,35.2-4,50,11.3c-153.9,0-307.7,0-461.6,0C454.1,917.2,453.9,915.5,453.7,913.8z"/>
		<path class="st7" d="M834.8,454.9c-59.2,0-116.7,0-173.7,0c-0.8-1.3-1.2-1.6-1.3-2c-3.7-35.7-3.7-35.7,24.8-35.7
			c45.3,0,90.6,0.5,135.9-0.3c11.7-0.2,16,4.2,14.3,18.6C834.2,441.3,834.8,447.4,834.8,454.9z"/>
		<path class="st7" d="M607.5,378c93.5,0,185.5,0,277.4,0c0.6,1.4,1.2,2.9,1.8,4.3c-4.3,2.8-8.6,7.3-13.1,7.9
			c-9.9,1.3-20,0.5-30,0.5c-73.2-0.1-146.5-0.1-219.7-0.2C617.2,390.5,610.1,391.1,607.5,378z"/>
		<path class="st7" d="M606.3,495.8c0.4,3.5,1,6.4,1,9.3c0,4.4-0.3,8.8-0.7,15.1c-10.8,0-21.1,0-31.4,0c-25.6,0-51.2,0-76.7,0
			c-7,0-14.6-0.1-14.6-12.3c0-11.6,6.9-13.1,14.3-13c33.6,0,67.1,0,100.7,0.1C601.1,494.9,603.4,495.4,606.3,495.8z"/>
		<path class="st7" d="M607.3,584.5c-24.7,0-47.8,0-70.4,0c-0.7-1.7-1.3-2.5-1.4-3.4c-3.2-34.3-3.2-34.3,23.9-34.3
			c12.8,0,25.6,0.3,38.4-0.1c7.3-0.3,10.2,3,9.6,12.2C606.9,566.9,607.3,575,607.3,584.5z"/>
		<path class="st7" d="M866.1,714.2c-21.1,0-40.8,0-61.4,0c0-12.3,0-24,0-37.5c18.7,0,37-0.3,55.2,0.4c2.1,0.1,5.6,5.1,5.9,8.2
			C866.6,694.5,866.1,704,866.1,714.2z"/>
		<path class="st7" d="M866.2,584.7c-21.2,0-40.6,0-61.1,0c0-11.7,0-23.4,0-37.5c18.6,0,37.5-0.2,56.4,0.4c1.6,0,4.3,5.4,4.5,8.5
			C866.5,565,866.2,573.9,866.2,584.7z"/>
		<path class="st7" d="M866.1,844.2c-21.3,0-40.8,0-61.3,0c0-12.1,0-23.8,0-38c18.6,0,37.3-0.2,55.9,0.3c1.8,0.1,4.9,4.9,5.1,7.8
			C866.5,823.7,866.1,833.2,866.1,844.2z"/>
		<path class="st7" d="M865.3,778.8c-20.5,0-40,0-60.4,0c0-12,0-23.6,0-36.3c20.1,0,39.8,0,60.4,0
			C865.3,754.4,865.3,765.6,865.3,778.8z"/>
		<path class="st7" d="M804.6,612.5c20.9,0,40.3,0,60.7,0c0,12,0,23.2,0,35.7c-20,0-40,0-60.7,0
			C804.6,636.4,804.6,625.2,804.6,612.5z"/>
		<path class="st8" d="M1253.6,742.5c-29.9,286.6-272.2,510-566.7,510s-536.8-223.4-566.7-510h-8.2
			c13.5,131.8,71.3,253.9,166.2,348.8c109.1,109.2,254.3,169.3,408.6,169.3s299.5-60.1,408.6-169.3
			c94.9-94.9,152.7-217.1,166.2-348.8L1253.6,742.5L1253.6,742.5z"/>
		<rect x="12.2" y="742.5" class="st8" width="108.1" height="7.7"/>
		<rect x="1261.8" y="742.5" class="st8" width="108.1" height="7.7"/>
	</g>
</g>
</svg>
