<svg width="140" height="140" viewBox="0 0 140 140" fill="none" xmlns="http://www.w3.org/2000/svg">
<path d="M61.0893 0.248319C48.1298 2.51859 47.846 2.61318 48.5082 5.26183C48.792 6.58616 49.4542 8.66724 49.8325 9.89697C50.3055 11.1267 50.6839 12.451 50.6839 12.8294C50.6839 13.5862 43.4001 16.7078 41.6028 16.7078C41.1298 16.7078 39.7109 14.8159 38.5758 12.451C37.4406 10.0862 36.1163 8.19427 35.6433 8.19427C33.846 8.19427 23.5352 15.8564 18.8055 20.6808C14.4542 25.1267 7.17037 35.1537 7.17037 36.6672C7.17037 36.951 9.34604 38.1808 11.9001 39.4105C14.5487 40.6402 16.5352 42.1537 16.2515 42.6267C16.0623 43.1943 15.2109 45.4645 14.3596 47.5456L12.7515 51.424L8.02172 50.0997C5.37307 49.3429 3.00821 48.9645 2.72442 49.2483C-0.20801 52.0862 -0.964767 74.0321 1.4001 84.5321L2.53523 89.3564L7.73794 87.6537C12.5623 85.951 12.9406 85.951 13.5082 87.4645C13.792 88.3159 14.6433 90.4916 15.3055 92.2889C16.0623 93.9916 16.6298 95.5997 16.6298 95.7889C16.6298 95.9781 14.4542 97.2078 11.9001 98.5321L7.07577 100.992L9.25145 104.87C12.5623 110.735 23.5352 122.086 30.1569 126.438L36.0217 130.221L38.292 125.681C39.5217 123.221 40.6569 121.046 40.846 120.856C41.2244 120.383 49.7379 123.694 50.2109 124.546C50.4947 124.924 50.0217 127.383 49.265 129.843C48.5082 132.397 47.846 134.573 47.846 134.667C47.846 135.519 56.6433 137.032 64.4001 137.41C71.2109 137.789 75.846 137.6 80.8596 136.465C84.7379 135.708 88.0487 134.762 88.3325 134.573C88.5217 134.289 88.0487 132.113 87.1974 129.654C86.346 127.194 85.6839 125.019 85.6839 124.829C85.6839 124.356 94.1028 120.762 95.0487 120.762C95.4271 120.762 96.7515 122.843 97.9812 125.492C100.535 130.978 100.346 130.978 110.941 122.938C117.373 118.113 124.751 109.694 127.873 103.546C129.197 100.992 129.197 100.897 124.468 98.5321C121.914 97.2078 119.738 95.9781 119.738 95.7889C119.738 95.5997 120.589 93.5186 121.63 91.0591C123.806 86.2348 124.373 86.0456 130.049 88.1267C134.4 89.6402 134.022 89.924 135.724 83.397C137.049 78.5726 137.049 61.6402 135.819 55.7753C134.211 48.5862 133.927 48.397 128.63 50.1943C126.17 51.0456 123.9 51.424 123.616 51.2348C123.049 50.5726 119.643 41.9645 120.022 41.7753C120.116 41.6808 122.197 40.451 124.751 39.0321C127.589 37.424 129.008 36.0051 128.63 35.3429C125.224 29.6672 120.022 22.951 115.67 18.8835C110.751 14.1537 102.238 8.19427 100.63 8.19427C100.157 8.19427 98.9271 10.0862 97.792 12.451C96.6569 14.8159 95.1433 16.7078 94.4812 16.7078C93.5352 16.7078 87.4812 14.2483 85.7785 13.2078C85.5893 13.1132 86.1569 11.0321 87.0082 8.57264C87.8596 6.11318 88.5217 3.74832 88.5217 3.36994C88.5217 1.66724 67.1433 -0.792221 61.0893 0.248319ZM80.9542 16.897C93.2515 19.7348 106.116 28.9105 112.927 39.6943C118.697 48.7753 120.873 55.5862 121.346 65.897C122.197 81.1267 117.468 94.2754 107.441 104.965C86.0623 127.856 50.0217 127.856 29.0217 105.059C6.88658 80.9375 11.1433 43.2889 38.1028 24.8429C51.1569 15.951 65.5352 13.3024 80.9542 16.897Z" fill="#333D51"/>
<path d="M40.2784 37.0456C40.2784 37.8024 39.9 38.4646 39.3325 38.4646C38.8595 38.4646 38.3865 39.1267 38.3865 39.8835C38.3865 40.6402 38.8595 41.3024 39.4271 41.3024C40.1838 41.3024 40.2784 42.8159 39.8054 46.2213C39.4271 48.9646 39.0487 57.5727 38.9541 65.424C38.8595 79.424 38.8595 79.6132 36.7784 79.897C35.5487 80.0862 34.6027 80.8429 34.6027 81.5997C34.6027 82.451 33.9406 82.924 32.9946 82.7348C31.4811 82.451 31.1973 80.6537 30.819 66.8429L30.2514 51.2348L30.0622 67.0321L29.873 82.8294L25.6163 83.1132L21.3595 83.397L24.6703 90.397C33.7514 109.221 54.9406 120.289 75.7514 116.978C92.4 114.424 108.292 101.654 113.495 86.897L114.914 82.924H110.657H106.4L106.684 69.2078L106.968 55.4916H100.157H93.346L92.6838 49.8159L92.0217 44.1402H87.5757C83.9811 44.1402 83.1298 44.424 83.1298 45.7483C83.2244 46.6943 83.1298 49.2483 83.0352 51.424C82.846 55.3024 82.7514 55.4916 79.7244 55.4916C77.7379 55.4916 76.319 54.8294 75.4676 53.5997C72.9136 49.4375 66.7649 51.9916 66.7649 57.2889C66.7649 58.6132 66.0082 59.2754 64.2109 59.4646C62.319 59.6537 61.4676 60.3159 61.2784 61.8294C60.9946 63.6267 60.3325 64.0051 57.7784 64.0051H54.5622L54.7514 51.2348C54.846 44.2348 54.6568 38.4646 54.2784 38.4646C53.8054 38.4646 53.5217 37.8024 53.5217 37.0456C53.5217 35.3429 49.7379 35.1537 49.7379 36.7619C49.6433 37.424 49.4541 47.2619 49.2649 58.7078C49.0757 70.0591 48.6973 79.6132 48.4136 79.897C48.1298 80.0862 47.2784 80.0862 46.4271 79.8024C45.2919 79.3294 45.0081 77.2483 44.9136 69.4916C44.7244 58.8024 44.2514 38.6537 44.1568 36.7619C44.0622 35.1537 40.2784 35.3429 40.2784 37.0456ZM104.603 60.7889V64.0051H99.4C95.9 64.0051 94.1973 63.6267 94.1973 62.7754C94.1973 62.2078 93.9136 60.6943 93.6298 59.5591C93.0622 57.6673 93.4406 57.4781 98.0757 57.1943C100.914 57.0051 103.468 57.0051 103.941 57.1943C104.319 57.3835 104.603 58.9916 104.603 60.7889ZM81.9 60.6943C81.9 63.7213 81.7109 64.0051 79.0622 64.0051C76.4136 64.0051 76.2244 63.7213 76.2244 60.6943C76.2244 57.6673 76.4136 57.3835 79.0622 57.3835C81.7109 57.3835 81.9 57.6673 81.9 60.6943ZM60.9 72.7078L60.6163 79.6132H57.7784H54.9406L54.6568 72.7078L54.373 65.897H57.7784H61.1838L60.9 72.7078ZM80.9541 67.5051C80.8595 70.8159 78.4946 78.5727 77.3595 78.951C76.5082 79.2348 76.2244 77.4375 76.2244 72.6132C76.2244 66.0862 76.319 65.897 78.5892 65.897C80.1973 65.897 80.9541 66.37 80.9541 67.5051ZM104.603 74.4105C104.603 81.3159 104.319 82.924 103.184 82.924C102.427 82.924 101.765 82.3564 101.765 81.5997C101.765 80.8429 100.819 80.0862 99.6838 79.897C97.9811 79.7078 97.319 78.6673 96.373 74.8835C94.3865 66.1808 94.4811 65.897 99.873 65.897H104.603V74.4105Z" fill="#E87800"/>
</svg>
