<?xml version="1.0" encoding="utf-8"?>
<!-- Generator: Adobe Illustrator 23.0.0, SVG Export Plug-In . SVG Version: 6.00 Build 0)  -->
<svg version="1.1" id="Layer_1" xmlns="http://www.w3.org/2000/svg" xmlns:xlink="http://www.w3.org/1999/xlink" x="0px" y="0px"
	 viewBox="0 0 309 310.7" style="enable-background:new 0 0 309 310.7;" xml:space="preserve">
<style type="text/css">
	.st0{display:none;}
	.st1{display:inline;}
	.st2{display:inline;fill:none;stroke:#000000;stroke-width:12;stroke-miterlimit:10;}
	.st3{display:inline;fill:none;stroke:#000000;stroke-width:10;stroke-miterlimit:10;}
	.st4{display:inline;fill:none;stroke:#000000;stroke-width:7;stroke-miterlimit:10;}
	.st5{display:inline;fill:none;stroke:#000000;stroke-width:5;stroke-miterlimit:10;}
	.st6{fill:none;stroke:#000000;stroke-width:7;stroke-miterlimit:10;}
</style>
<g class="st0">
	<path class="st1" d="M239.7-46.9c-2.1,4.6-4.1,9.2-6.4,13.5c-1.7,3.2-2,6-0.5,9.4c1.6,3.6,2.7,7.5,4.3,11.8
		c-55.5-9.3-104.7,3.6-146.4,41.1c-29.7,26.6-47.4,60.3-53.4,99.7c-11.9,78.9,34.1,155.9,109.1,183.2
		c75.4,27.4,158.5-1.6,201.2-70.3c42.2-67.8,31.6-164.2-39.7-221c4.3-1.6,8.4-2.8,12.1-4.7c2-1,4.1-2.7,5.2-4.7
		c2.7-4.9,4.9-10.1,7.3-15.2c67.3,52.3,101.3,158.2,51.9,252.5c-49.1,93.7-163.9,134.4-260.5,92.4C24.5,297.5-24.3,186.8,11.9,85.2
		C47.7-15.4,150-64.6,239.7-46.9z"/>
	<path class="st1" d="M282.4,29.5c59.4,35.6,88.2,116.3,54.2,187.4c-34.9,72.9-120.9,103.6-194.5,69.9c-72-32.9-105-119.2-73-191.8
		c33.2-75.4,114.2-102.3,177-82c-5.1,10.8-10,21.7-15.3,32.3c-0.4,0.9-3.2,1.3-4.6,1C167.9,34.4,111.6,70.1,97.5,128
		c-15.3,62.6,28.5,126,92.4,133.8c61.2,7.5,116.3-35.2,122.8-96.2c4.3-40.3-10.4-73.4-42.1-98.8c-3.2-2.6-3.8-4.3-1.9-8.1
		C273.4,49.2,277.7,39.5,282.4,29.5z"/>
	<path class="st1" d="M257.1,83.6c34.8,24.2,45.1,75.4,23.1,113.2c-23.1,39.8-71.7,55.5-112.9,36.4c-41.7-19.3-61.8-67.1-46-109.8
		c16.5-44.7,62.4-64.4,99.3-56c-4.6,9.9-9,19.7-13.9,29.3c-0.6,1.2-3.4,1.6-5.2,1.7c-24.7,1.2-45,17.8-51.1,41.9
		c-7.6,29.9,11.7,60.3,42.3,66.9c29.9,6.4,60.2-14.2,65.2-44.3c2.9-17.4-1.5-32.6-12.9-46c-1-1.1-1.9-3.4-1.4-4.5
		C248,102.8,252.6,93.4,257.1,83.6z"/>
	<path class="st1" d="M195.3,121.6c-3.9,8.4-7.8,16.2-11.1,24.1c-3.7,8.9-0.6,18.6,7.1,23.9c7.6,5.3,18,4.6,24.8-2.1
		c2.3-2.3,4.1-5.3,5.5-8.2c3.7-7.4,7.1-15,10.6-22.7c7.4,9.4,6.7,25.6-1.5,36.6c-9.1,12.1-24.7,16.8-38.8,11.4
		c-14.2-5.4-22.9-19.6-21.3-34.8C172.1,136.1,182.6,123.7,195.3,121.6z"/>
	<path class="st1" d="M295.6,1.1c5.3-11.3,10.4-22.3,15.5-33.3c1.5-3.3,3.1-6.6,4.7-9.9c4.6-9.8,4.6-9.8,16-12.5
		c-0.6,1.6-1,2.9-1.6,4.1c-6,12.8-12.4,25.4-17.7,38.5C309.4-4.3,304.8,0.3,295.6,1.1z"/>
</g>
<g class="st0">
	<path class="st2" d="M88.7,367.2c-0.9,1.4-1.6,2.5-2.3,3.6c-7.2,10.7-17.4,15-30,13.4c-10.2-1.3-18.6-12.1-18.6-23.3
		c0-40.5,0-81,0-121.4c0-1.8,0-3.5,0-5.9c-5.2,0-10,0-14.8,0c-10.8,0-16.5-5.5-16.6-16.2c-0.1-31.9-0.1-63.8,0-95.7
		c0.1-14.9,10.2-25,25.7-25.8c6.3-0.3,12.7-0.3,19,0c1.5,0.1,3.3,1.3,4.2,2.5c7,8.6,14.4,16.7,23.9,22.7c3.6,2.2,6.5,2.3,10.3,0.4
		c10.7-5.5,19.6-12.8,25.9-23.2c0.8-1.3,2.9-2.5,4.4-2.5c40.2-0.1,80.4-0.1,120.6-0.1c6.9,0,11.4,3.1,13.5,9.4
		c2.9,8.6,2.9,17.4,0.6,26.1c-1.9,7-5.8,9.4-13.1,9.4c-33.8-0.1-67.7-0.2-101.5-0.3c-0.5,0-1.1,0.1-2.4,0.2c0,1.7,0,3.4,0,5.1
		c0,70.7,0,141.4,0,212.2c0,13.5-7.6,23.4-19.3,25.1c-11.5,1.7-20.7-2-27.1-11.9C90.4,370,89.6,368.7,88.7,367.2z"/>
	<path class="st1" d="M160.1,54.3c0-11.1,0-21.6,0-32.7c10.3,0,20.5,0,30.7,0c10.1,0,20.1,0,30.5,0c0.2-1.6,0.4-2.9,0.5-4.2
		c1-9.2,5.6-15.9,14.5-18.9c12.3-4.2,24.7-4.3,37-0.1c9.5,3.2,13.7,9.8,13.9,19.8c0,1,0.1,1.9,0.2,3.4c1.7,0,3.3,0,4.9,0
		c28.3,0,56.6-0.1,85,0.1c20.2,0.2,30.6,11.1,30.6,31.5c0,71.7,0,143.4,0,215.1c0,3.6,0.1,7.2-0.1,10.8c-0.9,17.4-11,27.1-28.4,27.1
		c-39.1,0-78.2,0-117.3,0c-32.2,0-64.4,0-96.6,0c-1.6,0-3.3,0-5.2,0c0-10.2,0-20.1,0-30.5c1.9,0,3.7,0,5.4,0c61.9,0,123.8,0,185.7,0
		c2.7,0,5.5-0.2,8.2-0.7c9.9-1.9,15.5-7.8,17-17.7c0.3-1.9,0.4-3.9,0.4-5.8c0-56.8,0-113.6,0-170.3c0-8.8-1.7-17.5-10-22.3
		c-4.5-2.6-10-4.4-15.1-4.4c-62-0.3-124.1-0.2-186.1-0.2C164,54.3,162.2,54.3,160.1,54.3z"/>
	<path class="st3" d="M43.8,38.2C43.6,15.3,62.6-4.2,85.2-4.4c23.8-0.2,43.3,18.6,43.5,41.8c0.1,23-18.7,42.1-41.1,43
		C66,81.3,43.5,62.8,43.8,38.2z"/>
</g>
<g class="st0">
	<path class="st4" d="M82.3,288.1c-6-8.4-11.4-16.3-17.4-23.8c-1.1-1.4-4.6-2.1-6.5-1.5c-7.9,2.2-15.6,5-23.4,7.4
		c-9.6,3-13.9,1-17.1-8.5c-4.6-13.4-8.9-26.9-13.2-40.4c-2.4-7.4,0.2-12.6,7.7-15.2c7-2.4,14.1-4.9,21.3-6.7
		c5.8-1.5,7.8-4.1,7.4-10.4c-2.7-43.8,9.4-83.2,38.6-116.1c43.6-49.2,98.9-67.4,162.4-51.6c63.3,15.7,103.2,57.7,118.8,121.1
		c3.8,15.6,3,32.4,3.7,48.7c0.2,4.3,1.1,6.4,5.4,7.6c7.6,2.1,15.1,4.7,22.6,7.2c8.5,2.9,10.9,7.6,8.3,16.1
		c-4.4,13.7-8.8,27.5-13.3,41.1c-2.3,7.1-7.4,9.8-14.7,7.6c-8.3-2.4-16.6-5-24.7-7.9c-3.8-1.4-6-1.1-8.3,2.5
		c-4,6.3-8.5,12.3-13.3,18c-3,3.5-2.8,5.8,0,9.2c5,6.2,9.5,12.8,14.1,19.2c5.8,8.1,5.1,13.2-2.7,18.9c-11.3,8.3-22.5,16.5-33.9,24.6
		c-7.2,5.1-12.6,4.2-17.9-3c-5.2-7-10-14.2-15.4-21c-1.3-1.6-4.5-3-6.2-2.5c-9.2,2.7-18.1,6.1-27.8,9.4c0,9.7,0.1,19.8,0,29.9
		c-0.1,9.3-3.5,12.9-12.6,13c-14.2,0.2-28.4,0.2-42.6,0c-9.2-0.2-12.5-3.8-12.6-13c-0.1-8.4-0.2-16.9,0.1-25.3c0.1-4-1-6-5.2-7
		c-7.2-1.8-14.3-4-21.2-6.8c-3.6-1.4-5.6-1-7.8,2.1c-5.1,7.3-10.3,14.5-15.7,21.6c-4.9,6.5-10.2,7.4-16.8,2.8
		c-12-8.5-23.8-17.1-35.6-25.9c-6.3-4.7-7-10.3-2.4-16.9C70.3,304.4,76.5,296.1,82.3,288.1z M354.8,192.8
		c2.6-63-20.4-112.5-73.5-144.3c-55.5-33.2-112.4-31.1-165.6,5.8c-47.3,32.9-67.5,80.1-64.4,138.4c13.5,0,26.2,0,38.8,0
		c12.9,0,25.9,0,38.8,0c0.6,1.6,1.2,2.7,1.5,3.9c8.4,32.9,35.1,55.8,67.4,57.9c33.5,2.1,63.3-17.3,75.5-49.3
		c4.8-12.5,4.8-12.4,18.6-12.3C312.4,192.9,333.1,192.8,354.8,192.8z"/>
	<path class="st1" d="M268.3,122.7c-4.8,7.6-8.9,15.9-14.6,22.8c-12.5,15.2-25.3,30.2-38.9,44.4c-4.1,4.3-10.9,7-16.9,8.3
		c-7.6,1.6-12.6-4.3-10.4-11.9c1.5-5.1,4.1-10.6,7.8-14.3c19.2-19.4,40.5-36.1,64.8-48.9c2-1.1,4.2-1.6,6.3-2.4
		C267,121.4,267.6,122.1,268.3,122.7z"/>
	<path class="st1" d="M312.3,100.4c-6.2,3.7-11.1,6.6-14.2,8.4c-8.5-8.5-16.6-16.7-25.6-25.6c1.5-2.7,4.4-7.6,8.2-14.3
		C291.5,79.7,301.5,89.8,312.3,100.4z"/>
	<path class="st1" d="M207.6,66.7c-3.3,0-6.1,0-9.4,0c0-8.3,0-16.3,0-24.8c3.1,0,6,0,9.4,0C207.6,50.4,207.6,58.3,207.6,66.7z"/>
	<path class="st1" d="M109.4,118.4c-2,3.3-3.6,5.9-5.3,8.8c-7.6-4.4-14.8-8.6-22.3-12.9c1.9-3.1,3.4-5.7,5.2-8.7
		C94.5,109.8,101.5,113.9,109.4,118.4z"/>
	<path class="st1" d="M324.1,114.2c-7.9,4.6-15,8.6-22.4,12.9c-1.7-2.7-3.3-5.3-5.3-8.7c7.4-4.3,14.5-8.5,22.2-12.9
		C320.4,108.3,322,110.9,324.1,114.2z"/>
	<path class="st1" d="M143,84.8c-4.5-7.8-8.5-14.8-12.9-22.4c3-1.8,5.6-3.3,8.8-5.1c4.4,7.4,8.4,14.4,12.9,22
		C148.9,81.2,146.3,82.8,143,84.8z"/>
	<path class="st1" d="M254.1,79.3c4.7-7.9,8.6-14.7,12.9-22c3,1.7,5.6,3.2,8.8,5c-4.4,7.6-8.5,14.7-12.9,22.5
		C259.8,82.9,257.1,81.2,254.1,79.3z"/>
	<path class="st1" d="M66.4,173.7c8.5,0,16.5,0,24.9,0c0.2,3.1,0.3,5.9,0.5,9.2c-8.6,0-16.8,0-25.4,0
		C66.4,180,66.4,177.2,66.4,173.7z"/>
</g>
<g class="st0">
	<path class="st4" d="M300.6,91.5c0,58.1,0,116.2,0,174.4c-5,11.6-9.4,14.5-22.3,14.5c-17.1,0-34.2,0-51.3,0
		c-10.7,0-18.6-8-18.6-18.7c0-10.8,0-21.7,0-32.5c0-1.3,0-2.6,0-4c-21.6,0-42.8,0-64.4,0c6.1,12.3,12.1,24.3,18.1,36.5
		c-24.9,0-49.1,0-73.7,0c6.1-12.3,12.1-24.3,18.3-36.7c-2.1,0-3.5,0-5,0c-25.6,0-51.2,0-76.8,0c-11.9,0-19.7-7.7-19.7-19.6
		c0-48.6,0-97.3,0-145.9c0-11.5,7.7-19.3,19.2-19.3c67.3,0,134.7,0,202,0c11.3,0,18.9,7.7,18.9,19c0,5.9,0,11.7,0,17.9
		c1.8,0,3.1,0,4.5,0c11,0,21.9,0,32.9,0c5.2,0,9.8,1.8,13.1,5.8C297.7,85.5,299,88.6,300.6,91.5z M208.3,187.8c0-1.6,0-3.1,0-4.5
		c0-29.2,0-58.3,0-87.5c0-8.8,5.7-16.2,14-18.1c1.4-0.3,2.8-0.5,4.3-0.7c0-6.1,0-11.9,0-17.9c-67.7,0-135.2,0-202.8,0
		c0,43,0,85.8,0,128.8C85.3,187.8,146.6,187.8,208.3,187.8z M282,96c-18.6,0-36.9,0-55.1,0c0,6.2,0,12,0,17.8c18.5,0,36.7,0,55.1,0
		C282,107.8,282,102,282,96z M226.9,150.9c18.5,0,36.8,0,55.1,0c0-6.1,0-12,0-17.9c-18.5,0-36.7,0-55.1,0
		C226.9,138.9,226.9,144.7,226.9,150.9z M254.5,206.6c-5.1,0-9.1,4-9.1,9.1c0,5,4.1,9.1,9.2,9.1c5.1,0,9.1-4.1,9.1-9.1
		C263.6,210.6,259.6,206.6,254.5,206.6z M254.5,261.7c5.1,0,9.1-4,9.1-9.1c0-5.1-4-9.1-9.1-9.1c-5.1,0-9.2,4-9.2,9
		C245.3,257.6,249.4,261.7,254.5,261.7z"/>
</g>
<g class="st0">
	<path class="st4" d="M327-62.8c3.8,2,4.9,5.2,4.9,9.4c-0.1,32.6,0,65.1,0,97.7c0,3.5-0.1,6.9-3.6,8.8c-3.5,1.9-6.4,0.2-9.3-1.8
		c-16-10.5-31.9-20.9-48-31.2c-1.9-1.2-4.6-1.4-7.8-2.3c0,6.3,0,11.3,0,16.3c0,6.9,0.2,13.8-0.1,20.6c-0.4,10.9-8.8,19.3-19.7,19.7
		c-10,0.3-19.9,0.2-29.9,0.3c-1.5,0-3,0-4.8,0c0,11.8,0,23.1,0,34.9c1.6,0.1,3.2,0.2,4.8,0.2c22.7,0,45.5,0,68.2,0
		c7.2,0,9.1,2.1,9.2,9.3c0,4.2,0.1,8.4,0,12.6c-0.1,4.4-2.7,7.2-6.5,7.3c-3.9,0.1-6.7-2.8-7-7.3c-0.1-1.4,0-2.8,0-4.2
		c0-1.2,0-2.5,0-4c-23,0-45.7,0-68.8,0c-0.1,1.7-0.2,3.3-0.2,4.9c0,14,0,28.1,0,42.1c0,5.4-2.3,8.4-6.5,8.6
		c-4.3,0.1-6.9-3.2-6.9-8.7c0-14,0-28.1,0-42.1c0-1.5,0-3,0-4.8c-23.6,0-46.9,0-70.8,0c0,2.4,0.1,4.7,0,7c-0.2,4.1-2.7,6.9-6.3,7
		c-3.8,0.1-6.9-2.6-7.1-6.8c-0.2-4.2-0.1-8.4,0-12.6c0.1-6,2.4-8.3,8.5-8.4c19.9,0,39.9,0,59.8,0c5.1,0,10.1,0,15.5,0
		c0-11.6,0-23,0-35.1c-2.5,0-5.1,0-7.7,0c-6.7,0-13.5,0-20.2-0.1c-12.9-0.2-21.6-8.8-21.9-21.7c-0.2-11.2,0-22.5,0-33.5
		c-3.1-2.1-5.5-1.1-8.2,0.6c-15.9,10.5-31.9,20.9-47.9,31.3c-2.8,1.8-5.6,3.4-9,1.5c-3.3-1.9-3.6-5-3.6-8.4
		c0.1-32.6,0.1-65.1,0-97.7c0-4.1,0.9-7.4,4.2-9.9c1.7,0,3.4,0,5.1,0c17.8,11.7,35.6,23.4,52.5,34.5c3.3-0.7,5.7-1.7,8.1-1.7
		c14.5-0.1,28.9-0.1,43.4-0.1c6,0,8.2,2.2,8.2,8.1c0.1,10.3,0,20.5,0,30.7c0,7.9-0.6,8.6-8.6,11.1c0,13.6,0,27.5,0,41.5
		c10,0,20.4,0,30.3,0c0-14.2,0-28.1,0-41.9c-7.1-1.4-8.5-2.9-8.5-9.4c0-10.5-0.1-21.1,0-31.6c0-6.5,2.1-8.5,8.6-8.5
		c12.6,0,25.3-0.1,37.9,0.1c3.8,0.1,7.6,1.2,11.4,1.7c0.9,0.1,1.9-0.2,2.7-0.6c17.3-11.2,34.5-22.5,51.7-33.8
		C324.2-62.8,325.6-62.8,327-62.8z M151.3,4.2c11.1,0,21.7,0,32.3,0c0-7.1,0-13.8,0-20.5c-11,0-21.6,0-32.3,0
		C151.3-9.3,151.3-2.7,151.3,4.2z M256.7-16.4c-10.9,0-21.6,0-32.5,0c0,7,0,13.7,0,20.5c10.9,0,21.6,0,32.7,0c0-6,0-11.7,0-17.5
		C257-14.2,256.8-15.2,256.7-16.4z"/>
	<path class="st4" d="M203.7,369.1c-14.3-0.3-28.3-2.3-42-6.5c-20.7-6.4-27.2-18.4-21.4-39.2c10.1-36.2,50.6-56.2,86.8-42.8
		c24.6,9.1,41.1,30.7,42.5,55.1c0.5,9.3-3.3,16-10.8,20.9c-9.3,6.1-19.7,8.7-30.5,10.2C220.3,367.9,212,368.4,203.7,369.1z"/>
	<path class="st4" d="M175.1,264c-28.7,11.3-46.3,31.9-52.9,62.2c-11,0.5-21.9-0.3-32.5-2.7c-6.5-1.5-13.1-3.3-19.2-6
		c-14-6.1-18.5-14.9-16-30c4.9-29.9,30.9-52.1,62.4-53.1c23.4-0.8,42.3,8.4,56.6,26.9C173.9,262.1,174.4,262.9,175.1,264z"/>
	<path class="st4" d="M285.8,326.4c-2.8-14.5-8.6-27.3-18-38.3c-9.4-11-20.9-18.9-34.9-24c6.3-9.6,14.3-16.6,23.9-21.9
		c34.7-19.4,81.5-2.3,94.1,34.6c1.9,5.5,2.6,11.5,3.4,17.3c1,8.5-2.8,15.1-9.8,19.5c-4.6,2.9-9.6,5.2-14.7,7
		C315.6,325.5,301,326.2,285.8,326.4z"/>
	<path class="st1" d="M119.5,217.3c-18.2,0.1-32.8-14.4-33-32.8c-0.2-18,14.6-32.9,32.8-33.1c18-0.2,33.1,14.8,33,32.8
		C152.3,202.6,137.8,217.2,119.5,217.3z M118.9,203.8c10.8,0.3,19.8-8.3,19.9-19.1c0.2-10.5-8.3-19.3-19-19.7
		c-10.4-0.4-19.5,8.1-19.8,18.8C99.7,194.6,108,203.4,118.9,203.8z"/>
	<path class="st1" d="M288.8,217.2c-18.3,0.1-33-14.4-33.1-32.7c-0.1-18,14.9-33.2,32.8-33.1c18.2,0,33,14.7,33.1,32.8
		C321.5,202.5,307,217.1,288.8,217.2z M308,184.4c0-10.6-8.5-19.3-19.1-19.4c-10.7-0.1-19.8,8.8-19.7,19.4
		c0.1,10.7,8.6,19.3,19.2,19.4C299.3,203.8,307.9,195.3,308,184.4z"/>
	<path class="st1" d="M236.9,226.5c0,18.3-14.5,32.9-32.7,33.1c-18.1,0.2-33.1-14.7-33.1-32.8c0-18.3,14.7-33.1,32.7-33.1
		C222.1,193.8,236.9,208.4,236.9,226.5z M223.4,226.7c-0.1-10.8-8.9-19.5-19.6-19.4c-10.6,0.1-19.2,8.8-19.2,19.4
		c0,10.7,8.9,19.6,19.6,19.4C214.9,246,223.5,237.3,223.4,226.7z"/>
	<path class="st1" d="M1.6-0.8c0.3-21.5,7.1-38.7,20.9-52.9c1.5-1.5,3.8-3.2,5.6-3.1c2.3,0.2,5,1.8,6.4,3.6c2,2.7,0.7,5.6-1.6,7.9
		c-7.1,7-12.3,15.3-15.1,24.9c-6,21.1-2,40.2,12.2,57c0.6,0.8,1.4,1.4,2,2.2c2.4,3.2,2.2,6.9-0.6,9.4c-2.8,2.5-6.5,2.5-9.4-0.5
		C11.6,37,5.2,24.3,2.7,9.6C2,5.7,1.9,1.6,1.6-0.8z"/>
	<path class="st1" d="M39.5-2.8c0-9.9,3.5-18.3,10.5-25.4c3.3-3.4,7-3.6,10-0.8c3.1,2.9,3,6.4-0.1,10c-8.8,10-9.2,20.6-1.3,31.3
		c2.8,3.8,2.5,7.4-0.9,9.9c-3.3,2.5-6.6,2-9.6-1.6C42.4,14,39.4,6.2,39.5-2.8z"/>
</g>
<g class="st0">
	<path class="st4" d="M70.1,278.3c-6.7-23.6-13-45.5-19-67.6c-0.4-1.4,2-4.6,3.7-5.2c24.2-8.8,48.4-17.8,73-25.6
		c12.4-3.9,24.6,0.6,36.2,5.5c22.8,9.5,46.1,17.5,70.9,18.5c15.4,0.6,31-2.1,46.5-2.7c5.8-0.2,15.4-0.3,16.8,2.7
		c3.6,7.6-3.5,13.8-9.8,16c-17.1,5.9-34.7,10.1-52.1,14.9c-0.6,0.2-1.3,0-1.9,0.2c-4.4,1.8-8.8,3.6-13.2,5.4
		c4.1,3.1,7.9,8.4,12.3,8.8c10.2,1,21.1,1.4,31-0.9c40.5-9.5,79.4-23.3,114.7-45.9c9.7-6.2,20.4-6.4,24.8-1c5,6.1,2.1,16.9-7.1,25.2
		c-56.6,50.7-122.1,77.9-199,73.2c-30.8-1.9-60.7-8.5-88.5-22.1C96.2,271.4,84,265.8,70.1,278.3z"/>
	<path class="st5" d="M249.1,64.4c-0.6,3.7-0.5,7.8-2.1,11c-1.3,2.6-4.8,5.8-7.1,5.7c-2.5-0.2-6.8-4.1-6.7-6.2
		c0.8-19.1,1.7-38.2,4-57.2c0.9-7.4,24.2-16.9,31.7-15.9c7.7,1,15.6-0.2,23.5-0.1c4.1,0.1,8.6,0.1,12.3,1.7
		c15.6,6.3,22.5,17.7,21.1,35.1c-0.9,10,1.1,20.3,2,30.5c0.6,5.8,0.7,11.7-6.6,12.4c-6.8,0.7-8.1-4.7-8.2-10.3
		c0-1.8-0.7-3.5-2.6-5.1c0,13.5,0,27,0,40.5c0,20.7,0,41.5,0,62.2c0,2.2,0,4.5,0,6.7c-0.4,11-5.6,17.8-13.4,17.6
		c-7.4-0.2-12.6-6.9-12.7-17.3c-0.2-14.7,0.2-29.4-0.3-44c-0.1-4.3-2.6-8.6-4-12.9c-1,4.3-2.7,8.6-2.8,12.9
		c-0.4,13.1-0.1,26.1-0.2,39.2c0,3.5-0.3,7-1,10.4c-1.4,6.4-4.7,11.4-12,11.6c-7.9,0.3-11.3-5.2-13-11.7c-0.9-3.3-0.8-6.9-0.8-10.4
		c-0.1-35.4,0-70.8,0-106.2C249.8,64.4,249.5,64.4,249.1,64.4z"/>
	<path class="st5" d="M176,45.2c-2.8,6.4-0.1,16.1-10.3,15.2c-10.8-0.9-6.8-10.2-6.4-16.7c0.8-13.1,2.2-26.1,2.5-39.2
		c0.2-6.5,2.2-10.9,7.9-14c4.5-2.4,8.3-6.2,13-8c3.6-1.4,8.1-1,12.2-1c7.5-0.1,15.1,0,22.6,0.3c4.6,0.2,9.3,0.5,13.8,1.4
		c2,0.4,3.8,2.3,5.6,3.5C253.3-2.6,253.1-2.8,238,9.6c-3.1,2.5-5.8,7.1-6.2,11.1c-1.8,16.5-2.8,33.1-3.7,49.6
		c-0.2,3.6,0.4,8.9,2.6,10.6c6.6,4.8,6,11.1,6,17.7c-0.1,16.6-0.1,33.2-0.1,49.8c0,1.9,0.1,3.8,0,5.8c-0.5,11.1-5.5,18.2-13,18.4
		c-8,0.2-13.6-7.2-13.7-18.5c-0.1-16,0.1-31.9-0.2-47.9c-0.1-2.6-2.2-5.1-3.3-7.6c-1.2,2.5-3.5,4.9-3.5,7.4
		c-0.3,15.6,0,31.3-0.3,46.9c-0.1,4-0.2,8.9-2.4,11.9c-2.5,3.4-7.3,7.3-11,7.2c-3.7-0.1-8.7-4-10.6-7.6c-2.3-4.2-2.5-9.8-2.5-14.8
		c-0.2-31-0.1-61.9-0.1-92.9C176,52.8,176,49,176,45.2z"/>
	<path class="st4" d="M70,287.7c-1.7,1.4-3.8,4.3-6.5,5.3c-7.8,2.8-15.9,4.7-23.8,7c-6.3,1.9-9.6-0.9-11.3-6.8
		c-7.1-25.1-14.3-50.2-21.4-75.3c-1.8-6.4-0.8-11,7.1-12.5c7.5-1.4,14.8-3.8,22-6.2c5.5-1.9,8.9-0.2,10.4,5
		c7.5,26.3,14.9,52.6,22.3,79C69.2,284,69.3,284.9,70,287.7z"/>
</g>
<g class="st0">
	<path class="st1" d="M72.2-64.9c-0.2-1.9-0.3-3-0.4-4.1c-0.5-8.6,2.4-11.8,10.9-11.9c12.1-0.1,24.1,0,36.2,0c2.4,0,4.7,0,7.7,0
		c0.8-9,1.4-17.7,2.3-26.4c1.3-12.1,7-21.1,18.6-25.4c10.6-3.9,22.3-0.6,29.9,8c5.4,6.1,6.9,13.5,7.4,21.3
		c0.5,7.4,1.2,14.8,1.9,22.5c14.1,0,27.6,0,41.1,0c12.4,0,15.1,3.2,13.2,16c12.1,0,24.1,0.3,36.2-0.1c22.8-0.8,37.8,17.1,37.3,37.3
		c-0.8,34.2-0.2,68.3-0.2,102.5c0,1.8,0,3.6,0,5.8c-4.5,0-8.6,0-13.4,0c0-7.1,0-14.2,0-21.2c0-29.2,0-58.5,0-87.7
		c0-14.3-8-22.5-22.3-22.6c-12.8-0.1-25.6-0.2-38.4,0.1c-2.2,0.1-5,1.7-6.5,3.5c-9.3,11.3-20.8,17-35.7,16.9c-27-0.3-54-0.1-81,0.2
		c-15.9,0.2-28.9-5.1-38.3-18.3c-0.9-1.3-3.3-2.3-4.9-2.3c-13.2-0.2-26.3-0.3-39.5-0.1c-12.6,0.2-20.7,8.7-20.7,21.3
		c0,100.9,0,201.7,0,302.6c0,12.7,8.6,21.5,21.3,21.5c81.6,0.1,163.3,0.1,244.9,0c11.4,0,20-8.2,20.9-19.6c0.1-1.6,0.2-3.2,0.3-5.1
		c4.4,0,8.5,0,12.5,0c2.7,15.7-8,32.9-23,36.5c-4.4,1.1-9,1.6-13.5,1.6c-64.9,0.1-129.7,0-194.6,0c-15.7,0-31.4,0-47.1,0
		c-21.1,0-35.4-14.2-35.5-35.4c-0.1-27,0-54.1,0-81.1c0-73.3,0-146.6,0-219.8c0-22.4,14.3-36.5,36.7-36.6
		C48.4-64.9,60.1-64.9,72.2-64.9z M156.8-61.5c-15.5,0-31,0-46.5,0c-3.8,0-7.5,0.4-7.5,5c0,4.3,3.7,4.7,7.2,4.7
		c31.2,0,62.4,0,93.6,0c3.7,0,7.1-0.8,6.9-5c-0.1-4.1-3.6-4.8-7.2-4.8C187.8-61.5,172.3-61.5,156.8-61.5z M168.3-108.4
		c0-6.6-5.3-11.7-11.9-11.6c-6.4,0.1-11.3,5.1-11.4,11.5c-0.1,6.7,4.9,11.8,11.6,11.8S168.3-101.8,168.3-108.4z"/>
	<path class="st4" d="M362,90.9c-1.9,8.1-3.7,15.5-5.1,23c-0.3,1.8,0.6,4.3,1.7,5.9c5.2,8,12.3,9.3,21,5.7c4.3-1.8,9.1-2.4,14.2-3.7
		c4.7,11,9.3,21.8,14,32.9c-6.6,4.1-12.9,8.2-19.4,11.9c-3,1.7-3.7,3.7-4.1,7.2c-0.9,8.3,1.7,13.6,9.5,17c4.8,2.1,9,5.5,13.8,8.5
		c-4.3,10.8-8.7,21.6-13.2,32.9c-7.5-1.8-14.9-3.4-22.3-5.4c-3.1-0.8-4.9,0.3-7.5,2.2c-7.8,5.6-8,12.2-4.9,20.2
		c1.7,4.4,2.3,9.2,3.6,14.4c-10.2,4.4-20.5,8.9-30.9,13.1c-0.9,0.4-3.2-1.1-4-2.3c-3.5-5.3-6.8-10.8-10-16.3c-1.6-2.8-3.5-3.6-6.8-4
		c-8.5-1.2-13.5,2-16.9,9.7c-2.2,5-5.5,9.4-8.4,14.3c-11.1-4.5-21.9-8.8-33.1-13.3c1.8-7.9,3.3-15.5,5.4-23c0.9-3.2-0.2-4.7-2-7.1
		c-5.3-7-11.4-8.3-19.2-4.8c-3.6,1.6-7.8,1.8-11.6,3.1c-3.2,1.1-4.6,0-5.7-2.9c-3.9-9.6-8.1-19.1-12.3-29.2
		c6.6-4.1,13.1-8.3,19.9-12.2c2.9-1.7,3.3-3.7,3.8-6.9c1.4-9.4-3.4-13.8-10.9-17.3c-4.4-2.1-8.4-5-13-7.8c4.2-10.5,8.2-20.8,12.6-31
		c0.4-0.9,3-1.5,4.3-1.3c6.3,1.3,12.4,2.8,18.6,4.4c3.3,0.8,5.3-0.3,8.1-2.3c7.3-5.5,7.4-11.8,4.7-19.4c-1.7-4.7-2.6-9.8-3.9-15.1
		c10-4.2,19.8-8.6,29.8-12.4c1.2-0.5,4,0.8,5,2.2c3.7,5.2,7.1,10.6,10.3,16.1c1.6,2.7,3.5,3.1,6.5,3.6c9,1.3,14.2-2.5,17.6-10.5
		c2-4.6,5.1-8.7,7.9-13.3C339.8,82,350.6,86.3,362,90.9z M356.2,177.4c-0.3-26.7-22.1-48.3-48.8-48.2c-26.7,0.1-48.3,22.4-48,49.5
		c0.3,26.1,22.8,48.1,48.8,47.6C335,225.8,356.4,203.9,356.2,177.4z"/>
	<path class="st1" d="M99.3,194.9c5.6-4.9,10.2-8.9,14.9-12.9c2.5-2.1,5.2-6.3,8.6-2.3c2.9,3.5-0.9,5.8-3.4,7.9
		c-3.8,3.4-7.4,7.2-11.6,10c-6.9,4.6-9.8,10.5-8.7,18.8c0.5,3.8,0.2,7.6,0.1,11.5c-0.1,4.8-2.5,7.5-7.4,7.6c-13.3,0.1-26.6,0.1-40,0
		c-4.9,0-7.4-3-7.4-7.6c-0.1-13.1-0.1-26.3,0-39.4c0.1-5.3,2.8-7.7,8.4-7.8c12.2-0.1,24.4,0,36.6,0c7.8,0,9.7,1.8,9.8,9.6
		C99.3,191.3,99.3,192.4,99.3,194.9z M52.3,188.2c0,13.4,0,26.3,0,39.3c13.3,0,26.3,0,39.2,0c0-5.1,0-9.7,0-15.4
		c-4.2,3.7-7.8,6.7-11.3,9.8c-3,2.6-5.7,2.9-8.1-1c-3.4-5.4-6.9-10.7-10.4-16.1c-1.7-2.6-2.7-5.5,0.7-6.8c1.4-0.6,4.6,1.2,5.8,2.8
		c3.2,4.1,5.8,8.6,8.9,13.3c7.9-7.3,19-12,13.7-26C78.4,188.2,65.7,188.2,52.3,188.2z"/>
	<path class="st1" d="M99.5,11.4c5.9-5.1,10.8-9.8,16.1-13.8c1.7-1.3,5.7-2.2,6.9-1.2c2.9,2.3,0.4,4.8-1.7,6.7
		c-6.2,5.4-12.5,10.6-18.5,16.3c-1.6,1.5-2.8,4.2-2.9,6.4c-0.4,6-0.1,12-0.2,18.1c-0.1,5.7-2.3,8.2-7.9,8.2c-13,0.1-25.9,0.1-38.9,0
		c-5.5-0.1-8-2.7-8-8.2c-0.1-12.8-0.1-25.6,0-38.3c0-5.9,2.5-8.1,8.5-8.1c11.9,0,23.7,0,35.6,0c9.5,0,10.6,1,10.8,10.7
		C99.3,8.8,99.4,9.5,99.5,11.4z M52.3,5c0,13.3,0,26.2,0,39.4c13.1,0,26,0,39.2,0c0-5,0-9.8,0-15.6c-4.1,3.5-7.4,6.4-10.9,9.3
		c-4.3,3.7-5.8,3.4-9-1.4c-3.2-4.9-6.3-9.8-9.5-14.7c-1.7-2.6-3.5-5.4,0-7.5c3.2-1.9,4.9,0.8,6.4,3.2c2.8,4.3,5.7,8.6,8.5,13
		C85.5,23.6,96,18.4,91,5C78.2,5,65.3,5,52.3,5z"/>
	<path class="st1" d="M99.3,103.3c6.3-5.4,11.3-10.2,16.8-14.4c1.6-1.2,5.3-1.9,6.4-1c2.7,2.3,0.9,4.8-1.4,6.8
		c-6.1,5.2-12,10.7-18.3,15.7c-2.7,2.2-3.7,4.5-3.6,8c0.3,5.8,0.2,11.7,0,17.5c-0.1,5.4-2.3,7.6-7.7,7.6c-13,0.1-25.9,0.1-38.9,0
		c-5.8,0-8.1-2.2-8.2-7.8c-0.1-13-0.1-25.9,0-38.9c0-5.1,2.8-7.8,7.9-7.8c13.2-0.1,26.3-0.1,39.4,0.1c5.3,0.1,7.4,2.6,7.5,8
		C99.3,98.6,99.3,100.3,99.3,103.3z M91.5,120.6c-4.1,3.5-7.6,6.2-10.9,9.3c-3.5,3.3-6.1,3.3-8.7-1c-3.2-5.3-6.7-10.4-10.1-15.6
		c-1.6-2.4-3.1-5.4,0.3-6.8c1.4-0.6,4.7,1.1,6,2.7c3.3,4.1,5.9,8.7,8.7,13.1C91.3,112.4,93.8,108,91,96.7c-12.8,0-25.7,0-38.7,0
		c0,13.3,0,26.2,0,39.4c13.1,0,26,0,39.2,0C91.5,131,91.5,126.3,91.5,120.6z"/>
	<path class="st1" d="M198.4,43.5c19.5,0,39.1,0,58.6,0c1.5,0,3.2-0.4,4.3,0.2c1.4,0.8,3.2,2.3,3.3,3.7c0.1,1.3-1.4,3.2-2.7,4.1
		c-1.2,0.8-3.1,0.6-4.8,0.6c-39.3,0-78.5,0-117.7,0c-1.3,0-2.9,0.4-3.8-0.2c-1.6-1.2-3.7-2.9-3.7-4.4c0-1.3,2.4-3.5,4.1-3.8
		c3-0.6,6.2-0.2,9.3-0.2C162.9,43.5,180.6,43.5,198.4,43.5z"/>
	<path class="st1" d="M206.5,235.5c-7.9,0-15.7,0-23.5,0c-15,0-29.9,0-44.9,0c-3.1,0-6.3-0.1-6.4-4.1c-0.1-4.3,3.1-4.7,6.5-4.7
		c19.5,0,39.1,0,58.6,0C204.7,226.7,204.7,226.7,206.5,235.5z"/>
	<path class="st1" d="M200.4,135.1c-1,5.8-2.6,8.9-9.1,8.7c-17.6-0.6-35.3-0.2-53-0.2c-3.1,0-6.7,0.4-6.6-4.3c0.1-4,3.2-4.2,6.3-4.2
		C158.6,135.1,179.2,135.1,200.4,135.1z"/>
</g>
<g class="st0">
	<path class="st1" d="M22.4,217.2c6.1,0,10.8,0,16.8,0c0,18.1,0,35.6,0,53.2c0,14.9,4.3,19.3,19.1,19.3c74.6,0.1,149.2,0.1,223.8,0
		c15.4,0,19.4-4.4,19.4-20.1c0-92.7,0-185.3,0-278c0-16.8-4-20.8-20.9-20.8c-73.6,0-147.1,0-220.7,0c-16.9,0-20.7,3.9-20.8,20.9
		c0,17,0,34,0,51.7c-5.6,0-10.5,0-16.3,0c0-21.6-1.1-43.1,0.4-64.4c0.9-12.6,10.2-21,23-23.9C51-45.8,56-46,60.8-46
		c73.2-0.1,146.5-0.1,219.7,0c26.7,0,37.9,11.3,38,38c0,92.7,0,185.3,0,278c0,25.2-11.6,36.8-37,36.9c-73.9,0-147.8,0-221.8,0
		c-26,0-37.2-11.5-37.3-37.6C22.4,252.2,22.4,235.2,22.4,217.2z"/>
	<path class="st1" d="M124,171.6c18.4,0.2,32.7,14.7,32.7,33.3c0,18.1-15.1,33.2-33.1,33.2c-18,0-33.2-15.1-33.3-33.1
		C90.3,186.1,105.1,171.4,124,171.6z M144.3,204.6c-0.1-11.7-9.5-20.8-21.4-20.5c-11.3,0.3-20.1,9.4-20.1,20.7
		c0.1,11.2,9.2,20.5,20.3,20.8C134.6,225.9,144.4,216.2,144.3,204.6z"/>
	<path class="st1" d="M222.3,59.4c-13.1,0-26.3,0-39.4,0c-6.4,0-12.4-1.2-12.4-9c0-7.8,5.8-9.2,12.3-9.2c27,0,53.9,0,80.9,0
		c6.5,0,12.5,1.6,12.5,9.1c0,7.5-5.8,9.2-12.4,9.2C250,59.3,236.1,59.4,222.3,59.4z"/>
	<path class="st1" d="M223.1,136.5c-13.1,0-26.3-0.1-39.4,0c-6.7,0-13.3-0.7-13.2-9.3c0.1-7.8,6.3-8.9,12.6-8.9c27,0,53.9,0,80.9,0
		c6.5,0,12.4,1.8,12.2,9.4c-0.2,7.6-6.1,8.9-12.7,8.8C250,136.4,236.5,136.5,223.1,136.5z"/>
	<path class="st1" d="M223.1,213.7c-13.8,0-27.7,0-41.5,0c-6.4,0-12-2.3-10.7-9.1c0.7-3.5,6.5-8.5,10.1-8.6c28.3-0.7,56.7-0.7,85,0
		c3.5,0.1,6.9,5.8,10.4,8.9c-3.6,2.9-7,8.1-10.8,8.3C251.5,214.3,237.3,213.7,223.1,213.7z"/>
	<path class="st1" d="M57.5,115.1c3,2.7,8.8,5.5,10.2,9.8c1.5,4.3,0.3,11.6-2.7,14.8c-3,3.1-11.6,5.4-14.4,3.4
		c-9.8-7.2-20.3-5.1-30.7-5.4c-4.1-0.1-8.6,0.8-12.4-0.5c-2.9-0.9-5.1-4.4-7.6-6.8c2.5-2.4,4.5-6.1,7.5-7c4.1-1.2,8.9-0.3,13.4-0.5
		c10.1-0.3,20.8,2.3,29.5-5.8C51.4,116.2,53.5,116.2,57.5,115.1z"/>
	<path class="st1" d="M69.4,201.4c-0.2,9.7-11.1,17.9-18.8,12.4C40.1,206.4,29,209,18,208c-6.5-0.6-17.3,4-17.5-6.9
		c-0.2-10.8,10.5-7,17.1-7.5c11.4-0.8,22.8,1.5,33.7-5.8C59,182.6,69.7,191.6,69.4,201.4z"/>
	<path class="st1" d="M57.7,44.5c3.1,2.9,8.8,5.8,10.2,10.1c1.4,4.3-0.1,11.4-3.1,14.8c-2.6,3-11,5.3-13.5,3.4
		c-11-8.2-23.1-4.9-34.9-5.6C14,67,11.1,68,9.2,66.9C5.8,65,3,61.9,0,59.3c3-2.3,5.6-5.7,8.9-6.5c4.6-1.1,9.6-0.3,14.5-0.3
		c9.1-0.2,18.7,2,26.3-5.7C51,45.6,53.6,45.7,57.7,44.5z"/>
	<path class="st1" d="M116.2,131.6c10-9.1,18.4-17.3,27.5-24.7c2.5-2,7-1.5,10.6-2.1c-0.7,3.3-0.3,7.4-2.2,9.8
		c-8.8,11.2-17.9,22-27.3,32.6c-6.4,7.3-12.3,6.7-17.3-1.5c-3.1-5-6.2-10.1-8.3-15.5c-1-2.7,0.1-6.2,0.3-9.3
		c3.1,0.6,6.6,0.6,9.1,2.1C111.3,124.8,113.1,128.1,116.2,131.6z"/>
	<path class="st1" d="M116.5,51.8c9.3-8.5,17.7-16.7,26.8-24c2.6-2.1,7-1.9,10.6-2.8c-0.7,3.6-0.2,8-2.2,10.5
		c-8.5,10.9-17.5,21.4-26.6,31.8c-6.8,7.8-12.7,7.2-17.9-1.6c-3-5-6-10.1-8.2-15.5c-1-2.4,0.1-5.6,0.3-8.5c3.1,0.4,6.7,0,9.1,1.5
		C111.4,45.1,113.5,48.5,116.5,51.8z"/>
	<path class="st1" d="M23.2,76.4c5.5,0,10.2,0,15.5,0c0,12.7,0,25,0,37.9c-5.3,0-10.2,0-15.5,0C23.2,101.3,23.2,88.8,23.2,76.4z"/>
	<path class="st1" d="M23.1,147.1c5.7,0,10.4,0,15.6,0c0,12.6,0,24.6,0,37.4c-5,0-10,0-15.6,0C23.1,172.3,23.1,160.1,23.1,147.1z"/>
</g>
<g class="st0">
	<path class="st1" d="M0,130.8c0-56,0-111.9,0-167.9c0-7,1.9-8.9,8.9-8.9c78.1,0,156.1,0,234.2-0.1c4.3,0,7.4,1.3,10.4,4.3
		c15.6,15.8,31.5,31.5,47.1,47.3c1.5,1.6,2.7,4.3,2.7,6.5c0.1,95.6,0.1,191.2,0.1,286.8c0,7.3-1.8,9.1-9,9.1
		c-94.9,0-189.9,0-284.8,0c-8,0-9.6-1.6-9.6-9.7C0,242.4,0,186.6,0,130.8z M290.5,295.1c0-92.8,0-185.2,0-277.9c-1.5,0-2.8,0-4,0
		c-12.5,0-25,0-37.5,0c-6.9,0-8.8-1.9-8.8-9c0-12.5,0-25,0-37.5c0-1.3-0.1-2.5-0.2-3.8c-75.9,0-151.5,0-227.1,0
		c0,109.6,0,218.9,0,328.2C105.6,295.1,198,295.1,290.5,295.1z M280.5,4.4c-9.2-9.2-18.4-18.4-27.5-27.5c0,8.9,0,18.1,0,27.5
		C262.4,4.4,271.6,4.4,280.5,4.4z"/>
	<path class="st1" d="M105.2,124.9c2,4.1,3.8,7.9,5.8,11.5c0.5,0.9,2.1,1.5,3.2,1.6c16.3,1.9,32.7,3.6,49,5.6
		c2.3,0.3,4.9,1.4,6.6,2.9c23.4,19.4,46.8,38.9,70.2,58.3c1.4,1.2,3.7,1.9,5.6,2c6.2,0.3,12.4,0.1,18.6,0.1c4.7,0,7.5,2.4,7.5,6.2
		c0,3.9-2.8,6.3-7.4,6.4c-5.9,0.1-11.9,0.1-17.8,0c-2.2-0.1-3.6,0.7-4.8,2.6c-6.6,10.1-13.4,20.2-20.1,30.3
		c-4.1,6.1-6.4,6.6-12.6,2.7c-1.3-0.8-2.6-1.6-4.3-2.7c-3,4.6-5.9,8.9-8.9,13.3c-3.5,5.2-6.3,5.8-11.5,2.4c-1.5-1-3.1-2-4.9-3.1
		c-3.2,4.8-6.2,9.4-9.3,14c-3.1,4.5-6.2,5.1-10.6,2.1c-8.7-5.9-17.3-11.9-26.2-18c-2.6,3.4-5,6.7-7.5,9.9c-3.3,4.3-6.2,4.8-10.8,1.6
		c-20.1-14-40.1-28.1-60.2-42.1c-5.4-3.8-5.7-5.9-1.8-12.8c-4.8,0-9.3,0-13.8,0c-4.9,0-7.8-2.4-7.8-6.4c0-4,2.9-6.2,7.9-6.3
		c6.3,0,12.7-0.2,19,0.1c3.3,0.1,5.8-0.6,7.5-3.7c1.2-2.2,2.9-4.1,4.5-6c2.8-3.5,5.9-4,9.6-1.4c20.7,14.4,41.4,28.9,62.1,43.5
		c3.8,2.7,4.2,6,1.5,9.9c-0.7,1.1-1.5,2.1-2.6,3.5c7.1,4.9,14.1,9.7,21.5,14.8c2.2-3.3,4.3-6.4,6.6-9.8c-6.9-4.6-13.7-9.1-20.4-13.7
		c-4.4-3.1-4.5-8.5-0.2-11c2.8-1.6,5.3-0.8,7.7,0.9c10.4,7,20.8,13.9,31.6,21.1c2.1-3.1,4.1-6.1,6.3-9.4c-4.6-2.9-8.9-5.6-13.3-8.3
		c-6.4-4-12.7-7.9-19.1-11.9c-3.7-2.4-4.8-5.8-2.8-9c2-3.3,5.7-4,9.6-1.6c13.6,8.5,27.2,17,40.9,25.5c1.1,0.7,2.2,1.4,3.6,2.2
		c1.9-2.8,3.7-5.4,5.7-8.4c-2.1-1.5-4.1-2.9-6.2-4.3c-8.4-5.6-16.9-11.2-25.3-16.9c-4.1-2.8-5.1-6.4-2.8-9.6
		c2.2-3.1,5.7-3.5,9.7-0.9c10.4,6.9,20.8,13.9,31.5,21c2-2.9,3.9-5.7,6.3-9.3c-0.9-0.6-1.8-1-2.6-1.7
		c-21.9-18.2-43.7-36.4-65.6-54.5c-1.4-1.2-3.4-1.9-5.3-2.2c-16.9-2-33.8-3.7-50.6-5.8c-2.2-0.3-4.7-1.9-6-3.6c-1.4-2-2.7-2.7-5-2.7
		c-18.6,0.1-37.1,0.1-55.7,0c-0.9,0-1.8,0-2.8,0c-4.1-0.2-6.7-2.6-6.8-6.1c-0.1-3.7,2.7-6.4,6.9-6.5c16.9-0.1,33.7,0,50.6,0
		c1.4,0,2.8,0,4.9,0c-1.7-3.3-3.1-6.2-4.5-9.2c-2.5-5.3,0.2-9.8,6-9.8c24.9-0.1,49.8-0.1,74.7,0c1.6,0,3.4,0.6,4.9,1.2
		c14.8,5.5,29.5,11.1,44.3,16.6c1.9,0.7,4.1,1.1,6.1,1.1c12.5,0.1,25,0.1,37.5,0.1c5.8,0,8.7,2.1,8.7,6.2c0.1,4.2-2.9,6.4-8.5,6.4
		c-13.3,0-26.6,0.1-39.9-0.1c-2.2,0-4.4-0.5-6.5-1.2c-14.8-5.4-29.6-11.1-44.3-16.5c-1.6-0.6-3.3-1.1-4.9-1.1c-20-0.1-40-0.1-60,0
		C106.9,124.7,106.3,124.8,105.2,124.9z M87.4,239.4c3.9,2.7,7.5,5.2,11.3,7.9c3.7-5.2,7.3-10.1,11-15.4c-4-2.8-7.6-5.3-11.3-7.9
		C94.7,229.3,91.2,234.2,87.4,239.4z M77.2,209.2c-3.9,5.2-7.5,10.1-11.3,15.1c3.9,2.7,7.4,5.2,11.2,7.8c3.7-5.2,7.3-10.3,11-15.4
		C84.2,214.1,80.8,211.7,77.2,209.2z M120.1,239.2c-3.7,5.2-7.2,10.1-11,15.4c3.3,2.3,6.3,4.5,9.6,6.7c3.9-5.2,7.6-10.1,11.3-15.1
		C126.6,243.8,123.5,241.6,120.1,239.2z"/>
	<path class="st1" d="M151.7,42.5c34.9,0,69.8,0,104.6,0c1,0,2.1-0.1,3.2,0c3.5,0.3,5.9,2.9,6,6.2c0.1,3.4-2.5,6.1-6.2,6.4
		c-0.9,0.1-1.8,0-2.8,0c-70,0-140,0-210,0c-1,0-2.1,0.1-3.2-0.1c-3.4-0.7-5.4-2.8-5.3-6.3c0-3.5,2.1-5.6,5.5-6.2
		c1.2-0.2,2.4-0.1,3.5-0.1C81.9,42.5,116.8,42.5,151.7,42.5z"/>
	<path class="st1" d="M152.1,74.1c34.7,0,69.5,0,104.2,0c1.3,0,2.7-0.2,3.9,0.1c3.2,0.7,5.1,2.8,5.1,6.1c0,3.3-1.9,5.4-5,6.2
		c-1.1,0.3-2.4,0.2-3.5,0.2c-70.1,0-140.3,0-210.4,0c-0.9,0-1.8,0.1-2.8,0c-3.4-0.4-5.9-3.2-5.7-6.4c0.2-3.5,2.2-5.5,5.6-6.1
		c1.2-0.2,2.4-0.1,3.5-0.1C82.1,74.1,117.1,74.1,152.1,74.1z"/>
	<path class="st1" d="M126,23.5c-26.4,0-52.9,0-79.3,0c-1,0-2.1,0.1-3.2-0.1c-3.4-0.6-5.5-2.7-5.5-6.2s2-5.6,5.4-6.3
		c0.9-0.2,1.8-0.1,2.8-0.1c53.6,0,107.1,0,160.7,0c0.9,0,1.9-0.1,2.8,0.1c3.4,0.8,5.4,2.9,5.3,6.4c-0.1,3.3-2,5.3-5.2,6.1
		c-1.1,0.3-2.4,0.1-3.5,0.1C179.4,23.5,152.7,23.5,126,23.5z"/>
</g>
<g>
	<path class="st6" d="M58.5,286.1c0,6.9,0,13.6,0,20.6c-5.1,0-9.9,0.2-14.6-0.2c-0.9-0.1-2.3-2.6-2.3-4c-0.3-5.4-0.1-10.8-0.1-16.8
		c-4.4,0-8.6,0-12.7,0c-6.6,0-6.6,0-6.6-6.6c0-31.4,0-62.7,0-94.1c0-1.4,0-2.7,0-4.7c-4.6,0-9-0.1-13.4,0.1
		c-2.4,0.1-3.4-0.6-3.3-3.3c0.2-5.9,0.1-11.7,0.1-18c6.9,0,13.4,0,19.9,0c90.9,0,181.7,0,272.6-0.1c3.4,0,4.8,0.9,4.6,4.6
		c-0.3,4-0.3,8.1,0,12.2c0.2,3.7-1.3,4.8-4.6,4.6c-2.6-0.2-5.3,0.1-8-0.1c-3.1-0.2-4.2,1-4.2,4.2c0.1,20.1,0.1,40.1,0.1,60.2
		c0,12.4,0,24.8,0,37.3c0,1.1,0,2.2,0,3.6c-6.4,0-12.5,0-19.3,0c0,5.4,0,10.3,0,15.3c0,6,0,6-5.7,6c-2.6,0-5.3-0.1-7.9,0
		c-2.5,0.1-3.4-1-3.4-3.5c0.1-5.6,0-11.3,0-17.3C185.9,286.1,122.5,286.1,58.5,286.1z"/>
	<path class="st6" d="M169,127.1c0.5,6.9,1,13.7,1.5,20.8c-30.9,0-61.8,0-93.1,0c0.3-6.1,0.5-12.2,1-18.2c1.1-15.3,2.4-30.7,3.4-46
		c0.6-8.8,3.8-13.1,12.3-14.8c18.9-3.9,37.9-5.9,57.1-2.7c12.5,2.1,21.5,8.7,25,21.4c4.6,17,14.1,30,28.8,39.1
		c2.5,1.5,5.1,2.7,7.6,4.1c4.1,2.4,5.9,6.3,4.8,10.5c-1,4.1-4.6,6.7-9.2,6.8c-13.9,0.5-24.4-6.4-33.6-16c-1.6-1.7-3.1-3.6-4.7-5.4
		C169.6,126.8,169.3,127,169,127.1z"/>
	<path class="st6" d="M127.7,4.1c14.8,0,26.4,11.6,26.3,26.5c0,15-11.6,26.5-26.7,26.5c-14.2,0-26-12-26-26.6
		C101.4,15.6,112.9,4,127.7,4.1z"/>
</g>
<g class="st0">
	<path class="st1" d="M16.5,83c-0.6-2.2-1.3-4-1.5-5.9c-0.5-6.4,1.9-11.6,7.6-14.5c8.3-4.1,16.7-8,25.3-11.3c2.9-1.1,6.7,0,10-0.1
		c1.4,0,3.1,0.1,4-0.6C75.9,39.6,89.7,28.3,103.4,17c0.8-0.7,1.5-2.1,1.5-3.2c0.4-9.5,6.1-16.5,14.9-18.3
		c8.3-1.7,16.6,2.8,20.4,11.3c12.1,26.8,24.1,53.6,36.2,80.4c4.1,9.2,1.2,19-6.9,24c-8.1,4.9-18,2.7-24.4-5.3
		c-0.7-0.9-2.4-1.6-3.4-1.5c-17.5,2.3-35,4.7-52.1,7c-1.2,3.2-2.5,6.1-3.4,9.1c-0.3,0.9,0.1,2.3,0.5,3.2c4,8.6,8.1,17.1,12.2,25.7
		c2.7,5.6,1.6,8.5-3.9,11.2c-6.7,3.2-13.5,6.5-20.2,9.7c-5.1,2.4-8.3,1.2-10.7-3.8c-4.3-8.9-8.5-17.8-12.8-26.6
		c-0.5-1.1-1.5-2.4-2.5-2.6c-5.8-1-9.6-4.4-12.1-9.8c-3.9,1.7-7.6,3.4-11.4,5.1c-4.9,2.1-8.1,0.9-10.3-4c-4.5-9.9-9-19.9-13.4-29.8
		c-2.3-5.1-1-8.3,4.1-10.6C9.1,86.3,12.7,84.7,16.5,83z M138.2,91.3c-9.4-21-18.7-41.6-28-62.3c-0.6,0.4-1.1,0.5-1.4,0.8
		C95.8,40.4,82.9,51,69.8,61.5c-1.8,1.4-1.4,2.6-0.7,4.2c4.5,9.8,9,19.6,13.2,29.5c1.2,2.9,2.7,3.5,5.6,3.1
		c10.1-1.5,20.2-2.8,30.3-4.1C124.8,93.2,131.4,92.3,138.2,91.3z M75.8,112.8c-7.3-16.2-14.3-31.7-21.2-47.3c-0.9-2-2.2-2.1-4-1.2
		c-6.7,3.1-13.3,6.2-20.1,9.1c-2.4,1-2.5,2.3-1.5,4.4c1.5,3.2,2.9,6.5,4.4,9.7c5,11.2,10.1,22.5,15.1,33.7c0.6,1.4,1,3.6,3.4,2.6
		C59.8,120.2,67.6,116.6,75.8,112.8z M123.2,8.6c-3.9,0-6,3.6-4.2,7.7c12,26.8,24.1,53.6,36.2,80.3c1.6,3.5,4.2,4.7,7,3.4
		c2.8-1.3,3.6-4.1,2-7.6c-3.2-7.1-6.4-14.3-9.6-21.4c-8.8-19.4-17.5-38.9-26.2-58.3C127.3,10.3,126,8.5,123.2,8.6z M84.8,150.7
		c-3.6-7.6-7.1-14.9-10.7-22.4c-3.9,1.8-7.3,3.4-11,5.1c3.7,7.6,7.1,14.9,10.8,22.5C77.6,154.1,80.9,152.6,84.8,150.7z M22.2,95.1
		c-2.3,1.1-4.3,2-6.3,3c3.1,6.8,6,13.3,9,20c2.2-1,4.1-1.9,6.4-2.9C28.2,108.4,25.3,101.9,22.2,95.1z"/>
	<path class="st1" d="M265.3,97.8c-8.7,1.4-16.8,2.7-24.9,3.9c-1.6,0.2-3.4,0.5-4.9,0.1c-3-0.8-4.8-3-4.8-6.3c0-3.3,1.9-5.8,5.4-6.5
		c8.3-1.5,16.6-2.7,24.9-4.1c6-0.9,11.9-1.9,17.9-2.8c7.4-1.1,10.6,2.1,9.4,9.5c-2.2,13.8-4.6,27.6-6.9,41.4
		c-0.8,4.5-3.6,6.9-7.4,6.4c-4-0.5-6.2-3.7-5.6-8.4c0.7-5.3,1.7-10.5,2.5-15.8c0.2-1,0.3-2,0.5-4.1c-2.2,2.4-3.7,4-5.2,5.6
		c-18.8,20.4-39.3,38.9-63,53.6c-28.1,17.6-58.9,27.5-91.6,32c-28.4,3.9-57,3.9-85.6,3.5c-4.3-0.1-7.3-2.9-7.3-6.7
		c0-3.9,3.1-6.6,7.6-6.7c15-0.1,29.9,0.2,44.9-0.3c33.8-1.1,66.8-5.7,98.2-19.2c26.6-11.5,49.6-28.3,70.3-48.4
		c7.9-7.7,15.3-15.9,22.9-23.9C263.5,100.1,264.2,99.1,265.3,97.8z"/>
	<path class="st1" d="M216.4,244.9c0-17.3,0-34.6,0-51.9c0-2.4,0.3-5,1-7.3c1.4-4.3,4.3-6.3,8.8-6.3c22.3,0,44.6,0,66.9,0
		c5.2,0,8.6,3.2,9.5,8.7c0.3,1.9,0.3,3.8,0.3,5.7c0,34.2,0,68.3,0,102.5c0,2.3-0.2,4.8-0.8,7c-1.4,5-4.2,7-9.4,7
		c-22.1,0-44.1,0-66.2,0c-6.4,0-10-4.1-10.1-11.5c-0.1-13.9-0.1-27.8-0.1-41.6C216.3,253,216.3,249,216.4,244.9
		C216.4,244.9,216.4,244.9,216.4,244.9z M229.7,192.7c0,34.9,0,69.4,0,104.1c20.1,0,39.9,0,59.8,0c0-34.8,0-69.4,0-104.1
		C269.5,192.7,249.7,192.7,229.7,192.7z"/>
	<path class="st1" d="M200.1,265.5c0,11.2,0,22.3,0,33.5c0,7.7-3.6,11.3-11.3,11.3c-21.4,0-42.7,0-64.1,0c-7.5,0-11.3-3.5-11.3-11
		c-0.1-22.4-0.1-44.9,0-67.3c0-7.7,3.7-11.4,11.4-11.4c21.5,0,43,0,64.5,0c7.1,0,10.9,3.8,10.9,11.1
		C200.2,242.9,200.1,254.2,200.1,265.5z M186.5,296.9c0-21.1,0-41.9,0-62.8c-20,0-39.8,0-59.5,0c0,21.1,0,41.9,0,62.8
		C146.9,296.9,166.6,296.9,186.5,296.9z"/>
	<path class="st1" d="M58,235.1c10.9,0,21.8,0,32.7,0c6.7,0,10.4,3.6,10.5,10.2c0,18.3,0,36.5,0,54.8c0,6.4-3.8,10-10.3,10.1
		c-21.9,0-43.9,0-65.8,0c-6.9,0-10.5-3.6-10.5-10.6c-0.1-13.8,0-27.5,0-41.3c0-4.4-0.1-8.8,0-13.2c0.2-6.6,3.8-10,10.3-10.1
		C35.9,235.1,47,235.1,58,235.1C58,235.1,58,235.1,58,235.1z M87.7,296.9c0-16.3,0-32.3,0-48.4c-20,0-39.8,0-59.6,0
		c0,16.2,0,32.3,0,48.4C48.1,296.9,67.7,296.9,87.7,296.9z"/>
	<path class="st1" d="M193.7-11.6c-1.3,2.3-2,4-3.1,5.3c-6.9,7.9-13.9,15.8-20.9,23.7c-3.1,3.5-7,4-10,1.5c-3-2.5-3.1-6.6-0.1-10
		c7.1-8.1,14.3-16.1,21.4-24.2c2.2-2.5,5.2-3.4,8-1.7C190.9-16,192.1-13.5,193.7-11.6z"/>
	<path class="st1" d="M215.6,28.6c-0.8,1-2,3.4-4,4.4c-9.2,4.5-18.6,8.7-28.1,12.9c-3.5,1.6-7.2,0.1-8.7-3.2
		c-1.5-3.3-0.3-7.1,3.1-8.7c9.4-4.4,18.9-8.8,28.4-12.9C211,19,215.8,22.5,215.6,28.6z"/>
	<path class="st1" d="M199.1,72.9c-1.8,0-3.6,0.1-5.3,0c-3.4-0.2-6-2.8-6.2-6.2c-0.2-3.3,2.1-6.5,5.5-6.8c10.6-0.8,21.2-1.5,31.9-2
		c3.8-0.2,6.5,2.8,6.6,6.4c0.1,3.8-2.5,6.6-6.6,6.8c-8.6,0.5-17.2,1-25.9,1.5C199.1,72.8,199.1,72.9,199.1,72.9z"/>
</g>
<g class="st0">
	<path class="st1" d="M201,99.3c17.1-23.3,34-46.4,51.3-70c17,23.4,33.8,46.6,51.1,70.5c-4.7,0-8.6,0-12.6,0c-5.2,0-6.8,1.6-6.8,6.7
		c0,14.9,0,29.7,0,44.6c-0.3,76.6-52.1,141.1-126.9,157.8c-6.8,1.5-13.8,2.3-20.8,3.5c-0.1-0.3-0.2-0.6-0.3-0.9
		c0.6-0.5,1.2-1,1.9-1.4c44.7-27.9,71.3-67.9,79.9-119.8c1.4-8.6,1.8-17.5,1.9-26.3c0.3-19,0.1-38.1,0.1-57.1c0-5.8-1.3-7.1-7.2-7.1
		c-3.5,0-7.1,0-10.6,0C202,99.8,201.7,99.7,201,99.3z M270.4,160.5c0-0.4,0-0.8,0-1.1c0.1-5-1.5-7.3-5.3-7.4c-3.6-0.1-5,1.7-5.4,6.9
		c-1.1,17.4-5.1,34.1-12.4,49.9c-9.1,19.7-22.1,36.2-39,49.8c-3.3,2.6-3.7,5.4-1.5,8.1c2.1,2.6,5.1,2.8,8,0.5
		C248.6,239.6,267,203.9,270.4,160.5z M259.8,129.6c0,0.6,0,1.3,0,1.9c0.1,3.8,2,5.9,5.3,5.9c3.3,0,5.2-2.1,5.3-5.9
		c0-1.4,0.1-2.8,0-4.2c-0.3-3.3-2.2-5-5.5-4.9C261.3,122.6,259.8,124.6,259.8,129.6z"/>
	<path class="st1" d="M115.2,175.1c-3.9,0-7.3,0.1-10.6-0.1c-0.9-0.1-2.2-1.2-2.5-2.1c-3.6-10.7-7.2-21.5-10.6-32.3
		c-0.4-1.3-0.2-3,0.1-4.4c2.1-9.8,4.4-19.7,6.6-29.5c0.9-4.3-0.6-7.1-4.1-8c-3.3-0.8-5.7,1.1-6.7,5.4c-2,8.8-4.1,17.7-6,26.5
		c-0.5,2.2-1.2,3.2-3.7,3.1c-13.2-0.1-26.5-0.1-39.7,0c-2.3,0-3.3-0.6-3.8-3c-1.8-8.8-3.9-17.4-5.9-26.1c-1-4.6-3.3-6.3-6.9-5.5
		c-3.5,0.8-4.8,3.5-3.8,8c2.2,9.7,4.4,19.4,6.4,29.1c0.3,1.6,0.3,3.5-0.2,5.1c-3.4,10.3-7,20.5-10.4,30.7c-0.7,2.1-1.6,3.1-4,2.9
		c-3-0.2-6-0.1-9.5-0.1c0-1.7,0-3.1,0-4.4c0-29.9,0-59.7,0-89.6c0-12.2,6.7-18.9,19-18.8c4.6,0,10.1-1.2,13.6,0.8
		c3.4,1.9,4.9,7.4,7.2,11.3c3.5,6.1,7,12.2,10.6,18.3c3.3,5.6,8,5.6,11.2,0.1c5.4-9.3,10.7-18.5,16-27.8c1.2-2,2.5-2.8,4.8-2.7
		c5,0.2,10.1,0,15.1,0c10.9,0,17.8,7,17.8,18.1c0,28.7,0,57.5,0,86.2C115.2,169.2,115.2,172,115.2,175.1z"/>
	<path class="st1" d="M103.4,213.2c-30.4,0-60.4,0-90.8,0c0.3-1.2,0.5-2.3,0.9-3.4c6.6-20.3,13.2-40.7,19.6-61
		c0.9-2.8,2.1-3.9,5.2-3.9c13.2,0.2,26.4,0.1,39.7,0.1c1.8,0,3.3,0,4.1,2.3c7,21.5,14.1,43,21.2,64.5
		C103.4,212.1,103.3,212.5,103.4,213.2z"/>
	<path class="st1" d="M23.6,12.9c0.7-14.2,6.7-24.7,19.3-30.6c11.6-5.4,23-4,32.9,4.2c11.1,9.1,14.6,21.2,11.3,35
		C84.6,32,79.2,40.9,70.2,47.2c-9.2,6.4-19.5,6.5-28.5-0.1C30,38.6,24.5,26.8,23.6,12.9z"/>
	<path class="st1" d="M32.3,224.9c17.1,0,33.7,0,50.5,0c-2,29.3-3.9,58.4-5.9,87.7c-4.7,0-9.1,0-13.9,0c0-1.5,0-2.8,0-4.1
		c0-12.7,0-25.4,0-38.1c0-0.8,0-1.5,0-2.3c-0.2-3.8-2.1-6.1-5.2-6.2c-3.3-0.1-5.6,2.1-5.6,6.1c-0.1,9.3,0,18.6,0,28
		c0,5.4,0,10.8,0,16.5c-4.7,0-9.1,0-14,0C36.2,283.3,34.3,254.2,32.3,224.9z"/>
</g>
<g class="st0">
	<path class="st1" d="M0.6,42.8c0-67.8-0.1-135.6,0-203.4c0.1-43.8,22.1-65.8,65.8-65.9c57.3-0.1,114.6-0.2,171.9,0
		c40.7,0.1,64,23.5,64,64.4c0.1,136.8,0.1,273.6,0,410.3c0,40.9-23.2,64-64.4,64.1c-57.9,0.2-115.7,0.2-173.6,0
		C23.4,312.3,0.7,289.3,0.6,248C0.5,179.6,0.6,111.2,0.6,42.8z M286.1,196.2c0-103.5,0-204.2,0-304.7c-91,0-180.5,0-269.8,0
		c-0.6,3.4-1.2,5.1-1.2,6.8c-0.1,94.7,0.1,189.3-0.4,284c-0.1,14.4,7.7,14.3,17.8,14.2c57.8-0.2,115.7-0.2,173.5-0.3
		C232.2,196.2,258.4,196.2,286.1,196.2z M287.1-125.7c0-15.8,0.9-30.8-0.2-45.8c-1.7-23.1-18-39.2-41.3-39.4c-63-0.6-126-0.5-189,0
		C36.3-210.8,20-198,17-178c-2.5,16.8-0.5,34.3-0.5,52.2C106.8-125.7,195.9-125.7,287.1-125.7z M286.8,210.8c-9.2,0-16.1,0-23.1,0
		c-69.4,0-138.9,0-208.3,0c-43.1,0-43.1,0-40.5,43.6c0.1,1.8,0.1,3.5,0.4,5.2c3.1,20.2,18.5,36.7,38.5,37
		c64.8,0.8,129.5,0.8,194.3,0.1c20.4-0.2,36.6-16.2,38.5-36.4C287.9,244.8,286.8,229,286.8,210.8z"/>
	<path class="st1" d="M150.9,225.9c15.3-0.2,28,11.8,28.6,27c0.7,16.3-11.6,29.3-27.8,29.4c-15.7,0.1-27.9-11.4-28.5-26.9
		C122.6,238.9,134.6,226.2,150.9,225.9z M152,232.1c-11.8-0.4-22.8,9.8-22.5,21.8c0.4,12.8,7.3,21,20.2,21.9
		c13.8,0.9,21.8-7.1,23.5-20.5C174.6,243.7,163.8,232.5,152,232.1z"/>
</g>
<g class="st0">
	<path class="st1" d="M276.9,155.1c-4.1,0-6.9,0-10.4,0c0-3.4,0-6.4,0-9.4c0-40.4,0-80.8,0-121.3c0-12.3-3-15.3-15.3-15.3
		c-49.1,0-98.1,0-147.2,0c-12.6,0-15.2,2.6-15.2,15.3c0,26.5,0,53,0,79.4c0,3,0,6,0,9.4c-3.8,0-6.8,0-10.7,0c0-27.7,0-55.1,0-82.5
		C66.7,29.6,62.7,33,62.6,43.2c-0.1,23.1,0,46.2,0,70.1c-3.3,0.2-6.2,0.3-10.3,0.5c0-8.2,0-15.9,0-23.6c0-14.8,0-29.5,0-44.3
		c0-18.6,5.9-25,24.9-26.5c0.4-1,1.1-2.2,1.5-3.4C82.3,4,88.9-1.4,101-1.4c51-0.1,102-0.1,153,0c13.1,0,19.4,5.8,23.5,20.3
		c17.8,1.3,26.2,7.6,25.9,30.8c-0.6,44-0.1,88.1-0.2,132.1c0,18.3-7.5,25.7-26,25.8c-21.7,0-43.4,0-66.5,0
		c4.1,13.6,7.4,26.5,12.1,38.8c1,2.5,7.3,3,11.7,4.6c0,2.3,0,5.2,0,8.5c-2.2,0.2-4.1,0.5-6,0.5c-20,0-40.1,0-60.9,0
		c-0.2-3.5-0.3-6.4-0.5-10.3c14.9,0,29.3,0,45.3,0c-4.3-14.2-8.1-27.1-12.4-39.8c-0.4-1.3-4.1-2.2-6.3-2.2
		c-10.3-0.2-20.5-0.1-31.4-0.1c0-3.6,0-6.4,0-10.3c3.1,0,6.1,0,9.1,0c34.8,0,69.7,0,104.5,0c14.8,0,18.2-4.3,15.6-20.6
		c-47.9,0-96,0-144.9,0c-0.2-3.8-0.4-6.6-0.6-10.7c48.8,0,97,0,145.8,0c0.3-2.9,0.6-4.8,0.6-6.6c0-38.5,0.1-76.9,0-115.4
		c0-11.2-3.6-14.3-15.6-13.5C276.9,71.9,276.9,113.3,276.9,155.1z"/>
	<path class="st1" d="M111.4,160.8c25.1,11.6,41.1,30.7,44.4,58.3c1.9,15.7,0,31.8,1,47.6c0.4,6.2,3.1,12.8,6.3,18.2
		c3.6,6.1,5.2,11.7,2.3,18.1c-3,6.5-8.6,9.3-15.5,9.4c-13.9,0.1-27.9,0.1-41.8,0.1c-29.3,0-58.5-0.1-87.8,0
		c-7.7,0-14.6-1.5-18.4-8.9c-3.9-7.7-1.3-14.1,3.7-20.7c2.9-3.9,4.4-9.6,4.7-14.6c0.6-12.8,0.1-25.6,0.2-38.4
		c0.2-30.8,14.4-53,41.5-67.2c1.2-0.6,2.4-1.3,4.4-2.3c-2.6-8.2-5.1-16.4-7.7-24.5c-3-9.6-1.6-11.7,8.1-11.8
		c18.1-0.1,36.2-0.1,54.3,0c8.2,0.1,9.9,2.5,7.6,10.3c-2.5,8.3-5.1,16.4-7.7,24.7C111,159.3,111.2,159.6,111.4,160.8z M59.6,135
		c2.5,8.1,4.5,15.4,7.1,22.3c2.6,6.9,1.2,10.4-6.2,13.2c-21.3,8.3-35.2,24.1-38.3,46.8c-2.2,16.4-0.4,33.4-1.8,50
		c-0.7,7.9-4.8,15.5-7.2,23.3c-0.9,2.7-2.5,5.9-1.7,8.1c0.6,1.7,4.5,2.9,7,3c9.5,0.4,19,0.2,28.4,0.2c33.4,0,66.9,0.1,100.3-0.2
		c2.9,0,6.7-1.5,8.4-3.7c1-1.3-1.5-5.2-2.4-7.9c-2.4-7.2-6.1-14.4-6.8-21.7c-1.1-12.7-0.3-25.6-0.3-38.4
		c-0.2-27.7-14.6-49.5-40.3-59.6c-6.9-2.7-8.1-6.3-5.7-12.8c2.7-7.1,4.7-14.5,7.2-22.6C91,135,76.1,135,59.6,135z"/>
	<path class="st1" d="M256.1,155.5c-42.2,0-83.1,0-124,0c-1.9,0-3.8-0.2-6.3-0.3c0-3.2,0-6.1,0-9.6c4.8-0.3,9.4-0.5,15.2-0.8
		c0-11,0.2-21.8-0.1-32.5c-0.2-6.3,1.8-9.2,8.6-9c26.1,0.6,22.7-3.6,22.9,22.3c0.1,6.1,0,12.2,0,18.9c3.5,0,6.4,0,10.4,0
		c0-9.6,0-19.3,0-28.9c0-5.6-0.1-11.1,0-16.7c0.3-24.8-3.9-21.5,22.4-22c7.2-0.1,9.1,3.2,9.1,9.7c-0.2,16.2-0.1,32.3-0.1,48.5
		c0,3,0,6,0,9.6c3.7,0,6.6,0,10.4,0c0-4.1,0-7.9,0-11.7c0-25.9,0.2-51.8-0.1-77.7c-0.1-7.4,2.8-9.8,9.8-9.7
		c24.4,0.4,21.6-2.4,21.7,21.3c0.1,26.2,0,52.4,0,78.6C256.1,148.4,256.1,151.4,256.1,155.5z M244.9,145c0-29.8,0-58.9,0-88
		c-3.5,0-6.3,0-9.1,0c0,29.7,0,58.8,0,88C238.9,145,241.4,145,244.9,145z M203,145c0-19.4,0-38.1,0-56.9c-3.5,0-6.3,0-9.1,0
		c0,19.3,0,38,0,56.9C197.1,145,199.6,145,203,145z M152,114c0,10.7,0,20.7,0,30.5c3.5,0,6.4,0,9.2,0c0-10.5,0-20.3,0-30.5
		C158,114,155.3,114,152,114z"/>
	<path class="st1" d="M260.9,296.5c-11.4-0.2-20.7-9.6-20.6-20.9c0.1-11.2,9.6-20.7,20.9-20.8c11.7-0.1,21.1,9.6,20.8,21.5
		C281.7,287.9,272.6,296.6,260.9,296.5z M263.2,265.6c-7-0.6-12.1,3.6-12.1,9.6c0,6.1,3.1,10,9.3,10.8c5.8,0.7,11.2-3.9,11.3-9.7
		C271.7,270.1,268.3,266.5,263.2,265.6z"/>
	<path class="st1" d="M182.9,291.3c0.1-11.6,9.1-20.6,20.7-20.6c11.5,0,20.9,9.1,21,20.5c0.2,11.5-9.9,21.5-21.3,21.3
		C192,312.2,182.9,302.8,182.9,291.3z M203.4,301.7c5.9,0,10.5-4.5,10.7-10c0.2-5.7-4.8-10.8-10.5-10.7c-5.8,0-10.9,5.2-10.3,10.8
		C193.9,298,197.6,301.3,203.4,301.7z"/>
	<path class="st1" d="M129.7,113.3c-2.9,0-5.9,0-9.7,0c0-6.7,0-13,0-19.8c-3.7,0-6.6,0-10.2,0c0,6.5,0,12.8,0,19.8
		c-3.6,0.2-6.5,0.3-10.5,0.5c0-9-0.3-17.5,0.2-26c0.1-1.9,3.2-3.7,5.2-5.3c0.5-0.4,1.6-0.1,2.4-0.2
		C131.4,80.8,134.9,85.6,129.7,113.3z"/>
	<path class="st1" d="M120.3,29.5c0-3.1,0-5.8,0-9.1c3.2,0,6.2,0,9.8,0c0,2.9,0,5.8,0,9.1C127.1,29.5,124.2,29.5,120.3,29.5z"/>
	<path class="st1" d="M109,29.8c-3.2,0-5.9,0-9.1,0c0-3.1,0-6,0-9.4c2.8,0,5.7,0,9.1,0C109,23.1,109,26,109,29.8z"/>
	<path class="st1" d="M150.7,29.6c-3.4,0-6.1,0-9.2,0c0-3.3,0-6.2,0-9.5c3.2,0,6.1,0,9.2,0C150.7,23.6,150.7,26.7,150.7,29.6z"/>
	<path class="st1" d="M88.7,275.6c-3.9,0-6.6,0-9.8,0c-0.4-3.1-0.9-6.1-1.4-9.5c-2.9-0.4-5.8-0.8-9.3-1.3c0-3,0-5.9,0-10.1
		c5.9,0,12,0.5,17.9-0.2c2.7-0.3,5-3.2,7.5-4.9c-2.2-2.3-4-5.6-6.7-6.8c-3.4-1.6-7.6-1.3-11.4-2.2c-7.1-1.8-11.7-6.5-12.8-13.8
		c-1-7,1.5-13.3,7.9-16.1c6-2.6,8.6-6,7.6-12.7c3.6,0,6.5,0,9.9,0c0.4,2.9,0.8,5.8,1.2,9.2c2.9,0.4,5.8,0.7,9.3,1.2c0,3,0,6,0,10.1
		c-6,0-12.1-0.5-18,0.2c-2.7,0.4-5,3.3-7.5,5c2.2,2.4,4,5.7,6.8,6.9c3.7,1.6,8.2,1.3,12.2,2.4c6.8,1.9,11,6.6,12,13.6
		c1,7-1.5,13.4-7.9,16.1C90.2,265,87.8,268.6,88.7,275.6z"/>
</g>
</svg>
