<?xml version="1.0" encoding="utf-8"?>
<!-- Generator: Adobe Illustrator 23.0.0, SVG Export Plug-In . SVG Version: 6.00 Build 0)  -->
<svg version="1.1" id="Layer_1" xmlns="http://www.w3.org/2000/svg" xmlns:xlink="http://www.w3.org/1999/xlink" x="0px" y="0px"
	 viewBox="0 0 356 310.7" style="enable-background:new 0 0 356 310.7;" xml:space="preserve">
<style type="text/css">
	.st0{display:none;}
	.st1{display:inline;}
	.st2{display:inline;fill:none;stroke:#000000;stroke-width:12;stroke-miterlimit:10;}
	.st3{display:inline;fill:none;stroke:#000000;stroke-width:10;stroke-miterlimit:10;}
	.st4{display:inline;fill:none;stroke:#000000;stroke-width:7;stroke-miterlimit:10;}
	.st5{display:inline;fill:none;stroke:#000000;stroke-width:5;stroke-miterlimit:10;}
	.st6{fill:none;stroke:#000000;stroke-width:7;stroke-miterlimit:10;}
</style>
<g class="st0">
	<path class="st1" d="M222.7-22.5c-2.1,4.6-4.1,9.2-6.4,13.5c-1.7,3.2-2,6-0.5,9.4c1.6,3.6,2.7,7.5,4.3,11.8
		c-55.6-9.3-104.7,3.7-146.4,41.1C43.9,79.9,26.2,113.5,20.3,153c-12,78.9,34.1,156,109.1,183.2c75.4,27.4,158.5-1.6,201.2-70.3
		c42.2-67.8,31.6-164.2-39.7-221c4.3-1.6,8.4-2.8,12.1-4.7c2-1,4.1-2.7,5.2-4.7c2.7-4.9,4.9-10.1,7.3-15.2
		c67.3,52.3,101.3,158.2,51.9,252.5c-49.1,93.7-163.9,134.4-260.5,92.4C7.5,321.9-41.2,211.2-5.1,109.7
		C30.8,9.1,133-40.1,222.7-22.5z"/>
	<path class="st1" d="M265.4,53.9c59.4,35.6,88.2,116.3,54.2,187.4c-34.9,72.9-120.9,103.6-194.5,69.9c-72-32.9-105-119.2-73-191.9
		C85.2,43.9,166.3,17,229.1,37.3c-5.1,10.8-10,21.7-15.3,32.3c-0.4,0.9-3.2,1.3-4.6,1C150.9,58.8,94.7,94.5,80.5,152.5
		c-15.3,62.6,28.5,126,92.4,133.8c61.2,7.5,116.3-35.2,122.8-96.2c4.3-40.3-10.4-73.4-42.1-98.8c-3.2-2.6-3.8-4.3-1.9-8.1
		C256.5,73.6,260.7,63.9,265.4,53.9z"/>
	<path class="st1" d="M240.2,108c34.8,24.2,45.1,75.4,23.1,113.2c-23.1,39.8-71.7,55.5-112.9,36.4c-41.7-19.3-61.8-67.1-46-109.9
		c16.5-44.7,62.4-64.4,99.3-56c-4.6,9.9-9,19.7-13.9,29.3c-0.6,1.2-3.4,1.6-5.2,1.7c-24.7,1.2-45,17.8-51.1,41.9
		c-7.6,29.9,11.7,60.3,42.3,66.9c29.9,6.4,60.2-14.2,65.2-44.3c2.9-17.4-1.5-32.6-12.9-46c-1-1.1-1.9-3.4-1.4-4.5
		C231.1,127.3,235.6,117.8,240.2,108z"/>
	<path class="st1" d="M178.4,146c-3.9,8.4-7.8,16.2-11.1,24.1c-3.7,8.9-0.6,18.6,7.1,23.9c7.6,5.3,18,4.6,24.8-2.1
		c2.3-2.3,4.1-5.3,5.5-8.2c3.7-7.4,7.1-15,10.6-22.7c7.4,9.4,6.7,25.6-1.5,36.6c-9.1,12.1-24.7,16.8-38.8,11.4
		c-14.2-5.4-22.9-19.6-21.3-34.8C155.2,160.5,165.6,148.2,178.4,146z"/>
	<path class="st1" d="M261.8-54.9c4.9,7.3,4.7,13.6,0.9,20.9c-7.2,13.8-13.4,28.2-20.3,42.9c-3.2-6.5-5.7-11.9-1.9-19
		c6.9-12.9,12.5-26.4,18.7-39.7C259.9-51.4,260.8-53,261.8-54.9z"/>
	<path class="st1" d="M278.7,25.5c5.3-11.3,10.4-22.3,15.5-33.3c1.5-3.3,3.1-6.6,4.7-9.9c4.6-9.8,4.6-9.8,16-12.5
		c-0.6,1.6-1,2.9-1.6,4.1c-6,12.8-12.4,25.4-17.7,38.5C292.4,20.1,287.8,24.7,278.7,25.5z"/>
</g>
<g class="st0">
	<path class="st2" d="M71.7,391.6c-0.9,1.4-1.6,2.5-2.3,3.6c-7.2,10.7-17.4,15-30,13.4c-10.2-1.3-18.6-12.1-18.6-23.3
		c0-40.5,0-81,0-121.4c0-1.8,0-3.5,0-5.9c-5.2,0-10,0-14.8,0c-10.8,0-16.5-5.5-16.6-16.2c-0.1-31.9-0.1-63.8,0-95.7
		c0.1-14.9,10.2-25,25.7-25.8c6.3-0.3,12.7-0.3,19,0c1.5,0.1,3.3,1.3,4.2,2.5c7,8.6,14.4,16.7,23.9,22.7c3.6,2.2,6.5,2.3,10.3,0.4
		c10.7-5.5,19.6-12.8,25.9-23.1c0.8-1.3,2.9-2.5,4.4-2.5c40.2-0.1,80.4-0.1,120.6-0.1c6.9,0,11.4,3.1,13.5,9.4
		c2.9,8.6,2.9,17.4,0.6,26.1c-1.9,7-5.8,9.4-13.1,9.4c-33.8-0.1-67.7-0.2-101.5-0.3c-0.5,0-1.1,0.1-2.4,0.2c0,1.7,0,3.4,0,5.1
		c0,70.7,0,141.5,0,212.2c0,13.5-7.6,23.4-19.3,25.1c-11.5,1.7-20.7-2-27.1-11.9C73.5,394.4,72.7,393.1,71.7,391.6z"/>
	<path class="st1" d="M143.1,78.8c0-11.1,0-21.6,0-32.7c10.3,0,20.5,0,30.7,0c10.1,0,20.1,0,30.5,0c0.2-1.6,0.4-2.9,0.5-4.2
		c1-9.2,5.6-15.9,14.5-18.9c12.3-4.2,24.7-4.3,37-0.1c9.5,3.2,13.7,9.8,13.9,19.8c0,1,0.1,1.9,0.2,3.4c1.7,0,3.3,0,4.9,0
		c28.3,0,56.6-0.1,85,0.1c20.2,0.2,30.6,11.1,30.6,31.5c0,71.7,0,143.4,0,215.1c0,3.6,0.1,7.2-0.1,10.8c-0.9,17.4-11,27.1-28.4,27.1
		c-39.1,0-78.2,0-117.3,0c-32.2,0-64.4,0-96.6,0c-1.6,0-3.3,0-5.2,0c0-10.2,0-20.1,0-30.5c1.9,0,3.7,0,5.4,0c61.9,0,123.8,0,185.7,0
		c2.7,0,5.5-0.2,8.2-0.7c9.9-1.9,15.5-7.8,17-17.7c0.3-1.9,0.4-3.9,0.4-5.8c0-56.8,0-113.6,0-170.3c0-8.8-1.7-17.5-10-22.3
		c-4.5-2.6-10-4.4-15.1-4.4c-62-0.3-124.1-0.2-186.1-0.2C147,78.8,145.2,78.8,143.1,78.8z"/>
	<path class="st3" d="M26.9,62.6C26.6,39.7,45.6,20.2,68.2,20c23.8-0.2,43.3,18.6,43.5,41.8c0.1,23-18.7,42.1-41.1,43
		C49.1,105.8,26.5,87.3,26.9,62.6z"/>
</g>
<g class="st0">
	<path class="st4" d="M65.4,312.5c-6-8.4-11.4-16.3-17.4-23.8c-1.1-1.4-4.6-2.1-6.5-1.5c-7.9,2.2-15.6,5-23.4,7.4
		c-9.6,3-13.9,1-17.1-8.5c-4.6-13.4-8.9-26.9-13.2-40.4c-2.4-7.4,0.2-12.6,7.7-15.2c7-2.4,14.1-4.9,21.3-6.7
		c5.8-1.5,7.8-4.1,7.4-10.4c-2.7-43.8,9.4-83.2,38.6-116.1c43.6-49.2,98.9-67.4,162.4-51.6c63.3,15.7,103.2,57.7,118.8,121.1
		c3.8,15.6,3,32.4,3.7,48.7c0.2,4.3,1.1,6.4,5.4,7.6c7.6,2.1,15.1,4.7,22.6,7.2c8.5,2.9,10.9,7.6,8.3,16.1
		c-4.4,13.7-8.8,27.5-13.3,41.2c-2.3,7.1-7.4,9.8-14.7,7.6c-8.3-2.4-16.6-5-24.7-7.9c-3.8-1.4-6-1.1-8.3,2.5
		c-4,6.3-8.5,12.3-13.3,18c-3,3.5-2.8,5.8,0,9.2c5,6.2,9.5,12.8,14.1,19.2c5.8,8.1,5.1,13.2-2.7,18.9c-11.3,8.3-22.5,16.5-33.9,24.6
		c-7.2,5.1-12.6,4.2-17.9-3c-5.2-7-10-14.2-15.4-21c-1.3-1.6-4.5-3-6.2-2.5c-9.2,2.7-18.1,6.1-27.8,9.4c0,9.7,0.1,19.8,0,29.9
		c-0.1,9.3-3.5,12.9-12.6,13c-14.2,0.2-28.4,0.2-42.6,0c-9.2-0.2-12.5-3.8-12.6-13c-0.1-8.4-0.2-16.9,0.1-25.3c0.1-4-1-6-5.2-7
		c-7.2-1.8-14.3-4-21.2-6.8c-3.6-1.4-5.6-1-7.8,2.1c-5.1,7.3-10.3,14.5-15.7,21.6c-4.9,6.5-10.2,7.4-16.8,2.8
		c-12-8.5-23.8-17.1-35.6-25.9c-6.3-4.7-7-10.3-2.4-16.9C53.3,328.8,59.5,320.5,65.4,312.5z M337.8,217.3
		c2.6-63-20.4-112.5-73.5-144.3c-55.5-33.2-112.4-31.1-165.6,5.8c-47.3,32.9-67.5,80.1-64.4,138.4c13.5,0,26.2,0,38.8,0
		c12.9,0,25.9,0,38.8,0c0.6,1.6,1.2,2.7,1.5,3.9c8.4,32.9,35.1,55.8,67.4,57.9c33.5,2.1,63.3-17.3,75.5-49.3
		c4.8-12.5,4.8-12.4,18.6-12.3C295.5,217.4,316.1,217.3,337.8,217.3z"/>
	<path class="st1" d="M251.3,147.2c-4.8,7.6-8.9,15.9-14.6,22.8c-12.5,15.2-25.3,30.2-38.9,44.4c-4.1,4.3-10.9,7-16.9,8.3
		c-7.6,1.6-12.6-4.3-10.4-11.9c1.5-5.1,4.1-10.6,7.8-14.3c19.2-19.4,40.5-36.1,64.8-48.9c2-1.1,4.2-1.6,6.3-2.4
		C250.1,145.8,250.7,146.5,251.3,147.2z"/>
	<path class="st1" d="M295.3,124.8c-6.2,3.7-11.1,6.6-14.2,8.4c-8.5-8.5-16.6-16.6-25.6-25.6c1.5-2.7,4.4-7.6,8.2-14.3
		C274.5,104.1,284.6,114.2,295.3,124.8z"/>
	<path class="st1" d="M319.4,189.7c-8,0-13.1,0-18.2,0c-3-11.1-6-21.8-9.2-33.4c4.4-2.6,9.5-5.6,16-9.5
		C311.8,161.1,315.4,174.8,319.4,189.7z"/>
	<path class="st1" d="M190.7,91.2c-3.3,0-6.1,0-9.4,0c0-8.3,0-16.3,0-24.8c3.1,0,6,0,9.4,0C190.7,74.8,190.7,82.8,190.7,91.2z"/>
	<path class="st1" d="M92.4,142.8c-2,3.3-3.6,5.9-5.3,8.8c-7.6-4.4-14.8-8.6-22.3-12.9c1.9-3.1,3.4-5.7,5.2-8.7
		C77.5,134.3,84.6,138.3,92.4,142.8z"/>
	<path class="st1" d="M307.2,138.6c-7.9,4.6-15,8.6-22.4,12.9c-1.7-2.7-3.3-5.3-5.3-8.7c7.4-4.3,14.5-8.5,22.2-12.9
		C303.5,132.8,305.1,135.3,307.2,138.6z"/>
	<path class="st1" d="M126.1,109.2c-4.5-7.8-8.5-14.8-12.9-22.4c3-1.8,5.6-3.3,8.8-5.1c4.4,7.4,8.4,14.4,12.9,22
		C131.9,105.6,129.3,107.2,126.1,109.2z"/>
	<path class="st1" d="M237.1,103.8c4.7-7.9,8.6-14.7,12.9-22c3,1.7,5.6,3.2,8.8,5c-4.4,7.6-8.5,14.7-12.9,22.5
		C242.8,107.4,240.1,105.7,237.1,103.8z"/>
	<path class="st1" d="M49.4,198.2c8.5,0,16.5,0,24.9,0c0.2,3.1,0.3,5.9,0.5,9.2c-8.6,0-16.8,0-25.4,0
		C49.4,204.4,49.4,201.7,49.4,198.2z"/>
	<path class="st1" d="M297.8,207.3c0-3.7,0-6.2,0-9.1c8.3,0,16.3,0,24.8,0c0,3.2,0,5.9,0,9.1C314.4,207.3,306.4,207.3,297.8,207.3z"
		/>
</g>
<g class="st0">
	<path class="st4" d="M385.8,133.6c0,78.2,0,156.4,0,234.6c-6.7,15.7-12.7,19.6-30,19.6c-23,0-46,0.1-69.1,0
		c-14.4,0-25-10.8-25.1-25.2c0-14.6,0-29.2,0-43.7c0-1.8,0-3.5,0-5.3c-29.1,0-57.6,0-86.6,0c8.2,16.6,16.3,32.7,24.4,49.1
		c-33.5,0-66.1,0-99.2,0c8.3-16.6,16.2-32.6,24.6-49.4c-2.8,0-4.7,0-6.7,0c-34.5,0-68.9,0-103.4,0c-16.1,0-26.6-10.4-26.6-26.3
		c0-65.4,0-130.9,0-196.3c0-15.4,10.4-25.9,25.8-25.9c90.6,0,181.2,0,271.9,0c15.3,0,25.5,10.3,25.5,25.6c0,7.9,0,15.8,0,24.1
		c2.4,0,4.2,0,6,0c14.7,0,29.5,0,44.2,0c7,0,13.1,2.4,17.6,7.8C381.8,125.6,383.6,129.8,385.8,133.6z M261.6,263.2
		c0-2.2,0-4.2,0-6.1c0-39.3,0-78.5,0-117.8c0-11.8,7.7-21.8,18.8-24.4c1.9-0.4,3.8-0.6,5.8-1c0-8.2,0-16.1,0-24.1
		c-91.1,0-181.9,0-272.9,0c0,57.9,0,115.4,0,173.3C96,263.2,178.5,263.2,261.6,263.2z M360.8,139.7c-25,0-49.6,0-74.1,0
		c0,8.3,0,16.1,0,24c24.9,0,49.4,0,74.1,0C360.8,155.5,360.8,147.8,360.8,139.7z M286.6,213.5c25,0,49.5,0,74.1,0
		c0-8.3,0-16.1,0-24.1c-24.8,0-49.4,0-74.1,0C286.6,197.5,286.6,205.2,286.6,213.5z M323.7,288.6c-6.9,0-12.3,5.4-12.3,12.2
		c0,6.8,5.5,12.2,12.4,12.2s12.3-5.5,12.2-12.3C336,293.9,330.5,288.5,323.7,288.6z M323.7,362.7c6.8,0,12.3-5.4,12.3-12.2
		c0-6.8-5.4-12.2-12.2-12.2c-6.9,0-12.3,5.3-12.4,12.1C311.4,357.2,316.9,362.6,323.7,362.7z"/>
</g>
<g class="st0">
	<path class="st4" d="M310.1-38.3c3.8,2,4.9,5.2,4.9,9.4c-0.1,32.6,0,65.1,0,97.7c0,3.4-0.1,6.9-3.6,8.8c-3.5,1.9-6.4,0.2-9.3-1.8
		c-16-10.5-31.9-20.9-48-31.2c-1.9-1.2-4.6-1.4-7.8-2.3c0,6.3,0,11.3,0,16.3c0,6.9,0.2,13.8-0.1,20.6c-0.4,10.9-8.8,19.3-19.7,19.7
		c-10,0.3-19.9,0.2-29.9,0.3c-1.5,0-3,0-4.8,0c0,11.8,0,23.1,0,34.9c1.6,0.1,3.2,0.2,4.8,0.2c22.7,0,45.5,0,68.2,0
		c7.2,0,9.1,2.1,9.2,9.3c0,4.2,0.1,8.4,0,12.6c-0.1,4.4-2.7,7.2-6.5,7.3c-3.9,0.1-6.7-2.8-7-7.3c-0.1-1.4,0-2.8,0-4.2
		c0-1.2,0-2.5,0-4c-23,0-45.7,0-68.8,0c-0.1,1.7-0.2,3.3-0.2,4.9c0,14,0,28.1,0,42.1c0,5.4-2.3,8.4-6.5,8.6
		c-4.3,0.1-6.9-3.2-6.9-8.7c0-14,0-28.1,0-42.1c0-1.5,0-3,0-4.8c-23.6,0-46.9,0-70.8,0c0,2.4,0.1,4.7,0,7c-0.2,4.1-2.7,6.9-6.3,7
		c-3.8,0.1-6.9-2.6-7.1-6.8c-0.2-4.2-0.1-8.4,0-12.6c0.1-6,2.4-8.4,8.5-8.4c19.9,0,39.9,0,59.8,0c5.1,0,10.1,0,15.5,0
		c0-11.6,0-23,0-35.1c-2.5,0-5.1,0-7.7,0c-6.7,0-13.5,0-20.2-0.1c-12.9-0.2-21.6-8.8-21.8-21.7c-0.2-11.2,0-22.5,0-33.5
		c-3.1-2.1-5.5-1.2-8.2,0.6c-15.9,10.5-31.9,20.9-47.9,31.3c-2.8,1.8-5.6,3.4-9,1.5c-3.3-1.9-3.6-5-3.6-8.4
		c0.1-32.6,0.1-65.1,0-97.7c0-4.1,0.9-7.4,4.2-9.9c1.7,0,3.4,0,5.1,0C86.1-26.7,103.8-15,120.8-3.9c3.3-0.7,5.7-1.7,8.1-1.7
		c14.5-0.1,28.9-0.1,43.4-0.1c6,0,8.2,2.2,8.2,8.1c0.1,10.3,0,20.5,0,30.7c0,7.9-0.6,8.6-8.6,11.1c0,13.6,0,27.5,0,41.5
		c10,0,20.4,0,30.3,0c0-14.2,0-28.1,0-41.9c-7.1-1.4-8.5-2.9-8.5-9.5c0-10.5-0.1-21.1,0-31.6c0-6.5,2.1-8.5,8.6-8.6
		c12.6,0,25.3-0.1,37.9,0.1c3.8,0.1,7.6,1.2,11.4,1.7c0.9,0.1,1.9-0.2,2.7-0.6c17.3-11.2,34.5-22.5,51.7-33.8
		C307.3-38.3,308.7-38.3,310.1-38.3z M134.3,28.7c11.1,0,21.7,0,32.3,0c0-7.1,0-13.8,0-20.5c-11,0-21.6,0-32.3,0
		C134.3,15.1,134.3,21.8,134.3,28.7z M239.8,8.1c-10.9,0-21.6,0-32.5,0c0,7,0,13.7,0,20.5c10.9,0,21.6,0,32.7,0c0-6,0-11.7,0-17.5
		C240,10.2,239.9,9.3,239.8,8.1z"/>
	<path class="st4" d="M186.8,393.5c-14.3-0.3-28.3-2.3-42-6.5c-20.7-6.4-27.2-18.4-21.4-39.2c10.1-36.2,50.6-56.2,86.8-42.8
		c24.6,9.1,41.1,30.7,42.5,55.1c0.5,9.3-3.3,16-10.8,20.9c-9.3,6.1-19.7,8.7-30.5,10.2C203.3,392.3,195,392.8,186.8,393.5z"/>
	<path class="st4" d="M158.1,288.5c-28.7,11.3-46.3,31.9-52.9,62.2c-11,0.5-21.9-0.3-32.5-2.7c-6.5-1.5-13.1-3.3-19.2-6
		c-14-6.1-18.5-14.9-16-30c4.9-29.9,30.9-52.1,62.4-53.1c23.4-0.8,42.3,8.4,56.6,26.9C157,286.5,157.4,287.4,158.1,288.5z"/>
	<path class="st4" d="M268.8,350.8c-2.8-14.5-8.6-27.3-18-38.3c-9.4-11-20.9-18.9-34.9-24c6.3-9.6,14.3-16.6,23.9-21.9
		c34.7-19.4,81.5-2.3,94.1,34.6c1.9,5.5,2.6,11.5,3.4,17.3c1,8.5-2.8,15.1-9.8,19.5c-4.6,2.9-9.6,5.2-14.7,7
		C298.6,349.9,284.1,350.7,268.8,350.8z"/>
	<path class="st1" d="M102.5,241.7c-18.2,0.1-32.8-14.4-33-32.8c-0.2-18,14.6-32.9,32.8-33.1c18-0.2,33.1,14.8,33,32.8
		C135.4,227,120.8,241.6,102.5,241.7z M102,228.2c10.8,0.3,19.8-8.3,19.9-19.1c0.2-10.5-8.3-19.3-19-19.7
		c-10.4-0.4-19.5,8.1-19.8,18.8C82.7,219,91.1,227.9,102,228.2z"/>
	<path class="st1" d="M271.8,241.6c-18.3,0-33-14.4-33.1-32.7c-0.1-18,14.9-33.2,32.8-33.1c18.2,0,33,14.7,33.1,32.8
		C304.6,226.9,290,241.6,271.8,241.6z M291,208.8c0-10.6-8.5-19.3-19.1-19.4c-10.7-0.1-19.8,8.8-19.7,19.4
		c0.1,10.7,8.6,19.3,19.2,19.4C282.3,228.3,291,219.7,291,208.8z"/>
	<path class="st1" d="M219.9,250.9c0,18.3-14.5,32.9-32.7,33.1c-18.1,0.2-33.1-14.7-33.1-32.8c0-18.3,14.7-33.1,32.7-33.1
		C205.2,218.2,219.9,232.8,219.9,250.9z M206.5,251.1c-0.1-10.8-8.9-19.5-19.6-19.4c-10.6,0.1-19.2,8.8-19.2,19.4
		c0,10.7,8.9,19.6,19.6,19.4C197.9,270.4,206.5,261.7,206.5,251.1z"/>
	<path class="st1" d="M389.3,21.9c-0.4,18.6-6.5,35.2-19.3,49.1c-3.6,3.9-7.4,4.5-10.6,1.6c-3-2.7-2.8-6.6,0.5-10.4
		c21.8-25.3,21.3-58-1.4-82.6c-3.5-3.8-3.8-7.4-0.8-10.4c2.9-2.9,7.1-2.5,10.7,1.2C382.2-15.3,389,1.9,389.3,21.9z"/>
	<path class="st1" d="M-15.4,23.6C-15.1,2.1-8.3-15,5.6-29.3c1.5-1.5,3.8-3.2,5.6-3.1c2.3,0.2,5,1.8,6.4,3.6c2,2.7,0.7,5.6-1.6,7.9
		C8.8-13.8,3.5-5.6,0.8,4.1c-6,21.1-2,40.2,12.2,57c0.6,0.8,1.4,1.4,2,2.2c2.4,3.2,2.2,6.9-0.6,9.4c-2.8,2.5-6.5,2.4-9.4-0.6
		C-5.4,61.5-11.7,48.7-14.2,34.1C-14.9,30.1-15.1,26-15.4,23.6z"/>
	<path class="st1" d="M22.5,21.7c0-9.9,3.5-18.3,10.5-25.4c3.3-3.4,7-3.6,10-0.8c3.1,2.9,3,6.4-0.1,10c-8.8,10-9.2,20.7-1.3,31.3
		c2.8,3.8,2.5,7.4-0.9,9.9c-3.3,2.5-6.6,2-9.6-1.6C25.4,38.4,22.5,30.6,22.5,21.7z"/>
	<path class="st1" d="M351.5,20.9c0.1,9.1-2.9,17.1-8.8,24c-3.2,3.7-7.1,4.3-10.3,1.7c-3.1-2.5-3.1-6.6-0.1-10.4
		c8-9.8,7.8-21.2-0.4-30.6c-3.3-3.8-3.5-7.7-0.6-10.4c3-2.7,7-2.2,10.4,1.4C348.1,3.1,351.4,11.5,351.5,20.9z"/>
</g>
<g class="st0">
	<path class="st4" d="M53.2,302.8c-6.7-23.6-13-45.5-19-67.6c-0.4-1.4,2-4.6,3.7-5.2c24.2-8.8,48.4-17.8,73-25.6
		c12.4-3.9,24.6,0.6,36.2,5.5c22.8,9.5,46.1,17.5,70.9,18.5c15.4,0.6,31-2.1,46.5-2.7c5.8-0.2,15.4-0.3,16.8,2.7
		c3.6,7.6-3.5,13.8-9.8,16c-17.1,5.9-34.7,10.1-52.1,14.9c-0.6,0.2-1.3,0-1.9,0.2c-4.4,1.8-8.8,3.6-13.2,5.4
		c4.1,3.1,7.9,8.4,12.3,8.8c10.2,1,21.1,1.4,31-0.9c40.5-9.5,79.4-23.3,114.7-45.9c9.7-6.2,20.4-6.4,24.8-1c5,6.1,2.1,16.9-7.1,25.2
		c-56.6,50.7-122.1,77.9-199,73.2c-30.8-1.9-60.7-8.5-88.5-22.1C79.2,295.9,67,290.2,53.2,302.8z"/>
	<path class="st5" d="M232.2,88.8c-0.6,3.7-0.5,7.8-2.1,11c-1.3,2.6-4.8,5.8-7.1,5.7c-2.5-0.2-6.8-4.1-6.7-6.2
		c0.8-19.1,1.7-38.2,4-57.2c0.9-7.4,24.2-16.9,31.7-15.9c7.7,1,15.6-0.2,23.5-0.1c4.1,0.1,8.6,0.1,12.3,1.7
		c15.6,6.3,22.5,17.7,21.1,35.1c-0.9,10,1.1,20.3,2,30.5c0.6,5.8,0.7,11.7-6.6,12.4c-6.8,0.7-8.1-4.7-8.2-10.3
		c0-1.8-0.7-3.5-2.6-5.1c0,13.5,0,27,0,40.5c0,20.7,0,41.5,0,62.2c0,2.2,0,4.5,0,6.7c-0.4,11-5.6,17.8-13.4,17.6
		c-7.4-0.2-12.6-6.9-12.7-17.3c-0.2-14.7,0.2-29.4-0.3-44c-0.1-4.4-2.6-8.6-4-12.9c-1,4.3-2.7,8.6-2.8,12.9
		c-0.4,13.1-0.1,26.1-0.2,39.2c0,3.5-0.3,7-1,10.4c-1.4,6.4-4.7,11.4-12,11.6c-7.9,0.3-11.3-5.2-13-11.7c-0.9-3.3-0.8-6.9-0.8-10.4
		c-0.1-35.4,0-70.8,0-106.2C232.8,88.9,232.5,88.9,232.2,88.8z"/>
	<path class="st5" d="M159,69.6c-2.8,6.4-0.1,16.1-10.3,15.2c-10.8-0.9-6.8-10.2-6.4-16.7c0.8-13.1,2.2-26.1,2.5-39.2
		c0.2-6.5,2.2-10.9,7.9-14c4.5-2.4,8.3-6.2,13-8c3.6-1.4,8.1-1,12.2-1c7.5-0.1,15.1,0,22.6,0.3c4.6,0.2,9.3,0.5,13.8,1.4
		c2,0.4,3.8,2.3,5.6,3.5c16.5,10.6,16.3,10.4,1.2,22.8c-3.1,2.5-5.8,7.1-6.2,11.1c-1.8,16.5-2.8,33.1-3.7,49.6
		c-0.2,3.6,0.4,8.9,2.6,10.6c6.6,4.9,6,11.1,6,17.7c-0.1,16.6-0.1,33.2-0.1,49.8c0,1.9,0.1,3.8,0,5.8c-0.5,11.1-5.5,18.2-13,18.4
		c-8,0.2-13.6-7.2-13.7-18.5c-0.1-16,0.1-31.9-0.2-47.9c-0.1-2.6-2.2-5.1-3.3-7.6c-1.2,2.5-3.5,4.9-3.5,7.4
		c-0.3,15.6,0,31.3-0.3,46.9c-0.1,4-0.2,8.9-2.4,11.9c-2.5,3.4-7.3,7.3-11,7.2c-3.7-0.1-8.7-4-10.6-7.6c-2.3-4.2-2.5-9.8-2.5-14.8
		c-0.2-31-0.1-61.9-0.1-92.9C159,77.2,159,73.4,159,69.6z"/>
	<path class="st5" d="M367.7,67.7c0,36,0.1,72-0.1,108c0,4.4,0,9.6-2.2,12.9c-2.5,3.7-7.7,7.9-11.5,7.8c-3.9-0.2-8.6-4.8-10.9-8.6
		c-2.1-3.5-2-8.6-2-13c-0.2-15,0-30-0.2-45c0-2.2-2.1-4.4-3.3-6.6c-1.2,2.2-3.4,4.3-3.5,6.5c-0.3,13.7-0.2,27.4-0.2,41.2
		c0,3.2,0.1,6.4-0.1,9.6c-0.6,10.4-5.9,16.9-13.5,16.6c-7.2-0.3-12.2-6.6-12.6-16.5c-0.1-3.2,0-6.4,0-9.6c0-16,0-31.9,0-47.9
		c0-6.6-0.9-13.1,5.7-18c1.9-1.4,2.4-5.8,2.3-8.8c-1-17.5-1.6-35.2-4.3-52.4c-0.8-5.3-7.5-10.2-12.3-14.3c-6.4-5.3-6.9-8.1-0.2-12.9
		c5.2-3.7,10.4-7.5,16.1-10.2c3-1.4,7-0.7,10.6-0.7c7.8,0,15.6,0.2,23.4,0.4c4.4,0.1,9-0.2,13,1.2c16.7,6,22.1,18.7,21.4,35.7
		c-0.4,10.5,1.1,21,1.8,31.5c0.3,5.2-0.1,9.9-6.7,10.6c-6.7,0.7-7.7-4.2-8.5-9.2c-0.4-2.8-0.7-5.6-1.1-8.3
		C368.4,67.6,368.1,67.6,367.7,67.7z"/>
	<path class="st4" d="M53,312.2c-1.7,1.4-3.8,4.3-6.5,5.3c-7.8,2.8-15.9,4.7-23.8,7c-6.3,1.9-9.6-0.9-11.3-6.8
		c-7.1-25.1-14.3-50.2-21.4-75.4c-1.8-6.4-0.8-11,7.1-12.5c7.5-1.4,14.8-3.8,22-6.2c5.5-1.9,8.9-0.2,10.4,5
		c7.5,26.3,14.9,52.6,22.3,79C52.2,308.4,52.4,309.3,53,312.2z"/>
	<path class="st5" d="M189,1.5c-12.6-0.2-22.3-10.2-22.1-22.7c0.2-12.5,10.3-22.4,22.7-22.1c12.5,0.3,22.2,10.3,22,22.8
		C211.5-7.9,201.5,1.7,189,1.5z"/>
	<path class="st5" d="M337.1,1.6c-12.5-0.2-22-10-21.8-22.7c0.2-12.6,10.2-22.4,22.5-22.1c12.2,0.3,22.3,10.7,22.1,22.9
		C359.7-8,349.6,1.8,337.1,1.6z"/>
	<path class="st5" d="M285.6-0.5c0.1,12.7-9.5,22.4-22.2,22.3c-12.7,0-22.5-9.7-22.5-22.2c0-12.3,10-22.4,22.4-22.4
		C276-22.8,285.5-13.2,285.6-0.5z"/>
</g>
<g class="st0">
	<path class="st1" d="M55.2-40.5c-0.2-1.9-0.3-3-0.4-4.1c-0.5-8.6,2.4-11.8,10.9-11.9c12.1-0.1,24.1,0,36.2,0c2.4,0,4.7,0,7.7,0
		c0.8-9,1.4-17.7,2.3-26.4c1.3-12,7-21.1,18.6-25.4c10.6-3.9,22.3-0.6,29.9,8c5.4,6.1,6.9,13.5,7.4,21.3c0.5,7.4,1.2,14.8,1.9,22.5
		c14.1,0,27.6,0,41.1,0c12.4,0,15.1,3.2,13.2,16c12.1,0,24.1,0.3,36.2-0.1c22.8-0.8,37.8,17.1,37.3,37.3
		c-0.8,34.2-0.2,68.3-0.2,102.5c0,1.8,0,3.6,0,5.8c-4.5,0-8.6,0-13.4,0c0-7.1,0-14.2,0-21.2c0-29.2,0-58.5,0-87.7
		c0-14.3-8-22.5-22.3-22.6c-12.8-0.1-25.6-0.2-38.4,0.1c-2.2,0.1-5,1.7-6.5,3.5C207.5-11.6,196-5.9,181.1-6c-27-0.3-54-0.1-81,0.2
		c-15.9,0.2-28.9-5.1-38.3-18.3c-0.9-1.3-3.3-2.3-4.9-2.3c-13.2-0.2-26.3-0.3-39.5-0.1C4.9-26.3-3.2-17.9-3.2-5.2
		c0,100.9,0,201.7,0,302.6c0,12.7,8.6,21.5,21.3,21.5c81.6,0.1,163.3,0.1,244.9,0c11.4,0,20-8.2,20.9-19.6c0.1-1.6,0.2-3.2,0.3-5.1
		c4.4,0,8.5,0,12.5,0c2.7,15.7-8,32.9-23,36.5c-4.4,1.1-9,1.6-13.5,1.6c-64.9,0.1-129.7,0-194.6,0c-15.7,0-31.4,0-47.1,0
		c-21.1,0-35.4-14.2-35.5-35.4c-0.1-27,0-54.1,0-81.1c0-73.3,0-146.6,0.1-219.8c0-22.4,14.3-36.5,36.7-36.5
		C31.5-40.5,43.1-40.5,55.2-40.5z M139.8-37.1c-15.5,0-31,0-46.5,0c-3.8,0-7.5,0.4-7.5,5c0,4.3,3.7,4.7,7.2,4.7
		c31.2,0,62.4,0,93.6,0c3.7,0,7.1-0.9,6.9-5c-0.1-4.1-3.6-4.8-7.2-4.8C170.8-37,155.3-37.1,139.8-37.1z M151.3-83.9
		c0-6.6-5.3-11.7-11.9-11.6c-6.4,0.1-11.3,5.1-11.4,11.5c-0.1,6.7,4.9,11.8,11.6,11.8C146.3-72.2,151.4-77.3,151.3-83.9z"/>
	<path class="st4" d="M345,115.4c-1.9,8.1-3.7,15.5-5.1,23c-0.3,1.8,0.6,4.3,1.7,5.9c5.2,8,12.3,9.3,21,5.7
		c4.3-1.8,9.1-2.4,14.2-3.7c4.7,11,9.3,21.8,14,32.9c-6.6,4.1-12.9,8.2-19.4,11.9c-3,1.7-3.7,3.7-4.1,7.2c-0.9,8.3,1.7,13.6,9.5,17
		c4.8,2.1,9,5.5,13.8,8.5c-4.3,10.8-8.7,21.6-13.2,32.9c-7.5-1.8-14.9-3.4-22.3-5.4c-3.1-0.8-4.9,0.3-7.5,2.2
		c-7.8,5.6-8,12.2-4.9,20.2c1.7,4.4,2.3,9.1,3.6,14.4c-10.2,4.4-20.5,8.9-30.9,13.1c-0.9,0.4-3.2-1.1-4-2.3
		c-3.5-5.3-6.8-10.8-10-16.3c-1.6-2.8-3.5-3.6-6.8-4c-8.5-1.2-13.5,2-16.9,9.7c-2.2,5-5.5,9.4-8.4,14.3
		c-11.1-4.5-21.9-8.8-33.1-13.3c1.8-7.9,3.3-15.5,5.4-23c0.9-3.2-0.2-4.7-2-7.1c-5.3-7-11.4-8.3-19.2-4.8c-3.6,1.6-7.8,1.8-11.6,3.1
		c-3.2,1.1-4.6,0-5.7-2.9c-3.9-9.6-8.1-19.1-12.3-29.2c6.6-4.1,13.1-8.3,19.9-12.2c2.9-1.7,3.3-3.7,3.8-6.9
		c1.4-9.4-3.4-13.8-10.9-17.3c-4.4-2.1-8.4-5-13-7.8c4.2-10.5,8.2-20.8,12.6-31c0.4-0.9,3-1.5,4.3-1.3c6.3,1.3,12.4,2.8,18.6,4.4
		c3.3,0.8,5.3-0.3,8.1-2.4c7.3-5.5,7.4-11.8,4.7-19.4c-1.7-4.7-2.6-9.8-3.9-15.1c10-4.2,19.8-8.6,29.8-12.4c1.2-0.5,4,0.8,5,2.2
		c3.7,5.2,7.1,10.6,10.3,16.1c1.6,2.7,3.5,3.1,6.5,3.6c9,1.3,14.2-2.5,17.6-10.5c2-4.6,5.1-8.7,7.9-13.3
		C322.9,106.4,333.6,110.8,345,115.4z M339.2,201.8c-0.3-26.7-22.1-48.3-48.8-48.2c-26.7,0.1-48.3,22.4-48,49.5
		c0.3,26.1,22.8,48.1,48.8,47.6C318,250.2,339.4,228.4,339.2,201.8z"/>
	<path class="st1" d="M82.3,219.3c5.6-4.9,10.2-8.9,14.9-12.9c2.5-2.1,5.2-6.3,8.6-2.3c2.9,3.5-0.9,5.8-3.4,7.9
		c-3.8,3.4-7.4,7.2-11.6,10c-6.9,4.6-9.8,10.5-8.7,18.8c0.5,3.8,0.2,7.6,0.1,11.5c-0.1,4.8-2.5,7.5-7.4,7.6c-13.3,0.1-26.6,0.1-40,0
		c-4.9,0-7.4-3-7.4-7.7c-0.1-13.1-0.1-26.3,0-39.4c0.1-5.3,2.8-7.7,8.4-7.8c12.2-0.1,24.4,0,36.6,0c7.8,0,9.7,1.8,9.8,9.6
		C82.3,215.7,82.3,216.8,82.3,219.3z M35.3,212.7c0,13.4,0,26.3,0,39.3c13.3,0,26.3,0,39.2,0c0-5.1,0-9.7,0-15.4
		c-4.2,3.7-7.8,6.7-11.3,9.8c-3,2.6-5.7,2.9-8.1-1c-3.4-5.4-6.9-10.7-10.4-16.1c-1.7-2.6-2.7-5.5,0.7-6.8c1.4-0.6,4.6,1.2,5.8,2.8
		c3.2,4.1,5.8,8.6,8.9,13.3c7.9-7.3,19-12,13.7-26C61.4,212.7,48.7,212.7,35.3,212.7z"/>
	<path class="st1" d="M82.6,35.8C88.4,30.7,93.3,26,98.6,22c1.7-1.3,5.7-2.2,6.9-1.2c2.9,2.3,0.4,4.8-1.7,6.7
		C97.7,33,91.3,38.2,85.3,43.8c-1.6,1.5-2.8,4.2-2.9,6.4c-0.4,6-0.1,12-0.2,18.1c-0.1,5.7-2.3,8.2-7.9,8.2c-13,0.1-25.9,0.1-38.9,0
		c-5.5-0.1-8-2.7-8-8.2c-0.1-12.8-0.1-25.6,0-38.3c0-5.9,2.5-8.1,8.5-8.1c11.9,0,23.7,0,35.6,0c9.5,0,10.6,1,10.8,10.7
		C82.3,33.2,82.4,33.9,82.6,35.8z M35.4,29.4c0,13.3,0,26.2,0,39.4c13.1,0,26,0,39.2,0c0-5,0-9.8,0-15.6c-4.1,3.5-7.4,6.4-10.9,9.3
		c-4.3,3.7-5.8,3.4-9-1.4c-3.2-4.9-6.3-9.8-9.5-14.7c-1.7-2.6-3.5-5.3,0-7.5c3.2-2,4.9,0.8,6.4,3.2c2.8,4.3,5.7,8.6,8.5,13
		C68.5,48.1,79,42.9,74,29.4C61.2,29.4,48.3,29.4,35.4,29.4z"/>
	<path class="st1" d="M82.3,127.7c6.3-5.4,11.3-10.2,16.8-14.4c1.6-1.2,5.3-1.9,6.4-1c2.7,2.3,0.9,4.8-1.4,6.8
		c-6.1,5.2-12,10.7-18.3,15.7c-2.7,2.2-3.7,4.5-3.6,8c0.3,5.8,0.2,11.7,0,17.5c-0.1,5.4-2.3,7.6-7.7,7.6c-13,0.1-25.9,0.1-38.9,0
		c-5.8,0-8.1-2.2-8.2-7.8c-0.1-13-0.1-25.9,0-38.9c0-5.1,2.8-7.8,7.9-7.8c13.2-0.1,26.3-0.1,39.4,0.1c5.3,0.1,7.4,2.6,7.5,8
		C82.4,123.1,82.3,124.7,82.3,127.7z M74.5,145c-4.1,3.5-7.6,6.2-10.9,9.3c-3.5,3.3-6.1,3.3-8.7-1c-3.2-5.3-6.7-10.4-10.1-15.6
		c-1.6-2.4-3.1-5.4,0.3-6.9c1.4-0.6,4.7,1.1,6,2.7c3.3,4.1,5.9,8.7,8.7,13.1c14.4-9.7,16.9-14.2,14.1-25.4c-12.8,0-25.7,0-38.7,0
		c0,13.3,0,26.1,0,39.4c13.1,0,26,0,39.2,0C74.5,155.5,74.5,150.7,74.5,145z"/>
	<path class="st1" d="M181.4,68c19.5,0,39.1,0,58.6,0c1.5,0,3.2-0.4,4.3,0.2c1.4,0.8,3.2,2.3,3.3,3.7c0.1,1.3-1.4,3.2-2.7,4.1
		c-1.2,0.8-3.1,0.6-4.8,0.6c-39.3,0-78.5,0-117.7,0c-1.3,0-2.9,0.4-3.8-0.2c-1.6-1.2-3.7-2.9-3.7-4.4c0-1.3,2.4-3.4,4.1-3.8
		c3-0.6,6.2-0.2,9.3-0.2C146,68,163.7,68,181.4,68z"/>
	<path class="st1" d="M189.6,259.9c-7.9,0-15.7,0-23.5,0c-15,0-29.9,0-44.9,0c-3.1,0-6.3-0.1-6.4-4.1c-0.1-4.3,3.1-4.7,6.5-4.7
		c19.5,0,39,0,58.6,0C187.7,251.1,187.7,251.1,189.6,259.9z"/>
	<path class="st1" d="M183.4,159.5c-1,5.8-2.6,8.9-9.1,8.7c-17.6-0.6-35.3-0.2-53-0.2c-3.1,0-6.7,0.4-6.6-4.3c0.1-4,3.2-4.2,6.3-4.2
		C141.6,159.5,162.2,159.5,183.4,159.5z"/>
</g>
<g>
	<path d="M19.6,231.2c5.4,0,9.5,0,14.6,0c0,15.8,0,31.1,0,46.5c0,13,3.7,16.9,16.7,16.9c65.1,0.1,130.3,0.1,195.4,0
		c13.4,0,17-3.8,17-17.6c0-80.9,0-161.8,0-242.7c0-14.7-3.4-18.1-18.3-18.1c-64.2,0-128.4,0-192.7,0c-14.8,0-18.1,3.4-18.1,18.2
		c0,14.8,0,29.6,0,45.1c-4.9,0-9.2,0-14.2,0c0-18.9-1-37.6,0.4-56.2c0.8-11,8.9-18.3,20-20.8c4.1-0.9,8.4-1.1,12.6-1.1
		c63.9-0.1,127.8-0.1,191.8,0c23.3,0,33.1,9.8,33.1,33.1c0,80.9,0,161.8,0,242.7c0,22-10.2,32.2-32.3,32.2c-64.5,0-129,0-193.6,0
		c-22.7,0-32.5-10-32.5-32.8C19.6,261.7,19.6,246.9,19.6,231.2z"/>
	<path class="st6" d="M315.5,38.5c11.2,18.6,17.1,38.7,17,60.5c-0.1,23.9,0.4,47.8,0.6,71.8c0,3.6,0,7.2,0,11.1
		c-13.5,0-26.1,0-38.1,0c-0.9-1.1-1.6-1.6-1.6-2.1c1.1-33.2,0.9-66.6,4-99.7c1.4-14.5,9.6-28.3,14.7-42.5
		C313.3,37.9,314.4,38.2,315.5,38.5z"/>
	<path class="st6" d="M331.9,193c0,23.7,0.7,46.1-0.2,68.4c-0.5,13.4-6,18-16.8,18.2c-11.2,0.2-18-4.8-18.6-17.7
		c-1.1-22.6-0.3-45.4-0.3-68.8C307.1,193,319.3,193,331.9,193z"/>
	<path d="M108.3,191.4c16.1,0.2,28.6,12.9,28.5,29.1c0,15.8-13.2,29-28.9,29c-15.7,0-29-13.2-29-28.9
		C78.8,204,91.7,191.2,108.3,191.4z M126,220.2c-0.1-10.2-8.3-18.1-18.7-17.9c-9.9,0.2-17.6,8.2-17.5,18.1c0.1,9.8,8,17.9,17.7,18.1
		C117.5,238.8,126,230.3,126,220.2z"/>
	<path d="M194,93.4c-11.5,0-22.9,0-34.4,0c-5.6,0-10.8-1-10.8-7.9c0-6.8,5.1-8.1,10.7-8.1c23.5,0,47.1,0,70.6,0
		c5.7,0,10.9,1.4,10.9,8c0,6.6-5.1,8.1-10.8,8C218.2,93.4,206.1,93.4,194,93.4z"/>
	<path d="M194.7,160.8c-11.5,0-22.9-0.1-34.4,0c-5.9,0-11.6-0.6-11.5-8.1c0.1-6.8,5.5-7.8,11-7.8c23.5,0,47.1,0,70.6,0
		c5.7,0,10.8,1.6,10.7,8.2c-0.2,6.6-5.4,7.8-11.1,7.7C218.2,160.7,206.5,160.8,194.7,160.8z"/>
	<path d="M194.7,228.1c-12.1,0-24.1,0-36.2,0c-5.6,0-10.5-2-9.4-7.9c0.6-3.1,5.7-7.4,8.9-7.5c24.7-0.6,49.5-0.6,74.2,0
		c3.1,0.1,6,5.1,9.1,7.8c-3.1,2.5-6.1,7-9.4,7.3C219.5,228.6,207.1,228.1,194.7,228.1z"/>
	<path d="M50.2,142.1c2.6,2.3,7.7,4.8,8.9,8.5c1.3,3.8,0.3,10.2-2.4,12.9c-2.6,2.7-10.1,4.7-12.5,2.9c-8.5-6.3-17.7-4.4-26.8-4.7
		c-3.6-0.1-7.5,0.7-10.8-0.4c-2.6-0.8-4.4-3.9-6.6-5.9c2.1-2.1,4-5.3,6.5-6.1c3.6-1.1,7.8-0.3,11.7-0.4c8.8-0.3,18.1,2,25.7-5
		C44.9,143,46.7,143,50.2,142.1z"/>
	<path d="M60.6,217.3c-0.2,8.5-9.7,15.6-16.4,10.9c-9.2-6.5-18.8-4.2-28.4-5.1c-5.6-0.5-15.1,3.5-15.3-6c-0.2-9.4,9.1-6.1,14.9-6.6
		c10-0.7,19.9,1.3,29.5-5.1C51.5,201,60.8,208.9,60.6,217.3z"/>
	<path d="M50.4,80.4c2.7,2.5,7.7,5.1,8.9,8.8c1.2,3.8-0.1,9.9-2.7,12.9c-2.3,2.6-9.6,4.6-11.8,3c-9.6-7.1-20.2-4.3-30.5-4.9
		c-2.1-0.1-4.6,0.7-6.2-0.2c-3-1.7-5.4-4.3-8.1-6.6c2.6-2,4.9-4.9,7.8-5.6c4-1,8.4-0.2,12.6-0.3c8-0.1,16.3,1.7,23-4.9
		C44.5,81.4,46.8,81.4,50.4,80.4z"/>
	<path d="M355.8,217.8c0,11.2,0.4,22.4-0.3,33.5c-0.2,2.9-3.8,5.6-5.9,8.3c-1.8-2.7-5-5.3-5.1-8c-0.5-22.3-0.5-44.7-0.1-67
		c0.1-3,3.4-5.9,5.3-8.8c2,3.1,5.5,6.2,5.8,9.4C356.3,196,355.8,206.9,355.8,217.8z"/>
	<path d="M101.4,156.5c8.7-7.9,16.1-15.1,24-21.6c2.2-1.8,6.1-1.3,9.3-1.8c-0.6,2.9-0.3,6.5-1.9,8.6c-7.6,9.7-15.7,19.2-23.8,28.5
		c-5.6,6.4-10.8,5.8-15.1-1.3c-2.7-4.4-5.4-8.8-7.2-13.6c-0.9-2.3,0.1-5.4,0.2-8.2c2.7,0.6,5.8,0.5,7.9,1.9
		C97.1,150.5,98.7,153.4,101.4,156.5z"/>
	<path d="M101.7,86.8c8.2-7.4,15.5-14.6,23.3-21c2.3-1.8,6.1-1.7,9.3-2.4c-0.6,3.1-0.2,7-1.9,9.2c-7.4,9.5-15.3,18.7-23.2,27.8
		c-6,6.8-11.1,6.3-15.7-1.4c-2.6-4.4-5.3-8.8-7.2-13.6c-0.8-2.1,0.1-4.9,0.2-7.4c2.7,0.4,5.8,0,7.9,1.3
		C97.2,80.9,99.1,83.9,101.7,86.8z"/>
	<path d="M20.3,108.3c4.8,0,8.9,0,13.5,0c0,11.1,0,21.8,0,33.1c-4.6,0-8.9,0-13.5,0C20.3,130,20.3,119.1,20.3,108.3z"/>
	<path d="M20.1,170c5,0,9.1,0,13.6,0c0,11,0,21.4,0,32.7c-4.4,0-8.7,0-13.6,0C20.1,192,20.1,181.3,20.1,170z"/>
</g>
</svg>
