<?xml version="1.0" encoding="utf-8"?>
<!-- Generator: Adobe Illustrator 23.0.0, SVG Export Plug-In . SVG Version: 6.00 Build 0)  -->
<svg version="1.1" id="Layer_1" xmlns="http://www.w3.org/2000/svg" xmlns:xlink="http://www.w3.org/1999/xlink" x="0px" y="0px"
	 viewBox="0 0 303.4 310.7" style="enable-background:new 0 0 303.4 310.7;" xml:space="preserve">
<style type="text/css">
	.st0{display:none;}
	.st1{display:inline;}
	.st2{display:inline;fill:none;stroke:#000000;stroke-width:12;stroke-miterlimit:10;}
	.st3{display:inline;fill:none;stroke:#000000;stroke-width:10;stroke-miterlimit:10;}
	.st4{display:inline;fill:none;stroke:#000000;stroke-width:7;stroke-miterlimit:10;}
	.st5{display:inline;fill:none;stroke:#000000;stroke-width:5;stroke-miterlimit:10;}
</style>
<g class="st0">
	<path class="st1" d="M239.7-47.1c-2.1,4.6-4.1,9.2-6.4,13.5c-1.7,3.2-2,6-0.5,9.4c1.6,3.6,2.7,7.4,4.3,11.7
		c-55.5-9.3-104.7,3.7-146.4,41.1c-29.7,26.6-47.4,60.3-53.4,99.7c-12,78.9,34.1,156,109.1,183.2c75.4,27.4,158.5-1.6,201.2-70.3
		c42.2-67.8,31.6-164.2-39.7-221c4.3-1.6,8.4-2.8,12.1-4.7c2-1,4.1-2.7,5.2-4.7c2.7-4.9,4.9-10.1,7.3-15.2
		c67.3,52.3,101.3,158.2,51.9,252.5c-49.1,93.7-163.9,134.4-260.5,92.4C24.5,297.3-24.3,186.6,11.9,85.1
		C47.7-15.5,150-64.7,239.7-47.1z"/>
	<path class="st1" d="M282.4,29.3c59.4,35.6,88.2,116.3,54.2,187.4c-34.9,72.9-120.9,103.6-194.5,69.9c-72-32.9-105-119.2-73-191.9
		c33.2-75.4,114.2-102.3,177-82c-5.1,10.8-10,21.7-15.3,32.3c-0.4,0.9-3.2,1.3-4.6,1c-58.3-11.8-114.6,23.9-128.7,81.8
		c-15.3,62.6,28.5,126,92.4,133.8c61.2,7.5,116.3-35.2,122.8-96.2c4.3-40.3-10.4-73.4-42.1-98.8c-3.2-2.6-3.8-4.3-1.9-8.1
		C273.4,49.1,277.7,39.3,282.4,29.3z"/>
	<path class="st1" d="M257.1,83.4c34.8,24.2,45.1,75.4,23.1,113.2c-23.1,39.8-71.7,55.5-112.9,36.4c-41.7-19.3-61.8-67.1-46-109.8
		c16.5-44.7,62.4-64.4,99.3-56c-4.6,9.9-9,19.7-13.9,29.3c-0.6,1.2-3.4,1.6-5.2,1.7c-24.7,1.2-45,17.8-51.1,41.9
		c-7.6,29.9,11.7,60.3,42.3,66.9c29.9,6.4,60.2-14.2,65.2-44.3c2.9-17.4-1.5-32.6-12.9-46c-1-1.1-1.9-3.4-1.4-4.5
		C248,102.7,252.6,93.3,257.1,83.4z"/>
	<path class="st1" d="M195.3,121.4c-3.9,8.4-7.8,16.2-11.1,24.1c-3.7,8.9-0.6,18.6,7.1,23.9c7.6,5.3,18,4.6,24.8-2.1
		c2.3-2.3,4.1-5.3,5.5-8.2c3.7-7.4,7.1-15,10.6-22.7c7.4,9.4,6.7,25.6-1.5,36.6c-9.1,12.1-24.7,16.8-38.8,11.4
		c-14.2-5.4-22.9-19.6-21.3-34.8C172.1,135.9,182.6,123.6,195.3,121.4z"/>
	<path class="st1" d="M295.6,0.9c5.3-11.3,10.4-22.3,15.5-33.3c1.5-3.3,3.1-6.6,4.7-9.9c4.6-9.8,4.6-9.8,16-12.5
		c-0.6,1.6-1,2.9-1.6,4.1c-6,12.8-12.4,25.4-17.7,38.5C309.4-4.5,304.8,0.1,295.6,0.9z"/>
</g>
<g class="st0">
	<path class="st2" d="M88.7,367c-0.9,1.4-1.6,2.5-2.3,3.6c-7.2,10.7-17.4,15-30,13.4c-10.2-1.3-18.6-12.1-18.6-23.3
		c0-40.5,0-80.9,0-121.4c0-1.8,0-3.5,0-5.9c-5.2,0-10,0-14.8,0c-10.8,0-16.5-5.5-16.6-16.2c-0.1-31.9-0.1-63.8,0-95.7
		c0.1-14.9,10.2-25,25.7-25.8c6.3-0.3,12.7-0.3,19,0c1.5,0.1,3.3,1.3,4.2,2.5c7,8.6,14.4,16.7,23.9,22.7c3.6,2.2,6.5,2.3,10.3,0.4
		c10.7-5.5,19.6-12.8,25.9-23.2c0.8-1.3,2.9-2.5,4.4-2.5c40.2-0.1,80.4-0.1,120.6-0.1c6.9,0,11.4,3.1,13.5,9.4
		c2.9,8.6,2.9,17.4,0.6,26.1c-1.9,7-5.8,9.4-13.1,9.4c-33.8-0.1-67.7-0.2-101.5-0.3c-0.5,0-1.1,0.1-2.4,0.2c0,1.7,0,3.4,0,5.1
		c0,70.7,0,141.5,0,212.2c0,13.5-7.6,23.4-19.3,25.1c-11.5,1.7-20.7-2-27.1-11.9C90.4,369.8,89.6,368.6,88.7,367z"/>
	<path class="st1" d="M160.1,54.2c0-11.1,0-21.6,0-32.7c10.3,0,20.5,0,30.7,0c10.1,0,20.1,0,30.5,0c0.2-1.6,0.4-2.9,0.5-4.2
		c1-9.2,5.6-15.9,14.5-18.9c12.3-4.2,24.7-4.3,37-0.1c9.5,3.2,13.7,9.8,13.9,19.8c0,1,0.1,1.9,0.2,3.4c1.7,0,3.3,0,4.9,0
		c28.3,0,56.6-0.1,85,0.1c20.2,0.2,30.6,11.1,30.6,31.5c0,71.7,0,143.4,0,215.1c0,3.6,0.1,7.2-0.1,10.8c-0.9,17.4-11,27.1-28.4,27.1
		c-39.1,0-78.2,0-117.3,0c-32.2,0-64.4,0-96.6,0c-1.6,0-3.3,0-5.2,0c0-10.2,0-20.1,0-30.5c1.9,0,3.7,0,5.4,0c61.9,0,123.8,0,185.7,0
		c2.7,0,5.5-0.2,8.2-0.7c9.9-1.9,15.5-7.8,17-17.7c0.3-1.9,0.4-3.9,0.4-5.8c0-56.8,0-113.6,0-170.3c0-8.8-1.7-17.5-10-22.3
		c-4.5-2.6-10-4.4-15.1-4.4c-62-0.3-124.1-0.2-186.1-0.2C164,54.2,162.2,54.2,160.1,54.2z"/>
	<path class="st3" d="M43.8,38C43.6,15.2,62.6-4.4,85.2-4.5c23.8-0.2,43.3,18.6,43.5,41.8c0.1,23-18.7,42.1-41.1,43
		C66,81.2,43.5,62.7,43.8,38z"/>
</g>
<g class="st0">
	<path class="st4" d="M82.3,287.9c-6-8.4-11.4-16.3-17.4-23.8c-1.1-1.4-4.6-2.1-6.5-1.5c-7.9,2.2-15.6,5-23.4,7.4
		c-9.6,3-13.9,1-17.1-8.5c-4.6-13.4-8.9-26.9-13.2-40.4c-2.4-7.4,0.2-12.6,7.7-15.2c7-2.4,14.1-4.9,21.3-6.7
		c5.8-1.5,7.8-4.1,7.4-10.4c-2.7-43.8,9.4-83.2,38.6-116.1C123.4,23.5,178.6,5.3,242.2,21c63.3,15.7,103.2,57.7,118.8,121.1
		c3.8,15.6,3,32.4,3.7,48.7c0.2,4.3,1.1,6.4,5.4,7.6c7.6,2.1,15.1,4.7,22.6,7.2c8.5,2.9,10.9,7.6,8.3,16.1
		c-4.4,13.7-8.8,27.5-13.3,41.2c-2.3,7.1-7.4,9.8-14.7,7.6c-8.3-2.4-16.6-5-24.7-7.9c-3.8-1.4-6-1.1-8.3,2.5
		c-4,6.3-8.5,12.3-13.3,18c-3,3.5-2.8,5.8,0,9.2c5,6.2,9.5,12.8,14.1,19.2c5.8,8.1,5.1,13.2-2.7,18.9c-11.3,8.3-22.5,16.5-33.9,24.6
		c-7.2,5.1-12.6,4.2-17.9-3c-5.2-7-10-14.2-15.4-21c-1.3-1.6-4.5-3-6.2-2.5c-9.2,2.7-18.1,6.1-27.8,9.4c0,9.7,0.1,19.8,0,29.9
		c-0.1,9.3-3.5,12.9-12.6,13c-14.2,0.2-28.4,0.2-42.6,0c-9.2-0.2-12.5-3.8-12.6-13c-0.1-8.4-0.2-16.9,0.1-25.3c0.1-4-1-6-5.2-7
		c-7.2-1.8-14.3-4-21.2-6.8c-3.6-1.4-5.6-1-7.8,2.1c-5.1,7.3-10.3,14.5-15.7,21.6c-4.9,6.5-10.2,7.4-16.8,2.8
		c-12-8.5-23.8-17.1-35.6-25.9c-6.3-4.7-7-10.3-2.4-16.9C70.3,304.2,76.5,296,82.3,287.9z M354.8,192.7
		c2.6-63-20.4-112.5-73.5-144.3c-55.5-33.2-112.4-31.1-165.6,5.8c-47.3,32.9-67.5,80.1-64.4,138.4c13.5,0,26.2,0,38.8,0
		c12.9,0,25.9,0,38.8,0c0.6,1.6,1.2,2.7,1.5,3.9c8.4,32.9,35.1,55.8,67.4,57.9c33.5,2.1,63.3-17.3,75.5-49.3
		c4.8-12.5,4.8-12.4,18.6-12.3C312.4,192.8,333.1,192.7,354.8,192.7z"/>
	<path class="st1" d="M268.3,122.6c-4.8,7.6-8.9,15.9-14.6,22.8c-12.5,15.2-25.3,30.2-38.9,44.4c-4.1,4.3-10.9,7-16.9,8.3
		c-7.6,1.6-12.6-4.3-10.4-11.9c1.5-5.1,4.1-10.6,7.8-14.3c19.2-19.4,40.5-36.1,64.8-48.9c2-1.1,4.2-1.6,6.3-2.4
		C267,121.2,267.6,121.9,268.3,122.6z"/>
	<path class="st1" d="M312.3,100.3c-6.2,3.7-11.1,6.6-14.2,8.4c-8.5-8.5-16.6-16.7-25.6-25.6c1.5-2.7,4.4-7.6,8.2-14.3
		C291.5,79.6,301.5,89.6,312.3,100.3z"/>
	<path class="st1" d="M207.6,66.6c-3.3,0-6.1,0-9.4,0c0-8.3,0-16.3,0-24.8c3.1,0,6,0,9.4,0C207.6,50.2,207.6,58.2,207.6,66.6z"/>
	<path class="st1" d="M109.4,118.3c-2,3.3-3.6,5.9-5.3,8.8c-7.6-4.4-14.8-8.6-22.3-12.9c1.9-3.1,3.4-5.7,5.2-8.7
		C94.5,109.7,101.5,113.7,109.4,118.3z"/>
	<path class="st1" d="M324.1,114.1c-7.9,4.6-15,8.6-22.4,12.9c-1.7-2.7-3.3-5.3-5.3-8.7c7.4-4.3,14.5-8.5,22.2-12.9
		C320.4,108.2,322,110.8,324.1,114.1z"/>
	<path class="st1" d="M143,84.7c-4.5-7.8-8.5-14.8-12.9-22.4c3-1.8,5.6-3.3,8.8-5.1c4.4,7.4,8.4,14.4,12.9,22
		C148.9,81,146.3,82.6,143,84.7z"/>
	<path class="st1" d="M254.1,79.2c4.7-7.9,8.6-14.7,12.9-22c3,1.7,5.6,3.2,8.8,5c-4.4,7.6-8.5,14.7-12.9,22.5
		C259.8,82.8,257.1,81.1,254.1,79.2z"/>
	<path class="st1" d="M66.4,173.6c8.5,0,16.5,0,24.9,0c0.2,3.1,0.3,5.9,0.5,9.2c-8.6,0-16.8,0-25.4,0
		C66.4,179.8,66.4,177.1,66.4,173.6z"/>
</g>
<g class="st0">
	<path class="st4" d="M402.7,109c0,78.2,0,156.4,0,234.6c-6.7,15.7-12.7,19.6-30,19.6c-23,0-46,0.1-69.1,0
		c-14.4,0-25-10.8-25.1-25.2c0-14.6,0-29.2,0-43.7c0-1.8,0-3.5,0-5.3c-29.1,0-57.6,0-86.6,0c8.2,16.6,16.3,32.7,24.4,49.1
		c-33.5,0-66.1,0-99.2,0c8.3-16.6,16.2-32.6,24.6-49.4c-2.8,0-4.7,0-6.7,0c-34.5,0-68.9,0-103.4,0c-16.1,0-26.6-10.4-26.6-26.3
		c0-65.4,0-130.9,0-196.3c0-15.4,10.4-25.9,25.8-25.9c90.6,0,181.2,0,271.9,0c15.3,0,25.5,10.3,25.5,25.6c0,7.9,0,15.8,0,24.1
		c2.4,0,4.2,0,6,0c14.7,0,29.5,0,44.2,0c7,0,13.1,2.4,17.6,7.8C398.8,101,400.5,105.2,402.7,109z M278.5,238.7c0-2.2,0-4.2,0-6.1
		c0-39.3,0-78.5,0-117.7c0-11.8,7.7-21.8,18.8-24.4c1.9-0.4,3.8-0.7,5.8-1c0-8.2,0-16.1,0-24.1c-91.1,0-181.9,0-272.9,0
		c0,57.9,0,115.4,0,173.3C112.9,238.7,195.5,238.7,278.5,238.7z M377.8,115.1c-25,0-49.6,0-74.1,0c0,8.3,0,16.1,0,24
		c24.9,0,49.4,0,74.1,0C377.8,131,377.8,123.2,377.8,115.1z M303.5,188.9c25,0,49.5,0,74.1,0c0-8.3,0-16.1,0-24.1
		c-24.8,0-49.4,0-74.1,0C303.5,172.9,303.5,180.6,303.5,188.9z M340.6,264c-6.9,0-12.3,5.4-12.3,12.2c0,6.8,5.5,12.2,12.4,12.2
		s12.3-5.5,12.2-12.3C352.9,269.3,347.5,264,340.6,264z M340.6,338.1c6.8,0,12.3-5.4,12.3-12.2c0-6.8-5.4-12.2-12.2-12.2
		c-6.9,0-12.3,5.3-12.4,12.1C328.4,332.6,333.8,338.1,340.6,338.1z"/>
</g>
<g class="st0">
	<path class="st4" d="M327-62.9c3.8,2,4.9,5.2,4.9,9.4c-0.1,32.6,0,65.1,0,97.7c0,3.5-0.1,6.9-3.6,8.8c-3.5,1.9-6.4,0.2-9.3-1.8
		c-16-10.5-31.9-20.9-48-31.2c-1.9-1.2-4.6-1.4-7.8-2.3c0,6.3,0,11.3,0,16.3c0,6.9,0.2,13.8-0.1,20.6c-0.4,10.9-8.8,19.3-19.7,19.7
		c-10,0.3-19.9,0.2-29.9,0.3c-1.5,0-3,0-4.8,0c0,11.8,0,23.1,0,34.9c1.6,0.1,3.2,0.2,4.8,0.2c22.7,0,45.5,0,68.2,0
		c7.2,0,9.1,2.1,9.2,9.3c0,4.2,0.1,8.4,0,12.6c-0.1,4.4-2.7,7.2-6.5,7.3c-3.9,0.1-6.7-2.8-7-7.3c-0.1-1.4,0-2.8,0-4.2
		c0-1.2,0-2.5,0-4c-23,0-45.7,0-68.8,0c-0.1,1.7-0.2,3.3-0.2,4.9c0,14,0,28.1,0,42.1c0,5.4-2.3,8.4-6.5,8.6
		c-4.3,0.1-6.9-3.2-6.9-8.7c0-14,0-28.1,0-42.1c0-1.5,0-3,0-4.8c-23.6,0-46.9,0-70.8,0c0,2.4,0.1,4.7,0,7c-0.2,4.1-2.7,6.9-6.3,7
		c-3.8,0.1-6.9-2.6-7.1-6.8c-0.2-4.2-0.1-8.4,0-12.6c0.1-6,2.4-8.3,8.5-8.4c19.9,0,39.9,0,59.8,0c5.1,0,10.1,0,15.5,0
		c0-11.6,0-23,0-35.1c-2.5,0-5.1,0-7.7,0c-6.7,0-13.5,0-20.2-0.1c-12.9-0.2-21.6-8.8-21.9-21.7c-0.2-11.2,0-22.4,0-33.5
		c-3.1-2.1-5.5-1.1-8.2,0.6c-15.9,10.5-31.9,20.9-47.9,31.3c-2.8,1.8-5.6,3.4-9,1.5c-3.3-1.9-3.6-5-3.6-8.4
		c0.1-32.6,0.1-65.1,0-97.7c0-4.1,0.9-7.4,4.2-9.9c1.7,0,3.4,0,5.1,0c17.8,11.7,35.6,23.4,52.5,34.5c3.3-0.7,5.7-1.7,8.1-1.7
		c14.5-0.1,28.9-0.1,43.4-0.1c6,0,8.2,2.2,8.2,8.1c0.1,10.2,0,20.5,0,30.7c0,7.9-0.6,8.6-8.6,11.1c0,13.6,0,27.5,0,41.5
		c10,0,20.4,0,30.3,0c0-14.2,0-28.1,0-41.9c-7.1-1.4-8.5-2.9-8.5-9.5c0-10.5-0.1-21.1,0-31.6c0-6.5,2.1-8.5,8.6-8.5
		c12.6,0,25.3-0.1,37.9,0.1c3.8,0.1,7.6,1.2,11.4,1.7c0.9,0.1,1.9-0.2,2.7-0.6c17.3-11.2,34.5-22.5,51.7-33.8
		C324.2-62.9,325.6-62.9,327-62.9z M151.3,4.1c11.1,0,21.7,0,32.3,0c0-7.1,0-13.8,0-20.5c-11,0-21.6,0-32.3,0
		C151.3-9.5,151.3-2.8,151.3,4.1z M256.7-16.5c-10.9,0-21.6,0-32.5,0c0,7,0,13.7,0,20.5c10.9,0,21.6,0,32.7,0c0-6,0-11.7,0-17.5
		C257-14.4,256.8-15.3,256.7-16.5z"/>
	<path class="st4" d="M203.7,369c-14.3-0.3-28.3-2.3-42-6.5c-20.7-6.4-27.2-18.4-21.4-39.2c10.1-36.2,50.6-56.2,86.8-42.8
		c24.6,9.1,41.1,30.7,42.5,55.1c0.5,9.3-3.3,16-10.8,20.9c-9.3,6.1-19.7,8.7-30.5,10.2C220.3,367.8,212,368.2,203.7,369z"/>
	<path class="st4" d="M175.1,263.9c-28.7,11.3-46.3,31.9-52.9,62.2c-11,0.5-21.9-0.3-32.5-2.7c-6.5-1.5-13.1-3.3-19.2-6
		c-14-6.1-18.5-14.9-16-30c4.9-29.9,30.9-52.1,62.4-53.1c23.4-0.8,42.3,8.4,56.6,26.9C173.9,262,174.4,262.8,175.1,263.9z"/>
	<path class="st4" d="M285.8,326.3c-2.8-14.5-8.6-27.3-18-38.3c-9.4-11-20.9-18.9-34.9-24c6.3-9.6,14.3-16.6,23.9-21.9
		c34.7-19.4,81.5-2.3,94.1,34.6c1.9,5.5,2.6,11.5,3.4,17.3c1,8.5-2.8,15.1-9.8,19.5c-4.6,2.9-9.6,5.2-14.7,7
		C315.6,325.3,301,326.1,285.8,326.3z"/>
	<path class="st1" d="M119.5,217.1c-18.2,0.1-32.8-14.4-33-32.8c-0.2-18,14.6-32.9,32.8-33.1c18-0.2,33.1,14.8,33,32.8
		C152.3,202.4,137.8,217,119.5,217.1z M118.9,203.6c10.8,0.3,19.8-8.3,19.9-19.1c0.2-10.5-8.3-19.3-19-19.7
		c-10.4-0.4-19.5,8.1-19.8,18.8C99.7,194.4,108,203.3,118.9,203.6z"/>
	<path class="st1" d="M288.8,217.1c-18.3,0.1-33-14.4-33.1-32.7c-0.1-18,14.9-33.2,32.8-33.1c18.2,0,33,14.7,33.1,32.8
		C321.5,202.3,307,217,288.8,217.1z M308,184.3c0-10.6-8.5-19.3-19.1-19.4c-10.7-0.1-19.8,8.8-19.7,19.4
		c0.1,10.7,8.6,19.3,19.2,19.4C299.3,203.7,307.9,195.1,308,184.3z"/>
	<path class="st1" d="M236.9,226.4c0,18.3-14.5,32.9-32.7,33.1c-18.1,0.2-33.1-14.7-33.1-32.8c0-18.3,14.7-33.1,32.7-33.1
		C222.1,193.6,236.9,208.2,236.9,226.4z M223.4,226.5c-0.1-10.8-8.9-19.5-19.6-19.4c-10.6,0.1-19.2,8.8-19.2,19.4
		c0,10.7,8.9,19.6,19.6,19.4C214.9,245.8,223.5,237.1,223.4,226.5z"/>
	<path class="st1" d="M1.6-0.9c0.3-21.5,7.1-38.7,20.9-52.9c1.5-1.5,3.8-3.2,5.6-3.1c2.3,0.2,5,1.8,6.4,3.6c2,2.7,0.7,5.6-1.6,7.9
		c-7.1,7-12.3,15.3-15.1,24.9c-6,21.1-2,40.2,12.2,57c0.6,0.8,1.4,1.4,2,2.2c2.4,3.2,2.2,6.9-0.6,9.4c-2.8,2.5-6.5,2.5-9.4-0.5
		C11.6,36.9,5.2,24.1,2.7,9.5C2,5.5,1.9,1.4,1.6-0.9z"/>
	<path class="st1" d="M39.5-2.9c0-9.9,3.5-18.3,10.5-25.4c3.3-3.4,7-3.6,10-0.8c3.1,2.9,3,6.4-0.1,10c-8.8,10-9.2,20.6-1.3,31.3
		c2.8,3.8,2.5,7.4-0.9,9.9c-3.3,2.5-6.6,2-9.6-1.6C42.4,13.9,39.4,6,39.5-2.9z"/>
</g>
<g class="st0">
	<path class="st4" d="M70.1,278.2c-6.7-23.6-13-45.5-19-67.6c-0.4-1.4,2-4.6,3.7-5.2c24.2-8.8,48.4-17.8,73-25.6
		c12.4-3.9,24.6,0.6,36.2,5.5c22.8,9.5,46.1,17.5,70.9,18.5c15.4,0.6,31-2.1,46.5-2.7c5.8-0.2,15.4-0.3,16.8,2.7
		c3.6,7.6-3.5,13.8-9.8,16c-17.1,5.9-34.7,10.1-52.1,14.9c-0.6,0.2-1.3,0-1.9,0.2c-4.4,1.8-8.8,3.6-13.2,5.4
		c4.1,3.1,7.9,8.4,12.3,8.8c10.2,1,21.1,1.4,31-0.9c40.5-9.5,79.4-23.3,114.7-45.9c9.7-6.2,20.4-6.4,24.8-1c5,6.1,2.1,16.9-7.1,25.2
		c-56.6,50.7-122.1,77.9-199,73.2c-30.8-1.9-60.7-8.5-88.5-22.1C96.2,271.3,84,265.7,70.1,278.2z"/>
	<path class="st5" d="M249.1,64.3c-0.6,3.7-0.5,7.8-2.1,11c-1.3,2.6-4.8,5.8-7.1,5.7c-2.5-0.2-6.8-4.1-6.7-6.2
		c0.8-19.1,1.7-38.2,4-57.2c0.9-7.4,24.2-16.9,31.7-15.9c7.7,1,15.6-0.2,23.5-0.1c4.1,0.1,8.6,0.1,12.3,1.7
		c15.6,6.3,22.5,17.7,21.1,35.1c-0.9,10,1.1,20.3,2,30.5c0.6,5.8,0.7,11.7-6.6,12.4c-6.8,0.7-8.1-4.7-8.2-10.3
		c0-1.8-0.7-3.5-2.6-5.1c0,13.5,0,27,0,40.5c0,20.7,0,41.5,0,62.2c0,2.2,0,4.5,0,6.7c-0.4,11-5.6,17.8-13.4,17.6
		c-7.4-0.2-12.6-6.9-12.7-17.3c-0.2-14.7,0.2-29.4-0.3-44c-0.1-4.3-2.6-8.6-4-12.9c-1,4.3-2.7,8.6-2.8,12.9
		c-0.4,13.1-0.1,26.1-0.2,39.2c0,3.5-0.3,7-1,10.4c-1.4,6.4-4.7,11.4-12,11.6c-7.9,0.3-11.3-5.2-13-11.7c-0.9-3.3-0.8-6.9-0.8-10.4
		c-0.1-35.4,0-70.8,0-106.2C249.8,64.3,249.5,64.3,249.1,64.3z"/>
	<path class="st5" d="M176,45.1c-2.8,6.4-0.1,16.1-10.3,15.2c-10.8-0.9-6.8-10.2-6.4-16.7c0.8-13.1,2.2-26.1,2.5-39.2
		c0.2-6.5,2.2-10.9,7.9-14c4.5-2.4,8.3-6.2,13-8c3.6-1.4,8.1-1,12.2-1c7.5-0.1,15.1,0,22.6,0.3c4.6,0.2,9.3,0.5,13.8,1.4
		c2,0.4,3.8,2.3,5.6,3.5C253.3-2.7,253.1-2.9,238,9.5c-3.1,2.5-5.8,7.1-6.2,11.1c-1.8,16.5-2.8,33.1-3.7,49.6
		c-0.2,3.6,0.4,8.9,2.6,10.6c6.6,4.8,6,11.1,6,17.7c-0.1,16.6-0.1,33.2-0.1,49.8c0,1.9,0.1,3.8,0,5.8c-0.5,11.1-5.5,18.2-13,18.4
		c-8,0.2-13.6-7.2-13.7-18.5c-0.1-16,0.1-31.9-0.2-47.9c-0.1-2.6-2.2-5.1-3.3-7.6c-1.2,2.5-3.5,4.9-3.5,7.4
		c-0.3,15.6,0,31.3-0.3,46.9c-0.1,4-0.2,8.9-2.4,11.9c-2.5,3.4-7.3,7.3-11,7.2c-3.7-0.1-8.7-4-10.6-7.6c-2.3-4.2-2.5-9.8-2.5-14.8
		c-0.2-31-0.1-61.9-0.1-92.9C176,52.7,176,48.9,176,45.1z"/>
	<path class="st4" d="M70,287.6c-1.7,1.4-3.8,4.3-6.5,5.3c-7.8,2.8-15.9,4.7-23.8,7c-6.3,1.9-9.6-0.9-11.3-6.8
		c-7.1-25.1-14.3-50.2-21.4-75.4c-1.8-6.4-0.8-11,7.1-12.5c7.5-1.4,14.8-3.8,22-6.2c5.5-1.9,8.9-0.2,10.4,5
		c7.5,26.3,14.9,52.6,22.3,79C69.2,283.8,69.3,284.8,70,287.6z"/>
	<path class="st5" d="M302.6-25c0.1,12.7-9.5,22.4-22.2,22.3c-12.7,0-22.5-9.6-22.5-22.2c0-12.3,10-22.4,22.4-22.4
		C292.9-47.4,302.5-37.8,302.6-25z"/>
</g>
<g class="st0">
	<path class="st1" d="M72.2-65.1c-0.2-1.9-0.3-3-0.4-4.1C71.3-77.7,74.2-81,82.7-81c12.1-0.1,24.1,0,36.2,0c2.4,0,4.7,0,7.7,0
		c0.8-9,1.4-17.7,2.3-26.4c1.3-12.1,7-21.1,18.6-25.4c10.6-3.9,22.3-0.6,29.9,8c5.4,6.1,6.9,13.5,7.4,21.3
		c0.5,7.4,1.2,14.8,1.9,22.5c14.1,0,27.6,0,41.1,0c12.4,0,15.1,3.2,13.2,16c12.1,0,24.1,0.3,36.2-0.1c22.8-0.8,37.8,17.1,37.3,37.3
		c-0.8,34.2-0.2,68.3-0.2,102.5c0,1.8,0,3.6,0,5.8c-4.5,0-8.6,0-13.4,0c0-7.1,0-14.2,0-21.2c0-29.2,0-58.5,0-87.7
		c0-14.3-8-22.5-22.3-22.6c-12.8-0.1-25.6-0.2-38.4,0.1c-2.2,0.1-5,1.7-6.5,3.5c-9.3,11.3-20.8,17.1-35.7,16.9
		c-27-0.3-54-0.1-81,0.2c-15.9,0.2-28.9-5.1-38.3-18.3C77.9-50,75.6-51,73.9-51c-13.2-0.2-26.3-0.3-39.5-0.1
		c-12.6,0.2-20.7,8.7-20.7,21.3c0,100.9,0,201.7,0,302.6c0,12.7,8.6,21.5,21.3,21.5c81.6,0.1,163.3,0.1,244.9,0
		c11.4,0,20-8.2,20.9-19.6c0.1-1.6,0.2-3.2,0.3-5.1c4.4,0,8.5,0,12.5,0c2.7,15.7-8,32.9-23,36.5c-4.4,1.1-9,1.6-13.5,1.6
		c-64.9,0.1-129.7,0-194.6,0c-15.7,0-31.4,0-47.1,0c-21.1,0-35.4-14.2-35.5-35.4c-0.1-27,0-54.1,0-81.1c0-73.3,0-146.6,0-219.8
		c0-22.3,14.3-36.5,36.7-36.5C48.4-65.1,60.1-65.1,72.2-65.1z M156.8-61.7c-15.5,0-31,0-46.5,0c-3.8,0-7.5,0.4-7.5,5
		c0,4.3,3.7,4.7,7.2,4.7c31.2,0,62.4,0,93.6,0c3.7,0,7.1-0.8,6.9-5c-0.1-4.1-3.6-4.8-7.2-4.8C187.8-61.6,172.3-61.7,156.8-61.7z
		 M168.3-108.5c0-6.6-5.3-11.7-11.9-11.6c-6.4,0.1-11.3,5.1-11.4,11.5c-0.1,6.7,4.9,11.8,11.6,11.8S168.3-101.9,168.3-108.5z"/>
	<path class="st4" d="M362,90.8c-1.9,8.1-3.7,15.5-5.1,23c-0.3,1.8,0.6,4.3,1.7,5.9c5.2,8,12.3,9.3,21,5.7c4.3-1.8,9.1-2.4,14.2-3.7
		c4.7,11,9.3,21.8,14,32.9c-6.6,4.1-12.9,8.2-19.4,11.9c-3,1.7-3.7,3.7-4.1,7.2c-0.9,8.3,1.7,13.6,9.5,17c4.8,2.1,9,5.5,13.8,8.5
		c-4.3,10.8-8.7,21.6-13.2,32.9c-7.5-1.8-14.9-3.4-22.3-5.4c-3.1-0.8-4.9,0.3-7.5,2.2c-7.8,5.6-8,12.2-4.9,20.2
		c1.7,4.4,2.3,9.2,3.6,14.4c-10.2,4.4-20.5,8.9-30.9,13.1c-0.9,0.4-3.2-1.1-4-2.3c-3.5-5.3-6.8-10.8-10-16.3c-1.6-2.8-3.5-3.6-6.8-4
		c-8.5-1.2-13.5,2-16.9,9.7c-2.2,5-5.5,9.4-8.4,14.3c-11.1-4.5-21.9-8.8-33.1-13.3c1.8-7.9,3.3-15.5,5.4-23c0.9-3.2-0.2-4.7-2-7.1
		c-5.3-7-11.4-8.3-19.2-4.8c-3.6,1.6-7.8,1.8-11.6,3.1c-3.2,1.1-4.6,0-5.7-2.9c-3.9-9.6-8.1-19.1-12.3-29.2
		c6.6-4.1,13.1-8.3,19.9-12.2c2.9-1.7,3.3-3.7,3.8-6.9c1.4-9.4-3.4-13.8-10.9-17.3c-4.4-2.1-8.4-5-13-7.8c4.2-10.5,8.2-20.8,12.6-31
		c0.4-0.9,3-1.5,4.3-1.3c6.3,1.3,12.4,2.8,18.6,4.4c3.3,0.8,5.3-0.3,8.1-2.3c7.3-5.5,7.4-11.8,4.7-19.4c-1.7-4.7-2.6-9.8-3.9-15.1
		c10-4.2,19.8-8.6,29.8-12.4c1.2-0.5,4,0.8,5,2.2c3.7,5.2,7.1,10.6,10.3,16.1c1.6,2.7,3.5,3.1,6.5,3.6c9,1.3,14.2-2.5,17.6-10.5
		c2-4.6,5.1-8.7,7.9-13.3C339.8,81.9,350.6,86.2,362,90.8z M356.2,177.2c-0.3-26.7-22.1-48.3-48.8-48.2c-26.7,0.1-48.3,22.4-48,49.5
		c0.3,26.1,22.8,48.1,48.8,47.6C335,225.6,356.4,203.8,356.2,177.2z"/>
	<path class="st1" d="M99.3,194.8c5.6-4.9,10.2-8.9,14.9-12.9c2.5-2.1,5.2-6.3,8.6-2.3c2.9,3.5-0.9,5.8-3.4,7.9
		c-3.8,3.4-7.4,7.2-11.6,10c-6.9,4.6-9.8,10.5-8.7,18.8c0.5,3.8,0.2,7.6,0.1,11.5c-0.1,4.8-2.5,7.5-7.4,7.6c-13.3,0.1-26.6,0.1-40,0
		c-4.9,0-7.4-3-7.4-7.6c-0.1-13.1-0.1-26.3,0-39.4c0.1-5.3,2.8-7.7,8.4-7.8c12.2-0.1,24.4,0,36.6,0c7.8,0,9.7,1.8,9.8,9.6
		C99.3,191.1,99.3,192.2,99.3,194.8z M52.3,188.1c0,13.4,0,26.3,0,39.3c13.3,0,26.3,0,39.2,0c0-5.1,0-9.7,0-15.4
		c-4.2,3.7-7.8,6.7-11.3,9.8c-3,2.6-5.7,2.9-8.1-1c-3.4-5.4-6.9-10.7-10.4-16.1c-1.7-2.6-2.7-5.5,0.7-6.8c1.4-0.6,4.6,1.2,5.8,2.8
		c3.2,4.1,5.8,8.6,8.9,13.3c7.9-7.3,19-12,13.7-26C78.4,188.1,65.7,188.1,52.3,188.1z"/>
	<path class="st1" d="M99.5,11.2c5.9-5.1,10.8-9.8,16.1-13.8c1.7-1.3,5.7-2.2,6.9-1.2c2.9,2.3,0.4,4.8-1.7,6.7
		c-6.2,5.4-12.5,10.6-18.5,16.3c-1.6,1.5-2.8,4.2-2.9,6.4c-0.4,6-0.1,12-0.2,18.1c-0.1,5.7-2.3,8.2-7.9,8.2c-13,0.1-25.9,0.1-38.9,0
		c-5.5-0.1-8-2.7-8-8.2c-0.1-12.8-0.1-25.6,0-38.3c0-5.9,2.5-8.1,8.5-8.1c11.9,0,23.7,0,35.6,0C98-2.7,99.1-1.7,99.3,8
		C99.3,8.7,99.4,9.4,99.5,11.2z M52.3,4.8c0,13.3,0,26.2,0,39.4c13.1,0,26,0,39.2,0c0-5,0-9.8,0-15.6c-4.1,3.5-7.4,6.4-10.9,9.3
		c-4.3,3.7-5.8,3.4-9-1.4c-3.2-4.9-6.3-9.8-9.5-14.7c-1.7-2.6-3.5-5.4,0-7.5c3.2-1.9,4.9,0.8,6.4,3.2c2.8,4.3,5.7,8.6,8.5,13
		C85.5,23.5,96,18.3,91,4.8C78.2,4.8,65.3,4.8,52.3,4.8z"/>
	<path class="st1" d="M99.3,103.2c6.3-5.4,11.3-10.2,16.8-14.4c1.6-1.2,5.3-1.9,6.4-1c2.7,2.3,0.9,4.8-1.4,6.8
		c-6.1,5.2-12,10.7-18.3,15.7c-2.7,2.2-3.7,4.5-3.6,8c0.3,5.8,0.2,11.7,0,17.5c-0.1,5.4-2.3,7.6-7.7,7.6c-13,0.1-25.9,0.1-38.9,0
		c-5.8,0-8.1-2.2-8.2-7.8c-0.1-13-0.1-25.9,0-38.9c0-5.1,2.8-7.8,7.9-7.8c13.2-0.1,26.3-0.1,39.4,0.1c5.3,0.1,7.4,2.6,7.5,8
		C99.3,98.5,99.3,100.1,99.3,103.2z M91.5,120.4c-4.1,3.5-7.6,6.2-10.9,9.3c-3.5,3.3-6.1,3.3-8.7-1c-3.2-5.3-6.7-10.4-10.1-15.6
		c-1.6-2.4-3.1-5.4,0.3-6.8c1.4-0.6,4.7,1.1,6,2.7c3.3,4.1,5.9,8.7,8.7,13.1c14.4-9.7,16.9-14.2,14.1-25.4c-12.8,0-25.7,0-38.7,0
		c0,13.3,0,26.2,0,39.4c13.1,0,26,0,39.2,0C91.5,130.9,91.5,126.1,91.5,120.4z"/>
	<path class="st1" d="M198.4,43.4c19.5,0,39.1,0,58.6,0c1.5,0,3.2-0.4,4.3,0.2c1.4,0.8,3.2,2.3,3.3,3.7c0.1,1.3-1.4,3.2-2.7,4.1
		c-1.2,0.8-3.1,0.6-4.8,0.6c-39.3,0-78.5,0-117.7,0c-1.3,0-2.9,0.4-3.8-0.2c-1.6-1.2-3.7-2.9-3.7-4.4c0-1.3,2.4-3.5,4.1-3.8
		c3-0.6,6.2-0.2,9.3-0.2C162.9,43.4,180.6,43.4,198.4,43.4z"/>
	<path class="st1" d="M206.5,235.3c-7.9,0-15.7,0-23.5,0c-15,0-29.9,0-44.9,0c-3.1,0-6.3-0.1-6.4-4.1c-0.1-4.3,3.1-4.7,6.5-4.7
		c19.5,0,39.1,0,58.6,0C204.7,226.6,204.7,226.6,206.5,235.3z"/>
	<path class="st1" d="M200.4,135c-1,5.8-2.6,8.9-9.1,8.7c-17.6-0.6-35.3-0.2-53-0.2c-3.1,0-6.7,0.4-6.6-4.3c0.1-4,3.2-4.2,6.3-4.2
		C158.6,135,179.2,135,200.4,135z"/>
</g>
<g class="st0">
	<path class="st1" d="M22.4,217c6.1,0,10.8,0,16.8,0c0,18.1,0,35.7,0,53.2c0,14.9,4.3,19.3,19.1,19.3c74.6,0.1,149.2,0.1,223.8,0
		c15.4,0,19.4-4.4,19.4-20.1c0-92.7,0-185.3,0-278c0-16.8-4-20.8-20.9-20.8c-73.6,0-147.1,0-220.7,0c-16.9,0-20.7,3.9-20.8,20.9
		c0,17,0,34,0,51.7c-5.6,0-10.5,0-16.3,0c0-21.6-1.1-43.1,0.4-64.4c0.9-12.6,10.2-21,23-23.9c4.7-1,9.6-1.3,14.5-1.3
		c73.2-0.1,146.5-0.1,219.7,0c26.7,0,37.9,11.3,38,38c0,92.7,0,185.3,0,278c0,25.2-11.6,36.8-37,36.9c-73.9,0-147.8,0-221.8,0
		c-26,0-37.2-11.5-37.3-37.6C22.4,252,22.4,235.1,22.4,217z"/>
	<path class="st1" d="M124,171.5c18.4,0.2,32.7,14.7,32.7,33.3c0,18.1-15.1,33.2-33.1,33.2c-18,0-33.2-15.1-33.3-33.1
		C90.3,186,105.1,171.3,124,171.5z M144.3,204.5c-0.1-11.7-9.5-20.8-21.4-20.5c-11.3,0.3-20.1,9.4-20.1,20.7
		c0.1,11.2,9.2,20.5,20.3,20.8C134.6,225.8,144.4,216.1,144.3,204.5z"/>
	<path class="st1" d="M222.3,59.2c-13.1,0-26.3,0-39.4,0c-6.4,0-12.4-1.2-12.4-9c0-7.8,5.8-9.2,12.3-9.2c27,0,53.9,0,80.9,0
		c6.5,0,12.5,1.6,12.5,9.1c0,7.5-5.8,9.2-12.4,9.2C250,59.2,236.1,59.2,222.3,59.2z"/>
	<path class="st1" d="M223.1,136.4c-13.1,0-26.3-0.1-39.4,0c-6.7,0-13.3-0.7-13.2-9.3c0.1-7.8,6.3-8.9,12.6-8.9c27,0,53.9,0,80.9,0
		c6.5,0,12.4,1.8,12.2,9.4c-0.2,7.6-6.1,8.9-12.7,8.8C250,136.3,236.5,136.4,223.1,136.4z"/>
	<path class="st1" d="M223.1,213.5c-13.8,0-27.7,0-41.5,0c-6.4,0-12-2.3-10.7-9.1c0.7-3.5,6.5-8.5,10.1-8.6c28.3-0.7,56.7-0.7,85,0
		c3.5,0.1,6.9,5.8,10.4,8.9c-3.6,2.9-7,8.1-10.8,8.3C251.5,214.1,237.3,213.5,223.1,213.5z"/>
	<path class="st1" d="M57.5,115c3,2.7,8.8,5.5,10.2,9.8c1.5,4.3,0.3,11.6-2.7,14.8c-3,3.1-11.6,5.4-14.4,3.4
		c-9.8-7.2-20.3-5.1-30.7-5.4c-4.1-0.1-8.6,0.8-12.4-0.5c-2.9-0.9-5.1-4.4-7.6-6.8c2.5-2.4,4.5-6.1,7.5-7c4.1-1.2,8.9-0.3,13.4-0.5
		c10.1-0.3,20.8,2.3,29.5-5.8C51.4,116,53.5,116.1,57.5,115z"/>
	<path class="st1" d="M69.4,201.2c-0.2,9.7-11.1,17.9-18.8,12.4c-10.5-7.4-21.6-4.8-32.6-5.8c-6.5-0.6-17.3,4-17.5-6.9
		c-0.2-10.8,10.5-7,17.1-7.5c11.4-0.8,22.8,1.5,33.7-5.8C59,182.5,69.7,191.5,69.4,201.2z"/>
	<path class="st1" d="M57.7,44.3c3.1,2.9,8.8,5.8,10.2,10.1c1.4,4.3-0.1,11.4-3.1,14.8c-2.6,3-11,5.3-13.5,3.4
		c-11-8.2-23.1-4.9-34.9-5.6c-2.4-0.2-5.3,0.8-7.2-0.3c-3.4-1.9-6.2-5-9.2-7.6c3-2.3,5.6-5.7,8.9-6.5c4.6-1.1,9.6-0.3,14.5-0.3
		c9.1-0.2,18.7,2,26.3-5.7C51,45.5,53.6,45.5,57.7,44.3z"/>
	<path class="st1" d="M116.2,131.5c10-9.1,18.4-17.3,27.5-24.7c2.5-2,7-1.5,10.6-2.1c-0.7,3.3-0.3,7.4-2.2,9.8
		c-8.8,11.2-17.9,22-27.3,32.6c-6.4,7.3-12.3,6.7-17.3-1.5c-3.1-5-6.2-10.1-8.3-15.5c-1-2.7,0.1-6.2,0.3-9.3
		c3.1,0.6,6.6,0.6,9.1,2.1C111.3,124.7,113.1,127.9,116.2,131.5z"/>
	<path class="st1" d="M116.5,51.6c9.3-8.5,17.7-16.7,26.8-24c2.6-2.1,7-1.9,10.6-2.8c-0.7,3.6-0.2,8-2.2,10.5
		c-8.5,10.9-17.5,21.4-26.6,31.8c-6.8,7.8-12.7,7.2-17.9-1.6c-3-5-6-10.1-8.2-15.5c-1-2.4,0.1-5.6,0.3-8.5c3.1,0.4,6.7,0,9.1,1.5
		C111.4,44.9,113.5,48.4,116.5,51.6z"/>
	<path class="st1" d="M23.2,76.3c5.5,0,10.2,0,15.5,0c0,12.7,0,25,0,37.9c-5.3,0-10.2,0-15.5,0C23.2,101.1,23.2,88.7,23.2,76.3z"/>
	<path class="st1" d="M23.1,147c5.7,0,10.4,0,15.6,0c0,12.6,0,24.6,0,37.4c-5,0-10,0-15.6,0C23.1,172.2,23.1,159.9,23.1,147z"/>
</g>
<g class="st0">
	<path class="st1" d="M0,130.6C0,74.7,0,18.7,0-37.3c0-7,1.9-8.9,8.9-8.9c78.1,0,156.1,0,234.2-0.1c4.3,0,7.4,1.3,10.4,4.3
		C269.1-26,285-10.4,300.6,5.5c1.5,1.6,2.7,4.3,2.7,6.5c0.1,95.6,0.1,191.2,0.1,286.8c0,7.3-1.8,9.1-9,9.1c-94.9,0-189.9,0-284.8,0
		c-8,0-9.6-1.6-9.6-9.7C0,242.3,0,186.4,0,130.6z M290.5,295c0-92.8,0-185.2,0-277.9c-1.5,0-2.8,0-4,0c-12.5,0-25,0-37.5,0
		c-6.9,0-8.8-1.9-8.8-9c0-12.5,0-25,0-37.5c0-1.3-0.1-2.5-0.2-3.8c-75.9,0-151.5,0-227.1,0c0,109.6,0,218.9,0,328.2
		C105.6,295,198,295,290.5,295z M280.5,4.3c-9.2-9.2-18.4-18.4-27.5-27.5c0,8.9,0,18.1,0,27.5C262.4,4.3,271.6,4.3,280.5,4.3z"/>
	<path class="st1" d="M105.2,124.7c2,4.1,3.8,7.9,5.8,11.5c0.5,0.9,2.1,1.5,3.2,1.6c16.3,1.9,32.7,3.6,49,5.6
		c2.3,0.3,4.9,1.4,6.6,2.9c23.4,19.4,46.8,38.9,70.2,58.3c1.4,1.2,3.7,1.9,5.6,2c6.2,0.3,12.4,0.1,18.6,0.1c4.7,0,7.5,2.4,7.5,6.2
		c0,3.9-2.8,6.3-7.4,6.4c-5.9,0.1-11.9,0.1-17.8,0c-2.2-0.1-3.6,0.7-4.8,2.6c-6.6,10.1-13.4,20.2-20.1,30.3
		c-4.1,6.1-6.4,6.6-12.6,2.7c-1.3-0.8-2.6-1.6-4.3-2.7c-3,4.6-5.9,8.9-8.9,13.3c-3.5,5.2-6.3,5.8-11.5,2.4c-1.5-1-3.1-2-4.9-3.1
		c-3.2,4.8-6.2,9.4-9.3,14c-3.1,4.5-6.2,5.1-10.6,2.1c-8.7-5.9-17.3-11.9-26.2-18c-2.6,3.4-5,6.7-7.5,9.9c-3.3,4.3-6.2,4.8-10.8,1.6
		c-20.1-14-40.1-28.1-60.2-42.1c-5.4-3.8-5.7-5.9-1.8-12.8c-4.8,0-9.3,0-13.8,0c-4.9,0-7.8-2.4-7.8-6.4c0-4,2.9-6.2,7.9-6.3
		c6.3,0,12.7-0.2,19,0.1c3.3,0.1,5.8-0.6,7.5-3.7c1.2-2.2,2.9-4.1,4.5-6c2.8-3.5,5.9-4,9.6-1.4c20.7,14.4,41.4,28.9,62.1,43.5
		c3.8,2.7,4.2,6,1.5,9.9c-0.7,1.1-1.5,2.1-2.6,3.5c7.1,4.9,14.1,9.8,21.5,14.8c2.2-3.3,4.3-6.4,6.6-9.8c-6.9-4.6-13.7-9.1-20.4-13.7
		c-4.4-3.1-4.5-8.5-0.2-11c2.8-1.6,5.3-0.8,7.7,0.9c10.4,7,20.8,13.9,31.6,21.1c2.1-3.1,4.1-6.1,6.3-9.4c-4.6-2.9-8.9-5.6-13.3-8.3
		c-6.4-4-12.7-7.9-19.1-11.9c-3.7-2.4-4.8-5.8-2.8-9c2-3.3,5.7-4,9.6-1.6c13.6,8.5,27.2,17,40.9,25.5c1.1,0.7,2.2,1.4,3.6,2.2
		c1.9-2.8,3.7-5.4,5.7-8.4c-2.1-1.5-4.1-2.9-6.2-4.3c-8.4-5.6-16.9-11.2-25.3-16.9c-4.1-2.8-5.1-6.4-2.8-9.6
		c2.2-3.1,5.7-3.5,9.7-0.9c10.4,6.9,20.8,13.9,31.5,21c2-2.9,3.9-5.7,6.3-9.3c-0.9-0.6-1.8-1-2.6-1.7
		c-21.9-18.2-43.7-36.4-65.6-54.5c-1.4-1.2-3.4-1.9-5.3-2.2c-16.9-2-33.8-3.7-50.6-5.8c-2.2-0.3-4.7-1.9-6-3.6c-1.4-2-2.7-2.7-5-2.7
		c-18.6,0.1-37.1,0.1-55.7,0c-0.9,0-1.8,0-2.8,0c-4.1-0.2-6.7-2.6-6.8-6.1c-0.1-3.7,2.7-6.4,6.9-6.5c16.9-0.1,33.7,0,50.6,0
		c1.4,0,2.8,0,4.9,0c-1.7-3.3-3.1-6.2-4.5-9.2c-2.5-5.3,0.2-9.8,6-9.8c24.9-0.1,49.8-0.1,74.7,0c1.6,0,3.4,0.6,4.9,1.2
		c14.8,5.5,29.5,11.1,44.3,16.5c1.9,0.7,4.1,1.1,6.1,1.1c12.5,0.1,25,0.1,37.5,0.1c5.8,0,8.7,2.1,8.7,6.2c0.1,4.2-2.9,6.4-8.5,6.4
		c-13.3,0-26.6,0.1-39.9-0.1c-2.2,0-4.4-0.5-6.5-1.2c-14.8-5.4-29.6-11.1-44.3-16.5c-1.6-0.6-3.3-1.1-4.9-1.1c-20-0.1-40-0.1-60,0
		C106.9,124.5,106.3,124.6,105.2,124.7z M87.4,239.3c3.9,2.7,7.5,5.2,11.3,7.9c3.7-5.2,7.3-10.1,11-15.4c-4-2.8-7.6-5.3-11.3-7.9
		C94.7,229.1,91.2,234,87.4,239.3z M77.2,209.1c-3.9,5.2-7.5,10.1-11.3,15.1c3.9,2.7,7.4,5.2,11.2,7.8c3.7-5.2,7.3-10.3,11-15.4
		C84.2,213.9,80.8,211.5,77.2,209.1z M120.1,239.1c-3.7,5.2-7.2,10.1-11,15.4c3.3,2.3,6.3,4.5,9.6,6.7c3.9-5.2,7.6-10.1,11.3-15.2
		C126.6,243.6,123.5,241.4,120.1,239.1z"/>
	<path class="st1" d="M151.7,42.3c34.9,0,69.8,0,104.6,0c1,0,2.1-0.1,3.2,0c3.5,0.3,5.9,2.9,6,6.2c0.1,3.4-2.5,6.1-6.2,6.4
		c-0.9,0.1-1.8,0-2.8,0c-70,0-140,0-210,0c-1,0-2.1,0.1-3.2-0.1c-3.4-0.7-5.4-2.8-5.3-6.3c0-3.5,2.1-5.6,5.5-6.2
		c1.2-0.2,2.4-0.1,3.5-0.1C81.9,42.3,116.8,42.3,151.7,42.3z"/>
	<path class="st1" d="M152.1,73.9c34.7,0,69.5,0,104.2,0c1.3,0,2.7-0.2,3.9,0.1c3.2,0.7,5.1,2.8,5.1,6.1c0,3.3-1.9,5.4-5,6.2
		c-1.1,0.3-2.4,0.2-3.5,0.2c-70.1,0-140.3,0-210.4,0c-0.9,0-1.8,0.1-2.8,0c-3.4-0.4-5.9-3.2-5.7-6.4c0.2-3.5,2.2-5.5,5.6-6.1
		c1.2-0.2,2.4-0.1,3.5-0.1C82.1,73.9,117.1,73.9,152.1,73.9z"/>
	<path class="st1" d="M126,23.4c-26.4,0-52.9,0-79.3,0c-1,0-2.1,0.1-3.2-0.1c-3.4-0.6-5.5-2.7-5.5-6.2s2-5.6,5.4-6.3
		c0.9-0.2,1.8-0.1,2.8-0.1c53.6,0,107.1,0,160.7,0c0.9,0,1.9-0.1,2.8,0.1c3.4,0.8,5.4,2.9,5.3,6.4c-0.1,3.3-2,5.3-5.2,6.1
		c-1.1,0.3-2.4,0.1-3.5,0.1C179.4,23.4,152.7,23.4,126,23.4z"/>
</g>
<g class="st0">
	<path class="st4" d="M58.5,286c0,6.9,0,13.6,0,20.6c-5.1,0-9.9,0.2-14.6-0.2c-0.9-0.1-2.3-2.6-2.3-4c-0.3-5.4-0.1-10.8-0.1-16.8
		c-4.4,0-8.6,0-12.7,0c-6.6,0-6.6,0-6.6-6.6c0-31.4,0-62.7,0-94.1c0-1.4,0-2.7,0-4.7c-4.6,0-9-0.1-13.4,0.1
		c-2.4,0.1-3.4-0.6-3.3-3.3c0.2-5.9,0.1-11.7,0.1-18c6.9,0,13.4,0,19.9,0c90.9,0,181.7,0,272.6-0.1c3.4,0,4.8,0.9,4.6,4.6
		c-0.3,4-0.3,8.1,0,12.2c0.2,3.7-1.3,4.8-4.6,4.6c-2.6-0.2-5.3,0.1-8-0.1c-3.1-0.2-4.2,1-4.2,4.2c0.1,20.1,0.1,40.1,0.1,60.2
		c0,12.4,0,24.9,0,37.3c0,1.1,0,2.2,0,3.6c-6.4,0-12.5,0-19.3,0c0,5.4,0,10.3,0,15.3c0,6,0,6-5.7,6c-2.6,0-5.3-0.1-7.9,0
		c-2.5,0.1-3.4-1-3.4-3.5c0.1-5.6,0-11.3,0-17.3C185.9,286,122.5,286,58.5,286z"/>
	<path class="st4" d="M169,127c0.5,6.8,1,13.7,1.5,20.8c-30.9,0-61.8,0-93.1,0c0.3-6.1,0.5-12.2,1-18.2c1.1-15.3,2.4-30.6,3.4-46
		c0.6-8.8,3.8-13.1,12.3-14.8c18.9-3.9,37.9-5.9,57.1-2.7c12.5,2.1,21.5,8.7,25,21.4c4.6,17,14.1,30,28.8,39.1
		c2.5,1.5,5.1,2.7,7.6,4.1c4.1,2.4,5.9,6.3,4.8,10.5c-1,4.1-4.6,6.7-9.2,6.8c-13.9,0.5-24.4-6.4-33.6-16c-1.6-1.7-3.1-3.6-4.7-5.4
		C169.6,126.7,169.3,126.8,169,127z"/>
	<path class="st4" d="M127.7,3.9c14.8,0,26.4,11.6,26.3,26.5c0,15-11.6,26.5-26.7,26.5c-14.2,0-26-12-26-26.6
		C101.4,15.4,112.9,3.9,127.7,3.9z"/>
</g>
<g class="st0">
	<path class="st1" d="M16.5,82.9c-0.6-2.2-1.3-4-1.5-5.9c-0.5-6.4,1.9-11.6,7.6-14.5c8.3-4.1,16.7-8,25.3-11.3c2.9-1.1,6.7,0,10-0.1
		c1.4,0,3.1,0.1,4-0.6c13.9-11.1,27.7-22.4,41.4-33.7c0.8-0.7,1.5-2.1,1.5-3.2c0.4-9.5,6.1-16.5,14.9-18.3
		c8.3-1.7,16.6,2.8,20.4,11.3c12.1,26.8,24.1,53.6,36.2,80.4c4.1,9.2,1.2,19-6.9,24c-8.1,4.9-18,2.7-24.4-5.3
		c-0.7-0.9-2.4-1.6-3.4-1.5c-17.5,2.3-35,4.7-52.1,7c-1.2,3.2-2.5,6.1-3.4,9.1c-0.3,0.9,0.1,2.3,0.5,3.2c4,8.6,8.1,17.1,12.2,25.7
		c2.7,5.6,1.6,8.5-3.9,11.2c-6.7,3.2-13.5,6.5-20.2,9.7c-5.1,2.4-8.3,1.2-10.7-3.8c-4.3-8.9-8.5-17.8-12.8-26.6
		c-0.5-1.1-1.5-2.4-2.5-2.6c-5.8-1-9.6-4.4-12.1-9.8c-3.9,1.7-7.6,3.4-11.4,5.1c-4.9,2.1-8.1,0.9-10.3-4c-4.5-9.9-9-19.9-13.4-29.8
		c-2.3-5.1-1-8.3,4.1-10.6C9.1,86.2,12.7,84.6,16.5,82.9z M138.2,91.2c-9.4-21-18.7-41.6-28-62.3c-0.6,0.4-1.1,0.5-1.4,0.8
		c-13,10.5-25.9,21.1-38.9,31.6c-1.8,1.4-1.4,2.6-0.7,4.2c4.5,9.8,9,19.6,13.2,29.5c1.2,2.9,2.7,3.5,5.6,3.1
		c10.1-1.5,20.2-2.8,30.3-4.1C124.8,93.1,131.4,92.2,138.2,91.2z M75.8,112.7c-7.3-16.2-14.3-31.7-21.2-47.3c-0.9-2-2.2-2.1-4-1.2
		c-6.7,3.1-13.3,6.2-20.1,9.1c-2.4,1-2.5,2.3-1.5,4.4c1.5,3.2,2.9,6.5,4.4,9.7c5,11.2,10.1,22.5,15.2,33.7c0.6,1.4,1,3.6,3.4,2.6
		C59.8,120,67.6,116.4,75.8,112.7z M123.2,8.4c-3.9,0-6,3.6-4.2,7.7c12,26.8,24.1,53.6,36.2,80.3c1.6,3.5,4.2,4.7,7,3.4
		c2.8-1.3,3.6-4.1,2-7.6c-3.2-7.1-6.4-14.3-9.6-21.4C145.8,51.4,137,32,128.3,12.5C127.3,10.2,126,8.4,123.2,8.4z M84.8,150.6
		c-3.6-7.6-7.1-14.9-10.7-22.4c-3.9,1.8-7.3,3.4-11,5.1c3.7,7.6,7.1,14.9,10.8,22.5C77.6,154,80.9,152.4,84.8,150.6z M22.2,94.9
		c-2.3,1.1-4.3,2-6.3,3c3.1,6.8,6,13.3,9,20c2.2-1,4.1-1.9,6.4-2.9C28.2,108.3,25.3,101.8,22.2,94.9z"/>
	<path class="st1" d="M265.3,97.6c-8.7,1.4-16.8,2.7-24.9,3.9c-1.6,0.2-3.4,0.5-4.9,0.1c-3-0.8-4.8-3-4.8-6.3c0-3.3,1.9-5.8,5.4-6.5
		c8.3-1.5,16.6-2.7,24.9-4.1c6-0.9,11.9-1.9,17.9-2.8c7.4-1.1,10.6,2.1,9.4,9.5c-2.2,13.8-4.6,27.6-6.9,41.4
		c-0.8,4.5-3.6,6.9-7.4,6.4c-4-0.5-6.2-3.7-5.6-8.4c0.7-5.3,1.7-10.5,2.5-15.8c0.2-1,0.3-2,0.5-4.1c-2.2,2.4-3.7,4-5.2,5.6
		c-18.8,20.4-39.3,38.9-63,53.6c-28.1,17.6-58.9,27.5-91.6,32c-28.4,3.9-57,3.9-85.6,3.5c-4.3-0.1-7.3-2.9-7.3-6.7
		c0-3.9,3.1-6.6,7.6-6.7c15-0.1,29.9,0.2,44.9-0.3c33.8-1.1,66.8-5.7,98.2-19.2c26.6-11.5,49.6-28.3,70.3-48.4
		c7.9-7.7,15.3-15.9,22.9-23.9C263.5,99.9,264.2,99,265.3,97.6z"/>
	<path class="st1" d="M216.4,244.8c0-17.3,0-34.6,0-51.9c0-2.4,0.3-5,1-7.3c1.4-4.3,4.3-6.3,8.8-6.3c22.3,0,44.6,0,66.9,0
		c5.2,0,8.6,3.2,9.5,8.7c0.3,1.9,0.3,3.8,0.3,5.7c0,34.2,0,68.3,0,102.5c0,2.3-0.2,4.8-0.8,7c-1.4,5-4.2,7-9.4,7
		c-22.1,0-44.1,0-66.2,0c-6.4,0-10-4.1-10.1-11.5c-0.1-13.9-0.1-27.8-0.1-41.6C216.3,252.9,216.3,248.8,216.4,244.8
		C216.4,244.8,216.4,244.8,216.4,244.8z M229.7,192.6c0,34.9,0,69.4,0,104.1c20.1,0,39.9,0,59.8,0c0-34.8,0-69.4,0-104.1
		C269.5,192.6,249.7,192.6,229.7,192.6z"/>
	<path class="st1" d="M200.1,265.3c0,11.2,0,22.3,0,33.5c0,7.7-3.6,11.3-11.3,11.3c-21.4,0-42.7,0-64.1,0c-7.5,0-11.3-3.5-11.3-11
		c-0.1-22.4-0.1-44.9,0-67.3c0-7.7,3.7-11.4,11.4-11.4c21.5,0,43,0,64.5,0c7.1,0,10.9,3.8,10.9,11.1
		C200.2,242.8,200.1,254,200.1,265.3z M186.5,296.7c0-21.1,0-42,0-62.8c-20,0-39.8,0-59.5,0c0,21.1,0,41.9,0,62.8
		C146.9,296.7,166.6,296.7,186.5,296.7z"/>
	<path class="st1" d="M58,235c10.9,0,21.8,0,32.7,0c6.7,0,10.4,3.6,10.5,10.2c0,18.3,0,36.5,0,54.8c0,6.4-3.8,10-10.3,10.1
		c-21.9,0-43.9,0-65.8,0c-6.9,0-10.5-3.6-10.5-10.6c-0.1-13.8,0-27.5,0-41.3c0-4.4-0.1-8.8,0-13.2c0.2-6.6,3.8-10,10.3-10.1
		C35.9,234.9,47,235,58,235C58,235,58,235,58,235z M87.7,296.8c0-16.3,0-32.3,0-48.4c-20,0-39.8,0-59.6,0c0,16.2,0,32.3,0,48.4
		C48.1,296.8,67.7,296.8,87.7,296.8z"/>
	<path class="st1" d="M193.7-11.7c-1.3,2.3-2,4-3.1,5.3c-6.9,7.9-13.9,15.8-20.9,23.7c-3.1,3.5-7,4-10,1.5c-3-2.5-3.1-6.6-0.1-10
		c7.1-8.1,14.3-16.1,21.4-24.2c2.2-2.5,5.2-3.4,8-1.8C190.9-16.1,192.1-13.7,193.7-11.7z"/>
	<path class="st1" d="M215.6,28.5c-0.8,1-2,3.4-4,4.4c-9.2,4.5-18.6,8.7-28.1,12.9c-3.5,1.6-7.2,0.1-8.7-3.2
		c-1.5-3.3-0.3-7.1,3.1-8.7c9.4-4.4,18.9-8.8,28.4-12.9C211,18.9,215.8,22.4,215.6,28.5z"/>
	<path class="st1" d="M199.1,72.8c-1.8,0-3.6,0.1-5.3,0c-3.4-0.2-6-2.8-6.2-6.2c-0.2-3.3,2.1-6.5,5.5-6.8c10.6-0.8,21.2-1.5,31.9-2
		c3.8-0.2,6.5,2.8,6.6,6.4c0.1,3.8-2.5,6.6-6.6,6.8c-8.6,0.5-17.2,1-25.9,1.5C199.1,72.7,199.1,72.8,199.1,72.8z"/>
</g>
<g class="st0">
	<path class="st1" d="M201,99.2c17.1-23.3,34-46.4,51.3-70c17,23.4,33.8,46.6,51.1,70.5c-4.7,0-8.6,0-12.6,0c-5.2,0-6.8,1.6-6.8,6.7
		c0,14.9,0,29.7,0,44.6c-0.3,76.6-52.1,141.1-126.9,157.8c-6.8,1.5-13.8,2.3-20.8,3.5c-0.1-0.3-0.2-0.6-0.3-0.9
		c0.6-0.5,1.2-1,1.9-1.4c44.7-27.9,71.3-67.9,79.9-119.8c1.4-8.6,1.8-17.5,1.9-26.3c0.3-19,0.1-38,0.1-57.1c0-5.8-1.3-7.1-7.2-7.1
		c-3.5,0-7.1,0-10.6,0C202,99.7,201.7,99.5,201,99.2z M270.4,160.4c0-0.4,0-0.8,0-1.1c0.1-5-1.5-7.3-5.3-7.4c-3.6-0.1-5,1.7-5.4,6.9
		c-1.1,17.4-5.1,34.1-12.4,49.9c-9.1,19.7-22.1,36.2-39,49.8c-3.3,2.6-3.7,5.4-1.5,8.1c2.1,2.6,5.1,2.8,8,0.5
		C248.6,239.4,267,203.8,270.4,160.4z M259.8,129.5c0,0.6,0,1.3,0,1.9c0.1,3.8,2,5.9,5.3,5.9c3.3,0,5.2-2.1,5.3-5.9
		c0-1.4,0.1-2.8,0-4.1c-0.3-3.3-2.2-5-5.5-4.9C261.3,122.5,259.8,124.4,259.8,129.5z"/>
	<path class="st1" d="M115.2,174.9c-3.9,0-7.3,0.1-10.6-0.1c-0.9-0.1-2.2-1.2-2.5-2.1c-3.6-10.7-7.2-21.5-10.6-32.3
		c-0.4-1.3-0.2-3,0.1-4.4c2.1-9.8,4.4-19.6,6.6-29.5c0.9-4.3-0.6-7.1-4.1-8c-3.3-0.8-5.7,1.1-6.7,5.4c-2,8.8-4.1,17.7-6,26.5
		c-0.5,2.2-1.2,3.2-3.7,3.1c-13.2-0.1-26.5-0.1-39.7,0c-2.3,0-3.3-0.6-3.8-3c-1.8-8.7-3.9-17.4-5.9-26.1c-1-4.6-3.3-6.3-6.9-5.5
		c-3.5,0.8-4.8,3.5-3.8,8c2.2,9.7,4.4,19.4,6.4,29.1c0.3,1.6,0.3,3.5-0.2,5.1c-3.4,10.3-7,20.5-10.4,30.7c-0.7,2.1-1.6,3.1-4,2.9
		c-3-0.2-6-0.1-9.5-0.1c0-1.7,0-3.1,0-4.4c0-29.9,0-59.7,0-89.6C0.1,68.6,6.7,62,19,62c4.6,0,10.1-1.2,13.6,0.8
		c3.4,2,4.9,7.4,7.2,11.3c3.5,6.1,7,12.2,10.6,18.3c3.3,5.6,8,5.6,11.2,0.1c5.4-9.3,10.7-18.5,16-27.8c1.2-2.1,2.5-2.8,4.8-2.7
		c5,0.2,10.1,0,15.1,0c10.9,0,17.8,7,17.8,18.1c0,28.7,0,57.5,0,86.2C115.2,169.1,115.2,171.8,115.2,174.9z"/>
	<path class="st1" d="M103.4,213.1c-30.4,0-60.4,0-90.8,0c0.3-1.2,0.5-2.3,0.9-3.4c6.6-20.3,13.2-40.7,19.6-61
		c0.9-2.8,2.1-3.9,5.2-3.9c13.2,0.2,26.4,0.1,39.7,0.1c1.8,0,3.3,0,4.1,2.3c7,21.5,14.1,43,21.2,64.5
		C103.4,212,103.3,212.4,103.4,213.1z"/>
	<path class="st1" d="M23.6,12.8c0.7-14.2,6.7-24.7,19.3-30.6c11.6-5.4,23-4,32.9,4.2c11.1,9.1,14.6,21.2,11.3,35
		C84.6,31.9,79.2,40.7,70.2,47C61,53.5,50.7,53.6,41.7,47C30,38.5,24.5,26.6,23.6,12.8z"/>
	<path class="st1" d="M32.3,224.7c17.1,0,33.7,0,50.5,0c-2,29.3-3.9,58.4-5.9,87.7c-4.7,0-9.1,0-13.9,0c0-1.5,0-2.8,0-4.1
		c0-12.7,0-25.4,0-38.1c0-0.8,0-1.5,0-2.3c-0.2-3.8-2.1-6.1-5.2-6.2c-3.3-0.1-5.6,2.1-5.6,6.1c-0.1,9.3,0,18.6,0,28
		c0,5.4,0,10.8,0,16.5c-4.7,0-9.1,0-14,0C36.2,283.2,34.3,254.1,32.3,224.7z"/>
</g>
<g class="st0">
	<path class="st1" d="M0.6,42.7c0-67.8-0.1-135.6,0-203.4c0.1-43.8,22.1-65.8,65.8-65.9c57.3-0.1,114.6-0.2,171.9,0
		c40.7,0.1,64,23.5,64,64.4c0.1,136.8,0.1,273.6,0,410.3c0,40.9-23.2,64-64.4,64.1c-57.9,0.2-115.7,0.2-173.6,0
		c-40.9-0.1-63.6-23.1-63.7-64.4C0.5,179.4,0.6,111.1,0.6,42.7z M286.1,196c0-103.5,0-204.2,0-304.7c-91,0-180.5,0-269.8,0
		c-0.6,3.4-1.2,5.1-1.2,6.8c-0.1,94.7,0.1,189.3-0.4,284c-0.1,14.4,7.7,14.3,17.8,14.2c57.8-0.2,115.7-0.2,173.5-0.3
		C232.2,196,258.4,196,286.1,196z M287.1-125.9c0-15.8,0.9-30.8-0.2-45.8c-1.7-23.1-18-39.2-41.3-39.4c-63-0.6-126-0.5-189,0
		C36.3-210.9,20-198.1,17-178.1c-2.5,16.8-0.5,34.3-0.5,52.2C106.8-125.9,195.9-125.9,287.1-125.9z M286.8,210.7
		c-9.2,0-16.1,0-23.1,0c-69.4,0-138.9,0-208.3,0c-43.1,0-43.1,0-40.5,43.6c0.1,1.8,0.1,3.5,0.4,5.2c3.1,20.2,18.5,36.7,38.5,37
		c64.8,0.8,129.5,0.8,194.3,0.1c20.4-0.2,36.6-16.2,38.5-36.4C287.9,244.6,286.8,228.9,286.8,210.7z"/>
	<path class="st1" d="M150.9,225.8c15.3-0.2,28,11.8,28.6,27c0.7,16.3-11.6,29.3-27.8,29.4c-15.7,0.1-27.9-11.4-28.5-26.9
		C122.6,238.8,134.6,226,150.9,225.8z M152,231.9c-11.8-0.4-22.8,9.8-22.5,21.8c0.4,12.8,7.3,21,20.2,21.9
		c13.8,0.9,21.8-7.1,23.5-20.5C174.6,243.6,163.8,232.4,152,231.9z"/>
</g>
<g>
	<path d="M272,155.2c-4.1,0-6.7,0-10.2,0c0-3.3,0-6.3,0-9.2c0-39.7,0-79.4,0-119.1c0-12.1-2.9-15-15-15.1c-48.2,0-96.4,0-144.6,0
		c-12.4,0-14.9,2.6-14.9,15c0,26,0,52,0,78c0,3,0,5.9,0,9.3c-3.8,0-6.7,0-10.5,0c0-27.2,0-54.1,0-81C65.5,32,61.6,35.2,61.5,45.3
		c-0.1,22.7,0,45.4,0,68.8c-3.3,0.1-6.1,0.3-10.1,0.5c0-8.1,0-15.6,0-23.2c0-14.5,0-29,0-43.5c0-18.3,5.8-24.5,24.5-26
		c0.4-1,1.1-2.1,1.4-3.4c3.5-11.6,10-17,22-17c50.1-0.1,100.2-0.1,150.3,0c12.9,0,19,5.6,23,20c17.5,1.3,25.7,7.5,25.4,30.3
		c-0.6,43.3-0.1,86.5-0.2,129.8c0,18-7.4,25.3-25.5,25.3c-21.3,0-42.7,0-65.3,0c4,13.4,7.2,26,11.9,38.1c0.9,2.5,7.2,2.9,11.5,4.5
		c0,2.2,0,5.1,0,8.3c-2.2,0.2-4,0.5-5.9,0.5c-19.7,0-39.3,0-59.9,0c-0.2-3.4-0.3-6.2-0.5-10.1c14.7,0,28.7,0,44.5,0
		c-4.2-13.9-7.9-26.6-12.1-39.1c-0.4-1.3-4-2.1-6.2-2.2c-10.1-0.2-20.2-0.1-30.8-0.1c0-3.5,0-6.3,0-10.1c3.1,0,6,0,8.9,0
		c34.2,0,68.5,0,102.7,0c14.6,0,17.9-4.2,15.3-20.2c-47.1,0-94.3,0-142.3,0c-0.2-3.7-0.3-6.5-0.6-10.5c47.9,0,95.3,0,143.2,0
		c0.3-2.8,0.6-4.7,0.6-6.5c0-37.8,0.1-75.6,0-113.4c0-11-3.6-14-15.4-13.3C272,73.4,272,114.1,272,155.2z"/>
	<path d="M109.5,160.8c24.7,11.4,40.4,30.2,43.6,57.3c1.8,15.4,0,31.2,1,46.7c0.4,6.1,3,12.6,6.2,17.9c3.5,6,5.1,11.5,2.2,17.7
		c-2.9,6.4-8.5,9.2-15.2,9.2c-13.7,0.1-27.4,0.1-41.1,0.1c-28.7,0-57.5-0.1-86.2,0c-7.6,0-14.3-1.4-18.1-8.8
		c-3.9-7.6-1.2-13.8,3.6-20.4c2.9-3.9,4.3-9.5,4.6-14.4c0.6-12.6,0.1-25.2,0.2-37.8c0.2-30.2,14.1-52.1,40.8-66
		c1.2-0.6,2.4-1.2,4.3-2.2c-2.5-8.1-5-16.1-7.5-24.1c-2.9-9.4-1.6-11.5,7.9-11.6c17.8-0.1,35.6-0.1,53.4,0c8.1,0,9.8,2.4,7.5,10.1
		c-2.4,8.1-5,16.2-7.5,24.2C109,159.2,109.2,159.5,109.5,160.8z M58.5,135.4c2.5,8,4.4,15.1,7,21.9c2.6,6.8,1.1,10.2-6,13
		c-20.9,8.2-34.6,23.6-37.6,45.9c-2.2,16.1-0.4,32.8-1.8,49.1c-0.7,7.8-4.7,15.2-7.1,22.8c-0.8,2.7-2.5,5.8-1.7,8
		c0.6,1.7,4.4,2.9,6.9,3c9.3,0.3,18.6,0.2,27.9,0.2c32.9,0,65.7,0.1,98.6-0.2c2.9,0,6.6-1.5,8.2-3.6c1-1.3-1.4-5.1-2.3-7.8
		c-2.3-7.1-6-14.1-6.7-21.4c-1.1-12.5-0.2-25.2-0.3-37.8c-0.2-27.2-14.4-48.6-39.6-58.6c-6.8-2.7-7.9-6.2-5.6-12.5
		c2.6-7,4.6-14.3,7-22.2C89.4,135.4,74.7,135.4,58.5,135.4z"/>
	<path d="M251.6,155.6c-41.4,0-81.6,0-121.8,0c-1.9,0-3.8-0.2-6.1-0.3c0-3.1,0-6,0-9.4c4.8-0.3,9.3-0.5,14.9-0.8
		c0-10.8,0.2-21.4-0.1-31.9c-0.2-6.2,1.8-9,8.4-8.8c25.6,0.6,22.3-3.5,22.5,22c0.1,6,0,12,0,18.6c3.4,0,6.3,0,10.2,0
		c0-9.5,0-18.9,0-28.4c0-5.5-0.1-10.9,0-16.4c0.3-24.4-3.8-21.1,22-21.6c7.1-0.1,9,3.2,8.9,9.5c-0.2,15.9-0.1,31.7-0.1,47.6
		c0,3,0,5.9,0,9.4c3.6,0,6.4,0,10.2,0c0-4,0-7.8,0-11.5c0-25.4,0.2-50.9-0.1-76.3c-0.1-7.3,2.7-9.6,9.7-9.5
		c23.9,0.4,21.2-2.4,21.3,20.9c0.1,25.7,0,51.4,0,77.2C251.6,148.5,251.6,151.5,251.6,155.6z M240.5,145.2c0-29.3,0-57.8,0-86.4
		c-3.4,0-6.2,0-9,0c0,29.2,0,57.7,0,86.4C234.7,145.2,237.1,145.2,240.5,145.2z M199.4,145.2c0-19.1,0-37.4,0-55.9
		c-3.4,0-6.2,0-8.9,0c0,19,0,37.3,0,55.9C193.6,145.2,196,145.2,199.4,145.2z M149.3,114.8c0,10.5,0,20.3,0,29.9c3.5,0,6.3,0,9.1,0
		c0-10.3,0-20,0-29.9C155.2,114.8,152.6,114.8,149.3,114.8z"/>
	<path d="M256.2,294c-11.2-0.2-20.4-9.4-20.3-20.5c0.1-11,9.5-20.4,20.5-20.4c11.5-0.1,20.7,9.4,20.4,21.1
		C276.7,285.6,267.7,294.2,256.2,294z M258.5,263.7c-6.9-0.6-11.9,3.5-11.9,9.4c0,6,3,9.8,9.1,10.6c5.7,0.7,11-3.8,11.1-9.5
		C266.8,268.2,263.6,264.6,258.5,263.7z"/>
	<path d="M179.7,288.9c0.1-11.4,9-20.2,20.4-20.2c11.3,0,20.5,9,20.6,20.1c0.2,11.3-9.7,21.1-20.9,20.9
		C188.6,309.5,179.6,300.2,179.7,288.9z M199.8,299.2c5.8,0,10.4-4.4,10.5-9.8c0.2-5.6-4.7-10.6-10.3-10.5
		c-5.7,0-10.7,5.1-10.1,10.6C190.5,295.5,194.1,298.8,199.8,299.2z"/>
	<path d="M127.4,114.1c-2.9,0-5.8,0-9.5,0c0-6.6,0-12.7,0-19.5c-3.6,0-6.5,0-10,0c0,6.4,0,12.6,0,19.5c-3.5,0.2-6.4,0.3-10.3,0.5
		c0-8.8-0.3-17.2,0.2-25.6c0.1-1.9,3.2-3.6,5.1-5.3c0.5-0.4,1.6-0.1,2.4-0.2C129,82.2,132.5,86.9,127.4,114.1z"/>
	<path d="M118.2,31.8c0-3.1,0-5.7,0-8.9c3.1,0,6.1,0,9.6,0c0,2.8,0,5.6,0,8.9C124.8,31.8,122,31.8,118.2,31.8z"/>
	<path d="M107,32.1c-3.1,0-5.8,0-9,0c0-3,0-5.9,0-9.3c2.8,0,5.6,0,9,0C107,25.5,107,28.4,107,32.1z"/>
	<path d="M148,32c-3.3,0-6,0-9,0c0-3.2,0-6.1,0-9.3c3.2,0,6,0,9,0C148,26.1,148,29.1,148,32z"/>
	<path d="M87.1,273.5c-3.8,0-6.5,0-9.6,0c-0.4-3.1-0.8-6-1.3-9.3c-2.8-0.4-5.7-0.8-9.1-1.2c0-3,0-5.8,0-9.9c5.8,0,11.8,0.5,17.6-0.2
		c2.6-0.3,4.9-3.2,7.3-4.9c-2.2-2.3-3.9-5.5-6.6-6.7c-3.4-1.5-7.5-1.2-11.2-2.2c-7-1.8-11.5-6.3-12.6-13.5c-1-6.9,1.5-13.1,7.7-15.8
		c5.9-2.6,8.5-5.9,7.5-12.5c3.5,0,6.4,0,9.7,0c0.4,2.8,0.8,5.7,1.2,9c2.9,0.4,5.7,0.7,9.1,1.1c0,3,0,5.9,0,9.9
		c-5.9,0-11.9-0.5-17.7,0.2c-2.6,0.3-4.9,3.2-7.3,5c2.2,2.3,4,5.6,6.6,6.7c3.6,1.6,8.1,1.3,12,2.4c6.6,1.9,10.8,6.5,11.8,13.3
		c1,6.9-1.5,13.2-7.7,15.8C88.6,263.1,86.3,266.7,87.1,273.5z"/>
</g>
</svg>
