<?xml version="1.0" encoding="utf-8"?>
<!-- Generator: Adobe Illustrator 23.0.0, SVG Export Plug-In . SVG Version: 6.00 Build 0)  -->
<svg version="1.1" id="Layer_1" xmlns="http://www.w3.org/2000/svg" xmlns:xlink="http://www.w3.org/1999/xlink" x="0px" y="0px"
	 viewBox="0 0 335.5 310.7" style="enable-background:new 0 0 335.5 310.7;" xml:space="preserve">
<style type="text/css">
	.st0{display:none;}
	.st1{display:inline;}
	.st2{display:inline;fill:none;stroke:#000000;stroke-width:12;stroke-miterlimit:10;}
	.st3{display:inline;fill:none;stroke:#000000;stroke-width:10;stroke-miterlimit:10;}
	.st4{display:inline;fill:none;stroke:#000000;stroke-width:7;stroke-miterlimit:10;}
	.st5{fill:none;stroke:#000000;stroke-width:7;stroke-miterlimit:10;}
	.st6{fill:none;stroke:#000000;stroke-width:5;stroke-miterlimit:10;}
</style>
<g class="st0">
	<path class="st1" d="M239.7-9.5c-2.1,4.6-4.1,9.2-6.4,13.5c-1.7,3.2-2,6-0.5,9.4c1.6,3.6,2.7,7.5,4.3,11.8
		c-55.6-9.3-104.7,3.7-146.4,41.1C60.9,92.9,43.2,126.5,37.2,166c-12,78.9,34.1,156,109.1,183.2c75.4,27.4,158.5-1.6,201.2-70.3
		c42.2-67.8,31.6-164.2-39.7-221c4.3-1.6,8.4-2.8,12.1-4.7c2-1,4.1-2.7,5.2-4.7c2.7-4.9,4.9-10.1,7.3-15.2
		c67.3,52.4,101.3,158.2,51.9,252.5c-49.1,93.7-163.9,134.4-260.5,92.4C24.5,334.9-24.3,224.2,11.9,122.6
		C47.7,22,150-27.2,239.7-9.5z"/>
	<path class="st1" d="M282.4,66.9c59.4,35.6,88.2,116.3,54.2,187.4c-34.9,72.9-120.9,103.6-194.5,69.9c-72-32.9-105-119.2-73-191.9
		c33.2-75.4,114.2-102.3,177-82c-5.1,10.8-10,21.7-15.3,32.3c-0.4,0.9-3.2,1.3-4.6,1c-58.3-11.8-114.6,23.9-128.7,81.8
		c-15.3,62.6,28.5,126,92.4,133.8C251,306.6,306.1,264,312.6,203c4.3-40.3-10.4-73.4-42.1-98.8c-3.2-2.6-3.8-4.3-1.9-8.1
		C273.4,86.6,277.7,76.9,282.4,66.9z"/>
	<path class="st1" d="M257.1,121c34.8,24.2,45.1,75.4,23.1,113.2c-23.1,39.8-71.7,55.5-112.9,36.4c-41.7-19.3-61.8-67.1-46-109.9
		c16.5-44.7,62.4-64.4,99.3-56c-4.6,9.9-9,19.7-13.9,29.3c-0.6,1.2-3.4,1.6-5.2,1.7c-24.7,1.2-45,17.8-51.1,41.9
		c-7.6,29.9,11.7,60.3,42.3,67c29.9,6.5,60.2-14.2,65.2-44.3c2.9-17.4-1.5-32.6-12.9-46c-1-1.1-1.9-3.4-1.4-4.5
		C248,140.2,252.6,130.8,257.1,121z"/>
	<path class="st1" d="M195.3,159c-3.9,8.4-7.8,16.2-11.1,24.1c-3.7,8.9-0.6,18.6,7.1,23.9c7.6,5.3,18,4.6,24.8-2.1
		c2.3-2.3,4.1-5.3,5.5-8.2c3.7-7.4,7.1-15,10.6-22.7c7.4,9.4,6.7,25.6-1.5,36.6c-9.1,12.1-24.7,16.8-38.8,11.4
		c-14.2-5.4-22.9-19.6-21.3-34.8C172.1,173.5,182.6,161.1,195.3,159z"/>
	<path class="st1" d="M278.7-42c4.9,7.3,4.7,13.6,0.9,20.9c-7.2,13.8-13.4,28.2-20.3,42.9c-3.2-6.5-5.7-11.9-1.9-19
		c6.9-12.9,12.5-26.4,18.7-39.7C276.9-38.4,277.7-40,278.7-42z"/>
	<path class="st1" d="M295.6,38.5c5.3-11.3,10.4-22.3,15.5-33.3c1.5-3.3,3.1-6.6,4.7-9.9c4.6-9.8,4.6-9.8,16-12.5
		c-0.6,1.6-1,2.9-1.6,4.1c-6,12.8-12.4,25.4-17.7,38.5C309.4,33.1,304.8,37.7,295.6,38.5z"/>
</g>
<g class="st0">
	<path class="st2" d="M88.7,404.6c-0.9,1.4-1.6,2.5-2.3,3.6c-7.2,10.7-17.4,15-30,13.4c-10.2-1.3-18.6-12.1-18.6-23.3
		c0-40.5,0-80.9,0-121.4c0-1.8,0-3.5,0-5.9c-5.2,0-10,0-14.8,0c-10.8,0-16.5-5.5-16.6-16.2c-0.1-31.9-0.1-63.8,0-95.7
		c0.1-14.9,10.2-25,25.7-25.8c6.3-0.3,12.7-0.3,19,0c1.5,0.1,3.3,1.3,4.2,2.5c7,8.6,14.4,16.7,23.9,22.7c3.6,2.2,6.5,2.3,10.3,0.4
		c10.7-5.5,19.6-12.8,25.9-23.1c0.8-1.3,2.9-2.5,4.4-2.5c40.2-0.1,80.4-0.1,120.6-0.1c6.9,0,11.4,3.1,13.5,9.4
		c2.9,8.6,2.9,17.4,0.6,26.1c-1.9,7-5.8,9.4-13.1,9.4c-33.8-0.1-67.7-0.2-101.5-0.3c-0.5,0-1.1,0.1-2.4,0.2c0,1.7,0,3.4,0,5.1
		c0,70.7,0,141.5,0,212.2c0,13.5-7.6,23.4-19.3,25.1c-11.5,1.7-20.7-2-27.1-11.9C90.4,407.4,89.6,406.1,88.7,404.6z"/>
	<path class="st1" d="M160.1,91.7c0-11.1,0-21.6,0-32.7c10.3,0,20.5,0,30.7,0c10.1,0,20.1,0,30.5,0c0.2-1.6,0.4-2.9,0.5-4.2
		c1-9.2,5.6-15.9,14.5-18.9c12.3-4.2,24.7-4.3,37-0.1c9.5,3.2,13.7,9.8,13.9,19.8c0,1,0.1,1.9,0.2,3.4c1.7,0,3.3,0,4.9,0
		c28.3,0,56.6-0.1,85,0.1c20.2,0.2,30.6,11.1,30.6,31.5c0,71.7,0,143.4,0,215.1c0,3.6,0.1,7.2-0.1,10.8c-0.9,17.4-11,27.1-28.4,27.1
		c-39.1,0-78.2,0-117.3,0c-32.2,0-64.4,0-96.6,0c-1.6,0-3.3,0-5.2,0c0-10.2,0-20.1,0-30.5c1.9,0,3.7,0,5.4,0c61.9,0,123.8,0,185.7,0
		c2.7,0,5.5-0.2,8.2-0.7c9.9-1.9,15.5-7.8,17-17.7c0.3-1.9,0.4-3.9,0.4-5.8c0-56.8,0-113.6,0-170.3c0-8.9-1.7-17.5-10-22.3
		c-4.5-2.6-10-4.4-15.1-4.4c-62-0.3-124.1-0.2-186.1-0.2C164,91.7,162.2,91.7,160.1,91.7z"/>
	<path class="st3" d="M43.8,75.6C43.6,52.7,62.6,33.2,85.2,33c23.8-0.2,43.3,18.6,43.5,41.8c0.1,23.1-18.7,42.1-41.1,43
		C66,118.7,43.5,100.3,43.8,75.6z"/>
</g>
<g class="st0">
	<path class="st4" d="M82.3,325.5c-6-8.4-11.4-16.3-17.4-23.8c-1.1-1.4-4.6-2.1-6.5-1.5c-7.9,2.2-15.6,5-23.4,7.4
		c-9.6,3-13.9,1-17.1-8.5c-4.6-13.4-8.9-26.9-13.2-40.4c-2.4-7.4,0.2-12.6,7.7-15.2c7-2.4,14.1-4.9,21.3-6.7
		c5.8-1.5,7.8-4.1,7.4-10.5c-2.7-43.8,9.4-83.2,38.6-116.1c43.6-49.2,98.9-67.4,162.4-51.6c63.3,15.7,103.2,57.7,118.8,121.1
		c3.8,15.6,3,32.4,3.7,48.7c0.2,4.3,1.1,6.4,5.4,7.5c7.6,2.1,15.1,4.7,22.6,7.2c8.5,2.9,10.9,7.6,8.3,16.1
		c-4.4,13.7-8.8,27.5-13.3,41.1c-2.3,7.1-7.4,9.8-14.7,7.6c-8.3-2.4-16.6-5-24.7-7.9c-3.8-1.4-6-1.1-8.3,2.5
		c-4,6.3-8.5,12.3-13.3,18c-3,3.5-2.8,5.8,0,9.2c5,6.2,9.5,12.8,14.1,19.2c5.8,8.1,5.1,13.2-2.7,18.9c-11.3,8.3-22.5,16.5-33.9,24.6
		c-7.2,5.1-12.6,4.2-17.9-3c-5.2-7-10-14.2-15.4-21c-1.3-1.6-4.5-3-6.2-2.5c-9.2,2.7-18.1,6.1-27.8,9.4c0,9.7,0.1,19.8,0,29.9
		c-0.1,9.3-3.5,12.9-12.6,13c-14.2,0.2-28.4,0.2-42.6,0c-9.2-0.2-12.5-3.8-12.6-13c-0.1-8.4-0.2-16.9,0.1-25.3c0.1-4-1-6-5.2-7
		c-7.2-1.8-14.3-4-21.2-6.8c-3.6-1.4-5.6-1-7.8,2.1c-5.1,7.3-10.3,14.5-15.7,21.6c-4.9,6.5-10.2,7.4-16.8,2.8
		c-12-8.5-23.8-17.1-35.6-25.9c-6.3-4.7-7-10.3-2.4-16.9C70.3,341.8,76.5,333.5,82.3,325.5z M354.8,230.2
		c2.6-63-20.4-112.5-73.5-144.3c-55.5-33.2-112.4-31.1-165.6,5.8c-47.3,32.9-67.5,80.1-64.4,138.4c13.5,0,26.2,0,38.8,0
		c12.9,0,25.9,0,38.8,0c0.6,1.6,1.2,2.7,1.5,3.9c8.4,32.9,35.1,55.8,67.4,57.9c33.5,2.1,63.3-17.3,75.5-49.3
		c4.8-12.5,4.8-12.4,18.6-12.3C312.4,230.3,333.1,230.2,354.8,230.2z"/>
	<path class="st1" d="M268.3,160.1c-4.8,7.6-8.9,15.9-14.6,22.8c-12.5,15.2-25.3,30.2-38.9,44.4c-4.1,4.3-10.9,7-16.9,8.3
		c-7.6,1.6-12.6-4.3-10.4-11.9c1.5-5.1,4.1-10.6,7.8-14.3c19.2-19.4,40.5-36.1,64.8-48.9c2-1.1,4.2-1.6,6.3-2.4
		C267,158.8,267.6,159.5,268.3,160.1z"/>
	<path class="st1" d="M312.3,137.8c-6.2,3.7-11.1,6.6-14.2,8.4c-8.5-8.5-16.6-16.6-25.6-25.6c1.5-2.7,4.4-7.6,8.2-14.3
		C291.5,117.1,301.5,127.2,312.3,137.8z"/>
	<path class="st1" d="M336.3,202.6c-8,0-13.1,0-18.2,0c-3-11.1-6-21.8-9.2-33.4c4.4-2.6,9.5-5.6,16-9.5
		C328.8,174.1,332.4,187.7,336.3,202.6z"/>
	<path class="st1" d="M207.6,104.1c-3.3,0-6.1,0-9.4,0c0-8.3,0-16.3,0-24.8c3.1,0,6,0,9.4,0C207.6,87.8,207.6,95.8,207.6,104.1z"/>
	<path class="st1" d="M109.4,155.8c-2,3.3-3.6,5.9-5.3,8.8c-7.6-4.4-14.8-8.6-22.3-12.9c1.9-3.1,3.4-5.7,5.2-8.7
		C94.5,147.2,101.5,151.3,109.4,155.8z"/>
	<path class="st1" d="M324.1,151.6c-7.9,4.6-15,8.6-22.4,12.9c-1.7-2.7-3.3-5.3-5.3-8.7c7.4-4.3,14.5-8.5,22.2-12.9
		C320.4,145.8,322,148.3,324.1,151.6z"/>
	<path class="st1" d="M143,122.2c-4.5-7.8-8.5-14.8-12.9-22.4c3-1.8,5.6-3.3,8.8-5.1c4.4,7.4,8.4,14.4,12.9,22
		C148.9,118.6,146.3,120.2,143,122.2z"/>
	<path class="st1" d="M254.1,116.7c4.7-7.9,8.6-14.7,12.9-22c3,1.7,5.6,3.2,8.8,5c-4.4,7.6-8.5,14.7-12.9,22.5
		C259.8,120.3,257.1,118.6,254.1,116.7z"/>
	<path class="st1" d="M66.4,211.2c8.5,0,16.5,0,24.9,0c0.2,3.1,0.3,5.9,0.5,9.2c-8.6,0-16.8,0-25.4,0
		C66.4,217.4,66.4,214.6,66.4,211.2z"/>
	<path class="st1" d="M314.8,220.3c0-3.7,0-6.2,0-9.1c8.3,0,16.3,0,24.8,0c0,3.2,0,5.9,0,9.1C331.4,220.3,323.4,220.3,314.8,220.3z"
		/>
</g>
<g class="st0">
	<path class="st4" d="M402.7,146.6c0,78.2,0,156.4,0,234.6c-6.7,15.7-12.7,19.6-30,19.6c-23,0-46,0.1-69.1,0
		c-14.4,0-25-10.8-25.1-25.2c0-14.6,0-29.2,0-43.7c0-1.8,0-3.5,0-5.3c-29.1,0-57.6,0-86.6,0c8.2,16.6,16.3,32.7,24.4,49.1
		c-33.5,0-66.1,0-99.2,0c8.3-16.6,16.2-32.6,24.6-49.4c-2.8,0-4.7,0-6.7,0c-34.5,0-68.9,0-103.4,0c-16.1,0-26.6-10.4-26.6-26.3
		c0-65.4,0-130.9,0-196.3c0-15.4,10.4-25.9,25.8-25.9c90.6,0,181.2,0,271.9,0c15.3,0,25.5,10.3,25.5,25.6c0,7.9,0,15.8,0,24.1
		c2.4,0,4.2,0,6,0c14.7,0,29.5,0,44.2,0c7,0,13.1,2.4,17.6,7.8C398.8,138.5,400.5,142.8,402.7,146.6z M278.5,276.2
		c0-2.2,0-4.2,0-6.1c0-39.3,0-78.5,0-117.8c0-11.8,7.7-21.8,18.8-24.4c1.9-0.4,3.8-0.6,5.8-1c0-8.2,0-16.1,0-24.1
		c-91.1,0-181.9,0-272.9,0c0,57.9,0,115.4,0,173.3C112.9,276.2,195.5,276.2,278.5,276.2z M377.8,152.7c-25,0-49.6,0-74.1,0
		c0,8.3,0,16.1,0,24c24.9,0,49.4,0,74.1,0C377.8,168.5,377.8,160.8,377.8,152.7z M303.5,226.5c25,0,49.5,0,74.1,0
		c0-8.3,0-16.1,0-24.1c-24.8,0-49.4,0-74.1,0C303.5,210.4,303.5,218.2,303.5,226.5z M340.6,301.5c-6.9,0-12.3,5.4-12.3,12.2
		c0,6.8,5.5,12.2,12.4,12.2s12.3-5.5,12.2-12.3C352.9,306.8,347.5,301.5,340.6,301.5z M340.6,375.6c6.8,0,12.3-5.4,12.3-12.2
		c0-6.8-5.4-12.2-12.2-12.2c-6.9,0-12.3,5.3-12.4,12.1C328.4,370.1,333.8,375.6,340.6,375.6z"/>
</g>
<g class="st0">
	<path class="st4" d="M327-25.4c3.8,2,4.9,5.2,4.9,9.4c-0.1,32.6,0,65.1,0,97.7c0,3.4-0.1,6.9-3.6,8.8c-3.5,1.9-6.4,0.2-9.3-1.8
		c-16-10.5-31.9-20.9-48-31.2c-1.9-1.2-4.6-1.4-7.8-2.3c0,6.3,0,11.3,0,16.3c0,6.9,0.2,13.8-0.1,20.6c-0.4,10.9-8.8,19.3-19.7,19.7
		c-10,0.4-19.9,0.2-29.9,0.3c-1.5,0-3,0-4.8,0c0,11.8,0,23.1,0,34.9c1.6,0.1,3.2,0.2,4.8,0.2c22.7,0,45.5,0,68.2,0
		c7.2,0,9.1,2.1,9.2,9.3c0,4.2,0.1,8.4,0,12.6c-0.1,4.4-2.7,7.2-6.5,7.3c-3.9,0.1-6.7-2.8-7-7.3c-0.1-1.4,0-2.8,0-4.2
		c0-1.2,0-2.5,0-4c-23,0-45.7,0-68.8,0c-0.1,1.7-0.2,3.3-0.2,4.9c0,14,0,28.1,0,42.1c0,5.4-2.3,8.4-6.5,8.6
		c-4.3,0.1-6.9-3.2-6.9-8.7c0-14,0-28.1,0-42.1c0-1.5,0-3,0-4.8c-23.6,0-46.9,0-70.8,0c0,2.4,0.1,4.7,0,7c-0.2,4.1-2.7,6.9-6.3,7
		c-3.8,0.1-6.9-2.6-7.1-6.8c-0.2-4.2-0.1-8.4,0-12.6c0.1-6,2.4-8.4,8.5-8.4c19.9,0,39.9,0,59.8,0c5.1,0,10.1,0,15.5,0
		c0-11.6,0-23,0-35.1c-2.5,0-5.1,0-7.7,0c-6.7,0-13.5,0-20.2-0.1c-12.9-0.2-21.6-8.8-21.9-21.7c-0.2-11.2,0-22.5,0-33.5
		c-3.1-2.1-5.5-1.2-8.2,0.6c-15.9,10.5-31.9,20.9-47.9,31.3c-2.8,1.8-5.6,3.4-9,1.5c-3.3-1.9-3.6-5-3.6-8.4
		c0.1-32.6,0.1-65.1,0-97.7c0-4.1,0.9-7.4,4.2-9.9c1.7,0,3.4,0,5.1,0C103-13.7,120.8-2,137.7,9.1c3.3-0.7,5.7-1.7,8.1-1.7
		c14.5-0.2,28.9-0.1,43.4-0.1c6,0,8.2,2.2,8.2,8.1c0.1,10.3,0,20.5,0,30.7c0,7.9-0.6,8.6-8.6,11.1c0,13.6,0,27.5,0,41.5
		c10,0,20.4,0,30.3,0c0-14.2,0-28.1,0-41.9c-7.1-1.4-8.5-2.9-8.5-9.4c0-10.5-0.1-21.1,0-31.6c0-6.5,2.1-8.5,8.6-8.5
		c12.6,0,25.3-0.2,37.9,0.1c3.8,0.1,7.6,1.2,11.4,1.7c0.9,0.1,1.9-0.2,2.7-0.7c17.3-11.2,34.5-22.5,51.7-33.8
		C324.2-25.4,325.6-25.4,327-25.4z M151.3,41.6c11.1,0,21.7,0,32.3,0c0-7.1,0-13.8,0-20.5c-11,0-21.6,0-32.3,0
		C151.3,28.1,151.3,34.7,151.3,41.6z M256.7,21.1c-10.9,0-21.6,0-32.5,0c0,7,0,13.7,0,20.5c10.9,0,21.6,0,32.7,0c0-6,0-11.7,0-17.5
		C257,23.2,256.8,22.2,256.7,21.1z"/>
	<path class="st4" d="M203.7,406.5c-14.3-0.3-28.3-2.3-42-6.5c-20.7-6.4-27.2-18.4-21.4-39.2c10.1-36.2,50.6-56.2,86.8-42.8
		c24.6,9.1,41.1,30.7,42.5,55.1c0.5,9.3-3.3,16-10.8,20.9c-9.3,6.1-19.7,8.7-30.5,10.2C220.3,405.3,212,405.8,203.7,406.5z"/>
	<path class="st4" d="M175.1,301.4c-28.7,11.3-46.3,31.9-52.9,62.2c-11,0.5-21.9-0.3-32.5-2.7c-6.5-1.5-13.1-3.3-19.2-6
		c-14-6.1-18.5-14.9-16-30c4.9-29.9,30.9-52.1,62.4-53.1c23.4-0.8,42.3,8.4,56.6,26.9C173.9,299.5,174.4,300.3,175.1,301.4z"/>
	<path class="st4" d="M285.8,363.8c-2.8-14.5-8.6-27.3-18-38.3c-9.4-11-20.9-18.9-34.9-24c6.3-9.6,14.3-16.6,23.9-21.9
		c34.7-19.4,81.5-2.3,94.1,34.6c1.9,5.5,2.6,11.5,3.4,17.3c1,8.5-2.8,15.1-9.8,19.5c-4.6,2.9-9.6,5.2-14.7,7
		C315.6,362.9,301,363.6,285.8,363.8z"/>
	<path class="st1" d="M119.5,254.7c-18.2,0.1-32.8-14.4-33-32.8c-0.2-18,14.6-32.9,32.8-33.1c18-0.2,33.1,14.8,33,32.8
		C152.3,240,137.8,254.6,119.5,254.7z M118.9,241.2c10.8,0.3,19.8-8.3,19.9-19.1c0.2-10.5-8.3-19.3-19-19.7
		c-10.4-0.4-19.5,8.1-19.8,18.8C99.7,232,108,240.8,118.9,241.2z"/>
	<path class="st1" d="M288.8,254.6c-18.3,0-33-14.5-33.1-32.7c-0.1-18,14.9-33.2,32.8-33.1c18.2,0,33,14.7,33.1,32.8
		C321.5,239.9,307,254.5,288.8,254.6z M308,221.8c0-10.6-8.5-19.3-19.1-19.4c-10.7-0.1-19.8,8.8-19.7,19.4
		c0.1,10.7,8.6,19.3,19.2,19.4C299.3,241.2,307.9,232.7,308,221.8z"/>
	<path class="st1" d="M236.9,263.9c0,18.3-14.5,32.9-32.7,33.1c-18.1,0.2-33.1-14.7-33.1-32.8c0-18.3,14.7-33.1,32.7-33.1
		C222.1,231.2,236.9,245.8,236.9,263.9z M223.4,264.1c-0.1-10.8-8.9-19.5-19.6-19.4c-10.6,0.1-19.2,8.8-19.2,19.4
		c0,10.7,8.9,19.6,19.6,19.4C214.9,283.4,223.5,274.7,223.4,264.1z"/>
	<path class="st1" d="M406.3,34.9c-0.4,18.6-6.5,35.2-19.3,49.1c-3.6,3.9-7.4,4.5-10.6,1.6c-3-2.7-2.8-6.6,0.5-10.4
		c21.8-25.3,21.3-58.1-1.4-82.6c-3.5-3.8-3.8-7.4-0.8-10.4c2.9-2.9,7.1-2.5,10.7,1.2C399.2-2.3,406,14.9,406.3,34.9z"/>
	<path class="st1" d="M1.6,36.6C1.9,15.1,8.7-2.1,22.5-16.3c1.5-1.5,3.8-3.2,5.6-3.1c2.3,0.2,5,1.8,6.4,3.6c2,2.7,0.7,5.6-1.6,7.9
		C25.7-0.8,20.5,7.4,17.8,17c-6,21.1-2,40.2,12.2,57c0.6,0.8,1.4,1.4,2,2.2c2.4,3.2,2.2,6.9-0.6,9.4c-2.8,2.5-6.5,2.4-9.4-0.6
		C11.6,74.4,5.2,61.7,2.7,47C2,43.1,1.9,39,1.6,36.6z"/>
	<path class="st1" d="M39.5,34.6c0-9.9,3.5-18.3,10.5-25.4c3.3-3.4,7-3.6,10-0.8c3.1,2.9,3,6.4-0.1,10c-8.8,10-9.2,20.6-1.3,31.3
		c2.8,3.8,2.5,7.4-0.9,9.9c-3.3,2.5-6.6,2-9.6-1.6C42.4,51.4,39.4,43.6,39.5,34.6z"/>
	<path class="st1" d="M368.5,33.9c0.1,9.1-2.9,17.1-8.8,24c-3.2,3.7-7.1,4.3-10.3,1.7c-3.1-2.5-3.1-6.6-0.1-10.4
		c8-9.8,7.8-21.2-0.4-30.6c-3.3-3.8-3.5-7.7-0.6-10.4c3-2.7,7-2.2,10.4,1.3C365,16.1,368.4,24.4,368.5,33.9z"/>
</g>
<g>
	<path class="st5" d="M58.8,288c-5.5-19.4-10.7-37.5-15.6-55.6c-0.3-1.1,1.7-3.7,3.1-4.3c19.9-7.2,39.8-14.6,60-21
		c10.2-3.2,20.2,0.5,29.8,4.5c18.7,7.8,38,14.4,58.3,15.2c12.7,0.5,25.5-1.8,38.2-2.2c4.8-0.2,12.7-0.2,13.8,2.2
		c3,6.2-2.9,11.4-8,13.2c-14.1,4.8-28.6,8.3-42.9,12.3c-0.5,0.1-1.1,0-1.6,0.2c-3.6,1.5-7.3,3-10.9,4.5c3.3,2.5,6.5,6.9,10.1,7.2
		c8.4,0.8,17.4,1.1,25.5-0.8c33.3-7.8,65.3-19.2,94.4-37.8c8-5.1,16.8-5.2,20.4-0.9c4.1,5,1.7,13.9-5.9,20.7
		c-46.6,41.7-100.4,64.1-163.7,60.3c-25.3-1.5-50-7-72.8-18.2C80.3,282.4,70.2,277.7,58.8,288z"/>
	<path class="st6" d="M206.1,112c-0.5,3-0.4,6.4-1.8,9c-1.1,2.1-4,4.8-5.9,4.6c-2-0.1-5.6-3.4-5.5-5.1c0.6-15.7,1.4-31.5,3.3-47.1
		c0.7-6.1,19.9-13.9,26.1-13.1c6.3,0.8,12.9-0.2,19.3,0c3.4,0.1,7.1,0.1,10.1,1.4c12.8,5.2,18.5,14.6,17.3,28.9
		c-0.7,8.3,0.9,16.7,1.7,25.1c0.5,4.8,0.6,9.6-5.4,10.2c-5.6,0.6-6.6-3.9-6.8-8.5c0-1.4-0.6-2.9-2.1-4.2c0,11.1,0,22.2,0,33.3
		c0,17.1,0,34.1,0,51.2c0,1.8,0,3.7,0,5.5c-0.3,9-4.6,14.7-11.1,14.5c-6.1-0.2-10.3-5.6-10.5-14.2c-0.2-12.1,0.2-24.2-0.2-36.2
		c-0.1-3.6-2.1-7.1-3.3-10.6c-0.8,3.5-2.2,7.1-2.3,10.6c-0.3,10.8-0.1,21.5-0.1,32.3c0,2.9-0.2,5.8-0.9,8.6
		c-1.2,5.2-3.9,9.3-9.9,9.5c-6.5,0.2-9.3-4.3-10.7-9.6c-0.7-2.7-0.7-5.7-0.7-8.6c0-29.1,0-58.3,0-87.4
		C206.7,112,206.4,112,206.1,112z"/>
	<path class="st6" d="M145.9,96.2c-2.3,5.3-0.1,13.2-8.5,12.5c-8.9-0.7-5.6-8.4-5.3-13.7c0.6-10.7,1.8-21.5,2.1-32.2
		c0.1-5.3,1.8-9,6.5-11.5c3.7-2,6.9-5.1,10.7-6.6c3-1.2,6.6-0.8,10-0.9c6.2,0,12.4,0,18.6,0.2c3.8,0.1,7.6,0.4,11.4,1.1
		c1.7,0.3,3.1,1.9,4.6,2.9c13.6,8.8,13.4,8.6,1,18.8c-2.6,2.1-4.8,5.9-5.1,9.1c-1.5,13.6-2.3,27.2-3,40.8c-0.1,2.9,0.3,7.3,2.2,8.7
		c5.4,4,5,9.1,4.9,14.6c-0.1,13.7,0,27.3,0,41c0,1.6,0.1,3.2,0,4.7c-0.4,9.2-4.5,14.9-10.7,15.1c-6.6,0.2-11.2-5.9-11.3-15.2
		c-0.1-13.1,0.1-26.3-0.2-39.4c0-2.1-1.8-4.2-2.7-6.2c-1,2-2.8,4.1-2.9,6.1c-0.3,12.9,0,25.7-0.2,38.6c0,3.3-0.2,7.3-2,9.8
		c-2.1,2.8-6,6-9.1,5.9c-3.1-0.1-7.2-3.3-8.8-6.3c-1.9-3.4-2-8.1-2.1-12.2c-0.2-25.5-0.1-51,0-76.5
		C145.9,102.4,145.9,99.3,145.9,96.2z"/>
	<path class="st6" d="M317.7,94.6c0,29.6,0.1,59.2-0.1,88.9c0,3.6,0,7.9-1.8,10.6c-2.1,3-6.3,6.5-9.5,6.4c-3.2-0.1-7.1-3.9-9-7.1
		c-1.7-2.9-1.6-7.1-1.7-10.7c-0.2-12.3,0-24.7-0.2-37c0-1.8-1.8-3.6-2.7-5.4c-1,1.8-2.8,3.6-2.9,5.4c-0.3,11.3-0.1,22.6-0.1,33.9
		c0,2.6,0.1,5.3-0.1,7.9c-0.5,8.6-4.8,13.9-11.1,13.7c-5.9-0.2-10-5.4-10.4-13.6c-0.1-2.6,0-5.2,0-7.9c0-13.1,0-26.3,0-39.4
		c0-5.4-0.8-10.8,4.7-14.8c1.6-1.1,2-4.8,1.9-7.2c-0.8-14.4-1.3-28.9-3.5-43.1c-0.7-4.4-6.2-8.4-10.1-11.8
		c-5.2-4.4-5.7-6.7-0.2-10.6c4.3-3.1,8.6-6.2,13.3-8.4c2.4-1.2,5.8-0.6,8.7-0.6c6.4,0,12.8,0.1,19.2,0.4c3.6,0.1,7.4-0.2,10.7,1
		c13.7,4.9,18.2,15.4,17.6,29.4c-0.4,8.6,0.9,17.3,1.5,25.9c0.3,4.2-0.1,8.2-5.5,8.7c-5.5,0.6-6.4-3.5-7-7.6
		c-0.3-2.3-0.6-4.6-0.9-6.9C318.3,94.5,318,94.6,317.7,94.6z"/>
	<path class="st5" d="M58.7,295.8c-1.4,1.2-3.1,3.5-5.4,4.3c-6.4,2.3-13.1,3.9-19.6,5.8c-5.2,1.6-7.9-0.8-9.3-5.6
		c-5.8-20.7-11.7-41.3-17.6-62c-1.5-5.3-0.7-9.1,5.9-10.3c6.2-1.2,12.2-3.1,18.1-5.1c4.5-1.5,7.3-0.1,8.5,4.1
		c6.2,21.6,12.2,43.3,18.3,65C58,292.7,58.2,293.4,58.7,295.8z"/>
	<path class="st6" d="M170.6,40.2c-10.4-0.2-18.3-8.4-18.1-18.7c0.2-10.3,8.5-18.4,18.7-18.2c10.3,0.2,18.3,8.5,18.1,18.7
		C189.1,32.4,180.9,40.3,170.6,40.2z"/>
	<path class="st6" d="M292.5,40.2c-10.3-0.1-18.1-8.2-17.9-18.7c0.1-10.4,8.4-18.4,18.6-18.2c10.1,0.2,18.3,8.8,18.2,18.8
		C311.1,32.3,302.7,40.3,292.5,40.2z"/>
	<path class="st6" d="M250.1,38.5c0.1,10.4-7.8,18.4-18.2,18.4c-10.5,0-18.5-7.9-18.5-18.3c0-10.1,8.2-18.4,18.4-18.5
		C242.2,20.1,250,28,250.1,38.5z"/>
</g>
</svg>
