<?xml version="1.0" encoding="utf-8"?>
<!-- Generator: Adobe Illustrator 23.0.0, SVG Export Plug-In . SVG Version: 6.00 Build 0)  -->
<svg version="1.1" id="Layer_1" xmlns="http://www.w3.org/2000/svg" xmlns:xlink="http://www.w3.org/1999/xlink" x="0px" y="0px"
	 viewBox="0 0 313 310.7" style="enable-background:new 0 0 313 310.7;" xml:space="preserve">
<style type="text/css">
	.st0{display:none;}
	.st1{display:inline;}
	.st2{fill:none;stroke:#000000;stroke-width:12;stroke-miterlimit:10;}
	.st3{fill:none;stroke:#000000;stroke-width:10;stroke-miterlimit:10;}
</style>
<g class="st0">
	<path class="st1" d="M226.7-81.8c-2.1,4.6-4.1,9.2-6.4,13.5c-1.7,3.2-2,6-0.5,9.4c1.6,3.6,2.7,7.4,4.3,11.8
		C168.5-56.4,119.4-43.5,77.6-6C47.9,20.6,30.2,54.2,24.2,93.7c-12,78.9,34.1,156,109.1,183.2c75.4,27.4,158.5-1.6,201.2-70.3
		c42.2-67.8,31.6-164.2-39.7-221c4.3-1.6,8.4-2.8,12.1-4.7c2-1,4.1-2.7,5.2-4.7c2.7-4.9,4.9-10.1,7.3-15.2
		c67.3,52.3,101.3,158.2,51.9,252.5c-49.1,93.7-163.9,134.4-260.5,92.4C11.5,262.6-37.3,151.9-1.1,50.4
		C34.7-50.2,137-99.4,226.7-81.8z"/>
	<path class="st1" d="M269.4-5.4c59.4,35.6,88.2,116.3,54.2,187.4c-34.9,72.9-120.9,103.6-194.5,69.9C57.1,219,24.1,132.7,56,60
		C89.2-15.4,170.2-42.3,233-22c-5.1,10.8-10,21.7-15.3,32.3c-0.4,0.9-3.2,1.3-4.6,1C154.9-0.5,98.6,35.2,84.5,93.2
		c-15.3,62.6,28.5,126,92.4,133.8c61.2,7.5,116.3-35.2,122.8-96.2c4.3-40.3-10.4-73.4-42.1-98.8c-3.2-2.6-3.8-4.3-1.9-8.1
		C260.4,14.3,264.7,4.6,269.4-5.4z"/>
	<path class="st1" d="M244.1,48.7c34.8,24.2,45.1,75.4,23.1,113.2c-23.1,39.8-71.7,55.5-112.9,36.4c-41.7-19.3-61.8-67.1-46-109.8
		c16.5-44.7,62.4-64.4,99.3-56c-4.6,9.9-9,19.7-13.9,29.3c-0.6,1.2-3.4,1.6-5.2,1.7c-24.7,1.2-45,17.8-51.1,41.9
		c-7.6,29.9,11.7,60.3,42.3,66.9c29.9,6.4,60.2-14.2,65.2-44.3c2.9-17.3-1.5-32.6-12.9-46c-1-1.1-1.9-3.4-1.4-4.5
		C235,68,239.6,58.5,244.1,48.7z"/>
	<path class="st1" d="M79.1,314.3c7.8,3.9,15.1,7.5,22.7,11.3c-0.7,1.3-1.2,2.6-1.9,3.9c-12,20.5-24.1,41-35.9,61.6
		c-2.3,4.1-5.3,5.9-10.1,5.7c-7.3-0.3-14.6-0.1-23-0.1C47.2,369,63,341.8,79.1,314.3z"/>
	<path class="st1" d="M302.4,314.5c16,27.4,31.8,54.4,48,82.2c-9.3,0-17.7,0.2-26.1-0.2c-1.9-0.1-4.5-1.9-5.5-3.6
		c-13.2-22.1-26.1-44.4-39.4-66.9C287.1,322.2,294.5,318.5,302.4,314.5z"/>
	<path class="st1" d="M182.3,86.7c-3.9,8.4-7.8,16.2-11.1,24.1c-3.7,8.9-0.6,18.6,7.1,23.9c7.6,5.3,18,4.6,24.8-2.1
		c2.3-2.3,4.1-5.3,5.5-8.2c3.7-7.4,7.1-15,10.6-22.7c7.4,9.4,6.7,25.6-1.5,36.5c-9.1,12.1-24.7,16.8-38.8,11.4
		c-14.2-5.4-22.9-19.6-21.3-34.8C159.1,101.2,169.6,88.9,182.3,86.7z"/>
	<path class="st1" d="M282.6-33.8c5.3-11.3,10.4-22.3,15.5-33.3c1.5-3.3,3.1-6.6,4.7-9.9c4.6-9.8,4.6-9.8,16-12.5
		c-0.6,1.6-1,2.9-1.6,4.1c-6,12.8-12.4,25.4-17.7,38.5C296.4-39.2,291.8-34.6,282.6-33.8z"/>
</g>
<g>
	<path class="st2" d="M69.6,290.6c-0.7,1.1-1.1,1.9-1.7,2.8c-5.5,8.2-13.3,11.5-22.9,10.2c-7.8-1.1-14.2-9.2-14.3-17.8
		c0-30.9,0-61.8,0-92.7c0-1.3,0-2.7,0-4.5c-3.9,0-7.7,0-11.3,0c-8.2,0-12.6-4.2-12.6-12.3c-0.1-24.4-0.1-48.7,0-73.1
		c0-11.4,7.8-19.1,19.6-19.7c4.9-0.3,9.7-0.2,14.5,0c1.1,0,2.5,1,3.3,1.9c5.4,6.6,11,12.7,18.3,17.3c2.7,1.7,5,1.8,7.8,0.3
		c8.1-4.2,14.9-9.8,19.7-17.7c0.6-1,2.2-1.9,3.3-1.9c30.7-0.1,61.3-0.1,92-0.1c5.3,0,8.7,2.3,10.3,7.2c2.2,6.6,2.2,13.3,0.5,19.9
		c-1.4,5.4-4.4,7.2-10,7.2c-25.8-0.1-51.7-0.2-77.5-0.2c-0.4,0-0.9,0.1-1.8,0.2c0,1.3,0,2.6,0,3.9c0,54,0,107.9,0,162
		c0,10.3-5.8,17.9-14.7,19.2c-8.7,1.2-15.8-1.5-20.7-9.1C70.9,292.7,70.2,291.8,69.6,290.6z"/>
	<path d="M124,51.9c0-8.5,0-16.5,0-25c7.8,0,15.7,0,23.4,0c7.7,0,15.4,0,23.3,0c0.2-1.2,0.3-2.2,0.4-3.3c0.8-7.1,4.3-12.2,11-14.4
		c9.4-3.2,18.8-3.3,28.2-0.1c7.2,2.5,10.5,7.5,10.6,15.1c0,0.8,0.1,1.4,0.1,2.6c1.2,0,2.5,0,3.7,0c21.6,0,43.2-0.1,64.9,0.1
		c15.4,0.2,23.3,8.5,23.3,24c0,54.7,0,109.5,0,164.2c0,2.8,0.1,5.5-0.1,8.2c-0.7,13.3-8.4,20.7-21.7,20.7c-29.9,0-59.7,0-89.6,0
		c-24.6,0-49.2,0-73.7,0c-1.2,0-2.5,0-3.9,0c0-7.8,0-15.3,0-23.3c1.4,0,2.8,0,4.1,0c47.3,0,94.4,0,141.7,0c2.1,0,4.2-0.2,6.3-0.6
		c7.6-1.4,11.8-5.9,13-13.5c0.2-1.4,0.3-3,0.3-4.4c0-43.3,0-86.7,0-130c0-6.8-1.2-13.4-7.7-17c-3.3-1.9-7.7-3.3-11.6-3.3
		c-47.4-0.2-94.7-0.2-142-0.2C127,51.9,125.6,51.9,124,51.9z"/>
	<path class="st3" d="M35.3,39.5C35.1,22,49.7,7.1,66.9,7C85,6.9,100,21.3,100.1,38.9c0.1,17.6-14.3,32.1-31.3,32.8
		C52.2,72.5,35,58.3,35.3,39.5z"/>
	<path d="M252.1,304.1c-6.6,0-12.7,0.1-18.9-0.1c-1,0-1.9-1.1-2.7-1.9c-10.5-11.3-21-22.5-31.4-33.8c-0.8-0.9-1.4-1.7-2.3-2.8
		c-10.6,11.8-21,23.1-31.2,34.5c-1.4,1.6-2.9,2.4-5.2,2.3c-5.4-0.2-10.7-0.1-16.6-0.1c0.8-1.1,1.2-1.7,1.7-2.4
		c13.4-15.5,26.9-31.1,40.4-46.6c0.8-0.9,2.2-1.6,3.4-1.6c4.8-0.2,9.5-0.2,14.3,0c1.1,0,2.3,0.5,3,1.2c15,16.6,29.9,33.2,44.9,49.8
		C251.5,303,251.6,303.3,252.1,304.1z"/>
</g>
<g class="st0">
	<path class="st1" d="M67,255c-6.1-8.5-11.7-16.6-17.7-24.3c-1.1-1.4-4.7-2.1-6.7-1.6c-8,2.2-15.9,5.1-23.8,7.6
		c-9.8,3.1-14.1,1-17.4-8.7c-4.6-13.7-9.1-27.4-13.5-41.2c-2.4-7.5,0.2-12.9,7.9-15.5c7.2-2.5,14.4-5,21.7-6.8
		c5.9-1.5,7.9-4.2,7.6-10.6C22.3,109.2,34.6,69,64.3,35.5c44.5-50.2,100.8-68.7,165.6-52.7c64.5,16,105.2,58.8,121.1,123.5
		c3.9,15.9,3,33.1,3.8,49.7c0.2,4.4,1.1,6.5,5.5,7.7c7.8,2.1,15.4,4.8,23.1,7.4c8.7,3,11.1,7.8,8.4,16.4c-4.4,14-8.9,28-13.5,42
		c-2.4,7.2-7.5,9.9-15,7.8c-8.5-2.5-16.9-5.1-25.2-8.1c-3.9-1.4-6.1-1.1-8.5,2.6c-4.1,6.4-8.6,12.6-13.6,18.3
		c-3.1,3.6-2.8,5.9,0,9.4c5.1,6.3,9.6,13,14.4,19.6c5.9,8.2,5.2,13.5-2.8,19.3c-11.5,8.4-23,16.8-34.5,25.1
		c-7.3,5.2-12.9,4.3-18.3-3c-5.3-7.1-10.2-14.5-15.6-21.4c-1.3-1.6-4.6-3.1-6.3-2.6c-9.4,2.8-18.5,6.2-28.3,9.6
		c0,9.9,0.1,20.2,0,30.5c-0.1,9.4-3.5,13.1-12.8,13.3c-14.5,0.2-29,0.2-43.5,0c-9.3-0.2-12.8-3.9-12.9-13.2
		c-0.1-8.6-0.2-17.2,0.1-25.8c0.1-4-1.1-6.1-5.3-7.2c-7.3-1.8-14.6-4.1-21.7-6.9c-3.7-1.5-5.7-1-7.9,2.2c-5.1,7.5-10.5,14.8-16,22
		c-5,6.6-10.4,7.6-17.1,2.8C75.1,315.1,63,306.3,51,297.4c-6.4-4.8-7.2-10.5-2.4-17.2C54.7,271.6,61,263.2,67,255z M344.8,157.9
		c2.6-64.2-20.8-114.7-74.9-147.1c-56.6-34-114.7-31.8-169,5.8C52.7,50.1,32.2,98.3,35.3,157.8c13.8,0,26.7,0,39.6,0
		c13.2,0,26.4,0,39.5,0c0.6,1.6,1.2,2.8,1.5,3.9c8.5,33.5,35.8,56.9,68.8,59c34.1,2.1,64.5-17.7,76.9-50.3
		c4.9-12.8,4.9-12.7,18.9-12.6C301.6,158,322.6,157.9,344.8,157.9z"/>
	<path class="st1" d="M256.5,86.4c-4.9,7.8-9.1,16.2-14.8,23.2c-12.7,15.5-25.8,30.8-39.7,45.3c-4.2,4.4-11.1,7.2-17.2,8.5
		c-7.8,1.6-12.9-4.4-10.6-12.1c1.5-5.2,4.2-10.8,7.9-14.6c19.6-19.8,41.3-36.8,66-49.8c2-1.1,4.3-1.7,6.5-2.5
		C255.3,85,255.9,85.7,256.5,86.4z"/>
	<path class="st1" d="M301.4,63.6c-6.3,3.8-11.3,6.7-14.5,8.6c-8.7-8.7-17-17-26.1-26.1c1.6-2.7,4.5-7.8,8.3-14.6
		C280.2,42.5,290.5,52.8,301.4,63.6z"/>
	<path class="st1" d="M325.9,129.7c-8.1,0-13.4,0-18.6,0c-3.1-11.3-6.1-22.3-9.4-34c4.5-2.7,9.6-5.7,16.3-9.7
		C318.2,100.6,321.9,114.5,325.9,129.7z"/>
	<path class="st1" d="M194.7,29.3c-3.4,0-6.2,0-9.6,0c0-8.4,0-16.6,0-25.2c3.2,0,6.1,0,9.6,0C194.7,12.6,194.7,20.7,194.7,29.3z"/>
	<path class="st1" d="M94.6,82c-2,3.4-3.6,6-5.4,8.9c-7.7-4.5-15.1-8.7-22.7-13.2c1.9-3.2,3.5-5.8,5.3-8.9
		C79.4,73.2,86.6,77.3,94.6,82z"/>
	<path class="st1" d="M313.5,77.7c-8.1,4.7-15.3,8.8-22.8,13.2c-1.7-2.8-3.3-5.4-5.4-8.8c7.6-4.4,14.8-8.6,22.6-13.2
		C309.7,71.7,311.4,74.3,313.5,77.7z"/>
	<path class="st1" d="M128.9,47.7c-4.6-7.9-8.7-15.1-13.2-22.8c3.1-1.8,5.7-3.3,8.9-5.2c4.4,7.6,8.6,14.7,13.2,22.5
		C134.8,44,132.2,45.6,128.9,47.7z"/>
	<path class="st1" d="M242.1,42.1c4.7-8.1,8.8-15,13.1-22.4c3.1,1.7,5.7,3.2,9,5.1c-4.4,7.7-8.6,15-13.2,22.9
		C247.9,45.8,245.2,44.1,242.1,42.1z"/>
	<path class="st1" d="M50.7,138.4c8.6,0,16.8,0,25.4,0c0.2,3.2,0.3,6,0.5,9.4c-8.8,0-17.1,0-25.9,0C50.7,144.8,50.7,142,50.7,138.4z
		"/>
	<path class="st1" d="M303.9,147.7c0-3.7,0-6.3,0-9.3c8.4,0,16.6,0,25.2,0c0,3.2,0,6,0,9.3C320.9,147.7,312.7,147.7,303.9,147.7z"/>
</g>
<g class="st0">
	<path class="st1" d="M394.8,72c0,80.2,0,160.4,0,240.6c-6.9,16.1-13,20.1-30.8,20.1c-23.6,0-47.2,0.1-70.8,0
		c-14.8,0-25.7-11.1-25.7-25.9c0-15,0-29.9,0-44.9c0-1.8,0-3.6,0-5.5c-29.9,0-59,0-88.8,0c8.4,17,16.7,33.5,25,50.4
		c-34.4,0-67.7,0-101.8,0c8.5-17,16.7-33.5,25.2-50.6c-2.8,0-4.8,0-6.9,0c-35.3,0-70.7,0-106,0c-16.5,0-27.2-10.7-27.2-27
		c0-67.1,0-134.2,0-201.3C-13,12.1-2.3,1.3,13.5,1.3c92.9,0,185.9,0,278.8,0c15.6,0,26.1,10.6,26.1,26.3c0,8.1,0,16.2,0,24.7
		c2.5,0,4.3,0,6.2,0c15.1,0,30.2,0,45.4,0c7.2,0,13.5,2.5,18,8C390.8,63.7,392.5,68,394.8,72z M267.4,204.9c0-2.3,0-4.3,0-6.3
		c0-40.3,0-80.5,0-120.7c0-12.1,7.9-22.3,19.3-25c1.9-0.5,3.9-0.7,5.9-1c0-8.4,0-16.5,0-24.7c-93.4,0-186.5,0-279.9,0
		c0,59.4,0,118.4,0,177.8C97.6,204.9,182.3,204.9,267.4,204.9z M369.2,78.2c-25.7,0-50.9,0-76,0c0,8.5,0,16.6,0,24.6
		c25.5,0,50.7,0,76,0C369.2,94.4,369.2,86.5,369.2,78.2z M293.1,153.9c25.6,0,50.8,0,76,0c0-8.5,0-16.6,0-24.7c-25.5,0-50.6,0-76,0
		C293.1,137.4,293.1,145.4,293.1,153.9z M331.1,230.8c-7.1,0-12.6,5.6-12.6,12.5s5.7,12.5,12.7,12.5s12.6-5.6,12.5-12.6
		C343.7,236.3,338.2,230.8,331.1,230.8z M331.1,306.9c7,0,12.6-5.5,12.6-12.5s-5.5-12.5-12.5-12.5c-7.1,0-12.6,5.5-12.7,12.5
		C318.5,301.2,324.1,306.8,331.1,306.9z"/>
</g>
</svg>
