<?xml version="1.0" encoding="utf-8"?>
<!-- Generator: Adobe Illustrator 23.0.0, SVG Export Plug-In . SVG Version: 6.00 Build 0)  -->
<svg version="1.1" id="Layer_1" xmlns="http://www.w3.org/2000/svg" xmlns:xlink="http://www.w3.org/1999/xlink" x="0px" y="0px"
	 viewBox="0 0 284.6 310.7" style="enable-background:new 0 0 284.6 310.7;" xml:space="preserve">
<style type="text/css">
	.st0{display:none;}
	.st1{display:inline;}
	.st2{display:inline;fill:none;stroke:#000000;stroke-width:12;stroke-miterlimit:10;}
	.st3{display:inline;fill:none;stroke:#000000;stroke-width:10;stroke-miterlimit:10;}
	.st4{display:inline;fill:none;stroke:#000000;stroke-width:7;stroke-miterlimit:10;}
	.st5{display:inline;fill:none;stroke:#000000;stroke-width:5;stroke-miterlimit:10;}
</style>
<g class="st0">
	<path class="st1" d="M230.2-38.8c-2.1,4.6-4.1,9.2-6.4,13.5c-1.7,3.2-2,6-0.5,9.4c1.6,3.6,2.7,7.4,4.3,11.8
		C172.1-13.4,122.9-0.5,81.2,37c-29.7,26.6-47.4,60.3-53.4,99.7c-12,78.9,34.1,156,109.2,183.2c75.4,27.4,158.5-1.6,201.2-70.3
		c42.2-67.8,31.6-164.2-39.7-221c4.3-1.6,8.4-2.8,12.1-4.7c2-1,4.1-2.7,5.2-4.7c2.7-4.9,4.9-10.1,7.3-15.2
		c67.3,52.4,101.3,158.2,51.9,252.5c-49.1,93.7-163.9,134.4-260.5,92.4C15.1,305.6-33.7,194.9,2.5,93.4
		C38.3-7.2,140.5-56.4,230.2-38.8z"/>
	<path class="st1" d="M272.9,37.6c59.4,35.6,88.2,116.3,54.2,187.4c-34.9,72.9-120.9,103.6-194.5,69.9c-72-32.9-105-119.2-73-191.9
		C92.8,27.6,173.9,0.7,236.7,21c-5.1,10.8-10,21.7-15.3,32.3c-0.4,0.9-3.2,1.3-4.6,1C158.5,42.5,102.2,78.2,88,136.1
		c-15.3,62.6,28.5,126,92.4,133.8c61.2,7.5,116.3-35.2,122.8-96.2c4.3-40.3-10.4-73.4-42.1-98.8c-3.2-2.6-3.8-4.3-1.9-8.1
		C264,57.3,268.3,47.6,272.9,37.6z"/>
	<path class="st1" d="M247.7,91.7c34.8,24.2,45.1,75.4,23.1,113.2c-23.1,39.8-71.7,55.5-112.9,36.4c-41.7-19.3-61.8-67.1-46-109.8
		c16.5-44.7,62.4-64.4,99.3-56c-4.6,9.9-9,19.7-13.9,29.3c-0.6,1.2-3.4,1.6-5.2,1.7c-24.7,1.2-45,17.8-51.1,41.9
		c-7.6,29.9,11.7,60.3,42.3,66.9c29.9,6.4,60.2-14.2,65.2-44.3c2.9-17.4-1.5-32.6-12.9-46c-1-1.1-1.9-3.4-1.4-4.5
		C238.6,111,243.1,101.5,247.7,91.7z"/>
	<path class="st1" d="M185.9,129.7c-3.9,8.4-7.8,16.2-11.1,24.1c-3.7,8.9-0.6,18.6,7.1,23.9c7.6,5.3,18,4.6,24.8-2.1
		c2.3-2.3,4.1-5.3,5.5-8.2c3.7-7.4,7.1-15,10.6-22.7c7.4,9.4,6.7,25.6-1.5,36.6c-9.1,12.1-24.7,16.8-38.8,11.4
		c-14.2-5.4-22.9-19.6-21.3-34.8C162.7,144.2,173.1,131.9,185.9,129.7z"/>
	<path class="st1" d="M269.3-71.2c4.9,7.3,4.7,13.6,0.9,20.9c-7.2,13.8-13.4,28.2-20.3,42.9c-3.2-6.5-5.7-11.9-1.9-19
		c6.9-12.9,12.5-26.4,18.7-39.7C267.5-67.7,268.3-69.3,269.3-71.2z"/>
	<path class="st1" d="M286.2,9.2c5.3-11.3,10.4-22.3,15.5-33.3c1.5-3.3,3.1-6.6,4.7-9.9c4.6-9.8,4.6-9.8,16-12.5
		c-0.6,1.6-1,2.9-1.6,4.1c-6,12.8-12.4,25.4-17.7,38.5C300,3.8,295.4,8.4,286.2,9.2z"/>
</g>
<g class="st0">
	<path class="st2" d="M79.2,375.3c-0.9,1.4-1.6,2.5-2.3,3.6c-7.2,10.7-17.4,15-30,13.4c-10.2-1.3-18.6-12.1-18.6-23.3
		c0-40.5,0-80.9,0-121.4c0-1.8,0-3.5,0-5.9c-5.2,0-10,0-14.8,0C2.8,241.8-3,236.3-3,225.6c-0.1-31.9-0.1-63.8,0-95.7
		c0.1-14.9,10.2-25,25.7-25.8c6.3-0.3,12.7-0.3,19,0c1.5,0.1,3.3,1.3,4.2,2.5c7,8.6,14.4,16.7,23.9,22.7c3.6,2.2,6.5,2.3,10.3,0.4
		c10.7-5.5,19.6-12.8,25.9-23.1c0.8-1.3,2.9-2.5,4.4-2.5c40.2-0.1,80.4-0.1,120.6-0.1c6.9,0,11.4,3.1,13.5,9.4
		c2.9,8.6,2.9,17.4,0.6,26.1c-1.9,7-5.8,9.4-13.1,9.4c-33.8-0.1-67.7-0.2-101.5-0.3c-0.5,0-1.1,0.1-2.4,0.2c0,1.7,0,3.4,0,5.1
		c0,70.7,0,141.5,0,212.2c0,13.5-7.6,23.4-19.3,25.1c-11.5,1.7-20.7-2-27.1-11.9C81,378.1,80.2,376.8,79.2,375.3z"/>
	<path class="st1" d="M150.7,62.5c0-11.1,0-21.6,0-32.7c10.3,0,20.5,0,30.7,0c10.1,0,20.1,0,30.5,0c0.2-1.6,0.4-2.9,0.5-4.2
		c1-9.2,5.6-15.9,14.5-18.9c12.3-4.2,24.7-4.3,37-0.1c9.5,3.2,13.7,9.8,13.9,19.8c0,1,0.1,1.9,0.2,3.4c1.7,0,3.3,0,4.9,0
		c28.3,0,56.6-0.1,85,0.1c20.2,0.2,30.6,11.1,30.6,31.5c0,71.7,0,143.4,0,215.1c0,3.6,0.1,7.2-0.1,10.8c-0.9,17.4-11,27.1-28.4,27.1
		c-39.1,0-78.2,0-117.3,0c-32.2,0-64.4,0-96.6,0c-1.6,0-3.3,0-5.2,0c0-10.2,0-20.1,0-30.5c1.9,0,3.7,0,5.4,0c61.9,0,123.8,0,185.7,0
		c2.7,0,5.5-0.2,8.2-0.7c9.9-1.9,15.5-7.8,17-17.7c0.3-1.9,0.4-3.9,0.4-5.8c0-56.8,0-113.6,0-170.3c0-8.8-1.7-17.5-10-22.3
		c-4.5-2.6-10-4.4-15.1-4.4c-62-0.3-124.1-0.2-186.1-0.2C154.6,62.5,152.8,62.5,150.7,62.5z"/>
	<path class="st3" d="M34.4,46.3C34.2,23.4,53.1,3.9,75.7,3.7c23.8-0.2,43.3,18.6,43.5,41.8c0.1,23.1-18.7,42.1-41.1,43
		C56.6,89.5,34.1,71,34.4,46.3z"/>
</g>
<g class="st0">
	<path class="st4" d="M72.9,296.2c-6-8.4-11.4-16.3-17.4-23.8c-1.1-1.4-4.6-2.1-6.5-1.5c-7.9,2.2-15.6,5-23.4,7.4
		c-9.6,3-13.9,1-17.1-8.5C4,256.3-0.3,242.8-4.7,229.4C-7,222-4.4,216.7,3,214.2c7-2.4,14.1-4.9,21.3-6.7c5.8-1.5,7.8-4.1,7.4-10.4
		c-2.7-43.8,9.4-83.2,38.6-116.1c43.6-49.2,98.9-67.4,162.4-51.6C296,45,335.9,87,351.5,150.4c3.8,15.6,3,32.4,3.7,48.7
		c0.2,4.3,1.1,6.4,5.4,7.6c7.6,2.1,15.1,4.7,22.6,7.2c8.5,2.9,10.9,7.6,8.3,16.1c-4.4,13.7-8.8,27.5-13.3,41.2
		c-2.3,7.1-7.4,9.8-14.7,7.6c-8.3-2.4-16.6-5-24.7-7.9c-3.8-1.4-6-1.1-8.3,2.5c-4,6.3-8.5,12.3-13.3,18c-3,3.5-2.8,5.8,0,9.2
		c5,6.2,9.5,12.8,14.1,19.2c5.8,8.1,5.1,13.2-2.7,18.9c-11.3,8.3-22.5,16.5-33.9,24.6c-7.2,5.1-12.6,4.2-17.9-3
		c-5.2-7-10-14.2-15.4-21c-1.3-1.6-4.5-3-6.2-2.5c-9.2,2.7-18.1,6.1-27.8,9.4c0,9.7,0.1,19.8,0,29.9c-0.1,9.3-3.5,12.9-12.6,13
		c-14.2,0.2-28.4,0.2-42.6,0c-9.2-0.2-12.5-3.8-12.6-13c-0.1-8.4-0.2-16.9,0.1-25.3c0.1-4-1-6-5.2-7c-7.2-1.8-14.3-4-21.2-6.8
		c-3.6-1.4-5.6-1-7.8,2.1c-5.1,7.3-10.3,14.5-15.7,21.6c-4.9,6.5-10.2,7.4-16.8,2.8c-12-8.5-23.8-17.1-35.6-25.9
		c-6.3-4.7-7-10.3-2.4-16.9C60.9,312.5,67,304.2,72.9,296.2z M345.4,201c2.6-63-20.4-112.5-73.5-144.3
		c-55.5-33.2-112.4-31.1-165.6,5.8c-47.3,32.9-67.5,80.1-64.4,138.4c13.5,0,26.2,0,38.8,0c12.9,0,25.9,0,38.8,0
		c0.6,1.6,1.2,2.7,1.5,3.9c8.4,32.9,35.1,55.8,67.5,57.9c33.5,2.1,63.3-17.3,75.5-49.3c4.8-12.5,4.8-12.4,18.6-12.3
		C303,201.1,323.6,201,345.4,201z"/>
	<path class="st1" d="M258.8,130.9c-4.8,7.6-8.9,15.9-14.6,22.8c-12.5,15.2-25.3,30.2-38.9,44.4c-4.1,4.3-10.9,7-16.9,8.3
		c-7.6,1.6-12.6-4.3-10.4-11.9c1.5-5.1,4.1-10.6,7.8-14.3c19.2-19.4,40.5-36.1,64.8-48.9c2-1.1,4.2-1.6,6.3-2.4
		C257.6,129.5,258.2,130.2,258.8,130.9z"/>
	<path class="st1" d="M302.8,108.5c-6.2,3.7-11.1,6.6-14.2,8.4c-8.5-8.5-16.6-16.7-25.6-25.6c1.5-2.7,4.4-7.6,8.2-14.3
		C282,87.8,292.1,97.9,302.8,108.5z"/>
	<path class="st1" d="M198.2,74.9c-3.3,0-6.1,0-9.4,0c0-8.3,0-16.3,0-24.8c3.1,0,6,0,9.4,0C198.2,58.5,198.2,66.5,198.2,74.9z"/>
	<path class="st1" d="M100,126.5c-2,3.3-3.6,5.9-5.3,8.8c-7.6-4.4-14.8-8.6-22.3-12.9c1.9-3.1,3.4-5.7,5.2-8.7
		C85.1,118,92.1,122,100,126.5z"/>
	<path class="st1" d="M314.7,122.3c-7.9,4.6-15,8.6-22.4,12.9c-1.7-2.7-3.3-5.3-5.3-8.7c7.4-4.3,14.5-8.5,22.2-12.9
		C311,116.5,312.6,119,314.7,122.3z"/>
	<path class="st1" d="M133.6,92.9c-4.5-7.8-8.5-14.8-13-22.4c3-1.8,5.6-3.3,8.8-5.1c4.4,7.4,8.4,14.4,12.9,22
		C139.4,89.3,136.9,90.9,133.6,92.9z"/>
	<path class="st1" d="M244.7,87.5c4.7-7.9,8.6-14.7,12.9-22c3,1.7,5.6,3.2,8.8,5c-4.4,7.6-8.5,14.7-12.9,22.5
		C250.4,91,247.7,89.4,244.7,87.5z"/>
	<path class="st1" d="M57,181.9c8.5,0,16.5,0,24.9,0c0.2,3.1,0.3,5.9,0.5,9.2c-8.6,0-16.8,0-25.4,0C57,188.1,57,185.4,57,181.9z"/>
</g>
<g class="st0">
	<path class="st4" d="M393.3,117.3c0,78.2,0,156.4,0,234.6c-6.7,15.7-12.7,19.6-30,19.6c-23,0-46,0.1-69.1,0
		c-14.4,0-25-10.8-25.1-25.2c0-14.6,0-29.2,0-43.7c0-1.8,0-3.5,0-5.3c-29.1,0-57.6,0-86.6,0c8.2,16.6,16.3,32.7,24.4,49.1
		c-33.5,0-66.1,0-99.2,0c8.3-16.6,16.2-32.6,24.6-49.4c-2.8,0-4.7,0-6.7,0c-34.5,0-68.9,0-103.4,0c-16.1,0-26.6-10.4-26.6-26.3
		c0-65.4,0-130.9,0-196.3c0-15.4,10.4-25.9,25.8-25.9c90.6,0,181.2,0,271.9,0c15.3,0,25.5,10.3,25.5,25.6c0,7.9,0,15.8,0,24.1
		c2.4,0,4.2,0,6,0c14.7,0,29.5,0,44.2,0c7,0,13.1,2.4,17.6,7.8C389.4,109.3,391.1,113.5,393.3,117.3z M269.1,246.9
		c0-2.2,0-4.2,0-6.1c0-39.3,0-78.5,0-117.7c0-11.8,7.7-21.8,18.8-24.4c1.9-0.4,3.8-0.7,5.8-1c0-8.2,0-16.1,0-24.1
		c-91.1,0-181.9,0-272.9,0c0,57.9,0,115.4,0,173.3C103.5,246.9,186.1,246.9,269.1,246.9z M368.3,123.4c-25,0-49.6,0-74.1,0
		c0,8.3,0,16.1,0,24c24.9,0,49.4,0,74.1,0C368.3,139.2,368.3,131.5,368.3,123.4z M294.1,197.2c25,0,49.5,0,74.1,0
		c0-8.3,0-16.1,0-24.1c-24.8,0-49.4,0-74.1,0C294.1,181.2,294.1,188.9,294.1,197.2z M331.2,272.3c-6.9,0-12.3,5.4-12.3,12.2
		c0,6.8,5.5,12.2,12.4,12.2s12.3-5.5,12.2-12.3C343.5,277.6,338.1,272.2,331.2,272.3z M331.2,346.4c6.8,0,12.3-5.4,12.3-12.2
		c0-6.8-5.4-12.2-12.2-12.2c-6.9,0-12.3,5.3-12.4,12.1C318.9,340.8,324.4,346.3,331.2,346.4z"/>
</g>
<g class="st0">
	<path class="st4" d="M317.6-54.6c3.8,2,4.9,5.2,4.9,9.4c-0.1,32.6,0,65.1,0,97.7c0,3.4-0.1,6.9-3.6,8.8c-3.5,1.9-6.4,0.2-9.3-1.8
		c-16-10.5-31.9-20.9-48-31.2c-1.9-1.2-4.6-1.4-7.8-2.3c0,6.3,0,11.3,0,16.3c0,6.9,0.2,13.8-0.1,20.6c-0.4,10.9-8.8,19.3-19.7,19.7
		c-10,0.3-19.9,0.2-29.9,0.3c-1.5,0-3,0-4.8,0c0,11.8,0,23.1,0,34.9c1.6,0.1,3.2,0.2,4.8,0.2c22.7,0,45.5,0,68.2,0
		c7.2,0,9.1,2.1,9.2,9.3c0,4.2,0.1,8.4,0,12.6c-0.1,4.4-2.7,7.2-6.5,7.3c-3.9,0.1-6.7-2.8-7-7.3c-0.1-1.4,0-2.8,0-4.2
		c0-1.2,0-2.5,0-4c-23,0-45.7,0-68.8,0c-0.1,1.7-0.2,3.3-0.2,4.9c0,14,0,28.1,0,42.1c0,5.4-2.3,8.4-6.5,8.6
		c-4.3,0.1-6.9-3.2-6.9-8.7c0-14,0-28.1,0-42.1c0-1.5,0-3,0-4.8c-23.6,0-46.9,0-70.8,0c0,2.4,0.1,4.7,0,7c-0.2,4.1-2.7,6.9-6.3,7
		c-3.8,0.1-6.9-2.6-7.1-6.8c-0.2-4.2-0.1-8.4,0-12.6c0.1-6,2.4-8.4,8.5-8.4c19.9,0,39.9,0,59.8,0c5.1,0,10.1,0,15.5,0
		c0-11.6,0-23,0-35.1c-2.5,0-5.1,0-7.7,0c-6.7,0-13.5,0-20.2-0.1c-12.9-0.2-21.6-8.8-21.9-21.7c-0.2-11.2,0-22.5,0-33.5
		c-3.1-2.1-5.5-1.2-8.2,0.6C111.2,39,95.2,49.4,79.2,59.8c-2.8,1.8-5.6,3.4-9,1.5c-3.3-1.9-3.6-5-3.6-8.4c0.1-32.6,0.1-65.1,0-97.7
		c0-4.1,0.9-7.4,4.2-9.9c1.7,0,3.4,0,5.1,0c17.8,11.7,35.6,23.4,52.5,34.5c3.3-0.7,5.7-1.7,8.1-1.7c14.5-0.1,28.9-0.1,43.4-0.1
		c6,0,8.2,2.2,8.2,8.1c0.1,10.3,0,20.5,0,30.7c0,7.9-0.6,8.6-8.6,11.1c0,13.6,0,27.5,0,41.5c10,0,20.4,0,30.3,0
		c0-14.2,0-28.1,0-41.9c-7.1-1.4-8.5-2.9-8.5-9.5c0-10.5-0.1-21.1,0-31.6c0-6.5,2.1-8.5,8.6-8.6c12.6,0,25.3-0.1,37.9,0.1
		c3.8,0.1,7.6,1.2,11.4,1.7c0.9,0.1,1.9-0.2,2.7-0.6c17.3-11.2,34.5-22.5,51.7-33.8C314.8-54.6,316.2-54.6,317.6-54.6z M141.9,12.4
		c11.1,0,21.7,0,32.3,0c0-7.1,0-13.8,0-20.5c-11,0-21.6,0-32.3,0C141.9-1.2,141.9,5.5,141.9,12.4z M247.3-8.2c-10.9,0-21.6,0-32.5,0
		c0,7,0,13.7,0,20.5c10.9,0,21.6,0,32.7,0c0-6,0-11.7,0-17.5C247.5-6.1,247.4-7,247.3-8.2z"/>
	<path class="st4" d="M194.3,377.2c-14.3-0.3-28.3-2.3-42-6.5c-20.7-6.4-27.2-18.4-21.4-39.2c10.1-36.2,50.6-56.2,86.8-42.8
		c24.6,9.1,41.1,30.7,42.5,55.1c0.5,9.3-3.3,16-10.8,20.9c-9.3,6.1-19.7,8.7-30.5,10.2C210.8,376,202.6,376.5,194.3,377.2z"/>
	<path class="st4" d="M165.6,272.2c-28.7,11.3-46.3,31.9-52.9,62.2c-11,0.5-21.9-0.3-32.5-2.7c-6.5-1.5-13.1-3.3-19.2-6
		c-14-6.1-18.5-14.9-16-30c4.9-29.9,30.9-52.1,62.4-53.1c23.4-0.8,42.3,8.4,56.6,26.9C164.5,270.2,165,271.1,165.6,272.2z"/>
	<path class="st4" d="M276.3,334.5c-2.8-14.5-8.6-27.3-18-38.3c-9.4-11-20.9-18.9-34.9-24c6.3-9.6,14.3-16.6,23.9-21.9
		c34.7-19.4,81.5-2.3,94.1,34.6c1.9,5.5,2.6,11.5,3.4,17.3c1,8.5-2.8,15.1-9.8,19.5c-4.6,2.9-9.6,5.2-14.7,7
		C306.2,333.6,291.6,334.4,276.3,334.5z"/>
	<path class="st1" d="M110.1,225.4c-18.2,0.1-32.8-14.4-33-32.8c-0.2-18,14.6-32.9,32.8-33.1c18-0.2,33.1,14.8,33,32.8
		C142.9,210.7,128.3,225.3,110.1,225.4z M109.5,211.9c10.8,0.3,19.8-8.3,19.9-19.1c0.2-10.5-8.3-19.3-19-19.7
		c-10.4-0.4-19.5,8.1-19.8,18.8C90.3,202.7,98.6,211.6,109.5,211.9z"/>
	<path class="st1" d="M279.3,225.3c-18.3,0.1-33-14.4-33.1-32.7c-0.1-18,14.9-33.2,32.8-33.1c18.2,0,33,14.7,33.1,32.8
		C312.1,210.6,297.6,225.3,279.3,225.3z M298.6,192.5c0-10.6-8.5-19.3-19.1-19.4c-10.7-0.1-19.8,8.8-19.7,19.4
		c0.1,10.7,8.6,19.3,19.2,19.4C289.9,212,298.5,203.4,298.6,192.5z"/>
	<path class="st1" d="M227.5,234.6c0,18.3-14.5,32.9-32.7,33.1c-18.1,0.2-33.1-14.7-33.1-32.8c0-18.3,14.7-33.1,32.7-33.1
		C212.7,201.9,227.4,216.5,227.5,234.6z M214,234.8c-0.1-10.8-8.9-19.5-19.6-19.4c-10.6,0.1-19.2,8.8-19.2,19.4
		c0,10.7,8.9,19.6,19.6,19.4C205.5,254.1,214.1,245.4,214,234.8z"/>
	<path class="st1" d="M-7.8,7.3c0.3-21.5,7.1-38.7,20.9-52.9c1.5-1.5,3.8-3.2,5.6-3.1c2.3,0.2,5,1.8,6.4,3.6c2,2.7,0.7,5.6-1.6,7.9
		c-7.1,7.1-12.3,15.3-15.1,24.9c-6,21.1-2,40.2,12.2,57c0.6,0.8,1.4,1.4,2,2.2c2.4,3.2,2.2,6.9-0.6,9.4c-2.8,2.5-6.5,2.4-9.4-0.6
		C2.2,45.2-4.2,32.4-6.7,17.8C-7.4,13.8-7.6,9.7-7.8,7.3z"/>
	<path class="st1" d="M30.1,5.3c0-9.9,3.5-18.3,10.5-25.4c3.3-3.4,7-3.6,10-0.8c3.1,2.9,3,6.4-0.1,10c-8.8,10-9.2,20.6-1.3,31.3
		c2.8,3.8,2.5,7.4-0.9,9.9c-3.3,2.5-6.6,2-9.6-1.6C33,22.1,30,14.3,30.1,5.3z"/>
</g>
<g class="st0">
	<path class="st4" d="M60.7,286.5c-6.7-23.6-13-45.5-19-67.6c-0.4-1.4,2-4.6,3.7-5.2c24.2-8.8,48.4-17.8,73-25.6
		c12.4-3.9,24.6,0.6,36.2,5.5c22.8,9.5,46.1,17.5,70.9,18.5c15.4,0.6,31-2.1,46.5-2.7c5.8-0.2,15.4-0.3,16.8,2.7
		c3.6,7.6-3.5,13.8-9.8,16c-17.1,5.9-34.7,10.1-52.1,14.9c-0.6,0.2-1.3,0-1.9,0.2c-4.4,1.8-8.8,3.6-13.2,5.4
		c4.1,3.1,7.9,8.4,12.3,8.8c10.2,1,21.1,1.4,31-0.9c40.5-9.5,79.4-23.3,114.7-45.9c9.7-6.2,20.4-6.4,24.8-1c5,6.1,2.1,16.9-7.1,25.2
		c-56.6,50.7-122.1,77.9-199,73.2c-30.8-1.9-60.7-8.5-88.5-22.1C86.7,279.6,74.5,273.9,60.7,286.5z"/>
	<path class="st5" d="M239.7,72.5c-0.6,3.7-0.5,7.8-2.1,11c-1.3,2.6-4.8,5.8-7.1,5.7c-2.5-0.2-6.8-4.1-6.7-6.2
		c0.8-19.1,1.7-38.2,4-57.2c0.9-7.4,24.2-16.9,31.7-15.9c7.7,1,15.6-0.2,23.5-0.1c4.1,0.1,8.6,0.1,12.3,1.7
		c15.6,6.4,22.5,17.7,21.1,35.1c-0.9,10,1.1,20.3,2,30.5c0.6,5.8,0.7,11.7-6.6,12.4c-6.8,0.7-8.1-4.7-8.2-10.3
		c0-1.8-0.7-3.5-2.6-5.1c0,13.5,0,27,0,40.5c0,20.7,0,41.5,0,62.2c0,2.2,0,4.5,0,6.7c-0.4,11-5.6,17.8-13.4,17.6
		c-7.4-0.2-12.6-6.9-12.7-17.3c-0.2-14.7,0.2-29.4-0.3-44c-0.1-4.4-2.6-8.6-4-12.9c-1,4.3-2.7,8.6-2.8,12.9
		c-0.4,13.1-0.1,26.1-0.2,39.2c0,3.5-0.3,7-1,10.4c-1.4,6.4-4.7,11.4-12,11.6c-7.9,0.3-11.3-5.2-13-11.7c-0.9-3.3-0.8-6.9-0.8-10.4
		c-0.1-35.4,0-70.8,0-106.2C240.4,72.6,240,72.6,239.7,72.5z"/>
	<path class="st5" d="M166.5,53.3c-2.8,6.4-0.1,16.1-10.3,15.2c-10.8-0.9-6.8-10.2-6.4-16.7c0.8-13.1,2.2-26.1,2.5-39.2
		c0.2-6.5,2.2-10.9,7.9-14c4.5-2.4,8.3-6.2,13-8c3.6-1.4,8.1-1,12.2-1c7.5-0.1,15.1,0,22.6,0.3c4.6,0.2,9.3,0.5,13.8,1.4
		c2,0.4,3.8,2.3,5.6,3.5c16.5,10.6,16.3,10.4,1.2,22.8c-3.1,2.5-5.8,7.1-6.2,11.1c-1.8,16.5-2.8,33.1-3.7,49.6
		c-0.2,3.6,0.4,8.9,2.6,10.6c6.6,4.8,6,11.1,6,17.7c-0.1,16.6-0.1,33.2-0.1,49.8c0,1.9,0.1,3.8,0,5.8c-0.5,11.1-5.5,18.2-13,18.4
		c-8,0.2-13.6-7.2-13.7-18.5c-0.1-16,0.1-31.9-0.2-47.9c-0.1-2.6-2.2-5.1-3.3-7.6c-1.2,2.5-3.5,4.9-3.5,7.4
		c-0.3,15.6,0,31.3-0.3,46.9c-0.1,4-0.2,8.9-2.4,11.9c-2.5,3.4-7.3,7.3-11,7.2c-3.7-0.1-8.7-4-10.6-7.6c-2.3-4.2-2.5-9.8-2.5-14.8
		c-0.2-31-0.1-61.9-0.1-92.9C166.5,60.9,166.5,57.1,166.5,53.3z"/>
	<path class="st4" d="M60.6,295.9c-1.7,1.4-3.8,4.3-6.5,5.3c-7.8,2.8-15.9,4.7-23.8,7c-6.3,1.9-9.6-0.9-11.3-6.8
		C11.9,276.2,4.7,251.1-2.3,226c-1.8-6.4-0.8-11,7.1-12.5c7.5-1.4,14.8-3.8,22-6.2c5.5-1.9,8.9-0.2,10.4,5
		c7.5,26.3,14.9,52.6,22.3,79C59.7,292.1,59.9,293,60.6,295.9z"/>
	<path class="st5" d="M293.1-16.8c0.1,12.7-9.5,22.4-22.2,22.3c-12.7,0-22.5-9.6-22.5-22.2c0-12.3,10-22.4,22.4-22.4
		C283.5-39.1,293.1-29.5,293.1-16.8z"/>
</g>
<g class="st0">
	<path class="st1" d="M62.7-56.8c-0.2-1.9-0.3-3-0.4-4.1c-0.5-8.6,2.4-11.8,10.9-11.9c12.1-0.1,24.1,0,36.2,0c2.4,0,4.7,0,7.7,0
		c0.8-9,1.4-17.7,2.3-26.4c1.3-12.1,7-21.1,18.7-25.4c10.6-3.9,22.3-0.6,29.9,8c5.4,6.1,6.9,13.5,7.4,21.3
		c0.5,7.4,1.2,14.8,1.9,22.5c14.1,0,27.6,0,41.1,0c12.4,0,15.1,3.2,13.2,16c12.1,0,24.1,0.3,36.2-0.1c22.8-0.8,37.8,17.1,37.3,37.3
		c-0.8,34.2-0.2,68.3-0.2,102.5c0,1.8,0,3.6,0,5.8c-4.5,0-8.6,0-13.4,0c0-7.1,0-14.2,0-21.2c0-29.2,0-58.5,0-87.7
		c0-14.3-8-22.5-22.3-22.6c-12.8-0.1-25.6-0.2-38.4,0.1c-2.2,0.1-5,1.7-6.5,3.5c-9.3,11.3-20.8,17.1-35.7,16.9
		c-27-0.3-54-0.1-81,0.2C91.8-22,78.8-27.2,69.4-40.4c-0.9-1.3-3.3-2.3-4.9-2.3C51.3-43,38.2-43.1,25-42.8
		C12.4-42.6,4.3-34.2,4.3-21.5c0,100.9,0,201.7,0,302.6c0,12.7,8.6,21.5,21.3,21.5c81.6,0.1,163.3,0.1,244.9,0
		c11.4,0,20-8.2,20.9-19.6c0.1-1.6,0.2-3.2,0.3-5.1c4.4,0,8.5,0,12.5,0c2.7,15.7-8,32.9-23,36.5c-4.4,1.1-9,1.6-13.5,1.6
		c-64.9,0.1-129.7,0-194.6,0c-15.7,0-31.4,0-47.1,0c-21.1,0-35.4-14.2-35.5-35.4c-0.1-27,0-54.1,0-81.1c0-73.3,0-146.6,0-219.8
		c0-22.4,14.3-36.5,36.7-36.5C39-56.8,50.7-56.8,62.7-56.8z M147.3-53.4c-15.5,0-31,0-46.5,0c-3.8,0-7.5,0.4-7.5,5
		c0,4.3,3.7,4.7,7.2,4.7c31.2,0,62.4,0,93.6,0c3.7,0,7.1-0.8,6.9-5c-0.1-4.1-3.6-4.8-7.2-4.8C178.4-53.3,162.8-53.4,147.3-53.4z
		 M158.9-100.2c0-6.6-5.3-11.7-11.9-11.6c-6.4,0.1-11.3,5.1-11.4,11.5c-0.1,6.7,4.9,11.8,11.6,11.8S158.9-93.6,158.9-100.2z"/>
	<path class="st4" d="M352.5,99.1c-1.9,8.1-3.7,15.5-5.1,23c-0.3,1.8,0.6,4.3,1.7,5.9c5.2,8,12.3,9.3,21,5.7
		c4.3-1.8,9.1-2.4,14.2-3.7c4.7,11,9.3,21.8,14,32.9c-6.6,4.1-12.9,8.2-19.4,11.9c-3,1.7-3.7,3.7-4.1,7.2c-0.9,8.3,1.7,13.6,9.5,17
		c4.8,2.1,9,5.5,13.8,8.5c-4.3,10.8-8.7,21.6-13.2,32.9c-7.5-1.8-14.9-3.4-22.3-5.4c-3.1-0.8-4.9,0.3-7.5,2.2
		c-7.8,5.6-8,12.2-4.9,20.2c1.7,4.4,2.3,9.1,3.6,14.4c-10.2,4.4-20.5,8.9-30.9,13.1c-0.9,0.4-3.2-1.1-4-2.3
		c-3.5-5.3-6.8-10.8-10-16.3c-1.6-2.8-3.5-3.6-6.8-4c-8.5-1.2-13.5,2-16.9,9.7c-2.2,5-5.5,9.4-8.4,14.3
		c-11.1-4.5-21.9-8.8-33.1-13.3c1.8-7.9,3.3-15.5,5.4-23c0.9-3.2-0.2-4.7-2-7.1c-5.3-7-11.4-8.3-19.2-4.8c-3.6,1.6-7.8,1.8-11.6,3.1
		c-3.2,1.1-4.6,0-5.7-2.9c-3.9-9.6-8.1-19.1-12.3-29.2c6.6-4.1,13.1-8.3,19.9-12.2c2.9-1.7,3.3-3.7,3.8-6.9
		c1.4-9.4-3.4-13.8-10.9-17.3c-4.4-2.1-8.4-5-13-7.8c4.2-10.5,8.2-20.8,12.6-31c0.4-0.9,3-1.5,4.3-1.3c6.3,1.3,12.4,2.8,18.6,4.4
		c3.3,0.8,5.3-0.3,8.1-2.4c7.3-5.5,7.4-11.7,4.7-19.4c-1.7-4.7-2.6-9.8-3.9-15.1c10-4.2,19.8-8.6,29.8-12.4c1.2-0.5,4,0.8,5,2.2
		c3.7,5.2,7.1,10.6,10.3,16.1c1.6,2.7,3.5,3.1,6.5,3.6c9,1.3,14.2-2.5,17.6-10.5c2-4.6,5.1-8.7,7.9-13.3
		C330.4,90.1,341.2,94.5,352.5,99.1z M346.7,185.5c-0.3-26.7-22.1-48.3-48.8-48.2c-26.7,0.1-48.3,22.4-48,49.5
		c0.3,26.1,22.8,48.1,48.8,47.6C325.6,233.9,347,212.1,346.7,185.5z"/>
	<path class="st1" d="M89.8,203c5.6-4.9,10.2-8.9,14.9-12.9c2.5-2.1,5.2-6.3,8.6-2.3c2.9,3.5-0.9,5.8-3.4,7.9
		c-3.8,3.4-7.4,7.2-11.6,10c-6.9,4.6-9.8,10.5-8.7,18.8c0.5,3.8,0.2,7.6,0.1,11.5c-0.1,4.8-2.5,7.5-7.4,7.6c-13.3,0.1-26.6,0.1-40,0
		c-4.9,0-7.4-3-7.4-7.6c-0.1-13.1-0.1-26.3,0-39.4c0.1-5.3,2.8-7.7,8.4-7.8c12.2-0.1,24.4,0,36.6,0c7.8,0,9.7,1.8,9.8,9.6
		C89.9,199.4,89.8,200.5,89.8,203z M42.9,196.4c0,13.4,0,26.3,0,39.3c13.3,0,26.3,0,39.2,0c0-5.1,0-9.7,0-15.4
		c-4.2,3.7-7.8,6.7-11.3,9.8c-3,2.6-5.7,2.9-8.1-1c-3.4-5.4-6.9-10.7-10.4-16.1c-1.7-2.6-2.7-5.5,0.7-6.8c1.4-0.6,4.6,1.2,5.8,2.8
		c3.2,4.1,5.8,8.6,8.9,13.3c7.9-7.3,19-12,13.7-26C69,196.4,56.3,196.4,42.9,196.4z"/>
	<path class="st1" d="M90.1,19.5c5.9-5.1,10.8-9.8,16.1-13.8c1.7-1.3,5.7-2.2,6.9-1.1c2.9,2.3,0.4,4.8-1.7,6.7
		c-6.2,5.4-12.5,10.6-18.5,16.3c-1.6,1.5-2.8,4.2-2.9,6.4c-0.4,6-0.1,12-0.2,18.1c-0.1,5.7-2.3,8.2-7.9,8.2c-13,0.1-25.9,0.1-38.9,0
		c-5.5-0.1-8-2.7-8-8.2c-0.1-12.8-0.1-25.6,0-38.3c0-5.9,2.5-8.1,8.5-8.1c11.9,0,23.7,0,35.6,0c9.5,0,10.6,1.1,10.8,10.7
		C89.9,16.9,89.9,17.6,90.1,19.5z M42.9,13.1c0,13.3,0,26.2,0,39.4c13.1,0,26,0,39.2,0c0-5,0-9.8,0-15.6c-4.1,3.5-7.4,6.5-10.9,9.3
		c-4.3,3.7-5.8,3.4-9-1.4C59,40,55.9,35,52.7,30.2c-1.7-2.6-3.5-5.3,0-7.5c3.2-2,4.9,0.8,6.4,3.2c2.8,4.3,5.7,8.6,8.5,13
		c8.4-7.1,18.9-12.3,13.9-25.8C68.7,13.1,55.9,13.1,42.9,13.1z"/>
	<path class="st1" d="M89.9,111.4c6.3-5.4,11.3-10.2,16.8-14.4c1.6-1.2,5.3-1.9,6.4-1c2.7,2.3,0.9,4.8-1.4,6.8
		c-6.1,5.2-12,10.7-18.3,15.7c-2.7,2.2-3.7,4.5-3.6,8c0.3,5.8,0.2,11.7,0,17.5c-0.1,5.4-2.3,7.6-7.7,7.6c-13,0.1-25.9,0.1-38.9,0
		c-5.8,0-8.1-2.2-8.2-7.8c-0.1-13-0.1-25.9,0-38.9c0-5.1,2.8-7.8,7.9-7.8C56,97,69.2,97,82.3,97.2c5.3,0.1,7.4,2.6,7.5,8
		C89.9,106.8,89.9,108.4,89.9,111.4z M82.1,128.7c-4.1,3.5-7.6,6.2-10.9,9.3c-3.5,3.3-6.1,3.3-8.7-1c-3.2-5.3-6.7-10.4-10.1-15.6
		c-1.6-2.4-3.1-5.4,0.3-6.8c1.4-0.6,4.7,1.1,6,2.7c3.3,4.1,5.9,8.7,8.7,13c14.4-9.7,16.9-14.2,14.1-25.4c-12.8,0-25.7,0-38.7,0
		c0,13.3,0,26.1,0,39.4c13.1,0,26,0,39.2,0C82.1,139.2,82.1,134.4,82.1,128.7z"/>
	<path class="st1" d="M188.9,51.7c19.5,0,39.1,0,58.6,0c1.5,0,3.2-0.4,4.3,0.2c1.4,0.8,3.2,2.3,3.3,3.7c0.1,1.3-1.4,3.2-2.7,4.1
		c-1.2,0.8-3.1,0.6-4.8,0.6c-39.3,0-78.5,0-117.7,0c-1.3,0-2.9,0.4-3.8-0.2c-1.6-1.2-3.7-2.9-3.7-4.4c0-1.3,2.4-3.5,4.1-3.8
		c3-0.6,6.2-0.2,9.3-0.2C153.5,51.7,171.2,51.7,188.9,51.7z"/>
	<path class="st1" d="M197.1,243.6c-7.9,0-15.7,0-23.5,0c-15,0-29.9,0-44.9,0c-3.1,0-6.3-0.1-6.4-4.1c-0.1-4.3,3.1-4.7,6.5-4.7
		c19.5,0,39.1,0,58.6,0C195.3,234.8,195.3,234.8,197.1,243.6z"/>
	<path class="st1" d="M191,143.2c-1,5.8-2.6,8.9-9.1,8.7c-17.6-0.6-35.3-0.2-53-0.2c-3.2,0-6.7,0.4-6.6-4.3c0.1-4,3.2-4.2,6.3-4.2
		C149.2,143.2,169.8,143.2,191,143.2z"/>
</g>
<g class="st0">
	<path class="st1" d="M13,225.3c6.1,0,10.8,0,16.8,0c0,18.1,0,35.7,0,53.2c0,14.9,4.3,19.3,19.1,19.3c74.6,0.1,149.2,0.1,223.9,0
		c15.4,0,19.4-4.4,19.4-20.1c0-92.7,0-185.3,0-278c0-16.8-4-20.8-20.9-20.8c-73.6,0-147.1,0-220.7,0c-16.9,0-20.7,3.9-20.8,20.9
		c0,17,0,34,0,51.7c-5.6,0-10.5,0-16.3,0c0-21.6-1.1-43.1,0.4-64.4c0.9-12.6,10.2-21,23-23.9c4.7-1,9.6-1.3,14.5-1.3
		c73.2-0.1,146.5-0.1,219.7,0c26.7,0,37.9,11.3,37.9,38c0,92.7,0,185.3,0,278c0,25.2-11.6,36.8-37,36.9c-73.9,0-147.8,0-221.8,0
		c-26,0-37.2-11.5-37.3-37.6C13,260.3,13,243.3,13,225.3z"/>
	<path class="st1" d="M114.6,179.8c18.4,0.2,32.7,14.7,32.7,33.3c0,18.1-15.1,33.2-33.1,33.2c-18,0-33.2-15.1-33.3-33.1
		C80.9,194.2,95.6,179.6,114.6,179.8z M134.9,212.8c-0.1-11.7-9.5-20.8-21.4-20.5c-11.3,0.3-20.1,9.4-20.1,20.7
		c0.1,11.2,9.2,20.5,20.3,20.8C125.2,234.1,135,224.3,134.9,212.8z"/>
	<path class="st1" d="M212.9,67.5c-13.1,0-26.3,0-39.4,0c-6.4,0-12.4-1.2-12.4-9c0-7.8,5.8-9.2,12.3-9.2c27,0,53.9,0,80.9,0
		c6.5,0,12.5,1.6,12.5,9.1c0,7.5-5.8,9.2-12.4,9.2C240.6,67.5,226.7,67.5,212.9,67.5z"/>
	<path class="st1" d="M213.6,144.7c-13.1,0-26.3-0.1-39.4,0c-6.7,0-13.3-0.7-13.2-9.3c0.1-7.8,6.3-8.9,12.6-8.9c27,0,53.9,0,80.9,0
		c6.5,0,12.4,1.8,12.2,9.4c-0.2,7.6-6.1,8.9-12.7,8.9C240.6,144.6,227.1,144.7,213.6,144.7z"/>
	<path class="st1" d="M213.7,221.8c-13.8,0-27.7,0-41.5,0c-6.4,0-12-2.3-10.7-9.1c0.7-3.5,6.5-8.5,10.1-8.6c28.3-0.7,56.7-0.7,85,0
		c3.5,0.1,6.9,5.8,10.4,8.9c-3.6,2.9-7,8.1-10.8,8.3C242.1,222.4,227.8,221.8,213.7,221.8z"/>
	<path class="st1" d="M48.1,123.3c3,2.7,8.8,5.5,10.2,9.8c1.5,4.3,0.3,11.6-2.7,14.8c-3,3.1-11.6,5.4-14.4,3.4
		c-9.8-7.2-20.3-5.1-30.7-5.4c-4.1-0.1-8.6,0.8-12.4-0.5c-2.9-0.9-5.1-4.4-7.6-6.8c2.5-2.4,4.5-6.1,7.5-7c4.1-1.2,8.9-0.4,13.4-0.5
		c10.1-0.3,20.8,2.3,29.5-5.7C42,124.3,44.1,124.3,48.1,123.3z"/>
	<path class="st1" d="M60,209.5c-0.2,9.7-11.1,17.9-18.8,12.4c-10.5-7.4-21.6-4.8-32.6-5.8c-6.5-0.6-17.3,4-17.5-6.9
		c-0.2-10.8,10.5-7,17.1-7.5c11.4-0.8,22.8,1.5,33.7-5.8C49.6,190.8,60.2,199.8,60,209.5z"/>
	<path class="st1" d="M48.3,52.6c3.1,2.9,8.8,5.8,10.2,10.1c1.4,4.4-0.1,11.4-3.1,14.8c-2.6,3-11,5.3-13.5,3.4
		C30.8,72.8,18.7,76,7,75.3c-2.4-0.2-5.3,0.8-7.2-0.3c-3.4-1.9-6.2-5-9.2-7.6c3-2.3,5.6-5.7,8.9-6.5c4.6-1.1,9.6-0.3,14.5-0.3
		c9.1-0.2,18.7,2,26.3-5.7C41.5,53.7,44.1,53.8,48.3,52.6z"/>
	<path class="st1" d="M106.7,139.8c10-9.1,18.4-17.3,27.5-24.7c2.5-2,7-1.5,10.6-2.1c-0.7,3.3-0.3,7.4-2.2,9.8
		c-8.8,11.2-17.9,22-27.3,32.6c-6.4,7.3-12.3,6.7-17.3-1.5c-3.1-5-6.2-10.1-8.3-15.5c-1-2.7,0.1-6.2,0.3-9.3
		c3.1,0.6,6.6,0.6,9.1,2.1C101.9,132.9,103.7,136.2,106.7,139.8z"/>
	<path class="st1" d="M107.1,59.9c9.3-8.5,17.7-16.7,26.8-24c2.6-2.1,7-1.9,10.6-2.8c-0.7,3.6-0.2,8-2.2,10.5
		c-8.5,10.9-17.5,21.4-26.6,31.8c-6.8,7.8-12.7,7.2-17.9-1.6c-3-5-6-10.1-8.2-15.5c-1-2.4,0.1-5.6,0.3-8.5c3.1,0.4,6.7,0,9.1,1.5
		C101.9,53.2,104.1,56.6,107.1,59.9z"/>
	<path class="st1" d="M13.8,84.5c5.5,0,10.2,0,15.5,0c0,12.7,0,25,0,37.9c-5.3,0-10.2,0-15.5,0C13.8,109.4,13.8,96.9,13.8,84.5z"/>
	<path class="st1" d="M13.6,155.2c5.7,0,10.4,0,15.6,0c0,12.6,0,24.6,0,37.4c-5,0-10,0-15.6,0C13.6,180.5,13.6,168.2,13.6,155.2z"/>
</g>
<g class="st0">
	<path class="st1" d="M-9.4,138.9c0-56,0-111.9,0-167.9c0-7,1.9-8.9,8.9-8.9c78.1,0,156.2,0,234.2-0.1c4.3,0,7.4,1.3,10.4,4.3
		c15.6,15.8,31.5,31.5,47.1,47.3c1.5,1.6,2.7,4.3,2.7,6.5C294,115.8,294,211.4,294,307c0,7.3-1.8,9.1-9,9.1c-94.9,0-189.9,0-284.8,0
		c-8,0-9.6-1.6-9.6-9.7C-9.4,250.5-9.4,194.7-9.4,138.9z M281.1,303.3c0-92.8,0-185.2,0-277.9c-1.5,0-2.8,0-4,0c-12.5,0-25,0-37.5,0
		c-6.9,0-8.8-1.9-8.8-9c0-12.5,0-25,0-37.5c0-1.3-0.1-2.5-0.2-3.8c-75.9,0-151.5,0-227.1,0c0,109.6,0,218.9,0,328.2
		C96.2,303.3,188.5,303.3,281.1,303.3z M271.1,12.5c-9.2-9.2-18.4-18.4-27.5-27.5c0,8.9,0,18.1,0,27.5
		C253,12.5,262.1,12.5,271.1,12.5z"/>
	<path class="st1" d="M95.8,133c2,4.1,3.8,7.9,5.8,11.5c0.5,0.9,2.1,1.5,3.2,1.6c16.3,1.9,32.7,3.6,49,5.6c2.3,0.3,4.9,1.4,6.6,2.9
		c23.4,19.4,46.8,38.9,70.2,58.3c1.4,1.2,3.7,1.9,5.6,2c6.2,0.3,12.4,0.1,18.6,0.1c4.7,0,7.5,2.4,7.5,6.2c0,3.9-2.8,6.3-7.4,6.4
		c-5.9,0.1-11.9,0.1-17.8,0c-2.2-0.1-3.6,0.7-4.8,2.6c-6.6,10.1-13.4,20.2-20.1,30.3c-4.1,6.1-6.4,6.6-12.6,2.7
		c-1.3-0.8-2.6-1.6-4.3-2.7c-3,4.6-5.9,8.9-8.9,13.3c-3.5,5.2-6.3,5.8-11.5,2.4c-1.5-1-3.1-2-4.9-3.1c-3.2,4.8-6.2,9.4-9.3,14
		c-3.1,4.5-6.2,5.1-10.6,2.1c-8.7-5.9-17.3-11.9-26.2-18c-2.6,3.4-5,6.7-7.5,9.9c-3.3,4.3-6.2,4.8-10.8,1.6
		c-20.1-14-40.1-28.1-60.2-42.1c-5.4-3.8-5.7-5.9-1.8-12.8c-4.8,0-9.3,0-13.8,0c-4.9,0-7.8-2.4-7.8-6.4c0-4,2.9-6.2,7.9-6.3
		c6.3,0,12.7-0.2,19,0.1c3.3,0.1,5.8-0.6,7.5-3.7c1.2-2.2,2.9-4.1,4.5-6c2.8-3.5,5.9-4,9.6-1.4c20.7,14.4,41.4,28.9,62.1,43.5
		c3.8,2.7,4.2,6,1.5,9.9c-0.7,1.1-1.5,2.1-2.6,3.5c7.1,4.9,14.1,9.8,21.5,14.8c2.2-3.3,4.3-6.4,6.6-9.8c-6.9-4.6-13.7-9.1-20.4-13.7
		c-4.4-3-4.5-8.5-0.2-11c2.8-1.6,5.3-0.8,7.7,0.9c10.4,7,20.8,13.9,31.6,21.1c2.1-3.1,4.1-6.1,6.3-9.4c-4.6-2.9-8.9-5.6-13.3-8.3
		c-6.4-4-12.7-7.9-19.1-11.9c-3.7-2.4-4.8-5.8-2.8-9c2-3.3,5.7-4,9.6-1.6c13.6,8.5,27.2,17,40.9,25.5c1.1,0.7,2.2,1.4,3.6,2.2
		c1.9-2.8,3.7-5.4,5.7-8.4c-2.1-1.5-4.1-2.9-6.2-4.3c-8.4-5.6-16.9-11.2-25.3-16.9c-4.1-2.8-5.1-6.4-2.8-9.6
		c2.2-3.1,5.7-3.5,9.7-0.9c10.4,6.9,20.8,13.9,31.5,21c2-2.9,3.9-5.7,6.3-9.3c-0.9-0.6-1.8-1-2.6-1.7
		c-21.9-18.2-43.7-36.4-65.6-54.5c-1.4-1.2-3.4-1.9-5.3-2.2c-16.9-2-33.8-3.7-50.6-5.8c-2.2-0.3-4.7-1.9-6-3.6c-1.4-2-2.7-2.7-5-2.7
		c-18.6,0.1-37.1,0.1-55.7,0c-0.9,0-1.8,0-2.8,0c-4.1-0.2-6.7-2.6-6.8-6.1c-0.1-3.7,2.7-6.4,6.9-6.5c16.9-0.1,33.7,0,50.6,0
		c1.4,0,2.8,0,4.9,0c-1.7-3.4-3.1-6.2-4.5-9.2c-2.5-5.3,0.2-9.7,6-9.8c24.9-0.1,49.8-0.1,74.7,0c1.6,0,3.4,0.6,4.9,1.2
		c14.8,5.5,29.5,11.1,44.3,16.5c1.9,0.7,4.1,1.1,6.1,1.1c12.5,0.1,25,0.1,37.5,0.1c5.8,0,8.7,2.1,8.7,6.2c0.1,4.2-2.9,6.4-8.5,6.4
		c-13.3,0-26.6,0.1-39.9-0.1c-2.2,0-4.4-0.5-6.5-1.2c-14.8-5.4-29.6-11.1-44.3-16.5c-1.6-0.6-3.3-1.1-4.9-1.1c-20-0.1-40-0.1-60,0
		C97.5,132.8,96.9,132.9,95.8,133z M78,247.6c3.9,2.7,7.5,5.2,11.3,7.9c3.7-5.2,7.3-10.1,11-15.4c-4-2.8-7.6-5.3-11.3-7.9
		C85.2,237.4,81.7,242.3,78,247.6z M67.8,217.3c-3.9,5.2-7.5,10.1-11.3,15.1c3.9,2.7,7.4,5.2,11.2,7.8c3.7-5.2,7.3-10.3,11-15.4
		C74.7,222.2,71.3,219.8,67.8,217.3z M110.7,247.3c-3.7,5.2-7.2,10.2-11,15.4c3.3,2.3,6.3,4.5,9.6,6.7c3.9-5.2,7.6-10.1,11.3-15.2
		C117.1,251.9,114.1,249.7,110.7,247.3z"/>
	<path class="st1" d="M142.3,50.6c34.9,0,69.8,0,104.6,0c1,0,2.1-0.1,3.2,0c3.5,0.3,5.9,2.9,6,6.2c0.1,3.4-2.5,6.1-6.2,6.4
		c-0.9,0.1-1.8,0-2.8,0c-70,0-140,0-210,0c-1,0-2.1,0.1-3.2-0.1c-3.4-0.7-5.4-2.8-5.3-6.3c0-3.5,2.1-5.6,5.5-6.2
		c1.2-0.2,2.4-0.1,3.5-0.1C72.5,50.6,107.4,50.6,142.3,50.6z"/>
	<path class="st1" d="M142.7,82.2c34.7,0,69.5,0,104.2,0c1.3,0,2.7-0.2,3.9,0.1c3.2,0.7,5.1,2.8,5.1,6.1c0,3.3-1.9,5.4-5,6.2
		c-1.1,0.3-2.4,0.2-3.5,0.2c-70.1,0-140.3,0-210.4,0c-0.9,0-1.8,0.1-2.8,0c-3.4-0.4-5.9-3.2-5.7-6.4c0.2-3.5,2.2-5.5,5.6-6.1
		c1.2-0.2,2.4-0.1,3.5-0.1C72.7,82.2,107.7,82.2,142.7,82.2z"/>
	<path class="st1" d="M116.5,31.7c-26.4,0-52.9,0-79.3,0c-1,0-2.1,0.1-3.2-0.1c-3.4-0.6-5.5-2.7-5.5-6.2s2-5.6,5.4-6.3
		c0.9-0.2,1.8-0.1,2.8-0.1c53.6,0,107.1,0,160.7,0c0.9,0,1.9-0.1,2.8,0.1c3.4,0.8,5.4,2.9,5.3,6.4c-0.1,3.3-2,5.3-5.2,6
		c-1.1,0.3-2.4,0.1-3.5,0.1C170,31.7,143.3,31.7,116.5,31.7z"/>
</g>
<g class="st0">
	<path class="st4" d="M49.1,294.2c0,6.9,0,13.6,0,20.6c-5.1,0-9.9,0.2-14.6-0.2c-0.9-0.1-2.3-2.6-2.3-4c-0.3-5.4-0.1-10.8-0.1-16.8
		c-4.4,0-8.6,0-12.7,0c-6.6,0-6.6,0-6.6-6.6c0-31.4,0-62.7,0-94.1c0-1.4,0-2.7,0-4.7c-4.6,0-9-0.1-13.4,0.1
		c-2.4,0.1-3.4-0.6-3.3-3.3c0.2-5.9,0.1-11.7,0.1-18c6.9,0,13.4,0,19.9,0c90.9,0,181.7,0,272.6-0.1c3.4,0,4.8,0.9,4.6,4.6
		c-0.3,4-0.3,8.1,0,12.2c0.2,3.7-1.3,4.8-4.6,4.6c-2.6-0.2-5.3,0.1-8-0.1c-3.1-0.2-4.2,1-4.2,4.2c0.1,20.1,0.1,40.1,0.1,60.2
		c0,12.4,0,24.9,0,37.3c0,1.1,0,2.2,0,3.6c-6.4,0-12.5,0-19.3,0c0,5.4,0,10.3,0,15.3c0,6,0,6-5.7,6c-2.6,0-5.3-0.1-7.9,0
		c-2.5,0.1-3.4-1-3.4-3.5c0.1-5.6,0-11.3,0-17.3C176.5,294.2,113.1,294.2,49.1,294.2z"/>
	<path class="st4" d="M159.6,135.2c0.5,6.9,1,13.7,1.5,20.8c-30.9,0-61.8,0-93.1,0c0.3-6.1,0.5-12.2,1-18.2
		c1.1-15.3,2.4-30.6,3.4-46C73,83,76.2,78.7,84.7,77c18.9-3.9,37.9-5.9,57.1-2.7c12.5,2.1,21.5,8.7,25,21.4
		c4.6,17,14.1,30,28.8,39.1c2.5,1.5,5.1,2.7,7.6,4.1c4.1,2.4,5.9,6.3,4.8,10.5c-1,4.1-4.6,6.7-9.2,6.8c-13.9,0.5-24.4-6.4-33.6-16
		c-1.6-1.7-3.1-3.6-4.7-5.4C160.2,135,159.9,135.1,159.6,135.2z"/>
	<path class="st4" d="M118.3,12.2c14.8,0,26.4,11.7,26.3,26.5c0,15-11.6,26.5-26.7,26.5c-14.2,0-26-12-26-26.6
		C92,23.7,103.5,12.2,118.3,12.2z"/>
</g>
<g class="st0">
	<path class="st1" d="M7.1,91.2c-0.6-2.2-1.3-4-1.5-5.9c-0.5-6.4,1.9-11.6,7.6-14.5c8.3-4.1,16.7-8,25.3-11.3c2.9-1.1,6.7,0,10-0.1
		c1.4,0,3.1,0.1,4-0.6C66.4,47.7,80.2,36.5,94,25.2c0.8-0.7,1.5-2.1,1.5-3.2c0.4-9.5,6.1-16.5,14.9-18.3c8.3-1.7,16.6,2.8,20.4,11.3
		C142.9,41.7,155,68.5,167,95.3c4.1,9.2,1.2,19-6.9,24c-8.1,4.9-18,2.7-24.4-5.3c-0.7-0.9-2.4-1.6-3.4-1.5c-17.5,2.3-35,4.7-52.1,7
		c-1.2,3.2-2.5,6.1-3.4,9.1c-0.3,0.9,0.1,2.3,0.5,3.2c4,8.6,8.1,17.1,12.2,25.7c2.7,5.6,1.6,8.5-3.9,11.2
		c-6.7,3.2-13.5,6.5-20.2,9.7c-5.1,2.4-8.3,1.2-10.7-3.8c-4.3-8.9-8.5-17.8-12.8-26.6c-0.5-1.1-1.5-2.4-2.5-2.6
		c-5.8-1-9.6-4.4-12.1-9.8c-3.9,1.7-7.6,3.4-11.4,5.1c-4.9,2.1-8.1,0.9-10.3-4c-4.5-9.9-9-19.9-13.4-29.8c-2.3-5.1-1-8.3,4.1-10.6
		C-0.3,94.4,3.3,92.9,7.1,91.2z M128.8,99.5c-9.4-21-18.7-41.6-28-62.3c-0.6,0.4-1.1,0.5-1.4,0.8c-13,10.5-25.9,21.1-38.9,31.6
		c-1.8,1.4-1.4,2.6-0.7,4.2c4.5,9.8,9,19.6,13.2,29.5c1.2,2.9,2.7,3.5,5.6,3.1c10.1-1.5,20.2-2.8,30.3-4.1
		C115.4,101.3,121.9,100.4,128.8,99.5z M66.4,120.9c-7.3-16.2-14.3-31.7-21.2-47.3c-0.9-2-2.2-2.1-4-1.2c-6.7,3.1-13.3,6.2-20.1,9.1
		c-2.4,1-2.5,2.3-1.5,4.4c1.5,3.2,2.9,6.5,4.4,9.7c5,11.2,10.1,22.5,15.2,33.7c0.6,1.4,1,3.6,3.4,2.6
		C50.4,128.3,58.2,124.7,66.4,120.9z M113.7,16.7c-3.9,0-6,3.6-4.2,7.7c12,26.8,24.1,53.6,36.2,80.3c1.6,3.5,4.2,4.7,7,3.4
		c2.8-1.3,3.6-4.1,2-7.6c-3.2-7.1-6.4-14.3-9.6-21.4c-8.8-19.4-17.5-38.9-26.2-58.3C117.9,18.5,116.6,16.7,113.7,16.7z M75.4,158.9
		c-3.6-7.6-7.1-14.9-10.7-22.4c-3.9,1.8-7.3,3.4-11,5.1c3.7,7.6,7.1,14.9,10.8,22.5C68.1,162.3,71.5,160.7,75.4,158.9z M12.8,103.2
		c-2.3,1.1-4.3,2-6.3,3c3.1,6.8,6,13.3,9,20c2.2-1,4.1-1.9,6.4-2.9C18.8,116.6,15.9,110,12.8,103.2z"/>
	<path class="st1" d="M255.9,105.9c-8.7,1.4-16.8,2.7-24.9,3.9c-1.6,0.2-3.4,0.5-4.9,0.1c-3-0.8-4.8-3-4.8-6.3
		c0-3.3,1.9-5.8,5.4-6.5c8.3-1.5,16.6-2.7,24.9-4.1c6-0.9,11.9-1.9,17.9-2.8c7.4-1.1,10.6,2.1,9.4,9.5c-2.2,13.8-4.6,27.6-6.9,41.4
		c-0.8,4.5-3.6,6.9-7.4,6.4c-4-0.5-6.2-3.7-5.6-8.4c0.7-5.3,1.7-10.5,2.5-15.8c0.2-1,0.3-2,0.5-4.1c-2.2,2.4-3.7,4-5.2,5.6
		c-18.8,20.4-39.3,38.9-63,53.6c-28.1,17.6-58.9,27.5-91.6,32c-28.4,3.9-57,3.9-85.6,3.5c-4.3-0.1-7.3-2.9-7.3-6.7
		c0-3.9,3.1-6.6,7.6-6.7c15-0.1,29.9,0.2,44.9-0.3c33.8-1.1,66.9-5.7,98.2-19.2c26.6-11.5,49.6-28.3,70.3-48.4
		c7.9-7.7,15.3-15.9,22.9-23.9C254.1,108.2,254.7,107.3,255.9,105.9z"/>
	<path class="st1" d="M206.9,253.1c0-17.3,0-34.6,0-51.9c0-2.4,0.3-5,1-7.3c1.4-4.3,4.3-6.3,8.8-6.3c22.3,0,44.6,0,66.9,0
		c5.2,0,8.6,3.2,9.5,8.7c0.3,1.9,0.3,3.8,0.3,5.7c0,34.2,0,68.3,0,102.5c0,2.3-0.2,4.8-0.8,7c-1.4,5-4.2,7-9.4,7
		c-22.1,0-44.1,0-66.2,0c-6.4,0-10-4.1-10.1-11.5c-0.1-13.9-0.1-27.8-0.1-41.6C206.9,261.2,206.9,257.1,206.9,253.1
		C206.9,253.1,206.9,253.1,206.9,253.1z M220.3,200.9c0,34.9,0,69.4,0,104.1c20.1,0,39.9,0,59.8,0c0-34.8,0-69.4,0-104.1
		C260.1,200.9,240.3,200.9,220.3,200.9z"/>
	<path class="st1" d="M190.7,273.6c0,11.2,0,22.3,0,33.5c0,7.7-3.6,11.3-11.3,11.3c-21.4,0-42.7,0-64.1,0c-7.5,0-11.3-3.5-11.3-11
		c-0.1-22.4-0.1-44.9,0-67.3c0-7.7,3.7-11.4,11.4-11.4c21.5,0,43,0,64.5,0c7.1,0,10.9,3.8,10.9,11.1
		C190.7,251,190.7,262.3,190.7,273.6z M177.1,305c0-21.1,0-42,0-62.8c-20,0-39.8,0-59.5,0c0,21.1,0,41.9,0,62.8
		C137.5,305,157.2,305,177.1,305z"/>
	<path class="st1" d="M48.6,243.3c10.9,0,21.8,0,32.7,0c6.7,0,10.4,3.6,10.5,10.2c0,18.3,0,36.5,0,54.8c0,6.4-3.8,10-10.3,10.1
		c-21.9,0-43.9,0-65.8,0c-6.9,0-10.5-3.6-10.5-10.6c-0.1-13.8,0-27.5,0-41.3c0-4.4-0.1-8.8,0-13.2c0.2-6.5,3.8-10,10.3-10.1
		C26.5,243.2,37.5,243.2,48.6,243.3C48.6,243.3,48.6,243.3,48.6,243.3z M78.3,305.1c0-16.3,0-32.3,0-48.4c-20,0-39.8,0-59.6,0
		c0,16.2,0,32.3,0,48.4C38.6,305.1,58.3,305.1,78.3,305.1z"/>
	<path class="st1" d="M184.3-3.4c-1.3,2.3-2,4-3.1,5.2c-6.9,7.9-13.9,15.8-20.9,23.7c-3.1,3.5-7,4-10,1.5c-3-2.5-3.1-6.6-0.1-10
		c7.1-8.1,14.3-16.1,21.4-24.2c2.2-2.5,5.2-3.4,8-1.8C181.5-7.9,182.7-5.4,184.3-3.4z"/>
	<path class="st1" d="M206.2,36.7c-0.8,1-2,3.4-4,4.4c-9.2,4.5-18.6,8.7-28.1,12.9c-3.5,1.6-7.2,0.1-8.7-3.2
		c-1.5-3.3-0.3-7.1,3.1-8.7c9.4-4.4,18.9-8.8,28.4-12.9C201.6,27.2,206.4,30.6,206.2,36.7z"/>
	<path class="st1" d="M189.7,81.1c-1.8,0-3.6,0.1-5.3,0c-3.4-0.2-6-2.8-6.2-6.2c-0.2-3.3,2.1-6.5,5.5-6.8
		c10.6-0.8,21.2-1.5,31.9-1.9c3.8-0.2,6.5,2.8,6.6,6.4c0.1,3.8-2.5,6.6-6.6,6.8c-8.6,0.5-17.2,1-25.9,1.5
		C189.7,81,189.7,81,189.7,81.1z"/>
</g>
<g>
	<path d="M188.5,110.4c16-21.9,31.9-43.5,48.1-65.6c15.9,22,31.7,43.7,48,66.1c-4.4,0-8.1,0-11.8,0c-4.9,0-6.4,1.5-6.4,6.3
		c0,13.9,0,27.9,0,41.8c-0.2,71.9-48.9,132.4-119.1,148c-6.4,1.4-13,2.2-19.5,3.2c-0.1-0.3-0.2-0.6-0.3-0.8c0.6-0.4,1.2-0.9,1.8-1.3
		c41.9-26.2,66.9-63.7,75-112.4c1.4-8.1,1.7-16.5,1.8-24.7c0.3-17.8,0.1-35.7,0.1-53.5c0-5.4-1.3-6.6-6.7-6.6c-3.3,0-6.6,0-9.9,0
		C189.4,110.8,189.2,110.7,188.5,110.4z M253.6,167.7c0-0.4,0-0.7,0-1.1c0.1-4.7-1.4-6.9-5-7c-3.4-0.1-4.7,1.6-5,6.5
		c-1.1,16.3-4.8,31.9-11.7,46.8c-8.5,18.5-20.7,34-36.6,46.7c-3.1,2.5-3.5,5.1-1.4,7.6c2,2.4,4.7,2.6,7.5,0.4
		C233.2,241.9,250.4,208.5,253.6,167.7z M243.7,138.8c0,0.6,0,1.2,0,1.8c0.1,3.6,1.9,5.6,5,5.6c3.1,0,4.9-2,5-5.5
		c0-1.3,0.1-2.6,0-3.9c-0.2-3.1-2.1-4.7-5.1-4.6C245,132.2,243.7,134,243.7,138.8z"/>
	<path d="M108,181.4c-3.6,0-6.8,0.1-10-0.1c-0.8-0.1-2.1-1.1-2.3-2c-3.4-10.1-6.7-20.1-9.9-30.3c-0.4-1.2-0.2-2.8,0.1-4.2
		c2-9.2,4.1-18.4,6.2-27.7c0.9-4-0.5-6.7-3.8-7.5c-3.1-0.8-5.3,1.1-6.3,5.1c-1.9,8.3-3.8,16.6-5.6,24.9c-0.4,2.1-1.1,3-3.4,3
		c-12.4-0.1-24.8-0.1-37.2,0c-2.1,0-3.1-0.5-3.6-2.8c-1.7-8.2-3.7-16.3-5.6-24.5c-1-4.3-3-5.9-6.5-5.1c-3.3,0.7-4.5,3.3-3.6,7.5
		c2,9.1,4.1,18.2,6,27.3c0.3,1.5,0.3,3.3-0.2,4.8c-3.2,9.6-6.6,19.2-9.8,28.8c-0.7,2-1.5,2.9-3.7,2.8c-2.8-0.2-5.6,0-8.9,0
		c0-1.6,0-2.9,0-4.2c0-28,0-56,0-84.1c0-11.5,6.3-17.7,17.8-17.7c4.3,0,9.5-1.2,12.8,0.7c3.2,1.8,4.6,6.9,6.7,10.6
		c3.3,5.7,6.6,11.5,9.9,17.2c3.1,5.2,7.5,5.3,10.5,0.1c5-8.7,10.1-17.4,15-26.1c1.1-1.9,2.3-2.6,4.5-2.5c4.7,0.2,9.5,0,14.2,0
		c10.2,0,16.7,6.5,16.7,17c0,27,0,53.9,0,80.9C108,175.9,108,178.5,108,181.4z"/>
	<path d="M97,217.2c-28.5,0-56.7,0-85.2,0c0.3-1.2,0.5-2.2,0.8-3.2c6.1-19.1,12.3-38.1,18.4-57.2c0.8-2.6,1.9-3.7,4.9-3.7
		c12.4,0.2,24.8,0.1,37.2,0.1c1.7,0,3.1,0,3.8,2.1c6.6,20.2,13.3,40.3,19.9,60.5C97,216.1,96.9,216.5,97,217.2z"/>
	<path d="M22.1,29.3C22.8,16,28.4,6.1,40.2,0.6c10.9-5.1,21.6-3.7,30.9,4c10.4,8.6,13.7,19.9,10.6,32.8c-2.3,9.8-7.4,18.1-15.8,24
		c-8.6,6-18.3,6.1-26.7-0.1C28.1,53.4,22.9,42.3,22.1,29.3z"/>
	<path d="M30.3,228.1c16,0,31.6,0,47.4,0c-1.8,27.5-3.7,54.8-5.5,82.2c-4.4,0-8.5,0-13.1,0c0-1.4,0-2.6,0-3.9c0-11.9,0-23.9,0-35.8
		c0-0.7,0-1.4,0-2.1c-0.2-3.6-2-5.7-4.9-5.8c-3.1-0.1-5.2,2-5.3,5.8c-0.1,8.7,0,17.5,0,26.2c0,5.1,0,10.1,0,15.5
		c-4.4,0-8.5,0-13.1,0C34,282.9,32.1,255.7,30.3,228.1z"/>
</g>
</svg>
