<?xml version="1.0" encoding="utf-8"?>
<!-- Generator: Adobe Illustrator 23.0.0, SVG Export Plug-In . SVG Version: 6.00 Build 0)  -->
<svg version="1.1" id="Layer_1" xmlns="http://www.w3.org/2000/svg" xmlns:xlink="http://www.w3.org/1999/xlink" x="0px" y="0px"
	 viewBox="0 0 297 310.7" style="enable-background:new 0 0 297 310.7;" xml:space="preserve">
<style type="text/css">
	.st0{display:none;}
	.st1{display:inline;}
	.st2{display:inline;fill:none;stroke:#000000;stroke-width:12;stroke-miterlimit:10;}
	.st3{display:inline;fill:none;stroke:#000000;stroke-width:10;stroke-miterlimit:10;}
	.st4{display:inline;fill:none;stroke:#000000;stroke-width:7;stroke-miterlimit:10;}
	.st5{display:inline;fill:none;stroke:#000000;stroke-width:5;stroke-miterlimit:10;}
	.st6{fill:none;stroke:#000000;stroke-width:7;stroke-miterlimit:10;}
</style>
<g class="st0">
	<path class="st1" d="M183.7,21.6c-2.1,4.6-4.1,9.2-6.4,13.5c-1.7,3.2-2,6-0.5,9.4c1.6,3.6,2.7,7.4,4.3,11.8
		C125.5,47.1,76.4,60,34.6,97.4C4.9,124-12.8,157.6-18.8,197.1c-12,78.9,34.1,156,109.1,183.2c75.4,27.4,158.5-1.6,201.2-70.3
		c42.2-67.8,31.6-164.2-39.7-221c4.3-1.6,8.4-2.8,12.1-4.7c2-1,4.1-2.7,5.2-4.7c2.7-4.9,4.9-10.1,7.3-15.2
		c67.3,52.4,101.3,158.2,51.9,252.5c-49.1,93.7-163.9,134.4-260.5,92.4C-31.5,366-80.3,255.3-44.1,153.8C-8.3,53.2,94,4,183.7,21.6z
		"/>
	<path class="st1" d="M226.4,98c59.4,35.6,88.2,116.3,54.2,187.4C245.7,358.3,159.7,389,86.1,355.3c-72-32.9-105-119.2-73-191.9
		C46.2,88,127.3,61.1,190.1,81.4c-5.1,10.8-10,21.7-15.3,32.3c-0.4,0.9-3.2,1.3-4.6,1c-58.3-11.8-114.6,23.9-128.7,81.8
		c-15.3,62.6,28.5,126,92.4,133.8c61.2,7.5,116.3-35.2,122.8-96.2c4.3-40.3-10.4-73.4-42.1-98.8c-3.2-2.6-3.8-4.3-1.9-8.1
		C217.4,117.7,221.7,108,226.4,98z"/>
	<path class="st1" d="M201.1,152.1c34.8,24.2,45.1,75.4,23.1,113.2c-23.1,39.8-71.7,55.5-112.9,36.4c-41.7-19.3-61.8-67.1-46-109.9
		c16.5-44.7,62.4-64.4,99.3-56c-4.6,9.9-9,19.7-13.9,29.3c-0.6,1.2-3.4,1.6-5.2,1.7c-24.7,1.2-45,17.8-51.1,41.9
		c-7.6,29.9,11.7,60.3,42.3,67c29.9,6.5,60.2-14.2,65.2-44.3c2.9-17.4-1.5-32.6-12.9-46c-1-1.1-1.9-3.4-1.4-4.5
		C192,171.4,196.6,161.9,201.1,152.1z"/>
	<path class="st1" d="M139.3,190.1c-3.9,8.4-7.8,16.2-11.1,24.1c-3.7,8.9-0.6,18.6,7.1,23.9c7.6,5.3,18,4.5,24.8-2.1
		c2.3-2.3,4.1-5.3,5.5-8.2c3.7-7.4,7.1-15,10.6-22.7c7.4,9.4,6.7,25.6-1.5,36.5c-9.1,12.1-24.7,16.8-38.8,11.4
		c-14.2-5.4-22.9-19.6-21.3-34.8C116.1,204.6,126.6,192.3,139.3,190.1z"/>
	<path class="st1" d="M222.7-10.8c4.9,7.3,4.7,13.6,0.9,20.9c-7.2,13.8-13.4,28.2-20.3,42.9c-3.2-6.5-5.7-11.9-1.9-19
		c6.9-12.9,12.5-26.4,18.7-39.7C220.9-7.3,221.7-8.9,222.7-10.8z"/>
	<path class="st1" d="M239.6,69.6c5.3-11.3,10.4-22.3,15.5-33.3c1.5-3.3,3.1-6.6,4.7-9.9c4.6-9.8,4.6-9.8,16-12.5
		c-0.6,1.6-1,2.9-1.6,4.1c-6,12.8-12.4,25.4-17.7,38.5C253.4,64.2,248.8,68.8,239.6,69.6z"/>
</g>
<g class="st0">
	<path class="st2" d="M32.7,435.7c-0.9,1.4-1.6,2.5-2.3,3.6c-7.2,10.7-17.4,15.1-30,13.4c-10.2-1.3-18.6-12.1-18.6-23.3
		c0-40.5,0-81,0-121.4c0-1.8,0-3.5,0-5.9c-5.2,0-10,0-14.8,0c-10.8,0-16.5-5.5-16.6-16.2c-0.1-31.9-0.1-63.8,0-95.7
		c0.1-14.9,10.2-25,25.7-25.8c6.3-0.3,12.7-0.3,19,0c1.5,0.1,3.3,1.3,4.2,2.5c7,8.6,14.4,16.7,23.9,22.7c3.6,2.2,6.5,2.3,10.3,0.4
		c10.7-5.5,19.6-12.8,25.9-23.1c0.8-1.3,2.9-2.5,4.4-2.5c40.2-0.1,80.4-0.1,120.6-0.1c6.9,0,11.4,3.1,13.5,9.4
		c2.9,8.6,2.9,17.4,0.6,26.1c-1.9,7-5.8,9.4-13.1,9.4c-33.8-0.1-67.7-0.2-101.5-0.3c-0.5,0-1.1,0.1-2.4,0.2c0,1.7,0,3.4,0,5.1
		c0,70.7,0,141.4,0,212.2c0,13.5-7.6,23.4-19.3,25.2c-11.5,1.7-20.7-2-27.1-11.9C34.4,438.5,33.6,437.2,32.7,435.7z"/>
	<path class="st1" d="M104.1,122.9c0-11.1,0-21.6,0-32.7c10.3,0,20.5,0,30.7,0c10.1,0,20.1,0,30.5,0c0.2-1.6,0.4-2.9,0.5-4.2
		c1-9.2,5.6-15.9,14.5-18.9c12.3-4.2,24.7-4.3,37-0.1c9.5,3.2,13.7,9.8,13.9,19.8c0,1,0.1,1.9,0.2,3.4c1.7,0,3.3,0,4.9,0
		c28.3,0,56.6-0.1,85,0.1c20.2,0.2,30.6,11.1,30.6,31.5c0,71.7,0,143.4,0,215.1c0,3.6,0.1,7.2-0.1,10.8c-0.9,17.4-11,27.1-28.4,27.1
		c-39.1,0-78.2,0-117.3,0c-32.2,0-64.4,0-96.6,0c-1.6,0-3.3,0-5.2,0c0-10.2,0-20.1,0-30.5c1.9,0,3.7,0,5.4,0c61.9,0,123.8,0,185.7,0
		c2.7,0,5.5-0.2,8.2-0.7c9.9-1.9,15.5-7.8,17-17.7c0.3-1.9,0.4-3.9,0.4-5.8c0-56.8,0-113.6,0-170.3c0-8.9-1.7-17.5-10-22.3
		c-4.5-2.6-10-4.4-15.1-4.4c-62-0.3-124.1-0.2-186.1-0.2C108,122.9,106.2,122.9,104.1,122.9z"/>
	<path class="st3" d="M-12.2,106.7c-0.2-22.9,18.7-42.4,41.3-42.6c23.8-0.2,43.3,18.6,43.5,41.8c0.1,23-18.7,42.1-41.1,43
		C10,149.9-12.5,131.4-12.2,106.7z"/>
</g>
<g class="st0">
	<path class="st4" d="M26.3,356.6c-6-8.4-11.4-16.3-17.4-23.8c-1.1-1.4-4.6-2.1-6.5-1.5c-7.9,2.2-15.6,5-23.4,7.4
		c-9.6,3-13.9,1-17.1-8.5c-4.6-13.4-8.9-26.9-13.2-40.4c-2.4-7.4,0.2-12.6,7.7-15.2c7-2.4,14.1-4.9,21.3-6.7
		c5.8-1.5,7.8-4.1,7.4-10.5c-2.7-43.8,9.4-83.2,38.6-116.1C67.4,92.2,122.6,74,186.1,89.7c63.3,15.7,103.2,57.7,118.8,121.1
		c3.8,15.6,3,32.4,3.7,48.7c0.2,4.3,1.1,6.4,5.4,7.5c7.6,2.1,15.1,4.7,22.6,7.2c8.5,2.9,10.9,7.6,8.3,16.1
		c-4.4,13.7-8.8,27.5-13.3,41.1c-2.3,7.1-7.4,9.8-14.7,7.6c-8.3-2.4-16.6-5-24.7-7.9c-3.8-1.4-6-1.1-8.3,2.5
		c-4,6.3-8.5,12.3-13.3,18c-3,3.5-2.8,5.8,0,9.2c5,6.2,9.5,12.8,14.1,19.2c5.8,8.1,5.1,13.2-2.7,18.9c-11.3,8.3-22.5,16.5-33.9,24.6
		c-7.2,5.1-12.6,4.2-17.9-3c-5.2-7-10-14.2-15.4-21c-1.3-1.6-4.5-3-6.2-2.5c-9.2,2.7-18.1,6.1-27.8,9.4c0,9.7,0.1,19.8,0,29.9
		c-0.1,9.3-3.5,12.9-12.6,13c-14.2,0.2-28.4,0.2-42.6,0c-9.2-0.2-12.5-3.8-12.6-13c-0.1-8.4-0.2-16.9,0.1-25.3c0.1-4-1-6-5.2-7
		c-7.2-1.8-14.3-4-21.2-6.8c-3.6-1.4-5.6-1-7.8,2.1c-5.1,7.3-10.3,14.5-15.7,21.6c-4.9,6.5-10.2,7.4-16.8,2.8
		c-12-8.5-23.8-17.1-35.6-25.9c-6.3-4.7-7-10.3-2.4-16.9C14.3,372.9,20.5,364.6,26.3,356.6z M298.8,261.4
		c2.6-63-20.4-112.5-73.5-144.3C169.8,83.8,112.9,86,59.7,122.9C12.3,155.7-7.8,203-4.8,261.3c13.5,0,26.2,0,38.8,0
		c12.9,0,25.9,0,38.8,0c0.6,1.6,1.2,2.7,1.5,3.9c8.4,32.9,35.1,55.8,67.4,57.9c33.5,2.1,63.3-17.3,75.5-49.3
		c4.8-12.5,4.8-12.4,18.6-12.3C256.4,261.5,277.1,261.4,298.8,261.4z"/>
	<path class="st1" d="M212.3,191.3c-4.8,7.6-8.9,15.9-14.6,22.8c-12.5,15.2-25.3,30.2-38.9,44.4c-4.1,4.3-10.9,7-16.9,8.3
		c-7.6,1.6-12.6-4.3-10.4-11.9c1.5-5.1,4.1-10.6,7.8-14.3c19.2-19.4,40.5-36.1,64.8-48.9c2-1,4.2-1.6,6.3-2.4
		C211,189.9,211.6,190.6,212.3,191.3z"/>
	<path class="st1" d="M256.3,168.9c-6.2,3.7-11.1,6.6-14.2,8.4c-8.5-8.5-16.6-16.6-25.6-25.6c1.5-2.7,4.4-7.6,8.2-14.3
		C235.5,148.3,245.5,158.3,256.3,168.9z"/>
	<path class="st1" d="M280.3,233.8c-8,0-13.1,0-18.2,0c-3-11.1-6-21.8-9.2-33.4c4.4-2.6,9.5-5.6,16-9.5
		C272.8,205.2,276.4,218.9,280.3,233.8z"/>
	<path class="st1" d="M151.6,135.3c-3.3,0-6.1,0-9.4,0c0-8.3,0-16.3,0-24.8c3.1,0,6,0,9.4,0C151.6,118.9,151.6,126.9,151.6,135.3z"
		/>
	<path class="st1" d="M53.4,186.9c-2,3.3-3.6,5.9-5.3,8.8c-7.6-4.4-14.8-8.6-22.3-12.9c1.9-3.1,3.4-5.7,5.2-8.7
		C38.5,178.4,45.5,182.4,53.4,186.9z"/>
	<path class="st1" d="M268.1,182.7c-7.9,4.6-15,8.6-22.4,12.9c-1.7-2.7-3.3-5.3-5.3-8.7c7.4-4.3,14.5-8.5,22.2-12.9
		C264.4,176.9,266,179.4,268.1,182.7z"/>
	<path class="st1" d="M87,153.3c-4.5-7.8-8.5-14.8-12.9-22.4c3-1.8,5.6-3.3,8.8-5.1c4.4,7.4,8.4,14.4,12.9,22
		C92.9,149.7,90.3,151.3,87,153.3z"/>
	<path class="st1" d="M198.1,147.9c4.7-7.9,8.6-14.7,12.9-22c3,1.7,5.6,3.2,8.8,5c-4.4,7.6-8.5,14.7-12.9,22.5
		C203.8,151.5,201.1,149.8,198.1,147.9z"/>
	<path class="st1" d="M10.4,242.3c8.5,0,16.5,0,24.9,0c0.2,3.1,0.3,5.9,0.5,9.2c-8.6,0-16.8,0-25.4,0
		C10.4,248.5,10.4,245.8,10.4,242.3z"/>
	<path class="st1" d="M258.8,251.4c0-3.7,0-6.2,0-9.1c8.3,0,16.3,0,24.8,0c0,3.2,0,5.9,0,9.1C275.4,251.4,267.4,251.4,258.8,251.4z"
		/>
</g>
<g class="st0">
	<path class="st4" d="M346.7,177.7c0,78.2,0,156.4,0,234.6c-6.7,15.7-12.7,19.6-30,19.6c-23,0-46,0.1-69.1,0
		c-14.4,0-25-10.8-25.1-25.2c0-14.6,0-29.2,0-43.7c0-1.8,0-3.5,0-5.3c-29.1,0-57.6,0-86.6,0c8.2,16.6,16.3,32.7,24.4,49.1
		c-33.5,0-66.1,0-99.2,0c8.3-16.6,16.2-32.6,24.6-49.4c-2.8,0-4.7,0-6.7,0c-34.5,0-68.9,0-103.4,0c-16.1,0-26.6-10.4-26.6-26.3
		c0-65.4,0-130.9,0-196.3c0-15.4,10.4-25.9,25.8-25.9c90.6,0,181.2,0,271.9,0c15.3,0,25.5,10.3,25.5,25.6c0,7.9,0,15.8,0,24.1
		c2.4,0,4.2,0,6,0c14.7,0,29.5,0,44.2,0c7,0,13.1,2.4,17.6,7.8C342.8,169.7,344.5,173.9,346.7,177.7z M222.5,307.3
		c0-2.2,0-4.2,0-6.1c0-39.3,0-78.5,0-117.8c0-11.8,7.7-21.8,18.8-24.4c1.9-0.4,3.8-0.6,5.8-1c0-8.2,0-16.1,0-24.1
		c-91.1,0-181.9,0-272.9,0c0,57.9,0,115.4,0,173.3C56.9,307.3,139.5,307.3,222.5,307.3z M321.8,183.8c-25,0-49.6,0-74.1,0
		c0,8.3,0,16.1,0,24c24.9,0,49.4,0,74.1,0C321.8,199.7,321.8,191.9,321.8,183.8z M247.5,257.6c25,0,49.5,0,74.1,0
		c0-8.3,0-16.1,0-24.1c-24.8,0-49.4,0-74.1,0C247.5,241.6,247.5,249.3,247.5,257.6z M284.6,332.7c-6.9,0-12.3,5.4-12.3,12.2
		c0,6.8,5.5,12.2,12.4,12.2s12.3-5.5,12.2-12.3C296.9,338,291.5,332.6,284.6,332.7z M284.6,406.8c6.8,0,12.3-5.4,12.3-12.2
		c0-6.8-5.4-12.2-12.2-12.2c-6.9,0-12.3,5.3-12.4,12.1C272.4,401.3,277.8,406.8,284.6,406.8z"/>
</g>
<g class="st0">
	<path class="st4" d="M271,5.8c3.8,2,4.9,5.2,4.9,9.4c-0.1,32.6,0,65.1,0,97.7c0,3.4-0.1,6.9-3.6,8.8c-3.5,1.9-6.4,0.1-9.3-1.8
		c-16-10.5-31.9-20.9-48-31.2c-1.9-1.2-4.6-1.4-7.8-2.3c0,6.3,0,11.3,0,16.3c0,6.9,0.2,13.8-0.1,20.6c-0.4,10.9-8.8,19.3-19.7,19.7
		c-10,0.4-19.9,0.2-29.9,0.3c-1.5,0-3,0-4.8,0c0,11.8,0,23.1,0,34.9c1.6,0.1,3.2,0.2,4.8,0.2c22.7,0,45.5,0,68.2,0
		c7.2,0,9.1,2.1,9.2,9.3c0,4.2,0.1,8.4,0,12.6c-0.1,4.4-2.7,7.2-6.5,7.3c-3.9,0.1-6.7-2.8-7-7.3c-0.1-1.4,0-2.8,0-4.2
		c0-1.2,0-2.5,0-4c-23,0-45.7,0-68.8,0c-0.1,1.7-0.2,3.3-0.2,4.9c0,14,0,28.1,0,42.1c0,5.4-2.3,8.4-6.5,8.6
		c-4.3,0.1-6.9-3.2-6.9-8.7c0-14,0-28.1,0-42.1c0-1.5,0-3,0-4.8c-23.6,0-46.9,0-70.8,0c0,2.4,0.1,4.7,0,7c-0.2,4.1-2.7,6.9-6.3,7
		c-3.8,0.1-6.9-2.6-7.1-6.8c-0.2-4.2-0.1-8.4,0-12.6c0.1-6,2.4-8.4,8.5-8.4c19.9,0,39.9,0,59.8,0c5.1,0,10.1,0,15.5,0
		c0-11.6,0-23,0-35.1c-2.5,0-5.1,0-7.7,0c-6.7,0-13.5,0-20.2-0.1c-12.9-0.2-21.6-8.8-21.9-21.7c-0.2-11.2,0-22.4,0-33.5
		c-3.1-2.1-5.5-1.1-8.2,0.6c-15.9,10.5-31.9,20.9-47.9,31.3c-2.8,1.8-5.6,3.4-9,1.5c-3.3-1.9-3.6-5-3.6-8.4
		c0.1-32.6,0.1-65.1,0-97.7c0-4.1,0.9-7.4,4.2-9.9c1.7,0,3.4,0,5.1,0C47,17.5,64.8,29.1,81.7,40.3c3.3-0.7,5.7-1.7,8.1-1.7
		c14.5-0.2,28.9-0.1,43.4-0.1c6,0,8.2,2.2,8.2,8.1c0.1,10.3,0,20.5,0,30.7c0,7.9-0.6,8.6-8.6,11.1c0,13.6,0,27.5,0,41.5
		c10,0,20.4,0,30.3,0c0-14.2,0-28.1,0-41.9c-7.1-1.4-8.5-2.9-8.5-9.4c0-10.5-0.1-21.1,0-31.6c0-6.5,2.1-8.5,8.6-8.6
		c12.6,0,25.3-0.2,37.9,0.1c3.8,0.1,7.6,1.2,11.4,1.7c0.9,0.1,1.9-0.2,2.7-0.7c17.3-11.2,34.5-22.5,51.7-33.8
		C268.2,5.8,269.6,5.8,271,5.8z M95.3,72.8c11.1,0,21.7,0,32.3,0c0-7.1,0-13.8,0-20.5c-11,0-21.6,0-32.3,0
		C95.3,59.2,95.3,65.9,95.3,72.8z M200.7,52.2c-10.9,0-21.6,0-32.5,0c0,7,0,13.7,0,20.5c10.9,0,21.6,0,32.7,0c0-6,0-11.7,0-17.5
		C201,54.3,200.8,53.4,200.7,52.2z"/>
	<path class="st4" d="M147.7,437.6c-14.3-0.3-28.3-2.3-42-6.5c-20.7-6.4-27.2-18.4-21.4-39.2c10.1-36.2,50.6-56.2,86.8-42.8
		c24.6,9.1,41.1,30.7,42.5,55.1c0.5,9.3-3.3,16-10.8,20.9c-9.3,6.1-19.7,8.7-30.5,10.2C164.3,436.4,156,436.9,147.7,437.6z"/>
	<path class="st4" d="M119.1,332.6c-28.7,11.3-46.3,31.9-52.9,62.2c-11,0.5-21.9-0.3-32.5-2.7c-6.5-1.5-13.1-3.3-19.2-6
		c-14-6.1-18.5-14.9-16-30C3.3,326.2,29.3,304,60.8,303c23.4-0.8,42.3,8.4,56.6,26.9C117.9,330.6,118.4,331.5,119.1,332.6z"/>
	<path class="st4" d="M229.8,394.9c-2.8-14.5-8.6-27.3-18-38.3c-9.4-11-20.9-18.9-34.9-24c6.3-9.6,14.3-16.6,23.9-21.9
		c34.7-19.4,81.5-2.3,94.1,34.6c1.9,5.5,2.6,11.5,3.4,17.3c1,8.5-2.8,15.1-9.8,19.5c-4.6,2.9-9.6,5.2-14.7,7
		C259.6,394,245,394.8,229.8,394.9z"/>
	<path class="st1" d="M63.5,285.8c-18.2,0.1-32.8-14.4-33-32.8c-0.2-18,14.6-32.9,32.8-33c18-0.2,33.1,14.8,33,32.8
		C96.3,271.1,81.8,285.7,63.5,285.8z M62.9,272.3c10.8,0.3,19.8-8.3,19.9-19.1c0.2-10.5-8.3-19.3-19-19.7
		c-10.4-0.4-19.5,8.1-19.8,18.8C43.7,263.1,52,272,62.9,272.3z"/>
	<path class="st1" d="M232.8,285.7c-18.3,0-33-14.5-33.1-32.7c-0.1-18,14.9-33.2,32.8-33.1c18.2,0,33,14.7,33.1,32.8
		C265.5,271,251,285.7,232.8,285.7z M252,252.9c0-10.6-8.5-19.3-19.1-19.5c-10.7-0.1-19.8,8.8-19.7,19.4
		c0.1,10.7,8.6,19.3,19.2,19.4C243.3,272.4,251.9,263.8,252,252.9z"/>
	<path class="st1" d="M180.9,295c0,18.3-14.5,32.9-32.7,33.1c-18.1,0.2-33.1-14.7-33.1-32.8c0-18.3,14.7-33.1,32.7-33.1
		C166.1,262.3,180.9,276.9,180.9,295z M167.4,295.2c-0.1-10.8-8.9-19.5-19.6-19.4c-10.6,0.1-19.2,8.8-19.2,19.4
		c0,10.7,8.9,19.6,19.6,19.4C158.9,314.5,167.5,305.8,167.4,295.2z"/>
	<path class="st1" d="M350.3,66.1c-0.4,18.6-6.5,35.2-19.3,49.1c-3.6,3.9-7.4,4.5-10.6,1.6c-3-2.7-2.8-6.6,0.5-10.4
		c21.8-25.3,21.3-58.1-1.4-82.6c-3.5-3.8-3.8-7.4-0.8-10.4c2.9-2.9,7.1-2.5,10.7,1.2C343.2,28.8,350,46,350.3,66.1z"/>
	<path class="st1" d="M-54.4,67.8c0.3-21.5,7.1-38.7,20.9-52.9c1.5-1.5,3.8-3.2,5.6-3.1c2.3,0.2,5,1.8,6.4,3.6
		c2,2.7,0.7,5.6-1.6,7.9c-7.1,7.1-12.3,15.3-15.1,24.9c-6,21.1-2,40.2,12.2,57c0.6,0.8,1.4,1.4,2,2.2c2.4,3.2,2.2,6.9-0.6,9.4
		c-2.8,2.5-6.5,2.4-9.4-0.6c-10.3-10.7-16.7-23.5-19.2-38.1C-54,74.2-54.1,70.1-54.4,67.8z"/>
	<path class="st1" d="M-16.5,65.8c0-9.9,3.5-18.3,10.5-25.4c3.3-3.4,7-3.6,10-0.8c3.1,2.9,3,6.4-0.1,10c-8.8,10-9.2,20.7-1.3,31.3
		c2.8,3.8,2.5,7.4-0.9,9.9c-3.3,2.5-6.6,2-9.6-1.6C-13.6,82.6-16.6,74.7-16.5,65.8z"/>
	<path class="st1" d="M312.5,65c0.1,9.1-2.9,17.1-8.8,24c-3.2,3.7-7.1,4.3-10.3,1.7c-3.1-2.5-3.1-6.6-0.1-10.4
		c8-9.8,7.8-21.2-0.4-30.6c-3.3-3.8-3.5-7.7-0.6-10.4c3-2.7,7-2.2,10.4,1.3C309,47.2,312.4,55.6,312.5,65z"/>
</g>
<g class="st0">
	<path class="st4" d="M14.1,346.9c-6.7-23.6-13-45.5-19-67.5c-0.4-1.4,2-4.5,3.7-5.2c24.2-8.8,48.4-17.8,73-25.6
		c12.4-3.9,24.6,0.6,36.2,5.5c22.8,9.5,46.1,17.5,70.9,18.5c15.4,0.6,31-2.1,46.5-2.7c5.8-0.2,15.4-0.3,16.8,2.7
		c3.6,7.6-3.5,13.8-9.8,16c-17.1,5.9-34.7,10.1-52.1,14.9c-0.6,0.2-1.3,0-1.9,0.2c-4.4,1.8-8.8,3.6-13.2,5.4
		c4.1,3.1,7.9,8.4,12.3,8.8c10.2,1,21.1,1.4,31-0.9c40.5-9.5,79.4-23.3,114.7-45.9c9.7-6.2,20.4-6.4,24.8-1c5,6.1,2.1,16.9-7.1,25.2
		c-56.6,50.7-122.1,77.9-199,73.2c-30.8-1.9-60.7-8.5-88.5-22.1C40.2,340,28,334.3,14.1,346.9z"/>
	<path class="st5" d="M193.1,132.9c-0.6,3.7-0.5,7.8-2.1,11c-1.3,2.6-4.8,5.8-7.1,5.6c-2.5-0.2-6.8-4.1-6.7-6.2
		c0.8-19.1,1.7-38.2,4-57.2c0.9-7.4,24.2-16.9,31.7-15.9c7.7,1,15.6-0.2,23.5-0.1c4.1,0.1,8.6,0.1,12.3,1.7
		c15.6,6.4,22.5,17.7,21.1,35.1c-0.9,10,1.1,20.3,2,30.5c0.6,5.8,0.7,11.7-6.6,12.4c-6.8,0.7-8.1-4.7-8.2-10.3
		c0-1.8-0.7-3.5-2.6-5.1c0,13.5,0,27,0,40.5c0,20.7,0,41.5,0,62.2c0,2.2,0,4.5,0,6.7c-0.4,11-5.6,17.8-13.4,17.6
		c-7.4-0.2-12.6-6.9-12.7-17.3c-0.2-14.7,0.2-29.4-0.3-44c-0.1-4.4-2.6-8.6-4-12.9c-1,4.3-2.7,8.6-2.8,12.9
		c-0.4,13.1-0.1,26.1-0.2,39.2c0,3.5-0.3,7-1,10.4c-1.4,6.4-4.7,11.4-12,11.6c-7.9,0.3-11.3-5.2-13-11.7c-0.9-3.3-0.8-6.9-0.8-10.4
		c-0.1-35.4,0-70.8,0-106.2C193.8,133,193.5,133,193.1,132.9z"/>
	<path class="st5" d="M120,113.7c-2.8,6.4-0.1,16.1-10.3,15.2c-10.8-0.9-6.8-10.2-6.4-16.7c0.8-13.1,2.2-26.1,2.5-39.2
		c0.2-6.5,2.2-10.9,7.9-14c4.5-2.4,8.3-6.2,13-8c3.6-1.4,8.1-1,12.2-1c7.5-0.1,15.1,0,22.6,0.3c4.6,0.2,9.3,0.5,13.8,1.4
		c2,0.4,3.8,2.3,5.6,3.5c16.5,10.6,16.3,10.4,1.2,22.8c-3.1,2.5-5.8,7.1-6.2,11.1c-1.8,16.5-2.8,33.1-3.7,49.6
		c-0.2,3.6,0.4,8.9,2.6,10.6c6.6,4.9,6,11.1,6,17.7c-0.1,16.6-0.1,33.2-0.1,49.8c0,1.9,0.1,3.8,0,5.8c-0.5,11.1-5.5,18.2-13,18.4
		c-8,0.2-13.6-7.2-13.7-18.5c-0.1-16,0.1-31.9-0.2-47.9c-0.1-2.6-2.2-5.1-3.3-7.6c-1.2,2.5-3.5,4.9-3.5,7.4
		c-0.3,15.6,0,31.3-0.3,46.9c-0.1,4-0.2,8.9-2.4,11.9c-2.5,3.5-7.3,7.3-11,7.2c-3.7-0.1-8.7-4-10.6-7.6c-2.3-4.2-2.5-9.8-2.5-14.8
		c-0.2-31-0.1-61.9-0.1-92.9C120,121.3,120,117.5,120,113.7z"/>
	<path class="st5" d="M328.7,111.8c0,36,0.1,72-0.1,108c0,4.4,0,9.6-2.2,12.9c-2.5,3.7-7.7,7.9-11.5,7.8c-3.9-0.2-8.6-4.8-10.9-8.6
		c-2.1-3.5-2-8.6-2-13c-0.2-15,0-30-0.2-45c0-2.2-2.1-4.4-3.3-6.6c-1.2,2.2-3.4,4.3-3.5,6.6c-0.3,13.7-0.2,27.5-0.2,41.2
		c0,3.2,0.1,6.4-0.1,9.6c-0.6,10.4-5.9,16.9-13.5,16.6c-7.2-0.3-12.2-6.6-12.6-16.5c-0.1-3.2,0-6.4,0-9.6c0-16,0-31.9,0-47.9
		c0-6.6-0.9-13.1,5.7-18c1.9-1.4,2.4-5.8,2.3-8.8c-1-17.5-1.6-35.2-4.3-52.4c-0.8-5.3-7.5-10.2-12.3-14.3c-6.4-5.3-6.9-8.1-0.2-12.9
		c5.2-3.7,10.4-7.5,16.1-10.2c3-1.4,7-0.7,10.6-0.7c7.8,0,15.6,0.2,23.4,0.4c4.4,0.2,9-0.2,13,1.2c16.7,6,22.1,18.7,21.4,35.7
		c-0.4,10.5,1.1,21,1.8,31.5c0.3,5.1-0.1,9.9-6.7,10.6c-6.7,0.7-7.7-4.2-8.5-9.2c-0.4-2.8-0.7-5.6-1.1-8.3
		C329.4,111.7,329,111.8,328.7,111.8z"/>
	<path class="st4" d="M14,356.3c-1.7,1.4-3.8,4.3-6.5,5.3c-7.8,2.8-15.9,4.7-23.8,7c-6.3,1.9-9.6-0.9-11.3-6.8
		c-7.1-25.1-14.3-50.2-21.3-75.4c-1.8-6.4-0.8-11,7.1-12.5c7.5-1.4,14.8-3.8,22-6.2c5.5-1.9,8.9-0.2,10.4,5
		c7.5,26.3,14.9,52.6,22.3,79C13.2,352.5,13.3,353.4,14,356.3z"/>
	<path class="st5" d="M150,45.6c-12.6-0.2-22.3-10.2-22.1-22.7c0.2-12.5,10.3-22.4,22.7-22.1c12.5,0.3,22.2,10.3,22,22.8
		C172.4,36.2,162.5,45.9,150,45.6z"/>
	<path class="st5" d="M298.1,45.7c-12.5-0.2-22-10-21.8-22.7c0.2-12.6,10.2-22.4,22.5-22.1c12.2,0.3,22.3,10.7,22.1,22.9
		C320.7,36.1,310.5,45.9,298.1,45.7z"/>
	<path class="st5" d="M246.6,43.6C246.7,56.3,237,66,224.4,66c-12.7,0-22.5-9.7-22.5-22.2c0-12.3,10-22.4,22.4-22.4
		C236.9,21.3,246.5,30.9,246.6,43.6z"/>
</g>
<path d="M55.3,48.8c-0.1-1.3-0.2-2.1-0.3-2.9c-0.4-6,1.7-8.3,7.7-8.3c8.5,0,16.9,0,25.4,0c1.7,0,3.3,0,5.4,0
	c0.5-6.4,1-12.5,1.6-18.6c0.9-8.5,4.9-14.8,13.1-17.8c7.5-2.7,15.7-0.4,21,5.6c3.8,4.3,4.8,9.5,5.2,14.9c0.4,5.2,0.9,10.4,1.3,15.8
	c9.9,0,19.4,0,28.9,0c8.7,0,10.6,2.2,9.3,11.2c8.5,0,17,0.2,25.4,0c16-0.6,26.6,12,26.2,26.2c-0.6,24-0.2,48-0.1,72c0,1.3,0,2.5,0,4
	c-3.1,0-6,0-9.4,0c0-5,0-10,0-14.9c0-20.5,0-41.1,0-61.6c0-10.1-5.6-15.8-15.6-15.9c-9-0.1-18-0.1-27,0.1c-1.6,0-3.5,1.2-4.6,2.4
	c-6.5,8-14.6,12-25.1,11.9c-19-0.2-37.9-0.1-56.9,0.1C75.8,73.2,66.7,69.5,60,60.3c-0.7-0.9-2.3-1.6-3.5-1.6
	c-9.2-0.1-18.5-0.2-27.7,0c-8.9,0.1-14.5,6.1-14.5,15c0,70.9,0,141.7,0,212.6c0,8.9,6,15.1,14.9,15.1c57.4,0,114.7,0,172.1,0
	c8,0,14.1-5.8,14.7-13.8c0.1-1.1,0.1-2.2,0.2-3.6c3.1,0,6,0,8.8,0c1.9,11-5.6,23.1-16.1,25.6c-3.1,0.7-6.3,1.1-9.5,1.1
	c-45.6,0.1-91.1,0-136.7,0c-11,0-22.1,0-33.1,0c-14.8,0-24.8-10-24.9-24.9c-0.1-19,0-38,0-57c0-51.5,0-102.9,0-154.4
	c0-15.7,10-25.7,25.8-25.7C38.7,48.8,46.9,48.8,55.3,48.8z M114.8,51.1c-10.9,0-21.8,0-32.7,0c-2.6,0-5.3,0.3-5.3,3.5
	c0,3,2.6,3.3,5.1,3.3c21.9,0,43.8,0,65.7,0c2.6,0,5-0.6,4.9-3.5c-0.1-2.9-2.5-3.4-5.1-3.4C136.6,51.2,125.7,51.2,114.8,51.1z
	 M122.9,18.2c0-4.6-3.7-8.2-8.4-8.1c-4.5,0.1-7.9,3.6-8,8.1c-0.1,4.7,3.5,8.3,8.1,8.3C119.3,26.5,122.9,22.9,122.9,18.2z"/>
<path class="st6" d="M258.9,158.3c-1.3,5.7-2.6,10.9-3.6,16.1c-0.2,1.3,0.4,3,1.2,4.2c3.7,5.6,8.6,6.6,14.7,4c3-1.3,6.4-1.7,10-2.6
	c3.3,7.7,6.5,15.3,9.9,23.1c-4.7,2.9-9.1,5.7-13.6,8.4c-2.1,1.2-2.6,2.6-2.9,5.1c-0.6,5.9,1.2,9.6,6.7,11.9c3.4,1.4,6.3,3.8,9.7,6
	c-3,7.6-6.1,15.2-9.3,23.1c-5.3-1.3-10.5-2.4-15.6-3.8c-2.2-0.6-3.4,0.2-5.3,1.5c-5.5,3.9-5.6,8.6-3.4,14.2
	c1.2,3.1,1.6,6.4,2.5,10.1c-7.2,3.1-14.4,6.3-21.7,9.2c-0.6,0.3-2.3-0.8-2.8-1.6c-2.5-3.7-4.8-7.6-7-11.5c-1.1-2-2.5-2.5-4.8-2.8
	c-6-0.8-9.5,1.4-11.9,6.8c-1.5,3.5-3.8,6.6-5.9,10.1c-7.8-3.1-15.4-6.2-23.3-9.4c1.3-5.5,2.3-10.9,3.8-16.2c0.6-2.2-0.2-3.3-1.4-5
	c-3.7-4.9-8-5.8-13.5-3.4c-2.5,1.1-5.5,1.3-8.1,2.2c-2.2,0.8-3.2,0-4-2c-2.8-6.8-5.7-13.5-8.6-20.5c4.6-2.9,9.2-5.8,14-8.6
	c2-1.2,2.3-2.6,2.6-4.8c1-6.6-2.4-9.7-7.7-12.1c-3.1-1.5-5.9-3.5-9.1-5.4c2.9-7.4,5.8-14.6,8.8-21.8c0.3-0.6,2.1-1.1,3-0.9
	c4.4,0.9,8.7,2,13.1,3.1c2.3,0.6,3.7-0.2,5.7-1.7c5.1-3.8,5.2-8.3,3.3-13.6c-1.2-3.3-1.8-6.9-2.7-10.6c7-3,13.9-6,21-8.7
	c0.9-0.3,2.8,0.6,3.5,1.5c2.6,3.6,5,7.5,7.2,11.3c1.1,1.9,2.5,2.2,4.6,2.5c6.3,0.9,10-1.7,12.4-7.4c1.4-3.3,3.6-6.1,5.5-9.3
	C243.4,152,251,155,258.9,158.3z M254.9,219c-0.2-18.7-15.6-33.9-34.3-33.8c-18.8,0.1-33.9,15.7-33.7,34.7
	c0.2,18.3,16,33.8,34.3,33.4C240,253,255,237.7,254.9,219z"/>
<path d="M74.4,231.3c3.9-3.4,7.2-6.3,10.5-9c1.7-1.4,3.7-4.4,6-1.6c2,2.4-0.7,4-2.4,5.5c-2.7,2.4-5.2,5.1-8.1,7
	c-4.9,3.2-6.9,7.4-6.1,13.2c0.4,2.6,0.1,5.4,0.1,8.1c-0.1,3.4-1.8,5.3-5.2,5.3c-9.4,0-18.7,0.1-28.1,0c-3.4,0-5.2-2.1-5.2-5.4
	c-0.1-9.2-0.1-18.5,0-27.7c0-3.7,2-5.4,5.9-5.4c8.6,0,17.2,0,25.7,0c5.5,0,6.8,1.3,6.9,6.7C74.4,228.8,74.4,229.5,74.4,231.3z
	 M41.4,226.6c0,9.4,0,18.4,0,27.6c9.3,0,18.5,0,27.5,0c0-3.6,0-6.8,0-10.8c-3,2.6-5.4,4.7-7.9,6.9c-2.1,1.8-4,2-5.7-0.7
	c-2.4-3.8-4.8-7.5-7.3-11.3c-1.2-1.8-1.9-3.8,0.5-4.8c1-0.4,3.2,0.9,4.1,2c2.3,2.9,4.1,6.1,6.3,9.4c5.6-5.1,13.4-8.4,9.6-18.2
	C59.7,226.6,50.8,226.6,41.4,226.6z"/>
<path d="M74.6,102.4c4.1-3.6,7.6-6.9,11.3-9.7c1.2-0.9,4-1.5,4.8-0.8c2,1.7,0.3,3.4-1.2,4.7c-4.3,3.8-8.8,7.5-13,11.4
	c-1.1,1.1-1.9,2.9-2.1,4.5c-0.3,4.2,0,8.5-0.1,12.7c0,4-1.6,5.7-5.5,5.8c-9.1,0.1-18.2,0.1-27.3,0c-3.8,0-5.6-1.9-5.6-5.7
	c-0.1-9-0.1-18,0-26.9c0-4.2,1.7-5.7,6-5.7c8.3,0,16.7,0,25,0c6.7,0,7.4,0.7,7.6,7.5C74.4,100.6,74.5,101,74.6,102.4z M41.4,97.9
	c0,9.3,0,18.4,0,27.7c9.2,0,18.2,0,27.5,0c0-3.5,0-6.9,0-10.9c-2.9,2.5-5.2,4.5-7.6,6.6c-3,2.6-4.1,2.4-6.3-1
	c-2.3-3.4-4.4-6.9-6.7-10.3c-1.2-1.8-2.5-3.8,0-5.3c2.2-1.4,3.4,0.6,4.5,2.2c2,3,4,6.1,6,9.2c5.9-5,13.3-8.6,9.8-18.1
	C59.6,97.9,50.5,97.9,41.4,97.9z"/>
<path d="M74.4,166.9c4.4-3.8,7.9-7.2,11.8-10.1c1.1-0.8,3.7-1.3,4.5-0.7c1.9,1.6,0.6,3.4-1,4.8c-4.3,3.7-8.5,7.5-12.8,11
	c-1.9,1.5-2.6,3.2-2.5,5.6c0.2,4.1,0.1,8.2,0,12.3c-0.1,3.8-1.6,5.3-5.4,5.4c-9.1,0.1-18.2,0-27.3,0c-4.1,0-5.7-1.5-5.8-5.5
	c-0.1-9.1,0-18.2,0-27.3c0-3.6,2-5.5,5.5-5.5c9.2-0.1,18.5-0.1,27.7,0c3.7,0.1,5.2,1.8,5.3,5.6C74.4,163.7,74.4,164.8,74.4,166.9z
	 M68.9,179.1c-2.9,2.4-5.4,4.4-7.6,6.6c-2.4,2.3-4.3,2.3-6.1-0.7c-2.3-3.7-4.7-7.3-7.1-11c-1.1-1.7-2.2-3.8,0.2-4.8
	c1-0.4,3.3,0.8,4.2,1.9c2.3,2.9,4.1,6.1,6.1,9.2c10.2-6.8,11.9-9.9,9.9-17.9c-9,0-18,0-27.2,0c0,9.3,0,18.4,0,27.7
	c9.2,0,18.3,0,27.5,0C68.9,186.4,68.9,183.1,68.9,179.1z"/>
<path d="M144,125c13.7,0,27.4,0,41.2,0c1,0,2.2-0.3,3,0.1c1,0.5,2.2,1.6,2.3,2.6c0.1,0.9-1,2.3-1.9,2.9c-0.9,0.5-2.2,0.4-3.3,0.4
	c-27.6,0-55.1,0-82.7,0c-0.9,0-2,0.3-2.6-0.1c-1.1-0.8-2.6-2-2.6-3.1c0-0.9,1.7-2.4,2.9-2.7c2.1-0.4,4.3-0.1,6.5-0.1
	C119.1,125,131.6,125,144,125z"/>
<path d="M149.7,259.8c-5.5,0-11,0-16.5,0c-10.5,0-21,0-31.5,0c-2.2,0-4.4-0.1-4.5-2.9c-0.1-3,2.2-3.3,4.5-3.3c13.7,0,27.4,0,41.2,0
	C148.4,253.6,148.4,253.6,149.7,259.8z"/>
<path d="M145.4,189.3c-0.7,4.1-1.8,6.2-6.4,6.1c-12.4-0.4-24.8-0.1-37.2-0.1c-2.2,0-4.7,0.2-4.7-3c0.1-2.8,2.3-3,4.4-3
	C116.1,189.3,130.5,189.3,145.4,189.3z"/>
</svg>
