<?xml version="1.0" encoding="utf-8"?>
<!-- Generator: Adobe Illustrator 23.0.0, SVG Export Plug-In . SVG Version: 6.00 Build 0)  -->
<svg version="1.1" id="Layer_1" xmlns="http://www.w3.org/2000/svg" xmlns:xlink="http://www.w3.org/1999/xlink" x="0px" y="0px"
	 viewBox="0 0 341 310.7" style="enable-background:new 0 0 341 310.7;" xml:space="preserve">
<style type="text/css">
	.st0{display:none;}
	.st1{display:inline;}
	.st2{display:inline;fill:none;stroke:#000000;stroke-width:12;stroke-miterlimit:10;}
	.st3{display:inline;fill:none;stroke:#000000;stroke-width:10;stroke-miterlimit:10;}
	.st4{fill:none;stroke:#000000;stroke-width:7;stroke-miterlimit:10;}
</style>
<g class="st0">
	<path class="st1" d="M210.7-90c-2.1,4.6-4.1,9.2-6.4,13.5c-1.7,3.2-2,6-0.5,9.4c1.6,3.6,2.7,7.5,4.3,11.8
		c-55.6-9.3-104.7,3.7-146.4,41.1C31.9,12.4,14.2,46,8.2,85.4c-12,78.9,34.1,156,109.1,183.2c75.4,27.4,158.5-1.6,201.2-70.3
		c42.2-67.8,31.6-164.2-39.7-221c4.3-1.6,8.4-2.8,12.1-4.7c2-1,4.1-2.7,5.2-4.7c2.7-4.9,4.9-10.1,7.3-15.2
		c67.3,52.3,101.3,158.2,51.9,252.5c-49.1,93.7-163.9,134.4-260.5,92.4C-4.5,254.4-53.3,143.7-17.1,42.1
		C18.7-58.5,121-107.7,210.7-90z"/>
	<path class="st1" d="M253.4-13.7c59.4,35.6,88.2,116.3,54.2,187.4c-34.9,72.9-120.9,103.6-194.5,69.9c-72-32.9-105-119.2-73-191.9
		c33.2-75.4,114.2-102.3,177-82c-5.1,10.8-10,21.7-15.3,32.3c-0.4,0.9-3.2,1.3-4.6,1C138.9-8.8,82.6,27,68.5,84.9
		c-15.3,62.6,28.5,126,92.4,133.8c61.2,7.5,116.3-35.2,122.8-96.2c4.3-40.3-10.4-73.4-42.1-98.8c-3.2-2.6-3.8-4.3-1.9-8.1
		C244.4,6.1,248.7-3.7,253.4-13.7z"/>
	<path class="st1" d="M228.1,40.5c34.8,24.2,45.1,75.4,23.1,113.2c-23.1,39.8-71.7,55.5-112.9,36.4c-41.7-19.3-61.8-67.1-46-109.8
		c16.5-44.7,62.4-64.4,99.3-56c-4.6,9.9-9,19.7-13.9,29.3c-0.6,1.2-3.4,1.6-5.2,1.7c-24.7,1.2-45,17.8-51.1,41.9
		c-7.6,29.9,11.7,60.3,42.3,66.9c29.9,6.4,60.2-14.2,65.2-44.3c2.9-17.4-1.5-32.6-12.9-46c-1-1.1-1.9-3.4-1.4-4.5
		C219,59.7,223.6,50.3,228.1,40.5z"/>
	<path class="st1" d="M63.1,306c7.8,3.9,15.1,7.5,22.7,11.3c-0.7,1.3-1.2,2.6-1.9,3.9c-12,20.5-24.1,41-35.9,61.6
		c-2.3,4.1-5.3,5.9-10.1,5.7c-7.3-0.3-14.6-0.1-23-0.1C31.2,360.7,47,333.6,63.1,306z"/>
	<path class="st1" d="M286.4,306.3c16,27.4,31.8,54.4,48,82.2c-9.3,0-17.7,0.2-26.1-0.2c-1.9-0.1-4.5-1.9-5.5-3.6
		c-13.2-22.1-26.1-44.4-39.4-66.9C271.1,313.9,278.5,310.3,286.4,306.3z"/>
	<path class="st1" d="M166.3,78.4c-3.9,8.4-7.8,16.2-11.1,24.1c-3.7,8.9-0.6,18.6,7.1,23.9c7.6,5.2,18,4.5,24.8-2.1
		c2.3-2.3,4.1-5.3,5.5-8.2c3.7-7.4,7.1-15,10.6-22.7c7.4,9.4,6.7,25.6-1.5,36.5c-9.1,12.1-24.7,16.8-38.8,11.4
		c-14.2-5.4-22.9-19.6-21.3-34.8C143.1,92.9,153.6,80.6,166.3,78.4z"/>
</g>
<g class="st0">
	<path class="st2" d="M59.7,324.1c-0.9,1.4-1.6,2.5-2.3,3.6c-7.2,10.7-17.4,15-30,13.4C17.2,339.8,8.8,329,8.8,317.8
		c0-40.5,0-81,0-121.4c0-1.8,0-3.5,0-5.9c-5.2,0-10,0-14.8,0c-10.8,0-16.5-5.5-16.6-16.2c-0.1-31.9-0.1-63.8,0-95.7
		c0.1-14.9,10.2-25,25.7-25.8c6.3-0.3,12.7-0.3,19,0c1.5,0.1,3.3,1.3,4.2,2.5C33.4,64,40.8,72,50.3,78c3.6,2.2,6.5,2.3,10.3,0.4
		C71.3,73,80.2,65.7,86.5,55.3c0.8-1.3,2.9-2.5,4.4-2.5c40.2-0.1,80.4-0.1,120.6-0.1c6.9,0,11.4,3.1,13.5,9.4
		c2.9,8.6,2.9,17.4,0.6,26.1c-1.9,7-5.8,9.4-13.1,9.4c-33.8-0.1-67.7-0.2-101.5-0.3c-0.5,0-1.1,0.1-2.4,0.2c0,1.7,0,3.4,0,5.1
		c0,70.7,0,141.4,0,212.2c0,13.5-7.6,23.4-19.3,25.1c-11.5,1.7-20.7-2-27.1-11.9C61.4,326.8,60.6,325.6,59.7,324.1z"/>
	<path class="st1" d="M131.1,11.2c0-11.1,0-21.6,0-32.7c10.3,0,20.5,0,30.7,0c10.1,0,20.1,0,30.5,0c0.2-1.6,0.4-2.9,0.5-4.2
		c1-9.2,5.6-15.9,14.5-18.9c12.3-4.2,24.7-4.3,37-0.1c9.5,3.2,13.7,9.8,13.9,19.8c0,1,0.1,1.9,0.2,3.4c1.7,0,3.3,0,4.9,0
		c28.3,0,56.6-0.1,85,0.1c20.2,0.2,30.6,11.1,30.6,31.5c0,71.7,0,143.4,0,215.1c0,3.6,0.1,7.2-0.1,10.8c-0.9,17.4-11,27.1-28.4,27.1
		c-39.1,0-78.2,0-117.3,0c-32.2,0-64.4,0-96.6,0c-1.6,0-3.3,0-5.2,0c0-10.2,0-20.1,0-30.5c1.9,0,3.7,0,5.4,0c61.9,0,123.8,0,185.7,0
		c2.7,0,5.5-0.2,8.2-0.7c9.9-1.9,15.5-7.8,17-17.7c0.3-1.9,0.4-3.9,0.4-5.8c0-56.8,0-113.6,0-170.3c0-8.8-1.7-17.5-10-22.3
		c-4.5-2.6-10-4.4-15.1-4.4c-62-0.3-124.1-0.2-186.1-0.2C135,11.2,133.2,11.2,131.1,11.2z"/>
	<path class="st3" d="M14.8-5c-0.2-22.9,18.8-42.4,41.3-42.5c23.8-0.2,43.3,18.6,43.5,41.8c0.1,23-18.7,42.1-41.1,43
		C37,38.2,14.5,19.7,14.8-5z"/>
	<path class="st1" d="M298.9,341.7c-8.6,0-16.7,0.1-24.8-0.1c-1.2,0-2.5-1.5-3.5-2.5c-13.8-14.7-27.5-29.5-41.1-44.3
		c-1-1.1-1.9-2.3-3-3.6c-13.9,15.4-27.5,30.3-40.9,45.3c-1.9,2.1-3.8,3.1-6.7,3c-7-0.2-14.1-0.1-21.9-0.1c1-1.3,1.6-2.3,2.3-3.2
		c17.6-20.4,35.2-40.8,52.9-61c1-1.2,2.9-2.1,4.5-2.1c6.2-0.2,12.4-0.2,18.6,0c1.3,0,3,0.6,3.9,1.6c19.6,21.7,39.2,43.5,58.8,65.3
		C298.1,340.3,298.3,340.8,298.9,341.7z"/>
</g>
<g>
	<path class="st4" d="M70.9,231.4c-5-6.9-9.5-13.5-14.4-19.7c-0.9-1.2-3.8-1.7-5.4-1.3c-6.5,1.8-12.9,4.1-19.4,6.2
		c-8,2.5-11.5,0.8-14.2-7.1c-3.8-11.1-7.4-22.3-11-33.5c-2-6.1,0.2-10.5,6.4-12.6c5.8-2,11.7-4,17.7-5.6c4.8-1.2,6.5-3.4,6.1-8.7
		c-2.2-36.3,7.8-69,32-96.2c36.2-40.8,82-55.9,134.7-42.8c52.5,13,85.6,47.9,98.5,100.5c3.2,12.9,2.5,26.9,3.1,40.4
		c0.2,3.6,0.9,5.3,4.5,6.3c6.3,1.7,12.6,3.9,18.8,6c7.1,2.4,9.1,6.3,6.8,13.3c-3.6,11.4-7.3,22.8-11,34.1c-1.9,5.9-6.1,8.1-12.2,6.3
		c-6.9-2-13.7-4.1-20.5-6.6c-3.1-1.1-5-0.9-6.9,2.1c-3.4,5.2-7,10.2-11,14.9c-2.5,2.9-2.3,4.8,0,7.7c4.1,5.1,7.8,10.6,11.7,15.9
		c4.8,6.7,4.2,11-2.3,15.7c-9.3,6.9-18.7,13.7-28.1,20.4c-6,4.3-10.5,3.5-14.9-2.5c-4.3-5.8-8.3-11.8-12.7-17.4
		c-1-1.3-3.7-2.5-5.1-2.1c-7.6,2.2-15,5-23,7.8c0,8.1,0.1,16.5,0,24.8c-0.1,7.7-2.9,10.7-10.4,10.8c-11.8,0.2-23.6,0.2-35.4,0
		c-7.6-0.1-10.4-3.1-10.5-10.7c-0.1-7-0.1-14,0-21c0.1-3.3-0.9-5-4.3-5.8c-6-1.5-11.9-3.3-17.6-5.6c-3-1.2-4.6-0.9-6.4,1.8
		c-4.2,6.1-8.6,12-13,17.9c-4.1,5.4-8.5,6.2-13.9,2.3c-9.9-7-19.8-14.2-29.5-21.5c-5.2-3.9-5.8-8.6-2-14
		C60.9,244.9,66.1,238.1,70.9,231.4z M296.9,152.5c2.1-52.3-16.9-93.3-60.9-119.7C189.9,5.2,142.7,7,98.6,37.6
		C59.3,64.8,42.6,104,45.1,152.4c11.2,0,21.7,0,32.2,0c10.7,0,21.5,0,32.1,0c0.5,1.3,1,2.2,1.2,3.2c6.9,27.3,29.1,46.3,55.9,48
		c27.8,1.7,52.5-14.4,62.6-40.9c4-10.4,4-10.3,15.4-10.2C261.7,152.5,278.9,152.5,296.9,152.5z"/>
	<path d="M225.1,94.3c-4,6.3-7.4,13.2-12.1,18.9c-10.3,12.6-21,25-32.3,36.8c-3.4,3.6-9,5.8-14,6.9c-6.3,1.3-10.5-3.6-8.6-9.9
		c1.3-4.3,3.4-8.8,6.5-11.9c15.9-16.1,33.6-30,53.7-40.5c1.7-0.9,3.5-1.4,5.3-2C224.1,93.2,224.6,93.7,225.1,94.3z"/>
	<path d="M261.6,75.8c-5.1,3.1-9.2,5.5-11.8,7c-7.1-7.1-13.8-13.8-21.2-21.2c1.3-2.2,3.6-6.3,6.8-11.8
		C244.3,58.6,252.7,67,261.6,75.8z"/>
	<path d="M281.6,129.5c-6.6,0-10.9,0-15.1,0c-2.5-9.2-5-18.1-7.6-27.7c3.6-2.2,7.8-4.7,13.3-7.9
		C275.3,105.9,278.3,117.2,281.6,129.5z"/>
	<path d="M174.8,47.9c-2.7,0-5,0-7.8,0c0-6.9,0-13.5,0-20.5c2.6,0,5,0,7.8,0C174.8,34.3,174.8,40.9,174.8,47.9z"/>
	<path d="M93.4,90.7c-1.7,2.7-3,4.9-4.4,7.3c-6.3-3.6-12.3-7.1-18.5-10.7c1.6-2.6,2.8-4.7,4.3-7.2C81,83.6,86.8,87,93.4,90.7z"/>
	<path d="M271.5,87.2c-6.6,3.8-12.4,7.2-18.6,10.7c-1.4-2.2-2.7-4.4-4.4-7.2c6.2-3.6,12.1-7,18.4-10.7
		C268.4,82.4,269.7,84.5,271.5,87.2z"/>
	<path d="M121.3,62.8c-3.7-6.4-7.1-12.3-10.7-18.6c2.5-1.5,4.7-2.7,7.3-4.2c3.6,6.2,7,12,10.7,18.3C126.1,59.8,124,61.2,121.3,62.8z
		"/>
	<path d="M213.4,58.3c3.9-6.6,7.1-12.2,10.7-18.2c2.5,1.4,4.6,2.6,7.3,4.1c-3.6,6.3-7,12.2-10.7,18.6
		C218.1,61.3,215.9,59.9,213.4,58.3z"/>
	<path d="M57.7,136.6c7,0,13.7,0,20.7,0c0.1,2.6,0.3,4.9,0.4,7.7c-7.1,0-13.9,0-21.1,0C57.7,141.8,57.7,139.5,57.7,136.6z"/>
	<path d="M263.7,144.2c0-3,0-5.1,0-7.6c6.9,0,13.5,0,20.5,0c0,2.6,0,4.9,0,7.6C277.5,144.2,270.8,144.2,263.7,144.2z"/>
</g>
<g class="st0">
	<path class="st1" d="M378.8,63.7c0,80.2,0,160.4,0,240.6c-6.9,16.1-13,20.1-30.8,20.1c-23.6,0-47.2,0.1-70.8,0
		c-14.8,0-25.7-11.1-25.7-25.9c0-15,0-29.9,0-44.9c0-1.8,0-3.6,0-5.5c-29.9,0-59,0-88.8,0c8.4,17,16.7,33.5,25,50.4
		c-34.4,0-67.7,0-101.8,0c8.5-17,16.7-33.5,25.2-50.6c-2.8,0-4.8,0-6.9,0c-35.3,0-70.7,0-106,0c-16.5,0-27.2-10.7-27.2-27
		c0-67.1,0-134.2,0-201.3C-29,3.8-18.3-6.9-2.5-6.9c92.9,0,185.9,0,278.8,0c15.6,0,26.1,10.6,26.1,26.3c0,8.1,0,16.2,0,24.7
		c2.5,0,4.3,0,6.2,0c15.1,0,30.2,0,45.4,0c7.2,0,13.5,2.5,18,8C374.8,55.4,376.5,59.8,378.8,63.7z M251.4,196.6c0-2.3,0-4.3,0-6.3
		c0-40.3,0-80.5,0-120.7c0-12.1,7.9-22.3,19.3-25c1.9-0.5,3.9-0.7,5.9-1c0-8.4,0-16.5,0-24.7c-93.4,0-186.5,0-279.9,0
		c0,59.4,0,118.4,0,177.7C81.6,196.6,166.3,196.6,251.4,196.6z M353.2,69.9c-25.7,0-50.9,0-76,0c0,8.5,0,16.5,0,24.6
		c25.5,0,50.7,0,76,0C353.2,86.2,353.2,78.3,353.2,69.9z M277.1,145.6c25.6,0,50.8,0,76,0c0-8.5,0-16.6,0-24.7c-25.5,0-50.6,0-76,0
		C277.1,129.2,277.1,137.1,277.1,145.6z M315.1,222.6c-7.1,0-12.6,5.6-12.6,12.5c0,6.9,5.7,12.5,12.7,12.5c7,0,12.6-5.6,12.5-12.6
		C327.7,228,322.2,222.6,315.1,222.6z M315.1,298.6c7,0,12.6-5.5,12.6-12.5c0-7-5.5-12.5-12.5-12.5c-7.1,0-12.6,5.5-12.7,12.5
		C302.5,292.9,308.1,298.6,315.1,298.6z"/>
</g>
</svg>
