<?xml version="1.0" encoding="utf-8"?>
<!-- Generator: Adobe Illustrator 23.0.0, SVG Export Plug-In . SVG Version: 6.00 Build 0)  -->
<svg version="1.1" id="Layer_1" xmlns="http://www.w3.org/2000/svg" xmlns:xlink="http://www.w3.org/1999/xlink" x="0px" y="0px"
	 viewBox="0 0 266 310.7" style="enable-background:new 0 0 266 310.7;" xml:space="preserve">
<g>
	<path d="M154.6,19.7c-1.3,2.8-2.5,5.6-3.9,8.2c-1,1.9-1.2,3.7-0.3,5.7c1,2.2,1.7,4.5,2.6,7.1c-33.8-5.6-63.6,2.2-89,25
		C46,82,35.2,102.4,31.6,126.4c-7.3,48,20.7,94.8,66.4,111.4c45.9,16.6,96.4-1,122.3-42.8c25.6-41.2,19.2-99.8-24.2-134.3
		c2.6-1,5.1-1.7,7.3-2.8c1.2-0.6,2.5-1.7,3.1-2.8c1.7-3,3-6.1,4.5-9.3c40.9,31.8,61.6,96.2,31.5,153.5
		c-29.9,57-99.7,81.7-158.4,56.2c-60.4-26.3-90-93.6-68-155.3C37.9,38.9,100.1,9,154.6,19.7z"/>
	<path d="M180.6,66.2c36.1,21.6,53.6,70.7,33,113.9c-21.2,44.3-73.5,63-118.3,42.5c-43.8-20-63.8-72.5-44.4-116.6
		c20.2-45.9,69.5-62.2,107.7-49.9c-3.1,6.6-6.1,13.2-9.3,19.7c-0.3,0.5-1.9,0.8-2.8,0.6c-35.5-7.2-69.7,14.5-78.3,49.8
		c-9.3,38,17.3,76.6,56.2,81.3c37.2,4.5,70.7-21.4,74.6-58.5c2.6-24.5-6.3-44.7-25.6-60.1c-2-1.6-2.3-2.6-1.2-4.9
		C175.2,78.2,177.8,72.2,180.6,66.2z"/>
	<path d="M165.3,99.1c21.2,14.7,27.4,45.8,14.1,68.8c-14,24.2-43.6,33.7-68.7,22.1c-25.3-11.7-37.6-40.8-28-66.8
		c10.1-27.2,37.9-39.1,60.4-34c-2.8,6-5.5,12-8.4,17.8c-0.4,0.7-2,1-3.1,1.1c-15,0.7-27.3,10.8-31.1,25.5
		c-4.6,18.2,7.1,36.7,25.7,40.7c18.1,3.9,36.6-8.6,39.6-26.9c1.8-10.5-0.9-19.8-7.8-28c-0.6-0.7-1.1-2.1-0.8-2.8
		C159.7,110.8,162.5,105,165.3,99.1z"/>
	<path d="M64.9,260.6c4.8,2.4,9.2,4.6,13.8,6.9c-0.4,0.8-0.7,1.6-1.2,2.3c-7.3,12.5-14.6,24.9-21.9,37.5c-1.4,2.5-3.2,3.6-6.1,3.5
		c-4.4-0.2-8.9,0-14,0C45.5,293.8,55.1,277.3,64.9,260.6z"/>
	<path d="M200.7,260.7c9.7,16.6,19.3,33.1,29.2,50c-5.7,0-10.8,0.1-15.9-0.1c-1.2-0.1-2.7-1.1-3.3-2.2c-8-13.4-15.9-27-23.9-40.7
		C191.4,265.3,195.9,263.1,200.7,260.7z"/>
	<path d="M127.7,122.2c-2.4,5.1-4.7,9.8-6.7,14.7c-2.2,5.4-0.3,11.3,4.3,14.5c4.6,3.2,10.9,2.8,15.1-1.3c1.4-1.4,2.5-3.2,3.4-5
		c2.2-4.5,4.3-9.1,6.5-13.8c4.5,5.7,4.1,15.6-0.9,22.2c-5.5,7.4-15,10.2-23.6,6.9c-8.6-3.3-13.9-11.9-13-21.2
		C113.6,131,119.9,123.5,127.7,122.2z"/>
	<path d="M178.4,0c2.9,4.4,2.9,8.3,0.5,12.7c-4.4,8.4-8.1,17.1-12.3,26.1c-2-4-3.5-7.2-1.2-11.6c4.2-7.8,7.6-16.1,11.4-24.1
		C177.3,2.1,177.8,1.2,178.4,0z"/>
	<path d="M188.7,48.9c3.2-6.9,6.3-13.6,9.4-20.2c0.9-2,1.9-4,2.8-6c2.8-6,2.8-6,9.7-7.6c-0.4,0.9-0.6,1.7-0.9,2.5
		c-3.6,7.8-7.6,15.5-10.8,23.4C197,45.6,194.2,48.4,188.7,48.9z"/>
</g>
</svg>
