<svg width="490" height="490" viewBox="0 0 490 490" fill="none" xmlns="http://www.w3.org/2000/svg">
<path d="M45.303 91.8482C70.3232 91.8482 90.606 71.5653 90.606 46.5452C90.606 21.525 70.3232 1.24219 45.303 1.24219C20.2828 1.24219 0 21.525 0 46.5452C0 71.5653 20.2828 91.8482 45.303 91.8482Z" fill="#64DD17"/>
<path d="M180.95 180.706C177.823 170.448 167.49 165.126 156.716 167.793C154.447 168.355 132.668 174.59 112.704 163.781C95.354 154.387 84.128 136.275 80.145 130.07C72.085 117.514 60.832 107.482 45.304 107.482C24.232 107.482 7.15503 124.561 7.15503 145.629V265.514C7.15503 278.929 14.077 290.724 24.545 297.526V467.998C24.545 479.466 33.839 488.759 45.304 488.759C56.769 488.759 66.064 479.466 66.064 467.998V297.525C76.531 290.723 83.454 278.928 83.454 265.514V191.164C86.828 193.59 90.413 195.871 94.215 197.93C109.756 206.343 125.965 208.695 139.225 208.695C155.38 208.695 167.163 205.206 168.037 204.939C178.291 201.813 184.074 190.964 180.95 180.706Z" fill="#64DD17"/>
<path d="M444.697 91.8482C469.717 91.8482 490 71.5653 490 46.5452C490 21.525 469.717 1.24219 444.697 1.24219C419.677 1.24219 399.394 21.525 399.394 46.5452C399.394 71.5653 419.677 91.8482 444.697 91.8482Z" fill="#64DD17"/>
<path d="M309.05 180.706C312.177 170.448 323.022 164.666 333.285 167.793C333.406 167.827 357.333 174.59 377.297 163.781C394.647 154.387 405.872 136.275 409.856 130.07C417.916 117.514 429.169 107.482 444.697 107.482C465.769 107.482 482.846 124.561 482.846 145.629V265.514C482.846 278.929 475.923 290.724 465.456 297.526V467.998C465.456 479.466 456.162 488.759 444.696 488.759C433.231 488.759 423.936 479.466 423.936 467.998V297.525C413.469 290.723 406.545 278.928 406.545 265.514V191.164C403.171 193.59 399.586 195.871 395.785 197.93C380.244 206.343 364.035 208.695 350.774 208.695C334.619 208.695 322.837 205.206 321.963 204.939C311.708 201.814 305.927 190.964 309.05 180.706Z" fill="#64DD17"/>
<path d="M249.749 113.173H213.047C212.443 113.173 211.954 113.662 211.954 114.266V134.694C211.954 136.278 210.665 137.567 209.08 137.567H191.02C189.436 137.567 188.147 136.278 188.147 134.694V114.266C188.147 113.662 187.658 113.173 187.054 113.173H150.351C142.213 113.173 135.592 119.794 135.592 127.932V152.625C135.592 153.135 135.944 153.576 136.441 153.69C138.356 154.128 140.689 154.342 143.575 154.342C148.797 154.342 154.638 153.631 159.329 153.063C160.37 152.937 164.943 152.533 166.126 152.506C179.415 152.212 191.045 161.843 195.448 176.285C201.001 194.524 190.685 213.88 172.453 219.433C170.971 219.885 157.446 223.847 139.225 223.847C138.512 223.847 137.334 223.825 136.705 223.812C136.411 223.806 136.128 223.919 135.919 224.125C135.709 224.331 135.592 224.612 135.592 224.905V235.418C135.592 243.557 142.213 250.178 150.351 250.178H249.749C257.888 250.178 264.509 243.557 264.509 235.418V127.932C264.509 119.794 257.888 113.173 249.749 113.173Z" fill="#253B5C"/>
</svg>
