<svg width="443" height="391" viewBox="0 0 443 391" fill="none" xmlns="http://www.w3.org/2000/svg">
<path d="M155.098 80.3474C177.188 80.3474 195.094 62.4405 195.094 40.3512C195.094 18.2619 177.188 0.35498 155.098 0.35498C133.009 0.35498 115.102 18.2619 115.102 40.3512C115.102 62.4405 133.009 80.3474 155.098 80.3474Z" fill="#64DD17"/>
<path d="M157.619 181.938C173.122 186.954 189.651 186.84 207.122 181.597C216.065 178.883 241.423 164.987 249.866 159.616C234.463 139.766 257.91 149.556 260.049 149.556C261.561 149.556 259.921 147.219 261.247 146.224C264.371 143.837 264.841 145.961 262.445 142.892L260.049 149.556C261.304 147.382 262.032 145.166 262.445 142.892C263.03 133.969 259.051 125.955 259.051 125.955C253.731 115.043 237.945 110.184 228.732 113.239C237.645 124.748 228.732 113.239 221.798 123.341C219.402 120.272 218.703 125.728 221.798 123.341C206.966 133.557 187.655 143.205 172.237 138.317C165.049 136.058 159.387 130.872 155.223 125.415C155.151 112.812 148.947 100.522 137.566 93.1757C119.71 81.7092 97.8888 88.231 84.4538 104.571C65.9273 127.078 56.4002 191.984 55.0025 240.436C55.0738 240.407 53.4907 268.484 75.9821 268.484C82.6283 268.797 140.818 268.683 159.159 268.64C159.216 268.939 159.33 269.521 159.33 270.544C159.244 287.268 159.33 347.869 159.387 376.045C159.401 384.03 165.905 390.395 173.92 390.395H188.325C192.219 390.395 195.898 388.946 198.637 386.261C201.361 383.547 202.901 379.924 202.901 376.073C202.844 347.94 202.758 287.353 202.815 270.729C202.958 241.203 180.367 227.52 165.135 225.445L162.211 225.275C154.253 225.303 144.968 225.332 135.484 225.332C137.381 203.933 139.934 176.695 140.418 173.782C145.482 177.036 151.229 179.849 157.619 181.938Z" fill="#64DD17"/>
<path d="M43.6193 75.7306C43.6193 63.7531 33.8014 54.0488 21.8239 54.0488C9.84631 54.0488 0 63.7673 0 75.7306V292.42C0 303.631 8.55336 312.852 19.4369 314.031C19.4511 314.102 19.5221 314.244 19.5505 314.244H27.0667V364.698C27.0667 372.697 33.3752 379.19 41.346 379.19C49.331 379.19 55.6395 372.74 55.6395 364.698V314.244H101.518V364.698C101.518 372.697 107.812 379.19 115.811 379.19C123.796 379.19 130.091 372.74 130.091 364.698V314.244H144.37V270.682H43.6193V75.7306Z" fill="#64DD17"/>
<path d="M428.678 219.9C425.368 202.85 414.569 188.485 399.509 180.614V166.86H420.565V71.5939L341.582 43.4048V29.2676H312.995V174.391H341.582V166.874H355.889V176.778C337.106 183.001 321.917 199.198 317.953 220.255V234.733C336.907 220.255 305.166 197.905 305.166 177.644C305.166 177.317 305.081 176.65 305.081 176.65H216.762C216.762 176.65 216.677 177.332 216.677 177.644C216.677 197.863 215.5 236.743 234 242L226.267 220.255C218.311 220.255 211.803 226.989 211.803 234.903C211.803 242.903 218.297 249.566 226.267 249.566H255.124V379.643H414.527V249.566H428.536C436.521 249.566 443 242.732 443 234.733C443.014 226.791 436.578 219.999 428.678 219.9Z" fill="#64DD17"/>
</svg>
