<svg width="512" height="512" viewBox="0 0 512 512" fill="none" xmlns="http://www.w3.org/2000/svg">
<g clip-path="url(#clip0)">
<path d="M483.112 385.722L511.711 240.229C513.329 231.997 507.968 224.013 499.737 222.394C491.497 220.778 483.521 226.139 481.902 234.369L455.712 367.602H417.087C422.617 366.333 427.74 363.553 431.838 359.496C437.648 353.744 440.927 345.916 440.949 337.74L441.234 233.513C441.281 216.424 427.363 202.577 410.283 202.699L382.015 202.901C364.943 203.023 351.24 217.052 351.508 234.115L351.879 257.643L378.86 227.633L351.099 277.391H287.987C277.851 277.391 269.636 285.607 269.636 295.743C269.636 305.879 277.852 314.095 287.987 314.095H361.874C368.527 314.095 374.658 310.494 377.899 304.684L406.441 253.526C402.258 273.208 396.257 292.26 389.33 310.2C386.322 317.99 379.494 323.982 370.092 325.471L302.321 325.273C295.104 325.22 288.227 328.779 284.063 334.888C279.948 340.923 279.092 348.605 281.781 355.397L331.769 481.722C336.247 493.039 349.046 498.569 360.348 494.096C371.657 489.621 377.197 476.825 372.722 465.517L366.357 449.431L386.198 397.985H443.885L479.013 489.071C481.029 494.298 486.898 496.885 492.105 494.876C497.324 492.863 499.922 487.001 497.91 481.784L465.593 397.984H468.208C475.468 397.982 481.713 392.845 483.112 385.722ZM355.363 421.646L334.692 369.407L354.582 369.465C349.877 372.046 346.685 377.045 346.685 382.79C346.685 391.179 353.486 397.98 361.875 397.98H364.49L355.363 421.646Z" fill="#64DD17"/>
<path d="M372.26 188.842C394.629 188.842 412.762 170.709 412.762 148.34C412.762 125.971 394.629 107.838 372.26 107.838C349.891 107.838 331.758 125.971 331.758 148.34C331.758 170.709 349.891 188.842 372.26 188.842Z" fill="#64DD17"/>
<path d="M150.127 314.091H224.014C234.15 314.091 242.365 305.875 242.365 295.739C242.365 285.603 234.149 277.39 224.014 277.39H160.903L133.14 227.633L160.12 257.642L160.491 234.114C160.76 217.043 147.049 203.022 129.984 202.9L101.716 202.698C84.6271 202.576 70.7181 216.433 70.7651 233.512L71.0501 337.739C71.0731 345.915 74.3521 353.743 80.1621 359.495C84.2611 363.552 89.3831 366.332 94.9131 367.601H56.288L30.0981 234.368C28.4811 226.135 20.4941 220.776 12.2631 222.393C4.03105 224.011 -1.33095 231.996 0.289051 240.228L28.8891 385.721C30.2881 392.844 36.534 397.982 43.794 397.982H46.4081L14.0901 481.779C12.0781 486.998 14.6771 492.859 19.8961 494.871C25.1061 496.881 30.974 494.29 32.987 489.067L68.1151 397.981H125.802L145.644 449.426L139.279 465.512C134.804 476.821 140.343 489.616 151.653 494.091C162.956 498.565 175.755 493.03 180.232 481.717L230.22 355.392C232.908 348.601 232.053 340.919 227.938 334.883C223.855 328.895 217.026 325.268 209.745 325.268C209.724 325.268 209.702 325.268 209.68 325.268C137.643 325.478 142.189 325.507 141.465 325.392C132.647 323.991 125.69 317.956 122.669 310.195L105.558 253.521L134.102 304.68C137.342 310.491 143.474 314.091 150.127 314.091ZM150.127 397.982C158.516 397.982 165.317 391.181 165.317 382.791C165.317 377.045 162.125 372.046 157.42 369.466L177.31 369.408L156.638 421.648L147.51 397.982H150.127V397.982Z" fill="#64DD17"/>
<path d="M139.745 188.842C162.114 188.842 180.247 170.709 180.247 148.34C180.247 125.971 162.114 107.838 139.745 107.838C117.376 107.838 99.243 125.971 99.243 148.34C99.243 170.709 117.376 188.842 139.745 188.842Z" fill="#64DD17"/>
<path d="M246.224 16.353C206.163 16.353 173.687 39.738 173.687 68.586C173.687 84.098 183.086 98.023 197.996 107.59L187.941 127.67C186.915 129.719 187.352 132.198 189.015 133.772C190.678 135.346 193.178 135.648 195.167 134.511L223.672 118.232C230.772 119.903 238.347 120.819 246.222 120.819C286.285 120.819 318.76 97.433 318.76 68.586C318.761 39.738 286.286 16.353 246.224 16.353Z" fill="#253B5C"/>
</g>
<defs>
<clipPath id="clip0">
<rect width="511.999" height="511.999" fill="white"/>
</clipPath>
</defs>
</svg>
